<svg width="50" height="50" viewBox="0 0 50 50" fill="none" xmlns="http://www.w3.org/2000/svg">
<path fill-rule="evenodd" clip-rule="evenodd" d="M16.7431 24.2118C21.3033 24.0865 24.2519 22.2205 32.8296 19.906C38.1003 18.4837 44.4549 19.8509 48.8509 20.2318C48.9893 20.2441 49.1253 20.1899 49.2172 20.0858C49.3092 19.9817 49.3463 19.8401 49.3171 19.7043C48.7193 16.9342 47.6517 14.2869 46.1604 11.8772C46.0881 11.7617 45.9664 11.6863 45.8309 11.6729C40.3822 11.1241 36.7156 11.2193 33.6166 11.8622C24.8547 13.6805 24.5652 16.3897 16.47 17.6516C9.90604 18.6779 4.63161 18.1278 1.43236 17.515C1.09401 17.4586 1.089 17.4586 0.983739 17.7456C0.98025 17.7546 0.977321 17.7638 0.974967 17.7732C0.584483 19.0644 0.300327 20.3855 0.125343 21.7231C0.0961901 21.9438 0.236655 22.1516 0.452411 22.2068C7.42735 23.9749 11.292 24.3722 16.7431 24.2118Z" fill="white"/>
<path fill-rule="evenodd" clip-rule="evenodd" d="M49.8746 23.5376C49.8751 23.3556 49.762 23.1926 49.5914 23.1291C44.2982 21.183 39.3726 22.0434 34.0526 23.1479C26.9423 24.6241 25.6165 28.2719 15.8333 29.1942C10.7047 29.6801 5.53189 29.3716 0.497452 28.2795C0.471136 28.2732 0.44482 28.2682 0.417251 28.2644C0.21675 28.2181 0.12903 28.3897 0.166624 28.5489C0.317143 29.6188 0.5386 30.6775 0.829532 31.7181C0.873163 31.8729 0.998304 31.9913 1.15535 32.0263C8.60271 33.6917 14.9887 34.3133 20.3934 33.7018C30.2067 32.5902 28.109 29.7043 36.7644 29.792C40.604 29.8308 45.1265 30.7343 48.817 30.7544C49.0272 30.7561 49.2091 30.6084 49.2506 30.4023C49.5639 28.7945 49.8772 26.6115 49.8772 25.005L49.8746 23.5376Z" fill="white"/>
<path fill-rule="evenodd" clip-rule="evenodd" d="M47.5276 34.3972C42.6404 32.9173 37.9198 32.2281 35.3609 32.5902C27.292 33.7331 27.9837 36.2494 19.104 38.1754C12.7356 39.4962 8.02006 39.0977 5.21304 38.5313C4.14788 38.3609 3.97244 38.6228 4.48497 39.4173C9.68959 46.7853 18.4613 50.7762 27.4354 49.8592C36.4095 48.9422 44.1927 43.2596 47.7995 34.9912C47.8493 34.8769 47.8481 34.7469 47.7962 34.6335C47.7443 34.5202 47.6466 34.4342 47.5276 34.3972Z" fill="white"/>
<path fill-rule="evenodd" clip-rule="evenodd" d="M3.71432 12.9073C6.56282 13.403 9.44959 13.6458 12.3409 13.6328C23.4073 13.4799 24.2619 11.1804 30.0276 9.41854C36.1116 7.55889 39.5326 8.41604 42.8622 8.05639C42.906 8.05639 42.9512 8.04762 42.995 8.04135C43.0312 8.03777 43.0632 8.01664 43.0807 7.98484C43.0983 7.95305 43.099 7.91466 43.0827 7.8822C43.0804 7.87728 43.077 7.87298 43.0727 7.86967L42.9712 7.7619C37.575 2.10444 29.8415 -0.700672 22.0731 0.181673C14.3047 1.06402 7.39729 5.53207 3.4073 12.2556C3.33553 12.3801 3.32924 12.5318 3.39047 12.6617C3.45169 12.7917 3.57267 12.8834 3.71432 12.9073Z" fill="white"/>
</svg>
