<svg width="50" height="50" viewBox="0 0 50 50" fill="none" xmlns="http://www.w3.org/2000/svg">
<rect width="50" height="50" fill="white"/>
<path d="M41.8489 28.7198C41.8489 33.3919 38.0586 37.1799 33.3881 37.1799H16.4624C11.7895 37.1799 8 33.3919 8 28.7198V11.7957C8 7.12285 11.7895 3.33331 16.4624 3.33331H33.3881C38.0586 3.33331 41.8489 7.12285 41.8489 11.7957V28.7198Z" fill="#E71823"/>
<path d="M40.9997 44.834C40.7435 44.7439 40.6938 44.9644 40.6938 44.9644V44.9628C40.6698 45.0568 40.6379 45.1476 40.5999 45.2345C40.513 45.4332 40.1404 46.2397 39.1158 46.2397C38.0648 46.2397 37.1768 45.4798 37.1768 43.9778C37.1768 42.8663 37.672 41.6647 39.1158 41.6647C39.9844 41.6647 40.3965 42.1832 40.4811 42.3477C40.5541 42.4944 40.6193 42.6947 40.9042 42.5876C40.9663 42.5627 41.1076 42.4626 41.0121 42.2864L40.9422 42.1645C40.8149 41.9565 40.2871 41.2432 39.1158 41.2432C37.6355 41.2432 36.687 42.2934 36.687 43.9778C36.687 45.5481 37.6285 46.6504 39.1158 46.6504C40.4649 46.6504 40.9151 45.701 41.0315 45.4464C41.0897 45.3199 41.1347 45.1848 41.1712 45.042C41.1953 44.8829 40.9997 44.834 40.9997 44.834ZM34.5143 44.2052H32.59V46.4198C32.59 46.5572 32.4798 46.6667 32.3432 46.6667C32.2081 46.6667 32.0995 46.5572 32.0995 46.4198V41.4302C32.0995 41.3208 32.1732 41.2502 32.2857 41.2502H34.46C35.2393 41.2502 36.0272 41.7353 36.0272 42.6901C36.0272 43.8909 35.0235 43.9949 35.0235 43.9949V44.0096C35.3068 44.0298 35.927 44.2487 35.927 45.174C35.927 46.1458 36.0699 46.4105 36.0699 46.5355C36.0699 46.596 36.0241 46.6667 35.8665 46.6667C35.563 46.6667 35.5288 46.5044 35.5009 46.0527C35.497 45.9789 35.4861 45.6793 35.4675 45.4519C35.3984 44.5569 35.1236 44.2122 34.5143 44.2052ZM35.5358 42.7615C35.5358 42.0745 35.0965 41.6693 34.4235 41.6693H32.59V43.7869H34.4235C35.0522 43.7869 35.5358 43.3894 35.5358 42.7615ZM19.2956 46.1458C19.2956 46.4563 19.5083 46.6612 19.8188 46.6612C20.1316 46.6612 20.3419 46.4563 20.3419 46.1458V41.7865C20.3419 41.476 20.1285 41.2432 19.8188 41.2432C19.5067 41.2432 19.2956 41.476 19.2956 41.7865V46.1458ZM16.1379 41.2432C14.7399 41.2432 13.9699 41.8836 13.9699 43.2862V46.1241C13.9699 46.4385 14.1795 46.6504 14.4915 46.6504C14.7989 46.6504 15.01 46.4385 15.01 46.1241C15.01 46.1241 15.0163 43.5594 15.0163 43.2862C15.0163 42.5107 15.3679 42.0745 16.141 42.0745C16.9188 42.0745 17.2642 42.5107 17.2627 43.2862C17.2627 43.2862 17.2611 45.6467 17.2611 46.1241C17.2611 46.4385 17.4738 46.6504 17.7843 46.6504C18.0971 46.6504 18.3075 46.4385 18.3075 46.1241V43.2862C18.3075 41.8836 17.5374 41.2432 16.1379 41.2432ZM10.8471 46.6527C12.2459 46.6527 13.0182 46.0139 13.0182 44.6166V41.7865C13.0182 41.476 12.8071 41.2432 12.4966 41.2432C12.1869 41.2432 11.9765 41.476 11.975 41.7865V44.6166C11.975 45.3898 11.6203 45.8229 10.8471 45.8229C10.0678 45.8229 9.72316 45.3898 9.72471 44.6166C9.72471 44.6166 9.72626 42.2631 9.72626 41.7865C9.72626 41.476 9.5128 41.2432 9.20309 41.2432C8.88949 41.2432 8.67758 41.476 8.67758 41.7865V44.6166C8.67758 46.0139 9.44915 46.6527 10.8471 46.6527ZM26.1862 41.2502C25.8679 41.2502 25.7693 41.3953 25.7453 41.4458L24.05 46.0325L22.3493 41.4489C22.3299 41.4046 22.2359 41.2502 21.9037 41.2502C21.5637 41.2502 21.549 41.5133 21.549 41.5133V46.4206C21.549 46.5572 21.6576 46.6667 21.7943 46.6667C21.9309 46.6667 22.0403 46.5572 22.0403 46.4206V41.9488H22.052L23.7302 46.4408C23.7302 46.4408 23.8093 46.6667 24.0461 46.6667C24.279 46.6667 24.369 46.4439 24.369 46.4423L26.0379 41.9488H26.0534V46.4206C26.0534 46.5572 26.1621 46.6667 26.2987 46.6667C26.4338 46.6667 26.5424 46.5572 26.5424 46.4206V41.5133C26.5424 41.5133 26.5292 41.2502 26.1862 41.2502ZM31.0772 46.4788C31.0772 46.4788 31.1486 46.6667 31.4047 46.6667C31.6593 46.6667 31.6019 46.4788 31.6019 46.4788L29.6947 41.4582C29.6932 41.4535 29.6116 41.2502 29.34 41.2502C29.0652 41.2502 28.9821 41.459 28.9821 41.459V41.4582L27.026 46.4788C27.0245 46.4866 26.967 46.6667 27.2147 46.6667C27.4724 46.6667 27.543 46.4788 27.543 46.4788L28.136 44.8938H30.4771L31.0772 46.4788ZM28.2874 44.4761L29.319 41.7415L30.3134 44.4761H28.2874Z" fill="black"/>
<path d="M41.8489 28.2043C41.1558 28.9968 39.3122 29.9205 37.2312 29.9205C34.0471 29.9205 30.8405 28.025 30.5176 24.4761H30.2738C28.6531 29.6015 25.0584 30.4103 23.0937 30.4103C15.6862 30.4103 15.8609 20.9109 16.3002 16.5151C16.4034 15.4812 16.5338 11.4518 18.5544 11.4518C20.1705 11.4518 19.9663 13.1152 19.9042 14.6855C19.7505 18.4479 18.7213 27.5888 24.0594 27.5888C30.5649 27.5888 29.8097 19.273 30.5696 15.3143C30.8832 13.6858 33.5061 13.7277 33.4137 15.7948C33.3198 17.9247 33.2025 19.62 33.0985 21.8796C32.7554 29.2732 38.7533 29.4688 41.8489 27.4708V28.2043Z" fill="white"/>
</svg>
