<svg width="30" height="30" viewBox="0 0 30 30" fill="none" xmlns="http://www.w3.org/2000/svg">
<circle cx="15" cy="15" r="14.5" fill="white" stroke="#36CBCB"/>
<path d="M15.1141 5.21289H15.9036C15.9036 5.21289 15.9036 5.77596 16.0791 6.42567C16.0791 6.42567 16.5177 7.42187 16.6054 8.24483C16.6054 8.24483 16.6493 8.76459 16.9563 8.98116C16.9563 8.98116 18.0967 9.93405 18.1845 11.0169V11.6666V11.8398V21.8019L18.2283 21.9319V23.2746C18.2283 23.2746 17.9651 24.7905 17.4388 25.0937C17.4388 25.0937 16.3861 25.4836 15.4212 25.3969L15.1141 25.0937V5.21289H15.1141Z" fill="#D5D7D5"/>
<path d="M15.1142 5.21289H14.3247C14.3247 5.21289 14.3247 5.77596 14.1492 6.42567C14.1492 6.42567 13.7106 7.42187 13.6229 8.24483C13.6229 8.24483 13.579 8.76459 13.272 8.98116C13.272 8.98116 12.1316 9.93405 12.0439 11.0169V11.6666V11.8398V21.8019L12 21.9319V23.2746C12 23.2746 12.2632 24.7905 12.7895 25.0937C12.7895 25.0937 13.8422 25.4836 14.8071 25.3969L15.1142 25.0937V5.21289Z" fill="#F5F3F2"/>
<path d="M12.0439 14.6983H12.3071C12.3071 14.6983 12.7018 13.832 15.1142 13.832V19.3761H12.0877L12.0439 14.6983Z" fill="#006858"/>
<path d="M12.0439 14.9584H12.3071C12.3071 14.9584 12.7457 14.0488 15.1142 14.0488V19.0299H12.0439V14.9584Z" fill="#00B1C8"/>
<path d="M18.1845 14.6983H17.9213C17.9213 14.6983 17.5265 13.832 15.1141 13.832V19.3761H18.1406L18.1845 14.6983Z" fill="#003333"/>
<path d="M18.1845 14.9584H17.9213C17.9213 14.9584 17.4827 14.0488 15.1141 14.0488V19.0299H18.1845V14.9584Z" fill="#049899"/>
<rect x="14.1053" y="4" width="1.97377" height="1.21278" fill="#999999"/>
</svg>
