<svg width="30" height="30" viewBox="0 0 30 30" fill="none" xmlns="http://www.w3.org/2000/svg">
<circle cx="15" cy="15" r="14.5" fill="white" stroke="#6C006F"/>
<path d="M15.6718 25.0487C16.099 25.0149 16.0423 24.0838 16.0423 24.0838C16.0423 24.0838 16.0123 13.7838 16.0423 12.7717C16.0618 12.3337 15.9925 11.8962 15.8387 11.4863C15.6718 10.9566 14.8774 10.3358 14.8774 10.3358C14.7706 10.2684 14.6834 10.1736 14.6247 10.0609C14.5661 9.94832 14.5381 9.82197 14.5436 9.69482V8.7603V7.7583H12.5209V8.77042V9.70494C12.5273 9.83271 12.4998 9.95988 12.4411 10.0732C12.3824 10.1866 12.2947 10.2819 12.1871 10.3493C12.1871 10.3493 11.3927 10.9701 11.2258 11.4964C11.0672 11.902 10.9911 12.3357 11.0022 12.7717C11.0322 13.7838 11.0022 24.0973 11.0022 24.0973C11.0022 24.0973 10.9488 24.9913 11.3727 25.0622C12.795 25.3171 14.251 25.3125 15.6718 25.0487Z" fill="#030F1C"/>
<path d="M13.4887 7.71143H12.5275V8.72354V9.66144C12.5331 9.78955 12.5052 9.9169 12.4466 10.0306C12.388 10.1444 12.3008 10.2405 12.1937 10.3092C12.1937 10.3092 11.3792 10.9063 11.2123 11.4225C11.0561 11.8342 10.9856 12.2741 11.0054 12.7147C11.0354 13.7268 11.0054 24.0841 11.0054 24.0841C11.0054 24.0841 10.952 24.9849 11.3792 25.0524C12.0336 25.1723 12.6969 25.2355 13.3619 25.2413C13.442 10.1101 13.4887 7.71143 13.4887 7.71143Z" fill="#1E1E1E"/>
<path d="M14.5471 5.13696H12.5144V8.64901H14.5471V5.13696Z" fill="#53171F"/>
<path d="M12.7111 4.00007H14.34C14.3709 4.00007 14.4007 4.01251 14.4226 4.03466C14.4445 4.0568 14.4568 4.08684 14.4568 4.11815V4.48926H12.5742V4.15189C12.5718 4.13252 12.5736 4.11285 12.5794 4.09423C12.5852 4.07561 12.595 4.0585 12.608 4.04406C12.621 4.02963 12.637 4.01822 12.6548 4.01063C12.6726 4.00303 12.6918 3.99943 12.7111 4.00007Z" fill="#53171F"/>
<path d="M14.5267 4.44214H12.5407C12.4964 4.44214 12.4606 4.47839 12.4606 4.52311V5.154C12.4606 5.19871 12.4964 5.23497 12.5407 5.23497H14.5267C14.5709 5.23497 14.6068 5.19871 14.6068 5.154V4.52311C14.6068 4.47839 14.5709 4.44214 14.5267 4.44214Z" fill="#411318"/>
<path d="M15.8588 13.0889H11.2326V20.0691H15.8588V13.0889Z" fill="white"/>
<path d="M15.7182 13.2576H11.3657V13.74H15.7182V13.2576Z" fill="#9E7509"/>
<path d="M14.3197 13.4733C14.3197 13.6328 14.2729 13.7887 14.1852 13.9213C14.0976 14.0539 13.973 14.1572 13.8272 14.2183C13.6814 14.2793 13.521 14.2953 13.3663 14.2641C13.2115 14.233 13.0694 14.1562 12.9578 14.0435C12.8463 13.9307 12.7703 13.787 12.7395 13.6306C12.7087 13.4742 12.7245 13.3121 12.7849 13.1647C12.8453 13.0174 12.9475 12.8915 13.0787 12.8029C13.2099 12.7143 13.3641 12.667 13.5219 12.667C13.7335 12.667 13.9364 12.7519 14.086 12.9032C14.2356 13.0544 14.3197 13.2595 14.3197 13.4733Z" fill="#9A7408"/>
<path d="M18.1096 14.6296C18.0093 13.9325 17.7711 10.5867 17.7711 10.5867C17.909 10.536 17.8839 10.3206 17.8087 10.1051C17.7334 9.90233 17.7334 9.71223 17.7334 9.71223L16.9811 9.61084L16.2288 9.71223C16.2288 9.71223 16.2288 9.90233 16.1536 10.1051C16.0783 10.3079 16.0533 10.5233 16.1912 10.5867C16.1912 10.5867 15.9655 13.9325 15.8526 14.6296C15.6771 15.8209 15 15.8335 15 16.9615C15 17.7472 15 23.8686 15 24.4135C15 25.1613 15.6771 25.25 16.9811 25.25C18.2851 25.25 18.9622 25.1613 18.9622 24.4135C18.9622 23.8686 18.9622 17.7472 18.9622 16.9615C18.9748 15.8335 18.2977 15.8209 18.1096 14.6296Z" fill="#93AE1D"/>
<path opacity="0.2" d="M17.0313 9.62351L16.9811 9.61084L16.2288 9.71223C16.2288 9.71223 16.2288 9.90233 16.1536 10.1051C16.0783 10.3079 16.0533 10.5233 16.1912 10.5867C16.1912 10.5867 15.9655 13.9325 15.8526 14.6296C15.6771 15.8209 15 15.8335 15 16.9615C15 17.7472 15 23.8686 15 24.4135C15 25.1613 15.6771 25.25 16.9811 25.25C16.9937 25.25 17.0187 25.25 17.0313 25.25V9.62351Z" fill="white"/>
<path d="M18.7618 18.6346C18.6991 18.4319 18.5361 18.4192 18.5361 18.4192C17.9468 17.9883 17.1443 17.9883 16.9938 17.9883C16.8308 17.9883 16.0409 17.9883 15.4515 18.4192C15.4515 18.4192 15.2885 18.4445 15.2259 18.6346H15.0127V21.5876C15.0127 21.5876 15.1005 21.9044 15.4139 21.9551C15.4139 21.9551 15.5142 21.9931 15.5644 22.0818C15.5644 22.0818 15.6522 22.2339 15.8653 22.2339C15.8653 22.2339 16.0534 22.2593 16.2415 22.462C16.2415 22.462 16.6553 22.7282 16.9813 22.7535C16.9938 22.7535 16.9938 22.7535 17.0063 22.7535C17.0189 22.7535 17.0189 22.7535 17.0314 22.7535C17.37 22.7282 17.7712 22.462 17.7712 22.462C17.9593 22.2466 18.1474 22.2339 18.1474 22.2339C18.3605 22.2466 18.4483 22.0818 18.4483 22.0818C18.511 21.9931 18.5988 21.9551 18.5988 21.9551C18.9122 21.8917 19 21.5876 19 21.5876V18.6346H18.7618Z" fill="white"/>
<path d="M15.9403 13.8566L16.0908 9.8138C16.0908 9.8138 17.0563 9.65148 17.8462 9.80356L18.0343 13.8718C18.0343 13.8718 17.796 13.806 17.6205 14.0087C17.445 14.2115 17.3446 14.3256 17.0061 14.3256C16.6676 14.3382 16.5547 14.3129 16.2789 14.0214C16.2663 14.0341 16.2287 13.8313 15.9403 13.8566Z" fill="#FEFFE4"/>
<path d="M16.9559 13.02L17.006 12.5131L17.1816 12.6271L17.0813 12.437L17.3571 12.399L17.0813 12.3483L17.1816 12.1582L17.0186 12.2596L16.9559 11.74L16.9182 12.2469L16.7302 12.1455L16.8305 12.323L16.5546 12.3737L16.843 12.437L16.7302 12.6271L16.9057 12.5257L16.9559 13.02Z" fill="#C22537"/>
<path d="M17.6333 9.52222C17.4327 9.52222 16.9813 9.52222 16.9813 9.52222C16.9813 9.52222 16.5299 9.52222 16.3293 9.52222C16.1286 9.52222 16.0785 9.85173 16.0785 9.85173C16.0785 9.85173 16.2415 9.88975 16.9813 9.88975C17.7211 9.88975 17.8841 9.85173 17.8841 9.85173C17.8841 9.85173 17.8339 9.52222 17.6333 9.52222Z" fill="#D5BA4A"/>
<path d="M17.5081 9.85188C17.5081 9.80118 17.4579 9.75049 17.4077 9.75049C17.3576 9.75049 17.3074 9.80118 17.3074 9.85188C17.3074 9.86455 17.3074 9.87722 17.3074 9.87722C17.3827 9.87722 17.4579 9.87722 17.5081 9.87722C17.5081 9.87722 17.5081 9.86455 17.5081 9.85188Z" fill="#D5BA4A"/>
<path d="M17.2321 9.86433C17.2321 9.81363 17.182 9.76294 17.1318 9.76294C17.0816 9.76294 17.0315 9.81363 17.0315 9.86433C17.0315 9.877 17.0315 9.88968 17.0315 9.88968C17.1067 9.88968 17.1694 9.88968 17.2321 9.88968C17.2321 9.877 17.2321 9.877 17.2321 9.86433Z" fill="#D5BA4A"/>
<path d="M17.7838 9.83918C17.7838 9.78849 17.7337 9.73779 17.671 9.73779C17.6208 9.73779 17.5707 9.78849 17.5707 9.85185C17.5707 9.86453 17.5707 9.8772 17.5707 9.88987C17.6584 9.88987 17.7337 9.8772 17.7713 9.8772C17.7838 9.85185 17.7838 9.85185 17.7838 9.83918Z" fill="#D5BA4A"/>
<path d="M16.8559 9.76294C16.8057 9.76294 16.7556 9.81363 16.7556 9.86433C16.7556 9.877 16.7556 9.88968 16.7556 9.88968C16.8182 9.88968 16.8935 9.88968 16.9562 9.88968C16.9562 9.877 16.9562 9.877 16.9562 9.86433C16.9562 9.80096 16.906 9.76294 16.8559 9.76294Z" fill="#D5BA4A"/>
<path d="M16.5799 9.75049C16.5298 9.75049 16.4796 9.78851 16.4796 9.85188C16.4796 9.86455 16.4796 9.87722 16.4796 9.8899C16.5423 9.8899 16.605 9.8899 16.6802 9.8899C16.6802 9.87722 16.6802 9.87722 16.6802 9.86455C16.6802 9.80118 16.6301 9.75049 16.5799 9.75049Z" fill="#D5BA4A"/>
<path d="M16.1913 9.86451C16.2415 9.86451 16.3042 9.87718 16.3919 9.87718C16.3919 9.86451 16.3919 9.85183 16.3919 9.83916C16.3919 9.78847 16.3543 9.73777 16.2916 9.7251C16.2415 9.7251 16.1913 9.76312 16.1788 9.82649C16.1913 9.85183 16.1913 9.85183 16.1913 9.86451Z" fill="#D5BA4A"/>
<path d="M18.5485 20.0661C18.5234 20.0281 18.5109 20.0027 18.4983 19.9647C18.4858 19.9394 18.4858 19.9013 18.4983 19.876C18.4356 19.8633 18.398 19.8633 18.3855 19.9013C18.3855 19.914 18.373 19.9267 18.373 19.9394C18.3353 19.9013 18.3228 19.876 18.3228 19.8506C18.3228 19.838 18.3228 19.838 18.3228 19.8253C18.3353 19.7873 18.373 19.7619 18.4106 19.7619C18.3855 19.7239 18.3479 19.7112 18.3103 19.7112C18.2852 19.7112 18.2726 19.7239 18.2601 19.7366C18.2601 19.7239 18.2601 19.7112 18.2601 19.6986C18.2601 19.6732 18.2726 19.6479 18.2726 19.6352C18.2726 19.6352 18.2476 19.6225 18.235 19.6225C18.235 19.6098 18.2225 19.5845 18.2225 19.5591C18.2225 19.5718 18.235 19.5718 18.235 19.5845C18.2476 19.6098 18.2852 19.6225 18.3103 19.6225C18.373 19.6225 18.4231 19.5591 18.4231 19.4958C18.4231 19.4071 18.3604 19.3564 18.2852 19.3564C18.21 19.3564 18.1598 19.4071 18.1473 19.4451C18.1347 19.4324 18.1347 19.4197 18.1096 19.4197C18.0846 19.4071 18.0595 19.4071 18.0344 19.4071C18.0093 19.369 17.9592 19.3564 17.8965 19.369C17.8338 19.3817 17.7586 19.4324 17.6959 19.4324C17.7084 19.4324 17.7335 19.4197 17.746 19.4197C17.7335 19.4197 17.7335 19.4197 17.6959 19.4324C17.6959 19.4324 17.6959 19.4324 17.6833 19.4324C17.6708 19.4324 17.6708 19.4197 17.6582 19.4071C17.6708 19.3944 17.6708 19.3944 17.6708 19.3944C17.6833 19.3944 17.6959 19.4071 17.7209 19.4071C17.7335 19.4071 17.746 19.3944 17.7586 19.3944C17.746 19.3944 17.7335 19.3944 17.7209 19.4071C17.7084 19.4071 17.7084 19.4071 17.6959 19.4071H17.6833L17.6959 19.3944C17.7084 19.3944 17.7335 19.3944 17.746 19.3817C17.7586 19.3817 17.7586 19.369 17.7586 19.3564C17.7586 19.3437 17.7711 19.3437 17.7836 19.331C17.7836 19.331 17.7962 19.331 17.7962 19.3183H17.7836C17.7586 19.331 17.7586 19.331 17.746 19.3437C17.7335 19.3564 17.7209 19.369 17.7084 19.369L17.7209 19.3564C17.7209 19.3564 17.6959 19.3564 17.6833 19.3817C17.6833 19.3944 17.6708 19.3944 17.6708 19.3944C17.6708 19.3944 17.6708 19.3944 17.6833 19.3817C17.6708 19.3817 17.6708 19.3944 17.6582 19.3944C17.6457 19.3817 17.6457 19.3817 17.6332 19.369C17.6457 19.3564 17.6457 19.3437 17.6457 19.331C17.6457 19.3183 17.6457 19.3183 17.6457 19.3057C17.6959 19.2677 17.7711 19.217 17.8714 19.1916C17.7962 19.2043 17.6833 19.2423 17.583 19.331H17.5705L17.5579 19.3183C17.6206 19.2677 17.6959 19.2296 17.7335 19.217H17.7209C17.6959 19.2296 17.583 19.255 17.5078 19.3183C17.4952 19.331 17.4827 19.3437 17.4702 19.3564C17.4451 19.3817 17.42 19.4071 17.3824 19.4197C17.3824 19.4197 17.3824 19.4197 17.3699 19.4197C17.3699 19.4197 17.3699 19.4197 17.3573 19.4197C17.3573 19.4197 17.3573 19.4197 17.3448 19.4197C17.3448 19.4197 17.3448 19.4197 17.3322 19.4197C17.3322 19.4197 17.3322 19.4197 17.3197 19.4197C17.3197 19.4197 17.3197 19.4197 17.3072 19.4197C17.3072 19.4197 17.3072 19.4197 17.2946 19.4197C17.257 19.4451 17.2194 19.4578 17.1818 19.4704C17.1191 19.4958 17.0564 19.5085 16.9812 19.5085C16.8056 19.5085 16.6677 19.4451 16.5298 19.331C16.4796 19.2677 16.4545 19.217 16.442 19.1663C16.442 19.1916 16.4671 19.255 16.4921 19.3057C16.4796 19.293 16.4796 19.293 16.4671 19.2803L16.5172 19.3183C16.4796 19.2296 16.4671 19.1156 16.4671 19.0522C16.4671 19.0395 16.4671 19.0269 16.4671 19.0269C16.4671 19.0269 16.4671 19.0522 16.4671 19.0649C16.4671 19.1409 16.4671 19.2043 16.4921 19.2803C16.4545 19.255 16.4295 19.2296 16.4044 19.2043C16.3793 19.1916 16.3417 19.1663 16.3291 19.1663C16.3793 19.1916 16.4169 19.2296 16.5047 19.3057C16.5047 19.3057 16.5047 19.3183 16.5172 19.3183L16.5047 19.331C16.4796 19.3057 16.4545 19.293 16.4295 19.2677C16.3417 19.1789 16.2539 19.1282 16.1787 19.1156C16.1661 19.1156 16.1661 19.1156 16.1787 19.1156C16.2414 19.1282 16.3291 19.1789 16.4169 19.2803C16.4169 19.293 16.4169 19.331 16.442 19.3564L16.4545 19.369L16.442 19.3817C16.442 19.369 16.4295 19.369 16.4295 19.369C16.4295 19.369 16.4169 19.3564 16.4044 19.3564C16.3918 19.3437 16.3918 19.3437 16.3793 19.331V19.3437L16.3668 19.331C16.3542 19.3183 16.3417 19.3057 16.3417 19.3057L16.3542 19.3183C16.3417 19.3057 16.3291 19.3057 16.3166 19.293C16.3166 19.2803 16.3166 19.2803 16.279 19.255C16.279 19.255 16.2665 19.2423 16.2665 19.255C16.2665 19.255 16.2539 19.255 16.279 19.2677C16.2915 19.2677 16.3041 19.2803 16.3041 19.293V19.3057C16.3041 19.3183 16.3291 19.3183 16.3291 19.3183C16.3417 19.3183 16.3542 19.331 16.3668 19.331L16.3793 19.3437H16.3918H16.3793H16.3668C16.3542 19.3437 16.3417 19.331 16.3291 19.331C16.3166 19.3183 16.3041 19.3183 16.279 19.3183C16.2915 19.3183 16.3166 19.3437 16.3166 19.3437C16.3417 19.369 16.3668 19.3564 16.3668 19.3564H16.3793C16.3918 19.3564 16.4044 19.3564 16.4169 19.369C16.4169 19.369 16.442 19.3944 16.442 19.3817C16.4295 19.3944 16.4169 19.3944 16.3793 19.3817C16.3542 19.369 16.3417 19.369 16.3291 19.369C16.3166 19.369 16.3291 19.369 16.3291 19.369C16.3417 19.369 16.3542 19.3817 16.3668 19.3817C16.3793 19.3944 16.3918 19.3944 16.4169 19.3944C16.4295 19.3944 16.4295 19.3944 16.442 19.3944C16.4295 19.4071 16.4295 19.4071 16.4169 19.4071C16.4044 19.4071 16.3918 19.3944 16.3793 19.3944C16.3793 19.3944 16.3918 19.3944 16.3918 19.4071C16.3918 19.4071 16.3918 19.4071 16.4044 19.4071C16.3417 19.4071 16.2665 19.3564 16.2038 19.3437C16.1411 19.331 16.0909 19.3437 16.0658 19.3817C16.0408 19.369 16.0157 19.3817 15.9906 19.3817C15.9781 19.3944 15.9655 19.3944 15.953 19.4071C15.9279 19.369 15.8903 19.3183 15.8151 19.3183C15.7398 19.3183 15.6771 19.369 15.6771 19.4578C15.6771 19.5211 15.7273 19.5845 15.79 19.5845C15.8151 19.5845 15.8527 19.5718 15.8652 19.5465C15.8778 19.5338 15.8778 19.5338 15.8778 19.5211C15.8778 19.5465 15.8778 19.5718 15.8652 19.5845C15.8527 19.5845 15.8401 19.5845 15.8276 19.5972C15.8401 19.6225 15.8401 19.6352 15.8401 19.6605C15.8401 19.6732 15.8401 19.6859 15.8401 19.6986C15.8276 19.6859 15.8151 19.6732 15.79 19.6732C15.7524 19.6605 15.7147 19.6859 15.6897 19.7239C15.7273 19.7366 15.7649 19.7492 15.7774 19.7873C15.7774 19.7999 15.7774 19.7999 15.7774 19.8126C15.7774 19.838 15.7649 19.876 15.7273 19.9013C15.7273 19.8887 15.7273 19.876 15.7147 19.8633C15.6897 19.8253 15.6521 19.8126 15.6019 19.838C15.6144 19.8633 15.6144 19.9013 15.6019 19.9267C15.5894 19.952 15.5768 19.99 15.5517 20.0281C15.4891 20.1295 15.4138 20.2562 15.4138 20.497C15.4138 20.611 15.4389 20.7124 15.5016 20.8012C15.5517 20.8772 15.627 20.9406 15.7022 20.9786C15.8276 21.0419 15.9781 21.0419 16.0784 20.9659C16.1285 21.0039 16.2038 21.0039 16.2414 20.9532H17.8839C17.9341 21.0039 17.9968 21.0039 18.0469 20.9659C18.1473 21.0419 18.2852 21.0419 18.4231 20.9786C18.4983 20.9406 18.5736 20.8772 18.6237 20.8012C18.6739 20.7124 18.7115 20.611 18.7115 20.497C18.6864 20.3069 18.5987 20.1675 18.5485 20.0661Z" fill="#D5BA4A"/>
<path d="M17.0437 19.762C16.8055 19.762 16.6174 19.6733 16.4669 19.5465C16.4419 19.5719 16.4168 19.5846 16.4042 19.5846C16.3917 19.5972 16.3666 19.5972 16.3541 19.5846C16.3039 19.5846 16.2538 19.5592 16.2287 19.5465C16.2162 19.5719 16.1911 19.6099 16.1284 19.6099C16.0657 19.6099 16.003 19.5719 16.003 19.4958C15.9905 19.5085 15.9905 19.5465 15.9905 19.5846C15.9905 19.8254 15.8525 19.9648 15.7146 20.0788C15.6519 20.1422 15.5892 20.1929 15.5641 20.2563C15.5641 20.2563 15.5641 20.2563 15.5767 20.2563C15.5767 20.2563 15.5892 20.2563 15.5892 20.2689C15.6018 20.2309 15.6268 20.1929 15.7021 20.1549L15.7272 20.1422L15.7397 20.1675C15.7522 20.1929 15.7522 20.2309 15.7522 20.2563C15.7522 20.2816 15.7397 20.3196 15.7272 20.3323C15.7397 20.3323 15.7522 20.345 15.7648 20.345C15.7898 20.3703 15.8024 20.3957 15.8024 20.4337C15.6895 20.421 15.6268 20.4844 15.6018 20.5604C15.5892 20.5858 15.5892 20.6111 15.5892 20.6365C15.5892 20.6872 15.6018 20.7379 15.6394 20.7759C15.6394 20.7505 15.6394 20.7379 15.6394 20.7125C15.6394 20.6998 15.6394 20.6745 15.6394 20.6491C15.6394 20.6365 15.6394 20.6238 15.6268 20.6111C15.6268 20.5984 15.6143 20.5984 15.6018 20.5858C15.6268 20.5478 15.6519 20.5351 15.6895 20.5478C15.7021 20.5478 15.7146 20.5478 15.7272 20.5604C15.7397 20.5478 15.7522 20.5224 15.7898 20.5097L15.8149 20.4971L15.8275 20.5351C15.84 20.5604 15.84 20.5858 15.84 20.6111C15.84 20.6238 15.84 20.6365 15.84 20.6491C15.9027 20.6618 15.9152 20.7125 15.9027 20.7632C15.8651 20.7505 15.84 20.7505 15.8149 20.7632C15.7898 20.7885 15.7898 20.8266 15.8149 20.8646C15.84 20.9026 15.8651 20.9026 15.9152 20.9026C15.9152 20.8899 15.9027 20.8773 15.9027 20.8646C15.9027 20.8519 15.9027 20.8392 15.9152 20.8139C15.9278 20.7885 15.9528 20.7632 15.9905 20.7632C16.0155 20.7505 16.0532 20.7632 16.0782 20.7885C16.1159 20.8139 16.1159 20.8646 16.1284 20.8899C16.1284 20.8899 16.1535 20.8646 16.2036 20.8646H17.8963C17.9465 20.8646 17.9716 20.8899 17.9716 20.8899C17.9716 20.8519 17.9716 20.8139 18.0217 20.7885C18.0468 20.7632 18.0844 20.7632 18.1095 20.7632C18.1346 20.7759 18.1597 20.7885 18.1847 20.8139C18.1973 20.8266 18.1973 20.8519 18.1973 20.8646C18.1973 20.8773 18.1973 20.8899 18.1847 20.9026C18.2349 20.9153 18.26 20.9026 18.285 20.8646C18.2976 20.8392 18.2976 20.7885 18.285 20.7632C18.26 20.7379 18.2349 20.7505 18.1973 20.7632C18.1847 20.6998 18.1973 20.6491 18.26 20.6491C18.26 20.6365 18.26 20.6238 18.26 20.6111C18.26 20.5858 18.2725 20.5604 18.2725 20.5351L18.285 20.4971L18.3101 20.5097C18.3477 20.5224 18.3603 20.5478 18.3728 20.5604C18.3854 20.5478 18.3979 20.5478 18.4104 20.5478C18.4355 20.5478 18.4606 20.5604 18.4982 20.5858C18.4857 20.5858 18.4731 20.5984 18.4731 20.6111C18.4606 20.6238 18.4606 20.6365 18.4606 20.6491C18.4606 20.6618 18.4606 20.6872 18.4606 20.7125C18.4606 20.7379 18.4606 20.7505 18.4606 20.7759C18.4982 20.7379 18.5107 20.6872 18.5107 20.6365C18.5107 20.6111 18.5107 20.5858 18.4982 20.5604C18.4731 20.4844 18.4104 20.421 18.2976 20.4337C18.2976 20.3957 18.3101 20.3703 18.3352 20.345C18.3477 20.3323 18.3603 20.3323 18.3728 20.3323C18.3603 20.307 18.3477 20.2816 18.3477 20.2563C18.3477 20.2182 18.3603 20.1929 18.3603 20.1675L18.3728 20.1422L18.3979 20.1549C18.4731 20.1802 18.4982 20.2309 18.5107 20.2689C18.5107 20.2689 18.5107 20.2689 18.5233 20.2563C18.5233 20.2563 18.5233 20.2563 18.5358 20.2563C18.5107 20.1929 18.448 20.1422 18.3854 20.0788C18.26 19.9648 18.122 19.838 18.122 19.5846C18.122 19.5465 18.1095 19.5085 18.1095 19.4958C18.1095 19.5592 18.0468 19.6099 17.9841 19.6099C17.9214 19.6099 17.8963 19.5719 17.8838 19.5465C17.8587 19.5592 17.8086 19.5846 17.7584 19.5846C17.7333 19.5846 17.7208 19.5846 17.7083 19.5846C17.6957 19.5719 17.6706 19.5719 17.6456 19.5465C17.4575 19.6733 17.2819 19.762 17.0437 19.762Z" fill="white"/>
<path d="M18.5483 20.0663C18.5233 20.0283 18.5107 20.003 18.4982 19.9649C18.4856 19.9396 18.4856 19.9016 18.4982 19.8762C18.4355 19.8636 18.3979 19.8636 18.3853 19.9016C18.3853 19.9142 18.3728 19.9269 18.3728 19.9396C18.3352 19.9016 18.3226 19.8762 18.3226 19.8509C18.3226 19.8382 18.3226 19.8382 18.3226 19.8255C18.3352 19.7875 18.3728 19.7622 18.4104 19.7622C18.3853 19.7241 18.3477 19.7115 18.3101 19.7115C18.285 19.7115 18.2725 19.7241 18.2599 19.7368C18.2599 19.7241 18.2599 19.7115 18.2599 19.6988C18.2599 19.6735 18.2725 19.6481 18.2725 19.6354C18.2725 19.6354 18.2474 19.6228 18.2349 19.6228C18.2349 19.6101 18.2223 19.5847 18.2223 19.5594C18.2223 19.5721 18.2349 19.5721 18.2349 19.5847C18.2474 19.6101 18.285 19.6228 18.3101 19.6228C18.3728 19.6228 18.4229 19.5594 18.4229 19.496C18.4229 19.4073 18.3603 19.3566 18.285 19.3566C18.2098 19.3566 18.1596 19.4073 18.1471 19.4453C18.1346 19.4327 18.1346 19.42 18.1095 19.42C18.0844 19.4073 18.0593 19.4073 18.0342 19.4073C18.0092 19.3693 17.959 19.3566 17.8963 19.3693C17.8336 19.382 17.7584 19.4327 17.6957 19.4327C17.7082 19.4327 17.7333 19.42 17.7459 19.42C17.7333 19.42 17.7333 19.42 17.6957 19.4327C17.6957 19.4327 17.6957 19.4327 17.6832 19.4327C17.6706 19.4327 17.6706 19.42 17.6581 19.4073C17.6706 19.3946 17.6706 19.3946 17.6706 19.3946C17.6832 19.3946 17.6957 19.4073 17.7208 19.4073C17.7333 19.4073 17.7459 19.3946 17.7584 19.3946C17.7459 19.3946 17.7333 19.3946 17.7208 19.4073C17.7082 19.4073 17.7082 19.4073 17.6957 19.4073H17.6832L17.6957 19.3946C17.7082 19.3946 17.7333 19.3946 17.7459 19.382C17.7584 19.382 17.7584 19.3693 17.7584 19.3566C17.7584 19.3439 17.7709 19.3439 17.7835 19.3313C17.7835 19.3313 17.796 19.3313 17.796 19.3186H17.7835C17.7584 19.3313 17.7584 19.3313 17.7459 19.3439C17.7333 19.3566 17.7208 19.3693 17.7082 19.3693L17.7208 19.3566C17.7208 19.3566 17.6957 19.3566 17.6832 19.382C17.6832 19.3946 17.6706 19.3946 17.6706 19.3946C17.6706 19.3946 17.6706 19.3946 17.6832 19.382C17.6706 19.382 17.6706 19.3946 17.6581 19.3946C17.6456 19.382 17.6456 19.382 17.633 19.3693C17.6456 19.3566 17.6456 19.3439 17.6456 19.3313C17.6456 19.3313 17.6456 19.3186 17.6456 19.3059C17.6957 19.2679 17.7709 19.2172 17.8712 19.1919C17.796 19.2045 17.6832 19.2425 17.5829 19.3313H17.5703L17.5578 19.3186C17.6205 19.2679 17.6957 19.2299 17.7333 19.2172H17.7208C17.6957 19.2299 17.5829 19.2552 17.5076 19.3186C17.4951 19.3313 17.4825 19.3439 17.47 19.3566C17.4449 19.382 17.4199 19.4073 17.3822 19.42C17.3822 19.42 17.3822 19.42 17.3697 19.42C17.3697 19.42 17.3697 19.42 17.3572 19.42C17.3572 19.42 17.3572 19.42 17.3446 19.42C17.3446 19.42 17.3446 19.42 17.3321 19.42C17.3321 19.42 17.3321 19.42 17.3195 19.42C17.3195 19.42 17.3195 19.42 17.307 19.42C17.307 19.42 17.307 19.42 17.2945 19.42C17.2569 19.4453 17.2192 19.458 17.1816 19.4707C17.1189 19.496 17.0562 19.5087 16.981 19.5087C16.8055 19.5087 16.6675 19.4453 16.5296 19.3313C16.4795 19.2806 16.4544 19.2172 16.4418 19.1665C16.4418 19.1919 16.4669 19.2552 16.492 19.3059C16.4795 19.2932 16.4795 19.2932 16.4669 19.2806L16.5171 19.3186C16.4795 19.2299 16.4669 19.1158 16.4669 19.0524C16.4669 19.0398 16.4669 19.0271 16.4669 19.0271C16.4669 19.0271 16.4669 19.0524 16.4669 19.0651C16.4669 19.1412 16.4669 19.2045 16.492 19.2806C16.4544 19.2552 16.4293 19.2299 16.4042 19.2045C16.3791 19.1919 16.3415 19.1665 16.329 19.1665C16.3791 19.1919 16.4168 19.2299 16.5045 19.3059C16.5045 19.3059 16.5045 19.3186 16.5171 19.3186L16.5045 19.3313C16.4795 19.3059 16.4544 19.2932 16.4293 19.2679C16.3415 19.1792 16.2538 19.1285 16.1785 19.1158C16.166 19.1158 16.166 19.1158 16.1785 19.1158C16.2412 19.1285 16.329 19.1792 16.4168 19.2806C16.4168 19.2932 16.4168 19.3313 16.4418 19.3566L16.4544 19.3693L16.4418 19.382C16.4418 19.3693 16.4293 19.3693 16.4293 19.3693C16.4293 19.3693 16.4168 19.3693 16.4042 19.3566C16.3917 19.3439 16.3917 19.3439 16.3791 19.3313V19.3439L16.3666 19.3313C16.3541 19.3186 16.3415 19.3059 16.3415 19.3059L16.3541 19.3186C16.3415 19.3059 16.329 19.3059 16.3164 19.2932C16.3164 19.2806 16.3164 19.2806 16.2788 19.2552C16.2788 19.2552 16.2663 19.2426 16.2663 19.2552C16.2663 19.2552 16.2538 19.2552 16.2788 19.2679C16.2914 19.2679 16.3039 19.2806 16.3039 19.2932V19.3059C16.3039 19.3186 16.329 19.3186 16.329 19.3186C16.3415 19.3186 16.3541 19.3313 16.3666 19.3313L16.3791 19.3439H16.3917H16.3791H16.3666C16.3541 19.3439 16.3415 19.3313 16.329 19.3313C16.3164 19.3186 16.3039 19.3186 16.2788 19.3186C16.2914 19.3313 16.3164 19.3439 16.3164 19.3439C16.3415 19.3693 16.3666 19.3566 16.3666 19.3566H16.3791C16.3917 19.3566 16.4042 19.3566 16.4042 19.3693C16.4042 19.3693 16.4293 19.3946 16.4293 19.382C16.4168 19.3946 16.4042 19.3946 16.3666 19.382C16.3415 19.3693 16.329 19.3693 16.3164 19.3693C16.3039 19.3693 16.3164 19.3693 16.3164 19.3693C16.329 19.3693 16.3415 19.382 16.3541 19.382C16.3666 19.3946 16.3791 19.3946 16.4042 19.3946C16.4168 19.3946 16.4168 19.3946 16.4293 19.3946C16.4168 19.4073 16.4168 19.4073 16.4042 19.4073C16.3917 19.4073 16.3791 19.3946 16.3666 19.3946C16.3666 19.3946 16.3791 19.3946 16.3791 19.4073C16.3791 19.4073 16.3791 19.4073 16.3917 19.42C16.329 19.42 16.2538 19.3693 16.1911 19.3566C16.1284 19.3439 16.0782 19.3566 16.0531 19.3946C16.0281 19.382 16.003 19.3946 15.9779 19.3946C15.9654 19.4073 15.9528 19.4073 15.9403 19.42C15.9152 19.382 15.8776 19.3313 15.8024 19.3313C15.7271 19.3313 15.6644 19.382 15.6644 19.4707C15.6644 19.534 15.7146 19.5974 15.7773 19.5974C15.8024 19.5974 15.84 19.5847 15.8525 19.5594C15.8651 19.5467 15.8651 19.5467 15.8651 19.534C15.8651 19.5594 15.8651 19.5847 15.8525 19.5974C15.84 19.5974 15.8274 19.5974 15.8149 19.6101C15.8274 19.6354 15.8274 19.6481 15.8274 19.6735C15.8274 19.6861 15.8274 19.6988 15.8274 19.7115C15.8149 19.6988 15.8024 19.6861 15.7773 19.6861C15.7397 19.6735 15.7021 19.6988 15.677 19.7368C15.7146 19.7495 15.7522 19.7622 15.7647 19.8002C15.7647 19.8129 15.7647 19.8129 15.7647 19.8255C15.7647 19.8509 15.7522 19.8889 15.7146 19.9142C15.7146 19.9016 15.7146 19.8889 15.7021 19.8762C15.677 19.8382 15.6394 19.8255 15.5892 19.8509C15.6017 19.8762 15.6017 19.9142 15.5892 19.9396C15.5767 19.9649 15.5641 20.003 15.539 20.041C15.4764 20.1424 15.4011 20.2691 15.4011 20.5099C15.4011 20.624 15.4262 20.7254 15.4889 20.8141C15.539 20.8901 15.6143 20.9535 15.6895 20.9915C15.8149 21.0549 15.9654 21.0549 16.0657 20.9788C16.1158 21.0168 16.1911 21.0168 16.2287 20.9662H17.8712C17.9214 21.0168 17.9841 21.0168 18.0342 20.9788C18.1346 21.0549 18.2725 21.0549 18.4104 20.9915C18.4856 20.9535 18.5609 20.8901 18.611 20.8141C18.6612 20.7254 18.6988 20.624 18.6988 20.5099C18.6863 20.3071 18.5985 20.1677 18.5483 20.0663ZM17.7333 19.4707C17.7835 19.458 17.8336 19.4327 17.9089 19.4073C17.9465 19.3946 17.9716 19.3946 17.9966 19.4073C18.0217 19.42 18.0342 19.4327 18.0468 19.4453C18.0593 19.4707 18.0593 19.496 18.0468 19.5214C18.0342 19.5467 17.9966 19.5721 17.9465 19.5721C17.9966 19.5847 18.0342 19.5594 18.0593 19.534C18.0593 19.5721 18.0217 19.5974 17.9716 19.6101C17.9089 19.6101 17.8838 19.5847 17.8838 19.5467C17.8838 19.534 17.8838 19.5214 17.8963 19.5087C17.8963 19.5087 17.8838 19.5214 17.8712 19.534C17.796 19.5721 17.7208 19.5847 17.7082 19.5721C17.7082 19.5594 17.7208 19.5594 17.7333 19.5467C17.7709 19.534 17.8211 19.5214 17.8587 19.496C17.8336 19.5087 17.7835 19.5214 17.7584 19.5214C17.7333 19.496 17.7459 19.4833 17.7333 19.4707ZM17.7208 19.4833C17.7333 19.496 17.7208 19.5087 17.6957 19.5214C17.6832 19.534 17.6706 19.534 17.6581 19.5594L17.633 19.534C17.6581 19.5087 17.6706 19.496 17.6832 19.496C17.6957 19.4833 17.7082 19.4707 17.7208 19.4833ZM17.633 19.3439C17.633 19.3566 17.633 19.3693 17.633 19.382L17.6079 19.3693C17.6205 19.3566 17.633 19.3439 17.633 19.3439ZM16.4418 19.3693C16.4293 19.3566 16.4293 19.3313 16.4293 19.3186L16.4544 19.3439C16.4544 19.3566 16.4544 19.3566 16.4669 19.3693C16.4544 19.3693 16.4544 19.3693 16.4418 19.3693C16.4418 19.3693 16.4418 19.382 16.4418 19.3693ZM16.5045 19.3566C16.5171 19.3439 16.5421 19.3566 16.5798 19.3946C16.6675 19.4707 16.818 19.5847 17.0312 19.5847C17.2569 19.5847 17.3948 19.4833 17.4825 19.3946C17.5202 19.3693 17.5452 19.3439 17.5578 19.3566L17.6832 19.458C17.6706 19.4707 17.6455 19.4833 17.6205 19.5087C17.47 19.6481 17.2819 19.7495 17.0312 19.7495C16.7929 19.7495 16.5923 19.6481 16.4418 19.5087C16.4168 19.4833 16.3917 19.4707 16.3791 19.458L16.5045 19.3566ZM16.3541 19.4833C16.3666 19.4707 16.3791 19.4833 16.3917 19.4833C16.4042 19.4833 16.4168 19.5087 16.4418 19.5214L16.4168 19.5467C16.4042 19.534 16.4042 19.5214 16.3791 19.5087C16.3541 19.5087 16.3541 19.496 16.3541 19.4833ZM16.0406 19.4327C16.0531 19.42 16.0657 19.4073 16.0908 19.3946C16.1158 19.382 16.1409 19.3946 16.1785 19.3946C16.2538 19.42 16.3039 19.4453 16.3541 19.458C16.3415 19.4707 16.3541 19.4833 16.3541 19.496C16.329 19.496 16.2788 19.4833 16.2538 19.4707C16.2788 19.496 16.329 19.5087 16.3791 19.5214C16.3917 19.534 16.4168 19.534 16.4042 19.5467C16.3917 19.5594 16.3164 19.5467 16.2412 19.5087C16.2412 19.496 16.2287 19.4833 16.2161 19.4833C16.2161 19.496 16.2287 19.5087 16.2287 19.5214C16.2287 19.5594 16.1911 19.5847 16.1409 19.5847C16.0908 19.5847 16.0531 19.5467 16.0531 19.5087C16.0782 19.5467 16.1158 19.5594 16.166 19.5467C16.1158 19.5467 16.0782 19.5214 16.0657 19.496C16.0281 19.496 16.0281 19.458 16.0406 19.4327ZM16.1284 19.6101C16.1911 19.6101 16.2161 19.5721 16.2287 19.5467C16.2538 19.5594 16.3039 19.5847 16.3541 19.5847C16.3791 19.5847 16.3917 19.5847 16.4042 19.5847C16.4168 19.5721 16.4418 19.5721 16.4669 19.5467C16.6174 19.6735 16.8055 19.7622 17.0437 19.7622C17.2819 19.7622 17.47 19.6735 17.6205 19.5467C17.6455 19.5721 17.6706 19.5847 17.6832 19.5847C17.6957 19.5974 17.7208 19.5974 17.7333 19.5847C17.7835 19.5847 17.8336 19.5594 17.8587 19.5467C17.8712 19.5721 17.8963 19.6101 17.959 19.6101C18.0217 19.6101 18.0844 19.5721 18.0844 19.496C18.0969 19.5087 18.0969 19.5467 18.0969 19.5847C18.0969 19.8255 18.2349 19.9649 18.3728 20.079C18.4355 20.1424 18.4982 20.1931 18.5233 20.2564H18.5107C18.5107 20.2564 18.4982 20.2564 18.4982 20.2691C18.4856 20.2311 18.4606 20.1931 18.3853 20.155L18.3603 20.1424L18.3477 20.1677C18.3352 20.1931 18.3352 20.2311 18.3352 20.2564C18.3352 20.2818 18.3477 20.3198 18.3603 20.3325C18.3477 20.3325 18.3352 20.3451 18.3226 20.3451C18.2976 20.3705 18.285 20.3958 18.285 20.4339C18.3979 20.4212 18.4606 20.4846 18.4856 20.5606C18.4982 20.5859 18.4982 20.6113 18.4982 20.6366C18.4982 20.6873 18.4856 20.738 18.448 20.776C18.448 20.7507 18.448 20.738 18.448 20.7127C18.448 20.7 18.448 20.6747 18.448 20.6493C18.448 20.6366 18.448 20.624 18.4606 20.6113C18.4606 20.5986 18.4731 20.5986 18.4856 20.5859C18.4606 20.5479 18.4355 20.5353 18.3979 20.5479C18.3853 20.5479 18.3728 20.5479 18.3603 20.5606C18.3477 20.5479 18.3352 20.5226 18.2976 20.5099L18.2725 20.4972L18.2599 20.5353C18.2474 20.5606 18.2474 20.5859 18.2474 20.6113C18.2474 20.624 18.2474 20.6366 18.2474 20.6493C18.1847 20.662 18.1722 20.7127 18.1847 20.7634C18.2223 20.7507 18.2474 20.7507 18.2725 20.7634C18.2976 20.7887 18.2976 20.8267 18.2725 20.8648C18.2599 20.9028 18.2223 20.9028 18.1722 20.9028C18.1722 20.8901 18.1847 20.8774 18.1847 20.8648C18.1847 20.8521 18.1847 20.8394 18.1722 20.8141C18.1596 20.7887 18.1346 20.7634 18.0969 20.7634C18.0719 20.7507 18.0343 20.7634 18.0092 20.7887C17.9716 20.8141 17.9716 20.8648 17.959 20.8901C17.959 20.8901 17.9339 20.8648 17.8838 20.8648H16.1911C16.1409 20.8648 16.1158 20.8901 16.1158 20.8901C16.1158 20.8521 16.1158 20.8141 16.0657 20.7887C16.0406 20.7634 16.003 20.7634 15.9779 20.7634C15.9528 20.776 15.9277 20.7887 15.9027 20.8141C15.8901 20.8267 15.8901 20.8521 15.8901 20.8648C15.8901 20.8774 15.8901 20.8901 15.9027 20.9028C15.8525 20.9155 15.8274 20.9028 15.8024 20.8648C15.7898 20.8394 15.7898 20.7887 15.8024 20.7634C15.8274 20.738 15.8525 20.7507 15.8901 20.7634C15.9027 20.7 15.8901 20.6493 15.8274 20.6493C15.8274 20.6366 15.8274 20.624 15.8274 20.6113C15.8274 20.5859 15.8274 20.5606 15.8149 20.5353L15.8024 20.4972L15.7773 20.5099C15.7397 20.5226 15.7271 20.5479 15.7146 20.5606C15.7021 20.5479 15.6895 20.5479 15.677 20.5479C15.6519 20.5479 15.6143 20.5606 15.5892 20.5859C15.6017 20.5859 15.6143 20.5986 15.6143 20.6113C15.6268 20.624 15.6268 20.6366 15.6268 20.6493C15.6268 20.662 15.6268 20.6873 15.6268 20.7127C15.6268 20.738 15.6268 20.7507 15.6268 20.776C15.5892 20.738 15.5767 20.6873 15.5767 20.6366C15.5767 20.6113 15.5767 20.5859 15.5892 20.5606C15.6143 20.4846 15.677 20.4212 15.7898 20.4339C15.7898 20.3958 15.7773 20.3705 15.7522 20.3451C15.7397 20.3325 15.7271 20.3325 15.7146 20.3325C15.7271 20.3071 15.7397 20.2818 15.7397 20.2564C15.7397 20.2184 15.7271 20.1931 15.7271 20.1677L15.7146 20.1424L15.6895 20.155C15.6143 20.1804 15.5892 20.2311 15.5767 20.2691C15.5767 20.2691 15.5767 20.2691 15.5641 20.2564C15.5641 20.2564 15.5641 20.2564 15.5516 20.2564C15.5767 20.1931 15.6394 20.1424 15.7021 20.079C15.8274 19.9649 15.9779 19.8382 15.9779 19.5847C15.9779 19.5467 15.9904 19.5087 15.9904 19.496C16.003 19.5721 16.0657 19.6101 16.1284 19.6101ZM16.0657 20.9915C16.0531 20.9788 16.0406 20.9408 16.0657 20.9155C16.0406 20.9281 16.0281 20.9662 16.0406 20.9915C15.9528 21.0675 15.8149 21.0675 15.6895 21.0042C15.6143 20.9662 15.5516 20.9028 15.5014 20.8267C15.4513 20.738 15.4262 20.6493 15.4262 20.5353C15.4262 20.3071 15.5014 20.1677 15.5641 20.079C15.6017 20.0156 15.6394 19.9649 15.6268 19.9016C15.6519 19.9016 15.677 19.9016 15.6895 19.9269C15.7021 19.9523 15.6895 20.003 15.6644 20.0283C15.7898 19.9396 15.8024 19.8762 15.7898 19.8255C15.7773 19.7875 15.7522 19.7622 15.7271 19.7495C15.7397 19.7368 15.7522 19.7368 15.7773 19.7368C15.8024 19.7368 15.8274 19.7622 15.84 19.8002C15.8651 19.7368 15.8776 19.6988 15.8525 19.6481C15.8651 19.6481 15.8776 19.6481 15.8901 19.6608C15.9027 19.6734 15.9152 19.6988 15.9152 19.7241C15.9152 19.7368 15.9152 19.7495 15.9027 19.7622C15.9152 19.7495 15.9277 19.7241 15.9277 19.7115C15.9277 19.6861 15.9277 19.6608 15.9152 19.6481C15.9027 19.6354 15.8901 19.6354 15.8776 19.6228C15.8901 19.5594 15.8776 19.496 15.84 19.458C15.8274 19.4453 15.8024 19.4327 15.7773 19.4327C15.7397 19.4327 15.7021 19.458 15.7021 19.5087C15.7021 19.534 15.7271 19.5594 15.7397 19.5594C15.7522 19.5594 15.7773 19.5594 15.7898 19.534C15.7773 19.5467 15.7647 19.5467 15.7522 19.534C15.7397 19.534 15.7271 19.5087 15.7271 19.496C15.7271 19.4707 15.7397 19.4453 15.7773 19.4453C15.8024 19.4453 15.8274 19.458 15.84 19.496C15.84 19.534 15.8149 19.5847 15.7647 19.5847C15.7146 19.5847 15.677 19.5467 15.677 19.4833C15.677 19.42 15.7146 19.3693 15.7898 19.3693C15.8525 19.3693 15.9027 19.42 15.9152 19.458C15.9027 19.496 15.9027 19.5594 15.9528 19.6101C15.9152 19.534 15.9277 19.4707 15.9528 19.4327C15.9654 19.42 16.003 19.3946 16.0281 19.4073C16.0281 19.4073 16.003 19.4327 16.003 19.4453C15.9904 19.4707 15.9779 19.496 15.9779 19.5594C15.9779 19.7875 15.84 19.9142 15.7146 20.0283C15.6519 20.0917 15.5767 20.1424 15.5516 20.2184C15.5265 20.2184 15.514 20.2184 15.5014 20.2311C15.5265 20.2691 15.539 20.3325 15.514 20.3958C15.539 20.3325 15.5516 20.2818 15.5265 20.2311C15.539 20.2311 15.5516 20.2311 15.5641 20.2438C15.5767 20.2564 15.5892 20.2818 15.5892 20.3071C15.5892 20.3198 15.5892 20.3325 15.5767 20.3451C15.5892 20.3198 15.5892 20.2945 15.5892 20.2818C15.5892 20.2438 15.6017 20.1804 15.6895 20.1424C15.7021 20.1677 15.7021 20.2057 15.7021 20.2311C15.7021 20.2691 15.6895 20.2945 15.6519 20.3325C15.6394 20.3451 15.6268 20.3578 15.6268 20.3705C15.6644 20.3325 15.7021 20.3451 15.7271 20.3578C15.7397 20.3705 15.7522 20.3832 15.7522 20.3958C15.6394 20.3958 15.5767 20.4592 15.5516 20.5353C15.514 20.6366 15.5516 20.7634 15.6644 20.8267C15.6394 20.8014 15.6394 20.7507 15.6394 20.7C15.6394 20.6493 15.6519 20.5986 15.6143 20.5733C15.6268 20.5606 15.6394 20.5606 15.6519 20.5606C15.677 20.5606 15.6895 20.5859 15.6895 20.624V20.6366C15.6895 20.624 15.6895 20.6113 15.7021 20.5859C15.7021 20.5606 15.7271 20.5353 15.7773 20.5099C15.7898 20.5353 15.7898 20.5606 15.7898 20.5859C15.7898 20.6113 15.7898 20.624 15.7773 20.6366C15.7647 20.6493 15.7647 20.662 15.7522 20.6747C15.7773 20.6366 15.8149 20.6366 15.84 20.6493C15.8525 20.662 15.8651 20.6747 15.8525 20.7C15.8149 20.6873 15.7898 20.7 15.7773 20.7254C15.7522 20.7634 15.7397 20.8141 15.7647 20.8521C15.7773 20.8774 15.8149 20.9155 15.9027 20.9028C15.9027 20.9028 15.9027 20.9028 15.9152 20.9155C15.9277 20.9281 15.9403 20.9281 15.9528 20.9281C15.9904 20.9281 16.0155 20.9028 16.0155 20.8648C16.0155 20.8521 16.0155 20.8394 16.003 20.8267C15.9904 20.8141 15.9654 20.8014 15.9403 20.8141C15.9528 20.8141 15.9779 20.8141 15.9779 20.8267V20.8394C15.9779 20.8648 15.9654 20.8774 15.9403 20.8774C15.9277 20.8774 15.9152 20.8774 15.9027 20.8648C15.8776 20.8521 15.8776 20.8141 15.8901 20.776C15.9027 20.7507 15.9152 20.738 15.9403 20.738C15.9654 20.738 15.9904 20.738 16.003 20.7507C16.0406 20.776 16.0406 20.8141 16.0406 20.8521C16.0406 20.9028 16.0782 20.9408 16.1284 20.9408C16.1534 21.0168 16.1033 21.0295 16.0657 20.9915ZM17.8712 20.9788H16.2036C16.166 20.9788 16.1534 20.9788 16.1284 20.9535C16.1158 20.9408 16.1158 20.9408 16.1158 20.9281C16.1158 20.9281 16.1284 20.9028 16.1911 20.9028H17.8712C17.9339 20.9028 17.9465 20.9281 17.9465 20.9281C17.9465 20.9408 17.9339 20.9408 17.9339 20.9535C17.9339 20.9788 17.9089 20.9788 17.8712 20.9788ZM18.5734 20.8267C18.5233 20.9028 18.4606 20.9662 18.3853 21.0042C18.2599 21.0675 18.1346 21.0675 18.0342 20.9915C18.0468 20.9662 18.0343 20.9408 18.0092 20.9155C18.0343 20.9408 18.0217 20.9788 18.0092 20.9915C17.9716 21.0295 17.9214 21.0168 17.8963 21.0042C17.959 21.0042 17.9841 20.9662 17.9841 20.9155C17.9841 20.8774 17.9841 20.8394 18.0217 20.8141C18.0468 20.8014 18.0719 20.7887 18.0844 20.8014C18.1095 20.8014 18.122 20.8267 18.1346 20.8394C18.1471 20.8774 18.1346 20.9028 18.122 20.9281C18.1095 20.9408 18.0969 20.9408 18.0844 20.9408C18.0593 20.9408 18.0468 20.9281 18.0468 20.9028C18.0468 20.8901 18.0468 20.8901 18.0468 20.8901C18.0593 20.8774 18.0719 20.8774 18.0844 20.8774C18.0719 20.8648 18.0342 20.8648 18.0217 20.8901C18.0092 20.9028 18.0092 20.9155 18.0092 20.9281C18.0092 20.9662 18.0343 20.9915 18.0719 20.9915C18.0844 20.9915 18.0969 20.9915 18.1095 20.9788C18.1095 20.9788 18.1095 20.9788 18.122 20.9662C18.2098 20.9788 18.2474 20.9408 18.2599 20.9155C18.285 20.8774 18.285 20.8141 18.2474 20.7887C18.2223 20.7634 18.1973 20.7634 18.1722 20.7634C18.1722 20.7507 18.1722 20.7254 18.1847 20.7127C18.2098 20.7 18.2474 20.7 18.2725 20.738C18.2599 20.7254 18.2599 20.7127 18.2474 20.7C18.2349 20.6873 18.2349 20.662 18.2349 20.6493C18.2349 20.624 18.2349 20.6113 18.2474 20.5733C18.285 20.5986 18.3101 20.624 18.3226 20.6493C18.3226 20.662 18.3226 20.6747 18.3352 20.7C18.3352 20.6873 18.3352 20.6873 18.3352 20.6873C18.3352 20.6493 18.3477 20.624 18.3728 20.624C18.3853 20.624 18.3979 20.624 18.4104 20.6366C18.3728 20.662 18.3853 20.7127 18.3853 20.7634C18.3853 20.8141 18.3979 20.8774 18.3603 20.8901C18.4731 20.8267 18.4982 20.6873 18.4731 20.5986C18.448 20.5226 18.3853 20.4465 18.2725 20.4592C18.2725 20.4465 18.285 20.4339 18.2976 20.4212C18.3226 20.4085 18.3603 20.3958 18.3979 20.4339C18.3853 20.4212 18.3853 20.4085 18.3728 20.3958C18.3352 20.3578 18.3226 20.3451 18.3226 20.2945C18.3226 20.2691 18.3352 20.2311 18.3352 20.2057C18.4229 20.2438 18.4355 20.3071 18.4355 20.3451C18.4355 20.3578 18.4355 20.3832 18.448 20.4085C18.448 20.3958 18.4355 20.3832 18.4355 20.3705C18.4355 20.3451 18.448 20.3198 18.4606 20.3071C18.4731 20.2945 18.4856 20.2945 18.4982 20.2945C18.4856 20.3451 18.4856 20.3958 18.5107 20.4592C18.4982 20.3832 18.4982 20.3198 18.5233 20.2945C18.5107 20.2818 18.4856 20.2818 18.4731 20.2818C18.448 20.2184 18.3853 20.155 18.3101 20.0917C18.1847 19.9776 18.0468 19.8636 18.0468 19.6228C18.0468 19.5594 18.0342 19.534 18.0217 19.5087C18.0217 19.496 17.9966 19.4833 17.9966 19.4707C18.0217 19.458 18.0593 19.4707 18.0719 19.496C18.0969 19.5214 18.1095 19.5974 18.0719 19.6735C18.122 19.6228 18.122 19.5467 18.1095 19.5214C18.122 19.4833 18.1596 19.4327 18.2349 19.4327C18.3101 19.4327 18.3477 19.4833 18.3477 19.5467C18.3477 19.5974 18.3101 19.6481 18.2599 19.6481C18.2098 19.6481 18.1722 19.6101 18.1847 19.5594C18.1847 19.5214 18.2098 19.5087 18.2474 19.5087C18.2725 19.5087 18.2976 19.534 18.2976 19.5594C18.2976 19.5721 18.285 19.5847 18.2725 19.5974C18.2599 19.5974 18.2474 19.5974 18.2349 19.5974C18.2474 19.6101 18.2599 19.6228 18.285 19.6228C18.2976 19.6228 18.3226 19.5974 18.3226 19.5721C18.3226 19.5214 18.285 19.496 18.2474 19.496C18.2223 19.496 18.2098 19.5087 18.1847 19.5214C18.1471 19.5594 18.1346 19.6354 18.1471 19.6861C18.1346 19.6861 18.122 19.6988 18.1095 19.7115C18.0969 19.7241 18.0844 19.7495 18.0969 19.7748C18.0969 19.7875 18.1095 19.8129 18.122 19.8255C18.122 19.8129 18.1095 19.8002 18.1095 19.7875C18.1095 19.7622 18.122 19.7368 18.1346 19.7241C18.1471 19.7115 18.1596 19.7115 18.1722 19.7115C18.1471 19.7622 18.1596 19.8002 18.1847 19.8636C18.1973 19.8255 18.2098 19.8002 18.2474 19.8002C18.2599 19.8002 18.285 19.8002 18.2976 19.8129C18.2725 19.8255 18.2474 19.8509 18.2349 19.8889C18.2223 19.9396 18.2349 20.0156 18.3603 20.0917C18.3226 20.0663 18.3101 20.0156 18.3352 19.9903C18.3477 19.9649 18.3603 19.9649 18.3979 19.9649C18.3853 20.0283 18.4104 20.079 18.4606 20.1424C18.5233 20.2311 18.5985 20.3705 18.5985 20.5986C18.6612 20.6493 18.6236 20.7507 18.5734 20.8267ZM18.4982 20.4212C18.5358 20.4972 18.5609 20.5733 18.5609 20.6366C18.5609 20.6747 18.5483 20.7254 18.5358 20.7634C18.4856 20.8774 18.3603 20.9535 18.285 20.9788C18.3226 20.9535 18.3603 20.8901 18.3603 20.8141C18.3603 20.7887 18.3603 20.7634 18.3477 20.7254C18.3853 20.9028 18.285 20.9662 18.2349 20.9915C18.2474 20.9915 18.2725 20.9915 18.2976 20.9915C18.3853 20.9662 18.4982 20.9028 18.5483 20.8014C18.5734 20.7507 18.5985 20.6873 18.586 20.6113C18.5734 20.5606 18.5609 20.4972 18.4982 20.4212ZM17.7709 20.9281H16.3039C16.3039 20.9281 16.1911 20.9281 16.1911 20.9408C16.1911 20.9535 16.2914 20.9535 16.3039 20.9535H17.7584C17.7584 20.9535 17.8712 20.9535 17.8712 20.9408C17.8712 20.9281 17.7709 20.9281 17.7709 20.9281ZM17.9966 19.5087C18.0217 19.4833 18.0217 19.458 18.0092 19.4327C17.9966 19.4073 17.959 19.4073 17.9214 19.42C17.9465 19.42 17.959 19.42 17.9716 19.42C17.9841 19.42 17.9841 19.4327 17.9841 19.4327V19.4453C17.9214 19.458 17.8838 19.4833 17.8712 19.4833C17.8963 19.5467 17.959 19.534 17.9966 19.5087ZM15.539 20.1677C15.6268 20.0663 15.8149 19.9776 15.8651 19.7875C15.8149 19.9649 15.677 20.0156 15.5892 20.117C15.6519 20.0156 15.6519 19.9776 15.6519 19.9523C15.6268 20.0283 15.5767 20.079 15.539 20.1677C15.539 20.1804 15.539 20.1804 15.539 20.1677ZM15.7397 20.738C15.7271 20.7634 15.7146 20.7887 15.7146 20.8267C15.7146 20.9028 15.7522 20.9662 15.7898 20.9915C15.7146 20.9788 15.6017 20.9028 15.539 20.776C15.5265 20.738 15.514 20.6873 15.514 20.6493C15.514 20.5733 15.539 20.5099 15.5892 20.4339C15.5265 20.5099 15.514 20.5733 15.5014 20.624C15.4889 20.7 15.514 20.7634 15.539 20.8141C15.6017 20.9155 15.7021 20.9915 15.7898 21.0042C15.8149 21.0042 15.84 21.0168 15.8525 21.0042C15.8024 20.9788 15.7021 20.9155 15.7397 20.738ZM18.4355 19.9523C18.4355 19.9776 18.4229 20.003 18.4856 20.117C18.3853 20.0156 18.2599 19.9649 18.2098 19.7875C18.2474 19.9903 18.448 20.0663 18.5358 20.1677C18.4982 20.079 18.448 20.0283 18.4355 19.9523ZM16.0782 19.5087C16.1158 19.534 16.1785 19.5467 16.1911 19.5087C16.1785 19.5087 16.1284 19.4707 16.0782 19.4707V19.458C16.0782 19.4453 16.0908 19.4453 16.0908 19.4453C16.1033 19.4453 16.1158 19.4453 16.1409 19.4453C16.1033 19.4327 16.0782 19.4327 16.0531 19.458C16.0531 19.458 16.0531 19.4833 16.0782 19.5087Z" fill="#272425"/>
<path d="M17.0437 19.762C16.8055 19.762 16.6174 19.6733 16.4669 19.5465C16.4419 19.5719 16.4168 19.5846 16.4042 19.5846C16.3917 19.5972 16.3666 19.5972 16.3541 19.5846C16.3039 19.5846 16.2538 19.5592 16.2287 19.5465C16.2162 19.5719 16.1911 19.6099 16.1284 19.6099C16.0657 19.6099 16.003 19.5719 16.003 19.4958C15.9905 19.5085 15.9905 19.5465 15.9905 19.5846C15.9905 19.8254 15.8525 19.9648 15.7146 20.0788C15.6519 20.1422 15.5892 20.1929 15.5641 20.2563C15.5641 20.2563 15.5641 20.2563 15.5767 20.2563C15.5767 20.2563 15.5892 20.2563 15.5892 20.2689C15.6018 20.2309 15.6268 20.1929 15.7021 20.1549L15.7272 20.1422L15.7397 20.1675C15.7522 20.1929 15.7522 20.2309 15.7522 20.2563C15.7522 20.2816 15.7397 20.3196 15.7272 20.3323C15.7397 20.3323 15.7522 20.345 15.7648 20.345C15.7898 20.3703 15.8024 20.3957 15.8024 20.4337C15.6895 20.421 15.6268 20.4844 15.6018 20.5604C15.5892 20.5858 15.5892 20.6111 15.5892 20.6365C15.5892 20.6872 15.6018 20.7379 15.6394 20.7759C15.6394 20.7505 15.6394 20.7379 15.6394 20.7125C15.6394 20.6998 15.6394 20.6745 15.6394 20.6491C15.6394 20.6365 15.6394 20.6238 15.6268 20.6111C15.6268 20.5984 15.6143 20.5984 15.6018 20.5858C15.6268 20.5478 15.6519 20.5351 15.6895 20.5478C15.7021 20.5478 15.7146 20.5478 15.7272 20.5604C15.7397 20.5478 15.7522 20.5224 15.7898 20.5097L15.8149 20.4971L15.8275 20.5351C15.84 20.5604 15.84 20.5858 15.84 20.6111C15.84 20.6238 15.84 20.6365 15.84 20.6491C15.9027 20.6618 15.9152 20.7125 15.9027 20.7632C15.8651 20.7505 15.84 20.7505 15.8149 20.7632C15.7898 20.7885 15.7898 20.8266 15.8149 20.8646C15.8275 20.9026 15.8651 20.9026 15.9152 20.9026C15.9152 20.8899 15.9027 20.8773 15.9027 20.8646C15.9027 20.8519 15.9027 20.8392 15.9152 20.8139C15.9278 20.7885 15.9528 20.7632 15.9905 20.7632C16.0155 20.7505 16.0532 20.7632 16.0782 20.7885C16.1159 20.8139 16.1159 20.8646 16.1284 20.8899C16.1284 20.8899 16.1535 20.8646 16.2036 20.8646H17.8963C17.9465 20.8646 17.9716 20.8899 17.9716 20.8899C17.9716 20.8519 17.9716 20.8139 18.0217 20.7885C18.0468 20.7632 18.0844 20.7632 18.1095 20.7632C18.1346 20.7759 18.1597 20.7885 18.1847 20.8139C18.1973 20.8266 18.1973 20.8519 18.1973 20.8646C18.1973 20.8773 18.1973 20.8899 18.1847 20.9026C18.2349 20.9153 18.26 20.9026 18.285 20.8646C18.2976 20.8392 18.2976 20.7885 18.285 20.7632C18.26 20.7379 18.2349 20.7505 18.1973 20.7632C18.1847 20.6998 18.1973 20.6491 18.26 20.6491C18.26 20.6365 18.26 20.6238 18.26 20.6111C18.26 20.5858 18.2725 20.5604 18.2725 20.5351L18.285 20.4971L18.3101 20.5097C18.3477 20.5224 18.3603 20.5478 18.3728 20.5604C18.3854 20.5478 18.3979 20.5478 18.4104 20.5478C18.4355 20.5478 18.4606 20.5604 18.4982 20.5858C18.4857 20.5858 18.4731 20.5984 18.4731 20.6111C18.4606 20.6238 18.4606 20.6365 18.4606 20.6491C18.4606 20.6618 18.4606 20.6872 18.4606 20.7125C18.4606 20.7379 18.4606 20.7505 18.4606 20.7759C18.4982 20.7379 18.5107 20.6872 18.5107 20.6365C18.5107 20.6111 18.5107 20.5858 18.4982 20.5604C18.4731 20.4844 18.4104 20.421 18.2976 20.4337C18.2976 20.3957 18.3101 20.3703 18.3352 20.345C18.3477 20.3323 18.3603 20.3323 18.3728 20.3323C18.3603 20.307 18.3477 20.2816 18.3477 20.2563C18.3477 20.2182 18.3603 20.1929 18.3603 20.1675L18.3728 20.1422L18.3979 20.1549C18.4731 20.1802 18.4982 20.2309 18.5107 20.2689C18.5107 20.2689 18.5107 20.2689 18.5233 20.2563C18.5233 20.2563 18.5233 20.2563 18.5358 20.2563C18.5107 20.1929 18.448 20.1422 18.3854 20.0788C18.26 19.9648 18.1095 19.838 18.1095 19.5846C18.1095 19.5465 18.097 19.5085 18.097 19.4958C18.097 19.5592 18.0343 19.6099 17.9716 19.6099C17.9089 19.6099 17.8838 19.5719 17.8713 19.5465C17.8462 19.5592 17.796 19.5846 17.7459 19.5846C17.7208 19.5846 17.7083 19.5846 17.6957 19.5846C17.6832 19.5719 17.6581 19.5719 17.633 19.5465C17.4575 19.6733 17.2819 19.762 17.0437 19.762Z" fill="#C22537"/>
<path d="M18.2602 20.7759C18.2475 20.7632 18.2349 20.7632 18.2349 20.7632C18.2349 20.7632 18.2475 20.7759 18.2602 20.7759Z" fill="#BF232F"/>
<path d="M18.4857 20.6491C18.4857 20.6237 18.4857 20.5984 18.4731 20.573C18.448 20.5097 18.3979 20.4463 18.3101 20.4463C18.3979 20.4463 18.448 20.5097 18.4731 20.573C18.4857 20.5984 18.4857 20.6237 18.4857 20.6491Z" fill="#BF232F"/>
<path d="M18.1972 20.9282C18.1847 20.9282 18.1847 20.9282 18.1721 20.9282C18.1721 20.9156 18.1847 20.9029 18.1847 20.8902C18.1847 20.8776 18.1847 20.8649 18.1721 20.8395C18.1596 20.8142 18.1345 20.7888 18.1094 20.7888C18.0969 20.7888 18.0969 20.7888 18.0843 20.7888C18.0593 20.7888 18.0342 20.8015 18.0216 20.8142C17.984 20.8395 17.984 20.8902 17.9715 20.9156C17.9715 20.9156 17.959 20.9156 17.9464 20.9029C17.9339 20.9029 17.9088 20.8902 17.8837 20.8902H16.191C16.1659 20.8902 16.1408 20.8902 16.1283 20.9029C16.1158 20.9029 16.1032 20.9156 16.1032 20.9156C16.1032 20.8776 16.1032 20.8395 16.0531 20.8142C16.028 20.8015 16.0155 20.7888 15.9904 20.7888C15.9778 20.7888 15.9778 20.7888 15.9653 20.7888C15.9402 20.8015 15.9151 20.8142 15.8901 20.8395C15.8775 20.8522 15.8775 20.8649 15.8775 20.8902C15.8775 20.9029 15.8775 20.9156 15.8901 20.9282C15.8775 20.9282 15.8775 20.9282 15.865 20.9282C15.8274 20.9282 15.8023 20.9156 15.7898 20.8902C15.7772 20.8776 15.7772 20.8649 15.7772 20.8395C15.7772 20.8142 15.7772 20.8015 15.7898 20.7888C15.7772 20.8015 15.7772 20.8269 15.7772 20.8395C15.7772 20.8522 15.7772 20.8776 15.7898 20.8902C15.7898 20.8902 15.7898 20.8902 15.7898 20.9029C15.8023 20.9156 15.8274 20.9282 15.8399 20.9282H15.8525C15.8525 20.9282 15.8525 20.9282 15.865 20.9282H15.8775C15.8775 20.9156 15.865 20.9029 15.865 20.8902C15.865 20.8776 15.865 20.8649 15.8775 20.8395C15.8901 20.8142 15.9151 20.7888 15.9528 20.7888H15.9653C15.9778 20.7888 15.9904 20.7888 16.0029 20.8015C16.0029 20.8015 16.0155 20.8015 16.0155 20.8142C16.0155 20.8142 16.0155 20.8142 16.028 20.8142C16.0656 20.8395 16.0656 20.8902 16.0782 20.9156C16.0782 20.9156 16.1032 20.8902 16.1534 20.8902H17.8461C17.8963 20.8902 17.9213 20.9156 17.9213 20.9156C17.9213 20.8776 17.9213 20.8395 17.9715 20.8142C17.9966 20.8015 18.0091 20.7888 18.0342 20.7888C18.0467 20.7888 18.0467 20.7888 18.0593 20.7888C18.0843 20.8015 18.1094 20.8142 18.1345 20.8395C18.147 20.8522 18.147 20.8776 18.147 20.8902C18.147 20.9029 18.147 20.9156 18.1345 20.9282C18.1721 20.9282 18.1847 20.9282 18.1972 20.9282C18.2348 20.9282 18.2599 20.9156 18.2724 20.8902C18.285 20.8776 18.285 20.8649 18.285 20.8395C18.285 20.8142 18.285 20.8015 18.2724 20.7888C18.2599 20.7762 18.2473 20.7762 18.2473 20.7762C18.2348 20.7762 18.2348 20.7762 18.2223 20.7762C18.2097 20.7762 18.2097 20.7762 18.1972 20.7888C18.1972 20.7762 18.1972 20.7635 18.1972 20.7508C18.1972 20.7128 18.2223 20.6748 18.2599 20.6748C18.2599 20.6621 18.2599 20.6494 18.2599 20.6368C18.2599 20.6114 18.2724 20.5861 18.2724 20.5607L18.285 20.5227L18.31 20.5354C18.3477 20.548 18.3602 20.5734 18.3727 20.5861C18.3853 20.5734 18.3978 20.5734 18.4103 20.5734C18.4103 20.5734 18.4103 20.5734 18.4229 20.5734C18.4229 20.5734 18.4229 20.5734 18.4354 20.5734H18.448C18.4605 20.5734 18.4856 20.5861 18.4981 20.6114C18.4856 20.6114 18.473 20.6241 18.473 20.6368C18.4605 20.6494 18.4605 20.6621 18.4605 20.6748C18.4605 20.6874 18.4605 20.7128 18.4605 20.7381C18.4605 20.7635 18.4605 20.7762 18.4605 20.8015C18.4981 20.7635 18.5107 20.7128 18.5107 20.6621C18.5107 20.6368 18.5107 20.6114 18.4981 20.5861C18.473 20.5227 18.4229 20.4593 18.3351 20.4593C18.3226 20.4593 18.3226 20.4593 18.31 20.4593C18.31 20.4593 18.31 20.4593 18.2975 20.4593C18.2975 20.4213 18.31 20.396 18.3351 20.3706C18.3477 20.3579 18.3602 20.3579 18.3727 20.3579C18.3602 20.3326 18.3477 20.3072 18.3477 20.2819C18.3477 20.2439 18.3602 20.2185 18.3602 20.1932L18.3727 20.1678L18.3978 20.1805C18.473 20.2059 18.4981 20.2565 18.5107 20.2946C18.5107 20.2946 18.5107 20.2946 18.5232 20.2819C18.5232 20.2819 18.5232 20.2819 18.5357 20.2819C18.5107 20.2185 18.448 20.1678 18.3853 20.1045C18.2599 19.9904 18.1094 19.8637 18.1094 19.6102C18.1094 19.5722 18.0969 19.5342 18.0969 19.5215C18.0969 19.5849 18.0342 19.6355 17.9715 19.6355C17.9088 19.6355 17.8837 19.5975 17.8712 19.5722C17.8461 19.5849 17.796 19.6102 17.7458 19.6102H17.7333C17.7207 19.6102 17.7082 19.6102 17.6956 19.5975C17.6831 19.5849 17.658 19.5849 17.6329 19.5595C17.4825 19.6862 17.2944 19.775 17.0562 19.775C17.2944 19.775 17.4825 19.6862 17.6329 19.5595C17.658 19.5849 17.6831 19.5975 17.6956 19.5975C17.7082 19.5975 17.7207 19.6102 17.7333 19.6102H17.7458C17.796 19.6102 17.8461 19.5849 17.8712 19.5722C17.8837 19.5975 17.9088 19.6355 17.9715 19.6355C18.0342 19.6355 18.0969 19.5975 18.0969 19.5215C18.1094 19.5342 18.1094 19.5722 18.1094 19.6102C18.1094 19.851 18.2473 19.9904 18.3727 20.1045C18.4354 20.1678 18.4981 20.2185 18.5232 20.2819C18.5232 20.2819 18.5232 20.2819 18.5107 20.2819C18.5107 20.2819 18.4981 20.2819 18.4981 20.2946C18.4856 20.2565 18.4605 20.2185 18.3853 20.1805L18.3602 20.1678L18.3477 20.1932C18.3351 20.2185 18.3351 20.2565 18.3351 20.2819C18.3351 20.3072 18.3477 20.3453 18.3602 20.3579C18.3477 20.3579 18.3351 20.3706 18.3226 20.3706C18.2975 20.396 18.285 20.4213 18.285 20.4593C18.2975 20.4593 18.31 20.4593 18.3226 20.4593C18.4229 20.4593 18.473 20.51 18.4856 20.5861C18.4981 20.6114 18.4981 20.6368 18.4981 20.6621C18.4981 20.7128 18.4856 20.7635 18.448 20.8015C18.448 20.7762 18.448 20.7635 18.448 20.7381C18.448 20.7255 18.448 20.7001 18.448 20.6748C18.448 20.6621 18.448 20.6494 18.4605 20.6368C18.4605 20.6241 18.473 20.6241 18.4856 20.6114C18.4605 20.5861 18.4354 20.5734 18.4229 20.5734H18.4103C18.3978 20.5734 18.3853 20.5734 18.3727 20.5861C18.3602 20.5734 18.3477 20.548 18.31 20.5354L18.285 20.5227L18.2724 20.5607C18.2599 20.5861 18.2599 20.6114 18.2599 20.6368C18.2599 20.6494 18.2599 20.6621 18.2599 20.6748C18.2097 20.6748 18.1972 20.7128 18.1972 20.7508C18.1972 20.7635 18.1972 20.7762 18.1972 20.7888C18.2097 20.7888 18.2348 20.7762 18.2473 20.7762C18.2599 20.7762 18.2724 20.7762 18.285 20.7888C18.2975 20.8015 18.2975 20.8269 18.2975 20.8395C18.2975 20.8522 18.2975 20.8776 18.285 20.8902C18.2473 20.9156 18.2223 20.9282 18.1972 20.9282Z" fill="#030F1C"/>
<path d="M18.4355 20.7888C18.4355 20.7635 18.4355 20.7508 18.4355 20.7254C18.4355 20.7128 18.4355 20.6874 18.4355 20.6621C18.4355 20.6494 18.4355 20.6367 18.448 20.6241C18.448 20.6114 18.4606 20.6114 18.4731 20.5987C18.4606 20.5734 18.4355 20.5607 18.423 20.5607H18.4104C18.4104 20.5607 18.4104 20.5607 18.3979 20.5607C18.3979 20.5607 18.3979 20.5607 18.3854 20.5607H18.3979C18.423 20.5607 18.448 20.5734 18.4731 20.5987C18.4606 20.5987 18.448 20.6114 18.448 20.6241C18.4355 20.6367 18.4355 20.6494 18.4355 20.6621C18.4355 20.6748 18.4355 20.7001 18.4355 20.7254C18.4355 20.7508 18.4355 20.7761 18.4355 20.7888C18.4731 20.7508 18.4857 20.7001 18.4857 20.6494C18.4857 20.6241 18.4857 20.5987 18.4731 20.5734C18.448 20.51 18.3979 20.4466 18.3101 20.4466C18.2976 20.4466 18.285 20.4466 18.2725 20.4466C18.2725 20.4086 18.285 20.3833 18.3101 20.3579C18.3227 20.3452 18.3352 20.3452 18.3477 20.3452C18.3352 20.3199 18.3227 20.2945 18.3227 20.2692C18.3227 20.2312 18.3352 20.2058 18.3352 20.1805L18.3477 20.1551L18.3728 20.1678C18.448 20.1932 18.4731 20.2439 18.4857 20.2819C18.4857 20.2819 18.4857 20.2819 18.4982 20.2692C18.4982 20.2692 18.4982 20.2692 18.5107 20.2692C18.4857 20.2058 18.423 20.1551 18.3603 20.0918C18.2349 19.9777 18.0844 19.851 18.0844 19.5975C18.0844 19.5595 18.0719 19.5215 18.0719 19.5088C18.0719 19.5722 18.0092 19.6229 17.9465 19.6229C17.8838 19.6229 17.8587 19.5848 17.8462 19.5595C17.8211 19.5722 17.771 19.5975 17.7208 19.5975H17.7083C17.6957 19.5975 17.6832 19.5975 17.6706 19.5848C17.6581 19.5722 17.633 19.5722 17.608 19.5468C17.4575 19.6735 17.2694 19.7623 17.0312 19.7623C17.2694 19.7623 17.4575 19.6735 17.608 19.5468C17.633 19.5722 17.6581 19.5848 17.6706 19.5848C17.6832 19.5848 17.6957 19.5975 17.7083 19.5975H17.7208C17.771 19.5975 17.8211 19.5722 17.8462 19.5595C17.8587 19.5848 17.8838 19.6229 17.9465 19.6229C18.0092 19.6229 18.0719 19.5848 18.0719 19.5088C18.0844 19.5215 18.0844 19.5595 18.0844 19.5975C18.0844 19.8383 18.2224 19.9777 18.3603 20.0918C18.423 20.1551 18.4857 20.2058 18.5107 20.2692H18.4982C18.4982 20.2692 18.4857 20.2692 18.4857 20.2819C18.4731 20.2439 18.448 20.2058 18.3728 20.1678L18.3477 20.1551L18.3352 20.1805C18.3227 20.2058 18.3227 20.2439 18.3227 20.2692C18.3227 20.2945 18.3352 20.3326 18.3477 20.3452C18.3352 20.3452 18.3227 20.3579 18.3101 20.3579C18.285 20.3833 18.2725 20.4086 18.2725 20.4466C18.2725 20.4466 18.2725 20.4466 18.285 20.4466C18.2976 20.4466 18.2976 20.4466 18.3101 20.4466C18.3979 20.4466 18.448 20.51 18.4731 20.5734C18.4857 20.5987 18.4857 20.6241 18.4857 20.6494C18.4857 20.7001 18.4731 20.7508 18.4355 20.7888ZM18.1973 20.9282C18.1847 20.9282 18.1847 20.9282 18.1722 20.9282C18.1722 20.9156 18.1847 20.9029 18.1847 20.8902C18.1847 20.8775 18.1847 20.8649 18.1722 20.8395C18.1597 20.8142 18.1346 20.7888 18.097 20.7888C18.0844 20.7888 18.0844 20.7888 18.0719 20.7888C18.0468 20.7888 18.0343 20.8015 18.0092 20.8142C17.9716 20.8395 17.9716 20.8902 17.959 20.9156C17.959 20.9156 17.934 20.8902 17.8838 20.8902H16.1911C16.1409 20.8902 16.1158 20.9156 16.1158 20.9156C16.1158 20.8775 16.1159 20.8395 16.0657 20.8142C16.0657 20.8142 16.0657 20.8142 16.0532 20.8142L16.0406 20.8015C16.0281 20.8015 16.0155 20.7888 16.003 20.7888H15.9905C15.9654 20.8015 15.9403 20.8142 15.9152 20.8395C15.9027 20.8522 15.9027 20.8775 15.9027 20.8902C15.9027 20.9029 15.9027 20.9156 15.9152 20.9282H15.9027C15.9027 20.9282 15.9027 20.9282 15.8902 20.9282H15.8776C15.8525 20.9282 15.84 20.9156 15.8275 20.9029C15.8275 20.9029 15.8275 20.9029 15.8275 20.8902C15.8149 20.8775 15.8149 20.8649 15.8149 20.8395C15.8149 20.8142 15.8149 20.8015 15.8275 20.7888C15.84 20.7761 15.84 20.7761 15.8525 20.7761C15.8525 20.7761 15.8525 20.7761 15.8651 20.7761H15.8776C15.8776 20.7761 15.8902 20.7761 15.9027 20.7761C15.9027 20.7635 15.9027 20.7508 15.9027 20.7381C15.9027 20.7001 15.8776 20.6621 15.84 20.6621C15.84 20.6494 15.84 20.6367 15.84 20.6241C15.84 20.5987 15.84 20.5734 15.8275 20.548L15.8149 20.51L15.7898 20.5227C15.7522 20.5353 15.7397 20.5607 15.7272 20.5734C15.7146 20.5607 15.7021 20.5607 15.6895 20.5607H15.677C15.6645 20.5607 15.6519 20.5607 15.6394 20.5734C15.6394 20.5734 15.6268 20.5734 15.6268 20.586L15.6143 20.5987C15.6268 20.5987 15.6394 20.6114 15.6394 20.6241C15.6519 20.6367 15.6519 20.6494 15.6519 20.6621C15.6519 20.6748 15.6519 20.7001 15.6519 20.7254C15.6519 20.7508 15.6519 20.7635 15.6519 20.7888C15.6143 20.7508 15.6018 20.7001 15.6018 20.6494C15.6018 20.6241 15.6018 20.5987 15.6143 20.5734C15.6394 20.51 15.6895 20.4466 15.7773 20.4466C15.7773 20.4466 15.7773 20.4466 15.7898 20.4466C15.8024 20.4466 15.8024 20.4466 15.8149 20.4466C15.8149 20.4086 15.8024 20.3833 15.7773 20.3579C15.7648 20.3452 15.7522 20.3452 15.7397 20.3452C15.7522 20.3199 15.7648 20.2945 15.7648 20.2692C15.7648 20.2312 15.7522 20.2058 15.7522 20.1805L15.7397 20.1551L15.7146 20.1678C15.6394 20.1932 15.6143 20.2439 15.6018 20.2819C15.6018 20.2819 15.6018 20.2819 15.5892 20.2692C15.5892 20.2692 15.5892 20.2692 15.5767 20.2692C15.6018 20.2058 15.6645 20.1551 15.7272 20.0918C15.8525 19.9777 16.003 19.851 16.003 19.5975C16.003 19.5595 16.0155 19.5215 16.0155 19.5088C16.0155 19.5722 16.0782 19.6229 16.1409 19.6229C16.2036 19.6229 16.2287 19.5848 16.2412 19.5595C16.2663 19.5722 16.3165 19.5975 16.3666 19.5975C16.3792 19.5975 16.3917 19.5975 16.4042 19.5848C16.4168 19.5722 16.4419 19.5722 16.4669 19.5468C16.6174 19.6735 16.8055 19.7623 17.0437 19.7623C16.8055 19.7623 16.6174 19.6735 16.4669 19.5468C16.4419 19.5722 16.4168 19.5848 16.4042 19.5848C16.3917 19.5848 16.3792 19.5975 16.3666 19.5975H16.3541C16.3039 19.5975 16.2538 19.5722 16.2287 19.5595C16.2162 19.5848 16.1911 19.6229 16.1284 19.6229C16.0657 19.6229 16.003 19.5848 16.003 19.5088C15.9905 19.5215 15.9905 19.5595 15.9905 19.5975C15.9905 19.8383 15.8525 19.9777 15.7146 20.0918C15.6519 20.1551 15.5892 20.2058 15.5641 20.2692C15.5641 20.2692 15.5641 20.2692 15.5767 20.2692C15.5767 20.2692 15.5892 20.2692 15.5892 20.2819C15.6018 20.2439 15.6268 20.2058 15.7021 20.1678L15.7272 20.1551L15.7397 20.1805C15.7522 20.2058 15.7522 20.2439 15.7522 20.2692C15.7522 20.2945 15.7397 20.3326 15.7272 20.3452C15.7397 20.3452 15.7522 20.3579 15.7648 20.3579C15.7898 20.3833 15.8024 20.4086 15.8024 20.4466C15.7898 20.4466 15.7773 20.4466 15.7648 20.4466C15.6645 20.4466 15.6143 20.4973 15.6018 20.5734C15.5892 20.5987 15.5892 20.6241 15.5892 20.6494C15.5892 20.7001 15.6018 20.7508 15.6394 20.7888C15.6394 20.7635 15.6394 20.7508 15.6394 20.7254C15.6394 20.7128 15.6394 20.6874 15.6394 20.6621C15.6394 20.6494 15.6394 20.6367 15.6268 20.6241C15.6268 20.6114 15.6143 20.6114 15.6018 20.5987C15.6268 20.5734 15.6519 20.5607 15.677 20.5607H15.6895C15.7021 20.5607 15.7146 20.5607 15.7272 20.5734C15.7397 20.5607 15.7522 20.5353 15.7898 20.5227L15.8149 20.51L15.8275 20.548C15.84 20.5734 15.84 20.5987 15.84 20.6241C15.84 20.6367 15.84 20.6494 15.84 20.6621C15.8902 20.6621 15.9027 20.7001 15.9027 20.7381C15.9027 20.7508 15.9027 20.7635 15.9027 20.7761C15.8902 20.7635 15.8651 20.7635 15.8525 20.7635C15.84 20.7635 15.8275 20.7635 15.8149 20.7761C15.8024 20.7888 15.8024 20.8142 15.8024 20.8268C15.8024 20.8395 15.8024 20.8649 15.8149 20.8775C15.8275 20.9029 15.8525 20.9156 15.8902 20.9156C15.9027 20.9156 15.9027 20.9156 15.9152 20.9156C15.9152 20.9029 15.9027 20.8902 15.9027 20.8775C15.9027 20.8649 15.9027 20.8522 15.9152 20.8268C15.9278 20.8015 15.9528 20.7761 15.9905 20.7761C16.003 20.7761 16.003 20.7761 16.0155 20.7761C16.0406 20.7761 16.0657 20.7888 16.0782 20.8015C16.1159 20.8268 16.1284 20.8775 16.1284 20.9029C16.1284 20.9029 16.166 20.8775 16.2036 20.8775H17.8963C17.9465 20.8775 17.9716 20.9029 17.9716 20.9029C17.9716 20.8649 17.9716 20.8268 18.0217 20.8015C18.0468 20.7888 18.0593 20.7761 18.0844 20.7761C18.097 20.7761 18.097 20.7761 18.1095 20.7761C18.1346 20.7888 18.1597 20.8015 18.1847 20.8268C18.1973 20.8395 18.1973 20.8649 18.1973 20.8775C18.1973 20.8902 18.1973 20.9029 18.1847 20.9156C18.1722 20.9282 18.1847 20.9282 18.1973 20.9282C18.2349 20.9282 18.26 20.9156 18.2725 20.8902C18.285 20.8775 18.285 20.8649 18.285 20.8395C18.285 20.8142 18.285 20.8015 18.2725 20.7888C18.26 20.7761 18.2474 20.7761 18.2349 20.7761C18.2224 20.7761 18.2098 20.7761 18.1847 20.7888C18.1847 20.7761 18.1847 20.7635 18.1847 20.7508C18.1847 20.7128 18.2098 20.6748 18.2474 20.6748C18.2474 20.6621 18.2474 20.6494 18.2474 20.6367C18.2474 20.6114 18.2474 20.586 18.26 20.5607L18.2725 20.5227L18.2976 20.5353C18.3352 20.548 18.3477 20.5734 18.3603 20.586C18.3728 20.5734 18.3854 20.5734 18.3979 20.5734C18.3854 20.5734 18.3728 20.5734 18.3603 20.586C18.3477 20.5734 18.3352 20.548 18.2976 20.5353L18.2725 20.5227L18.26 20.5607C18.2474 20.586 18.2474 20.6114 18.2474 20.6367C18.2474 20.6494 18.2474 20.6621 18.2474 20.6748C18.1973 20.6748 18.1847 20.7128 18.1847 20.7508C18.1847 20.7635 18.1847 20.7761 18.1847 20.7888C18.1973 20.7888 18.1973 20.7888 18.2098 20.7761C18.2224 20.7761 18.2224 20.7761 18.2349 20.7761C18.2474 20.7761 18.26 20.7761 18.26 20.7888C18.2725 20.8015 18.2725 20.8268 18.2725 20.8395C18.2725 20.8522 18.2725 20.8775 18.26 20.8902C18.26 20.9029 18.2349 20.9156 18.1973 20.9282Z" fill="#C3242F"/>
</svg>
