<svg width="12" height="10" viewBox="0 0 12 10" fill="none" xmlns="http://www.w3.org/2000/svg">
<path fill-rule="evenodd" clip-rule="evenodd" d="M4.9626 0.191934C5.1861 0.0661042 5.43825 0 5.69474 0C5.95122 0 6.20337 0.0661042 6.42687 0.191934C6.65037 0.317764 6.83766 0.499072 6.97068 0.718365L6.97211 0.720728L11.1854 7.75458L11.1895 7.76145C11.3198 7.9871 11.3887 8.24294 11.3895 8.50352C11.3902 8.7641 11.3227 9.02032 11.1936 9.24671C11.0646 9.47309 10.8785 9.66174 10.654 9.79389C10.4294 9.92603 10.1741 9.99708 9.91354 9.99994L9.90808 10L1.47593 9.99997C1.21536 9.99711 0.960095 9.92603 0.735514 9.79389C0.510932 9.66174 0.324866 9.47309 0.195827 9.24671C0.066789 9.02032 -0.000723744 8.7641 5.85124e-06 8.50352C0.000735476 8.24294 0.0696822 7.9871 0.199986 7.76145L0.204027 7.75458L4.41879 0.718361C4.55181 0.499068 4.73911 0.317764 4.9626 0.191934ZM5.69474 0.994886C5.60924 0.994886 5.52519 1.01692 5.45069 1.05886C5.37653 1.10062 5.31433 1.1607 5.27002 1.23335L1.0599 8.26182C1.01753 8.33633 0.995128 8.42055 0.994888 8.50631C0.994645 8.59317 1.01715 8.67857 1.06016 8.75403C1.10317 8.8295 1.1652 8.89238 1.24006 8.93643C1.31426 8.98009 1.39852 9.00374 1.48458 9.00508H9.9049C9.99095 9.00374 10.0752 8.98009 10.1494 8.93643C10.2243 8.89238 10.2863 8.8295 10.3293 8.75403C10.3723 8.67857 10.3948 8.59317 10.3946 8.50631C10.3943 8.42056 10.3719 8.33635 10.3296 8.26184L6.12005 1.23434C6.11985 1.23401 6.11965 1.23368 6.11945 1.23335C6.07515 1.1607 6.01294 1.10062 5.93878 1.05886C5.86428 1.01692 5.78023 0.994886 5.69474 0.994886Z" fill="#C00000"/>
<path fill-rule="evenodd" clip-rule="evenodd" d="M5.69479 3.03578C5.96952 3.03578 6.19223 3.25849 6.19223 3.53322V5.523C6.19223 5.79773 5.96952 6.02044 5.69479 6.02044C5.42006 6.02044 5.19735 5.79773 5.19735 5.523V3.53322C5.19735 3.25849 5.42006 3.03578 5.69479 3.03578Z" fill="#C00000"/>
<path fill-rule="evenodd" clip-rule="evenodd" d="M5.19735 7.51278C5.19735 7.23805 5.42006 7.01534 5.69479 7.01534H5.69976C5.97449 7.01534 6.19721 7.23805 6.19721 7.51278C6.19721 7.78751 5.97449 8.01022 5.69976 8.01022H5.69479C5.42006 8.01022 5.19735 7.78751 5.19735 7.51278Z" fill="#C00000"/>
</svg>
