<svg width="13" height="12" viewBox="0 0 13 12" fill="none" xmlns="http://www.w3.org/2000/svg">
<path fill-rule="evenodd" clip-rule="evenodd" d="M0.590947 0.58548C0.917318 0.58548 1.18189 0.850056 1.18189 1.17643V4.13116H4.13663C4.463 4.13116 4.72758 4.39574 4.72758 4.72211C4.72758 5.04848 4.463 5.31306 4.13663 5.31306H0.590947C0.264576 5.31306 0 5.04848 0 4.72211V1.17643C0 0.850056 0.264576 0.58548 0.590947 0.58548Z" fill="#F0B63F"/>
<path fill-rule="evenodd" clip-rule="evenodd" d="M6.2672 0.0576422C7.53592 -0.120859 8.82828 0.117799 9.94957 0.737657C11.0708 1.35751 11.9603 2.32499 12.4839 3.49432C13.0076 4.66364 13.137 5.97147 12.8527 7.22074C12.5684 8.47001 11.8858 9.59305 10.9077 10.4206C9.9297 11.2482 8.70918 11.7356 7.43008 11.8092C6.15099 11.8828 4.88262 11.5387 3.81607 10.8288C2.74953 10.1189 1.9426 9.08157 1.51686 7.87317C1.40841 7.56534 1.57003 7.22788 1.87786 7.11943C2.18568 7.01098 2.52314 7.17261 2.63159 7.48043C2.97218 8.44715 3.61773 9.27701 4.47096 9.84494C5.3242 10.4129 6.3389 10.6881 7.36217 10.6292C8.38545 10.5703 9.36187 10.1805 10.1443 9.51841C10.9267 8.85634 11.4728 7.9579 11.7003 6.95849C11.9277 5.95907 11.8241 4.91281 11.4053 3.97735C10.9864 3.04189 10.2748 2.26791 9.37776 1.77202C8.48073 1.27613 7.44684 1.08521 6.43187 1.22801C5.4169 1.37081 4.47583 1.8396 3.75045 2.56375C3.74623 2.56796 3.74195 2.57211 3.73761 2.57619L0.995616 5.15272C0.757772 5.37621 0.383786 5.36457 0.160294 5.12673C-0.0631968 4.88889 -0.0515618 4.5149 0.186282 4.29141L2.92193 1.72084C3.82777 0.819338 5.00152 0.235717 6.2672 0.0576422Z" fill="#F0B63F"/>
</svg>
