<svg width="46" height="45" viewBox="0 0 46 45" fill="none" xmlns="http://www.w3.org/2000/svg">
<ellipse cx="23" cy="22.455" rx="22.5" ry="22.4439" fill="#E8EBF7"/>
<g opacity="0.8">
<g opacity="0.3">
<path d="M29.5811 8.16185H21.1312C20.9117 8.16185 20.7471 7.99724 20.7471 7.77776C20.7471 7.55829 20.9117 7.39368 21.1312 7.39368H29.636C29.8554 7.39368 30.02 7.55829 30.02 7.77776C29.9652 7.99724 29.8006 8.16185 29.5811 8.16185Z" fill="#999999"/>
<path d="M18.4425 8.16185H16.7964C16.577 8.16185 16.4124 7.99724 16.4124 7.77776C16.4124 7.55829 16.577 7.39368 16.7964 7.39368H18.4425C18.662 7.39368 18.8266 7.55829 18.8266 7.77776C18.7718 7.99724 18.6071 8.16185 18.4425 8.16185Z" fill="#999999"/>
<path fill-rule="evenodd" clip-rule="evenodd" d="M16.7415 5.58299H17.5096V4.81482H16.7415V5.58299ZM18.9911 5.58299H18.2229V4.81482H18.9911V5.58299ZM19.7044 5.58299H20.4726V4.81482H19.7044V5.58299ZM21.9541 5.58299H21.1859V4.81482H21.9541V5.58299ZM22.6674 5.58299H23.4356V4.81482H22.6674V5.58299ZM24.1489 5.58299H24.917V4.81482H24.1489V5.58299Z" fill="#999999"/>
</g>
<g opacity="0.3">
<path d="M29.5811 40.6996H21.1312C20.9117 40.6996 20.7471 40.535 20.7471 40.3155C20.7471 40.096 20.9117 39.9314 21.1312 39.9314H29.636C29.8554 39.9314 30.02 40.096 30.02 40.3155C30.02 40.535 29.8006 40.6996 29.5811 40.6996Z" fill="#999999"/>
<path d="M18.4425 40.6996H16.7964C16.577 40.6996 16.4124 40.535 16.4124 40.3155C16.4124 40.096 16.577 39.9314 16.7964 39.9314H18.4425C18.662 39.9314 18.8266 40.096 18.8266 40.3155C18.7718 40.535 18.6071 40.6996 18.4425 40.6996Z" fill="#999999"/>
<path fill-rule="evenodd" clip-rule="evenodd" d="M16.7415 38.1207H17.5096V37.3525H16.7415V38.1207ZM18.9911 38.1207H18.2229V37.3525H18.9911V38.1207ZM19.7044 38.1207H20.4726V37.3525H19.7044V38.1207ZM21.9541 38.1207H21.1859V37.3525H21.9541V38.1207ZM22.6674 38.1207H23.4356V37.3525H22.6674V38.1207ZM24.1489 38.1207H24.917V37.3525H24.1489V38.1207Z" fill="#999999"/>
</g>
</g>
<g opacity="0.2">
<path d="M41.1037 21.7695H34.6291C34.4645 21.7695 34.3547 21.6598 34.3547 21.4952C34.3547 21.3306 34.4645 21.2208 34.6291 21.2208H41.1037C41.2683 21.2208 41.3781 21.3306 41.3781 21.4952C41.3781 21.6598 41.2683 21.7695 41.1037 21.7695Z" fill="#999999"/>
<path d="M37.8664 20.1783H31.3918C31.2272 20.1783 31.1174 20.0686 31.1174 19.904C31.1174 19.7394 31.2272 19.6296 31.3918 19.6296H37.8664C38.031 19.6296 38.1408 19.7394 38.1408 19.904C38.1956 20.0686 38.031 20.1783 37.8664 20.1783Z" fill="#999999"/>
<path d="M14.437 21.7695H7.96234C7.79773 21.7695 7.68799 21.6598 7.68799 21.4952C7.68799 21.3306 7.79773 21.2208 7.96234 21.2208H14.437C14.6016 21.2208 14.7113 21.3306 14.7113 21.4952C14.7113 21.6598 14.5467 21.7695 14.437 21.7695Z" fill="#999999"/>
<path d="M11.1997 20.1783H4.72503C4.56042 20.1783 4.45068 20.0686 4.45068 19.904C4.45068 19.7394 4.56042 19.6296 4.72503 19.6296H11.1997C11.3643 19.6296 11.474 19.7394 11.474 19.904C11.474 20.0686 11.3094 20.1783 11.1997 20.1783Z" fill="#999999"/>
</g>
<circle cx="20.7777" cy="20.2778" r="1.44444" fill="#1B4BC7" stroke="#1B4BC7"/>
<circle cx="26.3334" cy="26.9444" r="1.44444" fill="#1B4BC7" stroke="#1B4BC7"/>
<path d="M12.7778 30.2778C12.7778 31.0756 12.1311 31.7223 11.3334 31.7223C10.5356 31.7223 9.88892 31.0756 9.88892 30.2778C9.88892 29.4801 10.5356 28.8334 11.3334 28.8334C12.1311 28.8334 12.7778 29.4801 12.7778 30.2778Z" fill="#1B4BC7" stroke="#1B4BC7"/>
<circle cx="34.6666" cy="17.5" r="1.44444" fill="#1B4BC7" stroke="#1B4BC7"/>
<path d="M26.5783 16.0927L27.4232 15.9214C27.822 15.8405 27.822 15.2705 27.4232 15.1896L26.5783 15.0183C25.7457 14.8495 25.095 14.1988 24.9262 13.3662L24.7549 12.5213C24.674 12.1225 24.104 12.1225 24.0231 12.5213L23.8518 13.3662C23.683 14.1988 23.0323 14.8495 22.1997 15.0183L21.3548 15.1896C20.9559 15.2705 20.9559 15.8405 21.3548 15.9214L22.1997 16.0927C23.0323 16.2615 23.683 16.9122 23.8518 17.7448L24.0231 18.5897C24.104 18.9886 24.674 18.9886 24.7549 18.5897L24.9262 17.7448C25.095 16.9122 25.7457 16.2615 26.5783 16.0927Z" fill="#8EA7E9"/>
<path d="M29.2772 12.2578L29.7701 12.1579C30.0027 12.1107 30.0027 11.7782 29.7701 11.731L29.2772 11.6311C28.7915 11.5326 28.4119 11.153 28.3135 10.6674L28.2136 10.1745C28.1664 9.94183 27.8338 9.94183 27.7867 10.1745L27.6867 10.6674C27.5883 11.153 27.2087 11.5326 26.723 11.6311L26.2302 11.731C25.9975 11.7782 25.9975 12.1107 26.2302 12.1579L26.723 12.2578C27.2087 12.3563 27.5883 12.7359 27.6867 13.2215L27.7867 13.7144C27.8338 13.9471 28.1664 13.9471 28.2136 13.7144L28.3135 13.2215C28.4119 12.7359 28.7915 12.3563 29.2772 12.2578Z" fill="#8EA7E9"/>
<path d="M12.1667 29.4445L20.9688 20.4167L26.3855 26.6667L33.8334 18.3334" stroke="#1B4BC7" stroke-width="2" stroke-linecap="round" stroke-linejoin="round"/>
<path d="M9.94458 24.6414C9.79114 24.6414 9.66675 24.517 9.66675 24.3635V23.6112C9.66675 23.4578 9.79114 23.3334 9.94458 23.3334C10.098 23.3334 10.2224 23.4578 10.2224 23.6112V24.3635C10.2224 24.517 10.098 24.6414 9.94458 24.6414Z" fill="#8EA7E9"/>
<path d="M9.94458 26.6667C9.79114 26.6667 9.66675 26.5424 9.66675 26.3889V25.6366C9.66675 25.4832 9.79114 25.3588 9.94458 25.3588C10.098 25.3588 10.2224 25.4832 10.2224 25.6366V26.3889C10.2224 26.5424 10.098 26.6667 9.94458 26.6667Z" fill="#8EA7E9"/>
<path d="M11.3333 25.278H10.5811C10.4276 25.278 10.3032 25.1536 10.3032 25.0001C10.3032 24.8467 10.4276 24.7223 10.5811 24.7223H11.3333C11.4868 24.7223 11.6112 24.8467 11.6112 25.0001C11.6112 25.1536 11.4868 25.278 11.3333 25.278Z" fill="#8EA7E9"/>
<path d="M9.30796 25.278H8.55566C8.40222 25.278 8.27783 25.1536 8.27783 25.0001C8.27783 24.8467 8.40222 24.7223 8.55566 24.7223H9.30796C9.4614 24.7223 9.58579 24.8467 9.58579 25.0001C9.58579 25.1536 9.4614 25.278 9.30796 25.278Z" fill="#8EA7E9"/>
</svg>
