<svg width="20" height="20" viewBox="0 0 20 20" fill="none" xmlns="http://www.w3.org/2000/svg">
<path fill-rule="evenodd" clip-rule="evenodd" d="M5.8752 2.54186C6.96917 1.44789 8.4529 0.833313 9.99999 0.833313C11.5471 0.833313 13.0308 1.44789 14.1248 2.54186C15.2187 3.63582 15.8333 5.11955 15.8333 6.66665C15.8333 9.46053 16.4309 11.1955 16.9816 12.2051C17.2581 12.712 17.5273 13.0445 17.7143 13.242C17.8081 13.3409 17.8817 13.4065 17.9261 13.4435C17.9482 13.4619 17.9631 13.4733 17.9695 13.4781C17.9705 13.4788 17.9713 13.4794 17.9719 13.4798C18.2707 13.685 18.4029 14.0604 18.2976 14.4081C18.1912 14.7596 17.8672 15 17.5 15H2.49999C2.13277 15 1.80883 14.7596 1.70242 14.4081C1.59713 14.0604 1.72933 13.685 2.02807 13.4798C2.02865 13.4794 2.02945 13.4788 2.03045 13.4781C2.03687 13.4733 2.05174 13.4619 2.07393 13.4435C2.11828 13.4065 2.19193 13.3409 2.28566 13.242C2.47268 13.0445 2.74192 12.712 3.01841 12.2051C3.5691 11.1955 4.16666 9.46053 4.16666 6.66665C4.16666 5.11955 4.78124 3.63582 5.8752 2.54186ZM2.03649 13.4741C2.03656 13.4741 2.03662 13.474 2.03669 13.474C2.03669 13.474 2.03668 13.474 2.03668 13.474L2.03649 13.4741ZM4.2911 13.3333H15.7089C15.6455 13.2294 15.5818 13.1195 15.5184 13.0032C14.8191 11.7211 14.1667 9.7061 14.1667 6.66665C14.1667 5.56158 13.7277 4.50177 12.9463 3.72037C12.1649 2.93897 11.1051 2.49998 9.99999 2.49998C8.89493 2.49998 7.83512 2.93897 7.05372 3.72037C6.27231 4.50177 5.83333 5.56158 5.83333 6.66665C5.83333 9.7061 5.18088 11.7211 4.48157 13.0032C4.41816 13.1195 4.3545 13.2294 4.2911 13.3333Z" fill="#030F1C"/>
<path fill-rule="evenodd" clip-rule="evenodd" d="M8.1402 16.7791C8.5383 16.5482 9.04824 16.6837 9.27917 17.0818C9.35243 17.2081 9.45757 17.3129 9.58408 17.3858C9.71058 17.4587 9.85401 17.497 10 17.497C10.146 17.497 10.2894 17.4587 10.4159 17.3858C10.5424 17.3129 10.6476 17.2081 10.7208 17.0818C10.9518 16.6837 11.4617 16.5482 11.8598 16.7791C12.2579 17.0101 12.3934 17.52 12.1625 17.9181C11.9427 18.297 11.6273 18.6114 11.2478 18.83C10.8683 19.0486 10.438 19.1637 10 19.1637C9.56203 19.1637 9.13174 19.0486 8.75222 18.83C8.3727 18.6114 8.05727 18.297 7.83751 17.9181C7.60657 17.52 7.74209 17.0101 8.1402 16.7791Z" fill="#030F1C"/>
</svg>
