<svg width="45" height="45" viewBox="0 0 80 80" fill="none" xmlns="http://www.w3.org/2000/svg">
<circle cx="40" cy="40" r="40" fill="#E8EBF7"/>
<g opacity="0.8">
<g opacity="0.3">
<path d="M53.3 12.9H37.9C37.5 12.9 37.2 12.6 37.2 12.2C37.2 11.8 37.5 11.5 37.9 11.5H53.4C53.8 11.5 54.1 11.8 54.1 12.2C54 12.6 53.7 12.9 53.3 12.9Z" fill="#999999"/>
<path d="M32.9 12.9H29.9C29.5 12.9 29.2 12.6 29.2 12.2C29.2 11.8 29.5 11.5 29.9 11.5H32.9C33.3 11.5 33.6 11.8 33.6 12.2C33.6 12.6 33.3 12.9 32.9 12.9Z" fill="#999999"/>
<path fill-rule="evenodd" clip-rule="evenodd" d="M29.8999 8.20002H31.2999V6.90002H29.8999V8.20002ZM33.9999 8.20002H32.5999V6.90002H33.9999V8.20002ZM35.2999 8.20002H36.6999V6.90002H35.2999V8.20002ZM39.3999 8.20002H37.9999V6.90002H39.3999V8.20002ZM40.6999 8.20002H42.0999V6.90002H40.6999V8.20002ZM43.3999 8.20002H44.7999V6.90002H43.3999V8.20002Z" fill="#999999"/>
</g>
<g opacity="0.3">
<path d="M53.3 72.2999H37.9C37.5 72.2999 37.2 71.9999 37.2 71.5999C37.2 71.1999 37.5 70.8999 37.9 70.8999H53.4C53.8 70.8999 54.1 71.1999 54.1 71.5999C54 71.9999 53.7 72.2999 53.3 72.2999Z" fill="#999999"/>
<path d="M32.9 72.2999H29.9C29.5 72.2999 29.2 71.9999 29.2 71.5999C29.2 71.1999 29.5 70.8999 29.9 70.8999H32.9C33.3 70.8999 33.6 71.1999 33.6 71.5999C33.6 71.9999 33.3 72.2999 32.9 72.2999Z" fill="#999999"/>
<path fill-rule="evenodd" clip-rule="evenodd" d="M29.8999 67.5999H31.2999V66.2H29.8999V67.5999ZM33.9999 67.5999H32.5999V66.2H33.9999V67.5999ZM35.2999 67.5999H36.6999V66.2H35.2999V67.5999ZM39.3999 67.5999H37.9999V66.2H39.3999V67.5999ZM40.6999 67.5999H42.0999V66.2H40.6999V67.5999ZM43.3999 67.5999H44.7999V66.2H43.3999V67.5999Z" fill="#999999"/>
</g>
</g>
<g opacity="0.2">
<path d="M74.3 37.8H62.5C62.2 37.8 62 37.6 62 37.3C62 37 62.2 36.8 62.5 36.8H74.3C74.6 36.8 74.8 37 74.8 37.3C74.8 37.5 74.6 37.8 74.3 37.8Z" fill="#999999"/>
<path d="M68.4 34.9H56.6C56.3 34.9 56.1 34.7 56.1 34.4C56.1 34.1 56.3 33.9 56.6 33.9H68.4C68.7 33.9 68.9 34.1 68.9 34.4C68.9 34.6 68.7 34.9 68.4 34.9Z" fill="#999999"/>
<path d="M25.5999 37.8H13.7999C13.4999 37.8 13.2999 37.6 13.2999 37.3C13.2999 37 13.4999 36.8 13.7999 36.8H25.5999C25.8999 36.8 26.0999 37 26.0999 37.3C26.0999 37.5 25.8999 37.8 25.5999 37.8Z" fill="#999999"/>
<path d="M19.7 34.9H7.90002C7.60002 34.9 7.40002 34.7 7.40002 34.4C7.40002 34.1 7.60002 33.9 7.90002 33.9H19.7C20 33.9 20.2 34.1 20.2 34.4C20.2 34.6 20 34.9 19.7 34.9Z" fill="#999999"/>
</g>
<path d="M22.4104 60.3613L27.3533 46.2388L28.0594 45.109L42.3231 48.4984L36.3917 65.3041C36.3917 65.3041 36.1091 66.5752 35.1207 66.5752C34.1322 66.5752 33.8496 66.1515 33.8496 66.1515L29.7541 61.4911L24.2464 62.4796C24.2464 62.4796 22.8341 62.7621 22.4104 62.056C21.9868 61.3498 22.4104 60.3613 22.4104 60.3613Z" fill="#D04040"/>
<path d="M43.8233 65.5803L39.0101 51.4131L38.8697 50.0882L52.1905 43.9647L57.8793 60.8541C57.8793 60.8541 58.4403 62.0291 57.6619 62.6385C56.8836 63.2478 56.3999 63.0883 56.3999 63.0883L50.3023 61.9432L46.5747 66.1167C46.5747 66.1167 45.6368 67.2096 44.8679 66.9147C44.0991 66.6198 43.8233 65.5803 43.8233 65.5803Z" fill="#C00000"/>
<path d="M37.9751 15.9352C39.1556 14.0953 41.8444 14.0953 43.0249 15.9352L44.0264 17.496C44.798 18.6985 46.3107 19.19 47.6418 18.6707L49.3694 17.9966C51.4059 17.202 53.5812 18.7825 53.4549 20.9648L53.3476 22.8162C53.265 24.2427 54.1999 25.5294 55.5821 25.8917L57.376 26.3618C59.4906 26.916 60.3215 29.4732 58.9365 31.1645L57.7615 32.5993C56.8562 33.7047 56.8562 35.2953 57.7615 36.4007L58.9365 37.8355C60.3215 39.5268 59.4906 42.084 57.376 42.6382L55.5821 43.1083C54.1999 43.4706 53.265 44.7573 53.3476 46.1838L53.4549 48.0352C53.5812 50.2175 51.4059 51.798 49.3694 51.0034L47.6418 50.3293C46.3107 49.81 44.798 50.3015 44.0264 51.504L43.0249 53.0648C41.8444 54.9047 39.1556 54.9047 37.9751 53.0648L36.9736 51.504C36.202 50.3015 34.6893 49.81 33.3582 50.3293L31.6306 51.0034C29.5941 51.798 27.4188 50.2175 27.5451 48.0352L27.6524 46.1838C27.735 44.7573 26.8001 43.4706 25.4179 43.1083L23.624 42.6382C21.5094 42.084 20.6785 39.5268 22.0635 37.8355L23.2385 36.4007C24.1438 35.2953 24.1438 33.7047 23.2385 32.5993L22.0635 31.1645C20.6785 29.4732 21.5094 26.916 23.624 26.3618L25.4179 25.8917C26.8001 25.5294 27.735 24.2427 27.6524 22.8162L27.5451 20.9648C27.4188 18.7825 29.5941 17.202 31.6306 17.9966L33.3582 18.6707C34.6893 19.19 36.202 18.6985 36.9736 17.496L37.9751 15.9352Z" fill="#F0B63F"/>
<path d="M39.3167 21.6234C40.1037 20.3969 41.8963 20.3969 42.6833 21.6234L43.5666 23.0001C44.081 23.8019 45.0895 24.1295 45.9769 23.7833L47.5007 23.1887C48.8584 22.659 50.3086 23.7126 50.2244 25.1675L50.1298 26.8005C50.0747 27.7515 50.698 28.6093 51.6194 28.8508L53.2017 29.2655C54.6115 29.635 55.1654 31.3398 54.242 32.4673L53.2057 33.7329C52.6022 34.4698 52.6022 35.5302 53.2057 36.2671L54.242 37.5327C55.1654 38.6602 54.6115 40.365 53.2017 40.7345L51.6194 41.1492C50.698 41.3907 50.0747 42.2485 50.1298 43.1995L50.2244 44.8325C50.3086 46.2874 48.8584 47.341 47.5007 46.8113L45.9769 46.2167C45.0895 45.8705 44.081 46.1981 43.5666 46.9999L42.6833 48.3766C41.8963 49.6031 40.1037 49.6031 39.3167 48.3766L38.4334 46.9999C37.919 46.1981 36.9105 45.8705 36.0231 46.2167L34.4993 46.8113C33.1416 47.341 31.6914 46.2874 31.7756 44.8325L31.8702 43.1995C31.9253 42.2485 31.302 41.3907 30.3806 41.1492L28.7983 40.7345C27.3885 40.365 26.8346 38.6602 27.758 37.5327L28.7943 36.2671C29.3978 35.5302 29.3978 34.4698 28.7943 33.7329L27.758 32.4673C26.8346 31.3398 27.3885 29.635 28.7983 29.2655L30.3806 28.8508C31.302 28.6093 31.9253 27.7515 31.8702 26.8005L31.7756 25.1675C31.6914 23.7126 33.1416 22.659 34.4993 23.1887L36.0231 23.7833C36.9105 24.1295 37.919 23.8019 38.4334 23.0001L39.3167 21.6234Z" fill="#F4C86F"/>
<path d="M47 29L34 40" stroke="white" stroke-width="1.5" stroke-linecap="round"/>
<circle cx="37.2973" cy="30.2973" r="2.28899" transform="rotate(-45.8521 37.2973 30.2973)" stroke="white" stroke-width="1.5"/>
<circle cx="44.2616" cy="38.2616" r="2.26374" transform="rotate(-45.8521 44.2616 38.2616)" stroke="white" stroke-width="1.5"/>
</svg>
