<svg width="14" height="14" viewBox="0 0 14 14" fill="none" xmlns="http://www.w3.org/2000/svg">
<path fill-rule="evenodd" clip-rule="evenodd" d="M10.1266 0.943623C10.0867 0.600038 9.79471 0.333344 9.44041 0.333344C9.05887 0.333344 8.74957 0.642646 8.74957 1.02419V1.57691H5.15716V1.02419L5.15251 0.943623C5.1126 0.600038 4.8206 0.333344 4.46631 0.333344C4.08476 0.333344 3.77546 0.642646 3.77546 1.02419V1.57691H2.7392C1.59457 1.57691 0.666664 2.46913 0.666664 3.56973V5.51468V11.6739C0.666664 12.7745 1.59457 13.6667 2.7392 13.6667H11.1675C12.3122 13.6667 13.2401 12.7745 13.2401 11.6739V5.51468V3.56973C13.2401 2.46913 12.3122 1.57691 11.1675 1.57691H10.1313V1.02419L10.1266 0.943623ZM3.77546 2.90547H2.7392C2.35765 2.90547 2.04835 3.20287 2.04835 3.56974V4.82383H11.8584V3.56974C11.8584 3.20287 11.5491 2.90547 11.1675 2.90547H10.1313V3.51124C10.1313 3.89278 9.82196 4.20209 9.44041 4.20209C9.08612 4.20209 8.79412 3.93539 8.75422 3.59181L8.74957 3.51124V2.90547H5.15716V3.51124C5.15716 3.89278 4.84785 4.20209 4.46631 4.20209C4.11202 4.20209 3.82002 3.93539 3.78011 3.59181L3.77546 3.51124V2.90547ZM2.04835 11.6739V6.20552H11.8584V11.6739C11.8584 12.0408 11.5491 12.3382 11.1675 12.3382H2.7392C2.35765 12.3382 2.04835 12.0408 2.04835 11.6739ZM9.65073 7.24178C10.0306 7.24178 10.3385 7.55109 10.3385 7.93263C10.3385 8.28692 10.073 8.57892 9.73094 8.61883L9.65073 8.62348C9.26471 8.62348 8.95679 8.31417 8.95679 7.93263C8.95679 7.57834 9.22229 7.28634 9.56434 7.24643L9.65073 7.24178ZM4.12402 10.0052C4.50385 10.0052 4.81177 10.3145 4.81177 10.6961C4.81177 11.0504 4.54627 11.3424 4.20423 11.3823L4.12402 11.3869C3.73799 11.3869 3.43008 11.0776 3.43008 10.6961C3.43008 10.3418 3.69558 10.0498 4.03762 10.0099L4.12402 10.0052ZM9.65073 10.0052C10.0306 10.0052 10.3385 10.3145 10.3385 10.6961C10.3385 11.0504 10.073 11.3424 9.73094 11.3823L9.65073 11.3869C9.26471 11.3869 8.95679 11.0776 8.95679 10.6961C8.95679 10.3418 9.22229 10.0498 9.56434 10.0099L9.65073 10.0052ZM4.12402 7.24178C4.50385 7.24178 4.81177 7.55109 4.81177 7.93263C4.81177 8.28692 4.54627 8.57892 4.20423 8.61883L4.12402 8.62348C3.73799 8.62348 3.43008 8.31417 3.43008 7.93263C3.43008 7.57834 3.69558 7.28634 4.03762 7.24643L4.12402 7.24178ZM6.88736 7.24178C7.26719 7.24178 7.57511 7.55109 7.57511 7.93263C7.57511 8.28692 7.30961 8.57892 6.96756 8.61883L6.88736 8.62348C6.50133 8.62348 6.19342 8.31417 6.19342 7.93263C6.19342 7.57834 6.45892 7.28634 6.80096 7.24643L6.88736 7.24178ZM6.88736 10.0052C7.26719 10.0052 7.57511 10.3145 7.57511 10.6961C7.57511 11.0504 7.30961 11.3424 6.96756 11.3823L6.88736 11.3869C6.50133 11.3869 6.19342 11.0776 6.19342 10.6961C6.19342 10.3418 6.45892 10.0498 6.80096 10.0099L6.88736 10.0052Z" fill="#81878E"/>
</svg>
