<svg width="45" height="45" viewBox="0 0 45 45" fill="none" xmlns="http://www.w3.org/2000/svg">
<circle cx="22.4444" cy="22.4445" r="22.2222" fill="#E8EBF7" fill-opacity="0.75"/>
<g opacity="0.8">
<g opacity="0.3">
<path d="M29.8333 7.44446H21.2778C21.0556 7.44446 20.8889 7.2778 20.8889 7.05558C20.8889 6.83335 21.0556 6.66669 21.2778 6.66669H29.8889C30.1111 6.66669 30.2778 6.83335 30.2778 7.05558C30.2222 7.2778 30.0556 7.44446 29.8333 7.44446Z" fill="#999999"/>
<path d="M18.5556 7.44446H16.8889C16.6667 7.44446 16.5 7.2778 16.5 7.05558C16.5 6.83335 16.6667 6.66669 16.8889 6.66669H18.5556C18.7778 6.66669 18.9444 6.83335 18.9444 7.05558C18.8889 7.2778 18.7222 7.44446 18.5556 7.44446Z" fill="#999999"/>
<path fill-rule="evenodd" clip-rule="evenodd" d="M16.8333 4.83335H17.6111V4.05557H16.8333V4.83335ZM19.1111 4.83335H18.3333V4.05557H19.1111V4.83335ZM19.8333 4.83335H20.6111V4.05557H19.8333V4.83335ZM22.1111 4.83335H21.3333V4.05557H22.1111V4.83335ZM22.8333 4.83335H23.6111V4.05557H22.8333V4.83335ZM24.3333 4.83335H25.1111V4.05557H24.3333V4.83335Z" fill="#999999"/>
</g>
<g opacity="0.3">
<path d="M29.8333 40.3889H21.2778C21.0556 40.3889 20.8889 40.2223 20.8889 40C20.8889 39.7778 21.0556 39.6111 21.2778 39.6111H29.8889C30.1111 39.6111 30.2778 39.7778 30.2778 40C30.2778 40.2223 30.0556 40.3889 29.8333 40.3889Z" fill="#999999"/>
<path d="M18.5556 40.3889H16.8889C16.6667 40.3889 16.5 40.2223 16.5 40C16.5 39.7778 16.6667 39.6111 16.8889 39.6111H18.5556C18.7778 39.6111 18.9444 39.7778 18.9444 40C18.8889 40.2223 18.7222 40.3889 18.5556 40.3889Z" fill="#999999"/>
<path fill-rule="evenodd" clip-rule="evenodd" d="M16.8333 37.7778H17.6111V37H16.8333V37.7778ZM19.1111 37.7778H18.3333V37H19.1111V37.7778ZM19.8333 37.7778H20.6111V37H19.8333V37.7778ZM22.1111 37.7778H21.3333V37H22.1111V37.7778ZM22.8333 37.7778H23.6111V37H22.8333V37.7778ZM24.3333 37.7778H25.1111V37H24.3333V37.7778Z" fill="#999999"/>
</g>
</g>
<g opacity="0.2">
<path d="M41.5 21.2222H34.9444C34.7778 21.2222 34.6667 21.1111 34.6667 20.9445C34.6667 20.7778 34.7778 20.6667 34.9444 20.6667H41.5C41.6667 20.6667 41.7778 20.7778 41.7778 20.9445C41.7778 21.1111 41.6667 21.2222 41.5 21.2222Z" fill="#999999"/>
<path d="M38.2222 19.6111H31.6667C31.5 19.6111 31.3889 19.5 31.3889 19.3334C31.3889 19.1667 31.5 19.0556 31.6667 19.0556H38.2222C38.3889 19.0556 38.5 19.1667 38.5 19.3334C38.5556 19.5 38.3889 19.6111 38.2222 19.6111Z" fill="#999999"/>
<path d="M14.5 21.2222H7.94445C7.77778 21.2222 7.66667 21.1111 7.66667 20.9445C7.66667 20.7778 7.77778 20.6667 7.94445 20.6667H14.5C14.6667 20.6667 14.7778 20.7778 14.7778 20.9445C14.7778 21.1111 14.6111 21.2222 14.5 21.2222Z" fill="#999999"/>
<path d="M11.2222 19.6111H4.66667C4.5 19.6111 4.38889 19.5 4.38889 19.3334C4.38889 19.1667 4.5 19.0556 4.66667 19.0556H11.2222C11.3889 19.0556 11.5 19.1667 11.5 19.3334C11.5 19.5 11.3333 19.6111 11.2222 19.6111Z" fill="#999999"/>
</g>
<path d="M18.4792 27.7222C18.4792 27.7222 18.9236 27.7778 18.9792 27.5C18.9792 27.5 18.9236 27.2778 19.257 27.4444C19.257 27.4444 20.0347 27.9444 20.3681 27.3889C20.3681 27.3889 20.9792 26.8333 20.8681 24.4444C20.8681 24.4444 20.1458 21.9444 20.1458 21.2222L20.8125 19.9444C20.8125 19.9444 20.9236 19.6667 20.9236 19.2222V18.8889H18.4792L18.4792 27.7222Z" fill="#ED7601"/>
<rect x="18.4236" y="15.0556" width="2.44444" height="3.83333" fill="#F7AA00"/>
<path d="M18.4236 13.7778H20.6458L20.8681 14.2778V15.0556H18.4236V13.7778Z" fill="#ED7601"/>
<path d="M18.4236 11.8333H19.0903C19.0903 11.8333 18.9792 12.1667 19.3125 12.4445L20.5903 13.7778H18.4236V11.8333Z" fill="#CCCCCC"/>
<path d="M18.4792 27.7222C18.4792 27.7222 18.0347 27.7778 17.9236 27.5C17.9236 27.5 17.9792 27.2778 17.6458 27.4444C17.6458 27.4444 16.8681 27.9444 16.5347 27.3889C16.5347 27.3889 15.9236 26.8333 16.0347 24.4444C16.0347 24.4444 16.8121 21.9444 16.8121 21.2222L16.1455 19.9444C16.1455 19.9444 16.0343 19.6667 16.0343 19.2222V18.8889H18.4792V27.7222Z" fill="#F39635"/>
<rect x="16.0347" y="15.0556" width="2.44444" height="3.83333" fill="#F7AA00"/>
<path d="M18.4236 13.7778H16.257L16.0347 14.2778V15.0556H18.4236V13.7778Z" fill="#F39635"/>
<path d="M18.4236 11.8333H17.757C17.757 11.8333 17.8681 12.1667 17.5347 12.4445L16.257 13.7778H18.4236V11.8333Z" fill="#E2D7D1"/>
<rect x="17.7014" y="11" width="1.44444" height="0.833333" fill="#FF6D02"/>
<path d="M18.8125 17.5555C18.8125 17.6111 18.757 17.6111 18.757 17.6111C18.7014 17.6111 18.7014 17.5555 18.7014 17.5555C18.5903 17.2222 18.3681 17 18.0903 16.8333C17.8681 16.7222 17.5903 16.6667 17.3681 16.7222C17.3125 16.7222 17.3125 16.7222 17.3125 16.6667C17.3125 16.6111 17.3125 16.6111 17.3681 16.6111C17.5903 16.5 17.8125 16.4444 17.9792 16.4444C18.3125 16.3889 18.8681 16.5555 18.9792 16.9444C19.0347 17.1111 19.0347 17.2778 18.9236 17.4444C18.8681 17.5 18.8681 17.5 18.8125 17.5555Z" fill="#213A8E"/>
<path d="M18.8125 17.9444L18.6458 17.4444C18.6458 17.3889 18.7014 17.3889 18.757 17.3333C18.8125 17.2778 18.8681 17.3333 18.8681 17.3889L19.0347 17.8889C19.0347 17.9444 18.9792 17.9444 18.9236 18C18.8681 17.9444 18.8125 17.9444 18.8125 17.9444Z" fill="#213A8E"/>
<path d="M17.3125 16.7222C17.5903 16.7778 17.5903 17 17.6458 17.2222C17.7014 17.3889 17.757 17.6667 17.9792 17.7778C18.257 17.9444 18.5903 17.8333 18.8125 17.6111C18.8125 17.6111 18.8125 17.5555 18.8681 17.5555V17.5C18.757 17.1667 18.5347 16.8889 18.2014 16.6667C17.9236 16.5 17.5903 16.4444 17.3681 16.5555C17.3125 16.5555 17.3125 16.6111 17.3125 16.6111C17.257 16.6667 17.3125 16.7222 17.3125 16.7222Z" fill="#213A8E"/>
<path d="M18.8125 17.4444C18.757 17.5 18.757 17.5 18.757 17.4444C18.6458 17.1667 18.4792 16.9444 18.257 16.8333C18.0903 16.7222 17.8125 16.6667 17.6458 16.7222C17.5903 16.7222 17.5903 16.7222 17.5903 16.6667C17.5903 16.6111 17.5903 16.6111 17.6458 16.6111C17.8125 16.5 17.9792 16.5 18.1458 16.4444C18.4236 16.3889 18.8681 16.5 18.9792 16.8889C19.0347 17.0556 19.0347 17.1667 18.9236 17.3333C18.8125 17.3889 18.8125 17.4444 18.8125 17.4444Z" fill="#62B12F"/>
<path d="M18.8125 17.8333L18.7014 17.4444C18.7014 17.3889 18.7014 17.3889 18.757 17.3889C18.8125 17.3889 18.8125 17.3889 18.8125 17.4444L18.9236 17.8333C18.9236 17.8889 18.9236 17.8889 18.8681 17.8889C18.8681 17.8889 18.8681 17.8333 18.8125 17.8333Z" fill="#9AC22B"/>
<path d="M17.5347 16.7222C17.757 16.7778 17.757 16.9444 17.8125 17.1667C17.8681 17.2778 17.8681 17.5 18.0903 17.6111C18.3125 17.7222 18.6458 17.6667 18.757 17.4444C18.757 17.4444 18.757 17.4444 18.8125 17.3889V17.3333C18.7014 17.0555 18.5347 16.8333 18.257 16.6667C18.0347 16.5555 17.757 16.5 17.5347 16.5555C17.5347 16.6667 17.5347 16.6667 17.5347 16.7222Z" fill="#008C39"/>
<path d="M27.6458 27.7222H28.0347L28.257 27.5L28.7014 27.5556C28.7014 27.5556 29.5903 27.7222 29.7014 27.1111C29.7014 27.1111 30.3125 25.8889 29.9792 24.1111C29.9792 24.1111 29.9236 23.1111 29.9792 22.2778C30.0347 21.4445 30.0903 21.3333 30.0903 20.8333H27.6458V27.7222Z" fill="#009A42"/>
<path d="M30.0903 17H27.4792V20.8333H30.0903V17Z" fill="#00BB3B"/>
<path d="M27.6458 14.9445H29.6458L29.9792 15.6111C29.9792 15.6111 30.0903 16.1111 30.0903 16.4445V17H27.6458V14.9445H27.6458Z" fill="#009A42"/>
<path d="M27.6458 11.9445H28.257C28.257 11.9445 28.3125 12.5556 28.5903 12.9445L29.7014 14.9445H27.6458V11.9445Z" fill="#CCCCCC"/>
<path d="M27.6458 27.7222H27.257L27.0347 27.5L26.5903 27.5556C26.5903 27.5556 25.7014 27.7222 25.5903 27.1111C25.5903 27.1111 24.9792 25.8889 25.3125 24.1111C25.3125 24.1111 25.3681 23.1111 25.3125 22.2778C25.257 21.4445 25.2014 21.3333 25.2014 20.8333H27.7014V27.7222H27.6458Z" fill="#00C670"/>
<path d="M25.1458 17H27.6458V20.8333H25.1458V17Z" fill="#00BB3B"/>
<path d="M27.6458 14.9445H25.5903L25.257 15.6111C25.257 15.6111 25.1458 16.1111 25.1458 16.4445V17H27.6458V14.9445Z" fill="#00C670"/>
<path d="M27.6458 11.9445H27.0347C27.0347 11.9445 26.9792 12.5556 26.7014 12.9445L25.6458 14.9445H27.7014L27.6458 11.9445Z" fill="#E2D7D1"/>
<rect x="26.9236" y="11" width="1.44444" height="0.833333" fill="#00B754"/>
<path d="M26.1458 18.8333C26.1458 18.8333 27.7014 17.3333 29.3681 18.2222C29.3681 18.2222 29.2014 17.7778 29.257 17.3889H25.9236C25.9236 17.3889 25.7014 17.8333 25.4792 17.9444C25.4792 18 26.0347 18.1667 26.1458 18.8333Z" fill="#FFEB00"/>
<path d="M28.0347 18.2222C28.0347 18.3333 27.9236 18.4445 27.8125 18.4445C27.7014 18.4445 27.5903 18.3333 27.5903 18.2222C27.5903 18.1111 27.7014 18 27.8125 18C27.9236 18 28.0347 18.1111 28.0347 18.2222Z" fill="#FFEB00"/>
<path d="M21.9236 9.83334H23.757V10.8889H21.9236V9.83334Z" fill="#FD0E22"/>
<path d="M24.6458 28.5556C24.6458 28.5556 26.1458 27.6111 25.5903 26.2222V21.2222C25.5903 21.2222 25.8125 20.8889 25.757 20.6111V16.5556C25.757 16.5556 25.8681 16.2778 25.7014 16C25.7014 16 25.2014 13.2222 23.7014 11.3889V11.0556H22.8681V28.5556H24.6458Z" fill="#711012"/>
<rect x="19.9792" y="16.8889" width="2.88889" height="3.61111" fill="#FD0E22"/>
<path d="M23.6977 11V11.3333C24.0311 11.6667 24.4199 12.4444 24.4199 12.4444H22.8125V11H23.6977Z" fill="#CCCCCC"/>
<path d="M22.0347 11.3333H22.8681V28.5H21.0347C21.0347 28.5 19.4792 27.5556 20.0903 26.1667V21.1667C20.0903 21.1667 19.8681 20.8333 19.9236 20.5556V16.5C19.9236 16.5 19.8125 16.2222 19.9792 15.9445C20.0347 15.9445 20.5903 13.1667 22.0347 11.3333Z" fill="#B10012"/>
<path d="M22.0347 11V11.3333C21.7014 11.7222 21.3125 12.4444 21.3125 12.4444H22.8681V11C22.8681 11 22.0347 11 22.0347 11Z" fill="#E2D7D1"/>
<path d="M19.9238 16.9201L25.7535 16.8889V20.5L19.9238 20.5312V16.9201Z" fill="#CD091C"/>
<path d="M25.757 18.5556C24.9236 18.3889 24.2014 18.7222 23.3125 19.2222C22.3125 19.7222 21.3681 19.7222 19.9792 19.3333V18.5C20.9792 19.0556 22.5347 19.2778 23.7014 18.9444C24.5347 18.7222 24.9792 18.1667 25.757 18.1111V18.5556Z" fill="white"/>
<path fill-rule="evenodd" clip-rule="evenodd" d="M12.4792 21.9445H32.7014C33.0347 21.9445 33.3681 22.2222 33.3125 22.5556V32.6667C33.3125 33 33.0347 33.2778 32.7014 33.2778H12.4792C12.1458 33.2778 11.8681 33 11.8681 32.6667V22.5556C11.8681 22.2222 12.1458 21.9445 12.4792 21.9445ZM21.0903 26.7222H24.1458C24.8125 26.7222 25.3681 26.1111 25.4236 25.4445C25.4236 24.7222 24.8681 24.1667 24.1458 24.1667H21.0903C20.3681 24.1667 19.8125 24.7222 19.8125 25.4445C19.8125 26.1667 20.3681 26.7222 21.0903 26.7222Z" fill="#FF0000"/>
<path d="M32.7014 21.9445H22.5347V24.1667H24.0903C24.8125 24.1667 25.3681 24.7222 25.3681 25.4445C25.3681 26.1667 24.8125 26.7222 24.0903 26.7222H22.5347V33.3333H32.7014C33.0347 33.3333 33.3125 33.0556 33.3125 32.7222V22.5556C33.3681 22.2222 33.0347 21.9445 32.7014 21.9445Z" fill="#CD091C"/>
<path fill-rule="evenodd" clip-rule="evenodd" d="M25.257 30.8333C22.5347 31.3333 19.6458 31.8889 17.0903 31.7778C15.0903 31.7222 13.757 31.3333 12.7014 30.8889L11.8125 30.5556V27.9445L12.7014 28.5C15.3125 30.1111 17.9792 30.7778 20.5347 30.9445C24.4792 31.1667 27.9792 30.1667 29.757 29.7778C31.0903 29.4445 32.3681 29.2778 33.3681 29.4445V30.7222C31.1458 29.8889 28.3125 30.2778 25.257 30.8333Z" fill="white"/>
</svg>
