<svg width="30" height="30" viewBox="0 0 30 30" fill="none" xmlns="http://www.w3.org/2000/svg">
<circle cx="15" cy="15" r="14.5" fill="white" stroke="#ED892D"/>
<path d="M5.62537 13.3007L6.1423 13.1053C6.15136 13.1007 6.16125 13.0983 6.17131 13.0979C6.18135 13.0976 6.19134 13.0993 6.20068 13.1032C6.21004 13.107 6.2185 13.1126 6.22556 13.12C6.23259 13.1273 6.23811 13.136 6.24171 13.1455C6.24601 13.1549 6.24842 13.1647 6.24874 13.1752C6.24905 13.1853 6.24731 13.1955 6.24357 13.2049C6.23983 13.2147 6.2342 13.2231 6.22703 13.2304C6.21987 13.2374 6.21134 13.243 6.20193 13.2469L5.67839 13.4492L5.62537 13.3007Z" fill="#4FA544"/>
<path d="M5.66547 12.7878C5.54583 12.8447 5.45302 12.9475 5.40716 13.0737C5.36127 13.1999 5.36599 13.3393 5.42027 13.462C5.42027 13.462 5.42027 13.5092 5.45341 13.5295C5.41671 13.4131 5.42345 13.2865 5.47232 13.1747C5.52122 13.0628 5.60881 12.973 5.7185 12.9227H5.78477C5.79141 12.8077 5.77816 12.7472 5.66547 12.7878Z" fill="#61B351"/>
<path d="M4.72402 14.6632C4.63877 14.6964 4.54418 14.6932 4.46095 14.6555C4.37773 14.6174 4.31264 14.5475 4.28 14.4608C4.24749 14.3713 4.25123 14.2724 4.29038 14.186C4.32953 14.0994 4.40087 14.0319 4.48878 13.9987C4.57665 13.9658 4.67386 13.9697 4.75897 14.0095C4.84412 14.0494 4.91022 14.1217 4.94272 14.2112C4.95828 14.2556 4.96492 14.3024 4.9623 14.3496C4.95968 14.3965 4.94779 14.4423 4.92741 14.4845C4.907 14.5265 4.87848 14.5642 4.84356 14.595C4.80861 14.6254 4.76799 14.6488 4.72402 14.6632Z" fill="#E84639"/>
<path d="M5.22755 13.354C5.1423 13.3872 5.04768 13.3844 4.96445 13.3463C4.88123 13.3085 4.81618 13.2383 4.78353 13.1519C4.76098 13.0883 4.75731 13.0195 4.77297 12.9537C4.78863 12.8884 4.82289 12.8286 4.87151 12.7828C4.92013 12.737 4.98095 12.7066 5.04639 12.6954C5.11182 12.6846 5.179 12.6933 5.23954 12.7209C5.30008 12.7486 5.35133 12.7936 5.38684 12.8506C5.42239 12.9076 5.44063 12.974 5.43934 13.0415C5.43808 13.1089 5.41732 13.1747 5.37964 13.2302C5.34199 13.2858 5.28907 13.3288 5.22755 13.354Z" fill="#E53935"/>
<path d="M5.42029 12.9031C5.40418 12.8587 5.37967 12.8182 5.34814 12.7836C5.31662 12.7486 5.27869 12.7206 5.23654 12.7011C5.19438 12.6811 5.1488 12.6703 5.10245 12.6686C5.05607 12.6665 5.00982 12.6741 4.96631 12.6906C4.92279 12.707 4.88287 12.7318 4.84883 12.764C4.81478 12.7961 4.78731 12.8346 4.76791 12.8776C4.74851 12.9206 4.73764 12.9667 4.73586 13.0139C4.73407 13.0611 4.74145 13.1083 4.75756 13.1527L4.79731 13.2268C4.78724 13.1495 4.80311 13.0716 4.84233 13.0048C4.88154 12.938 4.9418 12.8867 5.01328 12.8594C5.0848 12.8321 5.16327 12.83 5.23598 12.8538C5.30868 12.8776 5.37132 12.9258 5.41365 12.9905C5.41973 12.9618 5.41973 12.9318 5.41365 12.9031H5.42029Z" fill="#D2302F"/>
<path d="M5.62558 14.3391C5.53771 14.3723 5.4405 14.3685 5.35535 14.3286C5.2702 14.2888 5.20414 14.2161 5.1716 14.1266C5.13909 14.0371 5.14283 13.9382 5.18198 13.8515C5.22113 13.7648 5.29247 13.6977 5.38038 13.6645C5.46825 13.6313 5.56546 13.6351 5.65057 13.675C5.73572 13.7148 5.80182 13.7875 5.83433 13.877C5.86683 13.9665 5.86313 14.0654 5.82398 14.1521C5.78483 14.2388 5.71346 14.3059 5.62558 14.3391Z" fill="#E84639"/>
<path d="M5.49976 13.7995C5.41625 13.8327 5.32331 13.8306 5.24128 13.7939C5.15927 13.7572 5.09492 13.6891 5.06235 13.6041C5.02984 13.5147 5.03358 13.4157 5.07273 13.329C5.11188 13.2424 5.18322 13.1749 5.27113 13.142C5.359 13.1088 5.45621 13.1127 5.54132 13.1525C5.62647 13.1924 5.69257 13.2651 5.72508 13.3546C5.74042 13.3986 5.74675 13.4454 5.7436 13.4923C5.74045 13.5391 5.72794 13.5849 5.70686 13.6265C5.68575 13.6681 5.65649 13.7052 5.62088 13.7349C5.58526 13.7646 5.54405 13.7866 5.49976 13.7995Z" fill="#E53935"/>
<path d="M5.69861 13.3546C5.66607 13.2651 5.59997 13.1924 5.51486 13.1525C5.42971 13.1127 5.33251 13.1088 5.24463 13.142C5.15676 13.1749 5.08538 13.2424 5.04623 13.329C5.00708 13.4157 5.00334 13.5147 5.03589 13.6041C5.04386 13.6314 5.05738 13.6566 5.07563 13.6782C5.0635 13.6006 5.0779 13.5209 5.11642 13.4528C5.15497 13.3846 5.2153 13.3318 5.28741 13.3032C5.35952 13.2749 5.43901 13.2724 5.51262 13.2965C5.58624 13.3207 5.64954 13.3696 5.69197 13.4353V13.3546H5.69861Z" fill="#D2302F"/>
<path d="M5.22783 14.6629C5.13989 14.6961 5.04271 14.6926 4.95722 14.6534C4.87172 14.6143 4.80468 14.5426 4.77056 14.4538C4.74008 14.3651 4.74445 14.2679 4.78273 14.1826C4.821 14.097 4.89025 14.0298 4.97599 13.9952C5.06302 13.9624 5.15925 13.9659 5.2437 14.005C5.32815 14.0442 5.39393 14.1158 5.42665 14.2043C5.45926 14.292 5.45668 14.3892 5.41949 14.4752C5.38229 14.5608 5.31347 14.6283 5.22783 14.6629Z" fill="#E84639"/>
<path d="M5.42665 14.2043C5.3939 14.1158 5.32815 14.0442 5.2437 14.005C5.15925 13.9659 5.06302 13.9624 4.97599 13.9952C4.89025 14.0298 4.821 14.097 4.78273 14.1826C4.74445 14.2679 4.74008 14.3651 4.77056 14.4538L4.8103 14.5349C4.8031 14.4556 4.82114 14.3762 4.86169 14.3081C4.90227 14.2399 4.96326 14.1871 5.03565 14.1571C5.10843 14.1291 5.18823 14.1267 5.26261 14.1497C5.33696 14.1728 5.40166 14.2207 5.44654 14.2854C5.45252 14.2584 5.45252 14.2308 5.44654 14.2043H5.42665Z" fill="#E53935"/>
<path d="M4.73752 13.368C4.64964 13.4012 4.55243 13.3974 4.46729 13.3575C4.38217 13.3177 4.31607 13.245 4.28357 13.1555C4.25102 13.066 4.25476 12.9671 4.29391 12.8804C4.33306 12.7941 4.40444 12.7266 4.49231 12.6934C4.53583 12.677 4.58207 12.6696 4.62846 12.6714C4.67481 12.6731 4.72039 12.6843 4.76254 12.7043C4.8047 12.7238 4.84262 12.7518 4.87415 12.7864C4.90568 12.821 4.93018 12.8619 4.94626 12.9059C4.96238 12.9503 4.96975 12.9975 4.96797 13.0447C4.96619 13.0919 4.95532 13.138 4.93592 13.181C4.91655 13.224 4.88904 13.2625 4.855 13.2946C4.82095 13.3268 4.78103 13.3516 4.73752 13.368Z" fill="#E84639"/>
<path d="M4.96301 12.9094C4.92886 12.822 4.86294 12.7518 4.77894 12.7126C4.69498 12.6738 4.59945 12.6693 4.51235 12.7004C4.42552 12.7336 4.35519 12.8007 4.31667 12.8864C4.27819 12.9724 4.27466 13.0706 4.30692 13.159L4.34667 13.2398C4.34352 13.1656 4.36313 13.0926 4.40273 13.0304C4.44233 12.9678 4.50001 12.9199 4.56775 12.8923C4.63549 12.865 4.70991 12.8594 4.78073 12.8773C4.85158 12.8948 4.91526 12.9343 4.96301 12.9902V12.9094Z" fill="#E53935"/>
<path d="M5.03565 14.0697C4.93103 14.1092 4.81529 14.1053 4.71358 14.0585C4.61186 14.0116 4.53231 13.926 4.49221 13.8201C4.46624 13.7173 4.47848 13.6083 4.52661 13.5139C4.57474 13.4195 4.65535 13.3465 4.75301 13.3091C4.85067 13.2713 4.95854 13.2717 5.05592 13.3101C5.15334 13.3482 5.23342 13.422 5.28085 13.5167C5.31972 13.6229 5.31573 13.7407 5.26984 13.8446C5.22394 13.948 5.13981 14.0288 5.03565 14.0697Z" fill="#E84639"/>
<path d="M5.28085 13.5167C5.23342 13.422 5.15334 13.3482 5.05592 13.3101C4.95854 13.2717 4.85067 13.2713 4.75301 13.3091C4.65535 13.3465 4.57474 13.4195 4.52661 13.5139C4.47848 13.6083 4.46624 13.7173 4.49221 13.8201C4.50193 13.8432 4.51298 13.8659 4.52535 13.8875C4.50183 13.7869 4.51518 13.681 4.56289 13.5897C4.6106 13.4982 4.68942 13.4279 4.78457 13.3916C4.87968 13.3548 4.98461 13.3552 5.07965 13.3919C5.17466 13.4286 5.25327 13.4992 5.30074 13.5908V13.5167H5.28085Z" fill="#E53935"/>
<path d="M4.79041 12.1262H5.34712C5.36711 12.1262 5.38637 12.1339 5.40112 12.1475C5.41587 12.1615 5.42496 12.1804 5.42664 12.2007C5.42664 12.222 5.41825 12.2426 5.40332 12.2576C5.38843 12.273 5.36819 12.2814 5.34712 12.2814H4.79705V12.1262H4.79041Z" fill="#4FA544"/>
<path d="M5.00908 11.6409C4.87772 11.6545 4.75689 11.7202 4.67261 11.8237C4.58834 11.9271 4.54734 12.06 4.55842 12.1938C4.55842 12.1938 4.55842 12.241 4.55842 12.2683C4.56293 12.146 4.61127 12.0299 4.69432 11.9415C4.77741 11.8534 4.8894 11.7992 5.00908 11.7891H5.07535C5.12174 11.7216 5.12838 11.6409 5.00908 11.6409Z" fill="#61B351"/>
<path d="M4.43294 13.0779C4.36094 13.0569 4.29756 13.0129 4.25247 12.952C4.20738 12.8912 4.18298 12.8168 4.18298 12.7406C4.18298 12.6644 4.20738 12.5903 4.25247 12.5294C4.29756 12.4686 4.36094 12.4242 4.43294 12.4033C4.48422 12.3886 4.53822 12.3858 4.59065 12.3959C4.64308 12.4057 4.69254 12.4281 4.73512 12.4606C4.77769 12.4934 4.81226 12.5357 4.83603 12.5843C4.85983 12.6329 4.87221 12.6864 4.87221 12.7406C4.87221 12.7951 4.85983 12.8486 4.83603 12.8972C4.81226 12.9457 4.77769 12.988 4.73512 13.0205C4.69254 13.0534 4.64308 13.0754 4.59065 13.0856C4.53822 13.0953 4.48422 13.0929 4.43294 13.0779Z" fill="#E84639"/>
<path d="M4.51888 12.5582C4.44687 12.5375 4.38354 12.4931 4.33841 12.4323C4.29332 12.3715 4.26892 12.2974 4.26892 12.2212C4.26892 12.1447 4.29332 12.0706 4.33841 12.0097C4.38354 11.9489 4.44687 11.9049 4.51888 11.8839C4.57015 11.8689 4.62416 11.8664 4.67659 11.8762C4.72902 11.886 4.77848 11.9084 4.82109 11.9409C4.86366 11.9737 4.8982 12.016 4.922 12.0646C4.94577 12.1132 4.95815 12.1667 4.95815 12.2212C4.95815 12.2754 4.94577 12.3289 4.922 12.3775C4.8982 12.426 4.86366 12.4683 4.82109 12.5012C4.77848 12.5337 4.72902 12.5561 4.67659 12.5659C4.62416 12.5756 4.57015 12.5732 4.51888 12.5582Z" fill="#E53935"/>
<path d="M4.85702 12.2007C4.85356 12.1087 4.8148 12.0221 4.74912 11.9588C4.68344 11.8959 4.59605 11.8613 4.50577 11.8634C4.46078 11.8641 4.41646 11.8742 4.37532 11.8927C4.33421 11.9113 4.29713 11.9378 4.26626 11.971C4.2354 12.0046 4.21139 12.0437 4.19562 12.0864C4.17982 12.1294 4.17262 12.1752 4.17441 12.2206C4.16794 12.2475 4.16794 12.2751 4.17441 12.3017C4.18979 12.2237 4.23121 12.1538 4.29161 12.1035C4.35201 12.0532 4.42768 12.0256 4.50577 12.0256C4.58386 12.0256 4.6595 12.0532 4.71993 12.1035C4.78033 12.1538 4.82175 12.2237 4.83713 12.3017C4.84031 12.2727 4.84031 12.2433 4.83713 12.214L4.85702 12.2007Z" fill="#D2302F"/>
<path d="M20.2057 14.2584L20.6164 13.8606C20.7531 13.7225 20.9376 13.6453 21.1302 13.6453C21.3225 13.6453 21.507 13.7225 21.6437 13.8606L22.068 14.3059C22.0869 14.3269 22.0974 14.3545 22.0974 14.3831C22.0974 14.4122 22.0869 14.4398 22.068 14.4607L21.6171 14.8924C21.5493 14.962 21.4689 15.0169 21.3801 15.0546C21.2914 15.092 21.1963 15.1112 21.1002 15.1112C21.0044 15.1112 20.909 15.092 20.8205 15.0546C20.7317 15.0169 20.651 14.962 20.5835 14.8924L20.1991 14.488C20.1847 14.4723 20.1732 14.4541 20.1658 14.4342C20.1585 14.4143 20.155 14.3929 20.1554 14.372C20.1561 14.3506 20.161 14.3297 20.1693 14.3101C20.1781 14.2905 20.1903 14.273 20.2057 14.2584Z" fill="#5E922B"/>
<path d="M20.8222 14.3729C20.8257 14.3292 20.8456 14.2887 20.8778 14.2597C20.9096 14.231 20.9515 14.2156 20.9945 14.2177H21.9554L22.0351 14.3055C22.054 14.3264 22.0648 14.354 22.0648 14.3827C22.0648 14.4117 22.054 14.4393 22.0351 14.4603L21.9421 14.548H20.9812C20.9595 14.5473 20.9382 14.5421 20.9183 14.5327C20.8987 14.5236 20.8809 14.5103 20.8659 14.4939C20.8512 14.4778 20.8397 14.4586 20.8323 14.4379C20.8246 14.417 20.8215 14.3949 20.8222 14.3729Z" fill="#2D7120"/>
<path d="M21.1394 11.8496L21.8553 12.16C22.1027 12.2656 22.2992 12.4672 22.4009 12.72C22.503 12.973 22.5019 13.2569 22.3985 13.5089L22.0674 14.2981C22.0608 14.317 22.0507 14.3345 22.037 14.3488C22.0234 14.3635 22.0073 14.375 21.9891 14.3827C21.971 14.3904 21.9514 14.3939 21.9318 14.3932C21.9119 14.3929 21.8927 14.388 21.8752 14.3792L21.0929 14.0353C20.8455 13.9294 20.649 13.728 20.5473 13.475C20.4452 13.2223 20.4463 12.9384 20.5497 12.6861L20.8678 11.9643C20.8919 11.9153 20.9328 11.8765 20.9828 11.8556C21.0325 11.8346 21.088 11.8325 21.1394 11.8496Z" fill="#2D7120"/>
<path d="M21.3455 12.7537C21.401 12.7359 21.4612 12.7397 21.5139 12.7646C21.5667 12.7897 21.6083 12.8338 21.6303 12.8886L22.134 14.1365L22.068 14.2917C22.0613 14.3106 22.0512 14.3281 22.0376 14.3424C22.0239 14.3571 22.0078 14.3686 21.9897 14.3759C21.9715 14.3836 21.9519 14.3875 21.9323 14.3868C21.9128 14.3861 21.8932 14.3815 21.8757 14.3728L21.7233 14.3053L21.2196 13.0505C21.2067 13.0229 21.2001 12.9928 21.1994 12.9624C21.199 12.9316 21.2049 12.9012 21.2168 12.8733C21.2287 12.8453 21.2462 12.8201 21.2686 12.7995C21.2906 12.7789 21.3168 12.7632 21.3455 12.7537Z" fill="#5E922B"/>
<path d="M19.9072 11.5468H23.4061L23.7441 11.25H25.8186L26.1301 11.4255L25.8717 11.6142L26.1168 11.7897L25.8385 11.9784L26.15 12.1742L25.8253 12.336L26.15 12.5248L25.8385 12.7135L26.1301 12.889L25.8518 13.0777L26.1301 13.2602L25.8253 13.4353L26.1301 13.6377L25.8385 13.7995L26.1168 14.0089L25.8518 14.1774L26.1301 14.3529L25.8253 14.535L26.1301 14.744L25.8253 14.9125L26.1301 15.0879L25.8186 15.277L26.1301 15.4522L25.8253 15.6615L26.1301 15.8367L25.8518 15.9985L26.1301 16.1876L25.8518 16.383L26.1301 16.5585L25.8518 16.7608L26.1301 16.9227L25.8518 17.0982L26.1168 17.3005L25.8186 17.4963L26.1433 17.6714L25.8585 17.8469L26.1301 18.0356L25.8717 18.2111L26.1168 18.3866L25.8717 18.5956C25.8717 18.5956 26.1965 18.7169 26.1301 18.771L25.8717 18.9801H23.7507L23.4194 18.6833H19.8541L19.9072 11.5468Z" fill="#FFC550"/>
<path d="M9.99289 18.6363H6.49371L6.16235 18.9331H4.088L3.77653 18.7576L4.03498 18.5689L3.78314 18.3868L4.06812 18.2046L3.75 18.0023L4.07476 17.8404L3.75 17.7121L4.06812 17.5234L3.77653 17.3479L4.05487 17.1658L3.77653 16.9771L4.07476 16.8016L3.77653 16.5992L4.06812 16.4374L3.78314 16.2283L4.05487 16.0662L3.77653 15.891L4.07476 15.7019L3.77653 15.4929L4.07476 15.3244L3.77653 15.149L4.088 14.9669L3.77653 14.7914L4.07476 14.5824L3.77653 14.3394L4.05487 14.1776L3.77653 13.9888L4.05487 13.7931L3.77653 13.6648L4.05487 13.4694L3.77653 13.3006L4.05487 13.1255L3.78314 12.9297L4.088 12.7274L3.76325 12.5519L4.04162 12.3764L3.77653 12.1877L4.03498 12.0122L3.78314 11.8371L4.03498 11.6413C4.03498 11.6413 3.71026 11.52 3.77653 11.4659L4.03498 11.2568H6.14907L6.48707 11.5536H10.0526L9.99289 18.6363Z" fill="#FFC550"/>
<path d="M22.5779 12.0862H7.16958C6.82553 12.0862 6.54663 12.37 6.54663 12.7202V17.4621C6.54663 17.8124 6.82553 18.0962 7.16958 18.0962H22.5779C22.9222 18.0962 23.2008 17.8124 23.2008 17.4621V12.7202C23.2008 12.37 22.9222 12.0862 22.5779 12.0862Z" fill="#D07111"/>
<path d="M23.5793 13.4351V13.3677L23.5196 13.4082C22.9862 13.7742 22.5947 14.3181 22.4129 14.9462C22.3801 15.0507 22.3685 15.1612 22.3797 15.2702C22.3909 15.3793 22.4237 15.4852 22.4769 15.5806C22.53 15.676 22.602 15.7596 22.6883 15.8253C22.7743 15.8914 22.8733 15.9382 22.9781 15.9634C23.083 15.9885 23.192 15.9913 23.2983 15.9717C23.4042 15.9522 23.5052 15.9102 23.5947 15.8487C23.6838 15.7875 23.76 15.7082 23.8177 15.6152C23.8757 15.5226 23.9138 15.4188 23.9306 15.3104C24.0299 14.6627 23.9058 14 23.5793 13.4351Z" fill="#B25117"/>
<path d="M23.8971 15.3038C23.8786 15.4121 23.8391 15.5159 23.7811 15.6086C23.723 15.7016 23.6475 15.7816 23.5587 15.8445C23.4696 15.9071 23.3696 15.9515 23.2637 15.9742C23.1582 15.9973 23.0488 15.9987 22.9425 15.978L23.5192 13.3677V13.4351C23.8545 13.9944 23.988 14.655 23.8971 15.3038Z" fill="#904014"/>
<path d="M22.4321 15.1014L22.386 15.0137L22.2996 15.0542C22.021 15.2356 21.7631 15.4482 21.531 15.6883L21.0671 17.6712V17.7118C21.2276 17.8869 21.4349 18.0113 21.6635 18.0694C21.797 18.1116 21.9375 18.1267 22.077 18.1134C22.2161 18.1001 22.3513 18.0585 22.4747 17.9914C22.5981 17.9239 22.7072 17.8327 22.7956 17.7219C22.8837 17.6115 22.9494 17.4842 22.9889 17.3476C23.1008 16.5534 22.9008 15.7463 22.4321 15.1014Z" fill="#F49C1A"/>
<path d="M22.9955 17.3339C22.913 17.608 22.7271 17.8376 22.4789 17.9729C22.2307 18.1082 21.9399 18.1379 21.67 18.0557L22.3925 15.0137L22.4453 15.0944C22.9011 15.7432 23.0979 16.5436 22.9955 17.3339Z" fill="#EF7E11"/>
<path d="M18.1579 13.5435H18.0786L18.125 13.6109C18.5749 14.2303 19.1953 14.6997 19.9077 14.9602C20.1248 15.0619 20.3719 15.0745 20.5977 14.9951C20.8238 14.9161 21.0108 14.7511 21.1202 14.5351C21.2531 14.1237 20.9151 13.6445 20.3782 13.4694C19.6476 13.267 18.8741 13.2928 18.1579 13.5435Z" fill="#B25117"/>
<path d="M18.4097 12.7335H18.3367L18.3765 12.8009C18.5565 13.0467 18.7607 13.2725 18.9861 13.4755L20.9743 14.1163H21.0141C21.1711 14.0404 21.2924 13.9048 21.3521 13.7387C21.478 13.327 21.14 12.8481 20.6034 12.673C19.8827 12.4689 19.1182 12.4898 18.4097 12.7335Z" fill="#F49C1A"/>
<path d="M20.6234 12.673C21.1599 12.8482 21.4979 13.3473 21.3721 13.7388L18.3367 12.7538H18.4097C19.1235 12.5056 19.8935 12.4773 20.6234 12.673Z" fill="#EF7E11"/>
<path d="M20.3649 13.4898C20.9084 13.665 21.2464 14.1641 21.1136 14.5556L18.0786 13.5706H18.1579C18.8689 13.3186 19.6379 13.2903 20.3649 13.4898Z" fill="#904014"/>
<path d="M18.5424 16.6797L18.476 16.7339L18.5158 16.8014C18.8912 17.4103 19.4739 17.857 20.1527 18.0559C20.3925 18.1062 20.642 18.0587 20.8476 17.9237C21.0535 17.7888 21.1989 17.577 21.2527 17.3341C21.3069 17.0992 21.2674 16.8517 21.1433 16.6458C21.0192 16.4399 20.8207 16.2924 20.59 16.2348C19.8773 16.1268 19.1499 16.2851 18.5424 16.6797Z" fill="#F49C1A"/>
<path d="M20.5499 16.1673C20.7869 16.2177 20.9949 16.3617 21.1277 16.5675C21.2609 16.7738 21.3081 17.0251 21.2591 17.2666L18.4688 16.6867L18.5352 16.6395C19.1346 16.2537 19.8452 16.0873 20.5499 16.1673Z" fill="#EF7E11"/>
<path d="M19.7749 16.3965V16.4706H19.841C20.4509 16.6345 21.0986 16.5674 21.6635 16.2818C21.8508 16.17 21.9864 15.9872 22.0413 15.7732C22.0958 15.5593 22.0651 15.3325 21.955 15.142C21.8452 14.9511 21.6656 14.813 21.4555 14.7575C21.2454 14.7015 21.0224 14.7334 20.8351 14.8449C20.3055 15.2112 19.9277 15.7638 19.7749 16.3965Z" fill="#B25117"/>
<path d="M20.8684 14.9125C21.0522 14.8003 21.2724 14.7663 21.4808 14.8181C21.6894 14.8698 21.8691 15.0033 21.9817 15.1893L19.8145 16.5382V16.4641C19.9711 15.8345 20.3451 15.284 20.8684 14.9125Z" fill="#904014"/>
<path d="M20.8085 14.4944V14.4203H20.7358C20.1003 14.3308 19.4544 14.4741 18.9133 14.825C18.8287 14.8911 18.7584 14.9743 18.7067 15.069C18.6546 15.1641 18.6225 15.2689 18.612 15.377C18.6015 15.485 18.6127 15.594 18.6452 15.6975C18.6777 15.8009 18.7305 15.8964 18.8004 15.9782C18.9416 16.1512 19.1422 16.2627 19.3614 16.2903C19.5805 16.3179 19.8018 16.2592 19.9801 16.1267C20.4519 15.7108 20.7484 15.1263 20.8085 14.4944Z" fill="#F49C1A"/>
<path d="M20.0334 16.1469C19.8562 16.2794 19.6363 16.3391 19.4175 16.3143C19.199 16.2891 18.9977 16.1811 18.8537 16.012L20.8419 14.4404V14.5145C20.7776 15.1409 20.4899 15.7215 20.0334 16.1469Z" fill="#EF7E11"/>
<path d="M23.3274 18.2174H23.3805L23.42 18.1702C23.7643 17.6805 23.9324 17.0853 23.8975 16.4841C23.8859 16.3865 23.8555 16.2929 23.8077 16.2076C23.7598 16.1226 23.6958 16.0482 23.6189 15.9891C23.5424 15.93 23.4546 15.887 23.3613 15.8633C23.268 15.8392 23.1708 15.8346 23.0757 15.85C22.8807 15.8951 22.7094 16.0132 22.5951 16.1803C22.4811 16.3474 22.4326 16.5522 22.4591 16.7539C22.5563 17.3359 22.8663 17.8591 23.3274 18.2174Z" fill="#B25117"/>
<path d="M22.4919 16.7877C22.4636 16.5867 22.5105 16.3822 22.6237 16.2148C22.7366 16.0474 22.9072 15.9292 23.1015 15.8838L23.4263 18.2516H23.3735C22.9128 17.8905 22.5993 17.3693 22.4919 16.7877Z" fill="#904014"/>
<path d="M22.8566 13.8466H22.9293V13.7791C23.0055 13.1384 22.8447 12.4918 22.4787 11.9647C22.3375 11.7969 22.1376 11.6913 21.9216 11.67C21.7056 11.6487 21.4895 11.7134 21.319 11.85C21.1533 11.9919 21.0488 12.1943 21.0275 12.4135C21.0065 12.633 21.0708 12.8518 21.2064 13.0238C21.6423 13.4897 22.2278 13.7816 22.8566 13.8466Z" fill="#B25117"/>
<path d="M21.2197 12.9899C21.082 12.8207 21.0159 12.6026 21.0355 12.3838C21.0554 12.1653 21.1599 11.9633 21.3256 11.8228L22.9492 13.7991H22.8566C22.2341 13.7344 21.6545 13.4478 21.2197 12.9899Z" fill="#904014"/>
<path d="M20.822 13.0913H20.7493V13.1654C20.7632 13.8169 20.9971 14.4433 21.412 14.9396C21.4896 15.0141 21.5812 15.0718 21.6811 15.1095C21.7815 15.1469 21.8881 15.1634 21.9947 15.1574C22.1013 15.1518 22.2055 15.1242 22.3012 15.0763C22.397 15.0284 22.4823 14.9613 22.5518 14.8788C22.7014 14.711 22.7815 14.4912 22.7752 14.265C22.7689 14.0385 22.677 13.8236 22.5186 13.6645C22.0457 13.2601 21.4389 13.0549 20.822 13.0913Z" fill="#F49C1A"/>
<path d="M22.545 13.6243C22.7019 13.7816 22.7939 13.9941 22.8026 14.2185C22.8113 14.4426 22.7355 14.6621 22.5911 14.8316L20.7623 13.0644H20.8682C21.475 13.0409 22.0696 13.2395 22.545 13.6243Z" fill="#EF7E11"/>
<path d="M21.0941 11.8234V11.756H21.0211C20.3853 11.6745 19.7411 11.8199 19.1986 12.1674C19.114 12.2338 19.0437 12.317 18.992 12.4117C18.9403 12.5068 18.9081 12.6113 18.8976 12.7193C18.8868 12.8273 18.8983 12.9367 18.9305 13.0398C18.963 13.1433 19.0158 13.2391 19.086 13.3209C19.2273 13.4935 19.4279 13.6054 19.6471 13.6326C19.8662 13.6603 20.0875 13.6019 20.2657 13.4694C20.739 13.0493 21.0358 12.4599 21.0941 11.8234Z" fill="#F49C1A"/>
<path d="M20.3184 13.4829C20.1409 13.6164 19.9203 13.6758 19.7011 13.6496C19.482 13.6234 19.281 13.5129 19.1387 13.3413L21.1269 11.7698V11.8439C21.0647 12.4727 20.777 13.0564 20.3184 13.4829Z" fill="#EF7E11"/>
<path d="M19.5429 13.3614L19.503 13.2939L19.4503 13.3345C18.9162 13.7012 18.5226 14.2443 18.3366 14.8725C18.3132 14.9742 18.3097 15.0797 18.3261 15.1832C18.3429 15.2863 18.3793 15.3852 18.4334 15.474C18.4876 15.5632 18.5586 15.6404 18.6418 15.7016C18.7253 15.7624 18.8197 15.8061 18.92 15.8302C19.02 15.854 19.1238 15.8578 19.2252 15.8407C19.3265 15.8239 19.4237 15.7869 19.5111 15.7316C19.5985 15.6768 19.6747 15.6044 19.7344 15.5195C19.7946 15.4345 19.8376 15.3384 19.861 15.2367C19.9672 14.5928 19.855 13.9315 19.5429 13.3614Z" fill="#B25117"/>
<path d="M19.8543 15.2297C19.8361 15.3384 19.7966 15.4419 19.7386 15.5348C19.6805 15.6275 19.6047 15.7079 19.5159 15.7704C19.4271 15.8333 19.3268 15.8774 19.2213 15.9005C19.1153 15.9235 19.0063 15.9246 18.9 15.9043L19.4963 13.3142L19.5362 13.3817C19.8431 13.9437 19.9549 14.5949 19.8543 15.2297Z" fill="#904014"/>
<path d="M18.3898 15.014L18.3367 14.9399L18.2574 14.9801C17.9781 15.1455 17.7198 15.3447 17.4885 15.574L17.0246 17.5569V17.5975C17.1841 17.7744 17.3917 17.8988 17.6212 17.9551C17.7547 17.9974 17.8952 18.0124 18.0343 17.9991C18.1738 17.9858 18.3091 17.9442 18.4325 17.8771C18.5559 17.8097 18.6649 17.7184 18.753 17.6076C18.8414 17.4972 18.9071 17.3699 18.9466 17.2333C19.0515 16.4479 18.8516 15.652 18.3898 15.014Z" fill="#F49C1A"/>
<path d="M18.9458 17.2601C18.906 17.3964 18.8396 17.5229 18.7511 17.6331C18.6627 17.7432 18.5536 17.8344 18.4306 17.9015C18.3076 17.9683 18.1726 18.0102 18.0335 18.0238C17.8944 18.0378 17.7542 18.0235 17.6204 17.9819L18.3229 14.9531L18.3761 15.0342C18.8378 15.6749 19.0419 16.4712 18.9458 17.2601Z" fill="#EF7E11"/>
<path d="M14.1085 13.4698H14.0356L14.082 13.5372C14.532 14.1566 15.1524 14.626 15.8647 14.8861C16.082 14.9861 16.3286 14.998 16.5541 14.919C16.7795 14.84 16.9668 14.676 17.0775 14.4611C17.2101 14.0497 16.8721 13.5708 16.3286 13.3953C15.5979 13.194 14.8247 13.2198 14.1085 13.4698Z" fill="#B25117"/>
<path d="M14.3669 12.6596H14.2874L14.3337 12.727C14.5137 12.9727 14.718 13.1985 14.9434 13.4016L16.9316 14.0423H16.9714C17.0496 14.0067 17.1196 13.9546 17.1767 13.8896C17.2338 13.8242 17.2767 13.7477 17.3028 13.6645C17.4353 13.2531 17.0973 12.7742 16.5605 12.5987C15.8398 12.395 15.0756 12.4159 14.3669 12.6596Z" fill="#F49C1A"/>
<path d="M16.5805 12.599C17.1173 12.7745 17.4553 13.2736 17.3294 13.6648L14.2941 12.6801H14.367C15.0809 12.4319 15.8509 12.4036 16.5805 12.599Z" fill="#EF7E11"/>
<path d="M16.322 13.415C16.5573 13.4611 16.7662 13.5974 16.9055 13.7956C17.0449 13.9941 17.1041 14.2392 17.0709 14.4807L14.0356 13.496H14.1085C14.8217 13.244 15.5929 13.2161 16.322 13.415Z" fill="#904014"/>
<path d="M14.4993 16.6057L14.433 16.6599L14.4661 16.727C14.8468 17.3342 15.4307 17.7798 16.1097 17.9819C16.3494 18.0322 16.5989 17.9847 16.8046 17.8497C17.0103 17.7148 17.1558 17.503 17.2098 17.2601C17.262 17.0252 17.2219 16.7784 17.0981 16.5732C16.9743 16.3677 16.7766 16.2198 16.5471 16.1604C15.8341 16.0527 15.1068 16.2107 14.4993 16.6057Z" fill="#F49C1A"/>
<path d="M16.5072 16.0928C16.7444 16.1432 16.9523 16.2872 17.0852 16.4934C17.2182 16.6996 17.2653 16.951 17.2163 17.1925L14.4263 16.6123L14.4925 16.5651C15.0919 16.1795 15.8025 16.0128 16.5072 16.0928Z" fill="#EF7E11"/>
<path d="M15.7324 16.3224V16.3965H15.7921C16.4044 16.5577 17.0532 16.4906 17.621 16.2078C17.8084 16.0959 17.9443 15.9128 17.9989 15.6992C18.0537 15.4853 18.0226 15.2581 17.9129 15.0676C17.8028 14.8771 17.6231 14.7387 17.4132 14.6831C17.2031 14.6275 16.98 14.659 16.7928 14.7708C16.2632 15.1368 15.8855 15.6898 15.7324 16.3224Z" fill="#B25117"/>
<path d="M16.7858 14.8384C16.9708 14.7258 17.1919 14.6916 17.4014 14.7433C17.6108 14.795 17.7919 14.9285 17.9058 15.1148L15.7386 16.4641V16.39C15.8934 15.7615 16.2651 15.211 16.7858 14.8384Z" fill="#904014"/>
<path d="M16.7661 14.4203V14.3392H16.6998C16.0644 14.2497 15.4185 14.3934 14.8774 14.7439C14.7928 14.81 14.7225 14.8932 14.6707 14.9883C14.6189 15.083 14.5868 15.1879 14.5762 15.2959C14.5657 15.4039 14.577 15.5129 14.6094 15.6164C14.6418 15.7199 14.6946 15.8156 14.7647 15.8974C14.9048 16.0698 15.1042 16.1809 15.3223 16.2085C15.5403 16.2361 15.7605 16.1781 15.9377 16.0456C16.4063 15.6304 16.7023 15.0494 16.7661 14.4203Z" fill="#F49C1A"/>
<path d="M15.984 16.073C15.8068 16.2055 15.5869 16.2653 15.3683 16.2401C15.1497 16.2153 14.9483 16.1073 14.8044 15.9381L16.7926 14.3662V14.4407C16.7299 15.0674 16.442 15.6487 15.984 16.073Z" fill="#EF7E11"/>
<path d="M19.278 18.1437H19.3374L19.3773 18.0965C19.7212 17.6065 19.8897 17.0112 19.8544 16.4103C19.8432 16.3128 19.8128 16.2188 19.7649 16.1339C19.717 16.0489 19.6527 15.9745 19.5761 15.9154C19.4992 15.856 19.4115 15.8133 19.3182 15.7892C19.2249 15.7654 19.1277 15.7609 19.0326 15.7763C18.8369 15.82 18.6645 15.9374 18.5502 16.1052C18.4363 16.2726 18.3884 16.4782 18.4164 16.6798C18.5118 17.2611 18.8194 17.784 19.278 18.1437Z" fill="#B25117"/>
<path d="M18.4493 16.714C18.421 16.513 18.4682 16.3085 18.5811 16.1411C18.694 15.9736 18.8646 15.8555 19.0593 15.8101L19.384 18.1778H19.3309C18.8705 17.8164 18.5566 17.2956 18.4493 16.714Z" fill="#904014"/>
<path d="M18.7809 13.773H18.8802V13.7055C18.9455 13.0645 18.7833 12.421 18.423 11.8911C18.3579 11.7967 18.2744 11.7166 18.1779 11.6565C18.0811 11.5964 17.9735 11.5572 17.8609 11.5415C17.7487 11.5258 17.6344 11.5338 17.5253 11.5653C17.4165 11.5967 17.315 11.6509 17.2274 11.724C17.1399 11.7974 17.0682 11.8883 17.0168 11.991C16.9654 12.0938 16.9355 12.2063 16.9289 12.3213C16.9223 12.4367 16.9391 12.5517 16.9784 12.66C17.0177 12.768 17.0785 12.867 17.1571 12.9502C17.5865 13.4102 18.1612 13.7017 18.7809 13.773Z" fill="#B25117"/>
<path d="M17.177 12.9296C17.0393 12.7604 16.9731 12.5426 16.993 12.3238C17.0129 12.105 17.1172 11.9033 17.283 11.7625L18.8802 13.7391H18.8072C18.1871 13.6727 17.61 13.3861 17.177 12.9296Z" fill="#904014"/>
<path d="M16.7725 12.9906H16.7062V13.0647C16.7158 13.7169 16.9504 14.3447 17.369 14.8386C17.4466 14.9134 17.5381 14.9711 17.6385 15.0085C17.7384 15.0459 17.845 15.0623 17.9517 15.0567C18.0583 15.0511 18.1624 15.0235 18.2582 14.9756C18.354 14.9274 18.4393 14.8603 18.5088 14.7778C18.6609 14.6149 18.7455 14.3989 18.7455 14.1741C18.7455 13.9497 18.6609 13.7334 18.5088 13.5705C18.0265 13.1542 17.4035 12.9458 16.7725 12.9906Z" fill="#F49C1A"/>
<path d="M18.5019 13.5497C18.6582 13.7084 18.749 13.9213 18.7564 14.1457C18.7637 14.3698 18.6872 14.5886 18.5418 14.7574L16.7193 12.9901H16.7922C17.4101 12.9583 18.0182 13.1572 18.5019 13.5497Z" fill="#EF7E11"/>
<path d="M17.0515 11.7489V11.6814H16.9786C16.3426 11.5996 15.6986 11.745 15.1561 12.0928C15.0716 12.1589 15.0013 12.2421 14.9495 12.3371C14.8977 12.4319 14.8655 12.5367 14.855 12.6447C14.8444 12.7528 14.8557 12.8618 14.8881 12.9653C14.9205 13.0687 14.9734 13.1645 15.0434 13.2463C15.1835 13.4186 15.383 13.5298 15.601 13.5574C15.8191 13.585 16.0392 13.527 16.2165 13.3945C16.6936 12.9768 16.9929 12.3868 17.0515 11.7489Z" fill="#F49C1A"/>
<path d="M16.2759 13.408C16.0984 13.5415 15.8776 13.601 15.6585 13.5748C15.4394 13.5482 15.2383 13.4381 15.0962 13.2665L17.0844 11.6946V11.769C17.0221 12.3979 16.7343 12.9816 16.2759 13.408Z" fill="#EF7E11"/>
<path d="M15.2022 13.3949L15.1624 13.3345L15.1028 13.375C14.5746 13.7434 14.1845 14.2831 13.996 14.906C13.9725 15.0081 13.9689 15.1136 13.9855 15.2167C14.0022 15.3202 14.0385 15.4191 14.0927 15.5079C14.1469 15.5967 14.2177 15.6739 14.3012 15.7351C14.3847 15.7963 14.4791 15.84 14.5792 15.8637C14.6793 15.8879 14.783 15.8914 14.8845 15.8746C14.9859 15.8578 15.0831 15.8208 15.1705 15.7655C15.2579 15.7103 15.3338 15.6383 15.3938 15.5534C15.4538 15.4684 15.4968 15.3723 15.5203 15.2702C15.6266 14.6267 15.5144 13.9654 15.2022 13.3949Z" fill="#B25117"/>
<path d="M15.5204 15.2636C15.5021 15.3719 15.4627 15.4757 15.4046 15.5684C15.3465 15.6614 15.2709 15.7414 15.1821 15.8043C15.0932 15.8669 14.993 15.9113 14.8873 15.934C14.7815 15.9571 14.6724 15.9585 14.5661 15.9382L15.1626 13.3547L15.2023 13.4152C15.5091 13.9776 15.6211 14.6285 15.5204 15.2636Z" fill="#904014"/>
<path d="M14.0551 15.0675L14.0021 15.0137L13.9226 15.0609C13.6416 15.223 13.3831 15.4226 13.1538 15.6544L12.6965 17.6443V17.6849C12.8548 17.8617 13.0632 17.9844 13.293 18.0354C13.4266 18.077 13.5669 18.0914 13.7059 18.0774C13.8449 18.0638 13.9799 18.0222 14.1031 17.9551C14.2263 17.8879 14.3352 17.7967 14.4236 17.6866C14.5121 17.5769 14.5783 17.45 14.6184 17.3136C14.7257 16.5188 14.5235 15.7128 14.0551 15.0675Z" fill="#F49C1A"/>
<path d="M14.6123 17.294C14.5729 17.4306 14.5072 17.5579 14.4189 17.6683C14.3307 17.7788 14.2217 17.8704 14.0983 17.9375C13.9749 18.0046 13.8396 18.0462 13.7003 18.0595C13.561 18.0731 13.4204 18.0581 13.2869 18.0154L13.9496 14.9937L14.0026 15.0678C14.4774 15.7036 14.6955 16.4998 14.6123 17.294Z" fill="#EF7E11"/>
<path d="M9.77405 13.5026H9.70117L9.74756 13.5701C10.1955 14.1915 10.8166 14.6617 11.5303 14.9193C11.6336 14.9909 11.7519 15.0367 11.8758 15.0535C11.9997 15.0703 12.1257 15.0573 12.2438 15.0157C12.362 14.9742 12.4689 14.9053 12.5561 14.8141C12.6433 14.7228 12.7084 14.6124 12.7461 14.4911C12.7838 14.3698 12.7932 14.2412 12.7735 14.1157C12.7537 13.9899 12.7054 13.8707 12.6323 13.7675C12.5593 13.6644 12.4636 13.5798 12.3527 13.5211C12.2419 13.462 12.1192 13.4306 11.9942 13.4285C11.2633 13.2286 10.4905 13.2544 9.77405 13.5026Z" fill="#B25117"/>
<path d="M10.0324 12.6935H9.95288L9.9993 12.761C10.1768 13.0088 10.3813 13.2349 10.609 13.4356L12.5972 14.1102H12.6369C12.7952 14.0326 12.9168 13.8945 12.9749 13.7257C13.1075 13.3209 12.7695 12.842 12.226 12.6666C11.5088 12.4513 10.7444 12.4607 10.0324 12.6935Z" fill="#F49C1A"/>
<path d="M12.2528 12.6329C12.7896 12.808 13.1276 13.3072 12.995 13.6986L9.95972 12.7136H10.0393C10.7537 12.4683 11.5229 12.4399 12.2528 12.6329Z" fill="#EF7E11"/>
<path d="M11.9876 13.449C12.2228 13.4952 12.4317 13.6311 12.5711 13.8297C12.7105 14.0279 12.7696 14.2732 12.7364 14.5148L9.70117 13.5298H9.77405C10.488 13.2816 11.258 13.2536 11.9876 13.449Z" fill="#904014"/>
<path d="M10.1657 16.6462L10.0928 16.6934L10.1326 16.7675C10.5132 17.3747 11.0971 17.8203 11.7761 18.0224C12.0166 18.0706 12.2661 18.0213 12.4715 17.8853C12.677 17.7494 12.8222 17.5372 12.8762 17.2939C12.9015 17.1747 12.9033 17.0513 12.8816 16.9315C12.8599 16.8116 12.8151 16.6973 12.7498 16.5952C12.6845 16.4931 12.6 16.405 12.5011 16.3362C12.4023 16.2673 12.291 16.2191 12.1738 16.1943C11.4728 16.0954 10.7603 16.2558 10.1657 16.6462Z" fill="#F49C1A"/>
<path d="M12.1735 16.1331C12.294 16.1527 12.4095 16.1967 12.5128 16.2628C12.6162 16.3288 12.7052 16.4155 12.7746 16.5176C12.844 16.62 12.8924 16.7353 12.9166 16.857C12.9408 16.979 12.9406 17.1044 12.9157 17.2261L10.1257 16.6525L10.1919 16.6053C10.7794 16.2205 11.4793 16.0537 12.1735 16.1331Z" fill="#EF7E11"/>
<path d="M11.3913 16.3627V16.4372H11.4509C12.0621 16.6046 12.7123 16.5399 13.2801 16.2551C13.4646 16.139 13.5975 15.9545 13.6507 15.7402C13.7039 15.5263 13.6732 15.2998 13.565 15.1082C13.4547 14.9202 13.2757 14.7838 13.0671 14.7297C12.8585 14.6751 12.6373 14.7069 12.4517 14.8181C11.9225 15.1816 11.5446 15.7321 11.3913 16.3627Z" fill="#B25117"/>
<path d="M12.4519 14.8724C12.5437 14.8158 12.6455 14.7784 12.7515 14.7623C12.8575 14.7459 12.9656 14.7511 13.0696 14.7773C13.1737 14.8039 13.2716 14.8507 13.3578 14.9158C13.444 14.9804 13.5167 15.0622 13.5719 15.1555L11.4048 16.5048V16.4303C11.5581 15.7997 11.9299 15.2464 12.4519 14.8724Z" fill="#904014"/>
<path d="M12.432 14.4538V14.3797H12.3591C11.7231 14.2979 11.079 14.4433 10.5366 14.7911C10.4534 14.8585 10.3843 14.9421 10.3337 15.0371C10.2831 15.1326 10.2519 15.2371 10.2419 15.3447C10.2321 15.4524 10.2437 15.5611 10.2761 15.6642C10.3085 15.7673 10.361 15.8628 10.4306 15.9445C10.5706 16.1169 10.7701 16.228 10.9881 16.2556C11.2062 16.2833 11.4264 16.2252 11.6036 16.0931C12.0714 15.6712 12.367 15.0864 12.432 14.4538Z" fill="#F49C1A"/>
<path d="M11.6497 16.113C11.4722 16.2465 11.2515 16.3063 11.0323 16.2797C10.8132 16.2535 10.6122 16.1434 10.47 15.9714L12.4582 14.3999V14.474C12.3972 15.1035 12.1091 15.6873 11.6497 16.113Z" fill="#EF7E11"/>
<path d="M14.9434 18.1773L14.9964 18.2175L15.0362 18.1637C15.3826 17.6771 15.5535 17.084 15.52 16.4842C15.5096 16.3863 15.4797 16.2919 15.4321 16.2063C15.3846 16.121 15.3204 16.0462 15.2434 15.9868C15.1665 15.9273 15.0784 15.8847 14.9847 15.8613C14.8909 15.8375 14.7935 15.8337 14.6982 15.8501C14.503 15.8924 14.3309 16.0084 14.2165 16.1752C14.1021 16.3416 14.054 16.546 14.0819 16.747C14.1807 17.3178 14.4886 17.8289 14.9434 18.1773Z" fill="#B25117"/>
<path d="M14.1153 16.7475C14.0856 16.5472 14.1321 16.3427 14.2455 16.176C14.3587 16.0093 14.5303 15.8929 14.7251 15.8506L15.0498 18.2114H14.9968C14.5344 17.852 14.2201 17.3302 14.1153 16.7475Z" fill="#904014"/>
<path d="M14.4464 13.8066H14.5193V13.7391C14.5879 13.0998 14.4253 12.457 14.062 11.9313C13.9206 11.7743 13.7252 11.6786 13.5165 11.6642C13.3077 11.6499 13.1014 11.7177 12.9405 11.8537C12.7795 11.99 12.6761 12.184 12.6517 12.3955C12.6274 12.6069 12.6838 12.8198 12.8095 12.9904C13.2396 13.4556 13.8215 13.7457 14.4464 13.8066Z" fill="#B25117"/>
<path d="M12.8429 12.9904C12.7695 12.9076 12.7131 12.8108 12.677 12.7055C12.6408 12.6003 12.6257 12.4888 12.6325 12.3777C12.6393 12.2665 12.6678 12.1578 12.7165 12.0578C12.7652 11.9582 12.8329 11.8691 12.9158 11.7964L14.5395 13.7793H14.4666C13.8527 13.7129 13.2797 13.4343 12.8429 12.9904Z" fill="#904014"/>
<path d="M12.4386 13.0508H12.3657V13.1249C12.3756 13.7751 12.6103 14.4008 13.0284 14.8922C13.1055 14.9677 13.197 15.0264 13.2973 15.0645C13.3976 15.1026 13.5044 15.1191 13.6113 15.1135C13.7181 15.1079 13.8227 15.0799 13.9185 15.0313C14.0143 14.9827 14.0993 14.9149 14.1683 14.8317C14.3173 14.6671 14.4001 14.4518 14.4001 14.2281C14.4001 14.0044 14.3173 13.7887 14.1683 13.6241C13.683 13.2186 13.0654 13.0141 12.4386 13.0508Z" fill="#F49C1A"/>
<path d="M14.1682 13.584C14.3289 13.7381 14.4259 13.9485 14.4395 14.1729C14.453 14.3973 14.3821 14.6182 14.2411 14.7913L12.412 13.024H12.4849C13.0938 12.9995 13.6911 13.1981 14.1682 13.584Z" fill="#EF7E11"/>
<path d="M12.717 11.7898V11.7154H12.6441C12.0089 11.6308 11.3645 11.7738 10.8216 12.1202C10.7384 12.1876 10.6694 12.2712 10.6187 12.3666C10.5681 12.4617 10.5369 12.5662 10.527 12.6738C10.5171 12.7818 10.5287 12.8902 10.5611 12.9933C10.5935 13.0964 10.6461 13.1918 10.7156 13.2736C10.8557 13.446 11.0551 13.5575 11.2731 13.5847C11.4912 13.6123 11.7114 13.5543 11.8886 13.4222C12.3586 13.0048 12.6549 12.4211 12.717 11.7898Z" fill="#F49C1A"/>
<path d="M11.9347 13.449C11.7561 13.5794 11.5362 13.6371 11.3179 13.6109C11.0997 13.5847 10.899 13.4763 10.7551 13.3075L12.7433 11.7356V11.8097C12.6798 12.4385 12.3921 13.0216 11.9347 13.449Z" fill="#EF7E11"/>
<path d="M11.1196 13.7051V13.6443L11.0599 13.6848C10.5261 14.0473 10.1343 14.5894 9.95319 15.2162C9.92034 15.3207 9.90908 15.4311 9.92013 15.5402C9.93114 15.6492 9.96424 15.7552 10.0173 15.8506C10.0704 15.946 10.1424 16.0295 10.2286 16.0953C10.3149 16.1613 10.4136 16.2082 10.5185 16.2333C10.6235 16.2585 10.7324 16.2613 10.8385 16.2417C10.9446 16.2221 11.0455 16.1802 11.1349 16.1187C11.2244 16.0575 11.3004 15.9778 11.3582 15.8852C11.416 15.7926 11.4544 15.6887 11.4709 15.5804C11.5671 14.9327 11.4432 14.2714 11.1196 13.7051Z" fill="#B25117"/>
<path d="M11.4374 15.5735C11.4191 15.6819 11.3797 15.7853 11.3216 15.8783C11.2635 15.9713 11.1879 16.0513 11.0991 16.1139C11.0102 16.1768 10.9101 16.2208 10.8043 16.2439C10.6985 16.267 10.5894 16.2684 10.4831 16.2478L11.0862 13.6643V13.7251C11.4043 14.2833 11.5281 14.9345 11.4374 15.5735Z" fill="#904014"/>
<path d="M9.97286 15.3716L9.91984 15.2971L9.84032 15.3443C9.56104 15.5068 9.3028 15.704 9.07158 15.9312L8.60767 17.955L8.6408 17.9956C8.80372 18.1665 9.01027 18.2878 9.23726 18.3462C9.37082 18.3888 9.51133 18.4035 9.65066 18.3902C9.78998 18.3769 9.92529 18.3353 10.0486 18.2682C10.172 18.2011 10.2811 18.1095 10.3693 17.9991C10.4576 17.8883 10.5233 17.761 10.5627 17.6244C10.6671 16.8236 10.455 16.0133 9.97286 15.3716Z" fill="#F49C1A"/>
<path d="M10.5365 17.6041C10.4964 17.7404 10.4302 17.8669 10.3417 17.977C10.2532 18.0872 10.1443 18.1784 10.0212 18.2455C9.89801 18.3126 9.76302 18.3542 9.62401 18.3678C9.48499 18.3818 9.34465 18.3675 9.21106 18.3259L9.91356 15.2971L9.96656 15.3782C10.4261 16.0203 10.6297 16.8155 10.5365 17.6041Z" fill="#EF7E11"/>
<path d="M5.6987 13.813H5.61914L5.66556 13.8804C6.11724 14.4981 6.73711 14.9672 7.44828 15.2293C7.66654 15.3272 7.91317 15.3373 8.13831 15.2569C8.36345 15.1769 8.55031 15.0126 8.66108 14.7976C8.79363 14.3862 8.45562 13.9074 7.9188 13.7319C7.18753 13.532 6.41403 13.5599 5.6987 13.813Z" fill="#B25117"/>
<path d="M5.95037 12.9905H5.87085L5.91723 13.0579C6.09718 13.3033 6.30148 13.5295 6.52694 13.7322L8.51512 14.4068H8.5549C8.71317 14.3292 8.83474 14.1911 8.89287 14.0223C9.01881 13.6109 8.6808 13.132 8.14401 12.9566C7.42599 12.7437 6.66175 12.7556 5.95037 12.9905Z" fill="#F49C1A"/>
<path d="M8.16398 12.9428C8.7008 13.1179 9.03877 13.6171 8.91287 14.0086L5.87756 13.0236H5.95048C6.66438 12.7754 7.43442 12.7471 8.16398 12.9428Z" fill="#EF7E11"/>
<path d="M7.90514 13.7588C8.44857 13.934 8.78657 14.4331 8.65403 14.8246L5.62537 13.8396H5.70489C6.41375 13.589 7.18033 13.5606 7.90514 13.7588Z" fill="#904014"/>
<path d="M6.08287 16.9567L6.0166 17.0039L6.05638 17.0714C6.43172 17.6803 7.01457 18.127 7.69331 18.3259C7.93303 18.3762 8.18256 18.3287 8.38827 18.1937C8.59397 18.0588 8.73945 17.847 8.79345 17.6041C8.81876 17.4856 8.82086 17.3629 8.79961 17.2433C8.77832 17.1238 8.7341 17.0098 8.66947 16.9074C8.60484 16.8054 8.52106 16.7173 8.42294 16.6481C8.32479 16.5789 8.21423 16.5303 8.09759 16.5048C7.39442 16.4023 6.67863 16.5628 6.08287 16.9567Z" fill="#F49C1A"/>
<path d="M8.0912 16.4371C8.32837 16.4874 8.53624 16.6314 8.6692 16.8373C8.80213 17.0436 8.84932 17.2949 8.80031 17.5364L6.01025 16.9632L6.07653 16.9093C6.67588 16.5234 7.38646 16.3571 8.0912 16.4371Z" fill="#EF7E11"/>
<path d="M7.31555 16.6729V16.7404H7.38182C7.99174 16.9043 8.63933 16.8372 9.20432 16.5516C9.39063 16.4398 9.52569 16.2573 9.57973 16.0441C9.63381 15.8309 9.60245 15.6047 9.49263 15.4149C9.38276 15.2255 9.20338 15.0877 8.99397 15.0329C8.78456 14.978 8.56222 15.0098 8.37592 15.1216C7.84357 15.4848 7.46502 16.0385 7.31555 16.6729Z" fill="#B25117"/>
<path d="M8.37603 15.1825C8.46729 15.1262 8.56859 15.0892 8.67408 15.0731C8.77957 15.0567 8.88716 15.0619 8.99066 15.0885C9.09416 15.1147 9.1915 15.1615 9.2771 15.2265C9.36271 15.2912 9.43485 15.3726 9.48941 15.466L7.32227 16.8148V16.7407C7.47729 16.1091 7.85154 15.5554 8.37603 15.1825Z" fill="#904014"/>
<path d="M8.34962 14.7644V14.6903H8.27674C7.64145 14.605 6.99686 14.748 6.45424 15.0951C6.36951 15.1619 6.29908 15.2454 6.2472 15.3412C6.19537 15.4366 6.16317 15.5418 6.15262 15.6505C6.1421 15.7589 6.15339 15.8686 6.18589 15.9724C6.21837 16.0766 6.27136 16.1727 6.34158 16.2552C6.48342 16.4247 6.68259 16.5341 6.89973 16.5614C7.1169 16.589 7.33626 16.5327 7.5146 16.4034C7.9891 15.9864 8.28806 15.3995 8.34962 14.7644Z" fill="#F49C1A"/>
<path d="M7.57383 16.4233C7.39577 16.5551 7.17542 16.6138 6.95675 16.5876C6.73808 16.5614 6.5372 16.452 6.39417 16.2817L8.38235 14.7102V14.7843C8.31768 15.4124 8.03022 15.9951 7.57383 16.4233Z" fill="#EF7E11"/>
<path d="M10.8612 18.4876H10.9208L10.9606 18.4405C11.3046 17.9504 11.473 17.3555 11.4377 16.7543C11.4255 16.6571 11.3945 16.5638 11.3464 16.4792C11.2983 16.3946 11.2341 16.3205 11.1576 16.2614C11.0811 16.2027 10.9938 16.1597 10.9008 16.1352C10.8078 16.1111 10.7109 16.1059 10.616 16.1202C10.4184 16.1656 10.245 16.2855 10.1307 16.4554C10.0164 16.6256 9.96953 16.8336 9.99962 17.0374C10.1012 17.6124 10.408 18.129 10.8612 18.4876Z" fill="#B25117"/>
<path d="M10.033 17.0372C10.0046 16.8362 10.0516 16.6317 10.1646 16.4643C10.2775 16.2969 10.4482 16.1787 10.6427 16.1333L10.9674 18.5011H10.9144C10.452 18.1418 10.1377 17.6199 10.033 17.0372Z" fill="#904014"/>
<path d="M10.3705 14.1163H10.4434V14.0488C10.5155 13.4074 10.3527 12.7615 9.98616 12.2344C9.84274 12.0827 9.64836 11.9914 9.44185 11.9792C9.23535 11.967 9.03191 12.0344 8.8721 12.1683C8.7123 12.3018 8.60792 12.492 8.57978 12.7006C8.55165 12.9093 8.60184 13.1208 8.72033 13.2935C9.15278 13.7643 9.73998 14.0572 10.3705 14.1163Z" fill="#B25117"/>
<path d="M8.76061 13.2732C8.62289 13.104 8.55673 12.8863 8.57658 12.6675C8.59647 12.4486 8.70077 12.247 8.86666 12.1064L10.4903 14.0894H10.4174C9.78711 14.0275 9.19939 13.7381 8.76061 13.2732Z" fill="#904014"/>
<path d="M8.36289 13.3615H8.27673V13.4356C8.28624 14.0878 8.52085 14.7159 8.93946 15.2098C9.01702 15.2843 9.10867 15.3419 9.20885 15.3794C9.30899 15.4171 9.4156 15.4335 9.52218 15.4276C9.62872 15.422 9.73305 15.3944 9.82883 15.3465C9.9246 15.2986 10.0098 15.2315 10.0793 15.149C10.2269 14.9816 10.3057 14.7631 10.2996 14.5384C10.2934 14.314 10.2027 14.1 10.0462 13.9417C9.57772 13.5376 8.97599 13.3303 8.36289 13.3615Z" fill="#F49C1A"/>
<path d="M10.086 13.8939C10.2434 14.0519 10.3353 14.2651 10.3427 14.4895C10.3501 14.7143 10.2724 14.9334 10.1257 15.1015L8.27673 13.3343H8.34961C8.97651 13.2958 9.59516 13.4951 10.086 13.8939Z" fill="#EF7E11"/>
<path d="M8.63422 12.1001V12.0259H8.5613C7.92587 11.9365 7.27992 12.0801 6.7388 12.4307C6.65428 12.4968 6.58396 12.58 6.53219 12.675C6.48039 12.7698 6.44823 12.8746 6.43767 12.9826C6.42712 13.0906 6.43841 13.1997 6.47081 13.3032C6.50321 13.4066 6.5561 13.5024 6.62615 13.5842C6.76736 13.7569 6.96796 13.8684 7.18712 13.896C7.40625 13.9236 7.62751 13.8652 7.80581 13.7324C8.27636 13.3157 8.5727 12.732 8.63422 12.1001Z" fill="#F49C1A"/>
<path d="M7.85947 13.7524C7.68198 13.8859 7.46124 13.9453 7.24212 13.9191C7.02302 13.8929 6.82197 13.7824 6.67981 13.6108L8.66799 12.0459V12.1134C8.60574 12.7422 8.31789 13.3259 7.85947 13.7524Z" fill="#EF7E11"/>
<path d="M19.8478 11.5737H9.8208V18.6967H19.8478V11.5737Z" fill="#FFFCF7"/>
<path d="M13.6715 16.6058C13.7157 16.7495 13.717 16.9036 13.6753 17.048C13.6337 17.1927 13.5508 17.3213 13.4373 17.4178C13.3238 17.5146 13.1847 17.5747 13.0376 17.5912C12.8905 17.6073 12.7419 17.5789 12.6107 17.5094C12.4794 17.4395 12.3714 17.3322 12.3002 17.2C12.229 17.0679 12.1979 16.9173 12.2107 16.7673C12.2235 16.6174 12.2797 16.4744 12.3722 16.3569C12.4647 16.2392 12.5894 16.1521 12.7305 16.1067C12.9203 16.0473 13.1255 16.0665 13.3016 16.1598C13.4777 16.2531 13.6106 16.4136 13.6715 16.6058Z" fill="#F39638"/>
<path d="M12.7296 16.1064L13.1803 17.5567C12.9957 17.6025 12.8009 17.5756 12.6353 17.4805C12.4698 17.3858 12.3458 17.2306 12.2885 17.046C12.2312 16.8618 12.2449 16.6622 12.3268 16.4878C12.4087 16.313 12.5527 16.1771 12.7296 16.1064Z" fill="#EB661B"/>
<path d="M12.6703 16.1199V16.1874C12.6725 16.1954 12.6764 16.2031 12.6817 16.2098C12.687 16.2164 12.6936 16.2217 12.7011 16.2255C12.7086 16.2294 12.7169 16.2315 12.7252 16.2318C12.7336 16.2325 12.742 16.2308 12.7498 16.2276C12.7579 16.2255 12.7654 16.2217 12.7719 16.2161C12.7784 16.2108 12.7837 16.2038 12.7874 16.1965C12.7912 16.1888 12.7933 16.1804 12.7937 16.1717C12.794 16.1633 12.7926 16.1549 12.7895 16.1469V16.086C12.7798 16.0532 12.7798 16.0179 12.7895 15.985C12.8089 15.9592 12.8339 15.9385 12.8625 15.9242C12.8703 15.9228 12.8778 15.9197 12.8843 15.9148C12.8908 15.9102 12.8961 15.9039 12.8999 15.8969C12.9038 15.8896 12.9059 15.8819 12.9064 15.8739C12.9067 15.8655 12.9053 15.8574 12.9022 15.8501C12.9007 15.8421 12.8975 15.8344 12.8929 15.8274C12.8884 15.8207 12.8825 15.8148 12.8757 15.8106C12.8689 15.8061 12.8613 15.8033 12.8533 15.8019C12.8453 15.8005 12.8371 15.8008 12.8293 15.8029C12.7674 15.8246 12.7158 15.8693 12.6851 15.928C12.6543 15.9868 12.6466 16.0553 12.6636 16.1199H12.6703Z" fill="#AC5743"/>
<path d="M12.6836 15.9446L12.7697 16.2277C12.7619 16.2309 12.7536 16.2326 12.7452 16.2319C12.7368 16.2316 12.7286 16.2295 12.7211 16.2256C12.7136 16.2218 12.707 16.2165 12.7016 16.2099C12.6963 16.2032 12.6924 16.1956 12.6902 16.1875C12.6727 16.1494 12.6631 16.1085 12.662 16.0666C12.6609 16.025 12.6682 15.9834 12.6836 15.9446Z" fill="#823931"/>
<path d="M12.067 15.648L12.2724 15.5805C12.3081 15.569 12.3457 15.5648 12.383 15.5679C12.4203 15.5711 12.4566 15.5819 12.4898 15.5994C12.5231 15.6168 12.5526 15.641 12.5767 15.67C12.6008 15.6993 12.619 15.7329 12.6303 15.7692L12.7032 15.9985C12.7097 16.0059 12.7133 16.0157 12.7133 16.0254C12.7133 16.0356 12.7097 16.045 12.7032 16.0527L12.4779 16.1268C12.4427 16.1383 12.4055 16.1422 12.3687 16.139C12.3319 16.1356 12.296 16.1251 12.2634 16.1072C12.2306 16.0898 12.2017 16.0656 12.1782 16.0366C12.1548 16.0076 12.1372 15.9741 12.1267 15.9381L12.0604 15.7287C12.0515 15.7168 12.0472 15.7021 12.0484 15.6871C12.0496 15.6721 12.0563 15.6581 12.067 15.648Z" fill="#3AB39C"/>
<path d="M12.2526 15.8033C12.2582 15.7974 12.2649 15.7925 12.2723 15.7893C12.2797 15.7862 12.2877 15.7844 12.2957 15.7844C12.3037 15.7844 12.3117 15.7862 12.3191 15.7893C12.3265 15.7925 12.3332 15.7974 12.3388 15.8033L12.6635 15.9784V16.019C12.67 16.0263 12.6736 16.0361 12.6736 16.0459C12.6736 16.056 12.67 16.0655 12.6635 16.0731H12.6237L12.2924 15.8977C12.2824 15.8959 12.273 15.8917 12.2651 15.8854C12.2571 15.8791 12.2508 15.8711 12.2469 15.8617C12.2429 15.8522 12.2414 15.8417 12.2424 15.8316C12.2434 15.8215 12.2469 15.8117 12.2526 15.8033Z" fill="#279F84"/>
<path d="M13.9494 16.2477C13.8905 16.2995 13.8527 16.3718 13.8434 16.4501C13.8378 16.5333 13.8639 16.6154 13.9163 16.6794C13.9606 16.7465 13.99 16.8224 14.0025 16.9021C14.0227 17.045 14.0799 17.1803 14.1682 17.2936C14.3404 17.5092 14.8309 17.3809 14.8309 17.3809C14.8921 17.2537 14.9324 17.117 14.9501 16.9765C14.9642 16.8724 14.9406 16.7671 14.8839 16.6794C14.7898 16.5731 14.6715 16.4921 14.5393 16.4435C14.4645 16.4162 14.3966 16.3725 14.3404 16.3152C14.3153 16.2834 14.2842 16.2565 14.2489 16.2369C14.2136 16.217 14.1748 16.2047 14.1347 16.2002C14.0947 16.196 14.0542 16.1995 14.0155 16.2114C13.9769 16.2229 13.9409 16.2421 13.9097 16.268L13.9494 16.2477Z" fill="#F49C1A"/>
<path d="M14.0949 16.4238C14.0949 16.4238 14.0949 16.5521 14.128 16.7003C14.1388 16.8433 14.1819 16.982 14.254 17.1051C14.2939 17.1425 14.3411 17.1708 14.3924 17.1883C14.4439 17.2058 14.4983 17.2117 14.5522 17.2065C14.6139 17.2117 14.676 17.2117 14.7377 17.2065C14.771 17.1268 14.7933 17.0425 14.804 16.9569C14.8125 16.9146 14.8122 16.8712 14.8031 16.8296C14.794 16.7877 14.7762 16.7482 14.751 16.7139C14.6465 16.6185 14.5217 16.5493 14.3865 16.5116C14.2473 16.4577 14.1214 16.4238 14.1214 16.4238H14.0949Z" fill="#FFD301"/>
<path d="M14.7846 17.1187C14.8306 17.3854 14.9501 17.6332 15.1292 17.8335C15.1806 17.9027 15.2567 17.9485 15.341 17.961C15.4253 17.974 15.5111 17.9523 15.5799 17.9009C15.6293 17.8314 15.6506 17.745 15.6395 17.6597C15.6284 17.5745 15.5858 17.4965 15.5202 17.4423C15.312 17.2627 15.0559 17.1501 14.7846 17.1187Z" fill="#B25117"/>
<path d="M14.9901 16.9021C15.0069 17.0087 15.0358 17.1129 15.0763 17.2125L15.5998 17.7455C15.6282 17.7522 15.6577 17.7525 15.6862 17.7466C15.7148 17.741 15.7418 17.7288 15.7655 17.7116C15.8158 17.6417 15.837 17.5543 15.8246 17.4684C15.8122 17.3827 15.7672 17.3051 15.6992 17.253C15.5033 17.0657 15.256 16.9433 14.9901 16.9021Z" fill="#F49C1A"/>
<path d="M15.6991 17.2536C15.7671 17.3057 15.8121 17.3833 15.8245 17.4689C15.8369 17.5549 15.8157 17.6423 15.7654 17.7122L14.9635 16.896C15.2395 16.9334 15.4969 17.0585 15.6991 17.2536Z" fill="#EF7E11"/>
<path d="M15.4871 17.4692C15.555 17.5216 15.6001 17.5988 15.6125 17.6848C15.6248 17.7705 15.6036 17.8578 15.5533 17.9278L14.7581 17.1116C15.0317 17.1507 15.2866 17.2755 15.4871 17.4692Z" fill="#904014"/>
<path d="M15.6923 17.4756C15.7642 17.4487 15.8287 17.4047 15.8806 17.347C15.9324 17.2897 15.9701 17.2205 15.9906 17.1453C15.9956 17.0803 15.9803 17.0153 15.947 16.9597C15.9137 16.9038 15.864 16.8605 15.805 16.8349C15.7816 16.8189 15.7548 16.8087 15.7267 16.8056C15.6987 16.8021 15.6703 16.8052 15.6438 16.8154C15.6173 16.8251 15.5935 16.8412 15.5743 16.8622C15.5551 16.8832 15.541 16.9087 15.5332 16.9363C15.527 17.1289 15.5829 17.3183 15.6923 17.4756Z" fill="#B25117"/>
<path d="M15.5663 16.957C15.5663 16.8424 15.7054 16.7948 15.8313 16.849L15.712 17.5236C15.6016 17.3569 15.5501 17.1573 15.5663 16.957Z" fill="#904014"/>
<path d="M14.9837 17.4217C14.8375 17.3046 14.6593 17.2361 14.4734 17.2263C14.3541 17.2263 14.2945 17.341 14.3342 17.4689C14.3546 17.5322 14.3934 17.587 14.4456 17.6269C14.4977 17.6667 14.5607 17.6895 14.6258 17.6916C14.7022 17.6786 14.7744 17.6472 14.8366 17.6003C14.8988 17.5535 14.9492 17.4923 14.9837 17.4217Z" fill="#F49C1A"/>
<path d="M14.619 17.7117C14.5544 17.711 14.4916 17.6897 14.4393 17.6509C14.3871 17.6124 14.348 17.5582 14.3273 17.4957L14.9901 17.4485C14.9535 17.5194 14.9007 17.5806 14.8361 17.6264C14.7715 17.6722 14.697 17.7012 14.619 17.7117Z" fill="#EF7E11"/>
<path d="M17.0443 16.626H16.8322L17.0111 16.5652C17.139 16.5016 17.2573 16.4198 17.3624 16.3223L17.4684 16.4373C17.3398 16.5264 17.196 16.5904 17.0443 16.626Z" fill="#AC7135"/>
<path d="M16.8123 17.2801C16.6969 17.3293 16.573 17.3549 16.4478 17.3549C16.3226 17.3549 16.1987 17.3293 16.0833 17.2801C15.8712 17.1518 15.7519 16.9833 15.8779 16.8819C16.196 16.6394 16.1297 16.3898 16.4412 16.2479C16.5066 16.2122 16.5787 16.1905 16.6528 16.1846C16.7269 16.179 16.8014 16.1891 16.8713 16.2147C16.9413 16.2402 17.0053 16.2804 17.059 16.3325C17.1128 16.3845 17.1552 16.4478 17.1834 16.5177C17.217 16.6691 17.1984 16.8271 17.1308 16.9658C17.0632 17.1046 16.9508 17.2157 16.8123 17.2801Z" fill="#C12D24"/>
<path d="M16.09 17.2259C15.8581 17.1112 15.7587 16.9361 15.878 16.8484C16.1961 16.6054 16.1364 16.3422 16.4413 16.2143C16.5067 16.1783 16.5788 16.1566 16.6529 16.151C16.727 16.1451 16.8015 16.1556 16.8714 16.1807C16.9415 16.2063 17.0054 16.2465 17.0591 16.2985C17.1129 16.351 17.1553 16.4139 17.1836 16.4841C17.1173 16.2818 15.9906 16.5719 16.09 17.2259Z" fill="#F9B63E"/>
<path d="M11.0007 11.5806H10.7488V18.6972H11.0007V11.5806Z" fill="#F49C1A"/>
<path d="M14.665 14.589C15.7338 14.589 16.6002 14.0487 16.6002 13.3817C16.6002 12.7148 15.7338 12.1741 14.665 12.1741C13.5963 12.1741 12.7299 12.7148 12.7299 13.3817C12.7299 14.0487 13.5963 14.589 14.665 14.589Z" fill="#FDCE48" stroke="#FCFCFC" stroke-width="0.1" stroke-miterlimit="10"/>
<path d="M16.9985 14.1032H12.5583C12.4452 14.1012 12.3373 14.0543 12.2579 13.9722C12.1786 13.8904 12.1341 13.7799 12.1341 13.6646C12.135 13.6079 12.1468 13.552 12.1689 13.4999C12.191 13.4479 12.223 13.4007 12.263 13.3612C12.303 13.322 12.3503 13.2909 12.4021 13.2699C12.4539 13.249 12.5092 13.2388 12.5649 13.2395H17.0051C17.1183 13.2413 17.2261 13.2885 17.3055 13.3706C17.3848 13.4524 17.4293 13.5629 17.4293 13.6782C17.4258 13.7922 17.3789 13.9002 17.2985 13.9795C17.2181 14.0589 17.1105 14.1032 16.9985 14.1032Z" fill="#005130"/>
<path d="M14.2411 14.6356C14.2349 14.6328 14.2281 14.6311 14.2213 14.6311C14.2144 14.6311 14.2077 14.6328 14.2015 14.6356C14.1886 14.6311 14.1747 14.6311 14.1618 14.6356C14.1609 14.6422 14.1614 14.6492 14.1633 14.6558C14.1652 14.6621 14.1684 14.6683 14.1728 14.6732C14.1772 14.6784 14.1826 14.6826 14.1887 14.6854C14.1948 14.6882 14.2014 14.6896 14.2081 14.6892C14.2198 14.6878 14.2308 14.6826 14.2392 14.6739C14.2475 14.6656 14.2529 14.6544 14.2543 14.6422L14.2411 14.6356Z" fill="#61B45F"/>
<path d="M14.2401 14.6563C14.2341 14.6532 14.2275 14.6519 14.2208 14.6519C14.2141 14.6519 14.2075 14.6532 14.2014 14.6563V14.7022C14.2129 14.7008 14.2236 14.6954 14.2318 14.6872C14.24 14.6787 14.2452 14.6678 14.2465 14.6563H14.2401Z" fill="#12A96B"/>
<path d="M14.2007 14.8784C14.1815 14.885 14.1606 14.885 14.1414 14.8784C14.1228 14.8502 14.1114 14.8178 14.1084 14.7844C14.108 14.7719 14.1117 14.7601 14.1189 14.7503C14.1261 14.7406 14.1364 14.7336 14.1479 14.7305H14.2404C14.2458 14.7385 14.2486 14.7479 14.2486 14.7573C14.2486 14.767 14.2458 14.7764 14.2404 14.7844C14.2521 14.8144 14.2521 14.8481 14.2404 14.8784C14.2231 14.8833 14.2048 14.8833 14.1876 14.8784H14.2007Z" fill="#EA5D5F"/>
<path d="M14.2408 14.8444C14.2526 14.8144 14.2526 14.7807 14.2408 14.7504C14.2462 14.7427 14.2491 14.7333 14.2491 14.7236C14.2491 14.7138 14.2462 14.7048 14.2408 14.6968H14.188V14.8847C14.2053 14.8896 14.2235 14.8896 14.2408 14.8847V14.8444Z" fill="#DC2664"/>
<path d="M14.367 14.5621C14.3629 14.5704 14.3608 14.5795 14.3608 14.5889C14.3608 14.5983 14.3629 14.6073 14.367 14.6157C14.3587 14.6087 14.3481 14.6049 14.3373 14.6049C14.3264 14.6049 14.3159 14.6087 14.3076 14.6157C14.3125 14.6216 14.3186 14.6261 14.3254 14.6293C14.3323 14.6324 14.3397 14.6341 14.3472 14.6341C14.3546 14.6341 14.3621 14.6324 14.3689 14.6293C14.3757 14.6261 14.3818 14.6216 14.3868 14.6157C14.397 14.6035 14.4026 14.5882 14.4026 14.5722C14.4026 14.5562 14.397 14.5405 14.3868 14.5283L14.367 14.5621Z" fill="#61B45F"/>
<path d="M14.3872 14.575C14.383 14.5833 14.3809 14.5927 14.3809 14.6021C14.3809 14.6112 14.383 14.6205 14.3872 14.6289V14.6759C14.3977 14.6637 14.4035 14.648 14.4035 14.632C14.4035 14.616 14.3977 14.6007 14.3872 14.5885V14.575Z" fill="#12A96B"/>
<path d="M14.4665 14.8587C14.4544 14.8656 14.4407 14.8695 14.4267 14.8695C14.4127 14.8695 14.399 14.8656 14.387 14.8587C14.3449 14.8454 14.3093 14.8167 14.2875 14.7776C14.2789 14.766 14.2743 14.7517 14.2743 14.7374C14.2743 14.7227 14.2789 14.7084 14.2875 14.6968C14.3041 14.6786 14.3245 14.665 14.3472 14.6563H14.4068C14.4218 14.6521 14.4377 14.6538 14.4513 14.6615C14.4649 14.6689 14.4751 14.6818 14.4797 14.6968C14.4934 14.736 14.4934 14.779 14.4797 14.8181C14.4751 14.8468 14.4611 14.873 14.44 14.8922L14.4665 14.8587Z" fill="#EA5D5F"/>
<path d="M14.5056 14.7834C14.5193 14.7441 14.5193 14.7016 14.5056 14.6623C14.5011 14.6473 14.4909 14.6348 14.4774 14.6271C14.4638 14.6198 14.4479 14.6177 14.4331 14.6223H14.3737L14.4925 14.8234C14.5135 14.8043 14.5274 14.7782 14.5321 14.7496L14.5056 14.7834Z" fill="#DC2664"/>
<path fill-rule="evenodd" clip-rule="evenodd" d="M14.4267 14.7849C14.4207 14.7907 14.4267 14.7849 14.4267 14.7849V14.7849Z" fill="#DC2664"/>
<path d="M14.6051 14.3928C14.5933 14.4012 14.5836 14.4123 14.5767 14.4252C14.5698 14.4381 14.566 14.4523 14.5655 14.4669C14.5527 14.4586 14.5378 14.4541 14.5226 14.4541C14.5074 14.4541 14.4925 14.4586 14.4797 14.4669C14.4871 14.4743 14.4958 14.4802 14.5055 14.4844C14.5151 14.4885 14.5254 14.4906 14.5358 14.4906C14.5463 14.4906 14.5566 14.4885 14.5662 14.4844C14.5758 14.4802 14.5845 14.4743 14.5919 14.4669C14.6106 14.4555 14.6244 14.4374 14.6305 14.4165C14.6366 14.3952 14.6346 14.3723 14.6249 14.3528L14.6051 14.3928Z" fill="#61B45F"/>
<path d="M14.6322 14.4197C14.6204 14.428 14.6107 14.4388 14.6038 14.4517C14.5969 14.4646 14.5931 14.4788 14.5926 14.4935L14.6322 14.5606C14.6509 14.5495 14.6646 14.5314 14.6708 14.5102C14.6769 14.4889 14.6749 14.4663 14.6652 14.4465L14.6322 14.4197Z" fill="#12A96B"/>
<path d="M14.7378 14.8114C14.72 14.8194 14.7008 14.8233 14.6814 14.8233C14.662 14.8233 14.6428 14.8194 14.6251 14.8114C14.5694 14.7932 14.5222 14.7548 14.4926 14.7034C14.4802 14.687 14.4735 14.6667 14.4735 14.6461C14.4735 14.6254 14.4802 14.6052 14.4926 14.5887C14.5143 14.5629 14.5415 14.5419 14.5721 14.5279C14.5981 14.509 14.6273 14.4954 14.6582 14.4874C14.6782 14.4853 14.6984 14.4891 14.7162 14.4989C14.7339 14.5083 14.7484 14.5234 14.7577 14.5415C14.7774 14.5957 14.7774 14.6558 14.7577 14.71C14.7525 14.7513 14.7339 14.7894 14.7046 14.818L14.7378 14.8114Z" fill="#EA5D5F"/>
<path d="M14.7916 14.7037C14.8114 14.6495 14.8114 14.5894 14.7916 14.5352C14.7824 14.517 14.7679 14.502 14.7502 14.4926C14.7324 14.4828 14.7122 14.4789 14.6922 14.481C14.6613 14.4891 14.6321 14.5027 14.6061 14.5216L14.7718 14.8117C14.8009 14.783 14.8197 14.7449 14.8248 14.7037H14.7916Z" fill="#DC2664"/>
<path d="M14.6916 14.1442C14.6916 14.1442 14.6916 14.1918 14.6916 14.2117C14.6916 14.232 14.6916 14.2659 14.6916 14.2861L14.6452 14.34C14.6464 14.3602 14.6464 14.3805 14.6452 14.4008C14.6452 14.4008 14.5988 14.4008 14.5789 14.4008C14.559 14.4008 14.5789 14.4413 14.5259 14.448H14.4596H14.3933C14.3933 14.448 14.347 14.448 14.3271 14.448H14.2542L14.2011 14.4008H14.1415C14.1415 14.4008 14.1415 14.3536 14.1415 14.34C14.1244 14.3211 14.109 14.3008 14.0951 14.2791C14.0918 14.2568 14.0918 14.2341 14.0951 14.2117C14.0951 14.2117 14.0951 14.1645 14.0951 14.1442C14.0951 14.1243 14.0951 14.097 14.0951 14.0768C14.0951 14.0568 14.0951 14.0229 14.0951 14.0027C14.0951 13.9824 14.1283 14.0027 14.1415 13.9488C14.1379 13.9286 14.1379 13.9083 14.1415 13.888C14.1415 13.888 14.1879 13.888 14.2078 13.888L14.2608 13.8408H14.2409C14.2409 13.8408 14.2873 13.8408 14.3072 13.8408C14.3271 13.8408 14.3536 13.8408 14.3735 13.8408C14.3933 13.8408 14.4265 13.8408 14.4464 13.8408C14.4662 13.8408 14.4464 13.8408 14.4994 13.888C14.5191 13.8845 14.5393 13.8845 14.559 13.888C14.559 13.888 14.559 13.9352 14.559 13.9555C14.559 13.9757 14.5988 13.9555 14.6054 14.0093C14.6121 14.0635 14.6054 14.0568 14.6054 14.0768C14.6054 14.097 14.6916 14.1243 14.6916 14.1442Z" fill="#4BAE52"/>
<path d="M14.5397 14.1235C14.5397 14.1637 14.5397 14.2043 14.4867 14.2043C14.4692 14.1997 14.4538 14.1892 14.4429 14.1746C14.4321 14.1599 14.4265 14.1417 14.4271 14.1235H14.3939C14.3948 14.1323 14.394 14.1414 14.3915 14.1497C14.389 14.1581 14.3848 14.1662 14.3793 14.1732C14.3738 14.1802 14.3669 14.1858 14.3592 14.1899C14.3515 14.1941 14.343 14.1966 14.3343 14.1976C14.3343 14.1976 14.2813 14.1637 14.2813 14.1235H14.2415C14.2424 14.1323 14.2416 14.1414 14.2391 14.1497C14.2366 14.1581 14.2324 14.1662 14.2269 14.1732C14.2213 14.1802 14.2145 14.1858 14.2068 14.1899C14.1991 14.1941 14.1906 14.1966 14.1819 14.1976C14.1819 14.1976 14.1288 14.1637 14.1288 14.1235H14.0891C14.0886 14.1504 14.0978 14.177 14.1148 14.198C14.1317 14.219 14.1555 14.2333 14.1819 14.2382C14.1979 14.2371 14.2135 14.2326 14.2273 14.2245C14.2411 14.2162 14.2529 14.2046 14.2614 14.191C14.2676 14.2053 14.2778 14.2176 14.2907 14.2263C14.3036 14.2347 14.3188 14.2396 14.3343 14.2396C14.3498 14.2396 14.3649 14.2347 14.3779 14.2263C14.3908 14.2176 14.401 14.2053 14.4072 14.191C14.4176 14.2116 14.4352 14.228 14.4566 14.2364C14.4781 14.2448 14.5018 14.2448 14.5233 14.2364C14.5447 14.228 14.5624 14.2116 14.5728 14.191C14.5831 14.17 14.5856 14.1459 14.5795 14.1235H14.5397Z" fill="#00A04B"/>
<path d="M14.5397 13.9546C14.5397 13.9951 14.5397 14.0287 14.4867 14.0287C14.478 14.028 14.4695 14.0255 14.4618 14.0214C14.454 14.0172 14.4472 14.0112 14.4417 14.0046C14.4361 13.9976 14.432 13.9895 14.4295 13.9812C14.427 13.9724 14.4261 13.9637 14.4271 13.9546H14.3939C14.3948 13.9637 14.394 13.9724 14.3915 13.9812C14.389 13.9895 14.3848 13.9976 14.3793 14.0046C14.3738 14.0112 14.3669 14.0172 14.3592 14.0214C14.3515 14.0255 14.343 14.028 14.3343 14.0287C14.3343 14.0287 14.2812 13.9951 14.2812 13.9546H14.2415C14.2415 13.9951 14.2415 14.0287 14.1885 14.0287C14.1798 14.028 14.1713 14.0255 14.1635 14.0214C14.1558 14.0172 14.149 14.0112 14.1434 14.0046C14.1379 13.9976 14.1338 13.9895 14.1312 13.9812C14.1287 13.9724 14.1279 13.9637 14.1288 13.9546H14.0891C14.0889 13.9829 14.0989 14.0102 14.1172 14.0315C14.1356 14.0525 14.1609 14.0661 14.1885 14.0692C14.2035 14.0682 14.2179 14.063 14.2307 14.0549C14.2433 14.0465 14.2539 14.0353 14.2614 14.0221C14.2677 14.0364 14.278 14.0483 14.291 14.0567C14.3039 14.065 14.3189 14.0696 14.3343 14.0692C14.3503 14.0685 14.3659 14.064 14.3797 14.0556C14.3936 14.0476 14.4052 14.036 14.4138 14.0221C14.4202 14.0364 14.4305 14.0483 14.4434 14.0567C14.4563 14.065 14.4713 14.0696 14.4867 14.0692C14.5004 14.0685 14.5137 14.0647 14.526 14.0584C14.5382 14.0521 14.549 14.0434 14.5577 14.0325C14.5664 14.0217 14.5729 14.0095 14.5766 13.9958C14.5803 13.9826 14.5813 13.9686 14.5795 13.9546H14.5397Z" fill="#00A04B"/>
<path d="M15.4073 14.2583C15.4093 14.2807 15.4093 14.3031 15.4073 14.3258C15.4073 14.3258 15.4073 14.373 15.4073 14.3933C15.4073 14.4132 15.4073 14.3933 15.3609 14.4471C15.3145 14.5009 15.3609 14.4943 15.3609 14.5146H15.2946C15.2946 14.5146 15.2946 14.5551 15.2416 14.5617C15.22 14.5684 15.1969 14.5684 15.1753 14.5617C15.1753 14.5617 15.1289 14.5617 15.109 14.5617C15.0891 14.5617 15.0627 14.5617 15.0428 14.5617C15.0186 14.5652 14.994 14.5652 14.9698 14.5617L14.9169 14.5146H14.8572C14.8572 14.5146 14.8572 14.4674 14.8241 14.4471C14.7909 14.4268 14.7843 14.4471 14.7777 14.3933C14.771 14.3391 14.7777 14.3457 14.7777 14.3258C14.7748 14.3034 14.7748 14.2807 14.7777 14.2583C14.7738 14.236 14.7738 14.2129 14.7777 14.1909C14.7777 14.1909 14.7777 14.1367 14.7777 14.1164C14.7777 14.0962 14.8108 14.1164 14.8241 14.0626C14.8373 14.0088 14.8241 14.0154 14.8241 14.0018C14.8241 13.9885 14.8704 14.0018 14.8903 14.0018C14.9102 14.0018 14.9235 13.9612 14.9434 13.9546H15.0096C15.0096 13.9546 15.056 13.9546 15.0759 13.9546C15.0958 13.9546 15.1223 13.9546 15.1422 13.9546H15.2151C15.2151 13.9546 15.2151 13.9885 15.2681 14.0018C15.3211 14.0154 15.3145 14.0018 15.3277 14.0018C15.341 14.0018 15.3277 14.0423 15.3277 14.0626C15.3277 14.0829 15.3675 14.0626 15.3741 14.1164C15.3808 14.1706 15.3741 14.1636 15.3741 14.1909C15.3894 14.2108 15.4006 14.2339 15.4073 14.2583Z" fill="#4BAE52"/>
<path d="M15.4073 14.2584C15.4112 14.2364 15.4112 14.2133 15.4073 14.1909C15.3909 14.3017 15.3323 14.4013 15.2442 14.4681C15.1561 14.5352 15.0457 14.5639 14.9368 14.5485C14.8886 14.5391 14.8418 14.523 14.7976 14.5013V14.5419H14.8572L14.9103 14.589C14.9345 14.5925 14.959 14.5925 14.9832 14.589C14.9832 14.589 15.023 14.589 15.0495 14.589C15.0759 14.589 15.0892 14.589 15.1157 14.589C15.1373 14.5957 15.1604 14.5957 15.182 14.589C15.182 14.589 15.182 14.5555 15.235 14.5419H15.3013C15.3013 14.5419 15.3013 14.4947 15.3013 14.4744C15.3013 14.4541 15.341 14.4744 15.3477 14.4206C15.3543 14.3664 15.3477 14.373 15.3477 14.3531C15.3722 14.3248 15.3924 14.293 15.4073 14.2584Z" fill="#00A04B"/>
<path d="M14.241 14.3933C14.2665 14.4758 14.2588 14.5649 14.2197 14.6414C14.1805 14.718 14.1131 14.7757 14.0322 14.8015C13.9514 14.8274 13.8637 14.8197 13.7885 14.7799C13.7134 14.74 13.6568 14.6711 13.6313 14.589C13.6181 14.5485 13.6131 14.5051 13.6167 14.4625C13.6203 14.4198 13.6324 14.3782 13.6523 14.3405C13.6721 14.3027 13.6992 14.2692 13.7321 14.2423C13.7649 14.2157 13.8028 14.1958 13.8434 14.1842C13.9234 14.1587 14.01 14.1664 14.0844 14.2056C14.1589 14.2447 14.2151 14.3122 14.241 14.3933Z" fill="#F39638"/>
<path d="M13.837 14.1841L14.0226 14.7979C13.9426 14.8234 13.856 14.8157 13.7815 14.7766C13.7071 14.7374 13.6508 14.6699 13.6249 14.5888C13.6118 14.5483 13.6068 14.505 13.6104 14.4623C13.614 14.4197 13.6261 14.3781 13.6459 14.3403C13.6657 14.3026 13.6929 14.269 13.7257 14.2425C13.7586 14.2155 13.7965 14.1956 13.837 14.1841Z" fill="#EB661B"/>
<path d="M13.8107 14.1094L13.8503 14.2302C13.8333 14.2159 13.8206 14.1971 13.8136 14.1755C13.8066 14.1543 13.8056 14.1313 13.8107 14.1094Z" fill="#823931"/>
<path d="M13.5785 13.9813H13.6647C13.6955 13.9729 13.7283 13.9764 13.7566 13.9914C13.7849 14.0064 13.8065 14.0316 13.8171 14.0624V14.1634H13.7177C13.687 14.1721 13.6541 14.1686 13.6258 14.1536C13.5975 14.1386 13.5759 14.113 13.5653 14.0826V13.9883C13.5653 13.9883 13.5388 13.9883 13.5785 13.9813Z" fill="#3AB39C"/>
<path d="M13.6379 14.0493L13.7831 14.1231L13.6379 14.0493C13.6379 14.0493 13.6313 14.0629 13.6379 14.0493Z" fill="#279F84"/>
<path d="M15.5666 14.2045C15.5527 14.216 15.5414 14.2303 15.5334 14.2468C15.5254 14.2629 15.5209 14.2807 15.5202 14.2989C15.5125 14.316 15.5085 14.3342 15.5085 14.353C15.5085 14.3716 15.5125 14.3901 15.5202 14.4069C15.5385 14.4383 15.5519 14.4726 15.5599 14.5082C15.5709 14.5715 15.5958 14.6313 15.6329 14.6833C15.719 14.7847 15.9377 14.7239 15.951 14.6833C15.951 14.6833 15.9642 14.6428 15.951 14.6833C15.9815 14.6274 15.9996 14.5652 16.004 14.5012C16.0135 14.4803 16.0184 14.4572 16.0184 14.4338C16.0184 14.4107 16.0135 14.3876 16.004 14.3663C15.9631 14.3146 15.9076 14.2768 15.8449 14.2583C15.8116 14.2422 15.7805 14.222 15.7521 14.1978C15.7262 14.1727 15.6918 14.1587 15.656 14.1587C15.6202 14.1587 15.5858 14.1727 15.5599 14.1978L15.5666 14.2045Z" fill="#F49C1A"/>
<path d="M15.9903 14.7174C16.0208 14.6611 16.0389 14.5989 16.0433 14.5353C16.0528 14.514 16.0578 14.4909 16.0578 14.4678C16.0578 14.4444 16.0528 14.4213 16.0433 14.4004C16.0024 14.3486 15.9469 14.3109 15.8842 14.2924C15.851 14.2759 15.8198 14.2557 15.7915 14.2315C15.7656 14.2064 15.7312 14.1924 15.6954 14.1924C15.6596 14.1924 15.6252 14.2064 15.5993 14.2315L15.9903 14.7174Z" fill="#EB6528"/>
<path d="M15.6326 14.2849C15.6326 14.2849 15.6326 14.3454 15.6326 14.4128C15.6368 14.48 15.6572 14.545 15.6922 14.6019C15.7096 14.6187 15.7307 14.6313 15.7537 14.6383C15.7768 14.6453 15.8011 14.6467 15.8248 14.6421H15.9109C15.9312 14.6075 15.9426 14.568 15.944 14.5275C15.9557 14.4925 15.9557 14.4548 15.944 14.4198C15.8953 14.3775 15.839 14.3457 15.7784 14.3255H15.6525C15.6525 14.3255 15.6392 14.2849 15.6326 14.2849Z" fill="#FFD301"/>
<path d="M15.6326 14.2849L15.9308 14.6425C15.9511 14.6075 15.9625 14.568 15.9639 14.5275C15.9756 14.4925 15.9756 14.4548 15.9639 14.4198C15.9152 14.3775 15.8589 14.3457 15.7982 14.3255H15.6723L15.6326 14.2849Z" fill="#F49C1A"/>
<path d="M15.1492 14.6966C15.2089 14.7787 15.2923 14.8399 15.3878 14.8717C15.416 14.886 15.4484 14.8881 15.4782 14.878C15.508 14.8679 15.5326 14.8465 15.5469 14.8179C15.5469 14.764 15.5469 14.6966 15.4475 14.6763C15.3482 14.6539 15.2448 14.6613 15.1492 14.6966Z" fill="#B25117"/>
<path d="M15.182 14.589L15.2615 14.6767L15.5333 14.7645C15.5443 14.7592 15.5541 14.7519 15.5621 14.7424C15.5701 14.733 15.5761 14.7222 15.5796 14.7103C15.5796 14.6565 15.5796 14.589 15.4802 14.5687C15.3809 14.5467 15.2775 14.5537 15.182 14.589Z" fill="#F49C1A"/>
<path d="M15.4807 14.5821C15.5536 14.5821 15.5999 14.6695 15.5801 14.7237L15.1758 14.5887C15.2746 14.5566 15.3805 14.5541 15.4807 14.5821Z" fill="#EF7E11"/>
<path d="M15.4474 14.6902C15.4784 14.6965 15.5059 14.7147 15.5244 14.7409C15.5428 14.7675 15.5508 14.7997 15.5468 14.8318L15.1425 14.7035C15.2407 14.6693 15.3466 14.6644 15.4474 14.6902Z" fill="#904014"/>
<path d="M15.5138 14.6559C15.5322 14.6339 15.5453 14.6077 15.5522 14.5797C15.5591 14.5517 15.5595 14.5224 15.5535 14.4941C15.5451 14.471 15.5295 14.4514 15.5093 14.4378C15.489 14.4245 15.465 14.4182 15.4409 14.42C15.3879 14.42 15.3547 14.4602 15.368 14.5007C15.3974 14.5682 15.4489 14.623 15.5138 14.6559Z" fill="#B25117"/>
<path d="M15.3875 14.5004C15.3875 14.4599 15.3875 14.4263 15.4538 14.4197L15.5267 14.6623C15.4648 14.6245 15.4161 14.5679 15.3875 14.5004Z" fill="#904014"/>
<path d="M15.2683 14.7645C15.2015 14.7432 15.1298 14.7432 15.0629 14.7645C15.0547 14.7708 15.048 14.7789 15.0434 14.7883C15.0388 14.7977 15.0364 14.8079 15.0364 14.8184C15.0364 14.8288 15.0388 14.8393 15.0434 14.8484C15.048 14.8578 15.0547 14.8659 15.0629 14.8722C15.0841 14.8848 15.1081 14.8914 15.1325 14.8914C15.1569 14.8914 15.1809 14.8848 15.2021 14.8722C15.2362 14.8456 15.2597 14.8072 15.2683 14.7645Z" fill="#F49C1A"/>
<path d="M15.1947 14.9122C15.1739 14.9254 15.1499 14.9324 15.1254 14.9324C15.101 14.9324 15.077 14.9254 15.0562 14.9122L15.2739 14.7778C15.2706 14.8046 15.2618 14.8304 15.2482 14.8537C15.2345 14.8767 15.2163 14.8969 15.1947 14.9122Z" fill="#EF7E11"/>
</svg>
