<svg width="30" height="30" viewBox="0 0 30 30" fill="none" xmlns="http://www.w3.org/2000/svg">
<circle cx="15" cy="15" r="14.5" fill="white" stroke="#12C269"/>
<path d="M16.7014 10.6507C16.5659 9.70895 16.244 5.18837 16.244 5.18837C16.4304 5.11988 16.3965 4.82878 16.2948 4.53768C16.1932 4.26371 16.1932 4.00686 16.1932 4.00686L15.1767 3.86987L14.1602 4.00686C14.1602 4.00686 14.1602 4.26371 14.0586 4.53768C13.9569 4.81166 13.9231 5.10276 14.1094 5.18837C14.1094 5.18837 13.8045 9.70895 13.652 10.6507C13.4148 12.2603 12.5 12.2775 12.5 13.8014C12.5 14.8631 12.5 23.1337 12.5 23.87C12.5 24.8803 13.4148 25.0001 15.1767 25.0001C16.9386 25.0001 17.8534 24.8803 17.8534 23.87C17.8534 23.1337 17.8534 14.8631 17.8534 13.8014C17.8704 12.2775 16.9555 12.2603 16.7014 10.6507Z" fill="#93AE1D"/>
<path opacity="0.2" d="M15.2445 3.887L15.1767 3.86987L14.1602 4.00686C14.1602 4.00686 14.1602 4.26371 14.0586 4.53768C13.9569 4.81166 13.9231 5.10276 14.1094 5.18837C14.1094 5.18837 13.8045 9.70895 13.652 10.6507C13.4148 12.2603 12.5 12.2775 12.5 13.8014C12.5 14.8631 12.5 23.1337 12.5 23.87C12.5 24.8803 13.4148 25.0001 15.1767 25.0001C15.1937 25.0001 15.2275 25.0001 15.2445 25.0001V3.887Z" fill="white"/>
<path d="M17.5826 16.0618C17.4979 15.7878 17.2776 15.7707 17.2776 15.7707C16.4814 15.1885 15.3972 15.1885 15.1939 15.1885C14.9736 15.1885 13.9063 15.1885 13.1101 15.7707C13.1101 15.7707 12.8899 15.8049 12.8052 16.0618H12.5172V20.0515C12.5172 20.0515 12.6357 20.4796 13.0593 20.5481C13.0593 20.5481 13.1948 20.5995 13.2626 20.7193C13.2626 20.7193 13.3812 20.9248 13.6692 20.9248C13.6692 20.9248 13.9233 20.9591 14.1774 21.233C14.1774 21.233 14.7364 21.5926 15.1769 21.6269C15.1939 21.6269 15.1939 21.6269 15.2108 21.6269C15.2277 21.6269 15.2277 21.6269 15.2447 21.6269C15.7021 21.5926 16.2442 21.233 16.2442 21.233C16.4983 20.9419 16.7525 20.9248 16.7525 20.9248C17.0405 20.9419 17.159 20.7193 17.159 20.7193C17.2437 20.5995 17.3623 20.5481 17.3623 20.5481C17.7859 20.4625 17.9045 20.0515 17.9045 20.0515V16.0618H17.5826Z" fill="white"/>
<path d="M13.7705 9.60629L13.9738 4.14394C13.9738 4.14394 15.2783 3.92463 16.3456 4.13011L16.5997 9.62671C16.5997 9.62671 16.2778 9.5378 16.0406 9.81177C15.8035 10.0857 15.6679 10.2399 15.2105 10.2399C14.7531 10.257 14.6006 10.2227 14.2279 9.82889C14.211 9.84602 14.1602 9.57204 13.7705 9.60629Z" fill="#FEFFE4"/>
<path d="M15.1426 8.47604L15.2103 7.79111L15.4475 7.94522L15.312 7.68837L15.6847 7.637L15.312 7.5685L15.4475 7.31165L15.2273 7.44864L15.1426 6.74658L15.0918 7.43152L14.8376 7.29453L14.9732 7.53426L14.6005 7.60275L14.9901 7.68837L14.8376 7.94522L15.0748 7.80823L15.1426 8.47604Z" fill="#C22537"/>
<path d="M16.0579 3.75C15.7868 3.75 15.1769 3.75 15.1769 3.75C15.1769 3.75 14.567 3.75 14.296 3.75C14.0249 3.75 13.9572 4.19521 13.9572 4.19521C13.9572 4.19521 14.1774 4.24658 15.1769 4.24658C16.1764 4.24658 16.3967 4.19521 16.3967 4.19521C16.3967 4.19521 16.3289 3.75 16.0579 3.75Z" fill="#D5BA4A"/>
<path d="M15.8887 4.19558C15.8887 4.12709 15.8209 4.05859 15.7531 4.05859C15.6854 4.05859 15.6176 4.12709 15.6176 4.19558C15.6176 4.2127 15.6176 4.22983 15.6176 4.22983C15.7193 4.22983 15.8209 4.22983 15.8887 4.22983C15.8887 4.22983 15.8887 4.2127 15.8887 4.19558Z" fill="#D5BA4A"/>
<path d="M15.5158 4.21218C15.5158 4.14369 15.448 4.0752 15.3803 4.0752C15.3125 4.0752 15.2448 4.14369 15.2448 4.21218C15.2448 4.22931 15.2448 4.24643 15.2448 4.24643C15.3464 4.24643 15.4311 4.24643 15.5158 4.24643C15.5158 4.22931 15.5158 4.22931 15.5158 4.21218Z" fill="#D5BA4A"/>
<path d="M16.2613 4.17825C16.2613 4.10975 16.1935 4.04126 16.1088 4.04126C16.041 4.04126 15.9733 4.10975 15.9733 4.19537C15.9733 4.21249 15.9733 4.22962 15.9733 4.24674C16.0919 4.24674 16.1935 4.22962 16.2443 4.22962C16.2613 4.19537 16.2613 4.19537 16.2613 4.17825Z" fill="#D5BA4A"/>
<path d="M15.0075 4.0752C14.9397 4.0752 14.8719 4.14369 14.8719 4.21218C14.8719 4.22931 14.8719 4.24643 14.8719 4.24643C14.9567 4.24643 15.0583 4.24643 15.143 4.24643C15.143 4.22931 15.143 4.22931 15.143 4.21218C15.143 4.12657 15.0752 4.0752 15.0075 4.0752Z" fill="#D5BA4A"/>
<path d="M14.6347 4.05859C14.5669 4.05859 14.4991 4.10996 14.4991 4.19558C14.4991 4.2127 14.4991 4.22983 14.4991 4.24695C14.5839 4.24695 14.6686 4.24695 14.7702 4.24695C14.7702 4.22983 14.7702 4.22983 14.7702 4.2127C14.7702 4.12709 14.7024 4.05859 14.6347 4.05859Z" fill="#D5BA4A"/>
<path d="M14.1096 4.21228C14.1774 4.21228 14.2621 4.22941 14.3807 4.22941C14.3807 4.21228 14.3807 4.19516 14.3807 4.17804C14.3807 4.10954 14.3298 4.04105 14.2451 4.02393C14.1774 4.02393 14.1096 4.0753 14.0927 4.16091C14.1096 4.19516 14.1096 4.19516 14.1096 4.21228Z" fill="#D5BA4A"/>
<path d="M17.2945 17.9962C17.2606 17.9448 17.2436 17.9105 17.2267 17.8592C17.2097 17.8249 17.2097 17.7736 17.2267 17.7393C17.142 17.7222 17.0912 17.7222 17.0742 17.7736C17.0742 17.7907 17.0573 17.8078 17.0573 17.8249C17.0064 17.7736 16.9895 17.7393 16.9895 17.7051C16.9895 17.6879 16.9895 17.6879 16.9895 17.6708C17.0065 17.6194 17.0573 17.5852 17.1081 17.5852C17.0742 17.5338 17.0234 17.5167 16.9726 17.5167C16.9387 17.5167 16.9217 17.5338 16.9048 17.551C16.9048 17.5338 16.9048 17.5167 16.9048 17.4996C16.9048 17.4653 16.9217 17.4311 16.9217 17.414C16.9217 17.414 16.8879 17.3968 16.8709 17.3968C16.8709 17.3797 16.854 17.3455 16.854 17.3112C16.854 17.3283 16.8709 17.3283 16.8709 17.3455C16.8879 17.3797 16.9387 17.3968 16.9726 17.3968C17.0573 17.3968 17.125 17.3112 17.125 17.2256C17.125 17.1057 17.0403 17.0373 16.9387 17.0373C16.837 17.0373 16.7693 17.1057 16.7523 17.1571C16.7354 17.14 16.7354 17.1229 16.7015 17.1229C16.6676 17.1057 16.6337 17.1057 16.5999 17.1057C16.566 17.0544 16.4982 17.0373 16.4135 17.0544C16.3288 17.0715 16.2272 17.14 16.1424 17.14C16.1594 17.14 16.1933 17.1229 16.2102 17.1229C16.1933 17.1229 16.1933 17.1229 16.1424 17.14C16.1424 17.14 16.1424 17.14 16.1255 17.14C16.1086 17.14 16.1086 17.1229 16.0916 17.1057C16.1086 17.0886 16.1086 17.0886 16.1086 17.0886C16.1255 17.0886 16.1424 17.1057 16.1763 17.1057C16.1933 17.1057 16.2102 17.0886 16.2272 17.0886C16.2102 17.0886 16.1933 17.0886 16.1763 17.1057C16.1594 17.1057 16.1594 17.1057 16.1424 17.1057H16.1255L16.1424 17.0886C16.1594 17.0886 16.1933 17.0886 16.2102 17.0715C16.2272 17.0715 16.2272 17.0544 16.2272 17.0373C16.2272 17.0201 16.2441 17.0201 16.261 17.003C16.261 17.003 16.278 17.003 16.278 16.9859H16.261C16.2272 17.003 16.2272 17.003 16.2102 17.0201C16.1933 17.0372 16.1763 17.0544 16.1594 17.0544L16.1763 17.0373C16.1763 17.0373 16.1424 17.0373 16.1255 17.0715C16.1255 17.0886 16.1086 17.0886 16.1086 17.0886C16.1086 17.0886 16.1086 17.0886 16.1255 17.0715C16.1086 17.0715 16.1086 17.0886 16.0916 17.0886C16.0747 17.0715 16.0747 17.0715 16.0577 17.0544C16.0747 17.0373 16.0747 17.0201 16.0747 17.003C16.0747 16.9859 16.0747 16.9859 16.0747 16.9688C16.1424 16.9174 16.2441 16.8489 16.3796 16.8146C16.278 16.8318 16.1255 16.8831 15.99 17.003H15.973L15.9561 16.9859C16.0408 16.9174 16.1424 16.866 16.1933 16.8489H16.1763C16.1424 16.866 15.99 16.9003 15.8883 16.9859C15.8714 17.003 15.8544 17.0201 15.8375 17.0373C15.8036 17.0715 15.7697 17.1057 15.7189 17.1229C15.7189 17.1229 15.7189 17.1229 15.702 17.1229C15.702 17.1229 15.702 17.1229 15.685 17.1229C15.685 17.1229 15.685 17.1229 15.6681 17.1229C15.6681 17.1229 15.6681 17.1229 15.6512 17.1229C15.6512 17.1229 15.6512 17.1229 15.6342 17.1229C15.6342 17.1229 15.6342 17.1229 15.6173 17.1229C15.6173 17.1229 15.6173 17.1229 15.6003 17.1229C15.5495 17.1571 15.4987 17.1742 15.4479 17.1914C15.3631 17.2256 15.2784 17.2427 15.1768 17.2427C14.9396 17.2427 14.7533 17.1571 14.5669 17.003C14.4991 16.9174 14.4653 16.8489 14.4483 16.7804C14.4483 16.8146 14.4822 16.9003 14.5161 16.9688C14.4991 16.9516 14.4991 16.9516 14.4822 16.9345L14.55 16.9859C14.4991 16.866 14.4822 16.7119 14.4822 16.6263C14.4822 16.6092 14.4822 16.592 14.4822 16.592C14.4822 16.592 14.4822 16.6263 14.4822 16.6434C14.4822 16.7462 14.4822 16.8318 14.5161 16.9345C14.4653 16.9003 14.4314 16.866 14.3975 16.8318C14.3636 16.8146 14.3128 16.7804 14.2959 16.7804C14.3636 16.8146 14.4144 16.866 14.533 16.9688C14.533 16.9688 14.533 16.9859 14.55 16.9859L14.533 17.003C14.4991 16.9688 14.4653 16.9516 14.4314 16.9174C14.3128 16.7975 14.1942 16.729 14.0926 16.7119C14.0756 16.7119 14.0756 16.7119 14.0926 16.7119C14.1773 16.729 14.2959 16.7975 14.4144 16.9345C14.4144 16.9516 14.4144 17.003 14.4483 17.0373L14.4653 17.0544L14.4483 17.0715C14.4483 17.0544 14.4314 17.0544 14.4314 17.0544C14.4314 17.0544 14.4144 17.0373 14.3975 17.0373C14.3806 17.0201 14.3806 17.0201 14.3636 17.003V17.0201L14.3467 17.003C14.3297 16.9859 14.3128 16.9688 14.3128 16.9688L14.3297 16.9859C14.3128 16.9688 14.2959 16.9688 14.2789 16.9516C14.2789 16.9345 14.2789 16.9345 14.2281 16.9003C14.2281 16.9003 14.2111 16.8831 14.2111 16.9003C14.2111 16.9003 14.1942 16.9003 14.2281 16.9174C14.245 16.9174 14.262 16.9345 14.262 16.9516V16.9688C14.262 16.9859 14.2959 16.9859 14.2959 16.9859C14.3128 16.9859 14.3297 17.003 14.3467 17.003L14.3636 17.0201H14.3806H14.3636H14.3467C14.3297 17.0201 14.3128 17.003 14.2959 17.003C14.2789 16.9859 14.262 16.9859 14.2281 16.9859C14.245 16.9859 14.2789 17.0201 14.2789 17.0201C14.3128 17.0544 14.3467 17.0373 14.3467 17.0373H14.3636C14.3806 17.0373 14.3975 17.0373 14.4144 17.0544C14.4144 17.0544 14.4483 17.0886 14.4483 17.0715C14.4314 17.0886 14.4144 17.0886 14.3636 17.0715C14.3297 17.0544 14.3128 17.0544 14.2959 17.0544C14.2789 17.0544 14.2959 17.0544 14.2959 17.0544C14.3128 17.0544 14.3297 17.0715 14.3467 17.0715C14.3636 17.0886 14.3806 17.0886 14.4144 17.0886C14.4314 17.0886 14.4314 17.0886 14.4483 17.0886C14.4314 17.1057 14.4314 17.1057 14.4144 17.1057C14.3975 17.1057 14.3806 17.0886 14.3636 17.0886C14.3636 17.0886 14.3806 17.0886 14.3806 17.1057C14.3806 17.1057 14.3806 17.1057 14.3975 17.1057C14.3128 17.1057 14.2111 17.0372 14.1264 17.0201C14.0417 17.003 13.974 17.0201 13.9401 17.0715C13.9062 17.0544 13.8723 17.0715 13.8384 17.0715C13.8215 17.0886 13.8046 17.0886 13.7876 17.1057C13.7537 17.0544 13.7029 16.9859 13.6013 16.9859C13.4996 16.9859 13.4149 17.0544 13.4149 17.1742C13.4149 17.2599 13.4827 17.3455 13.5674 17.3455C13.6013 17.3455 13.6521 17.3283 13.669 17.2941C13.686 17.277 13.686 17.277 13.686 17.2599C13.686 17.2941 13.686 17.3283 13.669 17.3455C13.6521 17.3455 13.6351 17.3455 13.6182 17.3626C13.6351 17.3968 13.6351 17.414 13.6351 17.4482C13.6351 17.4653 13.6351 17.4825 13.6351 17.4996C13.6182 17.4825 13.6013 17.4653 13.5674 17.4653C13.5166 17.4482 13.4657 17.4825 13.4319 17.5338C13.4827 17.551 13.5335 17.5681 13.5504 17.6194C13.5504 17.6366 13.5504 17.6366 13.5504 17.6537C13.5504 17.6879 13.5335 17.7393 13.4827 17.7736C13.4827 17.7564 13.4827 17.7393 13.4657 17.7222C13.4319 17.6708 13.381 17.6537 13.3133 17.6879C13.3302 17.7222 13.3302 17.7736 13.3133 17.8078C13.2963 17.8421 13.2794 17.8934 13.2455 17.9448C13.1608 18.0818 13.0591 18.253 13.0591 18.5784C13.0591 18.7325 13.093 18.8695 13.1777 18.9893C13.2455 19.0921 13.3471 19.1777 13.4488 19.229C13.6182 19.3147 13.8215 19.3147 13.957 19.2119C14.0248 19.2633 14.1264 19.2633 14.1773 19.1948H16.3966C16.4643 19.2633 16.549 19.2633 16.6168 19.2119C16.7523 19.3147 16.9387 19.3147 17.125 19.229C17.2267 19.1777 17.3283 19.0921 17.3961 18.9893C17.4639 18.8695 17.5147 18.7325 17.5147 18.5784C17.4808 18.3215 17.3622 18.1331 17.2945 17.9962Z" fill="#D5BA4A"/>
<path d="M15.2613 17.5852C14.9394 17.5852 14.6853 17.4653 14.482 17.2941C14.4481 17.3283 14.4142 17.3454 14.3973 17.3454C14.3803 17.3626 14.3464 17.3626 14.3295 17.3454C14.2617 17.3454 14.194 17.3112 14.1601 17.2941C14.1431 17.3283 14.1093 17.3797 14.0246 17.3797C13.9399 17.3797 13.8551 17.3283 13.8551 17.2256C13.8382 17.2427 13.8382 17.2941 13.8382 17.3454C13.8382 17.6708 13.6519 17.8592 13.4655 18.0133C13.3808 18.0989 13.2961 18.1674 13.2622 18.253C13.2622 18.253 13.2622 18.253 13.2791 18.253C13.2791 18.253 13.2961 18.253 13.2961 18.2701C13.313 18.2187 13.3469 18.1674 13.4486 18.116L13.4824 18.0989L13.4994 18.1331C13.5163 18.1674 13.5163 18.2187 13.5163 18.253C13.5163 18.2872 13.4994 18.3386 13.4824 18.3557C13.4994 18.3557 13.5163 18.3729 13.5333 18.3729C13.5671 18.4071 13.5841 18.4413 13.5841 18.4927C13.4316 18.4756 13.3469 18.5612 13.313 18.664C13.2961 18.6982 13.2961 18.7324 13.2961 18.7667C13.2961 18.8352 13.313 18.9037 13.3639 18.955C13.3639 18.9208 13.3639 18.9037 13.3639 18.8694C13.3639 18.8523 13.3639 18.8181 13.3639 18.7838C13.3639 18.7667 13.3639 18.7496 13.3469 18.7324C13.3469 18.7153 13.33 18.7153 13.313 18.6982C13.3469 18.6468 13.3808 18.6297 13.4316 18.6468C13.4486 18.6468 13.4655 18.6468 13.4824 18.664C13.4994 18.6468 13.5163 18.6126 13.5671 18.5955L13.601 18.5783L13.618 18.6297C13.6349 18.6639 13.6349 18.6982 13.6349 18.7324C13.6349 18.7496 13.6349 18.7667 13.6349 18.7838C13.7196 18.8009 13.7366 18.8694 13.7196 18.9379C13.6688 18.9208 13.6349 18.9208 13.601 18.9379C13.5671 18.9722 13.5671 19.0235 13.601 19.0749C13.6349 19.1263 13.6688 19.1263 13.7366 19.1263C13.7366 19.1092 13.7196 19.092 13.7196 19.0749C13.7196 19.0578 13.7196 19.0407 13.7366 19.0064C13.7535 18.9722 13.7874 18.9379 13.8382 18.9379C13.8721 18.9208 13.9229 18.9379 13.9568 18.9722C14.0076 19.0064 14.0076 19.0749 14.0246 19.1092C14.0246 19.1092 14.0584 19.0749 14.1262 19.0749H16.4133C16.481 19.0749 16.5149 19.1092 16.5149 19.1092C16.5149 19.0578 16.5149 19.0064 16.5827 18.9722C16.6166 18.9379 16.6674 18.9379 16.7013 18.9379C16.7352 18.955 16.769 18.9722 16.8029 19.0064C16.8199 19.0235 16.8199 19.0578 16.8199 19.0749C16.8199 19.092 16.8199 19.1092 16.8029 19.1263C16.8707 19.1434 16.9046 19.1263 16.9384 19.0749C16.9554 19.0407 16.9554 18.9722 16.9384 18.9379C16.9046 18.9037 16.8707 18.9208 16.8199 18.9379C16.8029 18.8523 16.8199 18.7838 16.9046 18.7838C16.9046 18.7667 16.9046 18.7496 16.9046 18.7324C16.9046 18.6982 16.9215 18.6639 16.9215 18.6297L16.9384 18.5783L16.9723 18.5955C17.0232 18.6126 17.0401 18.6468 17.057 18.664C17.074 18.6468 17.0909 18.6468 17.1079 18.6468C17.1417 18.6468 17.1756 18.6639 17.2264 18.6982C17.2095 18.6982 17.1926 18.7153 17.1926 18.7324C17.1756 18.7496 17.1756 18.7667 17.1756 18.7838C17.1756 18.8009 17.1756 18.8352 17.1756 18.8694C17.1756 18.9037 17.1756 18.9208 17.1756 18.955C17.2264 18.9037 17.2434 18.8352 17.2434 18.7667C17.2434 18.7324 17.2434 18.6982 17.2264 18.664C17.1926 18.5612 17.1079 18.4756 16.9554 18.4927C16.9554 18.4413 16.9723 18.4071 17.0062 18.3729C17.0232 18.3557 17.0401 18.3557 17.057 18.3557C17.0401 18.3215 17.0232 18.2872 17.0232 18.253C17.0232 18.2016 17.0401 18.1674 17.0401 18.1331L17.057 18.0989L17.0909 18.116C17.1926 18.1502 17.2264 18.2187 17.2434 18.2701C17.2434 18.2701 17.2434 18.2701 17.2603 18.253C17.2603 18.253 17.2603 18.253 17.2773 18.253C17.2434 18.1674 17.1587 18.0989 17.074 18.0133C16.9046 17.8592 16.7182 17.6879 16.7182 17.3454C16.7182 17.2941 16.7013 17.2427 16.7013 17.2256C16.7013 17.3112 16.6166 17.3797 16.5319 17.3797C16.4472 17.3797 16.4133 17.3283 16.3963 17.2941C16.3624 17.3112 16.2947 17.3454 16.2269 17.3454C16.193 17.3454 16.1761 17.3454 16.1592 17.3454C16.1422 17.3283 16.1083 17.3283 16.0744 17.2941C15.8203 17.4653 15.5832 17.5852 15.2613 17.5852Z" fill="white"/>
<path d="M17.2942 17.9964C17.2604 17.945 17.2434 17.9108 17.2265 17.8594C17.2095 17.8252 17.2095 17.7738 17.2265 17.7396C17.1418 17.7224 17.0909 17.7224 17.074 17.7738C17.074 17.7909 17.0571 17.808 17.0571 17.8252C17.0062 17.7738 16.9893 17.7396 16.9893 17.7053C16.9893 17.6882 16.9893 17.6882 16.9893 17.6711C17.0062 17.6197 17.0571 17.5854 17.1079 17.5854C17.074 17.5341 17.0232 17.5169 16.9724 17.5169C16.9385 17.5169 16.9215 17.5341 16.9046 17.5512C16.9046 17.5341 16.9046 17.5169 16.9046 17.4998C16.9046 17.4656 16.9215 17.4313 16.9215 17.4142C16.9215 17.4142 16.8876 17.3971 16.8707 17.3971C16.8707 17.38 16.8538 17.3457 16.8538 17.3115C16.8538 17.3286 16.8707 17.3286 16.8707 17.3457C16.8876 17.38 16.9385 17.3971 16.9724 17.3971C17.0571 17.3971 17.1248 17.3115 17.1248 17.2259C17.1248 17.106 17.0401 17.0375 16.9385 17.0375C16.8368 17.0375 16.7691 17.106 16.7521 17.1574C16.7352 17.1402 16.7352 17.1231 16.7013 17.1231C16.6674 17.106 16.6335 17.106 16.5996 17.106C16.5658 17.0546 16.498 17.0375 16.4133 17.0546C16.3286 17.0717 16.2269 17.1402 16.1422 17.1402C16.1592 17.1402 16.1931 17.1231 16.21 17.1231C16.1931 17.1231 16.1931 17.1231 16.1422 17.1402C16.1422 17.1402 16.1422 17.1402 16.1253 17.1402C16.1084 17.1402 16.1084 17.1231 16.0914 17.106C16.1084 17.0889 16.1084 17.0889 16.1084 17.0889C16.1253 17.0889 16.1422 17.106 16.1761 17.106C16.1931 17.106 16.21 17.0889 16.2269 17.0889C16.21 17.0889 16.1931 17.0889 16.1761 17.106C16.1592 17.106 16.1592 17.106 16.1422 17.106H16.1253L16.1422 17.0889C16.1592 17.0889 16.1931 17.0889 16.21 17.0717C16.2269 17.0717 16.2269 17.0546 16.2269 17.0375C16.2269 17.0204 16.2439 17.0204 16.2608 17.0032C16.2608 17.0032 16.2778 17.0032 16.2778 16.9861H16.2608C16.2269 17.0032 16.2269 17.0032 16.21 17.0204C16.1931 17.0375 16.1761 17.0546 16.1592 17.0546L16.1761 17.0375C16.1761 17.0375 16.1422 17.0375 16.1253 17.0717C16.1253 17.0889 16.1084 17.0889 16.1084 17.0889C16.1084 17.0889 16.1084 17.0889 16.1253 17.0717C16.1084 17.0717 16.1084 17.0889 16.0914 17.0889C16.0745 17.0717 16.0745 17.0717 16.0575 17.0546C16.0745 17.0375 16.0745 17.0204 16.0745 17.0032C16.0745 17.0032 16.0745 16.9861 16.0745 16.969C16.1422 16.9176 16.2439 16.8491 16.3794 16.8149C16.2778 16.832 16.1253 16.8834 15.9898 17.0032H15.9728L15.9559 16.9861C16.0406 16.9176 16.1422 16.8663 16.1931 16.8491H16.1761C16.1422 16.8663 15.9898 16.9005 15.8881 16.9861C15.8712 17.0032 15.8542 17.0204 15.8373 17.0375C15.8034 17.0717 15.7695 17.106 15.7187 17.1231C15.7187 17.1231 15.7187 17.1231 15.7018 17.1231C15.7018 17.1231 15.7018 17.1231 15.6848 17.1231C15.6848 17.1231 15.6848 17.1231 15.6679 17.1231C15.6679 17.1231 15.6679 17.1231 15.6509 17.1231C15.6509 17.1231 15.6509 17.1231 15.634 17.1231C15.634 17.1231 15.634 17.1231 15.6171 17.1231C15.6171 17.1231 15.6171 17.1231 15.6001 17.1231C15.5493 17.1574 15.4985 17.1745 15.4476 17.1916C15.3629 17.2259 15.2782 17.243 15.1766 17.243C14.9394 17.243 14.7531 17.1574 14.5667 17.0032C14.4989 16.9348 14.4651 16.8491 14.4481 16.7806C14.4481 16.8149 14.482 16.9005 14.5159 16.969C14.4989 16.9519 14.4989 16.9519 14.482 16.9348L14.5498 16.9861C14.4989 16.8663 14.482 16.7121 14.482 16.6265C14.482 16.6094 14.482 16.5923 14.482 16.5923C14.482 16.5923 14.482 16.6265 14.482 16.6437C14.482 16.7464 14.482 16.832 14.5159 16.9348C14.4651 16.9005 14.4312 16.8663 14.3973 16.832C14.3634 16.8149 14.3126 16.7806 14.2956 16.7806C14.3634 16.8149 14.4142 16.8663 14.5328 16.969C14.5328 16.969 14.5328 16.9861 14.5498 16.9861L14.5328 17.0032C14.4989 16.969 14.4651 16.9519 14.4312 16.9176C14.3126 16.7978 14.194 16.7293 14.0923 16.7121C14.0754 16.7121 14.0754 16.7121 14.0923 16.7121C14.1771 16.7293 14.2956 16.7978 14.4142 16.9348C14.4142 16.9519 14.4142 17.0032 14.4481 17.0375L14.4651 17.0546L14.4481 17.0717C14.4481 17.0546 14.4312 17.0546 14.4312 17.0546C14.4312 17.0546 14.4142 17.0546 14.3973 17.0375C14.3803 17.0204 14.3803 17.0204 14.3634 17.0032V17.0204L14.3465 17.0032C14.3295 16.9861 14.3126 16.969 14.3126 16.969L14.3295 16.9861C14.3126 16.969 14.2956 16.969 14.2787 16.9519C14.2787 16.9348 14.2787 16.9348 14.2279 16.9005C14.2279 16.9005 14.2109 16.8834 14.2109 16.9005C14.2109 16.9005 14.194 16.9005 14.2279 16.9176C14.2448 16.9176 14.2618 16.9348 14.2618 16.9519V16.969C14.2618 16.9861 14.2956 16.9861 14.2956 16.9861C14.3126 16.9861 14.3295 17.0032 14.3465 17.0032L14.3634 17.0204H14.3803H14.3634H14.3465C14.3295 17.0204 14.3126 17.0032 14.2956 17.0032C14.2787 16.9861 14.2618 16.9861 14.2279 16.9861C14.2448 17.0032 14.2787 17.0204 14.2787 17.0204C14.3126 17.0546 14.3465 17.0375 14.3465 17.0375H14.3634C14.3803 17.0375 14.3973 17.0375 14.3973 17.0546C14.3973 17.0546 14.4312 17.0889 14.4312 17.0717C14.4142 17.0889 14.3973 17.0889 14.3465 17.0717C14.3126 17.0546 14.2956 17.0546 14.2787 17.0546C14.2618 17.0546 14.2787 17.0546 14.2787 17.0546C14.2956 17.0546 14.3126 17.0717 14.3295 17.0717C14.3465 17.0889 14.3634 17.0889 14.3973 17.0889C14.4142 17.0889 14.4142 17.0889 14.4312 17.0889C14.4142 17.106 14.4142 17.106 14.3973 17.106C14.3803 17.106 14.3634 17.0889 14.3465 17.0889C14.3465 17.0889 14.3634 17.0889 14.3634 17.106C14.3634 17.106 14.3634 17.106 14.3803 17.1231C14.2956 17.1231 14.194 17.0546 14.1093 17.0375C14.0246 17.0204 13.9568 17.0375 13.9229 17.0889C13.8891 17.0717 13.8552 17.0889 13.8213 17.0889C13.8043 17.106 13.7874 17.106 13.7705 17.1231C13.7366 17.0717 13.6858 17.0032 13.5841 17.0032C13.4825 17.0032 13.3978 17.0717 13.3978 17.1916C13.3978 17.2772 13.4655 17.3628 13.5502 17.3628C13.5841 17.3628 13.6349 17.3457 13.6519 17.3115C13.6688 17.2943 13.6688 17.2943 13.6688 17.2772C13.6688 17.3115 13.6688 17.3457 13.6519 17.3628C13.6349 17.3628 13.618 17.3628 13.6011 17.38C13.618 17.4142 13.618 17.4313 13.618 17.4656C13.618 17.4827 13.618 17.4998 13.618 17.5169C13.6011 17.4998 13.5841 17.4827 13.5502 17.4827C13.4994 17.4656 13.4486 17.4998 13.4147 17.5512C13.4655 17.5683 13.5163 17.5854 13.5333 17.6368C13.5333 17.6539 13.5333 17.6539 13.5333 17.6711C13.5333 17.7053 13.5163 17.7567 13.4655 17.7909C13.4655 17.7738 13.4655 17.7567 13.4486 17.7396C13.4147 17.6882 13.3639 17.6711 13.2961 17.7053C13.3131 17.7396 13.3131 17.7909 13.2961 17.8252C13.2792 17.8594 13.2622 17.9108 13.2283 17.9622C13.1436 18.0991 13.042 18.2704 13.042 18.5957C13.042 18.7498 13.0759 18.8868 13.1606 19.0067C13.2283 19.1094 13.33 19.195 13.4316 19.2464C13.6011 19.332 13.8043 19.332 13.9399 19.2293C14.0076 19.2807 14.1093 19.2807 14.1601 19.2122H16.3794C16.4472 19.2807 16.5319 19.2807 16.5996 19.2293C16.7352 19.332 16.9215 19.332 17.1079 19.2464C17.2095 19.195 17.3112 19.1094 17.3789 19.0067C17.4467 18.8868 17.4975 18.7498 17.4975 18.5957C17.4806 18.3217 17.362 18.1334 17.2942 17.9964ZM16.1931 17.1916C16.2608 17.1745 16.3286 17.1402 16.4302 17.106C16.4811 17.0889 16.5149 17.0889 16.5488 17.106C16.5827 17.1231 16.5996 17.1402 16.6166 17.1574C16.6335 17.1916 16.6335 17.2259 16.6166 17.2601C16.5996 17.2943 16.5488 17.3286 16.4811 17.3286C16.5488 17.3457 16.5996 17.3115 16.6335 17.2772C16.6335 17.3286 16.5827 17.3628 16.5149 17.38C16.4302 17.38 16.3964 17.3457 16.3964 17.2943C16.3964 17.2772 16.3964 17.2601 16.4133 17.243C16.4133 17.243 16.3964 17.2601 16.3794 17.2772C16.2778 17.3286 16.1761 17.3457 16.1592 17.3286C16.1592 17.3115 16.1761 17.3115 16.1931 17.2943C16.2439 17.2772 16.3116 17.2601 16.3625 17.2259C16.3286 17.243 16.2608 17.2601 16.2269 17.2601C16.1931 17.2259 16.21 17.2087 16.1931 17.1916ZM16.1761 17.2087C16.1931 17.2259 16.1761 17.243 16.1422 17.2601C16.1253 17.2772 16.1084 17.2772 16.0914 17.3115L16.0575 17.2772C16.0914 17.243 16.1084 17.2259 16.1253 17.2259C16.1422 17.2087 16.1592 17.1916 16.1761 17.2087ZM16.0575 17.0204C16.0575 17.0375 16.0575 17.0546 16.0575 17.0717L16.0236 17.0546C16.0406 17.0375 16.0575 17.0204 16.0575 17.0204ZM14.4481 17.0546C14.4312 17.0375 14.4312 17.0032 14.4312 16.9861L14.4651 17.0204C14.4651 17.0375 14.4651 17.0375 14.482 17.0546C14.4651 17.0546 14.4651 17.0546 14.4481 17.0546C14.4481 17.0717 14.4481 17.0546 14.4481 17.0546ZM14.5328 17.0375C14.5498 17.0204 14.5836 17.0375 14.6345 17.0889C14.7531 17.1916 14.9563 17.3457 15.2443 17.3457C15.5493 17.3457 15.7356 17.2087 15.8542 17.0889C15.9051 17.0546 15.9389 17.0204 15.9559 17.0375L16.1253 17.1745C16.1084 17.1916 16.0745 17.2087 16.0406 17.243C15.8373 17.4313 15.5832 17.5683 15.2443 17.5683C14.9225 17.5683 14.6514 17.4313 14.4481 17.243C14.4142 17.2087 14.3803 17.1916 14.3634 17.1745L14.5328 17.0375ZM14.3295 17.2087C14.3465 17.1916 14.3634 17.2087 14.3803 17.2087C14.3973 17.2087 14.4142 17.243 14.4481 17.2601L14.4142 17.2943C14.3973 17.2772 14.3973 17.2601 14.3634 17.243C14.3295 17.243 14.3295 17.2259 14.3295 17.2087ZM13.906 17.1402C13.9229 17.1231 13.9399 17.106 13.9738 17.0889C14.0076 17.0717 14.0415 17.0889 14.0923 17.0889C14.194 17.1231 14.2618 17.1574 14.3295 17.1745C14.3126 17.1916 14.3295 17.2087 14.3295 17.2259C14.2956 17.2259 14.2279 17.2087 14.194 17.1916C14.2279 17.2259 14.2956 17.243 14.3634 17.2601C14.3803 17.2772 14.4142 17.2772 14.3973 17.2943C14.3803 17.3115 14.2787 17.2943 14.1771 17.243C14.1771 17.2259 14.1601 17.2087 14.1432 17.2087C14.1432 17.2259 14.1601 17.243 14.1601 17.2601C14.1601 17.3115 14.1093 17.3457 14.0415 17.3457C13.9738 17.3457 13.9229 17.2943 13.9229 17.243C13.9568 17.2943 14.0076 17.3115 14.0754 17.2943C14.0076 17.2943 13.9568 17.2601 13.9399 17.2259C13.8891 17.2259 13.8891 17.1745 13.906 17.1402ZM14.0246 17.38C14.1093 17.38 14.1432 17.3286 14.1601 17.2943C14.194 17.3115 14.2618 17.3457 14.3295 17.3457C14.3634 17.3457 14.3803 17.3457 14.3973 17.3457C14.4142 17.3286 14.4481 17.3286 14.482 17.2943C14.6853 17.4656 14.9394 17.5854 15.2613 17.5854C15.5832 17.5854 15.8373 17.4656 16.0406 17.2943C16.0745 17.3286 16.1084 17.3457 16.1253 17.3457C16.1422 17.3628 16.1761 17.3628 16.1931 17.3457C16.2608 17.3457 16.3286 17.3115 16.3625 17.2943C16.3794 17.3286 16.4133 17.38 16.498 17.38C16.5827 17.38 16.6674 17.3286 16.6674 17.2259C16.6844 17.243 16.6844 17.2943 16.6844 17.3457C16.6844 17.6711 16.8707 17.8594 17.0571 18.0135C17.1418 18.0991 17.2265 18.1676 17.2604 18.2533H17.2434C17.2434 18.2533 17.2265 18.2533 17.2265 18.2704C17.2095 18.219 17.1756 18.1676 17.074 18.1163L17.0401 18.0991L17.0232 18.1334C17.0062 18.1676 17.0062 18.219 17.0062 18.2533C17.0062 18.2875 17.0232 18.3389 17.0401 18.356C17.0232 18.356 17.0062 18.3731 16.9893 18.3731C16.9554 18.4074 16.9385 18.4416 16.9385 18.493C17.0909 18.4759 17.1756 18.5615 17.2095 18.6642C17.2265 18.6985 17.2265 18.7327 17.2265 18.767C17.2265 18.8355 17.2095 18.9039 17.1587 18.9553C17.1587 18.9211 17.1587 18.9039 17.1587 18.8697C17.1587 18.8526 17.1587 18.8183 17.1587 18.7841C17.1587 18.767 17.1587 18.7498 17.1756 18.7327C17.1756 18.7156 17.1926 18.7156 17.2095 18.6985C17.1756 18.6471 17.1418 18.63 17.0909 18.6471C17.074 18.6471 17.0571 18.6471 17.0401 18.6642C17.0232 18.6471 17.0062 18.6128 16.9554 18.5957L16.9215 18.5786L16.9046 18.63C16.8876 18.6642 16.8876 18.6985 16.8876 18.7327C16.8876 18.7498 16.8876 18.767 16.8876 18.7841C16.8029 18.8012 16.786 18.8697 16.8029 18.9382C16.8538 18.9211 16.8876 18.9211 16.9215 18.9382C16.9554 18.9724 16.9554 19.0238 16.9215 19.0752C16.9046 19.1265 16.8538 19.1265 16.786 19.1265C16.786 19.1094 16.8029 19.0923 16.8029 19.0752C16.8029 19.0581 16.8029 19.0409 16.786 19.0067C16.7691 18.9724 16.7352 18.9382 16.6844 18.9382C16.6505 18.9211 16.5996 18.9382 16.5658 18.9724C16.5149 19.0067 16.5149 19.0752 16.498 19.1094C16.498 19.1094 16.4641 19.0752 16.3964 19.0752H14.1093C14.0415 19.0752 14.0076 19.1094 14.0076 19.1094C14.0076 19.0581 14.0076 19.0067 13.9399 18.9724C13.906 18.9382 13.8552 18.9382 13.8213 18.9382C13.7874 18.9553 13.7535 18.9724 13.7196 19.0067C13.7027 19.0238 13.7027 19.0581 13.7027 19.0752C13.7027 19.0923 13.7027 19.1094 13.7196 19.1265C13.6519 19.1437 13.618 19.1265 13.5841 19.0752C13.5672 19.0409 13.5672 18.9724 13.5841 18.9382C13.618 18.9039 13.6519 18.9211 13.7027 18.9382C13.7196 18.8526 13.7027 18.7841 13.618 18.7841C13.618 18.767 13.618 18.7498 13.618 18.7327C13.618 18.6985 13.618 18.6642 13.6011 18.63L13.5841 18.5786L13.5502 18.5957C13.4994 18.6128 13.4825 18.6471 13.4655 18.6642C13.4486 18.6471 13.4316 18.6471 13.4147 18.6471C13.3808 18.6471 13.33 18.6642 13.2961 18.6985C13.3131 18.6985 13.33 18.7156 13.33 18.7327C13.3469 18.7498 13.3469 18.767 13.3469 18.7841C13.3469 18.8012 13.3469 18.8354 13.3469 18.8697C13.3469 18.9039 13.3469 18.9211 13.3469 18.9553C13.2961 18.9039 13.2792 18.8355 13.2792 18.767C13.2792 18.7327 13.2792 18.6985 13.2961 18.6642C13.33 18.5615 13.4147 18.4759 13.5672 18.493C13.5672 18.4416 13.5502 18.4074 13.5163 18.3731C13.4994 18.356 13.4825 18.356 13.4655 18.356C13.4825 18.3217 13.4994 18.2875 13.4994 18.2533C13.4994 18.2019 13.4825 18.1676 13.4825 18.1334L13.4655 18.0991L13.4316 18.1163C13.33 18.1505 13.2961 18.219 13.2792 18.2704C13.2792 18.2704 13.2792 18.2704 13.2622 18.2533C13.2622 18.2533 13.2622 18.2533 13.2453 18.2533C13.2792 18.1676 13.3639 18.0991 13.4486 18.0135C13.618 17.8594 13.8213 17.6882 13.8213 17.3457C13.8213 17.2943 13.8382 17.243 13.8382 17.2259C13.8552 17.3286 13.9399 17.38 14.0246 17.38ZM13.9399 19.2464C13.9229 19.2293 13.906 19.1779 13.9399 19.1437C13.906 19.1608 13.8891 19.2122 13.906 19.2464C13.7874 19.3492 13.6011 19.3492 13.4316 19.2635C13.33 19.2122 13.2453 19.1265 13.1775 19.0238C13.1098 18.9039 13.0759 18.7841 13.0759 18.63C13.0759 18.3217 13.1775 18.1334 13.2622 18.0135C13.3131 17.9279 13.3639 17.8594 13.3469 17.7738C13.3808 17.7738 13.4147 17.7738 13.4316 17.808C13.4486 17.8423 13.4316 17.9108 13.3978 17.945C13.5672 17.8252 13.5841 17.7396 13.5672 17.6711C13.5502 17.6197 13.5163 17.5854 13.4825 17.5683C13.4994 17.5512 13.5163 17.5512 13.5502 17.5512C13.5841 17.5512 13.618 17.5854 13.6349 17.6368C13.6688 17.5512 13.6858 17.4998 13.6519 17.4313C13.6688 17.4313 13.6858 17.4313 13.7027 17.4485C13.7196 17.4656 13.7366 17.4998 13.7366 17.5341C13.7366 17.5512 13.7366 17.5683 13.7196 17.5854C13.7366 17.5683 13.7535 17.5341 13.7535 17.5169C13.7535 17.4827 13.7535 17.4485 13.7366 17.4313C13.7196 17.4142 13.7027 17.4142 13.6858 17.3971C13.7027 17.3115 13.6858 17.2259 13.6349 17.1745C13.618 17.1574 13.5841 17.1402 13.5502 17.1402C13.4994 17.1402 13.4486 17.1745 13.4486 17.243C13.4486 17.2772 13.4825 17.3115 13.4994 17.3115C13.5163 17.3115 13.5502 17.3115 13.5672 17.2772C13.5502 17.2943 13.5333 17.2943 13.5163 17.2772C13.4994 17.2772 13.4825 17.243 13.4825 17.2259C13.4825 17.1916 13.4994 17.1574 13.5502 17.1574C13.5841 17.1574 13.618 17.1745 13.6349 17.2259C13.6349 17.2772 13.6011 17.3457 13.5333 17.3457C13.4655 17.3457 13.4147 17.2943 13.4147 17.2087C13.4147 17.1231 13.4655 17.0546 13.5672 17.0546C13.6519 17.0546 13.7196 17.1231 13.7366 17.1745C13.7196 17.2259 13.7196 17.3115 13.7874 17.38C13.7366 17.2772 13.7535 17.1916 13.7874 17.1402C13.8043 17.1231 13.8552 17.0889 13.8891 17.106C13.8891 17.106 13.8552 17.1402 13.8552 17.1574C13.8382 17.1916 13.8213 17.2259 13.8213 17.3115C13.8213 17.6197 13.6349 17.7909 13.4655 17.945C13.3808 18.0307 13.2792 18.0991 13.2453 18.2019C13.2114 18.2019 13.1945 18.2019 13.1775 18.219C13.2114 18.2704 13.2283 18.356 13.1945 18.4416C13.2283 18.356 13.2453 18.2875 13.2114 18.219C13.2283 18.219 13.2453 18.219 13.2622 18.2361C13.2792 18.2533 13.2961 18.2875 13.2961 18.3217C13.2961 18.3389 13.2961 18.356 13.2792 18.3731C13.2961 18.3389 13.2961 18.3046 13.2961 18.2875C13.2961 18.2361 13.3131 18.1505 13.4316 18.0991C13.4486 18.1334 13.4486 18.1848 13.4486 18.219C13.4486 18.2704 13.4316 18.3046 13.3808 18.356C13.3639 18.3731 13.3469 18.3902 13.3469 18.4074C13.3978 18.356 13.4486 18.3731 13.4825 18.3902C13.4994 18.4074 13.5163 18.4245 13.5163 18.4416C13.3639 18.4416 13.2792 18.5272 13.2453 18.63C13.1945 18.767 13.2453 18.9382 13.3978 19.0238C13.3639 18.9896 13.3639 18.9211 13.3639 18.8526C13.3639 18.7841 13.3808 18.7156 13.33 18.6813C13.3469 18.6642 13.3639 18.6642 13.3808 18.6642C13.4147 18.6642 13.4316 18.6985 13.4316 18.7498V18.767C13.4316 18.7498 13.4316 18.7327 13.4486 18.6985C13.4486 18.6642 13.4825 18.63 13.5502 18.5957C13.5672 18.63 13.5672 18.6642 13.5672 18.6985C13.5672 18.7327 13.5672 18.7498 13.5502 18.767C13.5333 18.7841 13.5333 18.8012 13.5163 18.8183C13.5502 18.767 13.6011 18.767 13.6349 18.7841C13.6519 18.8012 13.6688 18.8183 13.6519 18.8526C13.6011 18.8355 13.5672 18.8526 13.5502 18.8868C13.5163 18.9382 13.4994 19.0067 13.5333 19.0581C13.5502 19.0923 13.6011 19.1437 13.7196 19.1265C13.7196 19.1265 13.7196 19.1265 13.7366 19.1437C13.7535 19.1608 13.7705 19.1608 13.7874 19.1608C13.8382 19.1608 13.8721 19.1265 13.8721 19.0752C13.8721 19.0581 13.8721 19.0409 13.8552 19.0238C13.8382 19.0067 13.8043 18.9896 13.7705 19.0067C13.7874 19.0067 13.8213 19.0067 13.8213 19.0238V19.0409C13.8213 19.0752 13.8043 19.0923 13.7705 19.0923C13.7535 19.0923 13.7366 19.0923 13.7196 19.0752C13.6858 19.0581 13.6858 19.0067 13.7027 18.9553C13.7196 18.9211 13.7366 18.9039 13.7705 18.9039C13.8043 18.9039 13.8382 18.9039 13.8552 18.9211C13.906 18.9553 13.906 19.0067 13.906 19.0581C13.906 19.1265 13.9568 19.1779 14.0246 19.1779C14.0585 19.2807 13.9907 19.2978 13.9399 19.2464ZM16.3794 19.2293H14.1262C14.0754 19.2293 14.0585 19.2293 14.0246 19.195C14.0076 19.1779 14.0076 19.1779 14.0076 19.1608C14.0076 19.1608 14.0246 19.1265 14.1093 19.1265H16.3794C16.4641 19.1265 16.4811 19.1608 16.4811 19.1608C16.4811 19.1779 16.4641 19.1779 16.4641 19.195C16.4641 19.2293 16.4302 19.2293 16.3794 19.2293ZM17.3281 19.0238C17.2604 19.1265 17.1756 19.2122 17.074 19.2635C16.9046 19.3492 16.7352 19.3492 16.5996 19.2464C16.6166 19.2122 16.5996 19.1779 16.5658 19.1437C16.5996 19.1779 16.5827 19.2293 16.5658 19.2464C16.5149 19.2978 16.4472 19.2807 16.4133 19.2635C16.498 19.2635 16.5319 19.2122 16.5319 19.1437C16.5319 19.0923 16.5319 19.0409 16.5827 19.0067C16.6166 18.9896 16.6505 18.9724 16.6674 18.9896C16.7013 18.9896 16.7182 19.0238 16.7352 19.0409C16.7521 19.0923 16.7352 19.1265 16.7182 19.1608C16.7013 19.1779 16.6844 19.1779 16.6674 19.1779C16.6335 19.1779 16.6166 19.1608 16.6166 19.1265C16.6166 19.1094 16.6166 19.1094 16.6166 19.1094C16.6335 19.0923 16.6505 19.0923 16.6674 19.0923C16.6505 19.0752 16.5996 19.0752 16.5827 19.1094C16.5658 19.1265 16.5658 19.1437 16.5658 19.1608C16.5658 19.2122 16.5996 19.2464 16.6505 19.2464C16.6674 19.2464 16.6844 19.2464 16.7013 19.2293C16.7013 19.2293 16.7013 19.2293 16.7182 19.2122C16.8368 19.2293 16.8876 19.1779 16.9046 19.1437C16.9385 19.0923 16.9385 19.0067 16.8876 18.9724C16.8538 18.9382 16.8199 18.9382 16.786 18.9382C16.786 18.9211 16.786 18.8868 16.8029 18.8697C16.8368 18.8526 16.8876 18.8526 16.9215 18.9039C16.9046 18.8868 16.9046 18.8697 16.8876 18.8526C16.8707 18.8355 16.8707 18.8012 16.8707 18.7841C16.8707 18.7498 16.8707 18.7327 16.8876 18.6813C16.9385 18.7156 16.9724 18.7498 16.9893 18.7841C16.9893 18.8012 16.9893 18.8183 17.0062 18.8526C17.0062 18.8355 17.0062 18.8355 17.0062 18.8355C17.0062 18.7841 17.0232 18.7498 17.0571 18.7498C17.074 18.7498 17.0909 18.7498 17.1079 18.767C17.0571 18.8012 17.074 18.8697 17.074 18.9382C17.074 19.0067 17.0909 19.0923 17.0401 19.1094C17.1926 19.0238 17.2265 18.8354 17.1926 18.7156C17.1587 18.6128 17.074 18.5101 16.9215 18.5272C16.9215 18.5101 16.9385 18.493 16.9554 18.4759C16.9893 18.4587 17.0401 18.4416 17.0909 18.493C17.074 18.4759 17.074 18.4587 17.0571 18.4416C17.0062 18.3902 16.9893 18.3731 16.9893 18.3046C16.9893 18.2704 17.0062 18.219 17.0062 18.1848C17.1248 18.2361 17.1418 18.3217 17.1418 18.3731C17.1418 18.3902 17.1418 18.4245 17.1587 18.4587C17.1587 18.4416 17.1418 18.4245 17.1418 18.4074C17.1418 18.3731 17.1587 18.3389 17.1756 18.3217C17.1926 18.3046 17.2095 18.3046 17.2265 18.3046C17.2095 18.3731 17.2095 18.4416 17.2434 18.5272C17.2265 18.4245 17.2265 18.3389 17.2604 18.3046C17.2434 18.2875 17.2095 18.2875 17.1926 18.2875C17.1587 18.2019 17.074 18.1163 16.9724 18.0307C16.8029 17.8765 16.6166 17.7224 16.6166 17.3971C16.6166 17.3115 16.5996 17.2772 16.5827 17.243C16.5827 17.2259 16.5488 17.2087 16.5488 17.1916C16.5827 17.1745 16.6335 17.1916 16.6505 17.2259C16.6844 17.2601 16.7013 17.3628 16.6505 17.4656C16.7182 17.3971 16.7182 17.2943 16.7013 17.2601C16.7182 17.2087 16.7691 17.1402 16.8707 17.1402C16.9724 17.1402 17.0232 17.2087 17.0232 17.2943C17.0232 17.3628 16.9724 17.4313 16.9046 17.4313C16.8368 17.4313 16.786 17.38 16.8029 17.3115C16.8029 17.2601 16.8368 17.243 16.8876 17.243C16.9215 17.243 16.9554 17.2772 16.9554 17.3115C16.9554 17.3286 16.9385 17.3457 16.9215 17.3628C16.9046 17.3628 16.8876 17.3628 16.8707 17.3628C16.8876 17.38 16.9046 17.3971 16.9385 17.3971C16.9554 17.3971 16.9893 17.3628 16.9893 17.3286C16.9893 17.2601 16.9385 17.2259 16.8876 17.2259C16.8538 17.2259 16.8368 17.243 16.8029 17.2601C16.7521 17.3115 16.7352 17.4142 16.7521 17.4827C16.7352 17.4827 16.7182 17.4998 16.7013 17.5169C16.6844 17.5341 16.6674 17.5683 16.6844 17.6026C16.6844 17.6197 16.7013 17.6539 16.7182 17.6711C16.7182 17.6539 16.7013 17.6368 16.7013 17.6197C16.7013 17.5854 16.7182 17.5512 16.7352 17.5341C16.7521 17.5169 16.7691 17.5169 16.786 17.5169C16.7521 17.5854 16.7691 17.6368 16.8029 17.7224C16.8199 17.6711 16.8368 17.6368 16.8876 17.6368C16.9046 17.6368 16.9385 17.6368 16.9554 17.6539C16.9215 17.6711 16.8876 17.7053 16.8707 17.7567C16.8538 17.8252 16.8707 17.9279 17.0401 18.0307C16.9893 17.9964 16.9724 17.9279 17.0062 17.8937C17.0232 17.8594 17.0401 17.8594 17.0909 17.8594C17.074 17.945 17.1079 18.0135 17.1756 18.0991C17.2604 18.219 17.362 18.4074 17.362 18.7156C17.4467 18.7841 17.3959 18.9211 17.3281 19.0238ZM17.2265 18.4759C17.2773 18.5786 17.3112 18.6813 17.3112 18.767C17.3112 18.8183 17.2942 18.8868 17.2773 18.9382C17.2095 19.0923 17.0401 19.195 16.9385 19.2293C16.9893 19.195 17.0401 19.1094 17.0401 19.0067C17.0401 18.9724 17.0401 18.9382 17.0232 18.8868C17.074 19.1265 16.9385 19.2122 16.8707 19.2464C16.8876 19.2464 16.9215 19.2464 16.9554 19.2464C17.074 19.2122 17.2265 19.1265 17.2942 18.9896C17.3281 18.9211 17.362 18.8354 17.3451 18.7327C17.3281 18.6642 17.3112 18.5786 17.2265 18.4759ZM16.2439 19.1608H14.2618C14.2618 19.1608 14.1093 19.1608 14.1093 19.1779C14.1093 19.195 14.2448 19.195 14.2618 19.195H16.2269C16.2269 19.195 16.3794 19.195 16.3794 19.1779C16.3794 19.1608 16.2439 19.1608 16.2439 19.1608ZM16.5488 17.243C16.5827 17.2087 16.5827 17.1745 16.5658 17.1402C16.5488 17.106 16.498 17.106 16.4472 17.1231C16.4811 17.1231 16.498 17.1231 16.5149 17.1231C16.5319 17.1231 16.5319 17.1402 16.5319 17.1402V17.1574C16.4472 17.1745 16.3964 17.2087 16.3794 17.2087C16.4133 17.2943 16.498 17.2772 16.5488 17.243ZM13.2283 18.1334C13.3469 17.9964 13.6011 17.8765 13.6688 17.6197C13.6011 17.8594 13.4147 17.9279 13.2961 18.0649C13.3808 17.9279 13.3808 17.8765 13.3808 17.8423C13.3469 17.945 13.2792 18.0135 13.2283 18.1334C13.2283 18.1505 13.2283 18.1505 13.2283 18.1334ZM13.4994 18.9039C13.4825 18.9382 13.4655 18.9724 13.4655 19.0238C13.4655 19.1265 13.5163 19.2122 13.5672 19.2464C13.4655 19.2293 13.3131 19.1265 13.2283 18.9553C13.2114 18.9039 13.1945 18.8354 13.1945 18.7841C13.1945 18.6813 13.2283 18.5957 13.2961 18.493C13.2114 18.5957 13.1945 18.6813 13.1775 18.7498C13.1606 18.8526 13.1945 18.9382 13.2283 19.0067C13.3131 19.1437 13.4486 19.2464 13.5672 19.2635C13.6011 19.2635 13.6349 19.2807 13.6519 19.2635C13.5841 19.2293 13.4486 19.1437 13.4994 18.9039ZM17.1418 17.8423C17.1418 17.8765 17.1248 17.9108 17.2095 18.0649C17.074 17.9279 16.9046 17.8594 16.8368 17.6197C16.8876 17.8937 17.1587 17.9964 17.2773 18.1334C17.2265 18.0135 17.1587 17.945 17.1418 17.8423ZM13.9568 17.243C14.0076 17.2772 14.0923 17.2943 14.1093 17.243C14.0923 17.243 14.0246 17.1916 13.9568 17.1916V17.1745C13.9568 17.1574 13.9738 17.1574 13.9738 17.1574C13.9907 17.1574 14.0076 17.1574 14.0415 17.1574C13.9907 17.1402 13.9568 17.1402 13.9229 17.1745C13.9229 17.1745 13.9229 17.2087 13.9568 17.243Z" fill="#272425"/>
<path d="M15.2613 17.5852C14.9394 17.5852 14.6853 17.4653 14.482 17.2941C14.4481 17.3283 14.4142 17.3454 14.3973 17.3454C14.3803 17.3626 14.3464 17.3626 14.3295 17.3454C14.2617 17.3454 14.194 17.3112 14.1601 17.2941C14.1431 17.3283 14.1093 17.3797 14.0246 17.3797C13.9399 17.3797 13.8551 17.3283 13.8551 17.2256C13.8382 17.2427 13.8382 17.2941 13.8382 17.3454C13.8382 17.6708 13.6519 17.8592 13.4655 18.0133C13.3808 18.0989 13.2961 18.1674 13.2622 18.253C13.2622 18.253 13.2622 18.253 13.2791 18.253C13.2791 18.253 13.2961 18.253 13.2961 18.2701C13.313 18.2187 13.3469 18.1674 13.4486 18.116L13.4824 18.0989L13.4994 18.1331C13.5163 18.1674 13.5163 18.2187 13.5163 18.253C13.5163 18.2872 13.4994 18.3386 13.4824 18.3557C13.4994 18.3557 13.5163 18.3729 13.5333 18.3729C13.5671 18.4071 13.5841 18.4413 13.5841 18.4927C13.4316 18.4756 13.3469 18.5612 13.313 18.664C13.2961 18.6982 13.2961 18.7324 13.2961 18.7667C13.2961 18.8352 13.313 18.9037 13.3639 18.955C13.3639 18.9208 13.3639 18.9037 13.3639 18.8694C13.3639 18.8523 13.3639 18.8181 13.3639 18.7838C13.3639 18.7667 13.3639 18.7496 13.3469 18.7324C13.3469 18.7153 13.33 18.7153 13.313 18.6982C13.3469 18.6468 13.3808 18.6297 13.4316 18.6468C13.4486 18.6468 13.4655 18.6468 13.4824 18.664C13.4994 18.6468 13.5163 18.6126 13.5671 18.5955L13.601 18.5783L13.618 18.6297C13.6349 18.6639 13.6349 18.6982 13.6349 18.7324C13.6349 18.7496 13.6349 18.7667 13.6349 18.7838C13.7196 18.8009 13.7366 18.8694 13.7196 18.9379C13.6688 18.9208 13.6349 18.9208 13.601 18.9379C13.5671 18.9722 13.5671 19.0235 13.601 19.0749C13.618 19.1263 13.6688 19.1263 13.7366 19.1263C13.7366 19.1092 13.7196 19.092 13.7196 19.0749C13.7196 19.0578 13.7196 19.0407 13.7366 19.0064C13.7535 18.9722 13.7874 18.9379 13.8382 18.9379C13.8721 18.9208 13.9229 18.9379 13.9568 18.9722C14.0076 19.0064 14.0076 19.0749 14.0246 19.1092C14.0246 19.1092 14.0584 19.0749 14.1262 19.0749H16.4133C16.481 19.0749 16.5149 19.1092 16.5149 19.1092C16.5149 19.0578 16.5149 19.0064 16.5827 18.9722C16.6166 18.9379 16.6674 18.9379 16.7013 18.9379C16.7352 18.955 16.769 18.9722 16.8029 19.0064C16.8199 19.0235 16.8199 19.0578 16.8199 19.0749C16.8199 19.092 16.8199 19.1092 16.8029 19.1263C16.8707 19.1434 16.9046 19.1263 16.9384 19.0749C16.9554 19.0407 16.9554 18.9722 16.9384 18.9379C16.9046 18.9037 16.8707 18.9208 16.8199 18.9379C16.8029 18.8523 16.8199 18.7838 16.9046 18.7838C16.9046 18.7667 16.9046 18.7496 16.9046 18.7324C16.9046 18.6982 16.9215 18.6639 16.9215 18.6297L16.9384 18.5783L16.9723 18.5955C17.0232 18.6126 17.0401 18.6468 17.057 18.664C17.074 18.6468 17.0909 18.6468 17.1079 18.6468C17.1417 18.6468 17.1756 18.6639 17.2264 18.6982C17.2095 18.6982 17.1926 18.7153 17.1926 18.7324C17.1756 18.7496 17.1756 18.7667 17.1756 18.7838C17.1756 18.8009 17.1756 18.8352 17.1756 18.8694C17.1756 18.9037 17.1756 18.9208 17.1756 18.955C17.2264 18.9037 17.2434 18.8352 17.2434 18.7667C17.2434 18.7324 17.2434 18.6982 17.2264 18.664C17.1926 18.5612 17.1079 18.4756 16.9554 18.4927C16.9554 18.4413 16.9723 18.4071 17.0062 18.3729C17.0232 18.3557 17.0401 18.3557 17.057 18.3557C17.0401 18.3215 17.0232 18.2872 17.0232 18.253C17.0232 18.2016 17.0401 18.1674 17.0401 18.1331L17.057 18.0989L17.0909 18.116C17.1926 18.1502 17.2264 18.2187 17.2434 18.2701C17.2434 18.2701 17.2434 18.2701 17.2603 18.253C17.2603 18.253 17.2603 18.253 17.2773 18.253C17.2434 18.1674 17.1587 18.0989 17.074 18.0133C16.9046 17.8592 16.7013 17.6879 16.7013 17.3454C16.7013 17.2941 16.6843 17.2427 16.6843 17.2256C16.6843 17.3112 16.5996 17.3797 16.5149 17.3797C16.4302 17.3797 16.3963 17.3283 16.3794 17.2941C16.3455 17.3112 16.2777 17.3454 16.21 17.3454C16.1761 17.3454 16.1592 17.3454 16.1422 17.3454C16.1253 17.3283 16.0914 17.3283 16.0575 17.2941C15.8203 17.4653 15.5832 17.5852 15.2613 17.5852Z" fill="#C22537"/>
<path d="M16.9049 18.9549C16.8877 18.9377 16.8706 18.9377 16.8706 18.9377C16.8706 18.9377 16.8877 18.9549 16.9049 18.9549Z" fill="#BF232F"/>
<path d="M17.2095 18.7837C17.2095 18.7495 17.2095 18.7152 17.1926 18.681C17.1587 18.5954 17.0909 18.5098 16.9724 18.5098C17.0909 18.5098 17.1587 18.5954 17.1926 18.681C17.2095 18.7152 17.2095 18.7495 17.2095 18.7837Z" fill="#BF232F"/>
<path d="M16.8198 19.161C16.8029 19.161 16.8029 19.161 16.7859 19.161C16.7859 19.1438 16.8029 19.1267 16.8029 19.1096C16.8029 19.0925 16.8029 19.0753 16.7859 19.0411C16.769 19.0068 16.7351 18.9726 16.7012 18.9726C16.6843 18.9726 16.6843 18.9726 16.6674 18.9726C16.6335 18.9726 16.5996 18.9897 16.5826 19.0068C16.5318 19.0411 16.5318 19.1096 16.5149 19.1438C16.5149 19.1438 16.4979 19.1438 16.481 19.1267C16.4641 19.1267 16.4302 19.1096 16.3963 19.1096H14.1092C14.0753 19.1096 14.0415 19.1096 14.0245 19.1267C14.0076 19.1267 13.9906 19.1438 13.9906 19.1438C13.9906 19.0925 13.9906 19.0411 13.9229 19.0068C13.889 18.9897 13.8721 18.9726 13.8382 18.9726C13.8212 18.9726 13.8212 18.9726 13.8043 18.9726C13.7704 18.9897 13.7365 19.0068 13.7026 19.0411C13.6857 19.0582 13.6857 19.0753 13.6857 19.1096C13.6857 19.1267 13.6857 19.1438 13.7026 19.161C13.6857 19.161 13.6857 19.161 13.6688 19.161C13.6179 19.161 13.5841 19.1438 13.5671 19.1096C13.5502 19.0925 13.5502 19.0753 13.5502 19.0411C13.5502 19.0068 13.5502 18.9897 13.5671 18.9726C13.5502 18.9897 13.5502 19.024 13.5502 19.0411C13.5502 19.0582 13.5502 19.0925 13.5671 19.1096C13.5671 19.1096 13.5671 19.1096 13.5671 19.1267C13.5841 19.1438 13.6179 19.161 13.6349 19.161H13.6518C13.6518 19.161 13.6518 19.161 13.6688 19.161H13.6857C13.6857 19.1438 13.6688 19.1267 13.6688 19.1096C13.6688 19.0925 13.6688 19.0753 13.6857 19.0411C13.7026 19.0068 13.7365 18.9726 13.7873 18.9726H13.8043C13.8212 18.9726 13.8382 18.9726 13.8551 18.9897C13.8551 18.9897 13.8721 18.9897 13.8721 19.0068C13.8721 19.0068 13.8721 19.0068 13.889 19.0068C13.9398 19.0411 13.9398 19.1096 13.9568 19.1438C13.9568 19.1438 13.9906 19.1096 14.0584 19.1096H16.3455C16.4132 19.1096 16.4471 19.1438 16.4471 19.1438C16.4471 19.0925 16.4471 19.0411 16.5149 19.0068C16.5488 18.9897 16.5657 18.9726 16.5996 18.9726C16.6165 18.9726 16.6165 18.9726 16.6335 18.9726C16.6674 18.9897 16.7012 19.0068 16.7351 19.0411C16.7521 19.0582 16.7521 19.0925 16.7521 19.1096C16.7521 19.1267 16.7521 19.1438 16.7351 19.161C16.7859 19.161 16.8029 19.161 16.8198 19.161C16.8706 19.161 16.9045 19.1438 16.9215 19.1096C16.9384 19.0925 16.9384 19.0753 16.9384 19.0411C16.9384 19.0068 16.9384 18.9897 16.9215 18.9726C16.9045 18.9555 16.8876 18.9555 16.8876 18.9555C16.8706 18.9555 16.8706 18.9555 16.8537 18.9555C16.8368 18.9555 16.8368 18.9555 16.8198 18.9726C16.8198 18.9555 16.8198 18.9383 16.8198 18.9212C16.8198 18.8699 16.8537 18.8185 16.9045 18.8185C16.9045 18.8014 16.9045 18.7842 16.9045 18.7671C16.9045 18.7329 16.9215 18.6986 16.9215 18.6644L16.9384 18.613L16.9723 18.6301C17.0231 18.6472 17.0401 18.6815 17.057 18.6986C17.0739 18.6815 17.0909 18.6815 17.1078 18.6815C17.1078 18.6815 17.1078 18.6815 17.1248 18.6815C17.1248 18.6815 17.1248 18.6815 17.1417 18.6815H17.1586C17.1756 18.6815 17.2095 18.6986 17.2264 18.7329C17.2095 18.7329 17.1925 18.75 17.1925 18.7671C17.1756 18.7842 17.1756 18.8014 17.1756 18.8185C17.1756 18.8356 17.1756 18.8699 17.1756 18.9041C17.1756 18.9383 17.1756 18.9555 17.1756 18.9897C17.2264 18.9383 17.2434 18.8699 17.2434 18.8014C17.2434 18.7671 17.2434 18.7329 17.2264 18.6986C17.1925 18.613 17.1248 18.5274 17.0062 18.5274C16.9892 18.5274 16.9892 18.5274 16.9723 18.5274C16.9723 18.5274 16.9723 18.5274 16.9554 18.5274C16.9554 18.476 16.9723 18.4418 17.0062 18.4075C17.0231 18.3904 17.0401 18.3904 17.057 18.3904C17.0401 18.3562 17.0231 18.3219 17.0231 18.2877C17.0231 18.2363 17.0401 18.202 17.0401 18.1678L17.057 18.1335L17.0909 18.1507C17.1925 18.1849 17.2264 18.2534 17.2434 18.3048C17.2434 18.3048 17.2434 18.3048 17.2603 18.2877C17.2603 18.2877 17.2603 18.2877 17.2772 18.2877C17.2434 18.202 17.1586 18.1335 17.0739 18.0479C16.9045 17.8938 16.7012 17.7226 16.7012 17.3801C16.7012 17.3287 16.6843 17.2774 16.6843 17.2603C16.6843 17.3459 16.5996 17.4144 16.5149 17.4144C16.4302 17.4144 16.3963 17.363 16.3794 17.3287C16.3455 17.3459 16.2777 17.3801 16.2099 17.3801H16.193C16.1761 17.3801 16.1591 17.3801 16.1422 17.363C16.1252 17.3459 16.0914 17.3459 16.0575 17.3116C15.8542 17.4829 15.6001 17.6027 15.2782 17.6027C15.6001 17.6027 15.8542 17.4829 16.0575 17.3116C16.0914 17.3459 16.1252 17.363 16.1422 17.363C16.1591 17.363 16.1761 17.3801 16.193 17.3801H16.2099C16.2777 17.3801 16.3455 17.3459 16.3794 17.3287C16.3963 17.363 16.4302 17.4144 16.5149 17.4144C16.5996 17.4144 16.6843 17.363 16.6843 17.2603C16.7012 17.2774 16.7012 17.3287 16.7012 17.3801C16.7012 17.7055 16.8876 17.8938 17.057 18.0479C17.1417 18.1335 17.2264 18.202 17.2603 18.2877C17.2603 18.2877 17.2603 18.2877 17.2434 18.2877C17.2434 18.2877 17.2264 18.2877 17.2264 18.3048C17.2095 18.2534 17.1756 18.202 17.0739 18.1507L17.0401 18.1335L17.0231 18.1678C17.0062 18.202 17.0062 18.2534 17.0062 18.2877C17.0062 18.3219 17.0231 18.3733 17.0401 18.3904C17.0231 18.3904 17.0062 18.4075 16.9892 18.4075C16.9554 18.4418 16.9384 18.476 16.9384 18.5274C16.9554 18.5274 16.9723 18.5274 16.9892 18.5274C17.1248 18.5274 17.1925 18.5959 17.2095 18.6986C17.2264 18.7329 17.2264 18.7671 17.2264 18.8014C17.2264 18.8699 17.2095 18.9383 17.1586 18.9897C17.1586 18.9555 17.1586 18.9383 17.1586 18.9041C17.1586 18.887 17.1586 18.8527 17.1586 18.8185C17.1586 18.8014 17.1586 18.7842 17.1756 18.7671C17.1756 18.75 17.1925 18.75 17.2095 18.7329C17.1756 18.6986 17.1417 18.6815 17.1248 18.6815H17.1078C17.0909 18.6815 17.0739 18.6815 17.057 18.6986C17.0401 18.6815 17.0231 18.6472 16.9723 18.6301L16.9384 18.613L16.9215 18.6644C16.9045 18.6986 16.9045 18.7329 16.9045 18.7671C16.9045 18.7842 16.9045 18.8014 16.9045 18.8185C16.8368 18.8185 16.8198 18.8699 16.8198 18.9212C16.8198 18.9383 16.8198 18.9555 16.8198 18.9726C16.8368 18.9726 16.8706 18.9555 16.8876 18.9555C16.9045 18.9555 16.9215 18.9555 16.9384 18.9726C16.9554 18.9897 16.9554 19.024 16.9554 19.0411C16.9554 19.0582 16.9554 19.0925 16.9384 19.1096C16.8876 19.1438 16.8537 19.161 16.8198 19.161Z" fill="#030F1C"/>
<path d="M17.1417 18.9724C17.1417 18.9381 17.1417 18.921 17.1417 18.8868C17.1417 18.8696 17.1417 18.8354 17.1417 18.8011C17.1417 18.784 17.1417 18.7669 17.1587 18.7498C17.1587 18.7327 17.1756 18.7327 17.1926 18.7155C17.1756 18.6813 17.1417 18.6642 17.1248 18.6642H17.1079C17.1079 18.6642 17.1079 18.6642 17.0909 18.6642C17.0909 18.6642 17.0909 18.6642 17.074 18.6642H17.0909C17.1248 18.6642 17.1587 18.6813 17.1926 18.7155C17.1756 18.7155 17.1587 18.7327 17.1587 18.7498C17.1417 18.7669 17.1417 18.784 17.1417 18.8011C17.1417 18.8183 17.1417 18.8525 17.1417 18.8868C17.1417 18.921 17.1417 18.9553 17.1417 18.9724C17.1926 18.921 17.2095 18.8525 17.2095 18.784C17.2095 18.7498 17.2095 18.7155 17.1926 18.6813C17.1587 18.5957 17.0909 18.5101 16.9723 18.5101C16.9554 18.5101 16.9384 18.5101 16.9215 18.5101C16.9215 18.4587 16.9384 18.4244 16.9723 18.3902C16.9893 18.3731 17.0062 18.3731 17.0232 18.3731C17.0062 18.3388 16.9893 18.3046 16.9893 18.2703C16.9893 18.219 17.0062 18.1847 17.0062 18.1505L17.0232 18.1162L17.057 18.1333C17.1587 18.1676 17.1926 18.2361 17.2095 18.2874C17.2095 18.2874 17.2095 18.2874 17.2264 18.2703C17.2264 18.2703 17.2265 18.2703 17.2434 18.2703C17.2095 18.1847 17.1248 18.1162 17.0401 18.0306C16.8707 17.8765 16.6674 17.7053 16.6674 17.3628C16.6674 17.3114 16.6504 17.26 16.6504 17.2429C16.6504 17.3285 16.5657 17.397 16.481 17.397C16.3963 17.397 16.3624 17.3457 16.3455 17.3114C16.3116 17.3285 16.2439 17.3628 16.1761 17.3628H16.1592C16.1422 17.3628 16.1253 17.3628 16.1083 17.3457C16.0914 17.3285 16.0575 17.3285 16.0236 17.2943C15.8203 17.4655 15.5662 17.5854 15.2443 17.5854C15.5662 17.5854 15.8203 17.4655 16.0236 17.2943C16.0575 17.3285 16.0914 17.3457 16.1083 17.3457C16.1253 17.3457 16.1422 17.3628 16.1592 17.3628H16.1761C16.2439 17.3628 16.3116 17.3285 16.3455 17.3114C16.3624 17.3457 16.3963 17.397 16.481 17.397C16.5657 17.397 16.6504 17.3457 16.6504 17.2429C16.6674 17.26 16.6674 17.3114 16.6674 17.3628C16.6674 17.6881 16.8537 17.8765 17.0401 18.0306C17.1248 18.1162 17.2095 18.1847 17.2434 18.2703H17.2264C17.2264 18.2703 17.2095 18.2703 17.2095 18.2874C17.1926 18.2361 17.1587 18.1847 17.057 18.1333L17.0232 18.1162L17.0062 18.1505C16.9893 18.1847 16.9893 18.2361 16.9893 18.2703C16.9893 18.3046 17.0062 18.3559 17.0232 18.3731C17.0062 18.3731 16.9893 18.3902 16.9723 18.3902C16.9384 18.4244 16.9215 18.4587 16.9215 18.5101C16.9215 18.5101 16.9215 18.5101 16.9384 18.5101C16.9554 18.5101 16.9554 18.5101 16.9723 18.5101C17.0909 18.5101 17.1587 18.5957 17.1926 18.6813C17.2095 18.7155 17.2095 18.7498 17.2095 18.784C17.2095 18.8525 17.1926 18.921 17.1417 18.9724ZM16.8199 19.1607C16.8029 19.1607 16.8029 19.1607 16.786 19.1607C16.786 19.1436 16.8029 19.1265 16.8029 19.1094C16.8029 19.0922 16.8029 19.0751 16.786 19.0409C16.769 19.0066 16.7352 18.9724 16.6843 18.9724C16.6674 18.9724 16.6674 18.9724 16.6504 18.9724C16.6166 18.9724 16.5996 18.9895 16.5657 19.0066C16.5149 19.0409 16.5149 19.1094 16.498 19.1436C16.498 19.1436 16.4641 19.1094 16.3963 19.1094H14.1093C14.0415 19.1094 14.0076 19.1436 14.0076 19.1436C14.0076 19.0922 14.0076 19.0409 13.9399 19.0066C13.9399 19.0066 13.9399 19.0066 13.9229 19.0066L13.906 18.9895C13.889 18.9895 13.8721 18.9724 13.8551 18.9724H13.8382C13.8043 18.9895 13.7704 19.0066 13.7366 19.0409C13.7196 19.058 13.7196 19.0922 13.7196 19.1094C13.7196 19.1265 13.7196 19.1436 13.7366 19.1607H13.7196C13.7196 19.1607 13.7196 19.1607 13.7027 19.1607H13.6857C13.6519 19.1607 13.6349 19.1436 13.618 19.1265C13.618 19.1265 13.618 19.1265 13.618 19.1094C13.601 19.0922 13.601 19.0751 13.601 19.0409C13.601 19.0066 13.601 18.9895 13.618 18.9724C13.6349 18.9553 13.6349 18.9553 13.6519 18.9553C13.6519 18.9553 13.6519 18.9553 13.6688 18.9553H13.6857C13.6857 18.9553 13.7027 18.9553 13.7196 18.9553C13.7196 18.9381 13.7196 18.921 13.7196 18.9039C13.7196 18.8525 13.6857 18.8011 13.6349 18.8011C13.6349 18.784 13.6349 18.7669 13.6349 18.7498C13.6349 18.7155 13.6349 18.6813 13.618 18.647L13.601 18.5957L13.5671 18.6128C13.5163 18.6299 13.4994 18.6642 13.4824 18.6813C13.4655 18.6642 13.4486 18.6642 13.4316 18.6642H13.4147C13.3977 18.6642 13.3808 18.6642 13.3639 18.6813C13.3639 18.6813 13.3469 18.6813 13.3469 18.6984L13.33 18.7155C13.3469 18.7155 13.3639 18.7327 13.3639 18.7498C13.3808 18.7669 13.3808 18.784 13.3808 18.8011C13.3808 18.8183 13.3808 18.8525 13.3808 18.8868C13.3808 18.921 13.3808 18.9381 13.3808 18.9724C13.33 18.921 13.313 18.8525 13.313 18.784C13.313 18.7498 13.313 18.7155 13.33 18.6813C13.3639 18.5957 13.4316 18.5101 13.5502 18.5101C13.5502 18.5101 13.5502 18.5101 13.5671 18.5101C13.5841 18.5101 13.5841 18.5101 13.601 18.5101C13.601 18.4587 13.5841 18.4244 13.5502 18.3902C13.5333 18.3731 13.5163 18.3731 13.4994 18.3731C13.5163 18.3388 13.5333 18.3046 13.5333 18.2703C13.5333 18.219 13.5163 18.1847 13.5163 18.1505L13.4994 18.1162L13.4655 18.1333C13.3639 18.1676 13.33 18.2361 13.313 18.2874C13.313 18.2874 13.313 18.2874 13.2961 18.2703C13.2961 18.2703 13.2961 18.2703 13.2791 18.2703C13.313 18.1847 13.3977 18.1162 13.4824 18.0306C13.6519 17.8765 13.8551 17.7053 13.8551 17.3628C13.8551 17.3114 13.8721 17.26 13.8721 17.2429C13.8721 17.3285 13.9568 17.397 14.0415 17.397C14.1262 17.397 14.1601 17.3457 14.177 17.3114C14.2109 17.3285 14.2787 17.3628 14.3464 17.3628C14.3634 17.3628 14.3803 17.3628 14.3973 17.3457C14.4142 17.3285 14.4481 17.3285 14.482 17.2943C14.6853 17.4655 14.9394 17.5854 15.2613 17.5854C14.9394 17.5854 14.6853 17.4655 14.482 17.2943C14.4481 17.3285 14.4142 17.3457 14.3973 17.3457C14.3803 17.3457 14.3634 17.3628 14.3464 17.3628H14.3295C14.2617 17.3628 14.194 17.3285 14.1601 17.3114C14.1431 17.3457 14.1093 17.397 14.0246 17.397C13.9399 17.397 13.8551 17.3457 13.8551 17.2429C13.8382 17.26 13.8382 17.3114 13.8382 17.3628C13.8382 17.6881 13.6519 17.8765 13.4655 18.0306C13.3808 18.1162 13.2961 18.1847 13.2622 18.2703C13.2622 18.2703 13.2622 18.2703 13.2791 18.2703C13.2791 18.2703 13.2961 18.2703 13.2961 18.2874C13.313 18.2361 13.3469 18.1847 13.4486 18.1333L13.4824 18.1162L13.4994 18.1505C13.5163 18.1847 13.5163 18.2361 13.5163 18.2703C13.5163 18.3046 13.4994 18.3559 13.4824 18.3731C13.4994 18.3731 13.5163 18.3902 13.5333 18.3902C13.5671 18.4244 13.5841 18.4587 13.5841 18.5101C13.5671 18.5101 13.5502 18.5101 13.5333 18.5101C13.3977 18.5101 13.33 18.5785 13.313 18.6813C13.2961 18.7155 13.2961 18.7498 13.2961 18.784C13.2961 18.8525 13.313 18.921 13.3639 18.9724C13.3639 18.9381 13.3639 18.921 13.3639 18.8868C13.3639 18.8696 13.3639 18.8354 13.3639 18.8011C13.3639 18.784 13.3639 18.7669 13.3469 18.7498C13.3469 18.7327 13.33 18.7327 13.313 18.7155C13.3469 18.6813 13.3808 18.6642 13.4147 18.6642H13.4316C13.4486 18.6642 13.4655 18.6642 13.4824 18.6813C13.4994 18.6642 13.5163 18.6299 13.5671 18.6128L13.601 18.5957L13.618 18.647C13.6349 18.6813 13.6349 18.7155 13.6349 18.7498C13.6349 18.7669 13.6349 18.784 13.6349 18.8011C13.7027 18.8011 13.7196 18.8525 13.7196 18.9039C13.7196 18.921 13.7196 18.9381 13.7196 18.9553C13.7027 18.9381 13.6688 18.9381 13.6519 18.9381C13.6349 18.9381 13.618 18.9381 13.601 18.9553C13.5841 18.9724 13.5841 19.0066 13.5841 19.0238C13.5841 19.0409 13.5841 19.0751 13.601 19.0922C13.618 19.1265 13.6519 19.1436 13.7027 19.1436C13.7196 19.1436 13.7196 19.1436 13.7366 19.1436C13.7366 19.1265 13.7196 19.1094 13.7196 19.0922C13.7196 19.0751 13.7196 19.058 13.7366 19.0238C13.7535 18.9895 13.7874 18.9553 13.8382 18.9553C13.8551 18.9553 13.8551 18.9553 13.8721 18.9553C13.906 18.9553 13.9399 18.9724 13.9568 18.9895C14.0076 19.0238 14.0246 19.0922 14.0246 19.1265C14.0246 19.1265 14.0754 19.0922 14.1262 19.0922H16.4133C16.481 19.0922 16.5149 19.1265 16.5149 19.1265C16.5149 19.0751 16.5149 19.0238 16.5827 18.9895C16.6166 18.9724 16.6335 18.9553 16.6674 18.9553C16.6843 18.9553 16.6843 18.9553 16.7013 18.9553C16.7352 18.9724 16.769 18.9895 16.8029 19.0238C16.8199 19.0409 16.8199 19.0751 16.8199 19.0922C16.8199 19.1094 16.8199 19.1265 16.8029 19.1436C16.786 19.1607 16.8029 19.1607 16.8199 19.1607C16.8707 19.1607 16.9046 19.1436 16.9215 19.1094C16.9384 19.0922 16.9384 19.0751 16.9384 19.0409C16.9384 19.0066 16.9384 18.9895 16.9215 18.9724C16.9046 18.9553 16.8876 18.9553 16.8707 18.9553C16.8537 18.9553 16.8368 18.9553 16.8029 18.9724C16.8029 18.9553 16.8029 18.9381 16.8029 18.921C16.8029 18.8696 16.8368 18.8183 16.8876 18.8183C16.8876 18.8011 16.8876 18.784 16.8876 18.7669C16.8876 18.7327 16.8876 18.6984 16.9046 18.6642L16.9215 18.6128L16.9554 18.6299C17.0062 18.647 17.0232 18.6813 17.0401 18.6984C17.057 18.6813 17.074 18.6813 17.0909 18.6813C17.074 18.6813 17.057 18.6813 17.0401 18.6984C17.0232 18.6813 17.0062 18.647 16.9554 18.6299L16.9215 18.6128L16.9046 18.6642C16.8876 18.6984 16.8876 18.7327 16.8876 18.7669C16.8876 18.784 16.8876 18.8011 16.8876 18.8183C16.8199 18.8183 16.8029 18.8696 16.8029 18.921C16.8029 18.9381 16.8029 18.9553 16.8029 18.9724C16.8199 18.9724 16.8199 18.9724 16.8368 18.9553C16.8537 18.9553 16.8537 18.9553 16.8707 18.9553C16.8876 18.9553 16.9046 18.9553 16.9046 18.9724C16.9215 18.9895 16.9215 19.0238 16.9215 19.0409C16.9215 19.058 16.9215 19.0922 16.9046 19.1094C16.9046 19.1265 16.8707 19.1436 16.8199 19.1607Z" fill="#C3242F"/>
</svg>
