<svg width="44" height="44" viewBox="0 0 44 44" fill="none" xmlns="http://www.w3.org/2000/svg">
<circle cx="22" cy="22" r="22" fill="#E8EBF7"/>
<g opacity="0.8">
<g opacity="0.3">
<path d="M29.3149 7.09498H20.7899C20.5699 7.09498 20.4049 6.92998 20.4049 6.70998C20.4049 6.48998 20.5699 6.32498 20.7899 6.32498H29.3149C29.5349 6.32498 29.6999 6.48998 29.6999 6.70998C29.6999 6.92998 29.5349 7.09498 29.3149 7.09498Z" fill="#999999"/>
<path d="M18.0949 7.09498H16.4449C16.2249 7.09498 16.0599 6.92998 16.0599 6.70998C16.0599 6.48998 16.2249 6.32498 16.4449 6.32498H18.0949C18.3149 6.32498 18.4799 6.48998 18.4799 6.70998C18.4799 6.92998 18.3149 7.09498 18.0949 7.09498Z" fill="#999999"/>
<path fill-rule="evenodd" clip-rule="evenodd" d="M16.4449 4.50999H17.2149V3.73999H16.4449V4.50999ZM18.6999 4.50999H17.9299V3.73999H18.6999V4.50999ZM19.4149 4.50999H20.1849V3.73999H19.4149V4.50999ZM21.6699 4.50999H20.8999V3.73999H21.6699V4.50999ZM22.3849 4.50999H23.1549V3.73999H22.3849V4.50999ZM23.8699 4.50999H24.6399V3.73999H23.8699V4.50999Z" fill="#999999"/>
</g>
<g opacity="0.3">
<path d="M29.3149 39.765H20.7899C20.5699 39.765 20.4049 39.6 20.4049 39.38C20.4049 39.16 20.5699 38.995 20.7899 38.995H29.3149C29.5349 38.995 29.6999 39.16 29.6999 39.38C29.6999 39.6 29.5349 39.765 29.3149 39.765Z" fill="#999999"/>
<path d="M18.0949 39.765H16.4449C16.2249 39.765 16.0599 39.6 16.0599 39.38C16.0599 39.16 16.2249 38.995 16.4449 38.995H18.0949C18.3149 38.995 18.4799 39.16 18.4799 39.38C18.4799 39.6 18.3149 39.765 18.0949 39.765Z" fill="#999999"/>
<path fill-rule="evenodd" clip-rule="evenodd" d="M16.4449 37.18H17.2149V36.41H16.4449V37.18ZM18.6999 37.18H17.9299V36.41H18.6999V37.18ZM19.4149 37.18H20.1849V36.41H19.4149V37.18ZM21.6699 37.18H20.8999V36.41H21.6699V37.18ZM22.3849 37.18H23.1549V36.41H22.3849V37.18ZM23.8699 37.18H24.6399V36.41H23.8699V37.18Z" fill="#999999"/>
</g>
</g>
<g opacity="0.2">
<path d="M40.865 20.79H34.375C34.21 20.79 34.1 20.68 34.1 20.515C34.1 20.35 34.21 20.24 34.375 20.24H40.865C41.03 20.24 41.14 20.35 41.14 20.515C41.14 20.625 41.03 20.79 40.865 20.79Z" fill="#999999"/>
<path d="M37.62 19.195H31.13C30.965 19.195 30.855 19.085 30.855 18.92C30.855 18.755 30.965 18.645 31.13 18.645H37.62C37.785 18.645 37.895 18.755 37.895 18.92C37.895 19.085 37.785 19.195 37.62 19.195Z" fill="#999999"/>
<path d="M14.0799 20.79H7.58994C7.42494 20.79 7.31494 20.68 7.31494 20.515C7.31494 20.35 7.42494 20.24 7.58994 20.24H14.0799C14.2449 20.24 14.3549 20.35 14.3549 20.515C14.3549 20.625 14.2449 20.79 14.0799 20.79Z" fill="#999999"/>
<path d="M10.8349 19.195H4.34495C4.17995 19.195 4.06995 19.085 4.06995 18.92C4.06995 18.755 4.17995 18.645 4.34495 18.645H10.8349C10.9999 18.645 11.1099 18.755 11.1099 18.92C11.1099 19.085 10.9999 19.195 10.8349 19.195Z" fill="#999999"/>
</g>
<path d="M14.3 22.275V11.77C14.3 10.835 15.07 10.12 15.95 10.12H28.6C29.535 10.12 30.25 10.89 30.25 11.77V22.33" fill="#CD091C"/>
<path d="M14.3 22.275V32.835C14.3 33.77 15.07 34.485 15.95 34.485H28.6C29.535 34.485 30.25 33.715 30.25 32.835V22.275" fill="#FF0000"/>
<path d="M16.2251 14.08H28.3801V32.395H16.2251V14.08Z" fill="#DFEEF4"/>
<path d="M17.6001 21.23H20.5151V24.145H17.6001V21.23Z" fill="#CD091C"/>
<path d="M17.6001 26.015H20.5151V28.93H17.6001V26.015Z" fill="#CD091C"/>
<path d="M17.6001 16.445H20.5151V19.36H17.6001V16.445Z" fill="#CD091C"/>
<path d="M22.4401 17.875C22.4401 18.04 22.6051 18.205 22.7701 18.205H26.6201C26.7851 18.205 26.9501 18.04 26.9501 17.875C26.9501 17.71 26.7851 17.545 26.6201 17.545H22.7701C22.6051 17.545 22.4401 17.71 22.4401 17.875Z" fill="#FD0E22"/>
<path d="M22.4401 22.715C22.4401 22.88 22.6051 23.045 22.7701 23.045H26.6201C26.7851 23.045 26.9501 22.88 26.9501 22.715C26.9501 22.55 26.7851 22.385 26.6201 22.385H22.7701C22.6051 22.385 22.4401 22.495 22.4401 22.715Z" fill="#FD0E22"/>
<path d="M22.4401 27.5C22.4401 27.665 22.6051 27.83 22.7701 27.83H26.6201C26.7851 27.83 26.9501 27.665 26.9501 27.5C26.9501 27.335 26.7851 27.17 26.6201 27.17H22.7701C22.6051 27.17 22.4401 27.335 22.4401 27.5Z" fill="#FD0E22"/>
<path d="M25.52 14.575V12.1C25.52 11.66 25.135 11.275 24.695 11.275H19.855C19.415 11.275 19.03 11.66 19.03 12.1V14.575H25.52Z" fill="#6EAC34"/>
</svg>
