<svg width="55" height="56" fill="none" xmlns="http://www.w3.org/2000/svg"><path d="M27.5 53c13.807 0 25-11.193 25-25S41.307 3 27.5 3s-25 11.193-25 25 11.193 25 25 25Z" stroke="url(#a)" stroke-width="5" stroke-linecap="round" stroke-linejoin="round"/><path fill-rule="evenodd" clip-rule="evenodd" d="M39.884 19.685c.542.542.542 1.42 0 1.96L24.606 36.897a1.39 1.39 0 0 1-1.964 0l-6.945-6.932a1.385 1.385 0 0 1 0-1.96 1.39 1.39 0 0 1 1.965 0l5.962 5.951 14.296-14.27a1.39 1.39 0 0 1 1.964 0Z" fill="url(#b)" stroke="url(#c)" stroke-width="3" stroke-linecap="round" stroke-linejoin="round"/><defs><linearGradient id="a" x1="-22.5" y1="28" x2="27.5" y2="78" gradientUnits="userSpaceOnUse"><stop stop-color="#AF0101"/><stop offset="1" stop-color="#F00000"/></linearGradient><linearGradient id="b" x1="2.791" y1="28.291" x2="19.89" y2="52.01" gradientUnits="userSpaceOnUse"><stop stop-color="#AF0101"/><stop offset="1" stop-color="#F00000"/></linearGradient><linearGradient id="c" x1="2.791" y1="28.291" x2="19.89" y2="52.01" gradientUnits="userSpaceOnUse"><stop stop-color="#AF0101"/><stop offset="1" stop-color="#F00000"/></linearGradient></defs></svg>