<svg width="16" height="16" viewBox="0 0 16 16" fill="none" xmlns="http://www.w3.org/2000/svg">
<path fill-rule="evenodd" clip-rule="evenodd" d="M4.40827 3.47312C4.14675 3.26977 3.76859 3.28825 3.52827 3.52858C3.26792 3.78892 3.26792 4.21103 3.52827 4.47138L7.05687 7.99998L3.52827 11.5286L3.47281 11.5914C3.26946 11.8529 3.28795 12.2311 3.52827 12.4714C3.78862 12.7317 4.21073 12.7317 4.47108 12.4714L7.99967 8.94279L11.5283 12.4714L11.5911 12.5268C11.8526 12.7302 12.2308 12.7117 12.4711 12.4714C12.7314 12.211 12.7314 11.7889 12.4711 11.5286L8.94248 7.99998L12.4711 4.47138L12.5265 4.40858C12.7299 4.14705 12.7114 3.7689 12.4711 3.52858C12.2107 3.26823 11.7886 3.26823 11.5283 3.52858L7.99967 7.05717L4.47108 3.52858L4.40827 3.47312Z" fill="#D04040"/>
</svg>
