<svg width="22" height="20" viewBox="0 0 22 20" fill="none" xmlns="http://www.w3.org/2000/svg">
<path d="M11.005 4.5C13.765 4.5 16.005 6.74 16.005 9.5C16.005 10.15 15.875 10.76 15.645 11.33L18.565 14.25C20.075 12.99 21.265 11.36 21.995 9.5C20.265 5.11 15.995 2 10.995 2C9.59501 2 8.255 2.25 7.01501 2.7L9.175 4.86C9.745 4.63 10.355 4.5 11.005 4.5ZM1.005 1.77L3.745 4.51C2.085 5.8 0.785005 7.52 0.00500488 9.5C1.735 13.89 6.005 17 11.005 17C12.555 17 14.035 16.7 15.385 16.16L15.805 16.58L18.735 19.5L20.005 18.23L2.275 0.5L1.005 1.77ZM6.53501 7.3L8.085 8.85C8.035 9.06 8.005 9.28 8.005 9.5C8.005 11.16 9.34501 12.5 11.005 12.5C11.225 12.5 11.445 12.47 11.655 12.42L13.205 13.97C12.535 14.3 11.795 14.5 11.005 14.5C8.245 14.5 6.005 12.26 6.005 9.5C6.005 8.71 6.20501 7.97 6.53501 7.3ZM10.845 6.52L13.995 9.67L14.015 9.51C14.015 7.85 12.675 6.51 11.015 6.51L10.845 6.52Z" fill="black" fill-opacity="0.4"/>
</svg>
