<svg width="16" height="16" viewBox="0 0 16 16" fill="none" xmlns="http://www.w3.org/2000/svg">
<g clip-path="url(#clip0_9779_14572)">
<path fill-rule="evenodd" clip-rule="evenodd" d="M1.25278 2.58579C1.62785 2.21071 2.13656 2 2.66699 2H7.33366C7.70185 2 8.00033 2.29848 8.00033 2.66667C8.00033 3.03486 7.70185 3.33333 7.33366 3.33333H2.66699C2.49018 3.33333 2.32061 3.40357 2.19559 3.5286C2.07056 3.65362 2.00033 3.82319 2.00033 4V13.3333C2.00033 13.5101 2.07056 13.6797 2.19559 13.8047C2.32061 13.9298 2.49018 14 2.66699 14H12.0003C12.1771 14 12.3467 13.9298 12.4717 13.8047C12.5968 13.6797 12.667 13.5101 12.667 13.3333V8.66667C12.667 8.29848 12.9655 8 13.3337 8C13.7018 8 14.0003 8.29848 14.0003 8.66667V13.3333C14.0003 13.8638 13.7896 14.3725 13.4145 14.7475C13.0395 15.1226 12.5308 15.3333 12.0003 15.3333H2.66699C2.13656 15.3333 1.62785 15.1226 1.25278 14.7475C0.877706 14.3725 0.666992 13.8638 0.666992 13.3333V4C0.666992 3.46957 0.877706 2.96086 1.25278 2.58579Z" fill="#D04040"/>
<path fill-rule="evenodd" clip-rule="evenodd" d="M13.3337 1.91903C13.1354 1.91903 12.9453 1.99779 12.8051 2.13798L6.60232 8.34074L6.24992 9.75033L7.65951 9.39793L13.8623 3.19517C14.0025 3.05498 14.0812 2.86483 14.0812 2.66657C14.0812 2.46831 14.0025 2.27817 13.8623 2.13798C13.7221 1.99779 13.5319 1.91903 13.3337 1.91903ZM11.8623 1.19517C12.2525 0.804928 12.7818 0.585693 13.3337 0.585693C13.8856 0.585693 14.4148 0.804928 14.8051 1.19517C15.1953 1.58541 15.4146 2.11469 15.4146 2.66657C15.4146 3.21846 15.1953 3.74774 14.8051 4.13798L8.47174 10.4713C8.3863 10.5568 8.27925 10.6174 8.16203 10.6467L5.49536 11.3133C5.26818 11.3701 5.02786 11.3036 4.86227 11.138C4.69668 10.9724 4.63012 10.7321 4.68691 10.5049L5.35358 7.83822C5.38288 7.72099 5.4435 7.61394 5.52894 7.5285L11.8623 1.19517Z" fill="#D04040"/>
</g>
<defs>
<clipPath id="clip0_9779_14572">
<rect width="16" height="16" fill="white"/>
</clipPath>
</defs>
</svg>
