<svg width="30" height="30" viewBox="0 0 30 30" fill="none" xmlns="http://www.w3.org/2000/svg">
<circle cx="15" cy="15" r="14.5" fill="white" stroke="#1890FF"/>
<path d="M8.42265 18.8488C8.50386 18.9859 8.63757 19.0859 8.79441 19.1269C8.95124 19.168 9.11837 19.1467 9.25908 19.0677L10.3686 18.4432V19.692C10.3686 19.8504 10.4331 20.0024 10.548 20.1145C10.663 20.2264 10.8188 20.2894 10.9813 20.2894C11.1439 20.2894 11.2997 20.2264 11.4146 20.1145C11.5296 20.0024 11.5941 19.8504 11.5941 19.692V17.7532L13.0101 16.9564L14.4257 17.7531V19.3469L12.7035 20.3161C12.5627 20.3954 12.46 20.5258 12.4179 20.6789C12.3758 20.832 12.3978 20.995 12.4791 21.1323C12.5603 21.2696 12.6942 21.3698 12.8512 21.4107C13.0082 21.4518 13.1755 21.4303 13.3163 21.3511L14.4257 20.7268V21.9754C14.4257 22.1339 14.4903 22.2858 14.6052 22.3979C14.7201 22.5099 14.876 22.5728 15.0385 22.5728C15.201 22.5728 15.3569 22.5099 15.4718 22.3979C15.5867 22.2858 15.6513 22.1339 15.6513 21.9754V20.7266L16.7608 21.3511C16.8305 21.3903 16.9074 21.4158 16.9872 21.426C17.067 21.4363 17.1481 21.431 17.2258 21.4107C17.3036 21.3904 17.3765 21.3554 17.4403 21.3076C17.5041 21.2598 17.5577 21.2003 17.5979 21.1323C17.6382 21.0644 17.6643 20.9893 17.6748 20.9115C17.6853 20.8337 17.68 20.7548 17.6591 20.6789C17.6383 20.6031 17.6024 20.532 17.5533 20.4698C17.5043 20.4075 17.4433 20.3553 17.3735 20.3161L15.6513 19.3471V17.7531L17.067 16.9564L18.483 17.7532V19.692C18.483 19.8504 18.5476 20.0024 18.6625 20.1145C18.7774 20.2264 18.9333 20.2894 19.0958 20.2894C19.2583 20.2894 19.4142 20.2264 19.5291 20.1145C19.644 20.0024 19.7086 19.8504 19.7086 19.692V18.4432L20.8181 19.0677C20.8877 19.1069 20.9647 19.1323 21.0445 19.1426C21.1243 19.1528 21.2054 19.1476 21.2831 19.1273C21.3609 19.107 21.4337 19.0719 21.4976 19.0242C21.5614 18.9764 21.615 18.9168 21.6553 18.8489C21.6955 18.7809 21.7216 18.7059 21.7321 18.6281C21.7425 18.5503 21.7373 18.4713 21.7164 18.3955C21.6956 18.3197 21.6597 18.2486 21.6107 18.1864C21.5617 18.1241 21.5005 18.0719 21.4309 18.0327L20.3217 17.4084L21.4309 16.7842C21.5005 16.745 21.5617 16.6927 21.6107 16.6305C21.6597 16.5682 21.6956 16.4972 21.7164 16.4214C21.7373 16.3456 21.7425 16.2666 21.7321 16.1888C21.7216 16.111 21.6955 16.036 21.6553 15.968C21.615 15.9 21.5614 15.8405 21.4976 15.7927C21.4337 15.7449 21.3609 15.7099 21.2831 15.6896C21.2054 15.6693 21.1243 15.6641 21.0445 15.6743C20.9647 15.6845 20.8877 15.71 20.8181 15.7492L19.0957 16.7186L17.6801 15.9214V14.3282L19.0957 13.5317L20.8181 14.5011C20.8877 14.5403 20.9647 14.5658 21.0445 14.576C21.1243 14.5862 21.2054 14.5811 21.2831 14.5607C21.3609 14.5404 21.4337 14.5054 21.4976 14.4576C21.5614 14.4098 21.615 14.3503 21.6553 14.2823C21.6955 14.2144 21.7216 14.1393 21.7321 14.0615C21.7425 13.9838 21.7373 13.9047 21.7164 13.8289C21.6956 13.7531 21.6597 13.6821 21.6107 13.6198C21.5617 13.5576 21.5005 13.5053 21.4309 13.4661L20.3217 12.8419L21.4309 12.2176C21.5716 12.1384 21.6743 12.0079 21.7164 11.8548C21.7585 11.7018 21.7365 11.5387 21.6553 11.4014C21.574 11.2642 21.4401 11.164 21.2831 11.123C21.1261 11.082 20.9588 11.1034 20.8181 11.1827L19.7086 11.8071V10.5579C19.7086 10.3994 19.644 10.2475 19.5291 10.1354C19.4142 10.0234 19.2583 9.96046 19.0958 9.96046C18.9333 9.96046 18.7774 10.0234 18.6625 10.1354C18.5476 10.2475 18.483 10.3994 18.483 10.5579V12.4966L17.067 13.2935L15.6514 12.4967V10.9031L17.3737 9.93382C17.4434 9.89459 17.5045 9.84236 17.5535 9.78011C17.6025 9.71786 17.6384 9.64682 17.6593 9.57103C17.6801 9.49524 17.6854 9.41619 17.6749 9.33839C17.6644 9.2606 17.6383 9.18558 17.5981 9.11762C17.5578 9.04966 17.5043 8.9901 17.4404 8.94233C17.3766 8.89456 17.3037 8.85951 17.226 8.83919C17.1482 8.81888 17.0671 8.81369 16.9873 8.82393C16.9075 8.83416 16.8306 8.85962 16.7609 8.89885L15.6514 9.52315V8.27442C15.6514 8.11598 15.5868 7.96402 15.4719 7.85198C15.357 7.73994 15.2012 7.677 15.0386 7.677C14.8761 7.677 14.7203 7.73994 14.6053 7.85198C14.4904 7.96402 14.4259 8.11598 14.4259 8.27442V9.52327L13.3164 8.89873C13.1756 8.8195 13.0083 8.79805 12.8513 8.83907C12.6943 8.8801 12.5605 8.98025 12.4792 9.1175C12.3979 9.25475 12.3759 9.41785 12.418 9.57091C12.4601 9.72398 12.5628 9.85448 12.7036 9.9337L14.4259 10.9031V12.4967L13.0102 13.2935L11.5942 12.4966V10.5579C11.5942 10.3994 11.5297 10.2475 11.4148 10.1354C11.2998 10.0234 11.144 9.96046 10.9815 9.96046C10.819 9.96046 10.6631 10.0234 10.5482 10.1354C10.4332 10.2475 10.3687 10.3994 10.3687 10.5579V11.8066L9.25908 11.1822C9.18936 11.143 9.1124 11.1175 9.03259 11.1073C8.95278 11.097 8.87169 11.1022 8.79394 11.1226C8.71619 11.1429 8.6433 11.178 8.57945 11.2257C8.5156 11.2735 8.46202 11.3331 8.42179 11.4011C8.34053 11.5384 8.31853 11.7015 8.36064 11.8546C8.40275 12.0077 8.5055 12.1382 8.64631 12.2174L9.75542 12.8417L8.64631 13.4656C8.50554 13.5449 8.40281 13.6754 8.36073 13.8284C8.31864 13.9815 8.34065 14.1446 8.42191 14.2818C8.50317 14.4191 8.63702 14.5192 8.79402 14.5603C8.95102 14.6013 9.11831 14.5798 9.25908 14.5006L10.9816 13.5317L12.3972 14.3287V15.9214L10.9816 16.7184L9.25908 15.7492C9.11831 15.67 8.95102 15.6485 8.79402 15.6896C8.63702 15.7306 8.50317 15.8307 8.42191 15.968C8.34065 16.1052 8.31864 16.2683 8.36073 16.4214C8.40281 16.5745 8.50554 16.705 8.64631 16.7842L9.75542 17.4084L8.64631 18.0327C8.57659 18.0719 8.51549 18.1241 8.4665 18.1864C8.41751 18.2486 8.3816 18.3197 8.36083 18.3955C8.34005 18.4713 8.33482 18.5503 8.34542 18.6281C8.35603 18.7059 8.38227 18.7809 8.42265 18.8488ZM13.6228 14.328L15.0386 13.531L16.4545 14.328V15.9214L15.0386 16.7184L13.6228 15.9214V14.328Z" fill="#1890FF"/>
</svg>
