<svg width="30" height="30" viewBox="0 0 30 30" fill="none" xmlns="http://www.w3.org/2000/svg">
<circle cx="15" cy="15" r="14.5" fill="white" stroke="#DB029E"/>
<path d="M10.6681 8.6802C10.6681 8.6802 10.2804 9.19718 10.7883 9.3196C10.832 9.44117 10.8436 9.57211 10.8225 9.69968C10.8013 9.82724 10.7481 9.94705 10.6681 10.0474H20.0244C20.0244 10.0474 19.5232 9.40804 19.7903 9.36722C20.0579 9.3264 20.1178 8.78904 19.6367 8.63938C19.1555 8.48975 10.6681 8.6802 10.6681 8.6802Z" fill="#90918F"/>
<path d="M20.0513 7H10.4811C10.2192 7 10.0067 7.21621 10.0067 7.48293V8.31278C10.0067 8.57953 10.2192 8.79574 10.4811 8.79574H20.0513C20.3132 8.79574 20.5258 8.57953 20.5258 8.31278V7.48293C20.5258 7.21621 20.3132 7 20.0513 7Z" fill="#003F23"/>
<path d="M19.3496 9.46924H11.2897C10.5774 9.46924 10 9.88648 10 10.4012V21.1209C10 21.6357 10.5774 22.0528 11.2897 22.0528H19.3496C20.0619 22.0528 20.6393 21.6357 20.6393 21.1209V10.4012C20.6393 9.88648 20.0619 9.46924 19.3496 9.46924Z" fill="#F49C1A"/>
<path d="M19.5503 9.46924H15.0928V22.0528H19.5503C19.8563 22.0488 20.1481 21.958 20.3621 21.7999C20.576 21.6418 20.6948 21.4292 20.6931 21.2081V10.3139C20.6948 10.0928 20.576 9.88014 20.3621 9.72201C20.1481 9.56386 19.8563 9.47304 19.5503 9.46924Z" fill="#D3902D"/>
<path d="M15.1526 16.5472C16.9058 16.5472 18.327 15.661 18.327 14.5678C18.327 13.4746 16.9058 12.5884 15.1526 12.5884C13.3994 12.5884 11.9781 13.4746 11.9781 14.5678C11.9781 15.661 13.3994 16.5472 15.1526 16.5472Z" fill="#FDCE48" stroke="#FCFCFC" stroke-width="0.13" stroke-miterlimit="10"/>
<path d="M18.9753 15.758L11.6909 15.7104C11.6003 15.7105 11.5104 15.6918 11.4272 15.6555C11.3437 15.6192 11.2686 15.5661 11.2059 15.4993C11.1435 15.4324 11.0952 15.3534 11.0635 15.2669C11.0318 15.1804 11.018 15.0883 11.0226 14.9961C11.0226 14.8157 11.0931 14.6427 11.2182 14.5151C11.3437 14.3876 11.5136 14.3159 11.6909 14.3159L18.9753 14.3635C19.1557 14.3723 19.3256 14.4514 19.4501 14.5844C19.5745 14.7174 19.6439 14.8941 19.6436 15.0778C19.6436 15.2582 19.5731 15.4312 19.4479 15.5587C19.3225 15.6863 19.1526 15.758 18.9753 15.758Z" fill="#005130"/>
<path d="M14.4708 16.6285C14.4606 16.6225 14.4493 16.6194 14.4373 16.6194C14.4257 16.6194 14.414 16.6225 14.4038 16.6285C14.3957 16.6163 14.3848 16.6063 14.3721 16.5992C14.3591 16.5922 14.345 16.5882 14.3305 16.5876C14.3305 16.6093 14.339 16.6301 14.3541 16.6454C14.3689 16.6607 14.3894 16.6693 14.4105 16.6693H14.444C14.4655 16.6693 14.4856 16.6607 14.5007 16.6454C14.5159 16.6301 14.5244 16.6093 14.5244 16.5876L14.4708 16.6285Z" fill="#61B45F"/>
<path d="M14.4837 16.6555C14.4739 16.6496 14.4624 16.6464 14.4508 16.6464C14.4389 16.6464 14.4276 16.6496 14.4175 16.6555V16.7096C14.4385 16.7096 14.4589 16.7011 14.4739 16.6859C14.4887 16.6706 14.4971 16.6499 14.4971 16.6284L14.4837 16.6555Z" fill="#12A96B"/>
<path d="M14.3842 17.023C14.3493 17.0166 14.3183 16.9972 14.2971 16.9686C14.259 16.9256 14.2379 16.87 14.2372 16.8121C14.2361 16.7927 14.2414 16.7735 14.2524 16.7575C14.2633 16.7416 14.2791 16.7297 14.2971 16.7237C14.326 16.7177 14.3553 16.7177 14.3842 16.7237C14.4148 16.7171 14.4469 16.7171 14.4776 16.7237C14.4945 16.7308 14.509 16.7432 14.5185 16.7591C14.528 16.775 14.5326 16.7936 14.5312 16.8121C14.5329 16.8692 14.5139 16.925 14.4776 16.9686C14.454 16.9976 14.4208 17.017 14.3842 17.023Z" fill="#EA5D5F"/>
<path d="M14.4776 16.9688C14.5139 16.9251 14.5329 16.8694 14.5311 16.8123C14.5357 16.7916 14.5329 16.7699 14.523 16.7512C14.5132 16.7324 14.4969 16.7179 14.4776 16.7103C14.4469 16.7037 14.4148 16.7037 14.3842 16.7103V17.0232C14.4208 17.0171 14.4539 16.9978 14.4776 16.9688Z" fill="#DC2664"/>
<path d="M14.6782 16.506C14.663 16.5155 14.6503 16.5285 14.6412 16.5438C14.6316 16.5592 14.6264 16.5765 14.6246 16.5945C14.6105 16.5861 14.5943 16.5817 14.5777 16.5817C14.5615 16.5817 14.5453 16.5861 14.5312 16.5945C14.5368 16.6066 14.5446 16.6174 14.5548 16.6262C14.5647 16.6349 14.5763 16.6415 14.589 16.6453C14.6017 16.6492 14.6147 16.6503 14.6278 16.6485C14.6408 16.6468 14.6535 16.6423 14.6648 16.6353H14.705C14.7233 16.6162 14.7335 16.5906 14.7335 16.5639C14.7335 16.5372 14.7233 16.5115 14.705 16.4924L14.6782 16.506Z" fill="#61B45F"/>
<path d="M14.6779 16.5264C14.6628 16.5358 14.6501 16.5487 14.6409 16.5641C14.6314 16.5795 14.6257 16.5968 14.6243 16.6148L14.6712 16.6964C14.6895 16.6773 14.6998 16.6517 14.6998 16.625C14.6998 16.5983 14.6895 16.5726 14.6712 16.5535L14.6779 16.5264Z" fill="#12A96B"/>
<path d="M14.825 16.996C14.7819 17.0127 14.7344 17.0127 14.6914 16.996C14.6575 16.9865 14.6258 16.9702 14.5983 16.948C14.5705 16.9258 14.5475 16.8981 14.531 16.8667C14.5162 16.8485 14.5084 16.8257 14.5084 16.8021C14.5084 16.7785 14.5162 16.7557 14.531 16.7375C14.5588 16.7084 14.5902 16.6832 14.6244 16.6626C14.6575 16.6415 14.6938 16.6254 14.7315 16.615C14.7545 16.6085 14.7791 16.6113 14.8003 16.6226C14.8214 16.634 14.8373 16.6532 14.845 16.6763C14.8824 16.737 14.8969 16.8096 14.8852 16.8803C14.8852 16.9347 14.8852 16.9891 14.825 17.0028V16.996Z" fill="#EA5D5F"/>
<path d="M14.8852 16.8735C14.8968 16.8028 14.8823 16.7301 14.845 16.6694C14.8372 16.6464 14.8214 16.6272 14.8002 16.6158C14.7791 16.6044 14.7544 16.6017 14.7315 16.6082C14.6934 16.6186 14.6575 16.6346 14.6243 16.6558L14.8249 16.9959C14.8249 16.9959 14.8718 16.9279 14.8852 16.8735Z" fill="#DC2664"/>
<path fill-rule="evenodd" clip-rule="evenodd" d="M14.7714 16.8804C14.7714 16.8804 14.7798 16.8886 14.7714 16.8804V16.8804Z" fill="#C0116B"/>
<path d="M15.0457 16.2342C15.0249 16.2471 15.0079 16.2651 14.9963 16.2865C14.9847 16.308 14.9787 16.3321 14.9787 16.3567C14.9589 16.3432 14.9357 16.336 14.9117 16.336C14.8881 16.336 14.8648 16.3432 14.8451 16.3567C14.8539 16.3726 14.8659 16.3865 14.8803 16.3975C14.8948 16.4086 14.911 16.4166 14.9286 16.4211C14.9463 16.4255 14.9642 16.4263 14.9822 16.4235C14.9998 16.4206 15.0167 16.414 15.0323 16.4043H15.0922C15.1232 16.3834 15.1451 16.3515 15.1535 16.315C15.1623 16.2784 15.157 16.2399 15.1391 16.207C15.1391 16.207 15.059 16.2274 15.0457 16.2342Z" fill="#61B45F"/>
<path d="M15.0921 16.2681C15.0717 16.2809 15.0548 16.2989 15.0431 16.3204C15.0315 16.3418 15.0252 16.3659 15.0255 16.3905L15.0854 16.4993C15.1165 16.4784 15.1383 16.4466 15.1468 16.41C15.1556 16.3735 15.1503 16.3349 15.1323 16.3021L15.0921 16.2681Z" fill="#12A96B"/>
<path d="M15.2728 16.9145C15.2125 16.938 15.1459 16.938 15.0856 16.9145C14.9925 16.8833 14.9125 16.821 14.8586 16.7376C14.8385 16.7114 14.8276 16.679 14.8276 16.6458C14.8276 16.6125 14.8385 16.5802 14.8586 16.5539C14.8917 16.5122 14.9326 16.4776 14.9788 16.4519C15.0239 16.4212 15.0733 16.3982 15.1258 16.3839C15.1578 16.3748 15.1917 16.3782 15.2213 16.3933C15.2509 16.4084 15.2742 16.4341 15.2862 16.4655C15.338 16.5508 15.357 16.6525 15.3397 16.7512C15.3313 16.8151 15.3031 16.8746 15.2594 16.9213L15.2728 16.9145Z" fill="#EA5D5F"/>
<path d="M15.3464 16.7441C15.3637 16.6454 15.3447 16.5438 15.2928 16.4585C15.2809 16.427 15.2579 16.4013 15.2283 16.3862C15.1984 16.3711 15.1645 16.3678 15.1325 16.3768C15.0803 16.3911 15.0306 16.4141 14.9855 16.4448L15.2661 16.9142C15.3098 16.8675 15.338 16.808 15.3464 16.7441Z" fill="#DC2664"/>
<path fill-rule="evenodd" clip-rule="evenodd" d="M14.9518 16.6218C14.9389 16.6283 14.9518 16.6218 14.9518 16.6218V16.6218Z" fill="#DC2664"/>
<path fill-rule="evenodd" clip-rule="evenodd" d="M15.1725 16.4858C15.1596 16.4923 15.1725 16.4858 15.1725 16.4858V16.4858Z" fill="#C0116B"/>
<path fill-rule="evenodd" clip-rule="evenodd" d="M15.1726 16.6147L15.1933 16.6481L15.1726 16.6147Z" fill="#C0116B"/>
<path fill-rule="evenodd" clip-rule="evenodd" d="M15.0859 16.5605V16.6001C15.0859 16.6001 15.0927 16.5737 15.0859 16.5605Z" fill="#C0116B"/>
<path fill-rule="evenodd" clip-rule="evenodd" d="M15.1996 16.751V16.7843C15.1996 16.7843 15.2065 16.7643 15.1996 16.751Z" fill="#C0116B"/>
<path d="M15.1927 15.826C15.1927 15.8668 15.1927 15.9008 15.1525 15.9348C15.1123 15.9688 15.1525 16.0164 15.1525 16.0504C15.1525 16.0845 15.0989 16.1117 15.0788 16.1389C15.0591 16.166 15.0788 16.2205 15.0256 16.2477C14.972 16.2749 14.9519 16.2477 14.9252 16.2953C14.8987 16.3429 14.8719 16.3565 14.8317 16.3701C14.7916 16.3837 14.7581 16.3701 14.7182 16.3701C14.6781 16.3701 14.6513 16.3701 14.6111 16.3701C14.5734 16.3638 14.5371 16.3499 14.5043 16.3293C14.4641 16.3327 14.4239 16.3327 14.3841 16.3293C14.3841 16.3293 14.3305 16.2749 14.3037 16.2545C14.2769 16.2341 14.2237 16.2545 14.1969 16.2001C14.1701 16.1457 14.1969 16.1253 14.15 16.0981C14.1032 16.0708 14.0898 16.0436 14.07 16.0028C14.0499 15.962 14.07 15.928 14.07 15.8872C14.07 15.8464 14.07 15.8192 14.07 15.7784C14.07 15.7375 14.07 15.7035 14.07 15.6695C14.07 15.6355 14.07 15.5879 14.07 15.5471C14.07 15.5063 14.1233 15.4927 14.1433 15.4655C14.1634 15.4383 14.1433 15.3838 14.1969 15.3566C14.2501 15.3294 14.2702 15.3566 14.297 15.309C14.3238 15.2614 14.3506 15.2478 14.3841 15.2274C14.4239 15.224 14.4641 15.224 14.5043 15.2274C14.5043 15.2274 14.5713 15.2274 14.6111 15.2274C14.6513 15.2274 14.6848 15.2274 14.7182 15.2274C14.7514 15.2274 14.7983 15.2274 14.8317 15.2274C14.8652 15.2274 14.892 15.2818 14.9185 15.3022C14.9452 15.3226 14.9988 15.3022 15.0256 15.3566C15.0524 15.411 15.0256 15.4314 15.0725 15.4587C15.119 15.4859 15.1324 15.5131 15.1458 15.5471C15.1592 15.5811 15.1458 15.6287 15.1458 15.6695C15.1458 15.7103 15.1927 15.7852 15.1927 15.826Z" fill="#4BAE52"/>
<path d="M15.1925 15.8259C15.1925 15.7851 15.1925 15.7511 15.1925 15.7171C15.1894 15.7037 15.1894 15.6897 15.1925 15.6763C15.1802 15.7667 15.1502 15.8537 15.1044 15.9321C15.0586 16.0106 14.9976 16.0788 14.9254 16.1327C14.8531 16.1867 14.7706 16.2253 14.6836 16.2462C14.5961 16.2671 14.5056 16.2699 14.4171 16.2544C14.3399 16.2394 14.2655 16.2119 14.1968 16.1728C14.2038 16.1974 14.2151 16.2204 14.2303 16.2408C14.2303 16.2408 14.3036 16.2408 14.3371 16.2953C14.3706 16.3497 14.3839 16.3565 14.4171 16.3701C14.4573 16.3735 14.4974 16.3735 14.5376 16.3701C14.5701 16.3907 14.6064 16.4045 14.6444 16.4109C14.6846 16.4109 14.7181 16.4109 14.7512 16.4109C14.7847 16.4109 14.8316 16.4109 14.8651 16.4109C14.8986 16.4109 14.925 16.3565 14.9585 16.3361C14.992 16.3157 15.0322 16.3361 15.0589 16.2885C15.0854 16.2408 15.0589 16.2137 15.1122 16.1796C15.1657 16.1456 15.1724 16.132 15.1858 16.0912C15.1992 16.0504 15.1858 16.0164 15.1858 15.9756C15.1858 15.9347 15.1925 15.8667 15.1925 15.8259Z" fill="#00A04B"/>
<path d="M14.9451 15.792C14.9472 15.8063 14.9462 15.8209 14.9427 15.8348C14.9388 15.8487 14.9324 15.8618 14.9236 15.8732C14.9148 15.8845 14.9042 15.8941 14.8919 15.9012C14.8796 15.9082 14.8658 15.9127 14.8517 15.9144C14.8239 15.9095 14.7992 15.8942 14.7819 15.8715C14.7643 15.8489 14.7562 15.8206 14.7583 15.792H14.6779C14.6779 15.8668 14.6378 15.9212 14.5845 15.9212C14.531 15.9212 14.4975 15.86 14.4975 15.792H14.4305C14.4305 15.86 14.3907 15.9212 14.3438 15.9212C14.2969 15.9212 14.2504 15.86 14.2504 15.792H14.2102C14.2063 15.8368 14.2194 15.8815 14.2465 15.9169C14.274 15.9523 14.3135 15.9757 14.3572 15.9825C14.3692 15.9597 14.3872 15.9407 14.4087 15.9274C14.4305 15.9142 14.4555 15.9072 14.4809 15.9072C14.5063 15.9072 14.531 15.9142 14.5528 15.9274C14.5747 15.9407 14.5923 15.9597 14.6043 15.9825C14.6304 15.9831 14.6557 15.9765 14.6783 15.9633C14.7009 15.9501 14.7192 15.9308 14.7315 15.9076C14.7425 15.9303 14.7597 15.9493 14.7812 15.9625C14.8024 15.9757 14.8267 15.9826 14.8517 15.9825C14.8736 15.9807 14.8951 15.9746 14.9148 15.9645C14.9342 15.9543 14.9518 15.9402 14.9663 15.9232C14.9804 15.9061 14.9913 15.8863 14.998 15.865C15.0047 15.8437 15.0072 15.8211 15.0054 15.7988L14.9451 15.792Z" fill="#00A04B"/>
<path d="M14.9454 15.5131C14.9472 15.5275 14.9465 15.542 14.9426 15.5559C14.939 15.5699 14.9327 15.5829 14.9239 15.5943C14.9151 15.6057 14.9042 15.6152 14.8918 15.6223C14.8795 15.6294 14.8661 15.6339 14.852 15.6356C14.8051 15.6356 14.7649 15.5812 14.7649 15.5131H14.6782C14.6782 15.5812 14.638 15.6356 14.5911 15.6356C14.5446 15.6356 14.4977 15.5812 14.4977 15.5063H14.4375C14.4413 15.536 14.4339 15.5661 14.4163 15.5902C14.399 15.6143 14.373 15.6306 14.3441 15.6356C14.2905 15.6356 14.2503 15.5744 14.2503 15.5063H14.2105C14.2066 15.5522 14.2207 15.5977 14.2492 15.6333C14.2778 15.6689 14.319 15.6916 14.3642 15.6968C14.3888 15.6962 14.4128 15.689 14.4339 15.6759C14.4551 15.6627 14.4727 15.6441 14.4843 15.622C14.4967 15.6452 14.515 15.6644 14.5376 15.6776C14.5598 15.6908 14.5855 15.6975 14.6112 15.6968C14.6222 15.6738 14.6394 15.6544 14.6606 15.6408C14.6817 15.6273 14.7064 15.6201 14.7314 15.6201C14.7568 15.6201 14.7815 15.6273 14.8026 15.6408C14.8238 15.6544 14.8411 15.6738 14.852 15.6968C14.8967 15.6933 14.9387 15.6722 14.9687 15.638C14.9986 15.6037 15.0141 15.5589 15.0124 15.5131H14.9454Z" fill="#00A04B"/>
<path d="M16.3689 16.0301C16.3689 16.071 16.3689 16.105 16.3689 16.1458C16.3689 16.1866 16.3689 16.2274 16.3689 16.2614C16.3689 16.2954 16.3154 16.3158 16.2953 16.3498C16.2752 16.3839 16.2953 16.4247 16.2487 16.4519C16.2019 16.4791 16.1751 16.4859 16.1416 16.5063C16.1081 16.5267 16.0884 16.5675 16.0549 16.5811C16.0214 16.5947 15.9812 16.5811 15.941 16.5811C15.9086 16.6017 15.8723 16.6155 15.8342 16.6219C15.794 16.6219 15.7609 16.6219 15.7207 16.5879C15.6806 16.5539 15.6404 16.5879 15.6069 16.5879C15.5737 16.5879 15.5537 16.5335 15.5202 16.5131C15.4867 16.4927 15.4465 16.5131 15.4201 16.4587C15.3982 16.427 15.3802 16.3927 15.3665 16.3566C15.3665 16.3566 15.3062 16.3022 15.2928 16.2682C15.2794 16.2342 15.2928 16.1934 15.2928 16.1526C15.2738 16.1188 15.2604 16.082 15.253 16.0438C15.253 16.0029 15.253 15.9689 15.253 15.9281C15.253 15.8873 15.253 15.8465 15.253 15.8125C15.253 15.7785 15.3062 15.7581 15.3263 15.7241C15.3337 15.6853 15.3524 15.6497 15.3795 15.6218C15.407 15.594 15.4419 15.5751 15.48 15.5676C15.48 15.5676 15.5336 15.5064 15.5671 15.4928C15.6048 15.4891 15.6428 15.4891 15.6805 15.4928C15.7161 15.4899 15.7518 15.4899 15.7874 15.4928C15.8275 15.4928 15.861 15.4928 15.9012 15.4928C15.941 15.4928 15.9812 15.4928 16.0147 15.4928C16.0482 15.4928 16.0683 15.554 16.1018 15.5744C16.1349 15.5948 16.1751 15.5744 16.2019 15.622C16.2287 15.6696 16.2019 15.6968 16.2554 15.7309C16.3087 15.7649 16.3154 15.7853 16.3288 15.8193C16.3422 15.8533 16.3288 15.8941 16.3288 15.9349C16.3288 15.9757 16.3689 15.9621 16.3689 16.0301Z" fill="#4BAE52"/>
<path d="M16.3691 16.03C16.3691 15.9892 16.3691 15.9552 16.3691 15.9212C16.3659 15.9078 16.3659 15.8938 16.3691 15.8804C16.3574 15.9707 16.3285 16.0578 16.2834 16.1366C16.2383 16.2152 16.178 16.2839 16.1065 16.3385C16.0346 16.393 15.9531 16.4324 15.8661 16.4542C15.779 16.476 15.6888 16.4798 15.6003 16.4653C15.5238 16.4517 15.4494 16.4265 15.38 16.3905C15.3871 16.413 15.3983 16.4338 15.4135 16.4517C15.4135 16.4517 15.4868 16.4858 15.5136 16.5062C15.5404 16.5266 15.5672 16.5674 15.6003 16.581C15.6338 16.5946 15.6807 16.581 15.7142 16.581C15.7476 16.581 15.7875 16.615 15.8277 16.615C15.8657 16.6086 15.902 16.5948 15.9345 16.5742C15.9746 16.5742 16.0148 16.5742 16.0483 16.5742C16.0818 16.5742 16.1082 16.5198 16.135 16.4994C16.1618 16.4789 16.2154 16.4994 16.2422 16.4449C16.2686 16.3905 16.2422 16.3701 16.2887 16.3429C16.3356 16.3157 16.349 16.2885 16.3624 16.2545C16.3758 16.2205 16.3624 16.1729 16.3624 16.1388C16.3624 16.1049 16.3691 16.03 16.3691 16.03Z" fill="#00A04B"/>
<path d="M14.4377 16.2271C14.4674 16.3267 14.4677 16.4331 14.4388 16.5329C14.4095 16.6327 14.3521 16.7216 14.2738 16.7885C14.1952 16.8554 14.0994 16.8973 13.9978 16.9091C13.896 16.9208 13.7934 16.9018 13.7021 16.8545C13.6108 16.8072 13.5354 16.7336 13.4853 16.643C13.4349 16.5524 13.4117 16.4486 13.4191 16.3448C13.4261 16.2409 13.4631 16.1414 13.5255 16.0589C13.5876 15.9762 13.6725 15.9141 13.7694 15.8802C13.8354 15.857 13.9055 15.8476 13.9753 15.8526C14.0454 15.8576 14.1135 15.8769 14.1758 15.9092C14.2382 15.9416 14.2936 15.9865 14.3383 16.0411C14.3835 16.0957 14.4173 16.159 14.4377 16.2271Z" fill="#F39638"/>
<path d="M13.7825 15.8804L14.0966 16.8939C14.0314 16.9149 13.9626 16.9225 13.8942 16.9165C13.8259 16.9104 13.7592 16.8907 13.6986 16.8585C13.6376 16.8263 13.5837 16.7822 13.5396 16.7288C13.4956 16.6753 13.4625 16.6135 13.4417 16.547C13.4212 16.4804 13.4135 16.4104 13.4195 16.3409C13.4254 16.2714 13.4448 16.2037 13.4766 16.1418C13.5083 16.0799 13.5516 16.025 13.6042 15.9801C13.6563 15.9353 13.7173 15.9014 13.7825 15.8804Z" fill="#EB661B"/>
<path d="M13.7422 15.8938V15.9347C13.7503 15.9402 13.7595 15.9432 13.769 15.9432C13.7785 15.9432 13.7881 15.9402 13.7958 15.9347C13.8018 15.9256 13.805 15.915 13.805 15.9041C13.805 15.8931 13.8018 15.8825 13.7958 15.8734V15.8326C13.7888 15.8106 13.7888 15.7867 13.7958 15.7646C13.8088 15.7456 13.8275 15.7312 13.8494 15.7238C13.8554 15.7148 13.8585 15.7041 13.8585 15.6932C13.8585 15.6823 13.8554 15.6716 13.8494 15.6626C13.8413 15.657 13.8321 15.6541 13.8226 15.6541C13.8131 15.6541 13.8036 15.657 13.7958 15.6626C13.774 15.6692 13.7535 15.6805 13.7362 15.6957C13.719 15.711 13.7052 15.7298 13.6957 15.751C13.6929 15.7768 13.6957 15.8029 13.7038 15.8275C13.7119 15.8521 13.725 15.8747 13.7422 15.8938Z" fill="#AC5743"/>
<path d="M13.7492 15.7646L13.8091 15.9687C13.8013 15.9743 13.7918 15.9772 13.7823 15.9772C13.7728 15.9772 13.7636 15.9743 13.7555 15.9687C13.7397 15.9373 13.7308 15.9027 13.7298 15.8674C13.7287 15.8321 13.7351 15.797 13.7492 15.7646Z" fill="#823931"/>
<path d="M13.3414 15.5606L13.4884 15.513C13.5381 15.4979 13.5913 15.5028 13.6375 15.5269C13.6836 15.551 13.7189 15.5924 13.7354 15.6422L13.7823 15.8055C13.7823 15.8055 13.7823 15.8055 13.7823 15.8463L13.622 15.8939C13.5723 15.9091 13.519 15.9041 13.4729 15.88C13.4267 15.8559 13.3914 15.8146 13.3749 15.7647L13.3347 15.615C13.329 15.6067 13.3266 15.5966 13.3276 15.5865C13.329 15.5765 13.3336 15.5672 13.3414 15.5606Z" fill="#3AB39C"/>
<path d="M13.4617 15.6696C13.4705 15.6634 13.4811 15.6602 13.4917 15.6602C13.5026 15.6602 13.5132 15.6634 13.522 15.6696L13.7557 15.7988C13.7557 15.7988 13.7557 15.7988 13.7557 15.8396L13.522 15.7172C13.5149 15.7194 13.5072 15.7198 13.4998 15.7184C13.4927 15.717 13.4857 15.7138 13.4797 15.7092C13.4741 15.7045 13.4691 15.6985 13.466 15.6916C13.4628 15.6847 13.4614 15.6772 13.4617 15.6696Z" fill="#279F84"/>
<path d="M16.576 15.8601L16.629 15.921L16.576 15.8601Z" fill="#C86D35"/>
<path d="M16.6827 15.9618L16.6295 15.9009L16.6827 15.9618Z" fill="#B14E17"/>
<path d="M17.3513 16.7578C17.3967 16.6638 17.426 16.5626 17.438 16.4585C17.4496 16.3795 17.4306 16.2989 17.3847 16.2341C17.3128 16.1549 17.2233 16.0943 17.1239 16.0572C17.0675 16.0353 17.0153 16.003 16.9702 15.962C16.9276 15.9188 16.8701 15.8945 16.8099 15.8945C16.7496 15.8945 16.6921 15.9188 16.6495 15.962L17.3513 16.7578Z" fill="#EB6528"/>
<path d="M16.7365 16.0303C16.7365 16.0303 16.7365 16.1323 16.7365 16.2411C16.7464 16.3475 16.7806 16.45 16.8366 16.5404C16.8648 16.5698 16.8997 16.592 16.9382 16.605C16.9762 16.618 17.0171 16.6215 17.0573 16.6152C17.1038 16.6194 17.1507 16.6194 17.1976 16.6152C17.2216 16.5519 17.2374 16.4855 17.2445 16.418C17.2543 16.356 17.2399 16.2924 17.2043 16.2411C17.1239 16.1691 17.0277 16.1177 16.9237 16.0915C16.8589 16.0646 16.7915 16.0442 16.7231 16.0303H16.7365Z" fill="#FFD301"/>
<path d="M16.7365 16.0303L17.2243 16.6221C17.2483 16.5587 17.2642 16.4923 17.2712 16.4248C17.2811 16.3628 17.2666 16.2992 17.231 16.2479C17.1507 16.1759 17.0545 16.1245 16.9505 16.0983C16.8856 16.0714 16.8183 16.051 16.7499 16.0371L16.7365 16.0303Z" fill="#F49C1A"/>
<path d="M15.9478 16.7103C16.0436 16.8482 16.179 16.9527 16.3355 17.0096C16.3834 17.0312 16.4381 17.0334 16.4874 17.0157C16.5371 16.998 16.5783 16.9618 16.6027 16.9144C16.6104 16.8612 16.597 16.8071 16.566 16.7638C16.5346 16.7205 16.4878 16.6915 16.4356 16.6831C16.2742 16.6416 16.1039 16.6511 15.9478 16.7103Z" fill="#B25117"/>
<path d="M16.0148 16.547C16.0521 16.601 16.0972 16.6491 16.1484 16.6899L16.583 16.8327C16.5999 16.8247 16.615 16.8134 16.6277 16.7994C16.6404 16.7854 16.6499 16.769 16.6563 16.7511C16.664 16.6989 16.6517 16.6457 16.6221 16.6025C16.5921 16.5594 16.547 16.5298 16.4959 16.5198C16.3362 16.4814 16.1692 16.4908 16.0148 16.547Z" fill="#F49C1A"/>
<path d="M16.4823 16.5401C16.5345 16.5485 16.5814 16.5775 16.6127 16.6208C16.6437 16.6641 16.6571 16.7182 16.6494 16.7714L15.9811 16.5537C16.1429 16.4966 16.3177 16.4918 16.4823 16.5401Z" fill="#EF7E11"/>
<path d="M16.4293 16.7102C16.5494 16.7442 16.6228 16.853 16.5896 16.9415L15.9213 16.7238C16.0849 16.6648 16.2625 16.66 16.4293 16.7102Z" fill="#904014"/>
<path d="M16.5426 16.6626C16.5726 16.6277 16.5945 16.5862 16.6061 16.5414C16.6177 16.4965 16.6188 16.4495 16.6096 16.4041C16.5945 16.3666 16.5684 16.3347 16.5349 16.3128C16.5014 16.2909 16.4619 16.28 16.4224 16.2817C16.3354 16.2817 16.2822 16.3497 16.3019 16.4177C16.3544 16.5235 16.4387 16.6094 16.5426 16.6626Z" fill="#B25117"/>
<path d="M16.3353 16.4109C16.3353 16.3429 16.3353 16.2817 16.4488 16.2749L16.5627 16.6694C16.4615 16.6104 16.3819 16.5197 16.3353 16.4109Z" fill="#904014"/>
<path d="M16.1415 16.8394C16.0287 16.8128 15.9107 16.8273 15.8074 16.8802C15.7919 16.8882 15.7788 16.9003 15.7697 16.9153C15.7609 16.9303 15.7559 16.9476 15.7559 16.9653C15.7559 16.9829 15.7609 17.0002 15.7697 17.0152C15.7788 17.0302 15.7919 17.0423 15.8074 17.0503C15.8356 17.0795 15.8719 17.0991 15.9114 17.1064C15.9508 17.1137 15.9914 17.1084 16.028 17.0911C16.0643 17.0605 16.0932 17.022 16.113 16.9784C16.1327 16.9349 16.1422 16.8874 16.1415 16.8394Z" fill="#F49C1A"/>
<path d="M16.0147 17.0844C15.978 17.1008 15.9375 17.1056 15.898 17.0983C15.8589 17.0911 15.8226 17.072 15.794 17.0436L16.1483 16.8328C16.1447 16.882 16.131 16.9299 16.1081 16.9733C16.0852 17.0167 16.0531 17.0546 16.0147 17.0844Z" fill="#EF7E11"/>
</svg>
