<svg width="25" height="26" viewBox="0 0 25 26" fill="none" xmlns="http://www.w3.org/2000/svg">
<rect x="0.5" y="1" width="24" height="24" rx="4.5" fill="white" stroke="#E6ECF4"/>
<path fill-rule="evenodd" clip-rule="evenodd" d="M6.875 14.25C7.22018 14.25 7.5 14.5298 7.5 14.875V17.375C7.5 17.7202 7.77982 18 8.125 18H16.875C17.2202 18 17.5 17.7202 17.5 17.375V14.875C17.5 14.5298 17.7798 14.25 18.125 14.25C18.4702 14.25 18.75 14.5298 18.75 14.875V17.375C18.75 18.4105 17.9105 19.25 16.875 19.25H8.125C7.08947 19.25 6.25 18.4105 6.25 17.375V14.875C6.25 14.5298 6.52982 14.25 6.875 14.25Z" fill="#5E7083"/>
<path fill-rule="evenodd" clip-rule="evenodd" d="M8.93306 11.3081C9.17714 11.064 9.57286 11.064 9.81694 11.3081L12.5 13.9911L15.1831 11.3081C15.4271 11.064 15.8229 11.064 16.0669 11.3081C16.311 11.5521 16.311 11.9479 16.0669 12.1919L12.9419 15.3169C12.6979 15.561 12.3021 15.561 12.0581 15.3169L8.93306 12.1919C8.68898 11.9479 8.68898 11.5521 8.93306 11.3081Z" fill="#5E7083"/>
<path fill-rule="evenodd" clip-rule="evenodd" d="M12.5 6.75C12.8452 6.75 13.125 7.02982 13.125 7.375V14.875C13.125 15.2202 12.8452 15.5 12.5 15.5C12.1548 15.5 11.875 15.2202 11.875 14.875V7.375C11.875 7.02982 12.1548 6.75 12.5 6.75Z" fill="#5E7083"/>
</svg>
