<svg width="45" height="47" viewBox="0 0 45 47" fill="none" xmlns="http://www.w3.org/2000/svg">
<ellipse cx="22.5" cy="24.455" rx="22.5" ry="22.4439" fill="#E8EBF7"/>
<g opacity="0.8">
<g opacity="0.3">
<path d="M29.0811 10.1619H20.6312C20.4117 10.1619 20.2471 9.99724 20.2471 9.77776C20.2471 9.55829 20.4117 9.39368 20.6312 9.39368H29.136C29.3554 9.39368 29.52 9.55829 29.52 9.77776C29.4652 9.99724 29.3006 10.1619 29.0811 10.1619Z" fill="#999999"/>
<path d="M17.9423 10.1619H16.2962C16.0767 10.1619 15.9121 9.99724 15.9121 9.77776C15.9121 9.55829 16.0767 9.39368 16.2962 9.39368H17.9423C18.1618 9.39368 18.3264 9.55829 18.3264 9.77776C18.2715 9.99724 18.1069 10.1619 17.9423 10.1619Z" fill="#999999"/>
<path fill-rule="evenodd" clip-rule="evenodd" d="M16.2412 7.58299H17.0094V6.81482H16.2412V7.58299ZM18.4909 7.58299H17.7227V6.81482H18.4909V7.58299ZM19.2042 7.58299H19.9724V6.81482H19.2042V7.58299ZM21.4538 7.58299H20.6857V6.81482H21.4538V7.58299ZM22.1671 7.58299H22.9353V6.81482H22.1671V7.58299ZM23.6486 7.58299H24.4168V6.81482H23.6486V7.58299Z" fill="#999999"/>
</g>
<g opacity="0.3">
<path d="M29.0811 42.6996H20.6312C20.4117 42.6996 20.2471 42.535 20.2471 42.3155C20.2471 42.096 20.4117 41.9314 20.6312 41.9314H29.136C29.3554 41.9314 29.52 42.096 29.52 42.3155C29.52 42.535 29.3006 42.6996 29.0811 42.6996Z" fill="#999999"/>
<path d="M17.9423 42.6996H16.2962C16.0767 42.6996 15.9121 42.535 15.9121 42.3155C15.9121 42.096 16.0767 41.9314 16.2962 41.9314H17.9423C18.1618 41.9314 18.3264 42.096 18.3264 42.3155C18.2715 42.535 18.1069 42.6996 17.9423 42.6996Z" fill="#999999"/>
<path fill-rule="evenodd" clip-rule="evenodd" d="M16.2412 40.1207H17.0094V39.3525H16.2412V40.1207ZM18.4909 40.1207H17.7227V39.3525H18.4909V40.1207ZM19.2042 40.1207H19.9724V39.3525H19.2042V40.1207ZM21.4538 40.1207H20.6857V39.3525H21.4538V40.1207ZM22.1671 40.1207H22.9353V39.3525H22.1671V40.1207ZM23.6486 40.1207H24.4168V39.3525H23.6486V40.1207Z" fill="#999999"/>
</g>
</g>
<g opacity="0.2">
<path d="M40.6035 23.7696H34.1288C33.9642 23.7696 33.8545 23.6598 33.8545 23.4952C33.8545 23.3306 33.9642 23.2209 34.1288 23.2209H40.6035C40.7681 23.2209 40.8778 23.3306 40.8778 23.4952C40.8778 23.6598 40.7681 23.7696 40.6035 23.7696Z" fill="#999999"/>
<path d="M37.3662 22.1783H30.8915C30.7269 22.1783 30.6172 22.0686 30.6172 21.904C30.6172 21.7394 30.7269 21.6296 30.8915 21.6296H37.3662C37.5308 21.6296 37.6405 21.7394 37.6405 21.904C37.6954 22.0686 37.5308 22.1783 37.3662 22.1783Z" fill="#999999"/>
<path d="M13.9365 23.7696H7.46185C7.29724 23.7696 7.1875 23.6598 7.1875 23.4952C7.1875 23.3306 7.29724 23.2209 7.46185 23.2209H13.9365C14.1011 23.2209 14.2108 23.3306 14.2108 23.4952C14.2108 23.6598 14.0462 23.7696 13.9365 23.7696Z" fill="#999999"/>
<path d="M10.6992 22.1783H4.22454C4.05993 22.1783 3.9502 22.0686 3.9502 21.904C3.9502 21.7394 4.05993 21.6296 4.22454 21.6296H10.6992C10.8638 21.6296 10.9735 21.7394 10.9735 21.904C10.9735 22.0686 10.8089 22.1783 10.6992 22.1783Z" fill="#999999"/>
</g>
<path d="M11.7969 15.9644L12.0146 27.7238L34.227 26.4172V15.5288C34.227 15.5288 34.227 15.0933 33.7914 14.6578C33.3559 14.2222 32.9204 14.2222 32.9204 14.2222H13.1035C13.1035 14.2222 12.6679 14.2222 12.2324 14.8755C11.7969 15.5288 11.7969 15.9644 11.7969 15.9644Z" fill="#FA8084" stroke="#FA8084"/>
<rect x="18.9834" y="15.311" width="14.8082" height="11.7595" rx="2" fill="#FEF8EC"/>
<rect x="12.4502" y="17.0532" width="19.5991" height="11.3239" rx="1" fill="#FBEDCF"/>
<path d="M34.4444 34.2569H11.7966L10.0544 21.4086C10.0544 21.4086 9.83667 20.5375 10.2722 20.102C10.7077 19.6664 11.361 19.6664 11.361 19.6664H22.0317L23.9916 21.4086H34.2267L34.4444 34.2569Z" fill="#F40009" stroke="#F40009"/>
<rect x="14.6279" y="25.3284" width="14.3727" height="0.435535" rx="0.217768" fill="#FBEDCF"/>
<rect x="16.3701" y="26.1995" width="11.3239" height="0.435535" rx="0.217768" fill="#FEF8EC"/>
</svg>
