<svg width="14" height="14" viewBox="0 0 14 14" fill="none" xmlns="http://www.w3.org/2000/svg">
<path fill-rule="evenodd" clip-rule="evenodd" d="M1.00016 8.33337C1.36835 8.33337 1.66683 8.63185 1.66683 9.00004V11.6667C1.66683 12.0349 1.96531 12.3334 2.3335 12.3334H11.6668C12.035 12.3334 12.3335 12.0349 12.3335 11.6667V9.00004C12.3335 8.63185 12.632 8.33337 13.0002 8.33337C13.3684 8.33337 13.6668 8.63185 13.6668 9.00004V11.6667C13.6668 12.7713 12.7714 13.6667 11.6668 13.6667H2.3335C1.22893 13.6667 0.333496 12.7713 0.333496 11.6667V9.00004C0.333496 8.63185 0.631973 8.33337 1.00016 8.33337Z" fill="#1890FF"/>
<path fill-rule="evenodd" clip-rule="evenodd" d="M3.19526 5.19526C3.45561 4.93491 3.87772 4.93491 4.13807 5.19526L7 8.05719L9.86193 5.19526C10.1223 4.93491 10.5444 4.93491 10.8047 5.19526C11.0651 5.45561 11.0651 5.87772 10.8047 6.13807L7.4714 9.4714C7.21106 9.73175 6.78894 9.73175 6.5286 9.4714L3.19526 6.13807C2.93491 5.87772 2.93491 5.45561 3.19526 5.19526Z" fill="#1890FF"/>
<path fill-rule="evenodd" clip-rule="evenodd" d="M7.00016 0.333374C7.36835 0.333374 7.66683 0.631851 7.66683 1.00004V9.00004C7.66683 9.36823 7.36835 9.66671 7.00016 9.66671C6.63197 9.66671 6.3335 9.36823 6.3335 9.00004V1.00004C6.3335 0.631851 6.63197 0.333374 7.00016 0.333374Z" fill="#1890FF"/>
</svg>
