<svg width="55" height="55" viewBox="0 0 55 55" fill="none" xmlns="http://www.w3.org/2000/svg">
<path fill-rule="evenodd" clip-rule="evenodd" d="M27.5 5C15.0736 5 5 15.0736 5 27.5C5 39.9264 15.0736 50 27.5 50C39.9264 50 50 39.9264 50 27.5C50 15.0736 39.9264 5 27.5 5ZM0 27.5C0 12.3122 12.3122 0 27.5 0C42.6878 0 55 12.3122 55 27.5C55 42.6878 42.6878 55 27.5 55C12.3122 55 0 42.6878 0 27.5Z" fill="url(#paint0_linear_10178_10705)"/>
<path fill-rule="evenodd" clip-rule="evenodd" d="M16.9568 19.0403C17.5428 18.4542 18.3377 18.125 19.1665 18.125H26.4582C27.0335 18.125 27.4998 18.5914 27.4998 19.1667C27.4998 19.742 27.0335 20.2083 26.4582 20.2083H19.1665C18.8902 20.2083 18.6253 20.3181 18.4299 20.5134C18.2346 20.7088 18.1248 20.9737 18.1248 21.25V35.8333C18.1248 36.1096 18.2346 36.3746 18.4299 36.5699C18.6253 36.7653 18.8902 36.875 19.1665 36.875H33.7498C34.0261 36.875 34.2911 36.7653 34.4864 36.5699C34.6818 36.3746 34.7915 36.1096 34.7915 35.8333V28.5417C34.7915 27.9664 35.2579 27.5 35.8332 27.5C36.4085 27.5 36.8748 27.9664 36.8748 28.5417V35.8333C36.8748 36.6621 36.5456 37.457 35.9595 38.043C35.3735 38.6291 34.5786 38.9583 33.7498 38.9583H19.1665C18.3377 38.9583 17.5428 38.6291 16.9568 38.043C16.3707 37.457 16.0415 36.6621 16.0415 35.8333V21.25C16.0415 20.4212 16.3707 19.6263 16.9568 19.0403Z" fill="url(#paint1_linear_10178_10705)"/>
<path fill-rule="evenodd" clip-rule="evenodd" d="M35.8332 17.9986C35.5234 17.9986 35.2263 18.1217 35.0073 18.3407L25.3154 28.0325L24.7648 30.235L26.9673 29.6844L36.6591 19.9926C36.8782 19.7735 37.0012 19.4764 37.0012 19.1667C37.0012 18.8569 36.8782 18.5598 36.6591 18.3407C36.4401 18.1217 36.143 17.9986 35.8332 17.9986ZM33.5341 16.8676C34.1439 16.2578 34.9709 15.9153 35.8332 15.9153C36.6955 15.9153 37.5225 16.2578 38.1323 16.8676C38.742 17.4773 39.0846 18.3043 39.0846 19.1667C39.0846 20.029 38.742 20.856 38.1323 21.4657L28.2364 31.3616C28.1029 31.4951 27.9357 31.5898 27.7525 31.6356L23.5858 32.6772C23.2309 32.766 22.8554 32.662 22.5966 32.4032C22.3379 32.1445 22.2339 31.769 22.3226 31.414L23.3643 27.2474C23.4101 27.0642 23.5048 26.8969 23.6383 26.7634L33.5341 16.8676Z" fill="url(#paint2_linear_10178_10705)"/>
<defs>
<linearGradient id="paint0_linear_10178_10705" x1="-27.5" y1="27.5" x2="27.5" y2="82.5" gradientUnits="userSpaceOnUse">
<stop stop-color="#AF0101"/>
<stop offset="1" stop-color="#F00000"/>
</linearGradient>
<linearGradient id="paint1_linear_10178_10705" x1="5.62484" y1="28.5417" x2="26.4582" y2="49.375" gradientUnits="userSpaceOnUse">
<stop stop-color="#AF0101"/>
<stop offset="1" stop-color="#F00000"/>
</linearGradient>
<linearGradient id="paint2_linear_10178_10705" x1="13.895" y1="24.3118" x2="30.688" y2="41.1049" gradientUnits="userSpaceOnUse">
<stop stop-color="#AF0101"/>
<stop offset="1" stop-color="#F00000"/>
</linearGradient>
</defs>
</svg>
