<svg width="41" height="42" fill="none" xmlns="http://www.w3.org/2000/svg"><circle cx="20.5" cy="21" r="20" fill="#fff" stroke="#F1F5F9"/><path fill-rule="evenodd" clip-rule="evenodd" d="M16.702 21.137c2.097-.057 3.454-.916 7.4-1.98 2.424-.654 5.347-.026 7.37.15a.201.201 0 0 0 .214-.243 11.42 11.42 0 0 0-1.452-3.6.202.202 0 0 0-.152-.094c-2.506-.253-4.193-.21-5.619.087-4.03.836-4.163 2.082-7.887 2.663-3.02.472-5.446.219-6.917-.063-.156-.026-.158-.026-.207.106a11.371 11.371 0 0 0-.395 1.83.202.202 0 0 0 .15.222c3.21.814 4.987.996 7.495.922ZM31.942 20.827a.2.2 0 0 0-.13-.188c-2.435-.895-4.701-.499-7.148.009-3.271.68-3.88 2.357-8.381 2.781a23.032 23.032 0 0 1-7.092-.427c-.092-.022-.132.057-.115.13.07.493.171.98.305 1.458.02.072.078.126.15.142 3.426.766 6.363 1.052 8.85.77 4.514-.51 3.549-1.838 7.53-1.798 1.766.018 3.847.434 5.544.443.097 0 .18-.067.2-.162.144-.74.288-1.744.288-2.483l-.001-.675ZM30.862 25.823c-2.248-.681-4.42-.998-5.596-.832-3.712.526-3.394 1.684-7.478 2.57-2.93.607-5.099.424-6.39.163-.49-.078-.57.043-.335.408a11.495 11.495 0 0 0 19.925-2.036.202.202 0 0 0-.126-.273ZM10.708 15.937c1.31.228 2.639.34 3.969.334 5.09-.07 5.483-1.128 8.135-1.939 2.799-.855 4.373-.46 5.904-.626.02 0 .041-.004.061-.007a.05.05 0 0 0 .04-.073.015.015 0 0 0-.004-.006l-.047-.05a11.492 11.492 0 0 0-18.199 2.068.202.202 0 0 0 .141.3Z" fill="#F40009"/></svg>