<svg width="46" height="47" viewBox="0 0 46 47" fill="none" xmlns="http://www.w3.org/2000/svg">
<ellipse cx="22.7812" cy="23.8607" rx="22.7812" ry="22.7244" fill="#E8EBF7"/>
<g opacity="0.6">
<g opacity="0.8">
<g opacity="0.3">
<path d="M29.8055 9.67189H21.0867C20.8617 9.67189 20.693 9.50356 20.693 9.27912C20.693 9.05468 20.8617 8.88635 21.0867 8.88635H29.8055C30.0305 8.88635 30.1992 9.05468 30.1992 9.27912C30.1992 9.50356 30.0305 9.67189 29.8055 9.67189Z" fill="#999999"/>
<path d="M18.3305 9.67189H16.643C16.418 9.67189 16.2492 9.50356 16.2492 9.27912C16.2492 9.05468 16.418 8.88635 16.643 8.88635H18.3305C18.5555 8.88635 18.7242 9.05468 18.7242 9.27912C18.7242 9.50356 18.5555 9.67189 18.3305 9.67189Z" fill="#999999"/>
<path fill-rule="evenodd" clip-rule="evenodd" d="M16.643 7.03474H17.4305V6.24921H16.643V7.03474ZM18.9492 7.03474H18.1617V6.24921H18.9492V7.03474ZM19.6805 7.03474H20.468V6.24921H19.6805V7.03474ZM21.9867 7.03474H21.1992V6.24921H21.9867V7.03474ZM22.718 7.03474H23.5055V6.24921H22.718V7.03474ZM24.2367 7.03474H25.0242V6.24921H24.2367V7.03474Z" fill="#999999"/>
</g>
<g opacity="0.3">
<path d="M29.8055 43.0011H21.0867C20.8617 43.0011 20.693 42.8327 20.693 42.6083C20.693 42.3838 20.8617 42.2155 21.0867 42.2155H29.8055C30.0305 42.2155 30.1992 42.3838 30.1992 42.6083C30.1992 42.8327 30.0305 43.0011 29.8055 43.0011Z" fill="#999999"/>
<path d="M18.3305 43.0011H16.643C16.418 43.0011 16.2492 42.8327 16.2492 42.6083C16.2492 42.3838 16.418 42.2155 16.643 42.2155H18.3305C18.5555 42.2155 18.7242 42.3838 18.7242 42.6083C18.7242 42.8327 18.5555 43.0011 18.3305 43.0011Z" fill="#999999"/>
<path fill-rule="evenodd" clip-rule="evenodd" d="M16.643 40.3639H17.4305V39.5784H16.643V40.3639ZM18.9492 40.3639H18.1617V39.5784H18.9492V40.3639ZM19.6805 40.3639H20.468V39.5784H19.6805V40.3639ZM21.9867 40.3639H21.1992V39.5784H21.9867V40.3639ZM22.718 40.3639H23.5055V39.5784H22.718V40.3639ZM24.2367 40.3639H25.0242V39.5784H24.2367V40.3639Z" fill="#999999"/>
</g>
</g>
<g opacity="0.2">
<path d="M41.618 23.6433H34.9805C34.8117 23.6433 34.6992 23.531 34.6992 23.3627C34.6992 23.1944 34.8117 23.0822 34.9805 23.0822H41.618C41.7867 23.0822 41.8992 23.1944 41.8992 23.3627C41.8992 23.4749 41.7867 23.6433 41.618 23.6433Z" fill="#999999"/>
<path d="M38.2992 22.0161H31.6617C31.493 22.0161 31.3805 21.9038 31.3805 21.7355C31.3805 21.5672 31.493 21.455 31.6617 21.455H38.2992C38.468 21.455 38.5805 21.5672 38.5805 21.7355C38.5805 21.9038 38.468 22.0161 38.2992 22.0161Z" fill="#999999"/>
<path d="M14.2242 23.6433H7.58672C7.41797 23.6433 7.30547 23.531 7.30547 23.3627C7.30547 23.1944 7.41797 23.0822 7.58672 23.0822H14.2242C14.393 23.0822 14.5055 23.1944 14.5055 23.3627C14.5055 23.4749 14.393 23.6433 14.2242 23.6433Z" fill="#999999"/>
<path d="M10.9055 22.0161H4.26797C4.09922 22.0161 3.98672 21.9038 3.98672 21.7355C3.98672 21.5672 4.09922 21.455 4.26797 21.455H10.9055C11.0742 21.455 11.1867 21.5672 11.1867 21.7355C11.1867 21.9038 11.0742 22.0161 10.9055 22.0161Z" fill="#999999"/>
</g>
</g>
<path d="M19.8288 36.837L20.1677 36.7684C20.6149 36.678 20.6149 36.0403 20.1677 35.9498L19.8288 35.8813C18.9749 35.7086 18.3076 35.0429 18.1345 34.1912L18.0658 33.8532C17.9751 33.407 17.3358 33.407 17.2451 33.8532L17.1764 34.1912C17.0033 35.0429 16.336 35.7086 15.4822 35.8813L15.1433 35.9498C14.696 36.0403 14.696 36.678 15.1433 36.7684L15.4822 36.837C16.336 37.0096 17.0033 37.6753 17.1764 38.527L17.2451 38.865C17.3358 39.3112 17.9751 39.3112 18.0658 38.865L18.1345 38.527C18.3076 37.6753 18.9749 37.0096 19.8288 36.837Z" fill="#F9D366"/>
<path d="M35.7971 10.8048C35.595 10.8048 35.4312 10.6417 35.4312 10.4405V9.45407C35.4312 9.25288 35.595 9.08978 35.7971 9.08978C35.9991 9.08978 36.1629 9.25288 36.1629 9.45407V10.4405C36.1629 10.6416 35.9992 10.8048 35.7971 10.8048Z" fill="#DD8833"/>
<path d="M35.7971 13.4603C35.595 13.4603 35.4312 13.2972 35.4312 13.096V12.1096C35.4312 11.9085 35.595 11.7454 35.7971 11.7454C35.9991 11.7454 36.1629 11.9085 36.1629 12.1096V13.096C36.1629 13.2972 35.9992 13.4603 35.7971 13.4603Z" fill="#DD8833"/>
<path d="M37.6259 11.6393H36.6352C36.4332 11.6393 36.2694 11.4762 36.2694 11.275C36.2694 11.0738 36.4332 10.9107 36.6352 10.9107H37.6259C37.8279 10.9107 37.9917 11.0738 37.9917 11.275C37.9917 11.4762 37.8279 11.6393 37.6259 11.6393Z" fill="#DD8833"/>
<path d="M34.9589 11.6393H33.9682C33.7661 11.6393 33.6023 11.4762 33.6023 11.275C33.6023 11.0738 33.7661 10.9107 33.9682 10.9107H34.9589C35.1609 10.9107 35.3247 11.0738 35.3247 11.275C35.3247 11.4762 35.1609 11.6393 34.9589 11.6393Z" fill="#DD8833"/>
<path d="M13.0158 18.1902C12.8138 18.1902 12.65 18.0271 12.65 17.8259V16.8395C12.65 16.6383 12.8138 16.4752 13.0158 16.4752C13.2179 16.4752 13.3817 16.6383 13.3817 16.8395V17.8259C13.3817 18.0271 13.2179 18.1902 13.0158 18.1902Z" fill="#DD8833"/>
<path d="M13.0158 20.8458C12.8138 20.8458 12.65 20.6827 12.65 20.4815V19.4951C12.65 19.2939 12.8138 19.1308 13.0158 19.1308C13.2179 19.1308 13.3817 19.2939 13.3817 19.4951V20.4815C13.3817 20.6827 13.2179 20.8458 13.0158 20.8458Z" fill="#DD8833"/>
<path d="M14.8446 19.0247H13.854C13.6519 19.0247 13.4881 18.8617 13.4881 18.6605C13.4881 18.4593 13.6519 18.2962 13.854 18.2962H14.8446C15.0467 18.2962 15.2105 18.4593 15.2105 18.6605C15.2105 18.8617 15.0467 19.0247 14.8446 19.0247Z" fill="#DD8833"/>
<path d="M12.1776 19.0247H11.187C10.9849 19.0247 10.8211 18.8617 10.8211 18.6605C10.8211 18.4593 10.9849 18.2962 11.187 18.2962H12.1776C12.3797 18.2962 12.5435 18.4593 12.5435 18.6605C12.5435 18.8617 12.3797 19.0247 12.1776 19.0247Z" fill="#DD8833"/>
<path d="M21.4953 14.555L22.9541 14.2628C23.6427 14.1249 23.6427 13.1526 22.9541 13.0147L21.4953 12.7225C20.0578 12.4346 18.9343 11.3248 18.6428 9.90478L18.3471 8.46376C18.2075 7.78348 17.2232 7.78348 17.0836 8.46376L16.7878 9.90478C16.4964 11.3248 15.3729 12.4346 13.9354 12.7225L12.4766 13.0147C11.788 13.1526 11.788 14.1249 12.4766 14.2628L13.9354 14.555C15.3729 14.8429 16.4964 15.9527 16.7878 17.3728L17.0836 18.8138C17.2232 19.4941 18.2075 19.4941 18.3471 18.8138L18.6428 17.3728C18.9343 15.9527 20.0578 14.8429 21.4953 14.555Z" fill="#F9D366"/>
<path d="M36.9384 27.7942L38.0587 27.5699C38.5876 27.4639 38.5876 26.7172 38.0587 26.6113L36.9384 26.3869C35.8344 26.1658 34.9716 25.3135 34.7478 24.2229L34.5206 23.1163C34.4134 22.5938 33.6575 22.5938 33.5504 23.1163L33.3232 24.2229C33.0993 25.3135 32.2366 26.1658 31.1326 26.3869L30.0123 26.6113C29.4834 26.7172 29.4834 27.4639 30.0123 27.5699L31.1326 27.7942C32.2366 28.0154 33.0994 28.8676 33.3232 29.9582L33.5504 31.0649C33.6576 31.5874 34.4135 31.5874 34.5206 31.0649L34.7478 29.9582C34.9717 28.8677 35.8345 28.0153 36.9384 27.7942Z" fill="#F9D366"/>
<path d="M25.5 41.1772C25.3619 41.1772 25.2499 41.0652 25.2499 40.9271V40.2501C25.2499 40.112 25.3619 40 25.5 40C25.6381 40 25.75 40.112 25.75 40.2501V40.9271C25.75 41.0652 25.6381 41.1772 25.5 41.1772Z" fill="#DD8833"/>
<path d="M25.5 43C25.3619 43 25.2499 42.8881 25.2499 42.7499V42.0729C25.2499 41.9348 25.3619 41.8228 25.5 41.8228C25.6381 41.8228 25.75 41.9348 25.75 42.0729V42.7499C25.75 42.8881 25.6381 43 25.5 43Z" fill="#DD8833"/>
<path d="M26.75 41.7501H26.0729C25.9348 41.7501 25.8228 41.6381 25.8228 41.5C25.8228 41.3619 25.9348 41.25 26.0729 41.25H26.75C26.8881 41.25 27 41.3619 27 41.5C27 41.6381 26.8881 41.7501 26.75 41.7501Z" fill="#DD8833"/>
<path d="M24.9271 41.7501H24.25C24.1119 41.7501 24 41.6381 24 41.5C24 41.3619 24.1119 41.25 24.25 41.25H24.9271C25.0652 41.25 25.1772 41.3619 25.1772 41.5C25.1772 41.6381 25.0652 41.7501 24.9271 41.7501Z" fill="#DD8833"/>
<path d="M22.1196 10.7941H24.6285V12.2735H22.1196V10.7941Z" fill="black"/>
<path d="M25.8366 36.2207C25.8366 36.2207 27.9273 34.9724 27.091 33.0308V26.1887C27.091 26.1887 27.3698 25.7264 27.2769 25.3104V19.7627C27.2769 19.7627 27.4627 19.3929 27.184 19.0231C27.184 19.0231 26.487 15.2784 24.4427 12.7358V12.2735H23.3276V36.2207H25.8366Z" fill="#711012"/>
<path d="M20.8651 36.2207C20.8651 36.2207 18.7743 34.9724 19.6106 33.0308V26.1887C19.6106 26.1887 19.3318 25.7264 19.4247 25.3104V19.7627C19.4247 19.7627 19.2389 19.3929 19.5177 19.0231C19.5177 19.0231 20.2146 15.2784 22.2589 12.7358V12.2735H23.374V36.2207H20.8651Z" fill="#B10012"/>
<rect x="19.4248" y="20.2713" width="3.94923" height="4.94662" fill="#FD0E22"/>
<rect x="23.3276" y="20.2713" width="3.94923" height="4.94662" fill="#CD091C"/>
<rect x="19.4248" y="24.6631" width="7.852" height="0.600991" fill="#7BB23E"/>
<rect x="19.4248" y="20.7798" width="7.852" height="0.693451" fill="black"/>
</svg>
