<svg width="45" height="45" viewBox="0 0 45 45" fill="none" xmlns="http://www.w3.org/2000/svg">
<circle cx="22.0988" cy="22.0988" r="22" fill="#E8EBF7"/>
<g opacity="0.8">
<g opacity="0.3">
<path d="M28.239 9.16848H20.1065C19.8953 9.16848 19.7369 9.01006 19.7369 8.79883C19.7369 8.58759 19.8953 8.42917 20.1065 8.42917H28.2918C28.503 8.42917 28.6615 8.58759 28.6615 8.79883C28.6086 9.01006 28.4502 9.16848 28.239 9.16848Z" fill="#999999"/>
<path d="M17.4661 9.16848H15.8818C15.6706 9.16848 15.5122 9.01006 15.5122 8.79883C15.5122 8.58759 15.6706 8.42917 15.8818 8.42917H17.4661C17.6773 8.42917 17.8357 8.58759 17.8357 8.79883C17.8357 9.01006 17.6773 9.16848 17.4661 9.16848Z" fill="#999999"/>
<path fill-rule="evenodd" clip-rule="evenodd" d="M15.8819 6.68651H16.6212V6H15.8819V6.68651ZM18.0471 6.68651H17.3077V6H18.0471V6.68651ZM18.7336 6.68651H19.4729V6H18.7336V6.68651ZM20.8987 6.68651H20.1594V6H20.8987V6.68651ZM21.5852 6.68651H22.3245V6H21.5852V6.68651ZM23.0111 6.68651H23.7504V6H23.0111V6.68651Z" fill="#999999"/>
</g>
<g opacity="0.3">
<path d="M28.239 40.5364H20.1066C19.8954 40.5364 19.7369 40.378 19.7369 40.1668C19.7369 39.9555 19.8954 39.7971 20.1066 39.7971H28.2918C28.5031 39.7971 28.6615 39.9555 28.6615 40.1668C28.6087 40.378 28.4503 40.5364 28.239 40.5364Z" fill="#999999"/>
<path d="M17.4661 40.5364H15.8819C15.6707 40.5364 15.5122 40.378 15.5122 40.1668C15.5122 39.9555 15.6707 39.7971 15.8819 39.7971H17.4661C17.6774 39.7971 17.8358 39.9555 17.8358 40.1668C17.8358 40.378 17.6774 40.5364 17.4661 40.5364Z" fill="#999999"/>
<path fill-rule="evenodd" clip-rule="evenodd" d="M15.882 38.0545H16.6213V37.3152H15.882V38.0545ZM18.0471 38.0545H17.3078V37.3152H18.0471V38.0545ZM18.7337 38.0545H19.473V37.3152H18.7337V38.0545ZM20.8988 38.0545H20.1595V37.3152H20.8988V38.0545ZM21.5853 38.0545H22.3246V37.3152H21.5853V38.0545ZM23.0111 38.0545H23.7505V37.3152H23.0111V38.0545Z" fill="#999999"/>
</g>
</g>
<g opacity="0.2">
<path d="M39.3287 22.3177H33.0973C32.9389 22.3177 32.8333 22.2121 32.8333 22.0537C32.8333 21.8952 32.9389 21.7896 33.0973 21.7896H39.3287C39.4871 21.7896 39.5927 21.8952 39.5927 22.0537C39.5927 22.1593 39.4871 22.3177 39.3287 22.3177Z" fill="#999999"/>
<path d="M36.2129 20.7863H29.9816C29.8232 20.7863 29.7176 20.6806 29.7176 20.5222C29.7176 20.3638 29.8232 20.2582 29.9816 20.2582H36.2129C36.3714 20.2582 36.477 20.3638 36.477 20.5222C36.477 20.6278 36.3714 20.7863 36.2129 20.7863Z" fill="#999999"/>
<path d="M13.6111 22.3177H7.37973C7.2213 22.3177 7.11569 22.2121 7.11569 22.0537C7.11569 21.8952 7.2213 21.7896 7.37973 21.7896H13.6111C13.7695 21.7896 13.8751 21.8952 13.8751 22.0537C13.8751 22.1593 13.7695 22.3177 13.6111 22.3177Z" fill="#999999"/>
<path d="M10.4954 20.7863H4.26404C4.10562 20.7863 4 20.6806 4 20.5222C4 20.3638 4.10562 20.2582 4.26404 20.2582H10.4954C10.6538 20.2582 10.7594 20.3638 10.7594 20.5222C10.7594 20.6278 10.6538 20.7863 10.4954 20.7863Z" fill="#999999"/>
</g>
<path d="M14.1143 33.3665C13.7861 33.249 13.432 33.178 13.1347 33.005C12.2531 32.4925 11.7946 31.69 11.7726 30.65C11.7564 29.912 11.7691 29.1735 11.7691 28.435C11.7691 28.011 11.8612 27.9145 12.2712 27.9145H16.4398V27.623C16.4398 23.685 16.4398 19.7468 16.4398 15.8085C16.4398 15.0295 16.6524 14.3405 17.1863 13.7725C17.6761 13.25 18.282 12.9725 18.9887 12.9315C19.0867 12.9255 19.1847 12.9265 19.2826 12.9265H31.7925V13.605C31.3591 13.6068 30.9384 13.7545 30.5954 14.025C30.0449 14.4635 29.7902 15.0405 29.7907 15.756C29.7956 20.6517 29.7964 25.5472 29.7931 30.4425C29.7931 30.5425 29.7956 30.6425 29.7882 30.7425C29.7074 31.853 29.1809 32.6595 28.1905 33.1305C27.9584 33.241 27.6983 33.29 27.4514 33.367L14.1143 33.3665ZM17.1143 27.91H24.6405C25.0137 27.91 25.118 28.0175 25.1185 28.396C25.1185 29.108 25.1185 29.8198 25.1185 30.5315C25.1131 30.9387 25.2146 31.3399 25.4124 31.6935C25.9757 32.7045 27.4088 32.997 28.3022 32.28C28.8664 31.83 29.1231 31.24 29.1226 30.5135C29.1197 25.6375 29.1197 20.7615 29.1226 15.8855C29.1226 15.766 29.1226 15.646 29.129 15.5265C29.1579 14.839 29.418 14.253 29.8779 13.7555C29.9141 13.7165 29.9464 13.674 30.0013 13.6085H23.4145C22.0069 13.6085 20.5993 13.6085 19.192 13.6085C18.7135 13.6085 18.2785 13.7365 17.9009 14.0405C17.3567 14.478 17.1113 15.054 17.1118 15.7595C17.1161 19.7312 17.1169 23.7025 17.1143 27.6735V27.91ZM12.449 28.6175C12.4446 28.6795 12.4377 28.731 12.4377 28.7825C12.4377 29.388 12.4328 29.9935 12.4377 30.5985C12.4475 31.784 13.3193 32.6795 14.4851 32.681C18.0442 32.6853 21.6024 32.6853 25.1597 32.681C25.2057 32.681 25.2513 32.6715 25.3238 32.6635C24.7223 32.0785 24.4421 31.3845 24.4421 30.5735C24.4397 29.9945 24.4421 29.416 24.4421 28.837V28.6165L12.449 28.6175Z" fill="#CCD8E5"/>
<path d="M17.1143 27.91V27.673C17.1143 23.702 17.1135 19.7307 17.1118 15.759C17.1118 15.0535 17.3567 14.4775 17.9009 14.04C18.2785 13.736 18.7135 13.6075 19.192 13.608C20.5997 13.611 22.0072 13.611 23.4145 13.608H30.0008C29.946 13.6735 29.9136 13.716 29.8774 13.755C29.4175 14.255 29.1574 14.8385 29.1285 15.526C29.1236 15.6455 29.1221 15.7655 29.1221 15.885C29.1221 20.761 29.1221 25.637 29.1221 30.513C29.1221 31.2395 28.866 31.8275 28.3017 32.2795C27.4064 32.9965 25.9732 32.704 25.4119 31.693C25.2141 31.3394 25.1126 30.9382 25.118 30.531C25.118 29.819 25.118 29.1072 25.118 28.3955C25.118 28.017 25.0132 27.9095 24.64 27.9095H17.1143V27.91ZM26.7882 32H27.4544V31.3405C27.5117 31.3285 27.5499 31.3195 27.5881 31.3125C28.0916 31.2155 28.3997 30.8915 28.4477 30.3725C28.4718 30.1076 28.4731 29.8411 28.4516 29.576C28.4026 28.9985 28.046 28.6435 27.4798 28.6015C27.2594 28.585 27.039 28.6015 26.8162 28.59C26.5835 28.579 26.4709 28.466 26.4606 28.2295C26.4518 28.0175 26.4522 27.804 26.4606 27.5915C26.4689 27.379 26.5752 27.258 26.7863 27.2445C27.0073 27.231 27.2289 27.231 27.45 27.2445C27.6591 27.2575 27.76 27.373 27.7806 27.5905C27.7904 27.694 27.7904 27.7985 27.7953 27.9035H28.4438C28.5295 27.1465 28.288 26.8115 27.4431 26.518V25.877H26.7853V26.535C26.7363 26.5475 26.7035 26.5575 26.6722 26.563C26.1486 26.6545 25.8395 26.981 25.7905 27.523C25.7689 27.7748 25.7676 28.028 25.7866 28.28C25.8307 28.87 26.1819 29.23 26.7593 29.277C26.9798 29.296 27.2002 29.277 27.4235 29.2875C27.6469 29.298 27.7664 29.403 27.7791 29.626C27.7913 29.8452 27.7913 30.0648 27.7791 30.284C27.7673 30.5075 27.6522 30.624 27.4323 30.6365C27.2242 30.648 27.0155 30.648 26.8073 30.6365C26.5796 30.6235 26.4718 30.502 26.4576 30.2665C26.4518 30.17 26.4576 30.073 26.4576 29.977H25.7886C25.7655 30.29 25.7773 30.577 25.9355 30.8395C26.1285 31.1575 26.4278 31.295 26.7878 31.337L26.7882 32ZM28.4506 15.658H17.7878V16.3185H28.4506V15.658ZM26.4424 14.2955H19.791V14.959H26.4434L26.4424 14.2955ZM22.4408 20.433H18.4563V21.0935H22.4408V20.433ZM21.7747 17.7035H18.4578V18.3695H21.7747V17.7035ZM21.7669 23.82V23.157H18.4568V23.82H21.7669ZM18.4534 19.7305H21.0983V19.073H18.4534V19.7305ZM18.4534 22.4535H20.4415V21.8H18.4529L18.4534 22.4535ZM27.1228 17.69H26.9469C26.4175 17.69 26.4204 17.69 26.4449 18.234C26.4498 18.3445 26.4836 18.387 26.5918 18.384C26.8255 18.3785 27.0596 18.384 27.2932 18.384C27.8222 18.384 27.8193 18.384 27.7953 17.84C27.7909 17.729 27.7561 17.6865 27.6483 17.69C27.473 17.6945 27.2976 17.6905 27.1223 17.69H27.1228ZM26.4571 22.457H27.7796V21.796H26.4571V22.457ZM26.4571 23.817H27.7796V23.1555H26.4571V23.817ZM26.4571 21.095H27.7796V20.435H26.4571V21.095ZM26.4488 19.0685C26.4488 19.2685 26.4429 19.4605 26.4542 19.65C26.4542 19.6845 26.5262 19.741 26.5659 19.742C26.9355 19.749 27.3053 19.749 27.6753 19.742C27.7144 19.742 27.7845 19.684 27.7864 19.6495C27.7977 19.46 27.7918 19.2695 27.7918 19.0685H26.4488Z" fill="white"/>
<path d="M12.449 28.631L24.4402 28.6055C24.4402 28.685 24.4402 28.7555 24.4402 28.8265C24.4402 29.405 24.4402 29.984 24.4441 30.5625C24.449 31.3735 24.7277 32.067 25.3306 32.65C25.2581 32.6585 25.2126 32.668 25.167 32.6685C21.6078 32.6765 18.0495 32.6837 14.4919 32.69C13.3306 32.691 12.4524 31.8 12.4397 30.6125C12.4333 30.007 12.4362 29.4015 12.4358 28.796C12.4358 28.7445 12.4426 28.693 12.449 28.631Z" fill="#F7F9FC"/>
<path d="M26.7882 32V31.337C26.4282 31.295 26.129 31.1575 25.936 30.8395C25.7773 30.578 25.7656 30.2895 25.7891 29.977H26.4571C26.4571 30.073 26.4522 30.17 26.4571 30.2665C26.4713 30.502 26.5791 30.6235 26.8069 30.6365C27.015 30.648 27.2237 30.648 27.4318 30.6365C27.6518 30.624 27.7669 30.5075 27.7786 30.284C27.7909 30.0649 27.7909 29.8452 27.7786 29.626C27.7649 29.403 27.6459 29.2955 27.423 29.2875C27.2002 29.2795 26.9793 29.296 26.7589 29.277C26.1814 29.227 25.8282 28.87 25.7861 28.28C25.7671 28.028 25.7684 27.7748 25.79 27.523C25.839 26.981 26.1476 26.6545 26.6717 26.563C26.703 26.5575 26.7339 26.5475 26.7848 26.535V25.877H27.4441V26.5175C28.289 26.811 28.5305 27.146 28.4447 27.903H27.7967C27.7918 27.798 27.7918 27.6935 27.782 27.59C27.7615 27.3725 27.6606 27.257 27.4514 27.244C27.2304 27.2305 27.0088 27.2305 26.7878 27.244C26.5767 27.2575 26.4723 27.3725 26.462 27.591C26.4518 27.8095 26.4518 28.017 26.462 28.229C26.4723 28.4655 26.585 28.579 26.8176 28.5895C27.0385 28.5995 27.2609 28.5845 27.4813 28.601C28.0475 28.643 28.4065 28.998 28.4531 29.5755C28.4745 29.8406 28.4732 30.1071 28.4491 30.372C28.4002 30.891 28.0931 31.215 27.5896 31.312C27.5513 31.319 27.5131 31.328 27.4558 31.34V32H26.7882Z" fill="#6EAC34"/>
<path d="M28.4506 15.658V16.3185H17.7878V15.658H28.4506Z" fill="white"/>
<path d="M26.4434 14.2955V14.959H19.791V14.2955H26.4434Z" fill="white"/>
<path d="M22.4408 20.433V21.0935H18.4563V20.433H22.4408Z" fill="#FF0000"/>
<path d="M21.7551 17.7035V18.3625H18.4735V17.7035H21.7551Z" fill="#FF0000"/>
<path d="M21.7669 23.82H18.4568V23.157H21.7669V23.82Z" fill="#FF0000"/>
<path d="M18.4735 19.7085V19.0585H21.0919V19.7085H18.4735Z" fill="#FF0000"/>
<path d="M18.4735 22.4V21.7545H20.4375V22.4H18.4735Z" fill="#FF0000"/>
<path d="M27.1223 17.6905C27.2976 17.6905 27.473 17.6945 27.6483 17.6905C27.7571 17.687 27.7918 17.7295 27.7953 17.8405C27.8193 18.3845 27.8222 18.3845 27.2932 18.3845C27.0596 18.3845 26.8255 18.3805 26.5918 18.3845C26.4826 18.3845 26.4488 18.3445 26.4449 18.2345C26.4204 17.6905 26.4175 17.6905 26.9469 17.6905H27.1223Z" fill="#CD091C"/>
<path d="M26.4571 22.457V21.796H27.7796V22.457H26.4571Z" fill="#CD091C"/>
<path d="M26.4571 23.817V23.1555H27.7796V23.817H26.4571Z" fill="#CD091C"/>
<path d="M26.4571 21.095V20.435H27.7796V21.095H26.4571Z" fill="#CD091C"/>
<path d="M26.4493 19.0685H27.7923C27.7923 19.2685 27.7982 19.46 27.7869 19.6495C27.7869 19.684 27.7149 19.741 27.6758 19.742C27.3058 19.749 26.936 19.749 26.5664 19.742C26.5267 19.742 26.4567 19.6845 26.4547 19.65C26.4434 19.4605 26.4493 19.27 26.4493 19.0685Z" fill="#CD091C"/>
</svg>
