<svg width="20" height="20" viewBox="0 0 20 20" fill="none" xmlns="http://www.w3.org/2000/svg">
<path fill-rule="evenodd" clip-rule="evenodd" d="M3.09636 4.39326H12.5887C12.834 3.66455 13.5233 3.13806 14.3337 3.13806C15.1441 3.13806 15.8333 3.66455 16.0787 4.39326H16.9036C17.2272 4.39326 17.4896 4.6556 17.4896 4.97919C17.4896 5.30279 17.2272 5.56513 16.9036 5.56513H16.0786C15.8333 6.29384 15.144 6.82033 14.3336 6.82033C13.5233 6.82033 12.834 6.29384 12.5886 5.56513H3.09632C2.77273 5.56513 2.51038 5.30279 2.51038 4.97919C2.51038 4.6556 2.77273 4.39326 3.09636 4.39326ZM3.09636 9.41719H4.48941C4.73476 8.68848 5.42406 8.16199 6.23441 8.16199C7.04476 8.16199 7.73402 8.68848 7.97937 9.41719H16.9036C17.2272 9.41719 17.4896 9.67953 17.4896 10.0031C17.4896 10.3267 17.2272 10.5891 16.9036 10.5891H7.97937C7.73402 11.3178 7.04472 11.8443 6.23437 11.8443C5.42402 11.8443 4.73472 11.3178 4.48937 10.5891H3.09632C2.77273 10.5891 2.51038 10.3267 2.51038 10.0031C2.51038 9.67953 2.77273 9.41719 3.09636 9.41719ZM9.51019 14.4411H3.09636C2.77273 14.4411 2.51038 14.7035 2.51038 15.0271C2.51038 15.3507 2.77273 15.613 3.09632 15.613H9.51019C9.75554 16.3417 10.4448 16.8682 11.2552 16.8682C12.0656 16.8682 12.7548 16.3417 13.0002 15.613H16.9036C17.2272 15.613 17.4896 15.3507 17.4896 15.0271C17.4896 14.7035 17.2272 14.4411 16.9036 14.4411H13.0002C12.7548 13.7124 12.0656 13.1859 11.2552 13.1859C10.4448 13.1859 9.75554 13.7124 9.51019 14.4411Z" fill="#424B55"/>
</svg>
