<svg width="45" height="45" viewBox="0 0 45 45" fill="none" xmlns="http://www.w3.org/2000/svg">
<ellipse cx="22.5" cy="22.4549" rx="22.5" ry="22.4439" fill="#E8EBF7"/>
<path d="M23.1244 24.9939L25.5892 27.4595L26.4871 26.5609L24.9201 24.9939H23.1244Z" fill="#FA8084"/>
<path d="M22.9607 23.0351L22.0629 23.9324L23.1243 24.9939H24.92L26.487 26.5609L27.3849 25.6635L23.8586 22.1372L22.9607 23.0351Z" fill="#F40009"/>
<path d="M11.1265 17.4282C10.9253 21.5969 14.141 25.139 18.3095 25.3401C20.3935 25.4413 22.322 24.6872 23.7539 23.3873L13.5948 12.1979C12.1629 13.4978 11.2269 15.344 11.1265 17.4282Z" fill="white"/>
<path d="M23.509 23.3229C24.9562 22.0407 25.9143 20.2059 26.0399 18.1228C26.292 13.9572 23.1194 10.3764 18.9535 10.1244C16.8706 9.9983 14.9339 10.7286 13.4864 12.0111L23.509 23.3229Z" fill="#E8EBF7"/>
<path d="M12.4224 11.0343L14.1792 12.9884C16.7395 10.6879 20.6941 10.8989 22.995 13.4588C25.2951 16.0195 25.0841 19.9736 22.5246 22.2747L24.2813 24.2298C27.9193 20.9601 28.2192 15.34 24.9498 11.7028C21.6805 8.0645 16.0608 7.7646 12.4224 11.0343Z" fill="#354455"/>
<path d="M13.926 21.7539C11.5874 19.2292 11.7388 15.2713 14.2643 12.932L12.4784 11.0044C8.88949 14.3271 8.67422 19.9511 11.9977 23.54C15.3216 27.1286 20.9452 27.3443 24.5337 24.0207L22.7479 22.0921C20.2224 24.4308 16.265 24.279 13.926 21.7539Z" fill="#9BB0C7"/>
<path d="M26.4871 26.5609L24.8196 28.2283L31.0768 34.486L32.7447 32.8186L26.4871 26.5609Z" fill="#9BB0C7"/>
<path d="M26.4872 26.5609L32.7448 32.8185L34.4127 31.1509L28.1551 24.8935L26.4872 26.5609Z" fill="#354455"/>
<path d="M34.3322 34.406L36 32.7384L34.4126 31.151L32.7448 32.8186L34.3322 34.406Z" fill="#F40009"/>
<path d="M31.0769 34.486L32.6647 36.0742L34.3322 34.406L32.7448 32.8186L31.0769 34.486Z" fill="#FA8084"/>
<g opacity="0.8">
<g opacity="0.3">
<path d="M29.0808 8.16184H20.6309C20.4114 8.16184 20.2468 7.99723 20.2468 7.77775C20.2468 7.55827 20.4114 7.39366 20.6309 7.39366H29.1357C29.3552 7.39366 29.5198 7.55827 29.5198 7.77775C29.4649 7.99723 29.3003 8.16184 29.0808 8.16184Z" fill="#999999"/>
<path d="M17.9423 8.16184H16.2962C16.0767 8.16184 15.9121 7.99723 15.9121 7.77775C15.9121 7.55827 16.0767 7.39366 16.2962 7.39366H17.9423C18.1618 7.39366 18.3264 7.55827 18.3264 7.77775C18.2715 7.99723 18.1069 8.16184 17.9423 8.16184Z" fill="#999999"/>
<path fill-rule="evenodd" clip-rule="evenodd" d="M16.2413 5.58296H17.0095V4.81479H16.2413V5.58296ZM18.491 5.58296H17.7228V4.81479H18.491V5.58296ZM19.2043 5.58296H19.9725V4.81479H19.2043V5.58296ZM21.454 5.58296H20.6858V4.81479H21.454V5.58296ZM22.1673 5.58296H22.9354V4.81479H22.1673V5.58296ZM23.6487 5.58296H24.4169V4.81479H23.6487V5.58296Z" fill="#999999"/>
</g>
<g opacity="0.3">
<path d="M29.0808 40.6996H20.6309C20.4114 40.6996 20.2468 40.535 20.2468 40.3155C20.2468 40.096 20.4114 39.9314 20.6309 39.9314H29.1357C29.3552 39.9314 29.5198 40.096 29.5198 40.3155C29.5198 40.535 29.3003 40.6996 29.0808 40.6996Z" fill="#999999"/>
<path d="M17.9423 40.6996H16.2962C16.0767 40.6996 15.9121 40.535 15.9121 40.3155C15.9121 40.096 16.0767 39.9314 16.2962 39.9314H17.9423C18.1618 39.9314 18.3264 40.096 18.3264 40.3155C18.2715 40.535 18.1069 40.6996 17.9423 40.6996Z" fill="#999999"/>
<path fill-rule="evenodd" clip-rule="evenodd" d="M16.2413 38.1207H17.0095V37.3525H16.2413V38.1207ZM18.491 38.1207H17.7228V37.3525H18.491V38.1207ZM19.2043 38.1207H19.9725V37.3525H19.2043V38.1207ZM21.454 38.1207H20.6858V37.3525H21.454V38.1207ZM22.1673 38.1207H22.9354V37.3525H22.1673V38.1207ZM23.6487 38.1207H24.4169V37.3525H23.6487V38.1207Z" fill="#999999"/>
</g>
</g>
<g opacity="0.2">
<path d="M40.6035 21.7695H34.1288C33.9642 21.7695 33.8545 21.6598 33.8545 21.4952C33.8545 21.3306 33.9642 21.2208 34.1288 21.2208H40.6035C40.7681 21.2208 40.8778 21.3306 40.8778 21.4952C40.8778 21.6598 40.7681 21.7695 40.6035 21.7695Z" fill="#999999"/>
<path d="M37.3662 20.1783H30.8915C30.7269 20.1783 30.6172 20.0686 30.6172 19.9039C30.6172 19.7393 30.7269 19.6296 30.8915 19.6296H37.3662C37.5308 19.6296 37.6405 19.7393 37.6405 19.9039C37.6954 20.0686 37.5308 20.1783 37.3662 20.1783Z" fill="#999999"/>
<path d="M13.9368 21.7695H7.46221C7.29761 21.7695 7.18787 21.6598 7.18787 21.4952C7.18787 21.3306 7.29761 21.2208 7.46221 21.2208H13.9368C14.1014 21.2208 14.2112 21.3306 14.2112 21.4952C14.2112 21.6598 14.0466 21.7695 13.9368 21.7695Z" fill="#999999"/>
<path d="M10.6995 20.1783H4.22491C4.0603 20.1783 3.95056 20.0686 3.95056 19.9039C3.95056 19.7393 4.0603 19.6296 4.22491 19.6296H10.6995C10.8641 19.6296 10.9739 19.7393 10.9739 19.9039C10.9739 20.0686 10.8093 20.1783 10.6995 20.1783Z" fill="#999999"/>
</g>
</svg>
