<svg width="45" height="45" viewBox="0 0 45 45" fill="none" xmlns="http://www.w3.org/2000/svg">
<circle cx="22.4444" cy="22.4445" r="22.2222" fill="#E8EBF7" fill-opacity="0.75"/>
<g opacity="0.8">
<g opacity="0.3">
<path d="M29.8332 7.44445H21.2777C21.0555 7.44445 20.8888 7.27778 20.8888 7.05556C20.8888 6.83334 21.0555 6.66667 21.2777 6.66667H29.8888C30.111 6.66667 30.2777 6.83334 30.2777 7.05556C30.2221 7.27778 30.0555 7.44445 29.8332 7.44445Z" fill="#999999"/>
<path d="M18.5554 7.44445H16.8888C16.6665 7.44445 16.4999 7.27778 16.4999 7.05556C16.4999 6.83334 16.6665 6.66667 16.8888 6.66667H18.5554C18.7777 6.66667 18.9443 6.83334 18.9443 7.05556C18.8888 7.27778 18.7221 7.44445 18.5554 7.44445Z" fill="#999999"/>
<path fill-rule="evenodd" clip-rule="evenodd" d="M16.8333 4.83333H17.611V4.05556H16.8333V4.83333ZM19.111 4.83333H18.3333V4.05556H19.111V4.83333ZM19.8333 4.83333H20.611V4.05556H19.8333V4.83333ZM22.111 4.83333H21.3333V4.05556H22.111V4.83333ZM22.8333 4.83333H23.611V4.05556H22.8333V4.83333ZM24.3333 4.83333H25.111V4.05556H24.3333V4.83333Z" fill="#999999"/>
</g>
<g opacity="0.3">
<path d="M29.8332 40.3889H21.2777C21.0555 40.3889 20.8888 40.2222 20.8888 40C20.8888 39.7778 21.0555 39.6111 21.2777 39.6111H29.8888C30.111 39.6111 30.2777 39.7778 30.2777 40C30.2777 40.2222 30.0555 40.3889 29.8332 40.3889Z" fill="#999999"/>
<path d="M18.5554 40.3889H16.8888C16.6665 40.3889 16.4999 40.2222 16.4999 40C16.4999 39.7778 16.6665 39.6111 16.8888 39.6111H18.5554C18.7777 39.6111 18.9443 39.7778 18.9443 40C18.8888 40.2222 18.7221 40.3889 18.5554 40.3889Z" fill="#999999"/>
<path fill-rule="evenodd" clip-rule="evenodd" d="M16.8333 37.7778H17.611V37H16.8333V37.7778ZM19.111 37.7778H18.3333V37H19.111V37.7778ZM19.8333 37.7778H20.611V37H19.8333V37.7778ZM22.111 37.7778H21.3333V37H22.111V37.7778ZM22.8333 37.7778H23.611V37H22.8333V37.7778ZM24.3333 37.7778H25.111V37H24.3333V37.7778Z" fill="#999999"/>
</g>
</g>
<g opacity="0.2">
<path d="M41.5 21.2222H34.9444C34.7777 21.2222 34.6666 21.1111 34.6666 20.9444C34.6666 20.7778 34.7777 20.6667 34.9444 20.6667H41.5C41.6666 20.6667 41.7777 20.7778 41.7777 20.9444C41.7777 21.1111 41.6666 21.2222 41.5 21.2222Z" fill="#999999"/>
<path d="M38.2221 19.6111H31.6666C31.4999 19.6111 31.3888 19.5 31.3888 19.3333C31.3888 19.1667 31.4999 19.0556 31.6666 19.0556H38.2221C38.3888 19.0556 38.4999 19.1667 38.4999 19.3333C38.5555 19.5 38.3888 19.6111 38.2221 19.6111Z" fill="#999999"/>
<path d="M14.5 21.2222H7.9444C7.77774 21.2222 7.66663 21.1111 7.66663 20.9444C7.66663 20.7778 7.77774 20.6667 7.9444 20.6667H14.5C14.6666 20.6667 14.7777 20.7778 14.7777 20.9444C14.7777 21.1111 14.6111 21.2222 14.5 21.2222Z" fill="#999999"/>
<path d="M11.2221 19.6111H4.66657C4.49991 19.6111 4.38879 19.5 4.38879 19.3333C4.38879 19.1667 4.49991 19.0556 4.66657 19.0556H11.2221C11.3888 19.0556 11.4999 19.1667 11.4999 19.3333C11.4999 19.5 11.3332 19.6111 11.2221 19.6111Z" fill="#999999"/>
</g>
<path d="M19.1775 35.4215C19.1775 35.4215 19.9329 35.5159 20.0273 35.0438C20.0273 35.0438 19.9329 34.6661 20.4994 34.9494C20.4994 34.9494 21.8213 35.7992 22.3879 34.8549C22.3879 34.8549 23.4266 33.9107 23.2377 29.8505C23.2377 29.8505 22.0102 25.6014 22.0102 24.3739L23.1433 22.2022C23.1433 22.2022 23.3321 21.7301 23.3321 20.9747V20.4081H19.1775L19.1775 35.4215Z" fill="#ED7601"/>
<rect x="19.0831" y="13.8929" width="4.15464" height="6.51523" fill="#F7AA00"/>
<path d="M19.0831 11.7212H22.8601L23.2378 12.571V13.8929H19.0831V11.7212Z" fill="#ED7601"/>
<path d="M19.0831 8.41635H20.2162C20.2162 8.41635 20.0274 8.98289 20.5939 9.45501L22.7656 11.7212H19.0831V8.41635Z" fill="#CCCCCC"/>
<path d="M19.1776 35.4215C19.1776 35.4215 18.4222 35.5159 18.2334 35.0438C18.2334 35.0438 18.3278 34.6661 17.7612 34.9494C17.7612 34.9494 16.4393 35.7992 15.8728 34.8549C15.8728 34.8549 14.8341 33.9107 15.023 29.8505C15.023 29.8505 16.3442 25.6014 16.3442 24.3739L15.2111 22.2022C15.2111 22.2022 15.0223 21.7301 15.0223 20.9747V20.4081H19.1776V35.4215Z" fill="#F39635"/>
<rect x="15.0229" y="13.8929" width="4.15464" height="6.51523" fill="#F7AA00"/>
<path d="M19.0832 11.7211H15.4006L15.0229 12.571V13.8929H19.0832V11.7211Z" fill="#F39635"/>
<path d="M19.0832 8.41635H17.9501C17.9501 8.41635 18.1389 8.98289 17.5724 9.45501L15.4006 11.7212H19.0832V8.41635Z" fill="#E2D7D1"/>
<rect x="17.8557" y="6.99998" width="2.45501" height="1.41635" fill="#FF6D02"/>
<path d="M19.7441 18.142C19.7441 18.2364 19.6497 18.2364 19.6497 18.2364C19.5553 18.2364 19.5553 18.142 19.5553 18.142C19.3664 17.5754 18.9887 17.1977 18.5166 16.9145C18.1389 16.7256 17.6668 16.6312 17.2891 16.7256C17.1947 16.7256 17.1947 16.7256 17.1947 16.6312C17.1947 16.5368 17.1947 16.5368 17.2891 16.5368C17.6668 16.3479 18.0445 16.2535 18.3278 16.2535C18.8943 16.1591 19.8386 16.4423 20.0274 17.1033C20.1218 17.3866 20.1218 17.6699 19.933 17.9531C19.8386 18.0475 19.8386 18.0475 19.7441 18.142Z" fill="#213A8E"/>
<path d="M19.7441 18.8029L19.4608 17.9531C19.4608 17.8587 19.5553 17.8587 19.6497 17.7643C19.7441 17.6698 19.8385 17.7643 19.8385 17.8587L20.1218 18.7085C20.1218 18.8029 20.0274 18.8029 19.933 18.8973C19.8385 18.8029 19.7441 18.8029 19.7441 18.8029Z" fill="#213A8E"/>
<path d="M17.1947 16.7256C17.6668 16.82 17.6668 17.1977 17.7612 17.5754C17.8556 17.8587 17.9501 18.3308 18.3278 18.5197C18.7999 18.8029 19.3664 18.6141 19.7441 18.2364C19.7441 18.2364 19.7441 18.142 19.8385 18.142V18.0476C19.6497 17.481 19.272 17.0089 18.7055 16.6312C18.2333 16.3479 17.6668 16.2535 17.2891 16.4424C17.1947 16.4424 17.1947 16.5368 17.1947 16.5368C17.1003 16.6312 17.1947 16.7256 17.1947 16.7256Z" fill="#213A8E"/>
<path d="M19.7439 17.9532C19.6495 18.0476 19.6495 18.0476 19.6495 17.9532C19.4607 17.481 19.1774 17.1033 18.7997 16.9145C18.5164 16.7256 18.0443 16.6312 17.761 16.7256C17.6666 16.7256 17.6666 16.7256 17.6666 16.6312C17.6666 16.5368 17.6666 16.5368 17.761 16.5368C18.0443 16.3479 18.3276 16.3479 18.6109 16.2535C19.083 16.1591 19.8384 16.3479 20.0272 17.0089C20.1216 17.2922 20.1216 17.481 19.9328 17.7643C19.7439 17.8587 19.7439 17.9532 19.7439 17.9532Z" fill="#62B12F"/>
<path d="M19.744 18.6141L19.5551 17.9532C19.5551 17.8587 19.5551 17.8587 19.6495 17.8587C19.744 17.8587 19.744 17.8587 19.744 17.9532L19.9328 18.6141C19.9328 18.7085 19.9328 18.7085 19.8384 18.7085C19.8384 18.7085 19.8384 18.6141 19.744 18.6141Z" fill="#9AC22B"/>
<path d="M17.5723 16.7256C17.95 16.8201 17.95 17.1033 18.0444 17.481C18.1388 17.6699 18.1388 18.0476 18.5165 18.2364C18.8942 18.4253 19.4607 18.3308 19.6496 17.9531C19.6496 17.9531 19.6496 17.9531 19.744 17.8587V17.7643C19.5552 17.2922 19.2719 16.9145 18.7998 16.6312C18.4221 16.4424 17.95 16.3479 17.5723 16.4424C17.5723 16.6312 17.5723 16.6312 17.5723 16.7256Z" fill="#008C39"/>
<path d="M28.1068 35.0064C28.1068 35.0064 28.6328 35.0722 28.6986 34.7434C28.6986 34.7434 28.6328 34.4804 29.0273 34.6777C29.0273 34.6777 29.9479 35.2694 30.3424 34.6119C30.3424 34.6119 31.0657 33.9544 30.9342 31.127C30.9342 31.127 30.0794 28.1682 30.0794 27.3134L30.8684 25.8011C30.8684 25.8011 30.9999 25.4723 30.9999 24.9463V24.5518H28.1068L28.1068 35.0064Z" fill="#ED7601"/>
<rect x="28.0411" y="20.0148" width="2.89312" height="4.53694" fill="#F7AA00"/>
<path d="M28.0411 18.5026H30.6712L30.9343 19.0943V20.0149H28.0411V18.5026Z" fill="#ED7601"/>
<path d="M28.0411 16.2012H28.8302C28.8302 16.2012 28.6987 16.5957 29.0932 16.9245L30.6055 18.5025H28.0411V16.2012Z" fill="#CCCCCC"/>
<path d="M28.1069 35.0064C28.1069 35.0064 27.5808 35.0722 27.4493 34.7434C27.4493 34.7434 27.5151 34.4804 27.1206 34.6777C27.1206 34.6777 26.2 35.2694 25.8055 34.6119C25.8055 34.6119 25.0822 33.9544 25.2137 31.127C25.2137 31.127 26.1338 28.1681 26.1338 27.3134L25.3448 25.801C25.3448 25.801 25.2133 25.4723 25.2133 24.9463V24.5517H28.1069V35.0064Z" fill="#F39635"/>
<rect x="25.2137" y="20.0148" width="2.89312" height="4.53694" fill="#F7AA00"/>
<path d="M28.0411 18.5025H25.4768L25.2137 19.0943V20.0148H28.0411V18.5025Z" fill="#F39635"/>
<path d="M28.041 16.2012H27.252C27.252 16.2012 27.3835 16.5957 26.989 16.9245L25.4767 18.5025H28.041V16.2012Z" fill="#E2D7D1"/>
<rect x="27.1863" y="15.2149" width="1.70957" height="0.98629" fill="#FF6D02"/>
<path d="M28.5015 22.9737C28.5015 23.0394 28.4358 23.0394 28.4358 23.0394C28.37 23.0394 28.37 22.9737 28.37 22.9737C28.2385 22.5791 27.9755 22.3161 27.6467 22.1189C27.3837 21.9874 27.055 21.9216 26.7919 21.9874C26.7262 21.9874 26.7262 21.9874 26.7262 21.9216C26.7262 21.8559 26.7262 21.8559 26.7919 21.8559C27.055 21.7244 27.318 21.6586 27.5152 21.6586C27.9097 21.5928 28.5673 21.7901 28.6988 22.2504C28.7645 22.4476 28.7645 22.6449 28.633 22.8421C28.5673 22.9079 28.5673 22.9079 28.5015 22.9737Z" fill="#213A8E"/>
<path d="M28.5015 23.434L28.3042 22.8422C28.3042 22.7764 28.3699 22.7764 28.4357 22.7107C28.5015 22.6449 28.5672 22.7107 28.5672 22.7764L28.7645 23.3682C28.7645 23.434 28.6987 23.434 28.633 23.4997C28.5672 23.434 28.5015 23.434 28.5015 23.434Z" fill="#213A8E"/>
<path d="M26.7261 21.9874C27.0549 22.0532 27.0549 22.3162 27.1206 22.5792C27.1864 22.7764 27.2521 23.1052 27.5152 23.2367C27.8439 23.434 28.2384 23.3025 28.5014 23.0395C28.5014 23.0395 28.5014 22.9737 28.5672 22.9737V22.908C28.4357 22.5134 28.1727 22.1847 27.7782 21.9217C27.4494 21.7244 27.0549 21.6587 26.7919 21.7902C26.7261 21.7902 26.7261 21.8559 26.7261 21.8559C26.6604 21.9217 26.7261 21.9874 26.7261 21.9874Z" fill="#213A8E"/>
<path d="M28.5014 22.8422C28.4356 22.9079 28.4356 22.9079 28.4356 22.8422C28.3041 22.5134 28.1069 22.2504 27.8438 22.1189C27.6466 21.9874 27.3178 21.9216 27.1206 21.9874C27.0548 21.9874 27.0548 21.9874 27.0548 21.9216C27.0548 21.8559 27.0548 21.8559 27.1206 21.8559C27.3178 21.7244 27.5151 21.7244 27.7123 21.6586C28.0411 21.5929 28.5671 21.7244 28.6986 22.1846C28.7644 22.3819 28.7644 22.5134 28.6329 22.7106C28.5014 22.7764 28.5014 22.8422 28.5014 22.8422Z" fill="#62B12F"/>
<path d="M28.5014 23.3024L28.3699 22.8422C28.3699 22.7764 28.3699 22.7764 28.4356 22.7764C28.5014 22.7764 28.5014 22.7764 28.5014 22.8422L28.6329 23.3024C28.6329 23.3682 28.6329 23.3682 28.5671 23.3682C28.5671 23.3682 28.5671 23.3024 28.5014 23.3024Z" fill="#9AC22B"/>
<path d="M26.9891 21.9874C27.2521 22.0531 27.2521 22.2504 27.3179 22.5134C27.3837 22.6449 27.3837 22.9079 27.6467 23.0394C27.9097 23.1709 28.3042 23.1052 28.4357 22.8422C28.4357 22.8422 28.4357 22.8422 28.5014 22.7764V22.7106C28.3699 22.3819 28.1727 22.1189 27.8439 21.9216C27.5809 21.7901 27.2521 21.7244 26.9891 21.7901C26.9891 21.9216 26.9891 21.9216 26.9891 21.9874Z" fill="#008C39"/>
</svg>
