<svg width="30" height="30" viewBox="0 0 30 30" fill="none" xmlns="http://www.w3.org/2000/svg">
<circle cx="15" cy="15" r="14.5" fill="white" stroke="#CE5DD0"/>
<path d="M12.8581 21.811C12.3377 21.9404 11.8173 21.5522 11.6872 21.0346L11.1667 18.576L13.1183 18.1877L13.6388 20.6464C13.7689 21.2934 13.3786 21.6816 12.8581 21.811Z" fill="#E0C07C"/>
<path d="M13.1184 18.1877L13.6388 20.6464C13.7689 21.164 13.3786 21.6816 12.8582 21.811L12.2076 18.4465L13.1184 18.1877Z" fill="#D7B36B"/>
<path d="M10.126 8.09436C8.69484 8.35316 7.78409 9.7766 8.04431 11.2L9.47547 18.7054C9.47547 18.9642 9.73569 19.0936 9.9959 19.0936L14.4195 18.1878C14.6797 18.1878 14.8098 17.929 14.8098 17.6702L13.3787 10.1648C12.9883 8.74137 11.6873 7.83555 10.126 8.09436Z" fill="#FFCB03"/>
<path d="M9.86566 11.0706C9.60545 11.0706 9.47534 11.3294 9.47534 11.5882L10.5162 16.7643C10.5162 17.0231 10.7764 17.1525 11.0366 17.1525C11.2968 17.1525 11.4269 16.8937 11.4269 16.6349L10.3861 11.4588C10.3861 11.2 10.1259 11.0706 9.86566 11.0706Z" fill="#EDAB05"/>
<path d="M11.5571 10.8118C11.2969 10.8118 11.1667 11.0706 11.1667 11.3294L12.2076 16.5055C12.2076 16.7643 12.4678 16.8937 12.728 16.8937C12.9882 16.8937 13.1183 16.6349 13.1183 16.3761L12.0775 11.2C11.9474 10.9412 11.8173 10.6824 11.5571 10.8118Z" fill="#EDAB05"/>
<path d="M8.95506 10.9413C8.82496 10.9413 8.82496 10.9413 8.82496 10.8119C8.69485 10.0355 8.95506 9.38845 9.6056 9.00024H9.7357L9.86581 9.12965C9.86581 9.12965 9.86581 9.25905 9.7357 9.25905C9.21528 9.64726 8.95506 10.1649 9.08517 10.8119C9.08517 10.8119 9.08517 10.9413 8.95506 10.9413C9.08517 10.9413 8.95506 10.9413 8.95506 10.9413Z" fill="white"/>
<ellipse cx="10.2562" cy="8.87086" rx="0.130107" ry="0.129403" fill="white"/>
<path d="M18.0161 24.0974C17.8648 24.0979 17.715 24.0683 17.5751 24.0097C17.4353 23.9511 17.3083 23.8648 17.2014 23.756C17.0944 23.6471 17.0097 23.5179 16.9522 23.3756C16.8946 23.2332 16.8653 23.0807 16.866 22.9268V19.856H19.1612V22.9268C19.1618 23.0801 19.1327 23.2324 19.0754 23.3742C19.0181 23.5163 18.9339 23.6455 18.8275 23.7542C18.7211 23.8629 18.5947 23.9493 18.4554 24.0081C18.3161 24.0669 18.1668 24.0974 18.0161 24.0974Z" fill="#E6BF71"/>
<path d="M19.1612 19.856V22.9268C19.1619 23.0801 19.1327 23.2324 19.0755 23.3742C19.0182 23.5163 18.934 23.6455 18.8276 23.7542C18.7212 23.8629 18.5948 23.9493 18.4555 24.0081C18.3162 24.0669 18.1669 24.0974 18.0161 24.0974V19.856H19.1612Z" fill="#DEB25E"/>
<path d="M18.0161 7C17.5957 6.99935 17.1792 7.08295 16.7906 7.2461C16.402 7.40922 16.0487 7.64867 15.751 7.95076C15.4532 8.25286 15.2169 8.61169 15.0554 9.00675C14.8939 9.40182 14.8105 9.82537 14.8098 10.2533V19.5215C14.8098 19.6559 14.8623 19.7848 14.9556 19.8798C15.049 19.9748 15.1756 20.0282 15.3077 20.0282H18.0161V7Z" fill="#F40004"/>
<path d="M18.7927 7.11149C18.5361 7.04112 18.2718 7.00368 18.0061 7V20.0231H20.7095C20.8415 20.0231 20.9682 19.9698 21.0615 19.8747C21.1549 19.7797 21.2074 19.6508 21.2074 19.5164V10.2533C21.2046 9.53106 20.9658 8.83034 20.5286 8.26152C20.0914 7.69268 19.4807 7.28808 18.7927 7.11149Z" fill="#F40004"/>
<path d="M17.0303 10.5371C16.8983 10.5371 16.7717 10.5905 16.6783 10.6856C16.5849 10.7806 16.5325 10.9095 16.5325 11.0439V17.5504C16.5325 17.6848 16.5849 17.8137 16.6783 17.9087C16.7717 18.0037 16.8983 18.0571 17.0303 18.0571C17.1624 18.0571 17.289 18.0037 17.3824 17.9087C17.4758 17.8137 17.5282 17.6848 17.5282 17.5504V11.0388C17.5269 10.9053 17.4739 10.7777 17.3807 10.6837C17.2874 10.5898 17.1615 10.5371 17.0303 10.5371Z" fill="#BB0014"/>
<path d="M18.9968 10.5371C18.8648 10.5371 18.7381 10.5905 18.6448 10.6856C18.5514 10.7806 18.499 10.9095 18.499 11.0439V17.5504C18.499 17.6848 18.5514 17.8137 18.6448 17.9087C18.7381 18.0037 18.8648 18.0571 18.9968 18.0571C19.1289 18.0571 19.2555 18.0037 19.3489 17.9087C19.4422 17.8137 19.4947 17.6848 19.4947 17.5504V11.0388C19.4934 10.9053 19.4403 10.7777 19.3471 10.6837C19.2539 10.5898 19.128 10.5371 18.9968 10.5371Z" fill="#BB0014"/>
</svg>
