<?xml version="1.0" encoding="utf-8"?>
<svg width="339" height="132" viewBox="0 0 335 82" fill="none" xmlns="http://www.w3.org/2000/svg">
  <rect width="339" height="132" rx="7" fill="#F7F9FC"/>
  <g clip-path="url(#clip0_2582_13760)" transform="matrix(1, 0, 0, 1, 117.353639, -2.485372)">
    <path d="M30.9999 29.1667C36.0625 29.1667 40.1666 25.0627 40.1666 20C40.1666 14.9374 36.0625 10.8334 30.9999 10.8334C25.9373 10.8334 21.8333 14.9374 21.8333 20C21.8333 25.0627 25.9373 29.1667 30.9999 29.1667Z" stroke="#5F6F86" stroke-width="2" stroke-linecap="round" stroke-linejoin="round"/>
    <path d="M34.6666 23.6667C34.6666 23.6667 33.2916 21.8334 30.9999 21.8334C28.7083 21.8334 27.3333 23.6667 27.3333 23.6667" stroke="#5F6F86" stroke-width="2" stroke-linecap="round" stroke-linejoin="round"/>
    <path d="M28.25 17.25H28.2592" stroke="#5F6F86" stroke-width="2" stroke-linecap="round" stroke-linejoin="round"/>
    <path d="M33.75 17.25H33.7592" stroke="#5F6F86" stroke-width="2" stroke-linecap="round" stroke-linejoin="round"/>
  </g>
  <path d="M 45.819 50.095 L 45.819 40.295 L 47.541 40.295 L 47.541 44.369 L 52.217 44.369 L 52.217 40.295 L 53.939 40.295 L 53.939 50.095 L 52.217 50.095 L 52.217 45.965 L 47.541 45.965 L 47.541 50.095 L 45.819 50.095 Z M 59.774 50.263 C 57.52 50.263 55.854 48.541 55.854 46.441 L 55.854 46.413 C 55.854 44.299 57.534 42.549 59.802 42.549 C 62.07 42.549 63.736 44.271 63.736 46.385 L 63.736 46.413 C 63.736 48.513 62.056 50.263 59.774 50.263 Z M 59.802 48.793 C 61.174 48.793 62.042 47.715 62.042 46.441 L 62.042 46.413 C 62.042 45.111 61.104 44.033 59.774 44.033 C 58.416 44.033 57.548 45.097 57.548 46.385 L 57.548 46.413 C 57.548 47.701 58.486 48.793 59.802 48.793 Z M 66.549 52.377 C 65.835 52.377 65.317 52.209 64.799 51.929 L 65.373 50.669 C 65.681 50.837 66.017 50.949 66.367 50.949 C 66.843 50.949 67.137 50.739 67.417 50.095 L 64.337 42.703 L 66.143 42.703 L 68.243 48.191 L 70.161 42.703 L 71.925 42.703 L 68.985 50.305 C 68.397 51.817 67.739 52.377 66.549 52.377 Z M 77.574 50.095 L 77.574 42.703 L 79.268 42.703 L 79.268 43.851 C 79.744 43.151 80.43 42.549 81.578 42.549 C 83.244 42.549 84.21 43.669 84.21 45.391 L 84.21 50.095 L 82.516 50.095 L 82.516 45.895 C 82.516 44.747 81.942 44.089 80.934 44.089 C 79.954 44.089 79.268 44.775 79.268 45.923 L 79.268 50.095 L 77.574 50.095 Z M 89.77 50.263 C 87.516 50.263 85.85 48.541 85.85 46.441 L 85.85 46.413 C 85.85 44.299 87.53 42.549 89.798 42.549 C 92.066 42.549 93.732 44.271 93.732 46.385 L 93.732 46.413 C 93.732 48.513 92.052 50.263 89.77 50.263 Z M 89.798 48.793 C 91.17 48.793 92.038 47.715 92.038 46.441 L 92.038 46.413 C 92.038 45.111 91.1 44.033 89.77 44.033 C 88.412 44.033 87.544 45.097 87.544 46.385 L 87.544 46.413 C 87.544 47.701 88.482 48.793 89.798 48.793 Z M 102.132 50.221 C 100.886 50.221 100.004 49.675 100.004 48.051 L 100.004 44.159 L 99.066 44.159 L 99.066 42.703 L 100.004 42.703 L 100.004 40.673 L 101.698 40.673 L 101.698 42.703 L 103.686 42.703 L 103.686 44.159 L 101.698 44.159 L 101.698 47.785 C 101.698 48.443 102.034 48.709 102.608 48.709 C 102.986 48.709 103.322 48.625 103.658 48.457 L 103.658 49.843 C 103.238 50.081 102.762 50.221 102.132 50.221 Z M 105.425 41.569 L 105.425 39.959 L 107.245 39.959 L 107.245 41.569 L 105.425 41.569 Z M 105.495 50.095 L 105.495 42.703 L 107.189 42.703 L 107.189 50.095 L 105.495 50.095 Z M 112.79 50.263 C 110.648 50.263 108.996 48.709 108.996 46.427 L 108.996 46.399 C 108.996 44.285 110.494 42.549 112.608 42.549 C 114.96 42.549 116.15 44.397 116.15 46.525 C 116.15 46.679 116.136 46.833 116.122 47.001 L 110.69 47.001 C 110.872 48.205 111.726 48.877 112.818 48.877 C 113.644 48.877 114.232 48.569 114.82 47.995 L 115.814 48.877 C 115.114 49.717 114.148 50.263 112.79 50.263 Z M 110.676 45.881 L 114.47 45.881 C 114.358 44.789 113.714 43.935 112.594 43.935 C 111.558 43.935 110.83 44.733 110.676 45.881 Z M 117.852 50.095 L 117.852 42.703 L 119.546 42.703 L 119.546 43.851 C 120.022 43.151 120.708 42.549 121.856 42.549 C 123.522 42.549 124.488 43.669 124.488 45.391 L 124.488 50.095 L 122.794 50.095 L 122.794 45.895 C 122.794 44.747 122.22 44.089 121.212 44.089 C 120.232 44.089 119.546 44.775 119.546 45.923 L 119.546 50.095 L 117.852 50.095 Z M 129.921 50.263 C 127.779 50.263 126.127 48.709 126.127 46.427 L 126.127 46.399 C 126.127 44.285 127.625 42.549 129.739 42.549 C 132.091 42.549 133.281 44.397 133.281 46.525 C 133.281 46.679 133.267 46.833 133.253 47.001 L 127.821 47.001 C 128.003 48.205 128.857 48.877 129.949 48.877 C 130.775 48.877 131.363 48.569 131.951 47.995 L 132.945 48.877 C 132.245 49.717 131.279 50.263 129.921 50.263 Z M 127.807 45.881 L 131.601 45.881 C 131.489 44.789 130.845 43.935 129.725 43.935 C 128.689 43.935 127.961 44.733 127.807 45.881 Z M 137.516 50.235 C 136.466 50.235 135.304 49.857 134.38 49.129 L 135.136 47.981 C 135.934 48.583 136.802 48.891 137.558 48.891 C 138.286 48.891 138.706 48.583 138.706 48.093 L 138.706 48.065 C 138.706 47.491 137.922 47.295 137.054 47.029 C 135.962 46.721 134.744 46.273 134.744 44.859 L 134.744 44.831 C 134.744 43.431 135.906 42.577 137.376 42.577 C 138.3 42.577 139.308 42.899 140.092 43.417 L 139.42 44.621 C 138.706 44.187 137.95 43.921 137.334 43.921 C 136.676 43.921 136.298 44.229 136.298 44.663 L 136.298 44.691 C 136.298 45.223 137.096 45.447 137.964 45.727 C 139.042 46.063 140.26 46.553 140.26 47.883 L 140.26 47.911 C 140.26 49.465 139.056 50.235 137.516 50.235 Z M 149.694 50.263 C 147.44 50.263 145.774 48.541 145.774 46.441 L 145.774 46.413 C 145.774 44.299 147.454 42.549 149.722 42.549 C 151.99 42.549 153.656 44.271 153.656 46.385 L 153.656 46.413 C 153.656 48.513 151.976 50.263 149.694 50.263 Z M 149.722 48.793 C 151.094 48.793 151.962 47.715 151.962 46.441 L 151.962 46.413 C 151.962 45.111 151.024 44.033 149.694 44.033 C 148.336 44.033 147.468 45.097 147.468 46.385 L 147.468 46.413 C 147.468 47.701 148.406 48.793 149.722 48.793 Z M 155.381 50.095 L 155.381 42.703 L 157.075 42.703 L 157.075 44.369 C 157.537 43.263 158.391 42.507 159.693 42.563 L 159.693 44.355 L 159.595 44.355 C 158.111 44.355 157.075 45.321 157.075 47.281 L 157.075 50.095 L 155.381 50.095 Z M 164.011 50.249 C 162.275 50.249 160.581 48.863 160.581 46.413 L 160.581 46.385 C 160.581 43.935 162.247 42.549 164.011 42.549 C 165.229 42.549 165.999 43.165 166.531 43.851 L 166.531 39.875 L 168.225 39.875 L 168.225 50.095 L 166.531 50.095 L 166.531 48.863 C 165.985 49.633 165.215 50.249 164.011 50.249 Z M 164.417 48.779 C 165.551 48.779 166.559 47.827 166.559 46.413 L 166.559 46.385 C 166.559 44.957 165.551 44.019 164.417 44.019 C 163.255 44.019 162.289 44.915 162.289 46.385 L 162.289 46.413 C 162.289 47.841 163.269 48.779 164.417 48.779 Z M 173.726 50.263 C 171.584 50.263 169.932 48.709 169.932 46.427 L 169.932 46.399 C 169.932 44.285 171.43 42.549 173.544 42.549 C 175.896 42.549 177.086 44.397 177.086 46.525 C 177.086 46.679 177.072 46.833 177.058 47.001 L 171.626 47.001 C 171.808 48.205 172.662 48.877 173.754 48.877 C 174.58 48.877 175.168 48.569 175.756 47.995 L 176.75 48.877 C 176.05 49.717 175.084 50.263 173.726 50.263 Z M 171.612 45.881 L 175.406 45.881 C 175.294 44.789 174.65 43.935 173.53 43.935 C 172.494 43.935 171.766 44.733 171.612 45.881 Z M 178.787 50.095 L 178.787 42.703 L 180.481 42.703 L 180.481 43.851 C 180.957 43.151 181.643 42.549 182.791 42.549 C 184.457 42.549 185.423 43.669 185.423 45.391 L 185.423 50.095 L 183.729 50.095 L 183.729 45.895 C 183.729 44.747 183.155 44.089 182.147 44.089 C 181.167 44.089 180.481 44.775 180.481 45.923 L 180.481 50.095 L 178.787 50.095 Z M 190.857 50.263 C 188.715 50.263 187.063 48.709 187.063 46.427 L 187.063 46.399 C 187.063 44.285 188.561 42.549 190.675 42.549 C 193.027 42.549 194.217 44.397 194.217 46.525 C 194.217 46.679 194.203 46.833 194.189 47.001 L 188.757 47.001 C 188.939 48.205 189.793 48.877 190.885 48.877 C 191.711 48.877 192.299 48.569 192.887 47.995 L 193.881 48.877 C 193.181 49.717 192.215 50.263 190.857 50.263 Z M 188.743 45.881 L 192.537 45.881 C 192.425 44.789 191.781 43.935 190.661 43.935 C 189.625 43.935 188.897 44.733 188.743 45.881 Z M 198.452 50.235 C 197.402 50.235 196.24 49.857 195.316 49.129 L 196.072 47.981 C 196.87 48.583 197.738 48.891 198.494 48.891 C 199.222 48.891 199.642 48.583 199.642 48.093 L 199.642 48.065 C 199.642 47.491 198.858 47.295 197.99 47.029 C 196.898 46.721 195.68 46.273 195.68 44.859 L 195.68 44.831 C 195.68 43.431 196.842 42.577 198.312 42.577 C 199.236 42.577 200.244 42.899 201.028 43.417 L 200.356 44.621 C 199.642 44.187 198.886 43.921 198.27 43.921 C 197.612 43.921 197.234 44.229 197.234 44.663 L 197.234 44.691 C 197.234 45.223 198.032 45.447 198.9 45.727 C 199.978 46.063 201.196 46.553 201.196 47.883 L 201.196 47.911 C 201.196 49.465 199.992 50.235 198.452 50.235 Z M 210.167 50.249 C 208.431 50.249 206.737 48.863 206.737 46.413 L 206.737 46.385 C 206.737 43.935 208.403 42.549 210.167 42.549 C 211.385 42.549 212.155 43.165 212.687 43.851 L 212.687 39.875 L 214.381 39.875 L 214.381 50.095 L 212.687 50.095 L 212.687 48.863 C 212.141 49.633 211.371 50.249 210.167 50.249 Z M 210.573 48.779 C 211.707 48.779 212.715 47.827 212.715 46.413 L 212.715 46.385 C 212.715 44.957 211.707 44.019 210.573 44.019 C 209.411 44.019 208.445 44.915 208.445 46.385 L 208.445 46.413 C 208.445 47.841 209.425 48.779 210.573 48.779 Z M 219.882 50.263 C 217.74 50.263 216.088 48.709 216.088 46.427 L 216.088 46.399 C 216.088 44.285 217.586 42.549 219.7 42.549 C 222.052 42.549 223.242 44.397 223.242 46.525 C 223.242 46.679 223.228 46.833 223.214 47.001 L 217.782 47.001 C 217.964 48.205 218.818 48.877 219.91 48.877 C 220.736 48.877 221.324 48.569 221.912 47.995 L 222.906 48.877 C 222.206 49.717 221.24 50.263 219.882 50.263 Z M 217.768 45.881 L 221.562 45.881 C 221.45 44.789 220.806 43.935 219.686 43.935 C 218.65 43.935 217.922 44.733 217.768 45.881 Z M 232.557 50.263 C 230.359 50.263 228.735 48.541 228.735 46.441 L 228.735 46.413 C 228.735 44.313 230.359 42.549 232.571 42.549 C 233.971 42.549 234.839 43.067 235.525 43.823 L 234.475 44.957 C 233.957 44.411 233.411 44.033 232.557 44.033 C 231.325 44.033 230.429 45.097 230.429 46.385 L 230.429 46.413 C 230.429 47.729 231.339 48.793 232.641 48.793 C 233.439 48.793 234.027 48.415 234.559 47.869 L 235.581 48.877 C 234.853 49.689 233.999 50.263 232.557 50.263 Z M 240.448 50.263 C 238.194 50.263 236.528 48.541 236.528 46.441 L 236.528 46.413 C 236.528 44.299 238.208 42.549 240.476 42.549 C 242.744 42.549 244.41 44.271 244.41 46.385 L 244.41 46.413 C 244.41 48.513 242.73 50.263 240.448 50.263 Z M 240.476 48.793 C 241.848 48.793 242.716 47.715 242.716 46.441 L 242.716 46.413 C 242.716 45.111 241.778 44.033 240.448 44.033 C 239.09 44.033 238.222 45.097 238.222 46.385 L 238.222 46.413 C 238.222 47.701 239.16 48.793 240.476 48.793 Z M 246.135 50.095 L 246.135 42.703 L 247.829 42.703 L 247.829 43.823 C 248.305 43.165 248.949 42.549 250.083 42.549 C 251.147 42.549 251.889 43.067 252.281 43.851 C 252.883 43.067 253.667 42.549 254.787 42.549 C 256.397 42.549 257.377 43.571 257.377 45.377 L 257.377 50.095 L 255.683 50.095 L 255.683 45.895 C 255.683 44.719 255.137 44.089 254.185 44.089 C 253.261 44.089 252.603 44.733 252.603 45.923 L 252.603 50.095 L 250.909 50.095 L 250.909 45.881 C 250.909 44.733 250.349 44.089 249.411 44.089 C 248.473 44.089 247.829 44.789 247.829 45.937 L 247.829 50.095 L 246.135 50.095 Z M 259.437 52.335 L 259.437 42.703 L 261.131 42.703 L 261.131 43.935 C 261.677 43.165 262.447 42.549 263.637 42.549 C 265.387 42.549 267.081 43.935 267.081 46.385 L 267.081 46.413 C 267.081 48.863 265.401 50.249 263.637 50.249 C 262.419 50.249 261.649 49.633 261.131 48.947 L 261.131 52.335 L 259.437 52.335 Z M 263.245 48.779 C 264.407 48.779 265.359 47.869 265.359 46.413 L 265.359 46.385 C 265.359 44.957 264.393 44.019 263.245 44.019 C 262.097 44.019 261.089 44.971 261.089 46.385 L 261.089 46.413 C 261.089 47.841 262.097 48.779 263.245 48.779 Z M 268.816 50.095 L 268.816 42.703 L 270.51 42.703 L 270.51 44.369 C 270.972 43.263 271.826 42.507 273.128 42.563 L 273.128 44.355 L 273.03 44.355 C 271.546 44.355 270.51 45.321 270.51 47.281 L 270.51 50.095 L 268.816 50.095 Z M 280.446 50.095 L 278.766 50.095 L 278.766 49.185 C 278.262 49.787 277.492 50.249 276.372 50.249 C 274.972 50.249 273.74 49.451 273.74 47.967 L 273.74 47.939 C 273.74 46.301 275.014 45.517 276.736 45.517 C 277.632 45.517 278.206 45.643 278.78 45.825 L 278.78 45.685 C 278.78 44.663 278.136 44.103 276.96 44.103 C 276.134 44.103 275.518 44.285 274.846 44.565 L 274.384 43.207 C 275.196 42.843 275.994 42.591 277.198 42.591 C 279.382 42.591 280.446 43.739 280.446 45.713 L 280.446 50.095 Z M 278.808 47.421 L 278.808 47.001 C 278.374 46.833 277.772 46.707 277.114 46.707 C 276.05 46.707 275.42 47.141 275.42 47.855 L 275.42 47.883 C 275.42 48.583 276.05 48.975 276.848 48.975 C 277.968 48.975 278.808 48.345 278.808 47.421 Z M 282.349 50.095 L 282.349 48.177 L 284.211 48.177 L 284.211 50.095 L 282.349 50.095 Z" fill="#5F6F86"/>
  <defs>
    <clipPath id="clip0_2582_13760">
      <rect width="22" height="22" fill="white" transform="translate(20 9)"/>
    </clipPath>
  </defs>
  <path d="M 67.848 64.111 L 67.848 55.711 L 73.92 55.711 L 73.92 56.575 L 68.796 56.575 L 68.796 59.443 L 73.38 59.443 L 73.38 60.307 L 68.796 60.307 L 68.796 63.247 L 73.98 63.247 L 73.98 64.111 L 67.848 64.111 Z M 77.783 64.231 C 76.895 64.231 75.911 63.883 75.215 63.319 L 75.683 62.659 C 76.355 63.163 77.099 63.451 77.831 63.451 C 78.575 63.451 79.115 63.067 79.115 62.467 L 79.115 62.443 C 79.115 61.819 78.383 61.579 77.567 61.351 C 76.595 61.075 75.515 60.739 75.515 59.599 L 75.515 59.575 C 75.515 58.507 76.403 57.799 77.627 57.799 C 78.383 57.799 79.223 58.063 79.859 58.483 L 79.439 59.179 C 78.863 58.807 78.203 58.579 77.603 58.579 C 76.871 58.579 76.403 58.963 76.403 59.479 L 76.403 59.503 C 76.403 60.091 77.171 60.319 77.999 60.571 C 78.959 60.859 79.991 61.231 79.991 62.347 L 79.991 62.371 C 79.991 63.547 79.019 64.231 77.783 64.231 Z M 81.708 66.031 L 81.708 57.907 L 82.632 57.907 L 82.632 59.155 C 83.136 58.411 83.868 57.775 85.008 57.775 C 86.496 57.775 87.972 58.951 87.972 60.991 L 87.972 61.015 C 87.972 63.043 86.508 64.243 85.008 64.243 C 83.856 64.243 83.112 63.619 82.632 62.923 L 82.632 66.031 L 81.708 66.031 Z M 84.84 63.415 C 86.04 63.415 87.024 62.527 87.024 61.027 L 87.024 61.003 C 87.024 59.539 86.016 58.603 84.84 58.603 C 83.688 58.603 82.596 59.575 82.596 60.991 L 82.596 61.015 C 82.596 62.455 83.688 63.415 84.84 63.415 Z M 90.229 61.387 C 90.361 62.695 91.321 63.451 92.413 63.451 C 93.265 63.451 93.865 63.103 94.369 62.575 L 94.945 63.091 C 94.321 63.787 93.565 64.255 92.389 64.255 C 90.685 64.255 89.293 62.947 89.293 61.015 C 89.293 59.215 90.553 57.775 92.269 57.775 C 94.105 57.775 95.161 59.239 95.161 61.063 C 95.161 61.147 95.161 61.243 95.149 61.387 L 90.229 61.387 Z M 90.229 60.643 L 94.225 60.643 C 94.117 59.515 93.469 58.555 92.245 58.555 C 91.177 58.555 90.361 59.443 90.229 60.643 Z M 96.778 64.111 L 96.778 57.907 L 97.702 57.907 L 97.702 59.527 C 98.158 58.495 99.058 57.751 100.234 57.799 L 100.234 58.795 L 100.162 58.795 C 98.806 58.795 97.702 59.767 97.702 61.639 L 97.702 64.111 L 96.778 64.111 Z M 103.185 64.243 C 102.021 64.243 100.869 63.583 100.869 62.311 L 100.869 62.287 C 100.869 60.955 101.949 60.259 103.521 60.259 C 104.313 60.259 104.865 60.367 105.417 60.523 L 105.417 60.331 C 105.417 59.227 104.745 58.651 103.581 58.651 C 102.849 58.651 102.273 58.831 101.697 59.095 L 101.421 58.339 C 102.105 58.027 102.765 57.811 103.677 57.811 C 104.553 57.811 105.237 58.051 105.681 58.495 C 106.113 58.927 106.329 59.527 106.329 60.319 L 106.329 64.111 L 105.417 64.111 L 105.417 63.187 C 104.985 63.739 104.277 64.243 103.185 64.243 Z M 103.365 63.499 C 104.505 63.499 105.429 62.815 105.429 61.831 L 105.429 61.255 C 104.973 61.123 104.373 60.991 103.617 60.991 C 102.465 60.991 101.805 61.495 101.805 62.239 L 101.805 62.263 C 101.805 63.043 102.525 63.499 103.365 63.499 Z M 111.968 64.111 L 111.968 55.351 L 112.892 55.351 L 112.892 64.111 L 111.968 64.111 Z M 116.884 64.243 C 115.72 64.243 114.568 63.583 114.568 62.311 L 114.568 62.287 C 114.568 60.955 115.648 60.259 117.22 60.259 C 118.012 60.259 118.564 60.367 119.116 60.523 L 119.116 60.331 C 119.116 59.227 118.444 58.651 117.28 58.651 C 116.548 58.651 115.972 58.831 115.396 59.095 L 115.12 58.339 C 115.804 58.027 116.464 57.811 117.376 57.811 C 118.252 57.811 118.936 58.051 119.38 58.495 C 119.812 58.927 120.028 59.527 120.028 60.319 L 120.028 64.111 L 119.116 64.111 L 119.116 63.187 C 118.684 63.739 117.976 64.243 116.884 64.243 Z M 117.064 63.499 C 118.204 63.499 119.128 62.815 119.128 61.831 L 119.128 61.255 C 118.672 61.123 118.072 60.991 117.316 60.991 C 116.164 60.991 115.504 61.495 115.504 62.239 L 115.504 62.263 C 115.504 63.043 116.224 63.499 117.064 63.499 Z M 125.583 66.031 L 125.583 57.907 L 126.507 57.907 L 126.507 59.155 C 127.011 58.411 127.743 57.775 128.883 57.775 C 130.371 57.775 131.847 58.951 131.847 60.991 L 131.847 61.015 C 131.847 63.043 130.383 64.243 128.883 64.243 C 127.731 64.243 126.987 63.619 126.507 62.923 L 126.507 66.031 L 125.583 66.031 Z M 128.715 63.415 C 129.915 63.415 130.899 62.527 130.899 61.027 L 130.899 61.003 C 130.899 59.539 129.891 58.603 128.715 58.603 C 127.563 58.603 126.471 59.575 126.471 60.991 L 126.471 61.015 C 126.471 62.455 127.563 63.415 128.715 63.415 Z M 133.552 64.111 L 133.552 57.907 L 134.476 57.907 L 134.476 59.527 C 134.932 58.495 135.832 57.751 137.008 57.799 L 137.008 58.795 L 136.936 58.795 C 135.58 58.795 134.476 59.767 134.476 61.639 L 134.476 64.111 L 133.552 64.111 Z M 140.617 56.971 L 141.745 55.231 L 142.705 55.675 L 141.337 56.971 L 140.617 56.971 Z M 140.977 64.255 C 139.117 64.255 137.761 62.791 137.761 61.039 L 137.761 61.015 C 137.761 59.263 139.129 57.775 141.001 57.775 C 142.861 57.775 144.229 59.239 144.229 60.991 L 144.229 61.015 C 144.229 62.767 142.849 64.255 140.977 64.255 Z M 141.001 63.427 C 142.345 63.427 143.281 62.347 143.281 61.039 L 143.281 61.015 C 143.281 59.683 142.285 58.591 140.977 58.591 C 139.633 58.591 138.709 59.683 138.709 60.991 L 138.709 61.015 C 138.709 62.347 139.693 63.427 141.001 63.427 Z M 144.917 64.111 L 147.353 60.955 L 145.013 57.907 L 146.069 57.907 L 147.905 60.307 L 149.741 57.907 L 150.773 57.907 L 148.421 60.931 L 150.869 64.111 L 149.801 64.111 L 147.881 61.579 L 145.949 64.111 L 144.917 64.111 Z M 152.396 56.551 L 152.396 55.531 L 153.452 55.531 L 153.452 56.551 L 152.396 56.551 Z M 152.456 64.111 L 152.456 57.907 L 153.38 57.907 L 153.38 64.111 L 152.456 64.111 Z M 155.524 64.111 L 155.524 57.907 L 156.448 57.907 L 156.448 58.951 C 156.856 58.339 157.408 57.775 158.452 57.775 C 159.46 57.775 160.108 58.315 160.444 59.011 C 160.888 58.327 161.548 57.775 162.628 57.775 C 164.056 57.775 164.932 58.735 164.932 60.271 L 164.932 64.111 L 164.008 64.111 L 164.008 60.487 C 164.008 59.287 163.408 58.615 162.4 58.615 C 161.464 58.615 160.684 59.311 160.684 60.535 L 160.684 64.111 L 159.772 64.111 L 159.772 60.463 C 159.772 59.299 159.16 58.615 158.176 58.615 C 157.192 58.615 156.448 59.431 156.448 60.571 L 156.448 64.111 L 155.524 64.111 Z M 168.786 64.243 C 167.622 64.243 166.47 63.583 166.47 62.311 L 166.47 62.287 C 166.47 60.955 167.55 60.259 169.122 60.259 C 169.914 60.259 170.466 60.367 171.018 60.523 L 171.018 60.331 C 171.018 59.227 170.346 58.651 169.182 58.651 C 168.45 58.651 167.874 58.831 167.298 59.095 L 167.022 58.339 C 167.706 58.027 168.366 57.811 169.278 57.811 C 170.154 57.811 170.838 58.051 171.282 58.495 C 171.714 58.927 171.93 59.527 171.93 60.319 L 171.93 64.111 L 171.018 64.111 L 171.018 63.187 C 170.586 63.739 169.878 64.243 168.786 64.243 Z M 168.966 63.499 C 170.106 63.499 171.03 62.815 171.03 61.831 L 171.03 61.255 C 170.574 61.123 169.974 60.991 169.218 60.991 C 168.066 60.991 167.406 61.495 167.406 62.239 L 167.406 62.263 C 167.406 63.043 168.126 63.499 168.966 63.499 Z M 179.333 64.243 C 178.169 64.243 177.017 63.583 177.017 62.311 L 177.017 62.287 C 177.017 60.955 178.097 60.259 179.669 60.259 C 180.461 60.259 181.013 60.367 181.565 60.523 L 181.565 60.331 C 181.565 59.227 180.893 58.651 179.729 58.651 C 178.997 58.651 178.421 58.831 177.845 59.095 L 177.569 58.339 C 178.253 58.027 178.913 57.811 179.825 57.811 C 180.701 57.811 181.385 58.051 181.829 58.495 C 182.261 58.927 182.477 59.527 182.477 60.319 L 182.477 64.111 L 181.565 64.111 L 181.565 63.187 C 181.133 63.739 180.425 64.243 179.333 64.243 Z M 179.513 63.499 C 180.653 63.499 181.577 62.815 181.577 61.831 L 181.577 61.255 C 181.121 61.123 180.521 60.991 179.765 60.991 C 178.613 60.991 177.953 61.495 177.953 62.239 L 177.953 62.263 C 177.953 63.043 178.673 63.499 179.513 63.499 Z M 187.23 64.255 C 185.418 64.255 184.05 62.779 184.05 61.039 L 184.05 61.015 C 184.05 59.263 185.418 57.775 187.23 57.775 C 188.406 57.775 189.138 58.267 189.714 58.879 L 189.102 59.527 C 188.61 59.011 188.058 58.591 187.218 58.591 C 185.958 58.591 184.998 59.659 184.998 60.991 L 184.998 61.015 C 184.998 62.359 185.982 63.427 187.278 63.427 C 188.07 63.427 188.682 63.031 189.174 62.503 L 189.762 63.055 C 189.138 63.751 188.394 64.255 187.23 64.255 Z M 193.366 64.219 C 192.37 64.219 191.614 63.727 191.614 62.467 L 191.614 58.723 L 190.75 58.723 L 190.75 57.907 L 191.614 57.907 L 191.614 56.035 L 192.538 56.035 L 192.538 57.907 L 194.506 57.907 L 194.506 58.723 L 192.538 58.723 L 192.538 62.347 C 192.538 63.103 192.958 63.379 193.582 63.379 C 193.894 63.379 194.158 63.319 194.482 63.163 L 194.482 63.955 C 194.158 64.123 193.81 64.219 193.366 64.219 Z M 198.421 64.243 C 196.921 64.243 196.045 63.235 196.045 61.759 L 196.045 57.907 L 196.969 57.907 L 196.969 61.531 C 196.969 62.683 197.593 63.403 198.685 63.403 C 199.741 63.403 200.545 62.623 200.545 61.459 L 200.545 57.907 L 201.457 57.907 L 201.457 64.111 L 200.545 64.111 L 200.545 63.031 C 200.125 63.703 199.489 64.243 198.421 64.243 Z M 205.384 64.243 C 204.22 64.243 203.068 63.583 203.068 62.311 L 203.068 62.287 C 203.068 60.955 204.148 60.259 205.72 60.259 C 206.512 60.259 207.064 60.367 207.616 60.523 L 207.616 60.331 C 207.616 59.227 206.944 58.651 205.78 58.651 C 205.048 58.651 204.472 58.831 203.896 59.095 L 203.62 58.339 C 204.304 58.027 204.964 57.811 205.876 57.811 C 206.752 57.811 207.436 58.051 207.88 58.495 C 208.312 58.927 208.528 59.527 208.528 60.319 L 208.528 64.111 L 207.616 64.111 L 207.616 63.187 C 207.184 63.739 206.476 64.243 205.384 64.243 Z M 205.564 63.499 C 206.704 63.499 207.628 62.815 207.628 61.831 L 207.628 61.255 C 207.172 61.123 206.572 60.991 205.816 60.991 C 204.664 60.991 204.004 61.495 204.004 62.239 L 204.004 62.263 C 204.004 63.043 204.724 63.499 205.564 63.499 Z M 210.569 64.111 L 210.569 55.351 L 211.493 55.351 L 211.493 64.111 L 210.569 64.111 Z M 213.661 56.551 L 213.661 55.531 L 214.717 55.531 L 214.717 56.551 L 213.661 56.551 Z M 213.721 64.111 L 213.721 57.907 L 214.645 57.907 L 214.645 64.111 L 213.721 64.111 Z M 216.43 64.111 L 216.43 63.523 L 220.546 58.687 L 216.574 58.687 L 216.574 57.907 L 221.806 57.907 L 221.806 58.495 L 217.678 63.331 L 221.806 63.331 L 221.806 64.111 L 216.43 64.111 Z M 225.306 64.243 C 224.142 64.243 222.99 63.583 222.99 62.311 L 222.99 62.287 C 222.99 60.955 224.07 60.259 225.642 60.259 C 226.434 60.259 226.986 60.367 227.538 60.523 L 227.538 60.331 C 227.538 59.227 226.866 58.651 225.702 58.651 C 224.97 58.651 224.394 58.831 223.818 59.095 L 223.542 58.339 C 224.226 58.027 224.886 57.811 225.798 57.811 C 226.674 57.811 227.358 58.051 227.802 58.495 C 228.234 58.927 228.45 59.527 228.45 60.319 L 228.45 64.111 L 227.538 64.111 L 227.538 63.187 C 227.106 63.739 226.398 64.243 225.306 64.243 Z M 225.486 63.499 C 226.626 63.499 227.55 62.815 227.55 61.831 L 227.55 61.255 C 227.094 61.123 226.494 60.991 225.738 60.991 C 224.586 60.991 223.926 61.495 223.926 62.239 L 223.926 62.263 C 223.926 63.043 224.646 63.499 225.486 63.499 Z M 233.203 64.255 C 231.391 64.255 230.023 62.779 230.023 61.039 L 230.023 61.015 C 230.023 59.263 231.391 57.775 233.203 57.775 C 234.379 57.775 235.111 58.267 235.687 58.879 L 235.075 59.527 C 234.583 59.011 234.031 58.591 233.191 58.591 C 231.931 58.591 230.971 59.659 230.971 60.991 L 230.971 61.015 C 230.971 62.359 231.955 63.427 233.251 63.427 C 234.043 63.427 234.655 63.031 235.147 62.503 L 235.735 63.055 C 235.111 63.751 234.367 64.255 233.203 64.255 Z M 237.286 56.551 L 237.286 55.531 L 238.342 55.531 L 238.342 56.551 L 237.286 56.551 Z M 237.346 64.111 L 237.346 57.907 L 238.27 57.907 L 238.27 64.111 L 237.346 64.111 Z M 242.887 56.971 L 244.015 55.231 L 244.975 55.675 L 243.607 56.971 L 242.887 56.971 Z M 243.247 64.255 C 241.387 64.255 240.031 62.791 240.031 61.039 L 240.031 61.015 C 240.031 59.263 241.399 57.775 243.271 57.775 C 245.131 57.775 246.499 59.239 246.499 60.991 L 246.499 61.015 C 246.499 62.767 245.119 64.255 243.247 64.255 Z M 243.271 63.427 C 244.615 63.427 245.551 62.347 245.551 61.039 L 245.551 61.015 C 245.551 59.683 244.555 58.591 243.247 58.591 C 241.903 58.591 240.979 59.683 240.979 60.991 L 240.979 61.015 C 240.979 62.347 241.963 63.427 243.271 63.427 Z M 248.172 64.111 L 248.172 57.907 L 249.096 57.907 L 249.096 58.987 C 249.504 58.315 250.152 57.775 251.22 57.775 C 252.72 57.775 253.596 58.783 253.596 60.259 L 253.596 64.111 L 252.672 64.111 L 252.672 60.487 C 252.672 59.335 252.048 58.615 250.956 58.615 C 249.888 58.615 249.096 59.395 249.096 60.559 L 249.096 64.111 L 248.172 64.111 Z M 255.459 64.111 L 255.459 62.851 L 256.563 62.851 L 256.563 64.111 L 255.459 64.111 Z" fill="#5F6F86"/>
</svg>