<svg width="41" height="41" viewBox="0 0 41 41" fill="none" xmlns="http://www.w3.org/2000/svg">
<g clip-path="url(#clip0_3397_35321)">
<path fill-rule="evenodd" clip-rule="evenodd" d="M20.45 40.5C9.42302 40.4729 0.5 31.5057 0.5 20.5C0.5 9.49419 9.42302 0.527092 20.45 0.500061C20.4584 0.500061 20.4667 0.500005 20.475 0.500015C20.4834 0.500005 20.4917 0.5 20.5 0.5C31.5769 0.526909 40.5 9.49412 40.5 20.5C40.5 31.506 31.5769 40.4731 20.5 40.5C20.4917 40.5 20.4834 40.5 20.475 40.5C20.4667 40.5 20.4584 40.5 20.45 40.5Z" fill="#E8EBF7"/>
<g opacity="0.6">
<g opacity="0.8">
<g opacity="0.3">
<path d="M27.1481 6.87007H19.3969C19.1969 6.87007 19.0469 6.72192 19.0469 6.52439C19.0469 6.32686 19.1969 6.17871 19.3969 6.17871H27.1481C27.3482 6.17871 27.4982 6.32686 27.4982 6.52439C27.4982 6.72192 27.3482 6.87007 27.1481 6.87007Z" fill="#999999"/>
<path d="M16.9465 6.87007H15.4462C15.2462 6.87007 15.0962 6.72192 15.0962 6.52439C15.0962 6.32686 15.2462 6.17871 15.4462 6.17871H16.9465C17.1465 6.17871 17.2965 6.32686 17.2965 6.52439C17.2965 6.72192 17.1465 6.87007 16.9465 6.87007Z" fill="#999999"/>
<path fill-rule="evenodd" clip-rule="evenodd" d="M15.4463 4.54927H16.1464V3.85791H15.4463V4.54927ZM17.4966 4.54927H16.7965V3.85791H17.4966V4.54927ZM18.1467 4.54927H18.8468V3.85791H18.1467V4.54927ZM20.197 4.54927H19.4969V3.85791H20.197V4.54927ZM20.8471 4.54927H21.5472V3.85791H20.8471V4.54927ZM22.1973 4.54927H22.8975V3.85791H22.1973V4.54927Z" fill="#999999"/>
</g>
<g opacity="0.3">
<path d="M27.1481 36.2036H19.3969C19.1969 36.2036 19.0469 36.0554 19.0469 35.8579C19.0469 35.6604 19.1969 35.5122 19.3969 35.5122H27.1481C27.3482 35.5122 27.4982 35.6604 27.4982 35.8579C27.4982 36.0554 27.3482 36.2036 27.1481 36.2036Z" fill="#999999"/>
<path d="M16.9465 36.2036H15.4462C15.2462 36.2036 15.0962 36.0554 15.0962 35.8579C15.0962 35.6604 15.2462 35.5122 15.4462 35.5122H16.9465C17.1465 35.5122 17.2965 35.6604 17.2965 35.8579C17.2965 36.0554 17.1465 36.2036 16.9465 36.2036Z" fill="#999999"/>
<path fill-rule="evenodd" clip-rule="evenodd" d="M15.4463 33.8828H16.1464V33.1914H15.4463V33.8828ZM17.4966 33.8828H16.7965V33.1914H17.4966V33.8828ZM18.1467 33.8828H18.8468V33.1914H18.1467V33.8828ZM20.197 33.8828H19.4969V33.1914H20.197V33.8828ZM20.8471 33.8828H21.5472V33.1914H20.8471V33.8828ZM22.1973 33.8828H22.8975V33.1914H22.1973V33.8828Z" fill="#999999"/>
</g>
</g>
<g opacity="0.2">
<path d="M37.65 19.1667H31.7491C31.599 19.1667 31.499 19.0679 31.499 18.9198C31.499 18.7716 31.599 18.6729 31.7491 18.6729H37.65C37.8 18.6729 37.9 18.7716 37.9 18.9198C37.9 19.0185 37.8 19.1667 37.65 19.1667Z" fill="#999999"/>
<path d="M34.6993 17.7345H28.7984C28.6484 17.7345 28.5483 17.6358 28.5483 17.4876C28.5483 17.3395 28.6484 17.2407 28.7984 17.2407H34.6993C34.8493 17.2407 34.9493 17.3395 34.9493 17.4876C34.9493 17.6358 34.8493 17.7345 34.6993 17.7345Z" fill="#999999"/>
<path d="M13.296 19.1667H7.39506C7.24504 19.1667 7.14502 19.0679 7.14502 18.9198C7.14502 18.7716 7.24504 18.6729 7.39506 18.6729H13.296C13.446 18.6729 13.546 18.7716 13.546 18.9198C13.546 19.0185 13.446 19.1667 13.296 19.1667Z" fill="#999999"/>
<path d="M10.3453 17.7345H4.44438C4.29435 17.7345 4.19434 17.6358 4.19434 17.4876C4.19434 17.3395 4.29435 17.2407 4.44438 17.2407H10.3453C10.4953 17.2407 10.5953 17.3395 10.5953 17.4876C10.5953 17.6358 10.4953 17.7345 10.3453 17.7345Z" fill="#999999"/>
</g>
</g>
<path d="M17 27.3798C17.1688 27.3798 17.3307 27.3115 17.4501 27.19C17.5694 27.0685 17.6365 26.9037 17.6365 26.7319C17.6365 26.9037 17.5694 27.0685 17.4501 27.19C17.3307 27.3115 17.1688 27.3798 17 27.3798Z" fill="#F40004"/>
<path d="M21.5381 16.6003C21.5381 16.6003 21.1689 17.0927 21.6526 17.2093C21.6942 17.3251 21.7053 17.4498 21.6852 17.5713C21.665 17.6927 21.6143 17.8069 21.5381 17.9025H30.4489C30.4489 17.9025 29.9715 17.2935 30.226 17.2546C30.4808 17.2158 30.5378 16.704 30.0796 16.5615C29.6214 16.419 21.5381 16.6003 21.5381 16.6003Z" fill="#90918F"/>
<path d="M30.4741 15H21.3596C21.1101 15 20.9077 15.2059 20.9077 15.4599V16.2503C20.9077 16.5043 21.1101 16.7102 21.3596 16.7102H30.4741C30.7235 16.7102 30.9259 16.5043 30.9259 16.2503V15.4599C30.9259 15.2059 30.7235 15 30.4741 15Z" fill="#003F23"/>
<path d="M29.8057 17.3516H22.1297C21.4512 17.3516 20.9014 17.7489 20.9014 18.2391V28.4484C20.9014 28.9386 21.4512 29.3359 22.1297 29.3359H29.8057C30.4842 29.3359 31.034 28.9386 31.034 28.4484V18.2391C31.034 17.7489 30.4842 17.3516 29.8057 17.3516Z" fill="#F49C1A"/>
<path d="M29.9972 17.3516H25.752V29.3359H29.9972C30.2886 29.3321 30.5665 29.2456 30.7703 29.0951C30.974 28.9445 31.0872 28.742 31.0855 28.5314V18.156C31.0872 17.9455 30.974 17.7429 30.7703 17.5923C30.5665 17.4417 30.2886 17.3552 29.9972 17.3516Z" fill="#D3902D"/>
<path d="M25.8089 24.0926C27.4787 24.0926 28.8322 23.2486 28.8322 22.2074C28.8322 21.1663 27.4787 20.3223 25.8089 20.3223C24.1392 20.3223 22.7856 21.1663 22.7856 22.2074C22.7856 23.2486 24.1392 24.0926 25.8089 24.0926Z" fill="#FDCE48" stroke="#FCFCFC" stroke-width="0.13" stroke-miterlimit="10"/>
<path d="M29.4493 23.3407L22.5118 23.2953C22.4255 23.2954 22.3399 23.2777 22.2607 23.2431C22.1811 23.2086 22.1096 23.1579 22.0499 23.0943C21.9905 23.0306 21.9445 22.9554 21.9143 22.873C21.8841 22.7906 21.871 22.7029 21.8753 22.6151C21.8753 22.4433 21.9425 22.2785 22.0616 22.157C22.1812 22.0355 22.343 21.9673 22.5118 21.9673L29.4493 22.0126C29.6212 22.021 29.783 22.0963 29.9015 22.223C30.02 22.3496 30.0861 22.5179 30.0858 22.6929C30.0858 22.8647 30.0187 23.0294 29.8995 23.1509C29.78 23.2724 29.6182 23.3407 29.4493 23.3407Z" fill="#005130"/>
<path d="M25.1595 24.1697C25.1497 24.1641 25.139 24.1611 25.1276 24.1611C25.1165 24.1611 25.1054 24.1641 25.0957 24.1697C25.088 24.1582 25.0776 24.1487 25.0655 24.1419C25.0531 24.1352 25.0396 24.1314 25.0259 24.1309C25.0259 24.1515 25.0339 24.1713 25.0484 24.1858C25.0625 24.2004 25.0819 24.2086 25.1021 24.2086H25.134C25.1544 24.2086 25.1736 24.2004 25.188 24.1858C25.2025 24.1713 25.2105 24.1515 25.2105 24.1309L25.1595 24.1697Z" fill="#61B45F"/>
<path d="M25.172 24.1957C25.1626 24.1901 25.1516 24.1871 25.1406 24.1871C25.1293 24.1871 25.1186 24.1901 25.1089 24.1957V24.2473C25.1289 24.2473 25.1483 24.2391 25.1626 24.2246C25.1767 24.2101 25.1847 24.1904 25.1847 24.1699L25.172 24.1957Z" fill="#12A96B"/>
<path d="M25.0771 24.5456C25.0439 24.5395 25.0143 24.521 24.9942 24.4938C24.958 24.4529 24.9378 24.3999 24.9371 24.3448C24.9361 24.3263 24.9412 24.308 24.9516 24.2928C24.962 24.2776 24.9771 24.2663 24.9942 24.2606C25.0217 24.2548 25.0496 24.2548 25.0771 24.2606C25.1063 24.2543 25.1369 24.2543 25.1661 24.2606C25.1822 24.2673 25.196 24.2792 25.205 24.2943C25.2141 24.3094 25.2185 24.3271 25.2171 24.3448C25.2188 24.3992 25.2007 24.4522 25.1661 24.4938C25.1436 24.5214 25.112 24.5399 25.0771 24.5456Z" fill="#EA5D5F"/>
<path d="M25.1661 24.4941C25.2007 24.4525 25.2188 24.3994 25.2171 24.345C25.2215 24.3253 25.2188 24.3047 25.2094 24.2868C25.2 24.269 25.1846 24.2551 25.1661 24.2479C25.1369 24.2416 25.1064 24.2416 25.0771 24.2479V24.5459C25.1121 24.5401 25.1436 24.5217 25.1661 24.4941Z" fill="#DC2664"/>
<path d="M25.3568 24.0535C25.3424 24.0625 25.3303 24.0748 25.3215 24.0895C25.3125 24.1041 25.3074 24.1206 25.3058 24.1377C25.2923 24.1298 25.2769 24.1256 25.2611 24.1256C25.2457 24.1256 25.2302 24.1298 25.2168 24.1377C25.2222 24.1493 25.2296 24.1596 25.2393 24.1679C25.2487 24.1763 25.2598 24.1825 25.2719 24.1862C25.2839 24.1898 25.2964 24.1909 25.3088 24.1892C25.3212 24.1876 25.3333 24.1833 25.344 24.1766H25.3823C25.3998 24.1584 25.4095 24.134 25.4095 24.1086C25.4095 24.0831 25.3998 24.0587 25.3823 24.0405L25.3568 24.0535Z" fill="#61B45F"/>
<path d="M25.3567 24.0728C25.3423 24.0818 25.3302 24.0941 25.3214 24.1087C25.3124 24.1233 25.307 24.1399 25.3057 24.1569L25.3503 24.2347C25.3678 24.2165 25.3775 24.1921 25.3775 24.1667C25.3775 24.1412 25.3678 24.1168 25.3503 24.0986L25.3567 24.0728Z" fill="#12A96B"/>
<path d="M25.4968 24.5199C25.4558 24.5358 25.4105 24.5358 25.3695 24.5199C25.3373 24.5109 25.3071 24.4954 25.2809 24.4742C25.2544 24.4531 25.2326 24.4267 25.2168 24.3968C25.2027 24.3794 25.1953 24.3577 25.1953 24.3352C25.1953 24.3128 25.2027 24.2911 25.2168 24.2737C25.2433 24.246 25.2732 24.2221 25.3058 24.2024C25.3373 24.1823 25.3719 24.167 25.4078 24.1571C25.4296 24.1509 25.4531 24.1535 25.4733 24.1643C25.4934 24.1752 25.5085 24.1935 25.5159 24.2154C25.5515 24.2732 25.5652 24.3424 25.5542 24.4098C25.5542 24.4616 25.5542 24.5134 25.4968 24.5264V24.5199Z" fill="#EA5D5F"/>
<path d="M25.5541 24.4034C25.5652 24.3361 25.5514 24.2669 25.5158 24.2091C25.5084 24.1871 25.4933 24.1688 25.4732 24.158C25.453 24.1472 25.4295 24.1446 25.4077 24.1507C25.3715 24.1607 25.3372 24.1759 25.3057 24.1961L25.4967 24.52C25.4967 24.52 25.5413 24.4552 25.5541 24.4034Z" fill="#DC2664"/>
<path fill-rule="evenodd" clip-rule="evenodd" d="M25.4458 24.4097C25.4458 24.4097 25.4538 24.4175 25.4458 24.4097V24.4097Z" fill="#C0116B"/>
<path d="M25.7071 23.7945C25.6873 23.8067 25.6712 23.8238 25.6601 23.8443C25.649 23.8647 25.6433 23.8877 25.6433 23.9111C25.6245 23.8983 25.6024 23.8914 25.5796 23.8914C25.5571 23.8914 25.5349 23.8983 25.5161 23.9111C25.5245 23.9262 25.5359 23.9395 25.5497 23.95C25.5634 23.9605 25.5789 23.9682 25.5957 23.9724C25.6125 23.9766 25.6296 23.9774 25.6467 23.9747C25.6635 23.9719 25.6796 23.9657 25.6944 23.9564H25.7514C25.781 23.9365 25.8018 23.9062 25.8098 23.8713C25.8182 23.8365 25.8132 23.7998 25.7961 23.7686C25.7961 23.7686 25.7199 23.788 25.7071 23.7945Z" fill="#61B45F"/>
<path d="M25.7514 23.8267C25.732 23.8389 25.7159 23.856 25.7048 23.8765C25.6937 23.8969 25.6877 23.9199 25.688 23.9432L25.7451 24.0469C25.7746 24.027 25.7954 23.9967 25.8035 23.9618C25.8119 23.927 25.8068 23.8903 25.7897 23.8591L25.7514 23.8267Z" fill="#12A96B"/>
<path d="M25.9235 24.4422C25.8661 24.4646 25.8026 24.4646 25.7452 24.4422C25.6566 24.4125 25.5804 24.3531 25.5291 24.2738C25.5099 24.2487 25.4995 24.218 25.4995 24.1863C25.4995 24.1546 25.5099 24.1238 25.5291 24.0988C25.5606 24.0591 25.5995 24.0261 25.6435 24.0017C25.6865 23.9724 25.7335 23.9505 25.7835 23.9369C25.8141 23.9283 25.8463 23.9314 25.8745 23.9458C25.9027 23.9602 25.9248 23.9847 25.9363 24.0146C25.9856 24.0959 26.0037 24.1927 25.9873 24.2867C25.9792 24.3475 25.9524 24.4042 25.9107 24.4487L25.9235 24.4422Z" fill="#EA5D5F"/>
<path d="M25.9937 24.2804C26.0101 24.1864 25.992 24.0895 25.9426 24.0083C25.9312 23.9783 25.9094 23.9538 25.8812 23.9395C25.8527 23.9251 25.8204 23.9219 25.7899 23.9305C25.7402 23.9442 25.6929 23.9661 25.6499 23.9953L25.9171 24.4423C25.9587 24.3979 25.9856 24.3412 25.9937 24.2804Z" fill="#DC2664"/>
<path fill-rule="evenodd" clip-rule="evenodd" d="M25.6178 24.1636C25.6055 24.1697 25.6178 24.1636 25.6178 24.1636V24.1636Z" fill="#DC2664"/>
<path fill-rule="evenodd" clip-rule="evenodd" d="M25.8277 24.0342C25.8154 24.0403 25.8277 24.0342 25.8277 24.0342V24.0342Z" fill="#C0116B"/>
<path fill-rule="evenodd" clip-rule="evenodd" d="M25.8281 24.1572L25.8478 24.189L25.8281 24.1572Z" fill="#C0116B"/>
<path fill-rule="evenodd" clip-rule="evenodd" d="M25.7451 24.1055V24.1432C25.7451 24.1432 25.7516 24.118 25.7451 24.1055Z" fill="#C0116B"/>
<path fill-rule="evenodd" clip-rule="evenodd" d="M25.8535 24.2866V24.3184C25.8535 24.3184 25.8601 24.2993 25.8535 24.2866Z" fill="#C0116B"/>
<path d="M25.8467 23.4055C25.8467 23.4443 25.8467 23.4767 25.8085 23.5091C25.7702 23.5415 25.8085 23.5869 25.8085 23.6193C25.8085 23.6517 25.7575 23.6776 25.7383 23.7035C25.7195 23.7294 25.7383 23.7812 25.6876 23.8071C25.6366 23.833 25.6175 23.8071 25.592 23.8525C25.5668 23.8978 25.5413 23.9108 25.503 23.9238C25.4647 23.9367 25.4328 23.9238 25.3949 23.9238C25.3566 23.9238 25.3311 23.9238 25.2928 23.9238C25.2569 23.9177 25.2223 23.9045 25.1911 23.8849C25.1529 23.8881 25.1146 23.8881 25.0767 23.8849C25.0767 23.8849 25.0256 23.833 25.0001 23.8136C24.9746 23.7942 24.9239 23.8136 24.8984 23.7618C24.8729 23.71 24.8984 23.6905 24.8538 23.6646C24.8091 23.6387 24.7963 23.6128 24.7775 23.5739C24.7584 23.5351 24.7775 23.5027 24.7775 23.4638C24.7775 23.4249 24.7775 23.399 24.7775 23.3602C24.7775 23.3213 24.7775 23.2889 24.7775 23.2565C24.7775 23.2241 24.7775 23.1787 24.7775 23.1399C24.7775 23.101 24.8282 23.0881 24.8474 23.0622C24.8665 23.0362 24.8474 22.9844 24.8984 22.9585C24.9491 22.9326 24.9682 22.9585 24.9937 22.9131C25.0193 22.8678 25.0448 22.8548 25.0767 22.8354C25.1146 22.8322 25.1529 22.8322 25.1911 22.8354C25.1911 22.8354 25.2549 22.8354 25.2928 22.8354C25.3311 22.8354 25.363 22.8354 25.3949 22.8354C25.4265 22.8354 25.4711 22.8354 25.503 22.8354C25.5349 22.8354 25.5604 22.8872 25.5856 22.9067C25.6111 22.9261 25.6621 22.9067 25.6876 22.9585C25.7131 23.0103 25.6876 23.0298 25.7323 23.0557C25.7766 23.0816 25.7893 23.1075 25.8021 23.1399C25.8149 23.1723 25.8021 23.2176 25.8021 23.2565C25.8021 23.2954 25.8467 23.3666 25.8467 23.4055Z" fill="#4BAE52"/>
<path d="M25.8468 23.4057C25.8468 23.3668 25.8468 23.3345 25.8468 23.3021C25.8438 23.2893 25.8438 23.276 25.8468 23.2632C25.835 23.3493 25.8065 23.4322 25.7629 23.5069C25.7192 23.5816 25.6611 23.6465 25.5923 23.6979C25.5235 23.7493 25.445 23.786 25.362 23.8059C25.2788 23.8259 25.1925 23.8286 25.1082 23.8138C25.0347 23.7995 24.9639 23.7733 24.8984 23.7361C24.9052 23.7595 24.9159 23.7814 24.9303 23.8009C24.9303 23.8009 25.0002 23.8009 25.032 23.8527C25.0639 23.9045 25.0767 23.911 25.1082 23.924C25.1465 23.9272 25.1848 23.9272 25.2231 23.924C25.2539 23.9436 25.2885 23.9568 25.3248 23.9628C25.363 23.9628 25.3949 23.9628 25.4265 23.9628C25.4584 23.9628 25.503 23.9628 25.5349 23.9628C25.5668 23.9628 25.592 23.911 25.6239 23.8916C25.6558 23.8721 25.694 23.8916 25.7196 23.8462C25.7447 23.8009 25.7196 23.775 25.7702 23.7426C25.8213 23.7102 25.8276 23.6972 25.8404 23.6584C25.8532 23.6195 25.8404 23.5871 25.8404 23.5482C25.8404 23.5093 25.8468 23.4446 25.8468 23.4057Z" fill="#00A04B"/>
<path d="M25.6112 23.373C25.6132 23.3867 25.6122 23.4005 25.6089 23.4138C25.6052 23.4271 25.5991 23.4395 25.5907 23.4504C25.5823 23.4612 25.5723 23.4703 25.5605 23.477C25.5488 23.4838 25.5357 23.4881 25.5223 23.4897C25.4957 23.4849 25.4722 23.4704 25.4558 23.4488C25.439 23.4273 25.4313 23.4003 25.4333 23.373H25.3568C25.3568 23.4443 25.3185 23.4961 25.2678 23.4961C25.2168 23.4961 25.1849 23.4378 25.1849 23.373H25.1211C25.1211 23.4378 25.0832 23.4961 25.0385 23.4961C24.9939 23.4961 24.9496 23.4378 24.9496 23.373H24.9113C24.9076 23.4157 24.92 23.4583 24.9459 23.492C24.972 23.5257 25.0096 23.548 25.0513 23.5545C25.0627 23.5328 25.0798 23.5147 25.1003 23.5021C25.1211 23.4894 25.1449 23.4828 25.1691 23.4828C25.1933 23.4828 25.2168 23.4894 25.2376 23.5021C25.2584 23.5147 25.2752 23.5328 25.2866 23.5545C25.3114 23.5551 25.3356 23.5487 25.3571 23.5362C25.3786 23.5236 25.396 23.5053 25.4078 23.4832C25.4182 23.5047 25.4346 23.5229 25.4551 23.5355C25.4753 23.548 25.4984 23.5546 25.5223 23.5545C25.5431 23.5528 25.5635 23.547 25.5823 23.5373C25.6008 23.5276 25.6176 23.5142 25.6314 23.498C25.6448 23.4817 25.6552 23.4629 25.6616 23.4426C25.6679 23.4223 25.6703 23.4008 25.6686 23.3795L25.6112 23.373Z" fill="#00A04B"/>
<path d="M25.6117 23.108C25.6133 23.1217 25.6127 23.1355 25.609 23.1488C25.6056 23.1621 25.5996 23.1745 25.5912 23.1853C25.5828 23.1962 25.5724 23.2053 25.5606 23.212C25.5489 23.2188 25.5361 23.2231 25.5227 23.2247C25.4781 23.2247 25.4398 23.1728 25.4398 23.108H25.3572C25.3572 23.1728 25.3189 23.2247 25.2743 23.2247C25.23 23.2247 25.1853 23.1728 25.1853 23.1016H25.1279C25.1316 23.1298 25.1246 23.1585 25.1078 23.1814C25.0913 23.2044 25.0665 23.2199 25.039 23.2247C24.9879 23.2247 24.9497 23.1664 24.9497 23.1016H24.9117C24.908 23.1452 24.9215 23.1886 24.9487 23.2225C24.9759 23.2564 25.0151 23.278 25.0581 23.2829C25.0816 23.2824 25.1044 23.2756 25.1246 23.263C25.1447 23.2505 25.1615 23.2328 25.1726 23.2117C25.1843 23.2338 25.2018 23.2521 25.2233 23.2647C25.2444 23.2773 25.2689 23.2836 25.2934 23.2829C25.3038 23.2611 25.3203 23.2426 25.3404 23.2296C25.3606 23.2167 25.3841 23.2099 25.4079 23.2099C25.4321 23.2099 25.4556 23.2167 25.4757 23.2296C25.4958 23.2426 25.5123 23.2611 25.5227 23.2829C25.5653 23.2796 25.6053 23.2595 25.6338 23.2269C25.6623 23.1943 25.6771 23.1516 25.6754 23.108H25.6117Z" fill="#00A04B"/>
<path d="M26.9671 23.6004C26.9671 23.6392 26.9671 23.6716 26.9671 23.7105C26.9671 23.7494 26.9671 23.7882 26.9671 23.8206C26.9671 23.853 26.9161 23.8725 26.8969 23.9048C26.8778 23.9372 26.8969 23.9761 26.8526 24.002C26.808 24.0279 26.7825 24.0344 26.7506 24.0538C26.7187 24.0733 26.6999 24.1121 26.668 24.1251C26.6361 24.1381 26.5978 24.1251 26.5596 24.1251C26.5287 24.1447 26.4941 24.1579 26.4579 24.164C26.4196 24.164 26.388 24.164 26.3498 24.1316C26.3115 24.0992 26.2732 24.1316 26.2413 24.1316C26.2098 24.1316 26.1906 24.0797 26.1588 24.0603C26.1269 24.0409 26.0886 24.0603 26.0634 24.0085C26.0426 23.9783 26.0255 23.9457 26.0124 23.9113C26.0124 23.9113 25.955 23.8595 25.9422 23.8271C25.9295 23.7947 25.9422 23.7558 25.9422 23.717C25.9241 23.6848 25.9113 23.6498 25.9043 23.6133C25.9043 23.5745 25.9043 23.5421 25.9043 23.5032C25.9043 23.4643 25.9043 23.4254 25.9043 23.3931C25.9043 23.3607 25.955 23.3412 25.9741 23.3089C25.9812 23.272 25.999 23.2381 26.0248 23.2115C26.051 23.1849 26.0842 23.167 26.1205 23.1598C26.1205 23.1598 26.1715 23.1016 26.2034 23.0886C26.2393 23.085 26.2756 23.085 26.3115 23.0886C26.3454 23.0858 26.3793 23.0858 26.4132 23.0886C26.4515 23.0886 26.4834 23.0886 26.5216 23.0886C26.5596 23.0886 26.5978 23.0886 26.6297 23.0886C26.6616 23.0886 26.6808 23.1469 26.7127 23.1663C26.7442 23.1858 26.7825 23.1663 26.808 23.2117C26.8335 23.257 26.808 23.2829 26.859 23.3153C26.9097 23.3477 26.9161 23.3672 26.9288 23.3996C26.9416 23.4319 26.9288 23.4708 26.9288 23.5097C26.9288 23.5485 26.9671 23.5356 26.9671 23.6004Z" fill="#4BAE52"/>
<path d="M26.9674 23.6001C26.9674 23.5612 26.9674 23.5288 26.9674 23.4964C26.9643 23.4836 26.9643 23.4703 26.9674 23.4575C26.9563 23.5436 26.9287 23.6265 26.8858 23.7015C26.8428 23.7764 26.7854 23.8418 26.7173 23.8938C26.6488 23.9458 26.5712 23.9832 26.4883 24.004C26.4054 24.0247 26.3195 24.0284 26.2352 24.0146C26.1624 24.0017 26.0915 23.9777 26.0254 23.9434C26.0321 23.9648 26.0428 23.9846 26.0573 24.0017C26.0573 24.0017 26.1271 24.0341 26.1526 24.0535C26.1781 24.0729 26.2036 24.1118 26.2352 24.1248C26.2671 24.1377 26.3117 24.1248 26.3436 24.1248C26.3755 24.1248 26.4135 24.1572 26.4517 24.1572C26.488 24.1511 26.5226 24.1379 26.5534 24.1183C26.5917 24.1183 26.63 24.1183 26.6619 24.1183C26.6938 24.1183 26.7189 24.0665 26.7444 24.047C26.77 24.0276 26.821 24.047 26.8465 23.9952C26.8717 23.9434 26.8465 23.924 26.8908 23.898C26.9355 23.8721 26.9482 23.8462 26.961 23.8138C26.9737 23.7814 26.961 23.7361 26.961 23.7037C26.961 23.6713 26.9674 23.6001 26.9674 23.6001Z" fill="#00A04B"/>
<path d="M25.1282 23.7876C25.1564 23.8825 25.1567 23.9837 25.1292 24.0788C25.1013 24.1739 25.0466 24.2586 24.9721 24.3222C24.8972 24.3859 24.8059 24.4259 24.7092 24.4371C24.6122 24.4483 24.5145 24.4302 24.4276 24.3851C24.3406 24.3401 24.2688 24.27 24.2211 24.1837C24.1731 24.0974 24.151 23.9986 24.158 23.8996C24.1647 23.8007 24.2 23.706 24.2594 23.6273C24.3185 23.5487 24.3994 23.4895 24.4917 23.4572C24.5545 23.4351 24.6213 23.4262 24.6878 23.4309C24.7546 23.4357 24.8193 23.454 24.8788 23.4848C24.9382 23.5157 24.9909 23.5584 25.0335 23.6104C25.0765 23.6624 25.1087 23.7227 25.1282 23.7876Z" fill="#F39638"/>
<path d="M24.5039 23.4575L24.803 24.4228C24.7409 24.4428 24.6754 24.4501 24.6103 24.4443C24.5452 24.4385 24.4817 24.4198 24.424 24.3891C24.3659 24.3584 24.3146 24.3164 24.2726 24.2655C24.2306 24.2146 24.1991 24.1558 24.1793 24.0924C24.1598 24.029 24.1524 23.9623 24.1581 23.8961C24.1638 23.8299 24.1823 23.7655 24.2125 23.7065C24.2427 23.6476 24.284 23.5953 24.334 23.5525C24.3837 23.5098 24.4418 23.4775 24.5039 23.4575Z" fill="#EB661B"/>
<path d="M24.4657 23.4701V23.5089C24.4735 23.5143 24.4822 23.5171 24.4912 23.5171C24.5003 23.5171 24.5094 23.5143 24.5168 23.5089C24.5225 23.5004 24.5255 23.4902 24.5255 23.4798C24.5255 23.4694 24.5225 23.4592 24.5168 23.4506V23.4118C24.51 23.3907 24.51 23.368 24.5168 23.347C24.5292 23.3288 24.547 23.3152 24.5678 23.3081C24.5735 23.2995 24.5765 23.2894 24.5765 23.279C24.5765 23.2686 24.5735 23.2584 24.5678 23.2498C24.5601 23.2445 24.5513 23.2417 24.5423 23.2417C24.5332 23.2417 24.5241 23.2445 24.5168 23.2498C24.4959 23.2561 24.4765 23.2669 24.46 23.2814C24.4436 23.2959 24.4305 23.3139 24.4214 23.334C24.4187 23.3586 24.4214 23.3835 24.4291 23.4069C24.4369 23.4304 24.4493 23.4519 24.4657 23.4701Z" fill="#AC5743"/>
<path d="M24.4722 23.3472L24.5293 23.5415C24.5219 23.5468 24.5128 23.5496 24.5037 23.5496C24.4947 23.5496 24.4859 23.5468 24.4782 23.5415C24.4631 23.5116 24.4547 23.4787 24.4537 23.4451C24.4527 23.4115 24.4588 23.378 24.4722 23.3472Z" fill="#823931"/>
<path d="M24.0836 23.1532L24.2236 23.1078C24.271 23.0934 24.3216 23.0981 24.3656 23.1211C24.4096 23.144 24.4432 23.1834 24.4589 23.2309L24.5036 23.3864C24.5036 23.3864 24.5036 23.3864 24.5036 23.4252L24.3508 23.4706C24.3035 23.485 24.2528 23.4803 24.2088 23.4573C24.1649 23.4344 24.1313 23.395 24.1155 23.3475L24.0773 23.205C24.0719 23.1971 24.0695 23.1874 24.0705 23.1778C24.0719 23.1682 24.0762 23.1594 24.0836 23.1532Z" fill="#3AB39C"/>
<path d="M24.1983 23.2566C24.2067 23.2507 24.2168 23.2476 24.2268 23.2476C24.2372 23.2476 24.2473 23.2507 24.2557 23.2566L24.4783 23.3796C24.4783 23.3796 24.4783 23.3796 24.4783 23.4185L24.2557 23.3019C24.249 23.304 24.2416 23.3044 24.2345 23.303C24.2278 23.3017 24.2211 23.2987 24.2154 23.2943C24.21 23.2898 24.2053 23.2841 24.2023 23.2775C24.1993 23.271 24.198 23.2638 24.1983 23.2566Z" fill="#279F84"/>
<path d="M27.1646 23.438L27.215 23.496L27.1646 23.438Z" fill="#C86D35"/>
<path d="M27.2661 23.535L27.2153 23.4771L27.2661 23.535Z" fill="#B14E17"/>
<path d="M27.9027 24.2934C27.946 24.2038 27.9739 24.1075 27.9853 24.0083C27.9964 23.933 27.9783 23.8563 27.9346 23.7946C27.8662 23.7192 27.7809 23.6615 27.6862 23.6261C27.6325 23.6053 27.5828 23.5745 27.5399 23.5354C27.4992 23.4943 27.4445 23.4712 27.3871 23.4712C27.3297 23.4712 27.275 23.4943 27.2344 23.5354L27.9027 24.2934Z" fill="#EB6528"/>
<path d="M27.3174 23.6001C27.3174 23.6001 27.3174 23.6972 27.3174 23.8009C27.3268 23.9022 27.3594 23.9999 27.4128 24.0859C27.4396 24.114 27.4729 24.1351 27.5095 24.1475C27.5457 24.1599 27.5847 24.1632 27.6229 24.1572C27.6672 24.1611 27.7119 24.1611 27.7565 24.1572C27.7794 24.0969 27.7945 24.0337 27.8012 23.9693C27.8106 23.9103 27.7968 23.8497 27.7629 23.8009C27.6864 23.7323 27.5947 23.6834 27.4957 23.6584C27.4339 23.6328 27.3698 23.6133 27.3047 23.6001H27.3174Z" fill="#FFD301"/>
<path d="M27.3174 23.6001L27.782 24.1637C27.8048 24.1033 27.8199 24.0402 27.8266 23.9758C27.836 23.9168 27.8223 23.8562 27.7884 23.8074C27.7118 23.7388 27.6202 23.6899 27.5212 23.6649C27.4594 23.6393 27.3953 23.6198 27.3301 23.6066L27.3174 23.6001Z" fill="#F49C1A"/>
<path d="M26.5659 24.2478C26.6572 24.3792 26.7861 24.4787 26.9352 24.5329C26.9808 24.5535 27.0329 24.5556 27.0799 24.5387C27.1272 24.5219 27.1665 24.4874 27.1896 24.4422C27.197 24.3916 27.1843 24.34 27.1547 24.2988C27.1249 24.2575 27.0802 24.2299 27.0305 24.2219C26.8768 24.1825 26.7146 24.1915 26.5659 24.2478Z" fill="#B25117"/>
<path d="M26.6299 24.0924C26.6655 24.1438 26.7084 24.1897 26.7571 24.2285L27.171 24.3645C27.1871 24.357 27.2016 24.3462 27.2137 24.3329C27.2257 24.3195 27.2348 24.3038 27.2408 24.2868C27.2482 24.2371 27.2365 24.1864 27.2083 24.1453C27.1797 24.1043 27.1368 24.076 27.0881 24.0665C26.936 24.0299 26.7769 24.0389 26.6299 24.0924Z" fill="#F49C1A"/>
<path d="M27.075 24.0856C27.1247 24.0936 27.1693 24.1212 27.1992 24.1625C27.2288 24.2037 27.2415 24.2553 27.2341 24.3059L26.5977 24.0986C26.7517 24.0442 26.9182 24.0397 27.075 24.0856Z" fill="#EF7E11"/>
<path d="M27.0248 24.2476C27.1392 24.28 27.2091 24.3837 27.1775 24.4679L26.541 24.2606C26.6968 24.2044 26.866 24.1998 27.0248 24.2476Z" fill="#904014"/>
<path d="M27.1326 24.2023C27.1611 24.1691 27.182 24.1295 27.193 24.0868C27.2041 24.0441 27.2051 23.9994 27.1964 23.9561C27.182 23.9204 27.1571 23.8901 27.1252 23.8692C27.0933 23.8483 27.0557 23.838 27.0181 23.8395C26.9352 23.8395 26.8845 23.9043 26.9033 23.9691C26.9533 24.0699 27.0336 24.1516 27.1326 24.2023Z" fill="#B25117"/>
<path d="M26.9351 23.9626C26.9351 23.8978 26.9351 23.8395 27.0432 23.833L27.1516 24.2087C27.0552 24.1525 26.9794 24.0662 26.9351 23.9626Z" fill="#904014"/>
<path d="M26.7506 24.3708C26.6431 24.3455 26.5307 24.3592 26.4323 24.4097C26.4175 24.4172 26.4051 24.4288 26.3964 24.4431C26.388 24.4574 26.3833 24.4738 26.3833 24.4906C26.3833 24.5074 26.388 24.5239 26.3964 24.5382C26.4051 24.5525 26.4175 24.564 26.4323 24.5716C26.4592 24.5994 26.4937 24.6181 26.5313 24.6251C26.5689 24.632 26.6075 24.6269 26.6425 24.6105C26.677 24.5813 26.7046 24.5447 26.7234 24.5032C26.7422 24.4617 26.7512 24.4164 26.7506 24.3708Z" fill="#F49C1A"/>
<path d="M26.6296 24.6044C26.5947 24.62 26.5561 24.6246 26.5185 24.6177C26.4812 24.6107 26.4466 24.5926 26.4194 24.5656L26.7568 24.3647C26.7535 24.4116 26.7404 24.4572 26.7185 24.4986C26.6967 24.5399 26.6662 24.576 26.6296 24.6044Z" fill="#EF7E11"/>
<path d="M8 22.8798C8.16882 22.8798 8.33069 22.8115 8.45007 22.69C8.56941 22.5685 8.63648 22.4037 8.63648 22.2319C8.63648 22.4037 8.56941 22.5685 8.45007 22.69C8.33069 22.8115 8.16882 22.8798 8 22.8798Z" fill="#F40004"/>
<path d="M12.5381 12.1003C12.5381 12.1003 12.1689 12.5927 12.6526 12.7093C12.6942 12.8251 12.7053 12.9498 12.6852 13.0713C12.665 13.1927 12.6143 13.3069 12.5381 13.4025H21.4489C21.4489 13.4025 20.9715 12.7935 21.226 12.7546C21.4808 12.7158 21.5378 12.204 21.0796 12.0615C20.6214 11.919 12.5381 12.1003 12.5381 12.1003Z" fill="#90918F"/>
<path d="M21.4741 10.5H12.3596C12.1101 10.5 11.9077 10.7059 11.9077 10.9599V11.7503C11.9077 12.0043 12.1101 12.2102 12.3596 12.2102H21.4741C21.7235 12.2102 21.9259 12.0043 21.9259 11.7503V10.9599C21.9259 10.7059 21.7235 10.5 21.4741 10.5Z" fill="#003F23"/>
<path d="M20.8057 12.8516H13.1297C12.4512 12.8516 11.9014 13.4113 11.9014 14.1019V28.4834C11.9014 29.174 12.4512 29.7336 13.1297 29.7336H20.8057C21.4842 29.7336 22.034 29.174 22.034 28.4834V14.1019C22.034 13.4113 21.4842 12.8516 20.8057 12.8516Z" fill="#F8F0B0"/>
<path d="M20.9972 12.8516H16.752V29.7403H20.9972C21.2886 29.7349 21.5665 29.6131 21.7703 29.4009C21.974 29.1887 22.0872 28.9034 22.0855 28.6066V13.9852C22.0872 13.6885 21.974 13.403 21.7703 13.1908C21.5665 12.9786 21.2886 12.8567 20.9972 12.8516Z" fill="#E5DBA3"/>
<path d="M16.8089 21.7073C18.4787 21.7073 19.8322 20.8633 19.8322 19.8222C19.8322 18.781 18.4787 17.937 16.8089 17.937C15.1392 17.937 13.7856 18.781 13.7856 19.8222C13.7856 20.8633 15.1392 21.7073 16.8089 21.7073Z" fill="#FDCE48" stroke="#FCFCFC" stroke-width="0.13" stroke-miterlimit="10"/>
<path d="M20.4493 20.9559L13.5118 20.9106C13.4255 20.9107 13.3399 20.8929 13.2607 20.8583C13.1811 20.8238 13.1096 20.7731 13.0499 20.7095C12.9905 20.6459 12.9445 20.5706 12.9143 20.4882C12.8841 20.4058 12.871 20.3181 12.8753 20.2303C12.8753 20.0585 12.9425 19.8937 13.0616 19.7723C13.1812 19.6508 13.343 19.5825 13.5118 19.5825L20.4493 19.6279C20.6212 19.6362 20.783 19.7115 20.9015 19.8382C21.02 19.9649 21.0861 20.1332 21.0858 20.3081C21.0858 20.4799 21.0187 20.6447 20.8995 20.7661C20.78 20.8876 20.6182 20.9559 20.4493 20.9559Z" fill="#005130"/>
<path d="M16.1595 21.785C16.1497 21.7793 16.139 21.7763 16.1276 21.7763C16.1165 21.7763 16.1054 21.7793 16.0957 21.785C16.088 21.7734 16.0776 21.7639 16.0655 21.7571C16.0531 21.7504 16.0396 21.7466 16.0259 21.7461C16.0259 21.7667 16.0339 21.7865 16.0484 21.8011C16.0625 21.8156 16.0819 21.8238 16.1021 21.8238H16.134C16.1544 21.8238 16.1736 21.8156 16.188 21.8011C16.2025 21.7865 16.2105 21.7667 16.2105 21.7461L16.1595 21.785Z" fill="#61B45F"/>
<path d="M16.172 21.8109C16.1626 21.8053 16.1516 21.8023 16.1406 21.8023C16.1293 21.8023 16.1186 21.8053 16.1089 21.8109V21.8625C16.1289 21.8625 16.1483 21.8543 16.1626 21.8399C16.1767 21.8253 16.1847 21.8057 16.1847 21.7852L16.172 21.8109Z" fill="#12A96B"/>
<path d="M16.0771 22.1608C16.0439 22.1548 16.0143 22.1363 15.9942 22.109C15.958 22.0681 15.9378 22.0152 15.9371 21.96C15.9361 21.9415 15.9412 21.9233 15.9516 21.908C15.962 21.8928 15.9771 21.8815 15.9942 21.8758C16.0217 21.8701 16.0496 21.8701 16.0771 21.8758C16.1063 21.8695 16.1369 21.8695 16.1661 21.8758C16.1822 21.8826 16.196 21.8944 16.205 21.9095C16.2141 21.9246 16.2185 21.9423 16.2171 21.96C16.2188 22.0144 16.2007 22.0675 16.1661 22.109C16.1436 22.1367 16.112 22.1551 16.0771 22.1608Z" fill="#EA5D5F"/>
<path d="M16.1661 22.1088C16.2007 22.0672 16.2188 22.0142 16.2171 21.9598C16.2215 21.9401 16.2188 21.9194 16.2094 21.9016C16.2 21.8837 16.1846 21.8699 16.1661 21.8626C16.1369 21.8563 16.1064 21.8563 16.0771 21.8626V22.1606C16.1121 22.1549 16.1436 22.1365 16.1661 22.1088Z" fill="#DC2664"/>
<path d="M16.3568 21.6687C16.3424 21.6778 16.3303 21.6901 16.3215 21.7047C16.3125 21.7193 16.3074 21.7359 16.3058 21.7529C16.2923 21.745 16.2769 21.7408 16.2611 21.7408C16.2457 21.7408 16.2302 21.745 16.2168 21.7529C16.2222 21.7645 16.2296 21.7748 16.2393 21.7832C16.2487 21.7915 16.2598 21.7977 16.2719 21.8014C16.2839 21.805 16.2964 21.8061 16.3088 21.8044C16.3212 21.8028 16.3333 21.7985 16.344 21.7918H16.3823C16.3998 21.7737 16.4095 21.7492 16.4095 21.7238C16.4095 21.6984 16.3998 21.674 16.3823 21.6558L16.3568 21.6687Z" fill="#61B45F"/>
<path d="M16.3572 21.688C16.3427 21.697 16.3307 21.7093 16.3219 21.7239C16.3129 21.7385 16.3075 21.7551 16.3062 21.7722L16.3508 21.8499C16.3683 21.8318 16.378 21.8073 16.378 21.7819C16.378 21.7565 16.3683 21.7321 16.3508 21.7139L16.3572 21.688Z" fill="#12A96B"/>
<path d="M16.4973 22.1346C16.4563 22.1506 16.411 22.1506 16.37 22.1346C16.3378 22.1257 16.3076 22.1101 16.2814 22.089C16.2549 22.0678 16.2331 22.0415 16.2173 22.0116C16.2032 21.9942 16.1958 21.9725 16.1958 21.95C16.1958 21.9276 16.2032 21.9058 16.2173 21.8885C16.2438 21.8608 16.2737 21.8368 16.3062 21.8172C16.3378 21.797 16.3724 21.7817 16.4083 21.7718C16.4301 21.7657 16.4536 21.7683 16.4738 21.7791C16.4939 21.7899 16.509 21.8082 16.5164 21.8302C16.552 21.888 16.5657 21.9571 16.5547 22.0245C16.5547 22.0763 16.5547 22.1282 16.4973 22.1411V22.1346Z" fill="#EA5D5F"/>
<path d="M16.5546 22.0181C16.5656 21.9508 16.5519 21.8816 16.5163 21.8238C16.5089 21.8019 16.4938 21.7836 16.4737 21.7727C16.4535 21.7619 16.43 21.7593 16.4082 21.7655C16.3719 21.7754 16.3377 21.7907 16.3062 21.8108L16.4972 22.1348C16.4972 22.1348 16.5418 22.07 16.5546 22.0181Z" fill="#DC2664"/>
<path fill-rule="evenodd" clip-rule="evenodd" d="M16.4463 22.0249C16.4463 22.0249 16.4543 22.0328 16.4463 22.0249V22.0249Z" fill="#C0116B"/>
<path d="M16.7071 21.4092C16.6873 21.4214 16.6712 21.4386 16.6601 21.459C16.649 21.4794 16.6433 21.5024 16.6433 21.5258C16.6245 21.513 16.6024 21.5062 16.5796 21.5062C16.5571 21.5062 16.5349 21.513 16.5161 21.5258C16.5245 21.541 16.5359 21.5542 16.5497 21.5647C16.5634 21.5753 16.5789 21.5829 16.5957 21.5872C16.6125 21.5914 16.6296 21.5922 16.6467 21.5894C16.6635 21.5867 16.6796 21.5805 16.6944 21.5712H16.7514C16.781 21.5513 16.8018 21.5209 16.8098 21.4861C16.8182 21.4513 16.8132 21.4146 16.7961 21.3833C16.7961 21.3833 16.7199 21.4027 16.7071 21.4092Z" fill="#61B45F"/>
<path d="M16.7514 21.4419C16.732 21.4541 16.7159 21.4713 16.7048 21.4917C16.6937 21.5121 16.6877 21.5351 16.688 21.5585L16.7451 21.6621C16.7746 21.6422 16.7954 21.6119 16.8035 21.5771C16.8119 21.5423 16.8068 21.5056 16.7897 21.4743L16.7514 21.4419Z" fill="#12A96B"/>
<path d="M16.9235 22.0569C16.8661 22.0794 16.8026 22.0794 16.7452 22.0569C16.6566 22.0273 16.5804 21.9679 16.5291 21.8885C16.5099 21.8635 16.4995 21.8327 16.4995 21.8011C16.4995 21.7694 16.5099 21.7386 16.5291 21.7136C16.5606 21.6739 16.5995 21.6408 16.6435 21.6164C16.6865 21.5871 16.7335 21.5653 16.7835 21.5516C16.8141 21.543 16.8463 21.5462 16.8745 21.5606C16.9027 21.5749 16.9248 21.5994 16.9363 21.6294C16.9856 21.7106 17.0037 21.8075 16.9873 21.9015C16.9792 21.9623 16.9524 22.019 16.9107 22.0634L16.9235 22.0569Z" fill="#EA5D5F"/>
<path d="M16.9937 21.8951C17.0101 21.8011 16.992 21.7043 16.9426 21.623C16.9312 21.5931 16.9094 21.5686 16.8812 21.5542C16.8527 21.5398 16.8204 21.5367 16.7899 21.5453C16.7402 21.5589 16.6929 21.5808 16.6499 21.6101L16.9171 22.057C16.9587 22.0126 16.9856 21.9559 16.9937 21.8951Z" fill="#DC2664"/>
<path fill-rule="evenodd" clip-rule="evenodd" d="M16.6178 21.7783C16.6055 21.7845 16.6178 21.7783 16.6178 21.7783V21.7783Z" fill="#DC2664"/>
<path fill-rule="evenodd" clip-rule="evenodd" d="M16.8277 21.6489C16.8154 21.6551 16.8277 21.6489 16.8277 21.6489V21.6489Z" fill="#C0116B"/>
<path fill-rule="evenodd" clip-rule="evenodd" d="M16.8281 21.772L16.8478 21.8037L16.8281 21.772Z" fill="#C0116B"/>
<path fill-rule="evenodd" clip-rule="evenodd" d="M16.7456 21.7202V21.7579C16.7456 21.7579 16.7521 21.7328 16.7456 21.7202Z" fill="#C0116B"/>
<path fill-rule="evenodd" clip-rule="evenodd" d="M16.8535 21.9014V21.9331C16.8535 21.9331 16.8601 21.9141 16.8535 21.9014Z" fill="#C0116B"/>
<path d="M16.8467 21.0207C16.8467 21.0596 16.8467 21.092 16.8085 21.1244C16.7702 21.1568 16.8085 21.2021 16.8085 21.2345C16.8085 21.2669 16.7575 21.2928 16.7383 21.3187C16.7195 21.3446 16.7383 21.3965 16.6876 21.4224C16.6366 21.4483 16.6175 21.4224 16.592 21.4677C16.5668 21.5131 16.5413 21.526 16.503 21.539C16.4647 21.5519 16.4328 21.539 16.3949 21.539C16.3566 21.539 16.3311 21.539 16.2928 21.539C16.2569 21.5329 16.2223 21.5197 16.1911 21.5001C16.1529 21.5033 16.1146 21.5033 16.0767 21.5001C16.0767 21.5001 16.0256 21.4483 16.0001 21.4288C15.9746 21.4094 15.9239 21.4288 15.8984 21.377C15.8729 21.3252 15.8984 21.3058 15.8538 21.2799C15.8091 21.2539 15.7963 21.228 15.7775 21.1892C15.7584 21.1503 15.7775 21.1179 15.7775 21.079C15.7775 21.0402 15.7775 21.0143 15.7775 20.9754C15.7775 20.9365 15.7775 20.9041 15.7775 20.8717C15.7775 20.8393 15.7775 20.794 15.7775 20.7551C15.7775 20.7163 15.8282 20.7033 15.8474 20.6774C15.8665 20.6515 15.8474 20.5996 15.8984 20.5737C15.9491 20.5478 15.9682 20.5737 15.9937 20.5284C16.0193 20.483 16.0448 20.4701 16.0767 20.4506C16.1146 20.4474 16.1529 20.4474 16.1911 20.4506C16.1911 20.4506 16.2549 20.4506 16.2928 20.4506C16.3311 20.4506 16.363 20.4506 16.3949 20.4506C16.4265 20.4506 16.4711 20.4506 16.503 20.4506C16.5349 20.4506 16.5604 20.5025 16.5856 20.5219C16.6111 20.5413 16.6621 20.5219 16.6876 20.5737C16.7131 20.6256 16.6876 20.645 16.7323 20.6709C16.7766 20.6968 16.7893 20.7227 16.8021 20.7551C16.8149 20.7875 16.8021 20.8329 16.8021 20.8717C16.8021 20.9106 16.8467 20.9819 16.8467 21.0207Z" fill="#4BAE52"/>
<path d="M16.8473 21.0205C16.8473 20.9816 16.8473 20.9492 16.8473 20.9168C16.8442 20.904 16.8442 20.8907 16.8473 20.8779C16.8355 20.9641 16.807 21.047 16.7633 21.1216C16.7197 21.1963 16.6616 21.2613 16.5928 21.3127C16.524 21.364 16.4454 21.4008 16.3625 21.4207C16.2793 21.4406 16.193 21.4433 16.1087 21.4286C16.0352 21.4143 15.9644 21.3881 15.8989 21.3509C15.9056 21.3742 15.9164 21.3962 15.9308 21.4156C15.9308 21.4156 16.0006 21.4156 16.0325 21.4674C16.0644 21.5193 16.0772 21.5258 16.1087 21.5387C16.147 21.5419 16.1853 21.5419 16.2235 21.5387C16.2544 21.5583 16.289 21.5715 16.3253 21.5776C16.3635 21.5776 16.3954 21.5776 16.427 21.5776C16.4589 21.5776 16.5035 21.5776 16.5354 21.5776C16.5673 21.5776 16.5925 21.5258 16.6244 21.5063C16.6563 21.4869 16.6945 21.5063 16.72 21.461C16.7452 21.4156 16.72 21.3897 16.7707 21.3573C16.8218 21.3249 16.8281 21.312 16.8409 21.2731C16.8536 21.2342 16.8409 21.2018 16.8409 21.163C16.8409 21.1241 16.8473 21.0593 16.8473 21.0205Z" fill="#00A04B"/>
<path d="M16.6117 20.9883C16.6137 21.0019 16.6127 21.0158 16.6094 21.029C16.6057 21.0423 16.5996 21.0547 16.5912 21.0656C16.5828 21.0764 16.5728 21.0855 16.561 21.0922C16.5493 21.099 16.5362 21.1033 16.5227 21.1049C16.4962 21.1002 16.4727 21.0856 16.4563 21.064C16.4395 21.0425 16.4318 21.0155 16.4338 20.9883H16.3572C16.3572 21.0595 16.319 21.1114 16.2683 21.1114C16.2173 21.1114 16.1854 21.0531 16.1854 20.9883H16.1216C16.1216 21.0531 16.0836 21.1114 16.039 21.1114C15.9944 21.1114 15.95 21.0531 15.95 20.9883H15.9118C15.9081 21.031 15.9205 21.0735 15.9463 21.1072C15.9725 21.1409 16.0101 21.1632 16.0518 21.1697C16.0632 21.148 16.0803 21.1299 16.1008 21.1173C16.1216 21.1047 16.1454 21.098 16.1696 21.098C16.1938 21.098 16.2173 21.1047 16.2381 21.1173C16.2589 21.1299 16.2757 21.148 16.2871 21.1697C16.3119 21.1703 16.3361 21.164 16.3576 21.1514C16.3791 21.1388 16.3965 21.1205 16.4083 21.0984C16.4187 21.12 16.4351 21.1381 16.4556 21.1507C16.4757 21.1633 16.4989 21.1699 16.5227 21.1697C16.5436 21.168 16.564 21.1622 16.5828 21.1525C16.6013 21.1428 16.6181 21.1295 16.6318 21.1132C16.6453 21.097 16.6557 21.0781 16.6621 21.0578C16.6684 21.0375 16.6708 21.016 16.6691 20.9948L16.6117 20.9883Z" fill="#00A04B"/>
<path d="M16.6117 20.7228C16.6133 20.7364 16.6127 20.7503 16.609 20.7635C16.6056 20.7768 16.5996 20.7892 16.5912 20.8001C16.5828 20.8109 16.5724 20.82 16.5606 20.8268C16.5489 20.8335 16.5361 20.8378 16.5227 20.8394C16.4781 20.8394 16.4398 20.7876 16.4398 20.7228H16.3572C16.3572 20.7876 16.3189 20.8394 16.2743 20.8394C16.23 20.8394 16.1853 20.7876 16.1853 20.7163H16.1279C16.1316 20.7446 16.1246 20.7732 16.1078 20.7962C16.0913 20.8191 16.0665 20.8346 16.039 20.8394C15.9879 20.8394 15.9497 20.7811 15.9497 20.7163H15.9117C15.908 20.76 15.9215 20.8034 15.9487 20.8372C15.9759 20.8711 16.0151 20.8928 16.0581 20.8977C16.0816 20.8971 16.1044 20.8903 16.1246 20.8778C16.1447 20.8653 16.1615 20.8475 16.1726 20.8264C16.1843 20.8485 16.2018 20.8669 16.2233 20.8794C16.2444 20.892 16.2689 20.8983 16.2934 20.8977C16.3038 20.8758 16.3203 20.8573 16.3404 20.8444C16.3606 20.8315 16.3841 20.8246 16.4079 20.8246C16.4321 20.8246 16.4556 20.8315 16.4757 20.8444C16.4958 20.8573 16.5123 20.8758 16.5227 20.8977C16.5653 20.8944 16.6053 20.8743 16.6338 20.8417C16.6623 20.809 16.6771 20.7664 16.6754 20.7228H16.6117Z" fill="#00A04B"/>
<path d="M17.9671 21.2151C17.9671 21.254 17.9671 21.2864 17.9671 21.3252C17.9671 21.3641 17.9671 21.403 17.9671 21.4354C17.9671 21.4678 17.9161 21.4872 17.8969 21.5196C17.8778 21.552 17.8969 21.5909 17.8526 21.6167C17.808 21.6427 17.7825 21.6491 17.7506 21.6686C17.7187 21.688 17.6999 21.7269 17.668 21.7398C17.6361 21.7528 17.5978 21.7398 17.5596 21.7398C17.5287 21.7594 17.4941 21.7726 17.4579 21.7787C17.4196 21.7787 17.388 21.7787 17.3498 21.7463C17.3115 21.7139 17.2732 21.7463 17.2413 21.7463C17.2098 21.7463 17.1906 21.6945 17.1588 21.6751C17.1269 21.6556 17.0886 21.6751 17.0634 21.6232C17.0426 21.593 17.0255 21.5604 17.0124 21.5261C17.0124 21.5261 16.955 21.4742 16.9422 21.4418C16.9295 21.4095 16.9422 21.3706 16.9422 21.3317C16.9241 21.2995 16.9113 21.2645 16.9043 21.2281C16.9043 21.1892 16.9043 21.1568 16.9043 21.1179C16.9043 21.0791 16.9043 21.0402 16.9043 21.0078C16.9043 20.9754 16.955 20.956 16.9741 20.9236C16.9812 20.8867 16.999 20.8528 17.0248 20.8262C17.051 20.7997 17.0842 20.7817 17.1205 20.7746C17.1205 20.7746 17.1715 20.7163 17.2034 20.7034C17.2393 20.6998 17.2756 20.6998 17.3115 20.7034C17.3454 20.7006 17.3793 20.7006 17.4132 20.7034C17.4515 20.7034 17.4834 20.7034 17.5216 20.7034C17.5596 20.7034 17.5978 20.7034 17.6297 20.7034C17.6616 20.7034 17.6808 20.7616 17.7127 20.7811C17.7442 20.8005 17.7825 20.7811 17.808 20.8264C17.8335 20.8718 17.808 20.8977 17.859 20.9301C17.9097 20.9625 17.9161 20.9819 17.9288 21.0143C17.9416 21.0467 17.9288 21.0855 17.9288 21.1244C17.9288 21.1633 17.9671 21.1503 17.9671 21.2151Z" fill="#4BAE52"/>
<path d="M17.9674 21.2153C17.9674 21.1764 17.9674 21.144 17.9674 21.1116C17.9643 21.0988 17.9643 21.0855 17.9674 21.0728C17.9563 21.1588 17.9287 21.2418 17.8858 21.3167C17.8428 21.3917 17.7854 21.4571 17.7173 21.509C17.6488 21.561 17.5712 21.5984 17.4883 21.6192C17.4054 21.64 17.3195 21.6436 17.2352 21.6299C17.1624 21.6169 17.0915 21.5929 17.0254 21.5586C17.0321 21.58 17.0428 21.5999 17.0573 21.6169C17.0573 21.6169 17.1271 21.6493 17.1526 21.6687C17.1781 21.6882 17.2036 21.7271 17.2352 21.74C17.2671 21.753 17.3117 21.74 17.3436 21.74C17.3755 21.74 17.4135 21.7724 17.4517 21.7724C17.488 21.7663 17.5226 21.7531 17.5534 21.7335C17.5917 21.7335 17.63 21.7335 17.6619 21.7335C17.6938 21.7335 17.7189 21.6817 17.7444 21.6623C17.77 21.6428 17.821 21.6623 17.8465 21.6104C17.8717 21.5586 17.8465 21.5392 17.8908 21.5133C17.9355 21.4874 17.9482 21.4615 17.961 21.4291C17.9737 21.3967 17.961 21.3513 17.961 21.3189C17.961 21.2866 17.9674 21.2153 17.9674 21.2153Z" fill="#00A04B"/>
<path d="M16.1282 21.4028C16.1564 21.4977 16.1567 21.599 16.1292 21.694C16.1013 21.7891 16.0466 21.8738 15.9721 21.9375C15.8972 22.0012 15.8059 22.0411 15.7092 22.0523C15.6122 22.0635 15.5145 22.0454 15.4276 22.0003C15.3406 21.9553 15.2688 21.8852 15.2211 21.7989C15.1731 21.7126 15.151 21.6138 15.158 21.5149C15.1647 21.4159 15.2 21.3212 15.2594 21.2426C15.3185 21.1639 15.3994 21.1047 15.4917 21.0725C15.5545 21.0504 15.6213 21.0414 15.6878 21.0462C15.7546 21.0509 15.8193 21.0693 15.8788 21.1001C15.9382 21.1309 15.9909 21.1736 16.0335 21.2256C16.0765 21.2777 16.1087 21.3379 16.1282 21.4028Z" fill="#F39638"/>
<path d="M15.5039 21.0728L15.803 22.038C15.7409 22.058 15.6754 22.0653 15.6103 22.0595C15.5452 22.0538 15.4817 22.035 15.424 22.0043C15.3659 21.9736 15.3146 21.9316 15.2726 21.8807C15.2306 21.8298 15.1991 21.771 15.1793 21.7076C15.1598 21.6442 15.1524 21.5775 15.1581 21.5113C15.1638 21.4451 15.1823 21.3807 15.2125 21.3218C15.2427 21.2628 15.284 21.2105 15.334 21.1678C15.3837 21.125 15.4418 21.0928 15.5039 21.0728Z" fill="#EB661B"/>
<path d="M15.4657 21.0853V21.1242C15.4735 21.1295 15.4822 21.1323 15.4912 21.1323C15.5003 21.1323 15.5094 21.1295 15.5168 21.1242C15.5225 21.1156 15.5255 21.1054 15.5255 21.095C15.5255 21.0846 15.5225 21.0745 15.5168 21.0659V21.027C15.51 21.006 15.51 20.9833 15.5168 20.9622C15.5292 20.9441 15.547 20.9305 15.5678 20.9234C15.5735 20.9148 15.5765 20.9046 15.5765 20.8942C15.5765 20.8838 15.5735 20.8736 15.5678 20.8651C15.5601 20.8598 15.5513 20.8569 15.5423 20.8569C15.5332 20.8569 15.5241 20.8598 15.5168 20.8651C15.4959 20.8713 15.4765 20.8821 15.46 20.8966C15.4436 20.9112 15.4305 20.9291 15.4214 20.9493C15.4187 20.9739 15.4214 20.9987 15.4291 21.0222C15.4369 21.0456 15.4493 21.0671 15.4657 21.0853Z" fill="#AC5743"/>
<path d="M15.4727 20.9624L15.5297 21.1567C15.5224 21.162 15.5133 21.1649 15.5042 21.1649C15.4952 21.1649 15.4864 21.162 15.4787 21.1567C15.4636 21.1269 15.4552 21.0939 15.4542 21.0603C15.4532 21.0267 15.4592 20.9933 15.4727 20.9624Z" fill="#823931"/>
<path d="M15.0841 20.7679L15.2241 20.7226C15.2714 20.7081 15.3221 20.7129 15.3661 20.7358C15.4101 20.7587 15.4436 20.7981 15.4594 20.8456L15.5041 21.0011C15.5041 21.0011 15.5041 21.0011 15.5041 21.04L15.3513 21.0853C15.304 21.0998 15.2533 21.095 15.2093 21.0721C15.1654 21.0491 15.1318 21.0098 15.116 20.9622L15.0777 20.8197C15.0724 20.8118 15.07 20.8022 15.071 20.7926C15.0724 20.783 15.0767 20.7742 15.0841 20.7679Z" fill="#3AB39C"/>
<path d="M15.1983 20.8718C15.2067 20.8659 15.2168 20.8628 15.2268 20.8628C15.2372 20.8628 15.2473 20.8659 15.2557 20.8718L15.4783 20.9949C15.4783 20.9949 15.4783 20.9949 15.4783 21.0337L15.2557 20.9171C15.249 20.9192 15.2416 20.9196 15.2345 20.9183C15.2278 20.9169 15.2211 20.9139 15.2154 20.9095C15.21 20.905 15.2053 20.8993 15.2023 20.8927C15.1993 20.8862 15.198 20.879 15.1983 20.8718Z" fill="#279F84"/>
<path d="M18.1646 21.0527L18.215 21.1107L18.1646 21.0527Z" fill="#C86D35"/>
<path d="M18.2661 21.1498L18.2153 21.0918L18.2661 21.1498Z" fill="#B14E17"/>
<path d="M18.9027 21.9081C18.946 21.8186 18.9739 21.7222 18.9853 21.6231C18.9964 21.5478 18.9783 21.471 18.9346 21.4093C18.8662 21.3339 18.7809 21.2762 18.6862 21.2409C18.6325 21.22 18.5828 21.1893 18.5399 21.1502C18.4992 21.109 18.4445 21.0859 18.3871 21.0859C18.3297 21.0859 18.275 21.109 18.2344 21.1502L18.9027 21.9081Z" fill="#EB6528"/>
<path d="M18.3174 21.2148C18.3174 21.2148 18.3174 21.312 18.3174 21.4157C18.3268 21.517 18.3594 21.6146 18.4128 21.7007C18.4396 21.7287 18.4729 21.7498 18.5095 21.7622C18.5457 21.7746 18.5847 21.7779 18.6229 21.772C18.6672 21.7759 18.7119 21.7759 18.7565 21.772C18.7794 21.7116 18.7945 21.6484 18.8012 21.5841C18.8106 21.525 18.7968 21.4645 18.7629 21.4157C18.6864 21.347 18.5947 21.2981 18.4957 21.2731C18.4339 21.2476 18.3698 21.2281 18.3047 21.2148H18.3174Z" fill="#FFD301"/>
<path d="M18.3174 21.2148L18.782 21.7784C18.8048 21.7181 18.8199 21.6549 18.8266 21.5906C18.836 21.5315 18.8223 21.4709 18.7884 21.4221C18.7118 21.3535 18.6202 21.3046 18.5212 21.2796C18.4594 21.2541 18.3953 21.2345 18.3301 21.2213L18.3174 21.2148Z" fill="#F49C1A"/>
<path d="M17.5659 21.8626C17.6572 21.9939 17.7861 22.0934 17.9352 22.1476C17.9808 22.1682 18.0329 22.1703 18.0799 22.1535C18.1272 22.1366 18.1665 22.1021 18.1896 22.0569C18.197 22.0063 18.1843 21.9547 18.1547 21.9135C18.1249 21.8723 18.0802 21.8447 18.0305 21.8367C17.8768 21.7972 17.7146 21.8062 17.5659 21.8626Z" fill="#B25117"/>
<path d="M17.6299 21.7072C17.6655 21.7586 17.7084 21.8044 17.7571 21.8432L18.171 21.9793C18.1871 21.9717 18.2016 21.9609 18.2137 21.9476C18.2257 21.9343 18.2348 21.9186 18.2408 21.9016C18.2482 21.8518 18.2365 21.8012 18.2083 21.7601C18.1797 21.719 18.1368 21.6908 18.0881 21.6813C17.936 21.6447 17.7769 21.6537 17.6299 21.7072Z" fill="#F49C1A"/>
<path d="M18.075 21.7009C18.1247 21.7089 18.1693 21.7365 18.1992 21.7777C18.2288 21.819 18.2415 21.8705 18.2341 21.9211L17.5977 21.7138C17.7517 21.6594 17.9182 21.6549 18.075 21.7009Z" fill="#EF7E11"/>
<path d="M18.0248 21.8624C18.1392 21.8948 18.2091 21.9984 18.1775 22.0826L17.541 21.8753C17.6968 21.8192 17.866 21.8146 18.0248 21.8624Z" fill="#904014"/>
<path d="M18.1331 21.8175C18.1616 21.7843 18.1824 21.7448 18.1935 21.7021C18.2046 21.6593 18.2056 21.6146 18.1969 21.5714C18.1824 21.5356 18.1576 21.5053 18.1257 21.4844C18.0938 21.4636 18.0562 21.4532 18.0186 21.4547C17.9357 21.4547 17.885 21.5195 17.9038 21.5843C17.9538 21.6851 18.0341 21.7669 18.1331 21.8175Z" fill="#B25117"/>
<path d="M17.9355 21.5778C17.9355 21.513 17.9355 21.4547 18.0436 21.4482L18.1521 21.824C18.0557 21.7678 17.9799 21.6814 17.9355 21.5778Z" fill="#904014"/>
<path d="M17.7506 21.9855C17.6431 21.9602 17.5307 21.974 17.4323 22.0244C17.4175 22.032 17.4051 22.0435 17.3964 22.0578C17.388 22.0721 17.3833 22.0886 17.3833 22.1054C17.3833 22.1222 17.388 22.1386 17.3964 22.1529C17.4051 22.1672 17.4175 22.1788 17.4323 22.1863C17.4592 22.2142 17.4937 22.2329 17.5313 22.2398C17.5689 22.2468 17.6075 22.2417 17.6425 22.2252C17.677 22.1961 17.7046 22.1594 17.7234 22.1179C17.7422 22.0764 17.7512 22.0312 17.7506 21.9855Z" fill="#F49C1A"/>
<path d="M17.6301 22.2192C17.5952 22.2347 17.5566 22.2394 17.519 22.2324C17.4817 22.2255 17.4471 22.2074 17.4199 22.1803L17.7573 21.9795C17.7539 22.0264 17.7409 22.072 17.719 22.1133C17.6972 22.1547 17.6667 22.1907 17.6301 22.2192Z" fill="#EF7E11"/>
</g>
<defs>
<clipPath id="clip0_3397_35321">
<rect width="40" height="40" fill="white" transform="translate(0.5 0.5)"/>
</clipPath>
</defs>
</svg>
