<svg width="18" height="18" viewBox="0 0 18 18" fill="none" xmlns="http://www.w3.org/2000/svg">
<path d="M8.16666 11.5H9.83332V13.1667H8.16666V11.5ZM8.16666 4.83332H9.83332V9.83332H8.16666V4.83332ZM8.99166 0.666656C4.39166 0.666656 0.666656 4.39999 0.666656 8.99999C0.666656 13.6 4.39166 17.3333 8.99166 17.3333C13.6 17.3333 17.3333 13.6 17.3333 8.99999C17.3333 4.39999 13.6 0.666656 8.99166 0.666656ZM8.99999 15.6667C5.31666 15.6667 2.33332 12.6833 2.33332 8.99999C2.33332 5.31666 5.31666 2.33332 8.99999 2.33332C12.6833 2.33332 15.6667 5.31666 15.6667 8.99999C15.6667 12.6833 12.6833 15.6667 8.99999 15.6667Z" fill="#9C0000"/>
</svg>
