<svg width="14" height="22" viewBox="0 0 14 22" fill="none" xmlns="http://www.w3.org/2000/svg">
<path d="M1.92308 0.85C1.84023 0.85 1.77308 0.917157 1.77308 1V1.95238C1.77308 2.03522 1.84023 2.10238 1.92308 2.10238H2.29716L1.02931 3.41048L1.13517 3.51309L1.02931 3.41049L0.89229 3.55185C0.865167 3.57984 0.85 3.61728 0.85 3.65625V3.85714V20.0476V20.2411C0.85 20.28 0.865167 20.3175 0.89229 20.3455L1.02931 20.4868L1.48945 20.9616L1.61788 21.1015C1.64629 21.1324 1.68636 21.15 1.72837 21.15H1.92308H12.0769H12.2716C12.3136 21.15 12.3537 21.1324 12.3821 21.1015L12.5106 20.9616L12.9707 20.4868L13.1077 20.3455C13.1348 20.3175 13.15 20.28 13.15 20.2411V20.0476V3.85714V3.65625C13.15 3.61728 13.1348 3.57984 13.1077 3.55185L12.9707 3.41049L11.7028 2.10238H12.0769C12.1598 2.10238 12.2269 2.03522 12.2269 1.95238V1C12.2269 0.917157 12.1598 0.85 12.0769 0.85H1.92308ZM4.02024 2.10238H9.97976L11.9269 4.11136V8.06003C11.1407 8.6362 10.2741 8.94524 9.53846 8.94524C8.75069 8.94524 8.00238 8.63838 7.18259 8.28067C7.14313 8.26346 7.1035 8.2461 7.06367 8.22867C6.28652 7.88843 5.43735 7.51667 4.46154 7.51667C3.68022 7.51667 2.86872 7.67439 2.07308 8.11758V4.11136L4.02024 2.10238ZM4.46154 8.76905C5.16705 8.76905 5.88154 9.07245 6.70924 9.43361L6.72801 9.4418C7.54071 9.79644 8.46004 10.1976 9.53846 10.1976C10.3334 10.1976 11.1574 9.9669 11.9269 9.54755V13.2981C11.1407 13.8743 10.2741 14.1833 9.53846 14.1833C8.75069 14.1833 8.00237 13.8765 7.18259 13.5188L7.1226 13.6562L7.18258 13.5188C7.14311 13.5015 7.10346 13.4842 7.06361 13.4667C6.28648 13.1265 5.43732 12.7548 4.46154 12.7548C3.68022 12.7548 2.86872 12.9125 2.07308 13.3557V9.62605C2.88018 8.95168 3.62657 8.76905 4.46154 8.76905ZM4.46154 14.0071C5.16705 14.0071 5.88154 14.3105 6.70924 14.6717L6.72819 14.68C7.54084 15.0346 8.46012 15.4357 9.53846 15.4357C10.3334 15.4357 11.1574 15.205 11.9269 14.7856V19.786L11.8187 19.8976H2.1813L2.07308 19.786V14.8641C2.88018 14.1898 3.62657 14.0071 4.46154 14.0071Z" fill="#5F6F86" stroke="#5F6F86" stroke-width="0.3" stroke-linejoin="round"/>
</svg>
