<svg width="36" height="35" viewBox="0 0 36 35" fill="none" xmlns="http://www.w3.org/2000/svg">
<g clip-path="url(#clip0_3397_34775)">
<circle cx="18" cy="17.5" r="17.5" fill="#E8EBF7"/>
<g opacity="0.75">
<path d="M0.5 17.543C0.5 27.1876 8.33124 35.043 18 35.043V0.0429688C8.33124 0.0429688 0.5 7.89833 0.5 17.543Z" fill="#E8EBF7"/>
<path d="M17.9561 0.0429688V35.043C27.6685 35.043 35.4998 27.1876 35.4998 17.543C35.4998 7.89833 27.6685 0.0429688 17.9561 0.0429688Z" fill="#E8EBF7"/>
</g>
<g opacity="0.6">
<g opacity="0.8">
<g opacity="0.3">
<path d="M23.5209 5.59848H16.8393C16.6669 5.59848 16.5376 5.46918 16.5376 5.2968C16.5376 5.12441 16.6669 4.99512 16.8393 4.99512H23.5209C23.6933 4.99512 23.8226 5.12441 23.8226 5.2968C23.8226 5.46918 23.6933 5.59848 23.5209 5.59848Z" fill="#A9D6FF"/>
<path d="M14.7273 5.59848H13.4341C13.2616 5.59848 13.1323 5.46918 13.1323 5.2968C13.1323 5.12441 13.2616 4.99512 13.4341 4.99512H14.7273C14.8997 4.99512 15.029 5.12441 15.029 5.2968C15.029 5.46918 14.8997 5.59848 14.7273 5.59848Z" fill="#A9D6FF"/>
<path fill-rule="evenodd" clip-rule="evenodd" d="M13.4341 3.57308H14.0376V2.96973H13.4341V3.57308ZM15.2015 3.57308H14.598V2.96973H15.2015V3.57308ZM15.7618 3.57308H16.3653V2.96973H15.7618V3.57308ZM17.5292 3.57308H16.9257V2.96973H17.5292V3.57308ZM18.0896 3.57308H18.6931V2.96973H18.0896V3.57308ZM19.2535 3.57308H19.857V2.96973H19.2535V3.57308Z" fill="#A9D6FF"/>
</g>
<g opacity="0.3">
<path d="M23.5209 31.1981H16.8393C16.6669 31.1981 16.5376 31.0688 16.5376 30.8964C16.5376 30.724 16.6669 30.5947 16.8393 30.5947H23.5209C23.6933 30.5947 23.8226 30.724 23.8226 30.8964C23.8226 31.0688 23.6933 31.1981 23.5209 31.1981Z" fill="#A9D6FF"/>
<path d="M14.7273 31.1981H13.4341C13.2616 31.1981 13.1323 31.0688 13.1323 30.8964C13.1323 30.724 13.2616 30.5947 13.4341 30.5947H14.7273C14.8997 30.5947 15.029 30.724 15.029 30.8964C15.029 31.0688 14.8997 31.1981 14.7273 31.1981Z" fill="#A9D6FF"/>
<path fill-rule="evenodd" clip-rule="evenodd" d="M13.4341 29.1727H14.0376V28.5693H13.4341V29.1727ZM15.2015 29.1727H14.598V28.5693H15.2015V29.1727ZM15.7618 29.1727H16.3653V28.5693H15.7618V29.1727ZM17.5292 29.1727H16.9257V28.5693H17.5292V29.1727ZM18.0896 29.1727H18.6931V28.5693H18.0896V29.1727ZM19.2535 29.1727H19.857V28.5693H19.2535V29.1727Z" fill="#57AEFF"/>
</g>
</g>
<g opacity="0.2">
<path d="M32.5736 16.3299H27.487C27.3577 16.3299 27.2715 16.2437 27.2715 16.1144C27.2715 15.9851 27.3577 15.8989 27.487 15.8989H32.5736C32.7029 15.8989 32.7891 15.9851 32.7891 16.1144C32.7891 16.2006 32.7029 16.3299 32.5736 16.3299Z" fill="#A9D6FF"/>
<path d="M30.0301 15.0799H24.9436C24.8142 15.0799 24.728 14.9937 24.728 14.8644C24.728 14.7351 24.8142 14.6489 24.9436 14.6489H30.0301C30.1595 14.6489 30.2457 14.7351 30.2457 14.8644C30.2457 14.9937 30.1595 15.0799 30.0301 15.0799Z" fill="#A9D6FF"/>
<path d="M11.5804 16.3299H6.49385C6.36453 16.3299 6.27832 16.2437 6.27832 16.1144C6.27832 15.9851 6.36453 15.8989 6.49385 15.8989H11.5804C11.7098 15.8989 11.796 15.9851 11.796 16.1144C11.796 16.2006 11.7098 16.3299 11.5804 16.3299Z" fill="#A9D6FF"/>
<path d="M9.03698 15.0799H3.9504C3.82108 15.0799 3.73486 14.9937 3.73486 14.8644C3.73486 14.7351 3.82108 14.6489 3.9504 14.6489H9.03698C9.1663 14.6489 9.25251 14.7351 9.25251 14.8644C9.25251 14.9937 9.1663 15.0799 9.03698 15.0799Z" fill="#A9D6FF"/>
</g>
</g>
<path d="M4.03095 26.375C4.06126 26.4256 4.11116 26.4625 4.16969 26.4777C4.22822 26.4928 4.29059 26.485 4.34311 26.4558L4.75717 26.2252V26.6863C4.75717 26.7448 4.78126 26.8009 4.82415 26.8423C4.86704 26.8836 4.92521 26.9069 4.98585 26.9069C5.04651 26.9069 5.10468 26.8836 5.14756 26.8423C5.19045 26.8009 5.21454 26.7448 5.21454 26.6863V25.9704L5.74299 25.6762L6.27131 25.9704V26.5589L5.62856 26.9168C5.57602 26.946 5.53769 26.9942 5.52198 27.0507C5.50627 27.1072 5.51449 27.1674 5.54481 27.2181C5.57514 27.2688 5.6251 27.3058 5.68369 27.3209C5.74228 27.3361 5.80471 27.3282 5.85725 27.2989L6.27131 27.0684V27.5294C6.27131 27.5879 6.2954 27.644 6.33829 27.6854C6.38118 27.7268 6.43935 27.75 6.5 27.75C6.56065 27.75 6.61882 27.7268 6.6617 27.6854C6.70459 27.644 6.72868 27.5879 6.72868 27.5294V27.0683L7.14274 27.2989C7.16876 27.3134 7.19747 27.3228 7.22725 27.3266C7.25703 27.3304 7.28729 27.3284 7.3163 27.3209C7.34532 27.3134 7.37252 27.3005 7.39634 27.2828C7.42017 27.2652 7.44016 27.2432 7.45518 27.2181C7.47019 27.193 7.47994 27.1653 7.48386 27.1366C7.48778 27.1079 7.48579 27.0787 7.47801 27.0507C7.47024 27.0227 7.45682 26.9965 7.43853 26.9735C7.42025 26.9505 7.39745 26.9312 7.37143 26.9168L6.72868 26.559V25.9704L7.25704 25.6762L7.78549 25.9704V26.6863C7.78549 26.7448 7.80959 26.8009 7.85248 26.8423C7.89536 26.8836 7.95353 26.9069 8.01418 26.9069C8.07483 26.9069 8.133 26.8836 8.17589 26.8423C8.21878 26.8009 8.24287 26.7448 8.24287 26.6863V26.2252L8.65695 26.4558C8.68293 26.4703 8.71165 26.4797 8.74143 26.4834C8.7712 26.4872 8.80148 26.4853 8.83048 26.4778C8.85952 26.4703 8.88669 26.4574 8.91052 26.4397C8.93435 26.4221 8.95434 26.4001 8.96938 26.375C8.98438 26.3499 8.99413 26.3222 8.99806 26.2935C9.00195 26.2648 8.99998 26.2356 8.99221 26.2076C8.98443 26.1796 8.97103 26.1534 8.95273 26.1304C8.93444 26.1074 8.91162 26.0881 8.88564 26.0736L8.47169 25.8431L8.88564 25.6127C8.91162 25.5982 8.93444 25.5789 8.95273 25.5559C8.97103 25.5329 8.98443 25.5067 8.99221 25.4787C8.99998 25.4507 9.00195 25.4215 8.99806 25.3928C8.99413 25.3641 8.98438 25.3364 8.96938 25.3113C8.95434 25.2862 8.93435 25.2642 8.91052 25.2466C8.88669 25.2289 8.85952 25.216 8.83048 25.2085C8.80148 25.201 8.7712 25.1991 8.74143 25.2029C8.71165 25.2066 8.68293 25.216 8.65695 25.2305L8.01414 25.5884L7.48582 25.2941V24.7058L8.01414 24.4117L8.65695 24.7697C8.68293 24.7841 8.71165 24.7935 8.74143 24.7973C8.7712 24.8011 8.80148 24.7992 8.83048 24.7917C8.85952 24.7842 8.88669 24.7712 8.91052 24.7536C8.93435 24.736 8.95434 24.714 8.96938 24.6889C8.98438 24.6638 8.99413 24.6361 8.99806 24.6074C9.00195 24.5786 8.99998 24.5495 8.99221 24.5215C8.98443 24.4935 8.97103 24.4673 8.95273 24.4443C8.93444 24.4213 8.91162 24.402 8.88564 24.3875L8.47169 24.1571L8.88564 23.9265C8.93814 23.8973 8.97647 23.8491 8.99221 23.7926C9.00789 23.7361 8.99971 23.6759 8.96938 23.6252C8.93906 23.5745 8.88907 23.5375 8.83048 23.5224C8.77189 23.5072 8.70946 23.5151 8.65695 23.5444L8.24287 23.775V23.3137C8.24287 23.2552 8.21878 23.1991 8.17589 23.1577C8.133 23.1164 8.07483 23.0931 8.01418 23.0931C7.95353 23.0931 7.89536 23.1164 7.85248 23.1577C7.80959 23.1991 7.78549 23.2552 7.78549 23.3137V24.0296L7.25704 24.3238L6.72873 24.0296V23.4412L7.37148 23.0833C7.39749 23.0688 7.42029 23.0495 7.43858 23.0265C7.45687 23.0035 7.47028 22.9773 7.47806 22.9493C7.48584 22.9213 7.48782 22.8922 7.48391 22.8634C7.47999 22.8347 7.47024 22.807 7.45522 22.7819C7.44021 22.7568 7.42022 22.7348 7.39639 22.7172C7.37256 22.6996 7.34537 22.6866 7.31635 22.6791C7.28734 22.6716 7.25708 22.6697 7.2273 22.6735C7.19752 22.6773 7.16881 22.6867 7.14279 22.7011L6.72873 22.9317V22.4706C6.72873 22.4121 6.70463 22.356 6.66175 22.3146C6.61886 22.2732 6.56069 22.25 6.50004 22.25C6.43939 22.25 6.38122 22.2732 6.33834 22.3146C6.29545 22.356 6.27135 22.4121 6.27135 22.4706V22.9317L5.85729 22.7011C5.80476 22.6718 5.74233 22.6639 5.68373 22.6791C5.62514 22.6942 5.57519 22.7312 5.54486 22.7819C5.51453 22.8326 5.50632 22.8928 5.52203 22.9493C5.53773 23.0058 5.57607 23.054 5.6286 23.0832L6.27135 23.4412V24.0296L5.74304 24.3238L5.21459 24.0296V23.3137C5.21459 23.2552 5.1905 23.1991 5.14761 23.1577C5.10472 23.1164 5.04655 23.0931 4.9859 23.0931C4.92525 23.0931 4.86708 23.1164 4.82419 23.1577C4.78131 23.1991 4.75721 23.2552 4.75721 23.3137V23.7748L4.34311 23.5442C4.31709 23.5297 4.28836 23.5203 4.25858 23.5166C4.22879 23.5128 4.19853 23.5147 4.16951 23.5222C4.1405 23.5297 4.1133 23.5427 4.08947 23.5603C4.06564 23.5779 4.04564 23.5999 4.03063 23.625C4.0003 23.6757 3.99209 23.736 4.00781 23.7925C4.02352 23.849 4.06187 23.8972 4.11442 23.9265L4.52834 24.157L4.11442 24.3873C4.06188 24.4166 4.02354 24.4648 4.00784 24.5213C3.99213 24.5778 4.00035 24.638 4.03067 24.6887C4.061 24.7394 4.11095 24.7764 4.16955 24.7915C4.22814 24.8067 4.29057 24.7987 4.34311 24.7695L4.98595 24.4117L5.51426 24.706V25.2941L4.98595 25.5883L4.34311 25.2305C4.29057 25.2013 4.22814 25.1933 4.16955 25.2085C4.11095 25.2236 4.061 25.2606 4.03067 25.3113C4.00035 25.362 3.99213 25.4222 4.00784 25.4787C4.02354 25.5352 4.06188 25.5834 4.11442 25.6127L4.52834 25.8431L4.11442 26.0736C4.0884 26.0881 4.0656 26.1074 4.04731 26.1304C4.02903 26.1534 4.01563 26.1796 4.00788 26.2076C4.00012 26.2356 3.99817 26.2648 4.00213 26.2935C4.00609 26.3222 4.01588 26.3499 4.03095 26.375ZM5.97164 24.7057L6.50004 24.4115L7.02845 24.7057V25.2941L6.50004 25.5883L5.97164 25.2941V24.7057Z" fill="#A6D1F9"/>
<path d="M23.0309 8.37496C23.0613 8.42558 23.1112 8.46252 23.1697 8.47767C23.2282 8.49282 23.2906 8.48495 23.3431 8.45578L23.7572 8.22522V8.68629C23.7572 8.74479 23.7813 8.80091 23.8241 8.84229C23.867 8.88363 23.9252 8.90688 23.9859 8.90688C24.0465 8.90688 24.1047 8.88363 24.1476 8.84229C24.1905 8.80091 24.2145 8.74479 24.2145 8.68629V7.97045L24.743 7.67623L25.2713 7.9704V8.55888L24.6286 8.91676C24.576 8.94601 24.5377 8.99418 24.522 9.0507C24.5063 9.10721 24.5145 9.16743 24.5448 9.21812C24.5751 9.26881 24.6251 9.30578 24.6837 9.32092C24.7423 9.33609 24.8047 9.32815 24.8572 9.2989L25.2713 9.06839V9.52941C25.2713 9.58791 25.2954 9.64403 25.3383 9.68541C25.3812 9.72675 25.4393 9.75 25.5 9.75C25.5606 9.75 25.6188 9.72675 25.6617 9.68541C25.7046 9.64403 25.7287 9.58791 25.7287 9.52941V9.0683L26.1427 9.2989C26.1688 9.31337 26.1975 9.32277 26.2273 9.32656C26.257 9.33036 26.2873 9.32842 26.3163 9.32092C26.3453 9.31342 26.3725 9.30049 26.3963 9.28284C26.4202 9.2652 26.4402 9.24323 26.4552 9.21812C26.4702 9.19302 26.4799 9.16532 26.4839 9.13659C26.4878 9.10787 26.4858 9.07871 26.478 9.0507C26.4702 9.02273 26.4568 8.99648 26.4385 8.97349C26.4202 8.95051 26.3974 8.93123 26.3714 8.91676L25.7287 8.55897V7.9704L26.257 7.67623L26.7855 7.97045V8.68629C26.7855 8.74479 26.8096 8.80091 26.8525 8.84229C26.8954 8.88363 26.9535 8.90688 27.0142 8.90688C27.0748 8.90688 27.133 8.88363 27.1759 8.84229C27.2188 8.80091 27.2429 8.74479 27.2429 8.68629V8.22522L27.6569 8.45578C27.6829 8.47026 27.7117 8.47966 27.7414 8.48344C27.7712 8.48722 27.8015 8.48531 27.8305 8.47781C27.8595 8.4703 27.8867 8.45736 27.9105 8.43972C27.9343 8.42209 27.9543 8.40009 27.9694 8.375C27.9844 8.34991 27.9941 8.32221 27.9981 8.29348C28.0019 8.26476 28 8.23557 27.9922 8.20759C27.9844 8.17961 27.971 8.15337 27.9527 8.13039C27.9344 8.1074 27.9116 8.08812 27.8856 8.07364L27.4717 7.84312L27.8856 7.61266C27.9116 7.59817 27.9344 7.57889 27.9527 7.5559C27.971 7.53292 27.9844 7.50669 27.9922 7.4787C28 7.45072 28.0019 7.42153 27.9981 7.39281C27.9941 7.36408 27.9844 7.33638 27.9694 7.31129C27.9543 7.2862 27.9343 7.2642 27.9105 7.24657C27.8867 7.22893 27.8595 7.21599 27.8305 7.20849C27.8015 7.20098 27.7712 7.19907 27.7414 7.20285C27.7117 7.20663 27.6829 7.21603 27.6569 7.23051L27.0141 7.58844L26.4858 7.29409V6.70583L27.0141 6.41174L27.6569 6.76966C27.6829 6.78415 27.7117 6.79355 27.7414 6.79733C27.7712 6.80111 27.8015 6.79919 27.8305 6.79169C27.8595 6.78419 27.8867 6.77125 27.9105 6.75361C27.9343 6.73597 27.9543 6.71398 27.9694 6.68889C27.9844 6.66379 27.9941 6.6361 27.9981 6.60737C28.0019 6.57865 28 6.54946 27.9922 6.52147C27.9844 6.49349 27.971 6.46726 27.9527 6.44427C27.9344 6.42129 27.9116 6.402 27.8856 6.38752L27.4717 6.15705L27.8856 5.92654C27.9381 5.89729 27.9765 5.84911 27.9922 5.79259C28.0079 5.73607 27.9997 5.67585 27.9694 5.62518C27.9391 5.5745 27.8891 5.53752 27.8305 5.52237C27.7719 5.50722 27.7095 5.51515 27.6569 5.5444L27.2429 5.77495V5.31371C27.2429 5.25521 27.2188 5.1991 27.1759 5.15773C27.133 5.11636 27.0748 5.09312 27.0142 5.09312C26.9535 5.09312 26.8954 5.11636 26.8525 5.15773C26.8096 5.1991 26.7855 5.25521 26.7855 5.31371V6.02955L26.257 6.32377L25.7287 6.0296V5.44116L26.3715 5.08329C26.3975 5.0688 26.4203 5.04952 26.4386 5.02653C26.4569 5.00355 26.4703 4.97732 26.4781 4.94933C26.4858 4.92135 26.4878 4.89216 26.4839 4.86344C26.48 4.83471 26.4702 4.80701 26.4552 4.78192C26.4402 4.75683 26.4202 4.73483 26.3964 4.7172C26.3726 4.69956 26.3454 4.68662 26.3164 4.67912C26.2873 4.67162 26.2571 4.6697 26.2273 4.67348C26.1975 4.67726 26.1688 4.68666 26.1428 4.70114L25.7287 4.93165V4.47059C25.7287 4.41208 25.7046 4.35598 25.6618 4.31461C25.6189 4.27324 25.5607 4.25 25.5 4.25C25.4394 4.25 25.3812 4.27324 25.3383 4.31461C25.2954 4.35598 25.2714 4.41208 25.2714 4.47059V4.9317L24.8573 4.7011C24.8048 4.67185 24.7423 4.66392 24.6837 4.67907C24.6251 4.69422 24.5752 4.7312 24.5449 4.78188C24.5145 4.83255 24.5063 4.89277 24.522 4.94929C24.5377 5.00581 24.5761 5.05399 24.6286 5.08324L25.2714 5.44116V6.0296L24.743 6.32377L24.2146 6.02955V5.31371C24.2146 5.25521 24.1905 5.1991 24.1476 5.15773C24.1047 5.11636 24.0466 5.09312 23.9859 5.09312C23.9253 5.09312 23.8671 5.11636 23.8242 5.15773C23.7813 5.1991 23.7572 5.25521 23.7572 5.31371V5.77478L23.3431 5.54422C23.3171 5.52974 23.2884 5.52034 23.2586 5.51656C23.2288 5.51278 23.1985 5.5147 23.1695 5.52221C23.1405 5.52972 23.1133 5.54266 23.0895 5.5603C23.0656 5.57795 23.0456 5.59995 23.0306 5.62504C23.0003 5.67573 22.9921 5.73596 23.0078 5.79249C23.0235 5.84901 23.0619 5.8972 23.1144 5.92645L23.5283 6.15697L23.1144 6.38734C23.0619 6.41659 23.0235 6.46478 23.0078 6.5213C22.9921 6.57781 23.0003 6.63803 23.0307 6.68871C23.061 6.73939 23.111 6.77637 23.1695 6.79151C23.2281 6.80666 23.2906 6.79874 23.3431 6.76949L23.9859 6.41174L24.5143 6.706V7.29409L23.9859 7.58835L23.3431 7.23051C23.2906 7.20126 23.2281 7.19334 23.1695 7.20849C23.111 7.22363 23.061 7.26061 23.0307 7.31129C23.0003 7.36197 22.9921 7.42219 23.0078 7.4787C23.0235 7.53522 23.0619 7.58341 23.1144 7.61266L23.5283 7.84312L23.1144 8.07364C23.0884 8.08811 23.0656 8.10739 23.0473 8.13038C23.029 8.15336 23.0156 8.17961 23.0079 8.20759C23.0001 8.23558 22.9982 8.26477 23.0021 8.29349C23.0061 8.32221 23.0159 8.34989 23.0309 8.37496ZM24.9716 6.70574L25.5 6.41148L26.0284 6.70574V7.29409L25.5 7.58835L24.9716 7.29409V6.70574Z" fill="white"/>
<path d="M23.8541 26.9165C23.8743 26.9502 23.9076 26.9748 23.9466 26.985C23.9856 26.9951 24.0272 26.9898 24.0622 26.9704L24.3383 26.8167V27.124C24.3383 27.163 24.3543 27.2004 24.3829 27.228C24.4115 27.2556 24.4503 27.2711 24.4907 27.2711C24.5312 27.2711 24.5699 27.2556 24.5985 27.228C24.6271 27.2004 24.6432 27.163 24.6432 27.124V26.6468L24.9955 26.4507L25.3477 26.6468V27.0391L24.9192 27.2777C24.8842 27.2972 24.8586 27.3293 24.8481 27.367C24.8377 27.4046 24.8432 27.4448 24.8634 27.4786C24.8836 27.5124 24.9169 27.537 24.956 27.5471C24.995 27.5572 25.0366 27.5519 25.0717 27.5324L25.3477 27.3788V27.6861C25.3477 27.7251 25.3638 27.7625 25.3924 27.7901C25.4209 27.8177 25.4597 27.8332 25.5002 27.8332C25.5406 27.8332 25.5794 27.8177 25.608 27.7901C25.6366 27.7625 25.6526 27.7251 25.6526 27.6861V27.3787L25.9287 27.5324C25.946 27.5421 25.9651 27.5484 25.985 27.5509C26.0049 27.5534 26.025 27.5521 26.0444 27.5471C26.0637 27.5421 26.0818 27.5335 26.0977 27.5217C26.1136 27.51 26.1269 27.4953 26.1369 27.4786C26.147 27.4619 26.1535 27.4434 26.1561 27.4242C26.1587 27.4051 26.1574 27.3856 26.1522 27.367C26.147 27.3483 26.138 27.3308 26.1259 27.3155C26.1137 27.3002 26.0985 27.2873 26.0811 27.2777L25.6526 27.0391V26.6468L26.0049 26.4507L26.3572 26.6468V27.124C26.3572 27.163 26.3732 27.2004 26.4018 27.228C26.4304 27.2556 26.4692 27.2711 26.5096 27.2711C26.5501 27.2711 26.5888 27.2556 26.6174 27.228C26.646 27.2004 26.6621 27.163 26.6621 27.124V26.8167L26.9381 26.9704C26.9554 26.98 26.9746 26.9863 26.9944 26.9888C27.0143 26.9913 27.0345 26.99 27.0538 26.985C27.0732 26.98 27.0913 26.9714 27.1072 26.9597C27.1231 26.9479 27.1364 26.9332 27.1464 26.9165C27.1564 26.8998 27.1629 26.8813 27.1655 26.8622C27.1681 26.843 27.1668 26.8236 27.1616 26.8049C27.1564 26.7862 27.1475 26.7688 27.1353 26.7534C27.1231 26.7381 27.1079 26.7253 27.0906 26.7156L26.8146 26.5619L27.0906 26.4083C27.1079 26.3986 27.1231 26.3858 27.1353 26.3704C27.1475 26.3551 27.1564 26.3376 27.1616 26.319C27.1668 26.3003 27.1681 26.2809 27.1655 26.2617C27.1629 26.2426 27.1564 26.2241 27.1464 26.2074C27.1364 26.1906 27.1231 26.176 27.1072 26.1642C27.0913 26.1525 27.0732 26.1438 27.0538 26.1388C27.0345 26.1338 27.0143 26.1326 26.9944 26.1351C26.9746 26.1376 26.9554 26.1439 26.9381 26.1535L26.5096 26.3921L26.1574 26.1959V25.8037L26.5096 25.6077L26.9381 25.8463C26.9554 25.8559 26.9746 25.8622 26.9944 25.8647C27.0143 25.8672 27.0345 25.866 27.0538 25.861C27.0732 25.856 27.0913 25.8473 27.1072 25.8356C27.1231 25.8238 27.1364 25.8092 27.1464 25.7924C27.1564 25.7757 27.1629 25.7572 27.1655 25.7381C27.1681 25.7189 27.1668 25.6995 27.1616 25.6808C27.1564 25.6622 27.1475 25.6447 27.1353 25.6294C27.1231 25.614 27.1079 25.6012 27.0906 25.5915L26.8146 25.4379L27.0906 25.2842C27.1256 25.2647 27.1511 25.2326 27.1616 25.1949C27.1721 25.1572 27.1666 25.1171 27.1464 25.0833C27.1262 25.0495 27.0929 25.0249 27.0538 25.0148C27.0148 25.0047 26.9731 25.0099 26.9381 25.0294L26.6621 25.1831V24.8756C26.6621 24.8366 26.646 24.7992 26.6174 24.7717C26.5888 24.7441 26.5501 24.7286 26.5096 24.7286C26.4692 24.7286 26.4304 24.7441 26.4018 24.7717C26.3732 24.7992 26.3572 24.8366 26.3572 24.8756V25.3529L26.0049 25.549L25.6526 25.3529V24.9606L26.0811 24.722C26.0985 24.7124 26.1137 24.6995 26.1259 24.6842C26.1381 24.6689 26.147 24.6514 26.1522 24.6327C26.1574 24.6141 26.1587 24.5946 26.1561 24.5755C26.1535 24.5563 26.147 24.5378 26.137 24.5211C26.127 24.5044 26.1136 24.4897 26.0978 24.478C26.0819 24.4662 26.0637 24.4576 26.0444 24.4526C26.0251 24.4476 26.0049 24.4463 25.985 24.4488C25.9652 24.4513 25.946 24.4576 25.9287 24.4673L25.6526 24.6209V24.3136C25.6526 24.2746 25.6366 24.2372 25.608 24.2096C25.5794 24.182 25.5406 24.1665 25.5002 24.1665C25.4598 24.1665 25.421 24.182 25.3924 24.2096C25.3638 24.2372 25.3477 24.2746 25.3477 24.3136V24.621L25.0717 24.4672C25.0367 24.4477 24.995 24.4425 24.956 24.4526C24.9169 24.4627 24.8836 24.4873 24.8634 24.5211C24.8432 24.5549 24.8377 24.595 24.8482 24.6327C24.8587 24.6704 24.8842 24.7025 24.9192 24.722L25.3477 24.9606V25.3529L24.9955 25.549L24.6432 25.3529V24.8756C24.6432 24.8366 24.6272 24.7992 24.5986 24.7717C24.57 24.7441 24.5312 24.7286 24.4908 24.7286C24.4503 24.7286 24.4116 24.7441 24.383 24.7717C24.3544 24.7992 24.3383 24.8366 24.3383 24.8756V25.183L24.0622 25.0293C24.0449 25.0197 24.0257 25.0134 24.0059 25.0109C23.986 25.0084 23.9658 25.0096 23.9465 25.0146C23.9272 25.0196 23.909 25.0283 23.8931 25.04C23.8773 25.0518 23.8639 25.0665 23.8539 25.0832C23.8337 25.117 23.8282 25.1571 23.8387 25.1948C23.8492 25.2325 23.8747 25.2646 23.9098 25.2841L24.1857 25.4378L23.9098 25.5914C23.8748 25.6109 23.8492 25.643 23.8387 25.6807C23.8283 25.7184 23.8337 25.7585 23.8539 25.7923C23.8742 25.8261 23.9075 25.8507 23.9465 25.8608C23.9856 25.8709 24.0272 25.8657 24.0622 25.8462L24.4908 25.6077L24.843 25.8038V26.1959L24.4908 26.3921L24.0622 26.1535C24.0272 26.134 23.9856 26.1287 23.9465 26.1388C23.9075 26.1489 23.8742 26.1736 23.8539 26.2074C23.8337 26.2411 23.8283 26.2813 23.8387 26.319C23.8492 26.3567 23.8748 26.3888 23.9098 26.4083L24.1857 26.5619L23.9098 26.7156C23.8924 26.7252 23.8772 26.7381 23.865 26.7534C23.8529 26.7687 23.8439 26.7862 23.8387 26.8049C23.8336 26.8236 23.8323 26.843 23.8349 26.8622C23.8376 26.8813 23.8441 26.8998 23.8541 26.9165ZM25.1479 25.8037L25.5002 25.6075L25.8525 25.8037V26.1959L25.5002 26.3921L25.1479 26.1959V25.8037Z" fill="white"/>
<path d="M25.8541 13.9165C25.8743 13.9502 25.9076 13.9748 25.9466 13.985C25.9856 13.9951 26.0272 13.9898 26.0622 13.9704L26.3383 13.8167V14.124C26.3383 14.163 26.3543 14.2004 26.3829 14.228C26.4115 14.2556 26.4503 14.2711 26.4907 14.2711C26.5312 14.2711 26.5699 14.2556 26.5985 14.228C26.6271 14.2004 26.6432 14.163 26.6432 14.124V13.6468L26.9955 13.4507L27.3477 13.6468V14.0391L26.9192 14.2777C26.8842 14.2972 26.8586 14.3293 26.8481 14.367C26.8377 14.4046 26.8432 14.4448 26.8634 14.4786C26.8836 14.5124 26.9169 14.537 26.956 14.5471C26.995 14.5572 27.0366 14.5519 27.0717 14.5324L27.3477 14.3788V14.6861C27.3477 14.7251 27.3638 14.7625 27.3924 14.7901C27.4209 14.8177 27.4597 14.8332 27.5002 14.8332C27.5406 14.8332 27.5794 14.8177 27.608 14.7901C27.6366 14.7625 27.6526 14.7251 27.6526 14.6861V14.3787L27.9287 14.5324C27.946 14.5421 27.9651 14.5484 27.985 14.5509C28.0049 14.5534 28.025 14.5521 28.0444 14.5471C28.0637 14.5421 28.0818 14.5335 28.0977 14.5217C28.1136 14.51 28.1269 14.4953 28.1369 14.4786C28.147 14.4619 28.1535 14.4434 28.1561 14.4242C28.1587 14.4051 28.1574 14.3856 28.1522 14.367C28.147 14.3483 28.138 14.3308 28.1259 14.3155C28.1137 14.3002 28.0985 14.2873 28.0811 14.2777L27.6526 14.0391V13.6468L28.0049 13.4507L28.3572 13.6468V14.124C28.3572 14.163 28.3732 14.2004 28.4018 14.228C28.4304 14.2556 28.4692 14.2711 28.5096 14.2711C28.5501 14.2711 28.5888 14.2556 28.6174 14.228C28.646 14.2004 28.6621 14.163 28.6621 14.124V13.8167L28.9381 13.9704C28.9554 13.98 28.9746 13.9863 28.9944 13.9888C29.0143 13.9913 29.0345 13.99 29.0538 13.985C29.0732 13.98 29.0913 13.9714 29.1072 13.9597C29.1231 13.9479 29.1364 13.9332 29.1464 13.9165C29.1564 13.8998 29.1629 13.8813 29.1655 13.8622C29.1681 13.843 29.1668 13.8236 29.1616 13.8049C29.1564 13.7862 29.1475 13.7688 29.1353 13.7534C29.1231 13.7381 29.1079 13.7253 29.0906 13.7156L28.8146 13.5619L29.0906 13.4083C29.1079 13.3986 29.1231 13.3858 29.1353 13.3704C29.1475 13.3551 29.1564 13.3376 29.1616 13.319C29.1668 13.3003 29.1681 13.2809 29.1655 13.2617C29.1629 13.2426 29.1564 13.2241 29.1464 13.2074C29.1364 13.1906 29.1231 13.176 29.1072 13.1642C29.0913 13.1525 29.0732 13.1438 29.0538 13.1388C29.0345 13.1338 29.0143 13.1326 28.9944 13.1351C28.9746 13.1376 28.9554 13.1439 28.9381 13.1535L28.5096 13.3921L28.1574 13.1959V12.8037L28.5096 12.6077L28.9381 12.8463C28.9554 12.8559 28.9746 12.8622 28.9944 12.8647C29.0143 12.8672 29.0345 12.866 29.0538 12.861C29.0732 12.856 29.0913 12.8473 29.1072 12.8356C29.1231 12.8238 29.1364 12.8092 29.1464 12.7924C29.1564 12.7757 29.1629 12.7572 29.1655 12.7381C29.1681 12.7189 29.1668 12.6995 29.1616 12.6808C29.1564 12.6622 29.1475 12.6447 29.1353 12.6294C29.1231 12.614 29.1079 12.6012 29.0906 12.5915L28.8146 12.4379L29.0906 12.2842C29.1256 12.2647 29.1511 12.2326 29.1616 12.1949C29.1721 12.1572 29.1666 12.1171 29.1464 12.0833C29.1262 12.0495 29.0929 12.0249 29.0538 12.0148C29.0148 12.0047 28.9731 12.0099 28.9381 12.0294L28.6621 12.1831V11.8756C28.6621 11.8366 28.646 11.7992 28.6174 11.7717C28.5888 11.7441 28.5501 11.7286 28.5096 11.7286C28.4692 11.7286 28.4304 11.7441 28.4018 11.7717C28.3732 11.7992 28.3572 11.8366 28.3572 11.8756V12.3529L28.0049 12.549L27.6526 12.3529V11.9606L28.0811 11.722C28.0985 11.7124 28.1137 11.6995 28.1259 11.6842C28.1381 11.6689 28.147 11.6514 28.1522 11.6327C28.1574 11.6141 28.1587 11.5946 28.1561 11.5755C28.1535 11.5563 28.147 11.5378 28.137 11.5211C28.127 11.5044 28.1136 11.4897 28.0978 11.478C28.0819 11.4662 28.0637 11.4576 28.0444 11.4526C28.0251 11.4476 28.0049 11.4463 27.985 11.4488C27.9652 11.4513 27.946 11.4576 27.9287 11.4673L27.6526 11.6209V11.3136C27.6526 11.2746 27.6366 11.2372 27.608 11.2096C27.5794 11.182 27.5406 11.1665 27.5002 11.1665C27.4598 11.1665 27.421 11.182 27.3924 11.2096C27.3638 11.2372 27.3477 11.2746 27.3477 11.3136V11.621L27.0717 11.4672C27.0367 11.4477 26.995 11.4425 26.956 11.4526C26.9169 11.4627 26.8836 11.4873 26.8634 11.5211C26.8432 11.5549 26.8377 11.595 26.8482 11.6327C26.8587 11.6704 26.8842 11.7025 26.9192 11.722L27.3477 11.9606V12.3529L26.9955 12.549L26.6432 12.3529V11.8756C26.6432 11.8366 26.6272 11.7992 26.5986 11.7717C26.57 11.7441 26.5312 11.7286 26.4908 11.7286C26.4503 11.7286 26.4116 11.7441 26.383 11.7717C26.3544 11.7992 26.3383 11.8366 26.3383 11.8756V12.183L26.0622 12.0293C26.0449 12.0197 26.0257 12.0134 26.0059 12.0109C25.986 12.0084 25.9658 12.0096 25.9465 12.0146C25.9272 12.0196 25.909 12.0283 25.8931 12.04C25.8773 12.0518 25.8639 12.0665 25.8539 12.0832C25.8337 12.117 25.8282 12.1571 25.8387 12.1948C25.8492 12.2325 25.8747 12.2646 25.9098 12.2841L26.1857 12.4378L25.9098 12.5914C25.8748 12.6109 25.8492 12.643 25.8387 12.6807C25.8283 12.7184 25.8337 12.7585 25.8539 12.7923C25.8742 12.8261 25.9075 12.8507 25.9465 12.8608C25.9856 12.8709 26.0272 12.8657 26.0622 12.8462L26.4908 12.6077L26.843 12.8038V13.1959L26.4908 13.3921L26.0622 13.1535C26.0272 13.134 25.9856 13.1287 25.9465 13.1388C25.9075 13.1489 25.8742 13.1736 25.8539 13.2074C25.8337 13.2411 25.8283 13.2813 25.8387 13.319C25.8492 13.3567 25.8748 13.3888 25.9098 13.4083L26.1857 13.5619L25.9098 13.7156C25.8924 13.7252 25.8772 13.7381 25.865 13.7534C25.8529 13.7687 25.8439 13.7862 25.8387 13.8049C25.8336 13.8236 25.8323 13.843 25.8349 13.8622C25.8376 13.8813 25.8441 13.8998 25.8541 13.9165ZM27.1479 12.8037L27.5002 12.6075L27.8525 12.8037V13.1959L27.5002 13.3921L27.1479 13.1959V12.8037Z" fill="#A6D1F9"/>
<path d="M11.0042 21.3959C11.0901 21.5393 11.2315 21.644 11.3973 21.6869C11.5631 21.7298 11.7398 21.7075 11.8886 21.6249L13.0618 20.9716V22.278C13.0618 22.4437 13.1301 22.6027 13.2516 22.72C13.3731 22.8371 13.5379 22.903 13.7098 22.903C13.8816 22.903 14.0464 22.8371 14.1679 22.72C14.2895 22.6027 14.3577 22.4437 14.3577 22.278V20.2498L15.855 19.4161L17.3519 20.2496V21.917L15.5308 22.931C15.3819 23.0139 15.2733 23.1504 15.2288 23.3105C15.1843 23.4706 15.2076 23.6412 15.2935 23.7848C15.3794 23.9285 15.5209 24.0332 15.6869 24.0761C15.853 24.1191 16.0299 24.0966 16.1787 24.0137L17.3519 23.3606V24.6668C17.3519 24.8326 17.4201 24.9916 17.5417 25.1088C17.6632 25.226 17.828 25.2918 17.9998 25.2918C18.1717 25.2918 18.3365 25.226 18.458 25.1088C18.5795 24.9916 18.6478 24.8326 18.6478 24.6668V23.3604L19.8209 24.0137C19.8947 24.0547 19.976 24.0813 20.0604 24.0921C20.1448 24.1028 20.2305 24.0973 20.3127 24.0761C20.3949 24.0548 20.472 24.0182 20.5395 23.9682C20.607 23.9182 20.6636 23.856 20.7062 23.7848C20.7487 23.7137 20.7763 23.6352 20.7874 23.5538C20.7985 23.4725 20.7929 23.3898 20.7709 23.3105C20.7488 23.2312 20.7108 23.1569 20.659 23.0917C20.6072 23.0266 20.5426 22.972 20.4689 22.931L18.6478 21.9172V20.2496L20.1448 19.4161L21.6421 20.2498V22.278C21.6421 22.4437 21.7103 22.6027 21.8319 22.72C21.9534 22.8371 22.1182 22.903 22.29 22.903C22.4619 22.903 22.6267 22.8371 22.7482 22.72C22.8697 22.6027 22.938 22.4437 22.938 22.278V20.9716L24.1112 21.6249C24.1848 21.6659 24.2662 21.6925 24.3505 21.7032C24.4349 21.714 24.5207 21.7085 24.6029 21.6873C24.6851 21.666 24.7621 21.6294 24.8296 21.5794C24.8972 21.5294 24.9538 21.4671 24.9964 21.396C25.0389 21.3249 25.0665 21.2464 25.0777 21.165C25.0887 21.0836 25.0831 21.0009 25.0611 20.9217C25.0391 20.8424 25.0011 20.7681 24.9493 20.7029C24.8974 20.6378 24.8327 20.5832 24.7591 20.5421L23.5863 19.889L24.7591 19.236C24.8327 19.195 24.8974 19.1403 24.9493 19.0752C25.0011 19.0101 25.0391 18.9358 25.0611 18.8565C25.0831 18.7772 25.0887 18.6945 25.0777 18.6131C25.0665 18.5317 25.0389 18.4533 24.9964 18.3822C24.9538 18.3111 24.8972 18.2487 24.8296 18.1988C24.7621 18.1488 24.6851 18.1121 24.6029 18.0909C24.5207 18.0696 24.4349 18.0642 24.3505 18.0749C24.2662 18.0856 24.1848 18.1122 24.1112 18.1533L22.2899 19.1674L20.793 18.3334V16.6667L22.2899 15.8334L24.1112 16.8475C24.1848 16.8886 24.2662 16.9152 24.3505 16.9259C24.4349 16.9366 24.5207 16.9312 24.6029 16.9099C24.6851 16.8887 24.7621 16.852 24.8296 16.8021C24.8972 16.7521 24.9538 16.6898 24.9964 16.6187C25.0389 16.5476 25.0665 16.4691 25.0777 16.3877C25.0887 16.3063 25.0831 16.2236 25.0611 16.1443C25.0391 16.0651 25.0011 15.9907 24.9493 15.9256C24.8974 15.8605 24.8327 15.8058 24.7591 15.7648L23.5863 15.1118L24.7591 14.4587C24.9079 14.3758 25.0165 14.2393 25.0611 14.0792C25.1055 13.919 25.0823 13.7484 24.9964 13.6048C24.9105 13.4612 24.7689 13.3565 24.6029 13.3136C24.4369 13.2706 24.26 13.2931 24.1112 13.376L22.938 14.0292V12.7223C22.938 12.5566 22.8697 12.3976 22.7482 12.2804C22.6267 12.1632 22.4619 12.0973 22.29 12.0973C22.1182 12.0973 21.9534 12.1632 21.8319 12.2804C21.7103 12.3976 21.6421 12.5566 21.6421 12.7223V14.7506L20.1448 15.5842L18.6479 14.7507V13.0835L20.469 12.0695C20.5427 12.0284 20.6073 11.9738 20.6591 11.9087C20.711 11.8435 20.749 11.7692 20.771 11.6899C20.793 11.6107 20.7987 11.528 20.7876 11.4466C20.7765 11.3652 20.7488 11.2867 20.7063 11.2156C20.6638 11.1445 20.6071 11.0822 20.5396 11.0322C20.4721 10.9822 20.395 10.9456 20.3128 10.9243C20.2306 10.9031 20.1449 10.8976 20.0605 10.9084C19.9761 10.9191 19.8948 10.9457 19.8211 10.9867L18.6479 11.6399V10.3335C18.6479 10.1677 18.5796 10.0088 18.4581 9.89155C18.3366 9.77434 18.1718 9.7085 18 9.7085C17.8281 9.7085 17.6633 9.77434 17.5418 9.89155C17.4203 10.0088 17.352 10.1677 17.352 10.3335V11.64L16.1788 10.9866C16.03 10.9037 15.8531 10.8813 15.6871 10.9242C15.5211 10.9671 15.3795 11.0719 15.2936 11.2155C15.2077 11.3591 15.1844 11.5297 15.2289 11.6898C15.2734 11.8499 15.382 11.9865 15.5309 12.0693L17.352 13.0835V14.7507L15.8551 15.5842L14.3578 14.7506V12.7223C14.3578 12.5566 14.2896 12.3976 14.1681 12.2804C14.0465 12.1632 13.8817 12.0973 13.7099 12.0973C13.5381 12.0973 13.3732 12.1632 13.2517 12.2804C13.1302 12.3976 13.0619 12.5566 13.0619 12.7223V14.0287L11.8886 13.3755C11.8149 13.3344 11.7335 13.3078 11.6491 13.2971C11.5648 13.2864 11.479 13.2918 11.3968 13.3131C11.3146 13.3344 11.2375 13.371 11.17 13.421C11.1025 13.471 11.0458 13.5333 11.0033 13.6045C10.9174 13.7481 10.8941 13.9187 10.9386 14.0789C10.9831 14.239 11.0918 14.3756 11.2407 14.4584L12.4135 15.1116L11.2407 15.7643C11.0918 15.8472 10.9832 15.9837 10.9387 16.1438C10.8942 16.304 10.9175 16.4746 11.0034 16.6182C11.0893 16.7618 11.2309 16.8665 11.3969 16.9094C11.5629 16.9524 11.7398 16.9299 11.8886 16.847L13.71 15.8334L15.2069 16.6672V18.3334L13.71 19.1671L11.8886 18.1533C11.7398 18.0704 11.5629 18.048 11.3969 18.0909C11.2309 18.1338 11.0893 18.2386 11.0034 18.3822C10.9175 18.5257 10.8942 18.6964 10.9387 18.8565C10.9832 19.0166 11.0918 19.1531 11.2407 19.236L12.4135 19.889L11.2407 20.5421C11.167 20.5831 11.1024 20.6378 11.0506 20.7029C10.9988 20.768 10.9608 20.8424 10.9388 20.9217C10.9169 21.001 10.9113 21.0837 10.9225 21.165C10.9338 21.2464 10.9615 21.3249 11.0042 21.3959ZM16.5028 16.6664L18 15.8327L19.4971 16.6664V18.3334L18 19.1671L16.5028 18.3334V16.6664Z" fill="#4BA9FF"/>
<path d="M14.4551 3.7496C14.3672 3.7496 14.2959 3.67836 14.2959 3.59048V3.15961C14.2959 3.07173 14.3672 3.00049 14.4551 3.00049C14.543 3.00049 14.6142 3.07173 14.6142 3.15961V3.59048C14.6142 3.67836 14.543 3.7496 14.4551 3.7496Z" fill="#A9D6FF"/>
<path d="M14.4551 4.90927C14.3672 4.90927 14.2959 4.83803 14.2959 4.75014V4.31928C14.2959 4.2314 14.3672 4.16016 14.4551 4.16016C14.543 4.16016 14.6142 4.2314 14.6142 4.31928V4.75014C14.6142 4.83803 14.543 4.90927 14.4551 4.90927Z" fill="#A9D6FF"/>
<path d="M15.2503 4.11366H14.8193C14.7314 4.11366 14.6602 4.04242 14.6602 3.95453C14.6602 3.86665 14.7314 3.79541 14.8193 3.79541H15.2503C15.3382 3.79541 15.4095 3.86665 15.4095 3.95453C15.4095 4.04242 15.3382 4.11366 15.2503 4.11366Z" fill="#A9D6FF"/>
<path d="M14.0902 4.11366H13.6592C13.5713 4.11366 13.5 4.04242 13.5 3.95453C13.5 3.86665 13.5713 3.79541 13.6592 3.79541H14.0902C14.1781 3.79541 14.2493 3.86665 14.2493 3.95453C14.2493 4.04242 14.1781 4.11366 14.0902 4.11366Z" fill="#A9D6FF"/>
<path d="M15.4551 26.1246C15.3672 26.1246 15.2959 26.0534 15.2959 25.9655V25.5346C15.2959 25.4467 15.3672 25.3755 15.4551 25.3755C15.543 25.3755 15.6142 25.4467 15.6142 25.5346V25.9655C15.6142 26.0534 15.543 26.1246 15.4551 26.1246Z" fill="#A9D6FF"/>
<path d="M15.4551 27.2843C15.3672 27.2843 15.2959 27.213 15.2959 27.1251V26.6943C15.2959 26.6064 15.3672 26.5352 15.4551 26.5352C15.543 26.5352 15.6142 26.6064 15.6142 26.6943V27.1251C15.6142 27.213 15.543 27.2843 15.4551 27.2843Z" fill="#A9D6FF"/>
<path d="M16.2503 26.4887H15.8193C15.7314 26.4887 15.6602 26.4174 15.6602 26.3295C15.6602 26.2417 15.7314 26.1704 15.8193 26.1704H16.2503C16.3382 26.1704 16.4095 26.2417 16.4095 26.3295C16.4095 26.4174 16.3382 26.4887 16.2503 26.4887Z" fill="#A9D6FF"/>
<path d="M15.0902 26.4887H14.6592C14.5713 26.4887 14.5 26.4174 14.5 26.3295C14.5 26.2417 14.5713 26.1704 14.6592 26.1704H15.0902C15.1781 26.1704 15.2493 26.2417 15.2493 26.3295C15.2493 26.4174 15.1781 26.4887 15.0902 26.4887Z" fill="#A9D6FF"/>
<path d="M28.1426 9.4996C28.0547 9.4996 27.9834 9.42836 27.9834 9.34048V8.90961C27.9834 8.82173 28.0547 8.75049 28.1426 8.75049C28.2305 8.75049 28.3017 8.82173 28.3017 8.90961V9.34048C28.3017 9.42836 28.2305 9.4996 28.1426 9.4996Z" fill="#A9D6FF"/>
<path d="M28.1426 10.6593C28.0547 10.6593 27.9834 10.588 27.9834 10.5001V10.0693C27.9834 9.9814 28.0547 9.91016 28.1426 9.91016C28.2305 9.91016 28.3017 9.9814 28.3017 10.0693V10.5001C28.3017 10.588 28.2305 10.6593 28.1426 10.6593Z" fill="#A9D6FF"/>
<path d="M28.9378 9.86366H28.5068C28.4189 9.86366 28.3477 9.79242 28.3477 9.70453C28.3477 9.61665 28.4189 9.54541 28.5068 9.54541H28.9378C29.0257 9.54541 29.097 9.61665 29.097 9.70453C29.097 9.79242 29.0257 9.86366 28.9378 9.86366Z" fill="#A9D6FF"/>
<path d="M27.7777 9.86366H27.3467C27.2588 9.86366 27.1875 9.79242 27.1875 9.70453C27.1875 9.61665 27.2588 9.54541 27.3467 9.54541H27.7777C27.8656 9.54541 27.9368 9.61665 27.9368 9.70453C27.9368 9.79242 27.8656 9.86366 27.7777 9.86366Z" fill="#A9D6FF"/>
<path d="M18.4551 31.7496C18.3672 31.7496 18.2959 31.6784 18.2959 31.5905V31.1596C18.2959 31.0717 18.3672 31.0005 18.4551 31.0005C18.543 31.0005 18.6142 31.0717 18.6142 31.1596V31.5905C18.6142 31.6784 18.543 31.7496 18.4551 31.7496Z" fill="#A9D6FF"/>
<path d="M18.4551 32.9093C18.3672 32.9093 18.2959 32.838 18.2959 32.7501V32.3193C18.2959 32.2314 18.3672 32.1602 18.4551 32.1602C18.543 32.1602 18.6142 32.2314 18.6142 32.3193V32.7501C18.6142 32.838 18.543 32.9093 18.4551 32.9093Z" fill="#A9D6FF"/>
<path d="M19.2503 32.1137H18.8193C18.7314 32.1137 18.6602 32.0424 18.6602 31.9545C18.6602 31.8667 18.7314 31.7954 18.8193 31.7954H19.2503C19.3382 31.7954 19.4095 31.8667 19.4095 31.9545C19.4095 32.0424 19.3382 32.1137 19.2503 32.1137Z" fill="#A9D6FF"/>
<path d="M18.0902 32.1137H17.6592C17.5713 32.1137 17.5 32.0424 17.5 31.9545C17.5 31.8667 17.5713 31.7954 17.6592 31.7954H18.0902C18.1781 31.7954 18.2493 31.8667 18.2493 31.9545C18.2493 32.0424 18.1781 32.1137 18.0902 32.1137Z" fill="#A9D6FF"/>
</g>
<defs>
<clipPath id="clip0_3397_34775">
<rect width="35" height="35" fill="white" transform="translate(0.5)"/>
</clipPath>
</defs>
</svg>
