<svg width="39" height="39" viewBox="0 0 39 39" fill="none" xmlns="http://www.w3.org/2000/svg">
<circle cx="19.9941" cy="19.5" r="19" fill="#E8EBF7"/>
<g opacity="0.6">
<g opacity="0.8">
<g opacity="0.3">
<path d="M26.3153 6.55181H18.9517C18.7617 6.55181 18.6191 6.41107 18.6191 6.22341C18.6191 6.03576 18.7617 5.89502 18.9517 5.89502H26.3153C26.5054 5.89502 26.6479 6.03576 26.6479 6.22341C26.6479 6.41107 26.5054 6.55181 26.3153 6.55181Z" fill="#999999"/>
<path d="M16.624 6.55181H15.1988C15.0087 6.55181 14.8662 6.41107 14.8662 6.22341C14.8662 6.03576 15.0087 5.89502 15.1988 5.89502H16.624C16.814 5.89502 16.9565 6.03576 16.9565 6.22341C16.9565 6.41107 16.814 6.55181 16.624 6.55181Z" fill="#999999"/>
<path fill-rule="evenodd" clip-rule="evenodd" d="M15.1987 4.34673H15.8638V3.68994H15.1987V4.34673ZM17.1465 4.34673H16.4814V3.68994H17.1465V4.34673ZM17.7641 4.34673H18.4292V3.68994H17.7641V4.34673ZM19.7119 4.34673H19.0468V3.68994H19.7119V4.34673ZM20.3295 4.34673H20.9946V3.68994H20.3295V4.34673ZM21.6122 4.34673H22.2773V3.68994H21.6122V4.34673Z" fill="#999999"/>
</g>
<g opacity="0.3">
<path d="M26.3153 34.4185H18.9517C18.7617 34.4185 18.6191 34.2778 18.6191 34.0901C18.6191 33.9025 18.7617 33.7617 18.9517 33.7617H26.3153C26.5054 33.7617 26.6479 33.9025 26.6479 34.0901C26.6479 34.2778 26.5054 34.4185 26.3153 34.4185Z" fill="#999999"/>
<path d="M16.624 34.4185H15.1988C15.0087 34.4185 14.8662 34.2778 14.8662 34.0901C14.8662 33.9025 15.0087 33.7617 15.1988 33.7617H16.624C16.814 33.7617 16.9565 33.9025 16.9565 34.0901C16.9565 34.2778 16.814 34.4185 16.624 34.4185Z" fill="#999999"/>
<path fill-rule="evenodd" clip-rule="evenodd" d="M15.1987 32.2134H15.8638V31.5566H15.1987V32.2134ZM17.1465 32.2134H16.4814V31.5566H17.1465V32.2134ZM17.7641 32.2134H18.4292V31.5566H17.7641V32.2134ZM19.7119 32.2134H19.0468V31.5566H19.7119V32.2134ZM20.3295 32.2134H20.9946V31.5566H20.3295V32.2134ZM21.6122 32.2134H22.2773V31.5566H21.6122V32.2134Z" fill="#999999"/>
</g>
</g>
<g opacity="0.2">
<path d="M36.2921 18.2328H30.6863C30.5437 18.2328 30.4487 18.139 30.4487 17.9982C30.4487 17.8575 30.5437 17.7637 30.6863 17.7637H36.2921C36.4347 17.7637 36.5297 17.8575 36.5297 17.9982C36.5297 18.0921 36.4347 18.2328 36.2921 18.2328Z" fill="#999999"/>
<path d="M33.4894 16.8725H27.8835C27.741 16.8725 27.646 16.7786 27.646 16.6379C27.646 16.4971 27.741 16.4033 27.8835 16.4033H33.4894C33.6319 16.4033 33.7269 16.4971 33.7269 16.6379C33.7269 16.7786 33.6319 16.8725 33.4894 16.8725Z" fill="#999999"/>
<path d="M13.1559 18.2328H7.55004C7.40751 18.2328 7.3125 18.139 7.3125 17.9982C7.3125 17.8575 7.40751 17.7637 7.55004 17.7637H13.1559C13.2984 17.7637 13.3934 17.8575 13.3934 17.9982C13.3934 18.0921 13.2984 18.2328 13.1559 18.2328Z" fill="#999999"/>
<path d="M10.3532 16.8725H4.7473C4.60478 16.8725 4.50977 16.7786 4.50977 16.6379C4.50977 16.4971 4.60478 16.4033 4.7473 16.4033H10.3532C10.4957 16.4033 10.5907 16.4971 10.5907 16.6379C10.5907 16.7786 10.4957 16.8725 10.3532 16.8725Z" fill="#999999"/>
</g>
</g>
<rect x="15.436" y="9.50732" width="2.09033" height="1.12593" fill="#E4000B"/>
<path d="M16.4814 10.6333H15.5313V11.4308L13.3934 14.7617C13.3934 14.7617 13.2034 15.0432 13.2509 15.6061C13.2509 15.6061 13.3459 15.7938 13.2509 15.8876C13.2509 15.8876 13.0609 16.0753 13.2509 16.3568V20.4852C13.2509 20.4852 13.0609 20.6728 13.2509 20.9543C13.2509 20.9543 13.3459 21.1889 13.2509 21.3765C13.2509 21.3765 13.0134 21.5173 13.2509 22.221C13.2509 22.221 13.0609 22.6901 13.6785 23.6284V26.537C13.6785 26.537 12.7758 29.258 13.1559 29.9617L13.631 31.6506C13.631 31.6506 13.7735 32.0728 14.2486 32.2605C14.2486 32.2605 15.1037 32.5419 15.7688 31.979H16.4814V10.6333Z" fill="#F6F4F3"/>
<path d="M16.4814 10.6333H17.4316V11.4308L19.5694 14.7617C19.5694 14.7617 19.7595 15.0432 19.712 15.6061C19.712 15.6061 19.6169 15.7938 19.712 15.8876C19.712 15.8876 19.902 16.0753 19.712 16.3568V20.4852C19.712 20.4852 19.902 20.6728 19.712 20.9543C19.712 20.9543 19.6169 21.1889 19.712 21.3765C19.712 21.3765 19.9495 21.5173 19.712 22.221C19.712 22.221 19.902 22.6901 19.2844 23.6284V26.537C19.2844 26.537 20.187 29.258 19.807 29.9617L19.3319 31.6506C19.3319 31.6506 19.1894 32.0728 18.7143 32.2605C18.7143 32.2605 17.8592 32.5419 17.1941 31.979H16.4814V10.6333Z" fill="#D6D7D6"/>
<rect x="13.251" y="16.4976" width="6.50852" height="3.94074" fill="#00B6CC"/>
<rect x="13.251" y="16.4976" width="3.27801" height="3.94074" fill="#66CCCC"/>
<path d="M13.251 20.0629L13.8686 19.0777C14.1536 18.6555 14.4387 18.7962 14.4387 18.7962L15.2463 19.5C16.1014 20.2506 17.0991 19.9222 17.0991 19.9222C18.3818 19.5938 18.3343 18.5148 18.2868 18.374C18.2868 18.2333 18.3818 17.1074 17.0991 16.779C17.0991 16.779 16.1014 16.4975 15.2463 17.2012L14.4387 17.9049C14.4387 17.9049 14.1536 18.0925 13.8686 17.6234L13.251 16.5913" fill="white"/>
<path d="M13.251 20.0631L13.4885 19.6408L13.7261 19.2186L13.8686 19.031C13.9161 18.984 13.9636 18.8902 14.0111 18.8433C14.0586 18.7964 14.1536 18.7495 14.2486 18.7026C14.2961 18.7026 14.3436 18.7026 14.3912 18.7026C14.4387 18.7026 14.4862 18.7026 14.5337 18.7495L15.0563 19.1717L15.2938 19.3593C15.3888 19.4532 15.4363 19.5001 15.5313 19.547C15.7214 19.6877 15.9114 19.7347 16.1014 19.8285C16.2915 19.8754 16.529 19.9223 16.719 19.9223C16.814 19.9223 16.909 19.9223 17.0516 19.8754C17.0991 19.8754 17.0991 19.8754 17.1466 19.8754C17.1941 19.8754 17.1941 19.8754 17.2416 19.8754C17.2891 19.8754 17.3366 19.8285 17.3841 19.8285C17.5742 19.7816 17.7642 19.6408 17.9067 19.547C18.0492 19.4063 18.1917 19.2655 18.2393 19.031C18.2868 18.8433 18.3343 18.6087 18.3343 18.4211C18.3343 18.2334 18.3343 17.9989 18.2393 17.8112C18.1917 17.6235 18.0492 17.4359 17.9067 17.2952C17.7642 17.1544 17.5742 17.0606 17.3841 16.9668L17.2891 16.9198C17.2416 16.9198 17.2416 16.9198 17.1941 16.9198C17.1466 16.9198 17.0991 16.8729 17.0516 16.8729C16.9566 16.8729 16.8615 16.826 16.719 16.826C16.2915 16.826 15.8639 16.9198 15.5313 17.1544C15.4363 17.2013 15.3413 17.2952 15.2938 17.3421L15.0563 17.5297L14.5337 17.9519C14.4862 17.9989 14.4387 17.9989 14.3912 17.9989C14.3436 17.9989 14.2961 17.9989 14.2486 17.9989C14.1536 17.9989 14.1061 17.905 14.0111 17.8581C13.9636 17.8112 13.9161 17.7174 13.8686 17.6705L13.7736 17.4828L13.536 17.0606L13.2985 16.6384L13.536 17.0137L13.7736 17.389L13.9161 17.5766C13.9636 17.6235 14.0111 17.7174 14.0586 17.7643C14.1061 17.8112 14.1536 17.8581 14.2486 17.8581C14.2961 17.8581 14.2961 17.8581 14.3436 17.8581C14.3912 17.8581 14.3912 17.8581 14.4387 17.8112L14.9137 17.389L15.1513 17.1544C15.2463 17.0606 15.3413 17.0137 15.4363 16.9198C15.8164 16.6384 16.2915 16.4976 16.719 16.5445C16.814 16.5445 16.9566 16.5445 17.0516 16.5914C17.0991 16.5914 17.1466 16.6384 17.2416 16.6384C17.2891 16.6384 17.2891 16.6384 17.3366 16.6384L17.4316 16.6853C17.5266 16.7322 17.6692 16.7791 17.7642 16.826C17.8592 16.8729 17.9542 16.9668 18.0492 17.0137C18.2393 17.1544 18.3343 17.389 18.4293 17.5766C18.4768 17.6705 18.4768 17.8112 18.5243 17.905C18.5243 17.9989 18.5243 18.1396 18.5243 18.2334C18.5243 18.3742 18.5243 18.468 18.5243 18.5618C18.5243 18.6556 18.4768 18.7964 18.4293 18.8902C18.3343 19.1248 18.1917 19.3124 18.0492 19.4532C17.8592 19.5939 17.6692 19.7347 17.4316 19.7816C17.3841 19.7816 17.3366 19.8285 17.2891 19.8285C17.2416 19.8285 17.2416 19.8285 17.1941 19.8285C17.1466 19.8285 17.1466 19.8285 17.0991 19.8285C17.0041 19.8285 16.8615 19.8754 16.7665 19.8754C16.2915 19.8754 15.8639 19.7347 15.4838 19.5001C15.3888 19.4532 15.2938 19.3593 15.2463 19.2655H14.9137L14.4387 18.8433C14.4387 18.8433 14.3912 18.7964 14.3436 18.7964C14.2961 18.7964 14.2961 18.7964 14.2486 18.7964C14.2011 18.7964 14.1061 18.8433 14.0586 18.8902C14.0111 18.9371 13.9636 18.984 13.9161 19.0779L13.7736 19.2655L13.536 19.6408L13.251 20.0631Z" fill="#E4000B"/>
<path d="M23.7026 10.7271H24.5578C24.5578 10.7271 24.5578 11.3369 24.7478 12.0406C24.7478 12.0406 25.2229 13.1196 25.3179 14.011C25.3179 14.011 25.3654 14.574 25.6979 14.8085C25.6979 14.8085 26.9331 15.8406 27.0282 17.0135V17.7172V17.9048V28.695L27.0757 28.8357V30.29C27.0757 30.29 26.7906 31.932 26.2205 32.2604C26.2205 32.2604 25.0804 32.6826 24.0352 32.5888L23.7026 32.2604V10.7271H23.7026Z" fill="#D5D7D5"/>
<path d="M23.7026 10.7271H22.8475C22.8475 10.7271 22.8475 11.3369 22.6575 12.0406C22.6575 12.0406 22.1824 13.1196 22.0874 14.011C22.0874 14.011 22.0399 14.574 21.7073 14.8085C21.7073 14.8085 20.4721 15.8406 20.3771 17.0135V17.7172V17.9048V28.695L20.3296 28.8357V30.29C20.3296 30.29 20.6146 31.932 21.1847 32.2604C21.1847 32.2604 22.3249 32.6826 23.3701 32.5888L23.7026 32.2604V10.7271Z" fill="#F5F3F2"/>
<path d="M20.377 21.0013H20.662C20.662 21.0013 21.0896 20.063 23.7025 20.063V26.0679H20.4245L20.377 21.0013Z" fill="#006858"/>
<path d="M20.377 21.2825H20.662C20.662 21.2825 21.1371 20.2974 23.7025 20.2974V25.6924H20.377V21.2825Z" fill="#00B1C8"/>
<path d="M27.0282 21.0013H26.7431C26.7431 21.0013 26.3155 20.063 23.7026 20.063V26.0679H26.9806L27.0282 21.0013Z" fill="#003333"/>
<path d="M27.0282 21.2825H26.7431C26.7431 21.2825 26.268 20.2974 23.7026 20.2974V25.6924H27.0282V21.2825Z" fill="#049899"/>
<rect x="22.6099" y="9.41357" width="2.13783" height="1.31358" fill="#999999"/>
</svg>
