<svg width="35" height="35" viewBox="0 0 35 35" fill="none" xmlns="http://www.w3.org/2000/svg">
<g clip-path="url(#clip0_3396_31727)">
<circle cx="17.5" cy="17.5" r="17.5" fill="#E8EBF7"/>
<g opacity="0.75">
<path d="M0 17.543C0 27.1876 7.83124 35.043 17.5 35.043V0.0429688C7.83124 0.0429688 0 7.89833 0 17.543Z" fill="#E8EBF7"/>
<path d="M17.4561 0.0429688V35.043C27.1685 35.043 34.9998 27.1876 34.9998 17.543C34.9998 7.89833 27.1685 0.0429688 17.4561 0.0429688Z" fill="#E8EBF7"/>
</g>
<g opacity="0.6">
<g opacity="0.8">
<g opacity="0.3">
<path d="M23.0209 5.59848H16.3393C16.1669 5.59848 16.0376 5.46918 16.0376 5.2968C16.0376 5.12441 16.1669 4.99512 16.3393 4.99512H23.0209C23.1933 4.99512 23.3226 5.12441 23.3226 5.2968C23.3226 5.46918 23.1933 5.59848 23.0209 5.59848Z" fill="#A9D6FF"/>
<path d="M14.2273 5.59848H12.9341C12.7616 5.59848 12.6323 5.46918 12.6323 5.2968C12.6323 5.12441 12.7616 4.99512 12.9341 4.99512H14.2273C14.3997 4.99512 14.529 5.12441 14.529 5.2968C14.529 5.46918 14.3997 5.59848 14.2273 5.59848Z" fill="#A9D6FF"/>
<path fill-rule="evenodd" clip-rule="evenodd" d="M12.9341 3.57308H13.5376V2.96973H12.9341V3.57308ZM14.7015 3.57308H14.098V2.96973H14.7015V3.57308ZM15.2618 3.57308H15.8653V2.96973H15.2618V3.57308ZM17.0292 3.57308H16.4257V2.96973H17.0292V3.57308ZM17.5896 3.57308H18.1931V2.96973H17.5896V3.57308ZM18.7535 3.57308H19.357V2.96973H18.7535V3.57308Z" fill="#A9D6FF"/>
</g>
<g opacity="0.3">
<path d="M23.0209 31.1981H16.3393C16.1669 31.1981 16.0376 31.0688 16.0376 30.8964C16.0376 30.724 16.1669 30.5947 16.3393 30.5947H23.0209C23.1933 30.5947 23.3226 30.724 23.3226 30.8964C23.3226 31.0688 23.1933 31.1981 23.0209 31.1981Z" fill="#A9D6FF"/>
<path d="M14.2273 31.1981H12.9341C12.7616 31.1981 12.6323 31.0688 12.6323 30.8964C12.6323 30.724 12.7616 30.5947 12.9341 30.5947H14.2273C14.3997 30.5947 14.529 30.724 14.529 30.8964C14.529 31.0688 14.3997 31.1981 14.2273 31.1981Z" fill="#A9D6FF"/>
<path fill-rule="evenodd" clip-rule="evenodd" d="M12.9341 29.1727H13.5376V28.5693H12.9341V29.1727ZM14.7015 29.1727H14.098V28.5693H14.7015V29.1727ZM15.2618 29.1727H15.8653V28.5693H15.2618V29.1727ZM17.0292 29.1727H16.4257V28.5693H17.0292V29.1727ZM17.5896 29.1727H18.1931V28.5693H17.5896V29.1727ZM18.7535 29.1727H19.357V28.5693H18.7535V29.1727Z" fill="#57AEFF"/>
</g>
</g>
<g opacity="0.2">
<path d="M32.0736 16.3299H26.987C26.8577 16.3299 26.7715 16.2437 26.7715 16.1144C26.7715 15.9851 26.8577 15.8989 26.987 15.8989H32.0736C32.2029 15.8989 32.2891 15.9851 32.2891 16.1144C32.2891 16.2006 32.2029 16.3299 32.0736 16.3299Z" fill="#A9D6FF"/>
<path d="M29.5301 15.0799H24.4436C24.3142 15.0799 24.228 14.9937 24.228 14.8644C24.228 14.7351 24.3142 14.6489 24.4436 14.6489H29.5301C29.6595 14.6489 29.7457 14.7351 29.7457 14.8644C29.7457 14.9937 29.6595 15.0799 29.5301 15.0799Z" fill="#A9D6FF"/>
<path d="M11.0804 16.3299H5.99385C5.86453 16.3299 5.77832 16.2437 5.77832 16.1144C5.77832 15.9851 5.86453 15.8989 5.99385 15.8989H11.0804C11.2098 15.8989 11.296 15.9851 11.296 16.1144C11.296 16.2006 11.2098 16.3299 11.0804 16.3299Z" fill="#A9D6FF"/>
<path d="M8.53698 15.0799H3.4504C3.32108 15.0799 3.23486 14.9937 3.23486 14.8644C3.23486 14.7351 3.32108 14.6489 3.4504 14.6489H8.53698C8.6663 14.6489 8.75251 14.7351 8.75251 14.8644C8.75251 14.9937 8.6663 15.0799 8.53698 15.0799Z" fill="#A9D6FF"/>
</g>
</g>
<path d="M9.64888 14.741C9.64888 14.741 6.69603 14.741 7.73821 17.2557C7.73821 17.2557 8.34615 19.8137 14.6861 19.5536H8.7804L8.12903 19.6403H7.43424L7 19.8137V14.4375L7.65136 14.6976H9.64888V14.741Z" fill="#005130"/>
<path d="M14.6428 19.5538C14.6428 19.5538 8.82392 19.944 7.69488 17.2559C7.69488 17.2559 6.52243 14.958 9.60555 14.7412H14.6428V19.5538Z" fill="#D5E3D1"/>
<path d="M19.6798 14.741C19.6798 14.741 22.6327 14.741 21.5905 17.2557C21.5905 17.2557 20.9825 19.8137 14.6426 19.5536H20.5049L21.1562 19.6403H21.851L22.2418 19.7704V14.4375L21.5905 14.6976H19.6798V14.741Z" fill="#003E23"/>
<path d="M14.6426 19.5538C14.6426 19.5538 20.4614 19.944 21.5905 17.2559C21.5905 17.2559 22.7629 14.958 19.6798 14.7412H14.6426V19.5538Z" fill="#D5DCC2"/>
<path d="M16.5968 15.9982H12.6452C12.4281 15.9982 12.2544 15.8248 12.2544 15.608C12.2544 15.3912 12.4281 15.2178 12.6452 15.2178H16.5968C16.8139 15.2178 16.9876 15.3912 16.9876 15.608C16.9876 15.8248 16.8139 15.9982 16.5968 15.9982Z" fill="#005130"/>
<path d="M16.6401 15.9982C16.8138 15.9982 16.9875 15.8248 16.9875 15.6513V15.5646C16.9875 15.3912 16.8138 15.2178 16.6401 15.2178H14.6426V15.9982H16.6401Z" fill="#003E23"/>
<path d="M22.6666 19.2301C22.2537 19.3328 21.8408 19.0248 21.7376 18.6141L21.3247 16.6635L22.8731 16.3555L23.286 18.3061C23.3892 18.8195 23.0795 19.1275 22.6666 19.2301Z" fill="#E0C07C"/>
<path d="M22.8735 16.3555L23.2863 18.3061C23.3896 18.7168 23.0799 19.1275 22.667 19.2301L22.1509 16.5608L22.8735 16.3555Z" fill="#D7B36B"/>
<path d="M20.4992 8.34746C19.3638 8.55279 18.6412 9.68212 18.8477 10.8115L19.9831 16.7661C19.9831 16.9714 20.1896 17.0741 20.396 17.0741L23.9056 16.3554C24.1121 16.3554 24.2153 16.1501 24.2153 15.9448L23.0799 9.99012C22.7702 8.86079 21.7379 8.14213 20.4992 8.34746Z" fill="#FFCB03"/>
<path d="M20.2926 10.7085C20.0861 10.7085 19.9829 10.9138 19.9829 11.1192L20.8087 15.2258C20.8087 15.4312 21.0152 15.5338 21.2216 15.5338C21.4281 15.5338 21.5313 15.3285 21.5313 15.1232L20.7055 11.0165C20.7055 10.8112 20.499 10.7085 20.2926 10.7085Z" fill="#EDAB05"/>
<path d="M21.6344 10.5034C21.4279 10.5034 21.3247 10.7087 21.3247 10.914L22.1505 15.0207C22.1505 15.226 22.357 15.3287 22.5634 15.3287C22.7698 15.3287 22.8731 15.1234 22.8731 14.918L22.0473 10.8114C21.9441 10.606 21.8408 10.4007 21.6344 10.5034Z" fill="#EDAB05"/>
<path d="M19.5704 10.6064C19.4672 10.6064 19.4672 10.6064 19.4672 10.5037C19.364 9.88774 19.5704 9.37441 20.0865 9.06641H20.1898L20.293 9.16907C20.293 9.16907 20.293 9.27174 20.1898 9.27174C19.7769 9.57974 19.5704 9.9904 19.6737 10.5037C19.6737 10.5037 19.6737 10.6064 19.5704 10.6064C19.6737 10.6064 19.5704 10.6064 19.5704 10.6064Z" fill="white"/>
<ellipse cx="20.6027" cy="8.96351" rx="0.103225" ry="0.102666" fill="white"/>
<rect x="13.2095" y="17.4727" width="2.866" height="0.216784" fill="#003E23"/>
<rect x="13.2095" y="17.9492" width="2.866" height="0.346853" fill="#003E23"/>
<path d="M18.9418 20.1606L18.855 19.7271L19.1155 20.0739C19.2892 20.334 19.5498 20.5075 19.8537 20.6375L19.7235 20.941C19.3326 20.7243 19.0721 20.4641 18.9418 20.1606Z" fill="#AC7135"/>
<path d="M17.4221 20.1172C17.0313 19.5969 16.9444 18.9899 17.0313 18.5563C17.1181 18.036 17.4221 17.6892 17.7261 17.906C18.4208 18.3829 18.9419 18.0794 19.4196 18.643C19.8538 19.2067 19.8104 19.9871 19.3328 20.3773C18.8117 20.7675 17.8997 20.6808 17.4221 20.1172Z" fill="#FFE038"/>
<path d="M17.0312 18.5563C17.1181 18.036 17.4221 17.6892 17.726 17.906C18.4208 18.3829 18.9419 18.0794 19.4196 18.643C19.8538 19.2067 19.8104 19.9871 19.3327 20.3773C19.6367 20.1172 18.2906 17.906 17.0312 18.5563Z" fill="#F9B63E"/>
<path d="M11.2991 18.253C11.7333 17.9061 12.3847 17.9928 12.7755 18.4697C13.1663 18.9467 12.819 19.3369 13.1229 19.9872C13.2532 20.2474 12.9058 20.4642 12.4716 20.4208C12.0807 20.4208 11.6031 20.2474 11.2123 19.8138C10.778 19.3369 10.8649 18.5998 11.2991 18.253Z" fill="#FFE038"/>
<path d="M12.4283 20.4207C13.1666 19.4669 11.6033 17.9927 11.2993 18.2095C11.7336 17.8627 12.3849 17.9494 12.7757 18.4263C13.1666 18.9032 12.8192 19.2934 13.1231 19.9438C13.21 20.2473 12.8626 20.4641 12.4283 20.4207Z" fill="#F9B63E"/>
<path d="M14.2086 19.8137C14.1217 19.3368 14.4691 18.8599 15.0336 18.7732C15.5547 18.6864 15.7284 19.12 16.3798 19.1634C16.6403 19.2067 16.6403 19.5536 16.4666 19.9004C16.2929 20.2039 15.9455 20.5074 15.4679 20.5941C14.8599 20.6808 14.2954 20.2906 14.2086 19.8137Z" fill="#FFE038"/>
<path d="M16.4232 19.857C15.989 18.8598 14.1217 19.4668 14.2086 19.7703C14.1217 19.2933 14.4691 18.8164 15.0336 18.7297C15.5547 18.643 15.7284 19.0765 16.3798 19.1199C16.5969 19.1633 16.6403 19.5101 16.4232 19.857Z" fill="#C12D24"/>
<path d="M7.78174 16.3019L8.08571 16.1719C8.21598 16.4754 8.38968 16.7355 8.6068 16.9523L8.91077 17.2124L8.47653 17.0824C8.21598 16.9089 7.95544 16.6054 7.78174 16.3019Z" fill="#AC7135"/>
<path d="M8.30287 16.692C8.73712 16.2151 9.51875 16.2585 10.0398 16.7788C10.5609 17.299 10.2135 17.776 10.6478 18.513C10.8215 18.8165 10.4307 19.0767 9.90957 19.12C9.4319 19.1634 8.86739 19.0333 8.38972 18.5564C7.86863 18.0795 7.86863 17.169 8.30287 16.692Z" fill="#C12D24"/>
<path d="M9.90943 19.12C10.6476 17.906 8.6067 16.3452 8.30273 16.692C8.73698 16.2151 9.51862 16.2585 10.0397 16.7788C10.5608 17.299 10.2134 17.776 10.6476 18.513C10.8213 18.8165 10.4739 19.0767 9.90943 19.12Z" fill="#F9B63E"/>
<path d="M14.2952 16.5183C14.2518 16.5183 14.2518 16.5183 14.2084 16.5183C14.2084 16.5183 14.2084 16.5617 14.2518 16.5617C14.2952 16.5617 14.2952 16.5617 14.2952 16.5183Z" fill="#61B45F"/>
<path d="M14.295 16.5183C14.2516 16.5183 14.2516 16.5183 14.2516 16.5183V16.5617L14.295 16.5183C14.295 16.5617 14.295 16.5617 14.295 16.5183Z" fill="#12A96B"/>
<path d="M14.2518 16.692C14.2084 16.6486 14.1649 16.6053 14.1649 16.6053C14.1649 16.6053 14.1649 16.5619 14.2084 16.5619H14.2518H14.2952C14.3386 16.5619 14.3386 16.6053 14.3386 16.6053C14.3386 16.6486 14.3386 16.6486 14.2518 16.692C14.2952 16.692 14.2952 16.692 14.2518 16.692Z" fill="#EA5D5F"/>
<path d="M14.2952 16.692C14.2952 16.692 14.3387 16.6486 14.3387 16.6053C14.3387 16.6053 14.3387 16.5619 14.2952 16.5619H14.2518L14.2952 16.692Z" fill="#DC2664"/>
<ellipse cx="14.2762" cy="16.6731" rx="0.0246978" ry="0.0246592" fill="#DC2664"/>
<ellipse cx="14.2762" cy="16.6296" rx="0.0246978" ry="0.0246592" fill="#DC2664"/>
<ellipse cx="14.2762" cy="16.6296" rx="0.0246978" ry="0.0246592" fill="#DC2664"/>
<ellipse cx="14.2762" cy="16.6731" rx="0.0246978" ry="0.0246592" fill="#DC2664"/>
<ellipse cx="14.3196" cy="16.6296" rx="0.0246978" ry="0.0246592" fill="#C0116B"/>
<ellipse cx="14.3196" cy="16.6731" rx="0.0246978" ry="0.0246592" fill="#C0116B"/>
<path d="M14.382 16.4752C14.3385 16.4752 14.3385 16.5186 14.3385 16.5186H14.2951C14.2951 16.5619 14.3385 16.5619 14.382 16.5186C14.4254 16.5186 14.4254 16.5186 14.382 16.4752C14.4254 16.4752 14.382 16.4752 14.382 16.4752Z" fill="#61B45F"/>
<path d="M14.4254 16.4752C14.3819 16.4752 14.4254 16.4752 14.4254 16.4752C14.3819 16.4752 14.3819 16.4752 14.3819 16.5185L14.4254 16.5619C14.4254 16.5185 14.4254 16.5185 14.4254 16.4752Z" fill="#12A96B"/>
<path d="M14.4689 16.6922H14.4255C14.382 16.6922 14.382 16.6488 14.3386 16.6488V16.6055L14.382 16.5621C14.382 16.5621 14.4255 16.5621 14.4255 16.5187C14.4689 16.5187 14.4689 16.5621 14.4689 16.5621C14.4689 16.6055 14.5123 16.6055 14.4689 16.6488C14.5123 16.6488 14.4689 16.6922 14.4689 16.6922Z" fill="#EA5D5F"/>
<path d="M14.512 16.6486C14.512 16.6053 14.512 16.5619 14.512 16.5619C14.512 16.5619 14.512 16.5185 14.4686 16.5185C14.4686 16.5185 14.4252 16.5185 14.4252 16.5619L14.512 16.7353C14.4686 16.692 14.512 16.6486 14.512 16.6486Z" fill="#DC2664"/>
<ellipse cx="14.4505" cy="16.6301" rx="0.0246978" ry="0.0246592" fill="#DC2664"/>
<ellipse cx="14.407" cy="16.6301" rx="0.0246973" ry="0.0246592" fill="#DC2664"/>
<ellipse cx="14.4505" cy="16.5867" rx="0.0246978" ry="0.0246582" fill="#DC2664"/>
<ellipse cx="14.4505" cy="16.6736" rx="0.0246978" ry="0.0246592" fill="#DC2664"/>
<ellipse cx="14.4505" cy="16.5867" rx="0.0246978" ry="0.0246582" fill="#C0116B"/>
<ellipse cx="14.4505" cy="16.6301" rx="0.0246978" ry="0.0246592" fill="#C0116B"/>
<path d="M14.5987 16.3448C14.5553 16.3448 14.5553 16.3882 14.5553 16.3882C14.5118 16.3882 14.5118 16.3882 14.5118 16.3882C14.5118 16.4315 14.5553 16.4315 14.5987 16.4315H14.6421C14.5987 16.4315 14.5987 16.3882 14.5987 16.3448Z" fill="#61B45F"/>
<path d="M14.5989 16.3448C14.5555 16.3448 14.5121 16.3882 14.5121 16.3882L14.5555 16.4315C14.5989 16.4315 14.5989 16.3882 14.5989 16.3448Z" fill="#12A96B"/>
<path d="M14.6857 16.6481C14.6857 16.6481 14.6423 16.6481 14.5989 16.6481C14.5555 16.6481 14.512 16.6048 14.512 16.5614C14.512 16.5614 14.4686 16.5181 14.512 16.4747L14.5555 16.4313C14.5555 16.4313 14.5989 16.388 14.6423 16.388C14.6857 16.388 14.7291 16.4313 14.7291 16.4313C14.7726 16.4747 14.7726 16.5181 14.7726 16.5614C14.7291 16.6048 14.6857 16.6481 14.6857 16.6481Z" fill="#EA5D5F"/>
<path d="M14.729 16.5614C14.729 16.5181 14.729 16.4747 14.6856 16.4313C14.6856 16.4313 14.6422 16.388 14.5987 16.388C14.5553 16.388 14.5553 16.388 14.5119 16.4313L14.6422 16.6481C14.6856 16.6481 14.729 16.6048 14.729 16.5614Z" fill="#DC2664"/>
<ellipse cx="14.6238" cy="16.5862" rx="0.0246978" ry="0.0246592" fill="#DC2664"/>
<ellipse cx="14.5804" cy="16.5427" rx="0.0246978" ry="0.0246592" fill="#DC2664"/>
<ellipse cx="14.6238" cy="16.5427" rx="0.0246978" ry="0.0246592" fill="#DC2664"/>
<ellipse cx="14.6673" cy="16.6296" rx="0.0246973" ry="0.0246592" fill="#DC2664"/>
<ellipse cx="14.6673" cy="16.4998" rx="0.0246973" ry="0.0246592" fill="#C0116B"/>
<ellipse cx="14.6673" cy="16.5427" rx="0.0246973" ry="0.0246592" fill="#C0116B"/>
<path d="M14.6427 16.1283V16.1717V16.215L14.5993 16.2584C14.5993 16.2584 14.5993 16.3017 14.5558 16.3017C14.5558 16.3017 14.5124 16.3017 14.5124 16.3451L14.469 16.3884H14.4256H14.3821H14.3387H14.2953L14.2519 16.3451C14.2519 16.3451 14.2084 16.3451 14.2084 16.3017C14.2084 16.3017 14.2084 16.2584 14.165 16.2584L14.1216 16.215V16.1717V16.1283V16.0849V16.0416L14.165 15.9982C14.165 15.9982 14.165 15.9549 14.2084 15.9549C14.2084 15.9549 14.2519 15.9549 14.2519 15.9115L14.2953 15.8682H14.3387H14.3821H14.4256H14.469L14.5124 15.9115C14.5124 15.9115 14.5558 15.9115 14.5558 15.9549C14.5558 15.9549 14.5558 15.9982 14.5993 15.9982L14.6427 16.0416V16.0849C14.6427 16.1283 14.6427 16.1283 14.6427 16.1283Z" fill="#4BAE52"/>
<path d="M14.6427 16.1282V16.0849C14.5993 16.2583 14.469 16.3884 14.2953 16.345C14.2519 16.345 14.2085 16.345 14.2085 16.3016V16.345C14.2085 16.345 14.2519 16.345 14.2519 16.3884L14.2953 16.4317H14.3388H14.3822H14.4256H14.469L14.5125 16.3884C14.5125 16.3884 14.5559 16.3884 14.5559 16.345C14.5559 16.345 14.5559 16.3016 14.5993 16.3016L14.6427 16.2583V16.2149C14.6427 16.1716 14.6427 16.1716 14.6427 16.1282Z" fill="#00A04B"/>
<path d="M14.5123 16.128C14.5123 16.1714 14.5123 16.1714 14.4689 16.1714C14.4255 16.1714 14.4255 16.128 14.4255 16.128H14.382C14.382 16.1714 14.382 16.1714 14.3386 16.1714C14.2952 16.1714 14.2952 16.128 14.2952 16.128H14.2518C14.2518 16.1714 14.2518 16.1714 14.2083 16.1714C14.1649 16.1714 14.1649 16.128 14.1649 16.128H14.1215C14.1215 16.1714 14.1649 16.2147 14.2083 16.2147C14.2518 16.2147 14.2518 16.2147 14.2518 16.1714L14.2952 16.2147C14.3386 16.2147 14.3386 16.2147 14.3386 16.1714L14.382 16.2147C14.5123 16.2147 14.5557 16.1714 14.5123 16.128Z" fill="#00A04B"/>
<path d="M14.5123 15.9981C14.5123 16.0415 14.5123 16.0415 14.4689 16.0415C14.4255 16.0415 14.4255 15.9981 14.4255 15.9981H14.382C14.382 16.0415 14.382 16.0415 14.3386 16.0415C14.2952 16.0415 14.2952 15.9981 14.2952 15.9981H14.2518C14.2518 16.0415 14.2518 16.0415 14.2083 16.0415C14.1649 16.0415 14.1649 15.9981 14.1649 15.9981H14.1215C14.1215 16.0415 14.1649 16.0848 14.2083 16.0848C14.2518 16.0848 14.2518 16.0848 14.2518 16.0415L14.2952 16.0848C14.3386 16.0848 14.3386 16.0848 14.3386 16.0415L14.382 16.0848C14.5123 16.0848 14.5557 16.0415 14.5123 15.9981Z" fill="#00A04B"/>
<path d="M15.2071 16.2147V16.2581V16.3014L15.1637 16.3448C15.1637 16.3448 15.1637 16.3882 15.1203 16.3882C15.0769 16.3882 15.0769 16.3882 15.0769 16.4315L15.0334 16.4749H14.99H14.9466H14.9032H14.8597L14.8163 16.4315C14.8163 16.4315 14.7729 16.4315 14.7729 16.3882C14.7729 16.3882 14.7729 16.3448 14.7295 16.3448L14.686 16.3014V16.2581V16.2147V16.1714V16.128L14.7295 16.0847C14.7295 16.0847 14.7295 16.0413 14.7729 16.0413C14.7729 16.0413 14.8163 16.0413 14.8163 15.9979L14.8597 15.9546H14.9032H14.9466H14.99H15.0334L15.0769 15.9979C15.0769 15.9979 15.1203 15.9979 15.1203 16.0413C15.1203 16.0413 15.1203 16.0847 15.1637 16.0847L15.2071 16.128V16.1714V16.2147Z" fill="#4BAE52"/>
<path d="M15.2072 16.2146V16.1713C15.1637 16.3014 14.99 16.4314 14.8163 16.4314C14.7729 16.4314 14.7295 16.4314 14.7295 16.3881C14.7295 16.3881 14.7295 16.3881 14.7295 16.4314C14.7295 16.4314 14.7729 16.4314 14.7729 16.4748L14.8163 16.5181H14.8598H14.9032H14.9466H14.99L15.0335 16.4748C15.0335 16.4748 15.0769 16.4748 15.0769 16.4314C15.0769 16.4314 15.0769 16.3881 15.1203 16.3881L15.1637 16.3447V16.3014C15.2072 16.258 15.2072 16.2146 15.2072 16.2146Z" fill="#00A04B"/>
<ellipse cx="14.0779" cy="16.432" rx="0.260546" ry="0.26014" fill="#F39638"/>
<path d="M13.9911 16.1719L14.1213 16.6488C13.9911 16.6922 13.8608 16.6054 13.8174 16.4754C13.7739 16.3453 13.8608 16.2152 13.9911 16.1719Z" fill="#EB661B"/>
<path d="M13.9476 16.1716C13.991 16.215 13.991 16.215 13.9476 16.1716C13.991 16.215 13.991 16.1716 13.991 16.1716H13.9476C13.991 16.1283 13.991 16.1283 13.991 16.1283C13.991 16.1283 13.991 16.1283 14.0345 16.1283C14.0345 16.1283 14.0345 16.1283 14.0345 16.0849C14.0345 16.0849 14.0345 16.0849 13.991 16.0849C13.991 16.0849 13.9476 16.0849 13.9476 16.1283V16.1716Z" fill="#AC5743"/>
<path d="M13.9479 16.1285L13.9913 16.2152H13.9479C13.9479 16.1719 13.9479 16.1719 13.9479 16.1285Z" fill="#823931"/>
<path d="M13.774 16.0416L13.8609 15.9982C13.9043 15.9982 13.9477 15.9982 13.9912 16.0416L14.0346 16.1283L13.9477 16.1717C13.9043 16.1717 13.8609 16.1717 13.8175 16.1283L13.774 16.0416C13.7306 16.0416 13.7306 16.0416 13.774 16.0416Z" fill="#3AB39C"/>
<path d="M13.8175 16.0848C13.8175 16.0848 13.8609 16.0848 13.8175 16.0848L13.9478 16.1281L13.8175 16.0848Z" fill="#279F84"/>
<path d="M15.294 16.1717L15.3375 16.215C15.3375 16.215 15.3375 16.215 15.294 16.1717Z" fill="#C86D35"/>
<path d="M15.3375 16.215L15.294 16.1717L15.3375 16.215Z" fill="#B14E17"/>
<path d="M15.3374 16.1714C15.3374 16.1714 15.2939 16.2147 15.2939 16.2581C15.2939 16.3015 15.2939 16.3015 15.3374 16.3448C15.3374 16.3448 15.3808 16.3882 15.3808 16.4315C15.3808 16.4749 15.3808 16.5182 15.4242 16.5616C15.4676 16.6483 15.6413 16.605 15.6848 16.605C15.6848 16.605 15.7282 16.5182 15.7282 16.4749C15.7282 16.4315 15.7282 16.3882 15.6848 16.3882C15.6413 16.3448 15.5979 16.3015 15.5545 16.3015C15.5111 16.3015 15.5111 16.2581 15.4676 16.2581C15.4242 16.1714 15.3808 16.1714 15.3374 16.1714Z" fill="#F49C1A"/>
<path d="M15.6416 16.5617C15.6416 16.5617 15.685 16.475 15.685 16.4317C15.685 16.3883 15.685 16.345 15.6416 16.345C15.5981 16.3016 15.5547 16.2582 15.5113 16.2582C15.4679 16.2582 15.4679 16.2149 15.4244 16.2149C15.381 16.1715 15.3376 16.1715 15.2942 16.2149L15.6416 16.5617Z" fill="#EB6528"/>
<path d="M15.3808 16.2581C15.3808 16.2581 15.3808 16.3015 15.3808 16.3448C15.3808 16.4315 15.4242 16.4749 15.4242 16.4749C15.4242 16.5182 15.4676 16.5182 15.5111 16.5182C15.5545 16.5182 15.5545 16.5182 15.5979 16.5182C15.5979 16.5182 15.5979 16.4749 15.6413 16.4315C15.6413 16.3882 15.6413 16.3882 15.6413 16.3448C15.6413 16.3015 15.5979 16.3015 15.5111 16.2581C15.4242 16.2581 15.3808 16.2581 15.3808 16.2581Z" fill="#FFD301"/>
<path d="M15.3808 16.2581L15.5979 16.5182C15.5979 16.5182 15.5979 16.4749 15.6413 16.4315C15.6413 16.3882 15.6413 16.3882 15.6413 16.3448C15.6413 16.3015 15.5979 16.3015 15.5111 16.2581C15.4242 16.2581 15.3808 16.2581 15.3808 16.2581Z" fill="#F49C1A"/>
<path d="M14.9899 16.5618C14.9899 16.5618 15.0768 16.6918 15.1636 16.6918C15.2071 16.6918 15.2939 16.6918 15.2939 16.6485C15.2939 16.6051 15.2505 16.5618 15.2071 16.5618C15.1202 16.5184 14.9899 16.5618 14.9899 16.5618Z" fill="#B25117"/>
<path d="M15.0334 16.4749C15.0334 16.4749 15.0334 16.5182 15.0768 16.5616L15.2939 16.6049L15.3374 16.5616C15.3374 16.5182 15.2939 16.4749 15.2505 16.4749C15.1637 16.4315 15.0334 16.4749 15.0334 16.4749Z" fill="#F49C1A"/>
<path d="M15.2505 16.4751C15.2939 16.4751 15.3374 16.5618 15.3374 16.5618L15.0334 16.4751C15.0334 16.4751 15.1637 16.4317 15.2505 16.4751Z" fill="#EF7E11"/>
<path d="M15.2504 16.562C15.2938 16.562 15.3372 16.6487 15.3372 16.6487L15.0333 16.562C14.9898 16.562 15.1201 16.5186 15.2504 16.562Z" fill="#904014"/>
<path d="M15.2935 16.5183C15.2935 16.5183 15.3369 16.475 15.3369 16.3883C15.3369 16.3449 15.2935 16.3449 15.2501 16.3449C15.2067 16.3449 15.2067 16.3883 15.2067 16.3883C15.2067 16.475 15.2935 16.5183 15.2935 16.5183Z" fill="#B25117"/>
<path d="M15.2069 16.4317C15.2069 16.3884 15.2069 16.3884 15.2503 16.3884L15.2937 16.5618C15.2937 16.5184 15.2069 16.4751 15.2069 16.4317Z" fill="#904014"/>
<path d="M15.1201 16.6053C15.1201 16.6053 15.0332 16.5619 14.9464 16.6053C14.9029 16.6053 14.9029 16.6486 14.9464 16.692C14.9898 16.7353 15.0332 16.7353 15.0332 16.692C15.0766 16.692 15.1201 16.6053 15.1201 16.6053Z" fill="#F49C1A"/>
<path d="M15.033 16.7353C14.9896 16.7353 14.9462 16.7353 14.9462 16.7353L15.1199 16.6486C15.1199 16.6052 15.1199 16.6919 15.033 16.7353Z" fill="#EF7E11"/>
<path d="M10.8213 18.9901C10.8213 18.9901 7.86846 18.9901 8.91064 21.5048C8.91064 21.5048 9.51858 24.0628 15.8585 23.8027H9.99625L9.34489 23.8894H8.6501L8.25928 24.0195V18.73L8.91064 18.9901H10.8213Z" fill="#005130"/>
<path d="M15.8586 23.8023C15.8586 23.8023 10.0397 24.1925 8.9107 21.5044C8.9107 21.5044 7.73825 19.2065 10.8214 18.9897H15.8586V23.8023Z" fill="#D5E3D1"/>
<path d="M20.8956 18.9901C20.8956 18.9901 23.8485 18.9901 22.8063 21.5048C22.8063 21.5048 22.1983 24.0628 15.8584 23.8027H21.7207L22.372 23.8894H23.0668L23.4577 24.0195V18.73L22.8063 18.9901H20.8956Z" fill="#003E23"/>
<path d="M15.8584 23.8023C15.8584 23.8023 21.6773 24.1925 22.8063 21.5044C22.8063 21.5044 23.9787 19.2065 20.8956 18.9897H15.8584V23.8023Z" fill="#D5DCC2"/>
<path d="M17.8126 20.2472H13.861C13.6439 20.2472 13.4702 20.0738 13.4702 19.857C13.4702 19.6402 13.6439 19.4668 13.861 19.4668H17.8126C18.0298 19.4668 18.2035 19.6402 18.2035 19.857C18.2035 20.1171 18.0298 20.2472 17.8126 20.2472Z" fill="#005130"/>
<path d="M17.8559 20.2472C18.0296 20.2472 18.2033 20.0738 18.2033 19.9004V19.8136C18.2033 19.6402 18.0296 19.4668 17.8559 19.4668H15.8584V20.2039H17.8559V20.2472Z" fill="#003E23"/>
<rect x="14.4258" y="21.7212" width="2.866" height="0.216784" fill="#003E23"/>
<rect x="14.4258" y="22.1982" width="2.866" height="0.346853" fill="#003E23"/>
<path d="M15.511 20.8108C15.4676 20.8108 15.511 20.8108 15.511 20.8108C15.4676 20.8108 15.4676 20.8108 15.4242 20.8108C15.4242 20.8108 15.4242 20.8542 15.4676 20.8542C15.511 20.8542 15.511 20.8108 15.511 20.8108Z" fill="#61B45F"/>
<path d="M15.5108 20.8108C15.4674 20.8108 15.4674 20.8108 15.4674 20.8108V20.8542L15.5108 20.8108C15.5108 20.8542 15.5108 20.8108 15.5108 20.8108Z" fill="#12A96B"/>
<path d="M15.4676 20.9845C15.4242 20.9411 15.3808 20.8977 15.3808 20.8977C15.3808 20.8977 15.3808 20.8544 15.4242 20.8544H15.4676H15.511C15.5545 20.8544 15.5545 20.8977 15.5545 20.8977C15.5545 20.8977 15.5545 20.9411 15.4676 20.9845C15.511 20.9845 15.4676 20.9845 15.4676 20.9845Z" fill="#EA5D5F"/>
<path d="M15.5111 20.9409C15.5111 20.9409 15.5545 20.8975 15.5545 20.8541C15.5545 20.8541 15.5545 20.8108 15.5111 20.8108H15.4676L15.5111 20.9409C15.5111 20.9842 15.4676 20.9842 15.5111 20.9409Z" fill="#DC2664"/>
<ellipse cx="15.5223" cy="20.9221" rx="0.0246978" ry="0.0246592" fill="#DC2664"/>
<ellipse cx="15.4729" cy="20.8792" rx="0.0246973" ry="0.0246592" fill="#DC2664"/>
<ellipse cx="15.5223" cy="20.8792" rx="0.0246978" ry="0.0246592" fill="#DC2664"/>
<ellipse cx="15.5223" cy="20.9656" rx="0.0246978" ry="0.0246592" fill="#DC2664"/>
<ellipse cx="15.5716" cy="20.8792" rx="0.0246978" ry="0.0246592" fill="#C0116B"/>
<ellipse cx="15.5716" cy="20.9221" rx="0.0246978" ry="0.0246592" fill="#C0116B"/>
<path d="M15.5978 20.7243C15.5544 20.7243 15.5544 20.7676 15.5544 20.7676H15.5109C15.5109 20.811 15.5544 20.811 15.5978 20.7676C15.6412 20.811 15.6412 20.7676 15.5978 20.7243Z" fill="#61B45F"/>
<path d="M15.6412 20.7678C15.5978 20.7245 15.5978 20.7245 15.6412 20.7678C15.5978 20.7678 15.5978 20.7678 15.5978 20.8112L15.6412 20.8545C15.6412 20.8112 15.6412 20.7678 15.6412 20.7678Z" fill="#12A96B"/>
<path d="M15.6847 20.9842H15.6413C15.5979 20.9842 15.5979 20.9408 15.5544 20.9408V20.8974L15.5979 20.8541C15.5979 20.8541 15.6413 20.8541 15.6413 20.8107C15.6847 20.8107 15.6847 20.8541 15.6847 20.8541C15.6847 20.8974 15.7281 20.8974 15.6847 20.9408C15.7281 20.9408 15.6847 20.9408 15.6847 20.9842Z" fill="#EA5D5F"/>
<path d="M15.7278 20.8976C15.7278 20.8543 15.7278 20.8109 15.7278 20.8109C15.7278 20.8109 15.7278 20.7676 15.6844 20.7676C15.6844 20.7676 15.641 20.7676 15.641 20.8109L15.7278 20.9844C15.6844 20.941 15.7278 20.941 15.7278 20.8976Z" fill="#DC2664"/>
<ellipse cx="15.6224" cy="20.9226" rx="0.0246973" ry="0.0246592" fill="#DC2664"/>
<ellipse cx="15.6224" cy="20.8792" rx="0.0246973" ry="0.0246592" fill="#DC2664"/>
<ellipse cx="15.6224" cy="20.8792" rx="0.0246973" ry="0.0246592" fill="#DC2664"/>
<ellipse cx="15.6658" cy="20.9226" rx="0.0246978" ry="0.0246592" fill="#DC2664"/>
<ellipse cx="15.6658" cy="20.8357" rx="0.0246978" ry="0.0246592" fill="#C0116B"/>
<ellipse cx="15.6658" cy="20.8792" rx="0.0246978" ry="0.0246592" fill="#C0116B"/>
<path d="M15.8585 20.4208V20.4641V20.5075L15.8151 20.5509C15.8151 20.5509 15.8151 20.5942 15.7716 20.5942C15.7716 20.5942 15.7282 20.5942 15.7282 20.6376L15.6848 20.6809H15.6414H15.5979H15.5545H15.5111L15.4677 20.6376C15.4677 20.6376 15.4243 20.6376 15.4243 20.5942C15.4243 20.5942 15.4243 20.5509 15.3808 20.5509L15.3374 20.5075V20.4641V20.4208V20.3774V20.3341L15.3808 20.2907C15.3808 20.2907 15.3808 20.2474 15.4243 20.2474C15.4243 20.2474 15.4677 20.2474 15.4677 20.204L15.5111 20.1606H15.5545H15.5979H15.6414H15.6848L15.7282 20.204C15.7282 20.204 15.7716 20.204 15.7716 20.2474C15.7716 20.2907 15.7716 20.2907 15.8151 20.2907L15.8585 20.3341V20.3774V20.4208Z" fill="#4BAE52"/>
<path d="M15.8586 20.4207V20.3773C15.8151 20.5508 15.6849 20.6808 15.5112 20.6375C15.4677 20.6375 15.4243 20.6375 15.4243 20.5941V20.6375C15.4243 20.6375 15.4677 20.6375 15.4677 20.6808L15.5112 20.7242H15.5546H15.598H15.6414H15.6849L15.7283 20.6808C15.7283 20.6808 15.7717 20.6808 15.7717 20.6375C15.7717 20.6375 15.7717 20.5941 15.8151 20.5941L15.8586 20.5508V20.5074C15.8586 20.4641 15.8586 20.4207 15.8586 20.4207Z" fill="#00A04B"/>
<path d="M15.7281 20.4205C15.7281 20.4639 15.7281 20.4639 15.6847 20.4639C15.6413 20.4639 15.6413 20.4205 15.6413 20.4205H15.5978C15.5978 20.4639 15.5978 20.4639 15.5544 20.4639C15.511 20.4639 15.511 20.4205 15.511 20.4205H15.4676C15.4676 20.4639 15.4676 20.4639 15.4241 20.4639C15.3807 20.4639 15.3807 20.4205 15.3807 20.4205H15.3373C15.3373 20.4639 15.3807 20.5072 15.4241 20.5072C15.4676 20.5072 15.4676 20.5072 15.4676 20.4639L15.511 20.5072C15.5544 20.5072 15.5544 20.5072 15.5544 20.4639L15.5978 20.5072C15.7281 20.5072 15.7715 20.4639 15.7281 20.4205Z" fill="#00A04B"/>
<path d="M15.7281 20.2906C15.7281 20.334 15.7281 20.334 15.6847 20.334C15.6413 20.334 15.6413 20.2906 15.6413 20.2906H15.5978C15.5978 20.334 15.5978 20.334 15.5544 20.334C15.511 20.334 15.511 20.2906 15.511 20.2906H15.4676C15.4676 20.334 15.4676 20.334 15.4241 20.334C15.3807 20.334 15.3807 20.2906 15.3807 20.2906H15.3373C15.3373 20.334 15.3807 20.3773 15.4241 20.3773C15.4676 20.3773 15.4676 20.3773 15.4676 20.334L15.511 20.3773C15.5544 20.3773 15.5544 20.3773 15.5544 20.334L15.5978 20.3773C15.7281 20.3773 15.7715 20.334 15.7281 20.2906Z" fill="#00A04B"/>
<path d="M16.4229 20.4642V20.5076V20.551L16.3795 20.5943C16.3795 20.5943 16.3795 20.6377 16.3361 20.6377C16.3361 20.6377 16.2927 20.6377 16.2927 20.681L16.2493 20.7244H16.2058H16.1624H16.119H16.0756L16.0321 20.681C16.0321 20.681 15.9887 20.681 15.9887 20.6377C15.9887 20.6377 15.9887 20.5943 15.9453 20.5943L15.9019 20.551V20.5076V20.4642V20.4209V20.3775L15.9453 20.3342C15.9453 20.3342 15.9453 20.2908 15.9887 20.2908C16.0321 20.2908 16.0321 20.2908 16.0321 20.2475L16.0756 20.2041H16.119H16.1624H16.2058H16.2493L16.2927 20.2475C16.2927 20.2475 16.3361 20.2475 16.3361 20.2908C16.3361 20.2908 16.3361 20.3342 16.3795 20.3342L16.4229 20.3775V20.4209C16.3795 20.4642 16.4229 20.4642 16.4229 20.4642Z" fill="#4BAE52"/>
<path d="M16.423 20.4642V20.4208C16.3796 20.5942 16.2493 20.7243 16.0756 20.6809C16.0322 20.6809 15.9888 20.6809 15.9888 20.6376C15.9888 20.6376 15.9888 20.6376 15.9888 20.6809C15.9888 20.6809 16.0322 20.6809 16.0322 20.7243L16.0756 20.7677H16.119H16.1625H16.2059H16.2493L16.2927 20.7243C16.2927 20.7243 16.3362 20.7243 16.3362 20.6809C16.3362 20.6809 16.3362 20.6376 16.3796 20.6376L16.423 20.5942V20.5509C16.3796 20.5075 16.423 20.5075 16.423 20.4642Z" fill="#00A04B"/>
<ellipse cx="15.2503" cy="20.681" rx="0.260546" ry="0.26014" fill="#F39638"/>
<path d="M15.2069 20.4639L15.3372 20.9408C15.2069 20.9841 15.0766 20.8974 15.0332 20.7674C14.9898 20.6373 15.0766 20.5072 15.2069 20.4639Z" fill="#EB661B"/>
<path d="M15.1634 20.4641C15.1634 20.5075 15.2069 20.5075 15.1634 20.4641C15.2069 20.5075 15.2069 20.4641 15.2069 20.4641H15.1634C15.2069 20.4207 15.2069 20.4207 15.2069 20.4207C15.2069 20.4207 15.2069 20.4207 15.2503 20.4207C15.2503 20.4207 15.2503 20.4207 15.2503 20.3774C15.2503 20.3774 15.2503 20.3774 15.2069 20.3774C15.2069 20.3774 15.1634 20.3774 15.1634 20.4207C15.1634 20.4207 15.1634 20.4207 15.1634 20.4641Z" fill="#AC5743"/>
<path d="M15.1637 20.3775L15.2071 20.4642H15.1637C15.1637 20.4642 15.1637 20.4209 15.1637 20.3775Z" fill="#823931"/>
<path d="M14.9899 20.2906L15.0767 20.2473C15.1201 20.2473 15.1635 20.2473 15.207 20.2906L15.2504 20.3773L15.1635 20.4207C15.1201 20.4207 15.0767 20.4207 15.0333 20.3773L14.9899 20.2906C14.9464 20.334 14.9464 20.2906 14.9899 20.2906Z" fill="#3AB39C"/>
<path d="M15.0333 20.3338L15.1636 20.3771L15.0333 20.3338C15.0333 20.3771 15.0333 20.3771 15.0333 20.3338Z" fill="#279F84"/>
<path d="M16.5099 20.4207L16.5533 20.464C16.5533 20.464 16.5533 20.464 16.5099 20.4207Z" fill="#C86D35"/>
<path d="M16.5533 20.464L16.5099 20.4207L16.5533 20.464Z" fill="#B14E17"/>
<path d="M16.5532 20.4644C16.5532 20.4644 16.5098 20.5078 16.5098 20.5511C16.5098 20.5945 16.5098 20.5945 16.5532 20.6378C16.5532 20.6378 16.5966 20.6812 16.5966 20.7245C16.5966 20.7679 16.5966 20.8113 16.64 20.8546C16.6835 20.9413 16.8572 20.898 16.9006 20.898C16.9006 20.898 16.944 20.8113 16.944 20.7679C16.944 20.7245 16.944 20.6812 16.9006 20.6812C16.8572 20.6378 16.8137 20.5945 16.7703 20.5945C16.7269 20.5945 16.7269 20.5511 16.6835 20.5511C16.64 20.4211 16.5966 20.4211 16.5532 20.4644Z" fill="#F49C1A"/>
<path d="M16.8574 20.8542C16.8574 20.8542 16.9008 20.7675 16.9008 20.7242C16.9008 20.6808 16.9008 20.6374 16.8574 20.6374C16.814 20.5941 16.7705 20.5507 16.7271 20.5507C16.6837 20.5507 16.6837 20.5074 16.6403 20.5074C16.5968 20.464 16.5534 20.464 16.51 20.5074L16.8574 20.8542Z" fill="#EB6528"/>
<path d="M16.5966 20.5076C16.5966 20.5076 16.5966 20.551 16.5966 20.5943C16.5966 20.681 16.64 20.7244 16.64 20.7244C16.64 20.7678 16.6835 20.7678 16.7269 20.7678C16.7703 20.7678 16.7703 20.7678 16.8137 20.7678C16.8137 20.7678 16.8137 20.7244 16.8572 20.681C16.8572 20.6377 16.8572 20.6377 16.8572 20.5943C16.8572 20.551 16.8137 20.551 16.7269 20.5076C16.64 20.551 16.5966 20.5076 16.5966 20.5076Z" fill="#FFD301"/>
<path d="M16.5966 20.5076L16.8137 20.7678C16.8137 20.7678 16.8137 20.7244 16.8572 20.681C16.8572 20.6377 16.8572 20.6377 16.8572 20.5943C16.8572 20.551 16.8137 20.551 16.7269 20.5076C16.64 20.551 16.5966 20.5076 16.5966 20.5076Z" fill="#F49C1A"/>
<path d="M16.2062 20.8543C16.2062 20.8543 16.2931 20.9843 16.3799 20.9843C16.4234 20.9843 16.5102 20.9843 16.5102 20.941C16.5102 20.8976 16.4668 20.8543 16.4234 20.8543C16.3365 20.8109 16.2062 20.8543 16.2062 20.8543Z" fill="#B25117"/>
<path d="M16.2497 20.7673C16.2497 20.7673 16.2497 20.8107 16.2931 20.8541L16.5103 20.8974L16.5537 20.8541C16.5537 20.8107 16.5103 20.7673 16.4668 20.7673C16.3366 20.724 16.2497 20.7673 16.2497 20.7673Z" fill="#F49C1A"/>
<path d="M16.4668 20.7242C16.5103 20.7242 16.5537 20.8109 16.5537 20.8109L16.2497 20.7676C16.2497 20.7676 16.3366 20.7242 16.4668 20.7242Z" fill="#EF7E11"/>
<path d="M16.4234 20.8111C16.4668 20.8111 16.5102 20.8978 16.5102 20.8978L16.2062 20.8111C16.2062 20.8545 16.3365 20.8111 16.4234 20.8111Z" fill="#904014"/>
<path d="M16.5098 20.8108C16.5098 20.8108 16.5533 20.7675 16.5533 20.6808C16.5533 20.6374 16.5098 20.6374 16.4664 20.6374C16.423 20.6374 16.423 20.6808 16.423 20.6808C16.423 20.7675 16.5098 20.8108 16.5098 20.8108Z" fill="#B25117"/>
<path d="M16.3797 20.6808C16.3797 20.6374 16.3797 20.6374 16.4231 20.6374L16.4665 20.8108C16.51 20.8108 16.4231 20.7675 16.3797 20.6808Z" fill="#904014"/>
<path d="M16.2929 20.8978C16.2929 20.8978 16.2061 20.8544 16.1192 20.8978C16.0758 20.8978 16.0758 20.9411 16.1192 20.9845C16.1626 21.0278 16.2061 21.0278 16.2061 20.9845C16.2929 20.9411 16.2929 20.8978 16.2929 20.8978Z" fill="#F49C1A"/>
<path d="M16.2493 20.9843C16.2059 20.9843 16.1625 20.9843 16.1625 20.9843L16.3362 20.8975C16.2928 20.8975 16.2928 20.9843 16.2493 20.9843Z" fill="#EF7E11"/>
<path d="M9.82256 20.5942H9.69228V20.0306C9.69228 19.9872 9.73571 19.9438 9.77913 19.9438C9.82256 19.9438 9.86598 19.9872 9.86598 20.0306L9.82256 20.5942Z" fill="#4FA544"/>
<path d="M10.0394 20.3342C9.99596 20.3342 10.0394 20.3775 10.0394 20.3342C9.99596 20.2908 9.95254 20.2475 9.90911 20.2041C9.86569 20.2041 9.77884 20.2475 9.73541 20.3342H9.69199C9.64857 20.2475 9.56172 20.2041 9.51829 20.2041C9.47487 20.2041 9.43144 20.2475 9.43144 20.2908C9.43144 20.2908 9.43144 20.2908 9.38802 20.2908C9.25775 20.2041 9.1709 20.2041 9.1709 20.3342C9.1709 20.5943 9.38802 20.7677 9.69199 20.7677C9.99596 20.7677 10.2131 20.551 10.2131 20.3342C10.2565 20.2475 10.1697 20.2908 10.0394 20.3342Z" fill="#6FB757"/>
<path d="M10.0832 20.3339V20.3772C10.0832 20.594 9.86605 20.8108 9.64893 20.8108C9.69235 20.8108 9.69235 20.8108 9.73577 20.8108C10.0397 20.8108 10.2569 20.594 10.2569 20.3772C10.2569 20.2472 10.2134 20.2905 10.0832 20.3339Z" fill="#61B351"/>
<ellipse cx="9.21458" cy="21.8947" rx="0.347394" ry="0.346853" fill="#E84639"/>
<ellipse cx="10.2131" cy="21.8947" rx="0.347394" ry="0.346853" fill="#E53935"/>
<path d="M10.2133 21.5479C10.1699 21.5479 10.1699 21.5479 10.1265 21.5479C10.2567 21.5912 10.387 21.7213 10.387 21.8513C10.387 22.0248 10.3002 22.1548 10.1265 22.1548C10.1699 22.1548 10.1699 22.1548 10.2133 22.1548C10.387 22.1548 10.5607 22.0248 10.5607 21.808C10.5607 21.7213 10.4304 21.5479 10.2133 21.5479Z" fill="#D2302F"/>
<ellipse cx="10.2131" cy="20.9845" rx="0.347394" ry="0.346853" fill="#E53935"/>
<path d="M10.2133 20.6377C10.1699 20.6377 10.1699 20.6377 10.1265 20.6377C10.2567 20.6811 10.387 20.8111 10.387 20.9412C10.387 21.1146 10.3002 21.2447 10.1265 21.2447C10.1699 21.2447 10.1699 21.2447 10.2133 21.2447C10.387 21.2447 10.5607 21.1146 10.5607 20.8978C10.5607 20.8111 10.4304 20.6377 10.2133 20.6377Z" fill="#D2302F"/>
<ellipse cx="9.21458" cy="20.9845" rx="0.347394" ry="0.346853" fill="#E84639"/>
<ellipse cx="9.73558" cy="21.9816" rx="0.347394" ry="0.346853" fill="#E53935"/>
<path d="M9.73577 21.6348C9.69235 21.6348 9.69235 21.6348 9.64893 21.6348C9.7792 21.6781 9.90947 21.8082 9.90947 21.9383C9.90947 22.1117 9.82262 22.2418 9.64893 22.2418C9.69235 22.2418 9.69235 22.2418 9.73577 22.2418C9.90947 22.2418 10.0832 22.1117 10.0832 21.8949C10.0832 21.8082 9.90947 21.6348 9.73577 21.6348Z" fill="#D2302F"/>
<ellipse cx="9.73558" cy="20.8976" rx="0.347394" ry="0.346853" fill="#E53935"/>
<path d="M9.73577 20.5508C9.69235 20.5508 9.69235 20.5508 9.64893 20.5508C9.7792 20.5941 9.90947 20.7242 9.90947 20.8543C9.90947 21.0277 9.82262 21.1578 9.64893 21.1578C9.69235 21.1578 9.69235 21.1578 9.73577 21.1578C9.90947 21.1578 10.0832 21.0277 10.0832 20.8109C10.0832 20.6809 9.90947 20.5508 9.73577 20.5508Z" fill="#D2302F"/>
<ellipse cx="9.08421" cy="21.4181" rx="0.347394" ry="0.346852" fill="#E84639"/>
<path d="M9.08441 21.0713C9.04098 21.0713 9.04098 21.0713 8.99756 21.0713C9.12783 21.1146 9.2581 21.2447 9.2581 21.4181C9.2581 21.5916 9.12783 21.7216 8.99756 21.765C9.04098 21.765 9.04098 21.765 9.08441 21.765C9.2581 21.765 9.4318 21.5916 9.4318 21.4181C9.4318 21.2447 9.2581 21.0713 9.08441 21.0713Z" fill="#E53935"/>
<ellipse cx="10.3869" cy="21.4181" rx="0.347394" ry="0.346852" fill="#E84639"/>
<path d="M10.3871 21.0713C10.3437 21.0713 10.3437 21.0713 10.3003 21.0713C10.4306 21.1146 10.5608 21.2447 10.5608 21.4181C10.5608 21.5916 10.4306 21.7216 10.3003 21.765C10.3437 21.765 10.3437 21.765 10.3871 21.765C10.5608 21.765 10.7345 21.5916 10.7345 21.4181C10.7345 21.2447 10.6043 21.0713 10.3871 21.0713Z" fill="#E53935"/>
<ellipse cx="9.73555" cy="21.418" rx="0.390819" ry="0.39021" fill="#E84639"/>
<path d="M9.73577 20.9844C9.69235 20.9844 9.69235 20.9844 9.64893 20.9844C9.82262 21.0277 9.99632 21.2012 9.99632 21.3746C9.99632 21.548 9.86605 21.7648 9.64893 21.7648C9.69235 21.7648 9.69235 21.7648 9.73577 21.7648C9.9529 21.7648 10.1266 21.5914 10.1266 21.3746C10.1266 21.1578 9.9529 20.9844 9.73577 20.9844Z" fill="#E53935"/>
<path d="M12.732 23.2391H12.6017V22.8056C12.6017 22.7622 12.6451 22.7622 12.6451 22.7622C12.6885 22.7622 12.6885 22.8056 12.6885 22.8056L12.732 23.2391Z" fill="#4FA544"/>
<path d="M12.9053 23.0222C12.8618 22.9788 12.8618 22.9355 12.8184 22.9355C12.775 22.9355 12.6881 22.9788 12.6881 23.0222H12.6447C12.6013 22.9355 12.5579 22.8921 12.5145 22.9355C12.471 22.9355 12.471 22.9788 12.471 23.0222C12.471 23.0222 12.471 23.0222 12.4276 23.0222C12.3408 22.9788 12.2539 22.9355 12.2539 23.0655C12.2539 23.2823 12.4276 23.4124 12.6447 23.4124C12.8618 23.4124 13.0355 23.239 13.0355 23.0655C13.079 22.9355 12.9921 22.9788 12.9053 23.0222Z" fill="#6FB757"/>
<path d="M12.949 23.0222V23.0656C12.949 23.239 12.7753 23.4125 12.6016 23.4125H12.645C12.8621 23.4125 13.0358 23.239 13.0358 23.0656C13.0792 22.9789 13.0358 22.9789 12.949 23.0222Z" fill="#61B351"/>
<ellipse cx="12.2542" cy="24.2362" rx="0.260546" ry="0.26014" fill="#E84639"/>
<ellipse cx="13.0794" cy="24.2362" rx="0.260546" ry="0.26014" fill="#E53935"/>
<path d="M13.0793 23.9761C13.0358 23.9761 13.0358 23.9761 13.0358 23.9761C13.1661 24.0194 13.253 24.1061 13.253 24.2362C13.253 24.3663 13.1661 24.453 13.0358 24.4964H13.0793C13.2095 24.4964 13.3398 24.3663 13.3398 24.2362C13.3398 24.1061 13.2095 23.9761 13.0793 23.9761Z" fill="#D2302F"/>
<ellipse cx="13.0794" cy="23.5429" rx="0.260546" ry="0.26014" fill="#E53935"/>
<path d="M13.0793 23.2393C13.0358 23.2393 13.0358 23.2393 13.0358 23.2393C13.1661 23.2826 13.253 23.3693 13.253 23.4994C13.253 23.6295 13.1661 23.7162 13.0358 23.7595H13.0793C13.2095 23.7595 13.3398 23.6295 13.3398 23.4994C13.3398 23.3693 13.2095 23.2393 13.0793 23.2393Z" fill="#D2302F"/>
<ellipse cx="12.2542" cy="23.5429" rx="0.260546" ry="0.26014" fill="#E84639"/>
<ellipse cx="12.6883" cy="24.3231" rx="0.260546" ry="0.260139" fill="#E53935"/>
<path d="M12.6882 24.063C12.6447 24.063 12.6447 24.063 12.6447 24.063C12.775 24.1063 12.8618 24.1931 12.8618 24.3231C12.8618 24.4532 12.775 24.5399 12.6447 24.5833H12.6882C12.8184 24.5833 12.9487 24.4532 12.9487 24.3231C12.9487 24.1931 12.8184 24.063 12.6882 24.063Z" fill="#D2302F"/>
<ellipse cx="12.6883" cy="23.4559" rx="0.260546" ry="0.260139" fill="#E53935"/>
<path d="M12.6882 23.1958C12.6447 23.1958 12.6447 23.1958 12.6447 23.1958C12.775 23.2392 12.8618 23.3259 12.8618 23.4559C12.8618 23.586 12.775 23.6727 12.6447 23.7161H12.6882C12.8184 23.7161 12.9487 23.586 12.9487 23.4559C12.9487 23.2825 12.8184 23.1958 12.6882 23.1958Z" fill="#D2302F"/>
<ellipse cx="12.1238" cy="23.8895" rx="0.260546" ry="0.26014" fill="#E84639"/>
<path d="M12.1236 23.6294C12.0802 23.6294 12.0802 23.6294 12.0368 23.6294C12.167 23.6728 12.2539 23.7595 12.2539 23.8895C12.2539 24.0196 12.167 24.1063 12.0368 24.1497C12.0368 24.1497 12.0802 24.1497 12.1236 24.1497C12.2539 24.1497 12.3842 24.0196 12.3842 23.8895C12.4276 23.7161 12.2973 23.6294 12.1236 23.6294Z" fill="#E53935"/>
<ellipse cx="13.2093" cy="23.8895" rx="0.260546" ry="0.26014" fill="#E84639"/>
<path d="M13.2094 23.6294C13.166 23.6294 13.166 23.6294 13.1225 23.6294C13.2528 23.6728 13.3396 23.7595 13.3396 23.8895C13.3396 24.0196 13.2528 24.1063 13.1225 24.1497C13.1225 24.1497 13.166 24.1497 13.2094 24.1497C13.3396 24.1497 13.4699 24.0196 13.4699 23.8895C13.4699 23.7161 13.3396 23.6294 13.2094 23.6294Z" fill="#E53935"/>
<ellipse cx="12.6882" cy="23.846" rx="0.30397" ry="0.303496" fill="#E84639"/>
<path d="M12.6884 23.5425H12.645C12.8187 23.5858 12.9055 23.7159 12.9055 23.846C12.9055 23.976 12.7753 24.1495 12.645 24.1495H12.6884C12.8621 24.1495 12.9924 24.0194 12.9924 23.846C12.9924 23.6726 12.8621 23.5425 12.6884 23.5425Z" fill="#E53935"/>
<path d="M14.252 23.2391H14.1217V22.8056C14.1217 22.7622 14.1651 22.7622 14.1651 22.7622C14.2086 22.7622 14.2086 22.8056 14.2086 22.8056L14.252 23.2391Z" fill="#4FA544"/>
<path d="M14.4253 23.0222C14.3819 23.0222 14.4253 23.0222 14.4253 23.0222C14.3819 22.9788 14.3819 22.9355 14.3384 22.9355C14.295 22.9355 14.2082 22.9788 14.2082 23.0222H14.1647C14.1213 22.9355 14.0779 22.8921 14.0345 22.9355C13.991 22.9355 13.991 22.9788 13.991 23.0222C13.991 23.0222 13.991 23.0222 13.9476 23.0222C13.8608 22.9788 13.7739 22.9355 13.7739 23.0655C13.7739 23.2823 13.9476 23.4124 14.1647 23.4124C14.3819 23.4124 14.5556 23.239 14.5556 23.0655C14.599 22.9355 14.5121 22.9788 14.4253 23.0222Z" fill="#6FB757"/>
<path d="M14.469 23.0222V23.0656C14.469 23.239 14.2953 23.4125 14.1216 23.4125H14.165C14.3821 23.4125 14.5558 23.239 14.5558 23.0656C14.5992 22.9789 14.5558 22.9789 14.469 23.0222Z" fill="#61B351"/>
<ellipse cx="13.7742" cy="24.2362" rx="0.260546" ry="0.26014" fill="#E84639"/>
<ellipse cx="14.556" cy="24.2362" rx="0.260546" ry="0.26014" fill="#E53935"/>
<path d="M14.5558 23.9761C14.5124 23.9761 14.5124 23.9761 14.5124 23.9761C14.6427 24.0194 14.7295 24.1061 14.7295 24.2362C14.7295 24.3663 14.6427 24.453 14.5124 24.4964H14.5558C14.6861 24.4964 14.8164 24.3663 14.8164 24.2362C14.8164 24.1061 14.7295 23.9761 14.5558 23.9761Z" fill="#D2302F"/>
<ellipse cx="14.556" cy="23.5429" rx="0.260546" ry="0.26014" fill="#E53935"/>
<path d="M14.5558 23.2393C14.5124 23.2393 14.5124 23.2393 14.5124 23.2393C14.6427 23.2826 14.7295 23.3693 14.7295 23.4994C14.7295 23.6295 14.6427 23.7162 14.5124 23.7595H14.5558C14.6861 23.7595 14.8164 23.6295 14.8164 23.4994C14.8164 23.3693 14.7295 23.2393 14.5558 23.2393Z" fill="#D2302F"/>
<ellipse cx="13.7742" cy="23.5429" rx="0.260546" ry="0.26014" fill="#E84639"/>
<ellipse cx="14.1648" cy="24.3231" rx="0.260546" ry="0.260139" fill="#E53935"/>
<path d="M14.1647 24.063C14.1213 24.063 14.1213 24.063 14.1213 24.063C14.2516 24.1063 14.3384 24.1931 14.3384 24.3231C14.3384 24.4532 14.2516 24.5399 14.1213 24.5833H14.1647C14.295 24.5833 14.4253 24.4532 14.4253 24.3231C14.4253 24.1931 14.3384 24.063 14.1647 24.063Z" fill="#D2302F"/>
<ellipse cx="14.1648" cy="23.4559" rx="0.260546" ry="0.260139" fill="#E53935"/>
<path d="M14.1647 23.1958C14.1213 23.1958 14.1213 23.1958 14.1213 23.1958C14.2516 23.2392 14.3384 23.3259 14.3384 23.4559C14.3384 23.586 14.2516 23.6727 14.1213 23.7161H14.1647C14.295 23.7161 14.4253 23.586 14.4253 23.4559C14.4253 23.2825 14.3384 23.1958 14.1647 23.1958Z" fill="#D2302F"/>
<ellipse cx="13.6438" cy="23.8895" rx="0.260546" ry="0.26014" fill="#E84639"/>
<path d="M13.6439 23.6294C13.6005 23.6294 13.6005 23.6294 13.5571 23.6294C13.6874 23.6728 13.7742 23.7595 13.7742 23.8895C13.7742 24.0196 13.6874 24.1063 13.5571 24.1497C13.5571 24.1497 13.6005 24.1497 13.6439 24.1497C13.7742 24.1497 13.9045 24.0196 13.9045 23.8895C13.9045 23.7161 13.8176 23.6294 13.6439 23.6294Z" fill="#E53935"/>
<ellipse cx="14.6858" cy="23.8895" rx="0.260546" ry="0.26014" fill="#E84639"/>
<path d="M14.6861 23.6294C14.6427 23.6294 14.6427 23.6294 14.5993 23.6294C14.7295 23.6728 14.8164 23.7595 14.8164 23.8895C14.8164 24.0196 14.7295 24.1063 14.5993 24.1497C14.5993 24.1497 14.6427 24.1497 14.6861 24.1497C14.8164 24.1497 14.9467 24.0196 14.9467 23.8895C14.9901 23.7161 14.8598 23.6294 14.6861 23.6294Z" fill="#E53935"/>
<ellipse cx="14.1648" cy="23.846" rx="0.30397" ry="0.303496" fill="#E84639"/>
<path d="M14.165 23.5425H14.1215C14.2952 23.5858 14.3821 23.7159 14.3821 23.846C14.3821 23.976 14.2518 24.1495 14.1215 24.1495H14.165C14.3387 24.1495 14.4689 24.0194 14.4689 23.846C14.4689 23.6726 14.3387 23.5425 14.165 23.5425Z" fill="#E53935"/>
<path d="M15.7285 23.2391H15.5983V22.8056C15.5983 22.7622 15.6417 22.7622 15.6417 22.7622C15.6851 22.7622 15.6851 22.8056 15.6851 22.8056L15.7285 23.2391Z" fill="#4FA544"/>
<path d="M15.9453 23.0222C15.9019 23.0222 15.9019 23.0222 15.9453 23.0222C15.9019 22.9788 15.9019 22.9355 15.8585 22.9355C15.815 22.9355 15.7282 22.9788 15.7282 23.0222H15.6848C15.6413 22.9355 15.5979 22.8921 15.5545 22.9355C15.5111 22.9355 15.5111 22.9788 15.5111 23.0222C15.5111 23.0222 15.5111 23.0222 15.4676 23.0222C15.3808 22.9788 15.2939 22.9355 15.2939 23.0655C15.2939 23.2823 15.4676 23.4124 15.6848 23.4124C15.9019 23.4124 16.0756 23.239 16.0756 23.0655C16.119 22.9355 16.0322 22.9788 15.9453 23.0222Z" fill="#6FB757"/>
<path d="M15.989 23.0222V23.0656C15.989 23.239 15.8153 23.4125 15.6416 23.4125H15.685C15.9021 23.4125 16.0758 23.239 16.0758 23.0656C16.1193 22.9789 16.0324 22.9789 15.989 23.0222Z" fill="#61B351"/>
<ellipse cx="15.2942" cy="24.2362" rx="0.260546" ry="0.26014" fill="#E84639"/>
<ellipse cx="16.076" cy="24.2362" rx="0.260545" ry="0.26014" fill="#E53935"/>
<path d="M16.0758 23.9761C16.0324 23.9761 16.0324 23.9761 16.0324 23.9761C16.1627 24.0194 16.2495 24.1061 16.2495 24.2362C16.2495 24.3663 16.1627 24.453 16.0324 24.4964H16.0758C16.2061 24.4964 16.3364 24.3663 16.3364 24.2362C16.3364 24.1061 16.2061 23.9761 16.0758 23.9761Z" fill="#D2302F"/>
<ellipse cx="16.076" cy="23.5429" rx="0.260545" ry="0.26014" fill="#E53935"/>
<path d="M16.0758 23.2393C16.0324 23.2393 16.0324 23.2393 16.0324 23.2393C16.1627 23.2826 16.2495 23.3693 16.2495 23.4994C16.2495 23.6295 16.1627 23.7162 16.0324 23.7595H16.0758C16.2061 23.7595 16.3364 23.6295 16.3364 23.4994C16.3364 23.3693 16.2061 23.2393 16.0758 23.2393Z" fill="#D2302F"/>
<ellipse cx="15.2942" cy="23.5429" rx="0.260546" ry="0.26014" fill="#E84639"/>
<ellipse cx="15.6849" cy="24.3231" rx="0.260546" ry="0.260139" fill="#E53935"/>
<path d="M15.6847 24.063C15.6413 24.063 15.6413 24.063 15.6413 24.063C15.7716 24.1063 15.8584 24.1931 15.8584 24.3231C15.8584 24.4532 15.7716 24.5399 15.6413 24.5833H15.6847C15.815 24.5833 15.9453 24.4532 15.9453 24.3231C15.9453 24.1931 15.815 24.063 15.6847 24.063Z" fill="#D2302F"/>
<ellipse cx="15.6849" cy="23.4559" rx="0.260546" ry="0.260139" fill="#E53935"/>
<path d="M15.6847 23.1958C15.6413 23.1958 15.6413 23.1958 15.6413 23.1958C15.7716 23.2392 15.8584 23.3259 15.8584 23.4559C15.8584 23.586 15.7716 23.6727 15.6413 23.7161H15.6847C15.815 23.7161 15.9453 23.586 15.9453 23.4559C15.9453 23.2825 15.815 23.1958 15.6847 23.1958Z" fill="#D2302F"/>
<ellipse cx="15.1639" cy="23.8895" rx="0.260546" ry="0.26014" fill="#E84639"/>
<path d="M15.164 23.6294C15.1205 23.6294 15.1205 23.6294 15.0771 23.6294C15.2074 23.6728 15.2942 23.7595 15.2942 23.8895C15.2942 24.0196 15.2074 24.1063 15.0771 24.1497C15.0771 24.1497 15.1205 24.1497 15.164 24.1497C15.2942 24.1497 15.4245 24.0196 15.4245 23.8895C15.4245 23.7161 15.2942 23.6294 15.164 23.6294Z" fill="#E53935"/>
<ellipse cx="16.2059" cy="23.8895" rx="0.260546" ry="0.26014" fill="#E84639"/>
<path d="M16.206 23.6294C16.1625 23.6294 16.1625 23.6294 16.1191 23.6294C16.2494 23.6728 16.3362 23.7595 16.3362 23.8895C16.3362 24.0196 16.2494 24.1063 16.1191 24.1497C16.1191 24.1497 16.1625 24.1497 16.206 24.1497C16.3362 24.1497 16.4665 24.0196 16.4665 23.8895C16.4665 23.7161 16.3797 23.6294 16.206 23.6294Z" fill="#E53935"/>
<ellipse cx="15.6848" cy="23.846" rx="0.30397" ry="0.303496" fill="#E84639"/>
<path d="M15.685 23.5425H15.6416C15.8153 23.5858 15.9021 23.7159 15.9021 23.846C15.9021 23.976 15.7718 24.1495 15.6416 24.1495H15.685C15.8587 24.1495 15.989 24.0194 15.989 23.846C15.989 23.6726 15.8587 23.5425 15.685 23.5425Z" fill="#E53935"/>
<path d="M10.8647 21.548L10.7344 21.5914L10.5607 21.0711C10.5607 21.0277 10.5607 20.9844 10.6042 20.9844C10.6476 20.9844 10.691 20.9844 10.691 21.0277L10.8647 21.548Z" fill="#4FA544"/>
<path d="M10.9951 21.201C10.9517 21.1576 10.9082 21.1143 10.8648 21.1143C10.778 21.1143 10.7345 21.201 10.7345 21.2877C10.7345 21.2877 10.6911 21.3311 10.6911 21.2877C10.6043 21.201 10.5174 21.201 10.474 21.2443C10.4306 21.2877 10.4306 21.3311 10.4306 21.3744C10.4306 21.3744 10.4306 21.4178 10.3871 21.4178C10.2569 21.4178 10.17 21.3744 10.2134 21.5045C10.3003 21.7213 10.6043 21.8513 10.8648 21.7646C11.1254 21.6779 11.2991 21.4178 11.2122 21.1576C11.1688 21.0276 11.0819 21.1143 10.9951 21.201Z" fill="#6FB757"/>
<path d="M11.0384 21.1578L11.0818 21.2012C11.1687 21.4179 11.0384 21.6781 10.8213 21.7648C10.8647 21.7648 10.8647 21.7648 10.9081 21.7648C11.1687 21.6781 11.3424 21.4179 11.2555 21.1578C11.1687 21.0711 11.1253 21.0711 11.0384 21.1578Z" fill="#61B351"/>
<ellipse cx="10.7785" cy="22.9296" rx="0.34733" ry="0.34691" transform="rotate(-19.591 10.7785 22.9296)" fill="#E84639"/>
<ellipse cx="11.6877" cy="22.5932" rx="0.34733" ry="0.34691" transform="rotate(-19.591 11.6877 22.5932)" fill="#E53935"/>
<path d="M11.603 22.2849C11.5595 22.2849 11.5595 22.2849 11.5161 22.3283C11.6464 22.3283 11.8201 22.415 11.8635 22.5451C11.9069 22.6751 11.8635 22.8486 11.7332 22.9353C11.7767 22.9353 11.7767 22.9353 11.8201 22.9353C11.9938 22.8919 12.0806 22.6751 12.0372 22.5017C11.9504 22.3283 11.7767 22.1982 11.603 22.2849Z" fill="#D2302F"/>
<ellipse cx="11.381" cy="21.726" rx="0.34733" ry="0.34691" transform="rotate(-19.591 11.381 21.726)" fill="#E53935"/>
<path d="M11.2993 21.4178C11.2558 21.4178 11.2558 21.4178 11.2124 21.4611C11.3427 21.4611 11.5164 21.5479 11.5598 21.6779C11.6032 21.808 11.5598 21.9814 11.4295 22.0681C11.4729 22.0681 11.4729 22.0681 11.5164 22.0681C11.6901 22.0248 11.7769 21.808 11.7335 21.6346C11.6901 21.4611 11.4729 21.3744 11.2993 21.4178Z" fill="#D2302F"/>
<ellipse cx="10.4714" cy="22.0619" rx="0.34733" ry="0.34691" transform="rotate(-19.591 10.4714 22.0619)" fill="#E84639"/>
<ellipse cx="11.2551" cy="22.8509" rx="0.347332" ry="0.346913" transform="rotate(-19.6091 11.2551 22.8509)" fill="#E53935"/>
<path d="M11.1689 22.5454C11.1255 22.5454 11.1255 22.5454 11.082 22.5888C11.2123 22.5888 11.386 22.6755 11.4294 22.8056C11.4728 22.9356 11.4294 23.1091 11.2992 23.1958C11.3426 23.1958 11.3426 23.1958 11.386 23.1958C11.5597 23.1524 11.6465 22.9356 11.6031 22.7622C11.5163 22.5454 11.3426 22.4587 11.1689 22.5454Z" fill="#D2302F"/>
<ellipse cx="10.906" cy="21.8025" rx="0.347332" ry="0.346913" transform="rotate(-19.6091 10.906 21.8025)" fill="#E53935"/>
<path d="M10.7783 21.5044C10.7348 21.5044 10.7348 21.5044 10.6914 21.5478C10.8217 21.5478 10.9954 21.6345 11.0388 21.7646C11.0822 21.8946 11.0388 22.0681 10.9085 22.1548C10.952 22.1548 10.952 22.1548 10.9954 22.1548C11.1691 22.1114 11.2559 21.8946 11.2125 21.7212C11.1256 21.5044 10.952 21.4177 10.7783 21.5044Z" fill="#D2302F"/>
<ellipse cx="0.34733" cy="0.34691" rx="0.34733" ry="0.34691" transform="matrix(0.94211 -0.335303 0.335304 0.94211 9.98535 22.3413)" fill="#E84639"/>
<path d="M10.3437 22.2417C10.3003 22.2417 10.3003 22.2851 10.2568 22.2851C10.4305 22.2851 10.5608 22.3718 10.6042 22.5019C10.6477 22.6319 10.6042 22.8054 10.474 22.8921C10.5174 22.8921 10.5174 22.8921 10.5608 22.8921C10.7345 22.8487 10.8214 22.6319 10.7779 22.4585C10.6911 22.2417 10.5174 22.155 10.3437 22.2417Z" fill="#E53935"/>
<ellipse cx="11.6926" cy="22.1166" rx="0.34733" ry="0.34691" transform="rotate(-19.591 11.6926 22.1166)" fill="#E84639"/>
<path d="M11.603 21.765C11.5595 21.765 11.5595 21.8083 11.5161 21.8083C11.6898 21.8083 11.8201 21.895 11.8635 22.0251C11.9069 22.1552 11.8635 22.3286 11.7332 22.4153C11.7767 22.4153 11.7767 22.4153 11.8201 22.4153C11.9938 22.3719 12.0806 22.1552 12.0372 21.9817C11.9504 21.8083 11.7767 21.7216 11.603 21.765Z" fill="#E53935"/>
<ellipse cx="11.0756" cy="22.2806" rx="0.390746" ry="0.390274" transform="rotate(-19.591 11.0756 22.2806)" fill="#E84639"/>
<path d="M10.9082 21.8946C10.8647 21.8946 10.8647 21.8946 10.8647 21.938C11.0384 21.8946 11.2556 22.0247 11.3424 22.1981C11.4293 22.3716 11.3424 22.5883 11.1687 22.675C11.2121 22.675 11.2121 22.675 11.2556 22.675C11.4727 22.5883 11.5595 22.3716 11.5161 22.1548C11.3858 21.938 11.1253 21.8513 10.9082 21.8946Z" fill="#E53935"/>
<path d="M23.0233 21.1577V20.7675C23.0233 20.7241 23.0667 20.7241 23.0667 20.7241C23.1102 20.7241 23.1102 20.7675 23.1102 20.7675V21.1143H23.0233V21.1577Z" fill="#4FA544"/>
<path d="M22.7192 20.9844C22.7192 21.1578 22.8929 21.2879 23.0666 21.2879C23.2403 21.2879 23.414 21.1578 23.414 20.9844C23.414 20.8977 23.3706 20.8977 23.2838 20.9844C23.2838 20.941 23.2403 20.941 23.2403 20.8977C23.1969 20.8977 23.1535 20.8977 23.1101 20.9844C23.1101 20.9844 23.1101 20.9844 23.0666 20.9844C23.0232 20.941 22.9798 20.8977 22.9364 20.8977C22.8929 20.8977 22.8929 20.941 22.8929 20.9844C22.7627 20.941 22.7192 20.8977 22.7192 20.9844Z" fill="#6FB757"/>
<path d="M22.7195 20.9843C22.7195 21.1577 22.8932 21.2878 23.0669 21.2878H23.1103C22.9366 21.2878 22.8063 21.1577 22.8063 20.9843V20.9409C22.7629 20.8975 22.7195 20.8975 22.7195 20.9843Z" fill="#61B351"/>
<ellipse cx="23.3709" cy="21.9814" rx="0.217121" ry="0.216783" fill="#E84639"/>
<ellipse cx="22.7196" cy="21.9814" rx="0.217121" ry="0.216783" fill="#E53935"/>
<path d="M22.5024 21.9814C22.5024 22.1115 22.5892 22.1982 22.7195 22.1982H22.7629C22.6761 22.1549 22.5892 22.0681 22.5892 21.9814C22.5892 21.8947 22.6761 21.808 22.7629 21.7646H22.7195C22.5892 21.7646 22.5024 21.8514 22.5024 21.9814Z" fill="#D2302F"/>
<ellipse cx="22.7196" cy="21.3745" rx="0.217121" ry="0.216783" fill="#E53935"/>
<path d="M22.7195 21.1577C22.5892 21.1577 22.5024 21.2444 22.5024 21.3745C22.5024 21.5046 22.5892 21.5913 22.7195 21.5913H22.7629C22.6761 21.5479 22.5892 21.4612 22.5892 21.3745C22.5892 21.2878 22.6761 21.2011 22.7629 21.1577C22.7629 21.1577 22.7629 21.1577 22.7195 21.1577Z" fill="#D2302F"/>
<ellipse cx="23.3709" cy="21.3745" rx="0.217121" ry="0.216783" fill="#E84639"/>
<ellipse cx="23.0667" cy="22.0683" rx="0.217121" ry="0.216783" fill="#E53935"/>
<path d="M23.0667 21.8516C22.9364 21.8516 22.8495 21.9383 22.8495 22.0683C22.8495 22.1984 22.9364 22.2851 23.0667 22.2851H23.1101C23.0232 22.2418 22.9364 22.1551 22.9364 22.0683C22.9364 21.9816 23.0232 21.8949 23.1101 21.8516H23.0667Z" fill="#D2302F"/>
<ellipse cx="23.0667" cy="21.331" rx="0.217121" ry="0.216784" fill="#E53935"/>
<path d="M23.0667 21.1143C22.9364 21.1143 22.8495 21.201 22.8495 21.331C22.8495 21.4611 22.9364 21.5478 23.0667 21.5478H23.1101C23.0232 21.5045 22.9364 21.4178 22.9364 21.331C22.9364 21.2443 23.0232 21.1576 23.1101 21.1143H23.0667Z" fill="#D2302F"/>
<ellipse cx="23.5013" cy="21.6782" rx="0.217122" ry="0.216784" fill="#E84639"/>
<path d="M23.5012 21.4614C23.371 21.4614 23.2841 21.5481 23.2841 21.6782C23.2841 21.8083 23.371 21.895 23.5012 21.895H23.5447C23.4578 21.8516 23.371 21.7649 23.371 21.6782C23.371 21.5915 23.4578 21.4614 23.5447 21.4614H23.5012Z" fill="#E53935"/>
<ellipse cx="22.6326" cy="21.6782" rx="0.217122" ry="0.216784" fill="#E84639"/>
<path d="M22.6326 21.4614C22.5023 21.4614 22.4155 21.5481 22.4155 21.6782C22.4155 21.8083 22.5023 21.895 22.6326 21.895H22.676C22.5892 21.8516 22.5023 21.7649 22.5023 21.6782C22.5023 21.5915 22.5892 21.4614 22.676 21.4614C22.6326 21.4614 22.6326 21.4614 22.6326 21.4614Z" fill="#E53935"/>
<ellipse cx="23.0667" cy="21.6781" rx="0.260546" ry="0.260139" fill="#E84639"/>
<path d="M23.0669 21.3745C22.9366 21.3745 22.8063 21.5046 22.8063 21.6347C22.8063 21.7647 22.9366 21.8948 23.0669 21.8948H23.1103C22.98 21.8514 22.8932 21.7647 22.8932 21.6347C22.8932 21.5046 22.98 21.3745 23.1103 21.3745H23.0669Z" fill="#E53935"/>
<path d="M20.0272 22.5887V22.1552C20.0272 22.1118 20.0706 22.1118 20.0706 22.1118C20.1141 22.1118 20.1141 22.1552 20.1141 22.1552V22.5887H20.0272Z" fill="#4FA544"/>
<path d="M19.6797 22.4151C19.6797 22.6319 19.8534 22.762 20.0705 22.762C20.2876 22.762 20.4613 22.5886 20.4613 22.4151C20.4613 22.2851 20.3745 22.3284 20.2876 22.3718H20.2442C20.2442 22.3284 20.2008 22.2851 20.2008 22.2851C20.1574 22.2851 20.0705 22.3284 20.0705 22.3718H20.0271C19.9837 22.2851 19.9402 22.2417 19.8968 22.2851C19.8534 22.2851 19.8534 22.3284 19.8534 22.3718C19.8534 22.3718 19.8534 22.3718 19.81 22.3718C19.7665 22.3284 19.6797 22.3284 19.6797 22.4151Z" fill="#6FB757"/>
<path d="M19.6797 22.4152C19.6797 22.632 19.8534 22.7621 20.0705 22.7621H20.1139C19.8968 22.7187 19.7665 22.5886 19.7665 22.4152C19.7665 22.3719 19.7665 22.3719 19.7665 22.3719C19.7231 22.3285 19.6797 22.3285 19.6797 22.4152Z" fill="#61B351"/>
<ellipse cx="20.5052" cy="23.6293" rx="0.260546" ry="0.260139" fill="#E84639"/>
<ellipse cx="19.7234" cy="23.6293" rx="0.260546" ry="0.260139" fill="#E53935"/>
<path d="M19.4626 23.6293C19.4626 23.7593 19.5929 23.8894 19.7231 23.8894C19.7666 23.8894 19.7666 23.8894 19.7666 23.8894C19.6363 23.8461 19.5494 23.7593 19.5494 23.6293C19.5494 23.4992 19.6363 23.4125 19.7666 23.3691H19.7231C19.5494 23.3691 19.4626 23.4559 19.4626 23.6293Z" fill="#D2302F"/>
<ellipse cx="19.7234" cy="22.8925" rx="0.260546" ry="0.260139" fill="#E53935"/>
<path d="M19.7231 22.6323C19.5929 22.6323 19.4626 22.7624 19.4626 22.8925C19.4626 23.0225 19.5929 23.1526 19.7231 23.1526C19.7666 23.1526 19.7666 23.1526 19.7666 23.1526C19.6363 23.1092 19.5494 23.0225 19.5494 22.8925C19.5494 22.7624 19.6363 22.6757 19.7666 22.6323H19.7231Z" fill="#D2302F"/>
<ellipse cx="20.5052" cy="22.8925" rx="0.260546" ry="0.260139" fill="#E84639"/>
<ellipse cx="20.1141" cy="23.6727" rx="0.260547" ry="0.26014" fill="#E53935"/>
<path d="M20.1143 23.4126C19.984 23.4126 19.8537 23.5427 19.8537 23.6727C19.8537 23.8028 19.984 23.9329 20.1143 23.9329C20.1577 23.9329 20.1577 23.9329 20.1577 23.9329C20.0274 23.8895 19.9406 23.8028 19.9406 23.6727C19.9406 23.5427 20.0274 23.456 20.1577 23.4126H20.1143Z" fill="#D2302F"/>
<ellipse cx="20.1141" cy="22.8055" rx="0.260547" ry="0.260139" fill="#E53935"/>
<path d="M20.1143 22.5454C19.984 22.5454 19.8537 22.6755 19.8537 22.8055C19.8537 22.9356 19.984 23.0657 20.1143 23.0657C20.1577 23.0657 20.1577 23.0657 20.1577 23.0657C20.0274 23.0223 19.9406 22.9356 19.9406 22.8055C19.9406 22.6755 20.0274 22.5888 20.1577 22.5454H20.1143Z" fill="#D2302F"/>
<ellipse cx="20.6351" cy="23.2391" rx="0.260546" ry="0.26014" fill="#E84639"/>
<path d="M20.635 22.979C20.5048 22.979 20.3745 23.1091 20.3745 23.2391C20.3745 23.3692 20.5048 23.4993 20.635 23.4993C20.6784 23.4993 20.6784 23.4993 20.7219 23.4993C20.5916 23.4559 20.5048 23.3692 20.5048 23.2391C20.5048 23.1091 20.5916 23.0224 20.7219 22.979C20.6784 22.979 20.635 22.979 20.635 22.979Z" fill="#E53935"/>
<ellipse cx="19.5931" cy="23.2391" rx="0.260546" ry="0.26014" fill="#E84639"/>
<path d="M19.593 22.979C19.4628 22.979 19.3325 23.1091 19.3325 23.2391C19.3325 23.3692 19.4628 23.4993 19.593 23.4993C19.6365 23.4993 19.6365 23.4993 19.6799 23.4993C19.5496 23.4559 19.4628 23.3692 19.4628 23.2391C19.4628 23.1091 19.5496 23.0224 19.6799 22.979C19.6365 22.979 19.593 22.979 19.593 22.979Z" fill="#E53935"/>
<ellipse cx="20.114" cy="23.239" rx="0.30397" ry="0.303496" fill="#E84639"/>
<path d="M20.114 22.8921C19.9403 22.8921 19.81 23.0222 19.81 23.1956C19.81 23.369 19.9403 23.4991 20.114 23.4991H20.1574C19.9837 23.4557 19.8969 23.3257 19.8969 23.1956C19.8969 23.0222 20.0271 22.8921 20.1574 22.8921H20.114Z" fill="#E53935"/>
<path d="M18.5507 22.5887V22.1552C18.5507 22.1118 18.5941 22.1118 18.5941 22.1118C18.6375 22.1118 18.6375 22.1552 18.6375 22.1552V22.5887H18.5507Z" fill="#4FA544"/>
<path d="M18.1597 22.4151C18.1597 22.6319 18.3334 22.762 18.5505 22.762C18.7676 22.762 18.9413 22.5886 18.9413 22.4151C18.9413 22.2851 18.8545 22.3284 18.7676 22.3718H18.7242C18.7242 22.3284 18.6808 22.2851 18.6808 22.2851C18.6373 22.2851 18.5505 22.3284 18.5505 22.3718H18.5071C18.4636 22.2851 18.4202 22.2417 18.3768 22.2851C18.3334 22.2851 18.3334 22.3284 18.3334 22.3718C18.3334 22.3718 18.3334 22.3718 18.2899 22.3718C18.2465 22.3284 18.1597 22.3284 18.1597 22.4151Z" fill="#6FB757"/>
<path d="M18.1597 22.4152C18.1597 22.632 18.3334 22.7621 18.5505 22.7621H18.5939C18.3768 22.7187 18.2465 22.5886 18.2465 22.4152C18.2465 22.3719 18.2465 22.3719 18.2465 22.3719C18.2465 22.3285 18.1597 22.3285 18.1597 22.4152Z" fill="#61B351"/>
<ellipse cx="18.9852" cy="23.6293" rx="0.260546" ry="0.260139" fill="#E84639"/>
<ellipse cx="18.2034" cy="23.6293" rx="0.260546" ry="0.260139" fill="#E53935"/>
<path d="M17.9426 23.6293C17.9426 23.7593 18.0729 23.8894 18.2031 23.8894C18.2465 23.8894 18.2465 23.8894 18.2465 23.8894C18.1163 23.8461 18.0294 23.7593 18.0294 23.6293C18.0294 23.4992 18.1163 23.4125 18.2465 23.3691H18.2031C18.0294 23.3691 17.9426 23.4559 17.9426 23.6293Z" fill="#D2302F"/>
<ellipse cx="18.2034" cy="22.8925" rx="0.260546" ry="0.260139" fill="#E53935"/>
<path d="M18.2031 22.6323C18.0729 22.6323 17.9426 22.7624 17.9426 22.8925C17.9426 23.0225 18.0729 23.1526 18.2031 23.1526C18.2465 23.1526 18.2465 23.1526 18.2465 23.1526C18.1163 23.1092 18.0294 23.0225 18.0294 22.8925C18.0294 22.7624 18.1163 22.6757 18.2465 22.6323H18.2031Z" fill="#D2302F"/>
<ellipse cx="18.9852" cy="22.8925" rx="0.260546" ry="0.260139" fill="#E84639"/>
<ellipse cx="18.594" cy="23.6727" rx="0.260546" ry="0.26014" fill="#E53935"/>
<path d="M18.5942 23.4126C18.464 23.4126 18.3337 23.5427 18.3337 23.6727C18.3337 23.8028 18.464 23.9329 18.5942 23.9329C18.6377 23.9329 18.6377 23.9329 18.6377 23.9329C18.5074 23.8895 18.4205 23.8028 18.4205 23.6727C18.4205 23.5427 18.5074 23.456 18.6377 23.4126H18.5942Z" fill="#D2302F"/>
<ellipse cx="18.594" cy="22.8055" rx="0.260546" ry="0.260139" fill="#E53935"/>
<path d="M18.5942 22.5454C18.464 22.5454 18.3337 22.6755 18.3337 22.8055C18.3337 22.9356 18.464 23.0657 18.5942 23.0657C18.6377 23.0657 18.6377 23.0657 18.6377 23.0657C18.5074 23.0223 18.4205 22.9356 18.4205 22.8055C18.4205 22.6755 18.5074 22.5888 18.6377 22.5454H18.5942Z" fill="#D2302F"/>
<ellipse cx="19.115" cy="23.2391" rx="0.260547" ry="0.26014" fill="#E84639"/>
<path d="M19.115 22.979C18.9847 22.979 18.8545 23.1091 18.8545 23.2391C18.8545 23.3692 18.9847 23.4993 19.115 23.4993C19.1584 23.4993 19.1584 23.4993 19.2019 23.4993C19.0716 23.4559 18.9847 23.3692 18.9847 23.2391C18.9847 23.1091 19.0716 23.0224 19.2019 22.979C19.1584 22.979 19.1584 22.979 19.115 22.979Z" fill="#E53935"/>
<ellipse cx="18.073" cy="23.2391" rx="0.260546" ry="0.26014" fill="#E84639"/>
<path d="M18.073 22.979C17.9427 22.979 17.8125 23.1091 17.8125 23.2391C17.8125 23.3692 17.9427 23.4993 18.073 23.4993C18.1164 23.4993 18.1164 23.4993 18.1599 23.4993C18.0296 23.4559 17.9427 23.3692 17.9427 23.2391C17.9427 23.1091 18.0296 23.0224 18.1599 22.979C18.1164 22.979 18.073 22.979 18.073 22.979Z" fill="#E53935"/>
<ellipse cx="18.594" cy="23.239" rx="0.30397" ry="0.303496" fill="#E84639"/>
<path d="M18.594 22.8921C18.4203 22.8921 18.29 23.0222 18.29 23.1956C18.29 23.369 18.4203 23.4991 18.594 23.4991H18.6374C18.4637 23.4557 18.3769 23.3257 18.3769 23.1956C18.3769 23.0222 18.5071 22.8921 18.6374 22.8921H18.594Z" fill="#E53935"/>
<path d="M22.112 21.3746L22.2423 21.0277C22.2423 20.9844 22.2857 20.9844 22.2857 20.9844C22.3291 20.9844 22.3291 21.0277 22.3291 21.0277L22.1988 21.4179L22.112 21.3746Z" fill="#4FA544"/>
<path d="M21.8949 21.1145C21.8514 21.2879 21.9383 21.4614 22.112 21.5047C22.2857 21.5481 22.5028 21.5047 22.5462 21.3313C22.5896 21.2446 22.5028 21.2446 22.4159 21.2446C22.4159 21.2012 22.4159 21.2012 22.3725 21.1579C22.3291 21.1145 22.2857 21.1579 22.2423 21.2012H22.1988C22.1988 21.1579 22.1554 21.0712 22.112 21.0712C22.0686 21.0712 22.0686 21.0712 22.0251 21.1145C22.0251 21.1145 22.0251 21.1145 21.9817 21.1145C21.9383 21.0712 21.8949 21.0278 21.8949 21.1145Z" fill="#6FB757"/>
<path d="M21.8946 21.1146C21.8512 21.2881 21.9381 21.4615 22.1117 21.5049H22.1552C21.9815 21.4181 21.9381 21.2447 21.9815 21.1146V21.0713C21.9381 21.0713 21.8946 21.0713 21.8946 21.1146Z" fill="#61B351"/>
<circle cx="22.1666" cy="22.2803" r="0.21875" transform="rotate(-70.409 22.1666 22.2803)" fill="#E84639"/>
<circle cx="21.5363" cy="22.0797" r="0.21875" transform="rotate(-70.409 21.5363 22.0797)" fill="#E53935"/>
<path d="M21.3301 22.0247C21.2867 22.1548 21.3301 22.2849 21.4604 22.3282H21.5038C21.417 22.2849 21.3735 22.1548 21.417 22.0681C21.4604 21.9814 21.5472 21.8947 21.6341 21.938C21.6341 21.938 21.5907 21.938 21.5907 21.8947C21.5038 21.8513 21.3735 21.8947 21.3301 22.0247Z" fill="#D2302F"/>
<circle cx="21.755" cy="21.4976" r="0.21875" transform="rotate(-70.409 21.755 21.4976)" fill="#E53935"/>
<path d="M21.8514 21.2877C21.7211 21.2444 21.5908 21.2877 21.5474 21.4178C21.504 21.5479 21.5474 21.678 21.6777 21.7213H21.7211C21.6342 21.678 21.5908 21.5479 21.6342 21.4612C21.6777 21.3745 21.7645 21.2877 21.8514 21.3311V21.2877Z" fill="#D2302F"/>
<circle cx="22.3703" cy="21.7388" r="0.21875" transform="rotate(-70.409 22.3703 21.7388)" fill="#E84639"/>
<circle cx="21.8341" cy="22.2423" r="0.21875" transform="rotate(-70.409 21.8341 22.2423)" fill="#E53935"/>
<path d="M21.9383 22.025C21.808 21.9817 21.6777 22.025 21.6343 22.1551C21.5909 22.2852 21.6343 22.4153 21.7646 22.4586H21.808C21.7212 22.4153 21.6777 22.2852 21.7212 22.1985C21.7646 22.1118 21.8514 22.025 21.9383 22.0684C21.9383 22.0684 21.9383 22.0684 21.9383 22.025Z" fill="#D2302F"/>
<circle cx="22.087" cy="21.5376" r="0.21875" transform="rotate(-70.4144 22.087 21.5376)" fill="#E53935"/>
<path d="M22.1554 21.3312C22.0251 21.2878 21.8949 21.3312 21.8514 21.4613C21.808 21.5913 21.8514 21.7214 21.9817 21.7648H22.0251C21.9383 21.7214 21.8949 21.5913 21.9383 21.5046C21.9817 21.4179 22.0685 21.3312 22.1554 21.3746C22.1988 21.3746 22.1988 21.3746 22.1554 21.3312Z" fill="#D2302F"/>
<circle cx="22.3995" cy="22.0737" r="0.21875" transform="rotate(-70.4217 22.3995 22.0737)" fill="#E84639"/>
<path d="M22.4591 21.8517C22.3288 21.8084 22.1986 21.8517 22.1551 21.9818C22.1117 22.1118 22.1551 22.2419 22.2854 22.2853H22.3288C22.242 22.2419 22.1986 22.1118 22.242 22.0251C22.2854 21.9384 22.3723 21.8517 22.4591 21.8951C22.5025 21.8517 22.5025 21.8517 22.4591 21.8517Z" fill="#E53935"/>
<ellipse cx="0.218751" cy="0.21875" rx="0.218751" ry="0.21875" transform="matrix(0.335093 -0.942185 0.942184 0.335095 21.2803 21.8926)" fill="#E84639"/>
<path d="M21.6342 21.548C21.5039 21.5046 21.3737 21.548 21.3302 21.6781C21.2868 21.8081 21.3302 21.9382 21.4605 21.9816H21.5039C21.4171 21.9382 21.3737 21.8081 21.4171 21.7214C21.4605 21.6347 21.5474 21.548 21.6342 21.5914C21.6776 21.548 21.6342 21.548 21.6342 21.548Z" fill="#E53935"/>
<ellipse cx="21.9879" cy="21.8813" rx="0.260183" ry="0.260498" transform="rotate(-70.409 21.9879 21.8813)" fill="#E84639"/>
<path d="M22.0685 21.6348C21.9382 21.5915 21.7645 21.6782 21.7211 21.8082C21.6776 21.9383 21.7645 22.1117 21.8948 22.1551H21.9382C21.8079 22.1117 21.7645 21.9383 21.8079 21.8082C21.8513 21.6782 21.9816 21.6348 22.0685 21.6348C22.1119 21.6348 22.0685 21.6348 22.0685 21.6348Z" fill="#E53935"/>
<path d="M21.9381 23.7589C21.7644 23.8023 21.5907 23.6722 21.5472 23.4988L21.3735 22.675L22.0249 22.5449L22.1986 23.3687C22.1986 23.5421 22.1117 23.7156 21.9381 23.7589Z" fill="#E0C07C"/>
<path d="M22.0247 22.5449L22.1984 23.3687C22.2418 23.5421 22.1115 23.7156 21.9378 23.7589L21.7207 22.6316L22.0247 22.5449Z" fill="#D7B36B"/>
<path d="M21.026 19.1198C20.5483 19.2065 20.2443 19.6835 20.3312 20.1604L20.8089 22.6751C20.8089 22.7618 20.8957 22.8051 20.9826 22.8051L22.459 22.5016C22.5458 22.5016 22.5893 22.4149 22.5893 22.3282L22.1116 19.8135C21.9813 19.38 21.5037 19.0331 21.026 19.1198Z" fill="#DF0820"/>
<path d="M20.9394 20.1603C20.8525 20.1603 20.8091 20.247 20.8091 20.3337L21.1565 22.068C21.1565 22.1547 21.2433 22.1981 21.3302 22.1981C21.417 22.1981 21.4604 22.1114 21.4604 22.0246L21.1131 20.2904C21.1131 20.1603 21.0262 20.1169 20.9394 20.1603Z" fill="#AB1E20"/>
<path d="M21.5038 20.0303C21.417 20.0303 21.3735 20.117 21.3735 20.2037L21.7209 21.938C21.7209 22.0247 21.8078 22.068 21.8946 22.068C21.9815 22.068 22.0249 21.9813 22.0249 21.8946L21.6775 20.1603C21.6341 20.0736 21.5472 20.0303 21.5038 20.0303Z" fill="#AB1E20"/>
<path d="M20.6352 20.1176C20.5918 20.1176 20.5918 20.1176 20.5918 20.0743C20.5484 19.8141 20.6352 19.5974 20.8524 19.4673H20.8958L20.9392 19.5106C20.9392 19.5106 20.9392 19.554 20.8958 19.554C20.7221 19.6841 20.6352 19.8575 20.6787 20.0743C20.6787 20.0743 20.6787 20.0743 20.6352 20.1176Z" fill="white"/>
<ellipse cx="21.0258" cy="19.4237" rx="0.0434246" ry="0.0433559" fill="white"/>
<path d="M7.4257 12.2592C7.45001 12.2998 7.49004 12.3295 7.53698 12.3416C7.58393 12.3538 7.63396 12.3475 7.67608 12.3241L8.00819 12.1391V12.509C8.00819 12.5559 8.02752 12.6009 8.06192 12.6341C8.09632 12.6672 8.14297 12.6859 8.19162 12.6859C8.24026 12.6859 8.28692 12.6672 8.32132 12.6341C8.35572 12.6009 8.37504 12.5559 8.37504 12.509V11.9348L8.7989 11.6988L9.22266 11.9348V12.4068L8.70712 12.6938C8.66498 12.7173 8.63423 12.7559 8.62163 12.8012C8.60904 12.8466 8.61562 12.8949 8.63995 12.9355C8.66427 12.9762 8.70434 13.0058 8.75133 13.018C8.79833 13.0302 8.84841 13.0238 8.89054 13.0003L9.22266 12.8154V13.1852C9.22266 13.2321 9.24198 13.2771 9.27638 13.3103C9.31078 13.3435 9.35744 13.3621 9.40608 13.3621C9.45473 13.3621 9.50139 13.3435 9.53579 13.3103C9.57019 13.2771 9.58951 13.2321 9.58951 13.1852V12.8154L9.92162 13.0003C9.94249 13.0119 9.96552 13.0195 9.98941 13.0225C10.0133 13.0256 10.0376 13.024 10.0608 13.018C10.0841 13.012 10.1059 13.0016 10.125 12.9874C10.1441 12.9733 10.1602 12.9557 10.1722 12.9355C10.1843 12.9154 10.1921 12.8932 10.1952 12.8701C10.1984 12.8471 10.1968 12.8237 10.1905 12.8012C10.1843 12.7788 10.1735 12.7578 10.1589 12.7393C10.1442 12.7209 10.1259 12.7054 10.105 12.6938L9.58951 12.4068V11.9348L10.0133 11.6988L10.4372 11.9348V12.509C10.4372 12.5559 10.4565 12.6009 10.4909 12.6341C10.5253 12.6672 10.5719 12.6859 10.6206 12.6859C10.6692 12.6859 10.7159 12.6672 10.7503 12.6341C10.7847 12.6009 10.804 12.5559 10.804 12.509V12.1391L11.1361 12.3241C11.157 12.3357 11.18 12.3432 11.2039 12.3463C11.2278 12.3493 11.2521 12.3478 11.2753 12.3417C11.2986 12.3357 11.3204 12.3253 11.3395 12.3112C11.3586 12.297 11.3747 12.2794 11.3867 12.2593C11.3988 12.2392 11.4066 12.2169 11.4097 12.1939C11.4129 12.1709 11.4113 12.1474 11.405 12.125C11.3988 12.1026 11.3881 12.0815 11.3734 12.0631C11.3587 12.0446 11.3404 12.0292 11.3196 12.0176L10.9876 11.8327L11.3196 11.6478C11.3404 11.6362 11.3587 11.6207 11.3734 11.6023C11.3881 11.5839 11.3988 11.5628 11.405 11.5404C11.4113 11.5179 11.4129 11.4945 11.4097 11.4715C11.4066 11.4484 11.3988 11.4262 11.3867 11.4061C11.3747 11.386 11.3586 11.3683 11.3395 11.3542C11.3204 11.34 11.2986 11.3297 11.2753 11.3236C11.2521 11.3176 11.2278 11.3161 11.2039 11.3191C11.18 11.3221 11.157 11.3297 11.1361 11.3413L10.6206 11.6284L10.1968 11.3923V10.9205L10.6206 10.6846L11.1361 10.9717C11.157 10.9833 11.18 10.9908 11.2039 10.9939C11.2278 10.9969 11.2521 10.9953 11.2753 10.9893C11.2986 10.9833 11.3204 10.9729 11.3395 10.9588C11.3586 10.9446 11.3747 10.927 11.3867 10.9069C11.3988 10.8867 11.4066 10.8645 11.4097 10.8415C11.4129 10.8185 11.4113 10.795 11.405 10.7726C11.3988 10.7502 11.3881 10.7291 11.3734 10.7107C11.3587 10.6922 11.3404 10.6768 11.3196 10.6652L10.9876 10.4803L11.3196 10.2954C11.3617 10.2719 11.3924 10.2333 11.405 10.188C11.4176 10.1426 11.4111 10.0943 11.3867 10.0537C11.3624 10.013 11.3223 9.98338 11.2753 9.97123C11.2283 9.95908 11.1783 9.96544 11.1361 9.9889L10.804 10.1738V9.80387C10.804 9.75694 10.7847 9.71194 10.7503 9.67876C10.7159 9.64558 10.6692 9.62694 10.6206 9.62694C10.5719 9.62694 10.5253 9.64558 10.4909 9.67876C10.4565 9.71194 10.4372 9.75694 10.4372 9.80387V10.378L10.0133 10.614L9.58955 10.3781V9.9061L10.1051 9.61905C10.126 9.60743 10.1442 9.59196 10.1589 9.57353C10.1736 9.55509 10.1843 9.53405 10.1906 9.51161C10.1968 9.48916 10.1984 9.46575 10.1953 9.44271C10.1921 9.41967 10.1843 9.39746 10.1723 9.37733C10.1602 9.3572 10.1442 9.33956 10.1251 9.32541C10.106 9.31127 10.0841 9.30089 10.0609 9.29487C10.0376 9.28885 10.0133 9.28732 9.98944 9.29035C9.96556 9.29338 9.94253 9.30092 9.92166 9.31254L9.58955 9.49743V9.12761C9.58955 9.08069 9.57022 9.03569 9.53582 9.0025C9.50142 8.96932 9.45477 8.95068 9.40612 8.95068C9.35748 8.95068 9.31082 8.96932 9.27642 9.0025C9.24202 9.03569 9.22269 9.08069 9.22269 9.12761V9.49746L8.89058 9.3125C8.84844 9.28904 8.79837 9.28268 8.75137 9.29484C8.70438 9.30699 8.66431 9.33665 8.63998 9.37729C8.61566 9.41794 8.60907 9.46624 8.62167 9.51157C8.63427 9.5569 8.66502 9.59555 8.70715 9.61901L9.22269 9.9061V10.3781L8.79894 10.614L8.37508 10.378V9.80387C8.37508 9.75694 8.35576 9.71194 8.32136 9.67876C8.28696 9.64558 8.2403 9.62694 8.19165 9.62694C8.14301 9.62694 8.09635 9.64558 8.06195 9.67876C8.02755 9.71194 8.00823 9.75694 8.00823 9.80387V10.1737L7.67608 9.98876C7.65521 9.97714 7.63217 9.9696 7.60828 9.96657C7.58439 9.96354 7.56012 9.96508 7.53684 9.9711C7.51357 9.97712 7.49175 9.9875 7.47264 10.0017C7.45353 10.0158 7.43749 10.0335 7.42544 10.0536C7.40112 10.0942 7.39454 10.1426 7.40714 10.1879C7.41974 10.2332 7.4505 10.2719 7.49265 10.2953L7.82465 10.4802L7.49265 10.665C7.45051 10.6885 7.41976 10.7271 7.40717 10.7725C7.39457 10.8178 7.40116 10.8661 7.42548 10.9067C7.44981 10.9474 7.48987 10.977 7.53687 10.9892C7.58386 11.0013 7.63394 10.995 7.67608 10.9715L8.19169 10.6846L8.61544 10.9206V11.3923L8.19169 11.6283L7.67608 11.3413C7.63394 11.3178 7.58386 11.3115 7.53687 11.3236C7.48987 11.3358 7.44981 11.3654 7.42548 11.4061C7.40116 11.4467 7.39457 11.495 7.40717 11.5404C7.41976 11.5857 7.45051 11.6244 7.49265 11.6478L7.82465 11.8327L7.49265 12.0176C7.47178 12.0292 7.45349 12.0446 7.43883 12.0631C7.42416 12.0815 7.41342 12.1026 7.4072 12.125C7.40098 12.1475 7.39941 12.1709 7.40259 12.1939C7.40576 12.2169 7.41362 12.2391 7.4257 12.2592ZM8.98229 10.9204L9.40612 10.6844L9.82995 10.9204V11.3923L9.40612 11.6283L8.98229 11.3923V10.9204Z" fill="#A9D6FF"/>
<path d="M26.1688 22.3148C26.0488 22.3152 25.9299 22.2917 25.819 22.2452C25.7081 22.1988 25.6073 22.1302 25.5224 22.044C25.4376 21.9575 25.3704 21.855 25.3248 21.7421C25.2791 21.6292 25.2558 21.5081 25.2564 21.3861V18.9497H27.0773V21.3861C27.0778 21.5077 27.0547 21.6286 27.0093 21.7411C26.9639 21.8538 26.897 21.9563 26.8126 22.0425C26.7282 22.1288 26.6279 22.1973 26.5174 22.244C26.4069 22.2906 26.2884 22.3148 26.1688 22.3148Z" fill="#E6BF71"/>
<path d="M27.0774 18.9497V21.3861C27.078 21.5077 27.0549 21.6286 27.0094 21.7411C26.964 21.8538 26.8972 21.9563 26.8128 22.0425C26.7283 22.1288 26.628 22.1973 26.5175 22.244C26.407 22.2906 26.2886 22.3148 26.1689 22.3148V18.9497H27.0774Z" fill="#DEB25E"/>
<path d="M26.1688 8.75C25.8352 8.74948 25.5049 8.81582 25.1965 8.94525C24.8882 9.07467 24.6079 9.26465 24.3717 9.50432C24.1355 9.744 23.948 10.0287 23.8198 10.3421C23.6917 10.6556 23.6255 10.9916 23.625 11.3311V18.6844C23.625 18.791 23.6666 18.8933 23.7407 18.9686C23.8148 19.044 23.9152 19.0864 24.02 19.0864H26.1688V8.75Z" fill="#F40004"/>
<path d="M26.7847 8.83846C26.5811 8.78262 26.3715 8.75292 26.1606 8.75V19.0824H28.3055C28.4102 19.0824 28.5107 19.04 28.5848 18.9646C28.6589 18.8892 28.7005 18.787 28.7005 18.6803V11.3311C28.6983 10.7581 28.5088 10.2022 28.162 9.75087C27.8151 9.29956 27.3306 8.97856 26.7847 8.83846Z" fill="#F40004"/>
<path d="M25.3867 11.5562C25.2819 11.5562 25.1815 11.5985 25.1074 11.6739C25.0333 11.7493 24.9917 11.8516 24.9917 11.9582V17.1204C24.9917 17.227 25.0333 17.3293 25.1074 17.4047C25.1815 17.4801 25.2819 17.5224 25.3867 17.5224C25.4915 17.5224 25.5919 17.4801 25.666 17.4047C25.7401 17.3293 25.7817 17.227 25.7817 17.1204V11.9542C25.7807 11.8483 25.7386 11.747 25.6646 11.6725C25.5907 11.598 25.4908 11.5562 25.3867 11.5562Z" fill="#BB0014"/>
<path d="M26.9468 11.5562C26.842 11.5562 26.7415 11.5985 26.6674 11.6739C26.5934 11.7493 26.5518 11.8516 26.5518 11.9582V17.1204C26.5518 17.227 26.5934 17.3293 26.6674 17.4047C26.7415 17.4801 26.842 17.5224 26.9468 17.5224C27.0515 17.5224 27.152 17.4801 27.2261 17.4047C27.3001 17.3293 27.3417 17.227 27.3417 17.1204V11.9542C27.3407 11.8483 27.2986 11.747 27.2247 11.6725C27.1507 11.598 27.0508 11.5562 26.9468 11.5562Z" fill="#BB0014"/>
<path d="M17.1426 7.3121C17.0547 7.3121 16.9834 7.24086 16.9834 7.15298V6.72211C16.9834 6.63423 17.0547 6.56299 17.1426 6.56299C17.2305 6.56299 17.3017 6.63423 17.3017 6.72211V7.15298C17.3017 7.24086 17.2305 7.3121 17.1426 7.3121Z" fill="#A9D6FF"/>
<path d="M17.1426 8.47177C17.0547 8.47177 16.9834 8.40053 16.9834 8.31264V7.88178C16.9834 7.7939 17.0547 7.72266 17.1426 7.72266C17.2305 7.72266 17.3017 7.7939 17.3017 7.88178V8.31264C17.3017 8.40053 17.2305 8.47177 17.1426 8.47177Z" fill="#A9D6FF"/>
<path d="M17.9378 7.67616H17.5068C17.4189 7.67616 17.3477 7.60492 17.3477 7.51703C17.3477 7.42915 17.4189 7.35791 17.5068 7.35791H17.9378C18.0257 7.35791 18.097 7.42915 18.097 7.51703C18.097 7.60492 18.0257 7.67616 17.9378 7.67616Z" fill="#A9D6FF"/>
<path d="M16.7777 7.67616H16.3467C16.2588 7.67616 16.1875 7.60492 16.1875 7.51703C16.1875 7.42915 16.2588 7.35791 16.3467 7.35791H16.7777C16.8656 7.35791 16.9368 7.42915 16.9368 7.51703C16.9368 7.60492 16.8656 7.67616 16.7777 7.67616Z" fill="#A9D6FF"/>
<path d="M14.9551 26.1246C14.8672 26.1246 14.7959 26.0534 14.7959 25.9655V25.5346C14.7959 25.4467 14.8672 25.3755 14.9551 25.3755C15.043 25.3755 15.1142 25.4467 15.1142 25.5346V25.9655C15.1142 26.0534 15.043 26.1246 14.9551 26.1246Z" fill="#A9D6FF"/>
<path d="M14.9551 27.2843C14.8672 27.2843 14.7959 27.213 14.7959 27.1251V26.6943C14.7959 26.6064 14.8672 26.5352 14.9551 26.5352C15.043 26.5352 15.1142 26.6064 15.1142 26.6943V27.1251C15.1142 27.213 15.043 27.2843 14.9551 27.2843Z" fill="#A9D6FF"/>
<path d="M15.7503 26.4887H15.3193C15.2314 26.4887 15.1602 26.4174 15.1602 26.3295C15.1602 26.2417 15.2314 26.1704 15.3193 26.1704H15.7503C15.8382 26.1704 15.9095 26.2417 15.9095 26.3295C15.9095 26.4174 15.8382 26.4887 15.7503 26.4887Z" fill="#A9D6FF"/>
<path d="M14.5902 26.4887H14.1592C14.0713 26.4887 14 26.4174 14 26.3295C14 26.2417 14.0713 26.1704 14.1592 26.1704H14.5902C14.6781 26.1704 14.7493 26.2417 14.7493 26.3295C14.7493 26.4174 14.6781 26.4887 14.5902 26.4887Z" fill="#A9D6FF"/>
<path d="M27.6426 9.4996C27.5547 9.4996 27.4834 9.42836 27.4834 9.34048V8.90961C27.4834 8.82173 27.5547 8.75049 27.6426 8.75049C27.7305 8.75049 27.8017 8.82173 27.8017 8.90961V9.34048C27.8017 9.42836 27.7305 9.4996 27.6426 9.4996Z" fill="#A9D6FF"/>
<path d="M27.6426 10.6593C27.5547 10.6593 27.4834 10.588 27.4834 10.5001V10.0693C27.4834 9.9814 27.5547 9.91016 27.6426 9.91016C27.7305 9.91016 27.8017 9.9814 27.8017 10.0693V10.5001C27.8017 10.588 27.7305 10.6593 27.6426 10.6593Z" fill="#A9D6FF"/>
<path d="M28.4378 9.86366H28.0068C27.9189 9.86366 27.8477 9.79242 27.8477 9.70453C27.8477 9.61665 27.9189 9.54541 28.0068 9.54541H28.4378C28.5257 9.54541 28.597 9.61665 28.597 9.70453C28.597 9.79242 28.5257 9.86366 28.4378 9.86366Z" fill="#A9D6FF"/>
<path d="M27.2777 9.86366H26.8467C26.7588 9.86366 26.6875 9.79242 26.6875 9.70453C26.6875 9.61665 26.7588 9.54541 26.8467 9.54541H27.2777C27.3656 9.54541 27.4368 9.61665 27.4368 9.70453C27.4368 9.79242 27.3656 9.86366 27.2777 9.86366Z" fill="#A9D6FF"/>
</g>
<defs>
<clipPath id="clip0_3396_31727">
<rect width="35" height="35" fill="white"/>
</clipPath>
</defs>
</svg>
