<svg width="57" height="50" viewBox="0 0 57 50" fill="none" xmlns="http://www.w3.org/2000/svg">
<path fill-rule="evenodd" clip-rule="evenodd" d="M24.8394 0.959671C25.9569 0.330521 27.2176 0 28.5001 0C29.7825 0 31.0432 0.330521 32.1607 0.959671C33.2782 1.58882 34.2147 2.49536 34.8798 3.59183L34.8869 3.60364L55.9536 38.7729L55.9738 38.8072C56.6253 39.9355 56.9701 41.2147 56.9737 42.5176C56.9774 43.8205 56.6398 45.1016 55.9946 46.2335C55.3494 47.3654 54.4191 48.3087 53.2962 48.9694C52.1733 49.6302 50.8969 49.9854 49.5941 49.9997L49.5668 50L7.406 49.9999C6.10319 49.9855 4.82684 49.6302 3.70394 48.9694C2.58103 48.3087 1.6507 47.3654 1.0055 46.2335C0.360312 45.1016 0.0227485 43.8205 0.0263964 42.5176C0.0300446 41.2147 0.374778 39.9355 1.0263 38.8072L1.0465 38.7729L22.1203 3.59181C22.7854 2.49534 23.7219 1.58882 24.8394 0.959671ZM28.5001 4.97443C28.0726 4.97443 27.6523 5.0846 27.2798 5.29432C26.909 5.50309 26.598 5.80349 26.3765 6.16676L5.32589 41.3091C5.11404 41.6817 5.00201 42.1028 5.00081 42.5315C4.99959 42.9658 5.11211 43.3929 5.32718 43.7702C5.54224 44.1475 5.85235 44.4619 6.22665 44.6821C6.59768 44.9005 7.01896 45.0187 7.44925 45.0254H49.5508C49.9811 45.0187 50.4024 44.9005 50.7734 44.6821C51.1478 44.4619 51.4579 44.1475 51.6729 43.7702C51.888 43.3929 52.0005 42.9658 51.9993 42.5315C51.9981 42.1028 51.8861 41.6818 51.6743 41.3092L30.6266 6.17171C30.6256 6.17005 30.6246 6.1684 30.6236 6.16676C30.4021 5.80349 30.0911 5.50309 29.7203 5.29432C29.3478 5.0846 28.9275 4.97443 28.5001 4.97443Z" fill="url(#paint0_linear_2821_16027)"/>
<path fill-rule="evenodd" clip-rule="evenodd" d="M28.5 15.1789C29.8737 15.1789 30.9872 16.2925 30.9872 17.6662V27.615C30.9872 28.9887 29.8737 30.1022 28.5 30.1022C27.1264 30.1022 26.0128 28.9887 26.0128 27.615V17.6662C26.0128 16.2925 27.1264 15.1789 28.5 15.1789Z" fill="url(#paint1_linear_2821_16027)"/>
<path fill-rule="evenodd" clip-rule="evenodd" d="M26.0128 37.5639C26.0128 36.1902 27.1264 35.0767 28.5 35.0767H28.5249C29.8986 35.0767 31.0121 36.1902 31.0121 37.5639C31.0121 38.9375 29.8986 40.0511 28.5249 40.0511H28.5C27.1264 40.0511 26.0128 38.9375 26.0128 37.5639Z" fill="url(#paint2_linear_2821_16027)"/>
<defs>
<linearGradient id="paint0_linear_2821_16027" x1="-28.4473" y1="25" x2="21.1325" y2="81.4688" gradientUnits="userSpaceOnUse">
<stop stop-color="#AF0101"/>
<stop offset="1" stop-color="#F00000"/>
</linearGradient>
<linearGradient id="paint1_linear_2821_16027" x1="23.5256" y1="22.6406" x2="32.4796" y2="25.6252" gradientUnits="userSpaceOnUse">
<stop stop-color="#AF0101"/>
<stop offset="1" stop-color="#F00000"/>
</linearGradient>
<linearGradient id="paint2_linear_2821_16027" x1="23.5132" y1="37.5639" x2="28.4875" y2="42.5631" gradientUnits="userSpaceOnUse">
<stop stop-color="#AF0101"/>
<stop offset="1" stop-color="#F00000"/>
</linearGradient>
</defs>
</svg>
