<svg width="19" height="19" viewBox="0 0 19 19" fill="none" xmlns="http://www.w3.org/2000/svg">
<rect width="19" height="19" fill="white"/>
<path fill-rule="evenodd" clip-rule="evenodd" d="M3.95833 3.16665C3.74837 3.16665 3.547 3.25005 3.39854 3.39852C3.25007 3.54699 3.16666 3.74835 3.16666 3.95831V15.0416C3.16666 15.2516 3.25007 15.453 3.39854 15.6014C3.547 15.7499 3.74837 15.8333 3.95833 15.8333H7.125C7.56222 15.8333 7.91666 16.1878 7.91666 16.625C7.91666 17.0622 7.56222 17.4166 7.125 17.4166H3.95833C3.32844 17.4166 2.72435 17.1664 2.27895 16.721C1.83355 16.2756 1.58333 15.6715 1.58333 15.0416V3.95831C1.58333 3.32842 1.83355 2.72433 2.27895 2.27893C2.72435 1.83354 3.32844 1.58331 3.95833 1.58331H7.125C7.56222 1.58331 7.91666 1.93775 7.91666 2.37498C7.91666 2.81221 7.56222 3.16665 7.125 3.16665H3.95833Z" fill="#5F6F86"/>
<path fill-rule="evenodd" clip-rule="evenodd" d="M12.1069 4.98187C12.416 4.67271 12.9173 4.67271 13.2265 4.98187L17.1848 8.94021C17.494 9.24937 17.494 9.75063 17.1848 10.0598L13.2265 14.0181C12.9173 14.3273 12.416 14.3273 12.1069 14.0181C11.7977 13.709 11.7977 13.2077 12.1069 12.8985L15.5054 9.5L12.1069 6.10146C11.7977 5.79229 11.7977 5.29104 12.1069 4.98187Z" fill="#5F6F86"/>
<path fill-rule="evenodd" clip-rule="evenodd" d="M6.33333 9.49998C6.33333 9.06275 6.68777 8.70831 7.12499 8.70831H16.625C17.0622 8.70831 17.4167 9.06275 17.4167 9.49998C17.4167 9.93721 17.0622 10.2916 16.625 10.2916H7.12499C6.68777 10.2916 6.33333 9.93721 6.33333 9.49998Z" fill="#5F6F86"/>
</svg>
