<svg width="45" height="45" viewBox="0 0 45 45" fill="none" xmlns="http://www.w3.org/2000/svg">
<g opacity="0.8">
<ellipse opacity="0.4" cx="22.5" cy="22.4159" rx="22.5" ry="22.4159" fill="white"/>
<g opacity="0.4">
<path d="M0 22.5278C0 34.9126 10.0687 44.9998 22.5 44.9998V0.0558472C10.0687 0.0558472 0 10.143 0 22.5278Z" fill="#F7F9FC"/>
<path d="M22.4434 0.0560303V45C34.9309 45 44.9996 34.9128 44.9996 22.528C44.9996 10.1432 34.9309 0.0560303 22.4434 0.0560303Z" fill="#F7F9FC"/>
</g>
<g opacity="0.4">
<g opacity="0.8">
<g opacity="0.3">
<path d="M29.9807 7.22914H21.2619C21.0369 7.22914 20.8682 7.06102 20.8682 6.83686C20.8682 6.6127 21.0369 6.44458 21.2619 6.44458H29.9807C30.2057 6.44458 30.3744 6.6127 30.3744 6.83686C30.3744 7.06102 30.2057 7.22914 29.9807 7.22914Z" fill="#999999"/>
<path d="M18.5061 7.22914H16.8186C16.5936 7.22914 16.4248 7.06102 16.4248 6.83686C16.4248 6.6127 16.5936 6.44458 16.8186 6.44458H18.5061C18.7311 6.44458 18.8998 6.6127 18.8998 6.83686C18.8998 7.06102 18.7311 7.22914 18.5061 7.22914Z" fill="#999999"/>
<path fill-rule="evenodd" clip-rule="evenodd" d="M16.8184 4.59529H17.6059V3.81073H16.8184V4.59529ZM19.1246 4.59529H18.3371V3.81073H19.1246V4.59529ZM19.8558 4.59529H20.6433V3.81073H19.8558V4.59529ZM22.1621 4.59529H21.3746V3.81073H22.1621V4.59529ZM22.8933 4.59529H23.6808V3.81073H22.8933V4.59529ZM24.4121 4.59529H25.1996V3.81073H24.4121V4.59529Z" fill="#999999"/>
</g>
<g opacity="0.3">
<path d="M29.9807 40.5168H21.2619C21.0369 40.5168 20.8682 40.3487 20.8682 40.1245C20.8682 39.9004 21.0369 39.7322 21.2619 39.7322H29.9807C30.2057 39.7322 30.3744 39.9004 30.3744 40.1245C30.3744 40.3487 30.2057 40.5168 29.9807 40.5168Z" fill="#999999"/>
<path d="M18.5061 40.5168H16.8186C16.5936 40.5168 16.4248 40.3487 16.4248 40.1245C16.4248 39.9004 16.5936 39.7322 16.8186 39.7322H18.5061C18.7311 39.7322 18.8998 39.9004 18.8998 40.1245C18.8998 40.3487 18.7311 40.5168 18.5061 40.5168Z" fill="#999999"/>
<path fill-rule="evenodd" clip-rule="evenodd" d="M19.1246 37.8829H18.3371V37.0984H19.1246V37.8829ZM19.8558 37.8829H20.6433V37.0984H19.8558V37.8829ZM22.1621 37.8829H21.3746V37.0984H22.1621V37.8829ZM22.8933 37.8829H23.6808V37.0984H22.8933V37.8829ZM24.4121 37.8829H25.1996V37.0984H24.4121V37.8829ZM16.8184 37.8829H17.6059V37.0984H16.8184V37.8829Z" fill="#999999"/>
</g>
</g>
<g opacity="0.2">
<path d="M41.7928 21.1831H35.1553C34.9865 21.1831 34.874 21.071 34.874 20.9029C34.874 20.7348 34.9865 20.6227 35.1553 20.6227H41.7928C41.9615 20.6227 42.074 20.7348 42.074 20.9029C42.074 21.015 41.9615 21.1831 41.7928 21.1831Z" fill="#999999"/>
<path d="M38.4744 19.5579H31.8369C31.6682 19.5579 31.5557 19.4458 31.5557 19.2777C31.5557 19.1096 31.6682 18.9975 31.8369 18.9975H38.4744C38.6432 18.9975 38.7557 19.1096 38.7557 19.2777C38.7557 19.4458 38.6432 19.5579 38.4744 19.5579Z" fill="#999999"/>
<path d="M14.3992 21.1831H7.76172C7.59297 21.1831 7.48047 21.071 7.48047 20.9029C7.48047 20.7348 7.59297 20.6227 7.76172 20.6227H14.3992C14.568 20.6227 14.6805 20.7348 14.6805 20.9029C14.6805 21.015 14.568 21.1831 14.3992 21.1831Z" fill="#999999"/>
<path d="M11.0809 19.5579H4.44336C4.27461 19.5579 4.16211 19.4458 4.16211 19.2777C4.16211 19.1096 4.27461 18.9975 4.44336 18.9975H11.0809C11.2496 18.9975 11.3621 19.1096 11.3621 19.2777C11.3621 19.4458 11.2496 19.5579 11.0809 19.5579Z" fill="#999999"/>
</g>
</g>
</g>
<path d="M24.1318 24.0971H25.4818C26.4381 23.7049 26.2131 22.5841 26.2131 22.5841L26.1568 22.4159V16.4757L26.2131 16.3636C26.3256 16.0834 26.1568 15.7472 26.1568 15.7472C25.9318 15.0187 25.9318 14.5704 25.9318 14.5704C25.8193 13.8418 25.2006 12.4969 25.2006 12.4969H24.1318V24.0971Z" fill="#ED7601"/>
<path d="M24.1316 24.0971H22.7816C21.8254 23.7049 22.0504 22.5841 22.0504 22.5841L22.1066 22.4159V16.4757L22.0504 16.3636C21.9379 16.0834 22.1066 15.7472 22.1066 15.7472C22.3316 15.0187 22.3316 14.5704 22.3316 14.5704C22.4441 13.8418 23.0629 12.4969 23.0629 12.4969H24.1316V24.0971Z" fill="#F39635"/>
<path d="M23.0625 12.4409L23.5125 11.4882V11.208L23.3438 11.152H24.1313V12.4409H23.0625Z" fill="#E2D7D1"/>
<path d="M25.2006 12.4409L24.6943 11.4882V11.208L24.8631 11.152H24.1318V12.4409H25.2006Z" fill="#CCCCCC"/>
<rect x="23.457" y="10.1993" width="1.29375" height="0.784557" fill="#ED7601"/>
<rect x="22.0508" y="16.4197" width="2.025" height="4.53923" fill="#FFCC66"/>
<rect x="24.1318" y="16.4197" width="2.025" height="4.53923" fill="#F7AA00"/>
<path d="M24.4125 18.8294C24.4125 18.8294 24.4125 18.8855 24.4125 18.8294C24.3562 18.8294 24.3 18.8294 24.3 18.7734C24.1875 18.4372 23.9625 18.213 23.6812 18.0449C23.4562 17.9328 23.175 17.8768 22.8937 17.9328C22.8375 17.9328 22.8375 17.9328 22.7812 17.8768C22.7812 17.8207 22.7812 17.8207 22.8375 17.7647C23.0625 17.6526 23.2875 17.5966 23.4562 17.5966C23.85 17.5405 24.3562 17.7086 24.525 18.1009C24.5812 18.269 24.5812 18.4372 24.4687 18.6053C24.4687 18.7734 24.4687 18.7734 24.4125 18.8294Z" fill="#213A8E"/>
<path d="M24.4129 19.2217L24.1879 18.7174C24.1879 18.6613 24.2441 18.6053 24.3004 18.6053C24.3566 18.6053 24.4129 18.6053 24.4129 18.6053L24.5816 19.1096C24.5816 19.1657 24.5254 19.2217 24.4691 19.2217H24.4129Z" fill="#213A8E"/>
<path d="M22.8943 17.9332C23.1756 18.0453 23.2318 18.2134 23.2318 18.4376C23.2881 18.5496 23.3443 18.8859 23.5693 18.998C23.9068 19.11 24.2443 19.11 24.4131 18.8298C24.4131 18.8298 24.4131 18.8298 24.4131 18.7738V18.7178C24.3006 18.3815 24.0756 18.1013 23.6818 17.9332C23.3443 17.7651 23.0631 17.709 22.7818 17.8211C22.7256 17.8211 22.7256 17.8772 22.7256 17.8772C22.8381 17.9332 22.8943 17.9332 22.8943 17.9332Z" fill="#213A8E"/>
<path d="M24.4135 18.7173C24.3572 18.7173 24.301 18.7173 24.301 18.6613C24.1885 18.3811 24.0197 18.1569 23.7947 18.0449C23.626 17.9328 23.3447 17.8767 23.1197 17.9328C23.0635 17.9328 23.0635 17.9328 23.0635 17.8767C23.0635 17.8207 23.0635 17.8207 23.1197 17.8207C23.2885 17.7086 23.4572 17.7086 23.626 17.7086C23.9635 17.6526 24.3572 17.8207 24.526 18.1569C24.5822 18.269 24.5822 18.4932 24.4697 18.6053C24.4135 18.6613 24.4135 18.7173 24.4135 18.7173Z" fill="#62B12F"/>
<path d="M24.4131 19.1096L24.3006 18.7173C24.3006 18.6613 24.3006 18.6613 24.3568 18.6613C24.4131 18.6613 24.4131 18.6613 24.4131 18.7173L24.5256 19.1096C24.5256 19.1657 24.5256 19.1657 24.4131 19.1096C24.4693 19.1657 24.4131 19.1657 24.4131 19.1096Z" fill="#9AC22B"/>
<path d="M23.1197 17.9893C23.3447 18.0454 23.401 18.2135 23.4572 18.3816C23.5135 18.4937 23.5697 18.7178 23.7385 18.886C24.0197 18.998 24.2447 18.942 24.4697 18.7739V18.7178C24.3572 18.3816 24.1322 18.2135 23.9072 18.0454C23.5697 17.9333 23.2885 17.8772 23.1197 17.9893C23.1197 17.9893 23.0635 17.9333 23.1197 17.9893Z" fill="#008C39"/>
<path d="M31.5568 24.0971H32.9068C33.8631 23.7049 33.6381 22.5841 33.6381 22.5841L33.5818 22.4159V16.4757L33.6381 16.3636C33.7506 16.0834 33.5818 15.7472 33.5818 15.7472C33.3568 15.0187 33.3568 14.5704 33.3568 14.5704C33.2443 13.8418 32.6256 12.4969 32.6256 12.4969H31.5568L31.1631 24.2092H31.5568V24.0971Z" fill="#009A42"/>
<path d="M31.5564 24.0971H30.2064C29.2502 23.7049 29.4752 22.5841 29.4752 22.5841L29.5314 22.4159V16.4757L29.4752 16.3636C29.3627 16.0834 29.5314 15.7472 29.5314 15.7472C29.7564 15.0187 29.7564 14.5704 29.7564 14.5704C29.8689 13.8419 30.4877 12.4409 30.4877 12.4409H31.5564V24.0971Z" fill="#80D2A0"/>
<path d="M30.4883 12.4409L30.9383 11.4882V11.208L30.7695 11.152H31.557V12.4409H30.4883Z" fill="#E2D7D1"/>
<path d="M32.6254 12.4409L32.1191 11.4882V11.208L32.2879 11.152H31.5566V12.4409H32.6254Z" fill="#CCCCCC"/>
<rect x="30.8818" y="10.1993" width="1.29375" height="0.784557" fill="#FEC500"/>
<rect x="29.5879" y="16.812" width="3.825" height="0.728518" fill="#FEC500"/>
<rect x="29.5879" y="20.6787" width="3.825" height="0.280199" fill="#FEC500"/>
<path d="M26.7754 10.1993H28.1816V11.0399H26.7754V10.1993Z" fill="black"/>
<path d="M28.9127 24.8257C28.9127 24.8257 30.0939 24.0971 29.6439 23.0324V19.1096C29.6439 19.1096 29.8127 18.8294 29.7564 18.6052V15.411C29.7564 15.411 29.8689 15.1868 29.7002 14.9626C29.7002 14.9626 29.3064 12.7771 28.1252 11.3201V11.0399H27.4502V24.8257H28.9127Z" fill="#711012"/>
<path d="M26.1002 24.8257C26.1002 24.8257 24.919 24.0971 25.369 23.0324V19.1096C25.369 19.1096 25.2002 18.8294 25.2565 18.6052V15.411C25.2565 15.411 25.144 15.1868 25.3127 14.9626C25.3127 14.9626 25.7065 12.7771 26.8877 11.3201V11.0399H27.5627V24.8257H26.1002Z" fill="#B10012"/>
<rect x="25.2568" y="15.6351" width="2.25" height="2.85803" fill="#FD0E22"/>
<rect x="27.4502" y="15.6351" width="2.25" height="2.85803" fill="#CD091C"/>
<rect x="25.2568" y="18.1569" width="4.5" height="0.336239" fill="#7BB23E"/>
<rect x="25.2568" y="15.9153" width="4.5" height="0.392278" fill="black"/>
<path d="M27.5068 11.8244H28.5756C28.5756 11.8244 28.4068 11.5442 28.1818 11.3201V11.0399H27.5068V11.8244H27.5068Z" fill="#CCCCCC"/>
<path d="M27.5063 11.0399H26.8313V11.3201C26.6063 11.6003 26.4375 11.8244 26.4375 11.8244H27.45C27.5625 11.8244 27.5063 11.0399 27.5063 11.0399Z" fill="#E2D7D1"/>
<path fill-rule="evenodd" clip-rule="evenodd" d="M19.2934 19.8381H35.4934C35.7184 19.8381 35.9996 20.0622 35.9996 20.2864V28.4122C35.9996 28.6924 35.7746 28.9165 35.4934 28.9165H19.2934C19.0121 28.9165 18.7871 28.6924 18.7871 28.4122V20.3424C18.7871 20.0622 19.0121 19.8381 19.2934 19.8381ZM26.1559 23.6488H28.6309C29.1371 23.6488 29.5871 23.1444 29.6434 22.6401C29.6434 22.0797 29.1934 21.6314 28.6309 21.6314H26.1559C25.5934 21.6314 25.1434 22.0797 25.1434 22.6401C25.1434 23.2005 25.5934 23.6488 26.1559 23.6488Z" fill="#FF0000"/>
<path d="M35.4932 19.8381H27.3369V21.6313H28.5744C29.1369 21.6313 29.5869 22.0797 29.5869 22.6401C29.5869 23.2005 29.1369 23.6488 28.5744 23.6488H27.3369V28.8605L35.4932 28.9165C35.7744 28.9165 35.9994 28.6924 35.9994 28.4122V20.2864C35.9994 20.0622 35.7182 19.8381 35.4932 19.8381Z" fill="#CD091C"/>
<path fill-rule="evenodd" clip-rule="evenodd" d="M29.5309 26.8991C27.3371 27.2914 25.0309 27.7397 23.0059 27.6276C21.4309 27.5716 20.3621 27.2914 19.5184 26.8991L18.7871 26.6189V24.6014L19.5184 25.0498C21.5996 26.3387 23.7371 26.843 25.8184 27.0112C28.9684 27.1793 31.7809 26.3947 33.1871 26.0585C34.2559 25.7783 35.2684 25.6662 36.0559 25.7783V26.843C34.1996 26.1706 31.9496 26.4508 29.5309 26.8991Z" fill="white"/>
<path d="M17.3818 29.3088H17.1568C17.8881 29.3088 18.5068 28.6924 18.5068 27.9639C18.5068 27.2353 17.8881 26.6189 17.1568 26.6189H13.7818C12.6568 25.6662 11.0256 25.6102 9.78809 26.4508L9.22559 26.8431V31.9987H12.8818H17.3256H23.1756C23.4568 31.9987 23.6818 31.8867 23.9068 31.7746C24.3568 31.4383 24.5256 30.7659 24.3568 30.2055C24.1881 29.7011 23.7381 29.3088 23.1756 29.3088H17.3818H17.1568H14.7381V30.2615H17.1568" fill="#F0B47F"/>
<path d="M17.3254 31.9988H23.1754C23.4566 31.9988 23.6816 31.8867 23.9066 31.7746C24.3566 31.4384 24.5254 30.7659 24.3566 30.2055C24.1879 29.7011 23.7379 29.3088 23.1754 29.3088H17.3254H17.1004H14.6816V31.9988H17.3254Z" fill="#FAC394"/>
<path d="M17.3814 29.3089H17.1564C17.8877 29.3089 18.5064 28.6924 18.5064 27.9639C18.5064 27.2354 17.8877 26.619 17.1564 26.619H14.7939V31.9988" fill="#FAC394"/>
<path d="M17.2129 29.3088H18.9004H13.4441C13.1629 29.3088 12.9941 29.533 12.9941 29.7572C12.9941 30.0374 13.2191 30.2055 13.4441 30.2055H16.9879V29.2528" fill="#FAC394"/>
<path d="M14.5693 30.2615H12.8818H18.3381C18.6193 30.2615 18.7881 30.0373 18.7881 29.8132C18.7881 29.533 18.5631 29.3649 18.3381 29.3649H14.7943V30.3175" fill="#F0B47F"/>
<path d="M9.0002 32.9514H7.0877C6.80645 32.9514 6.6377 32.7273 6.6377 32.5031V26.1146C6.6377 25.8344 6.8627 25.6663 7.0877 25.6663H9.0002C9.28145 25.6663 9.4502 25.8904 9.4502 26.1146V32.4471C9.50645 32.7273 9.28145 32.9514 9.0002 32.9514Z" fill="#FF0000"/>
<path d="M9.0002 32.9514H7.0877C6.80645 32.9514 6.6377 32.7273 6.6377 32.5031V29.3649H9.50644V32.4471C9.50644 32.7273 9.28145 32.9514 9.0002 32.9514Z" fill="#CD091C"/>
</svg>
