<svg width="13" height="13" viewBox="0 0 13 13" fill="none" xmlns="http://www.w3.org/2000/svg">
<path fill-rule="evenodd" clip-rule="evenodd" d="M1.1 7.7002C1.43137 7.7002 1.7 7.96882 1.7 8.3002V10.7002C1.7 10.8593 1.76321 11.0119 1.87574 11.1245C1.98826 11.237 2.14087 11.3002 2.3 11.3002H10.7C10.8591 11.3002 11.0117 11.237 11.1243 11.1245C11.2368 11.0119 11.3 10.8593 11.3 10.7002V8.3002C11.3 7.96882 11.5686 7.7002 11.9 7.7002C12.2314 7.7002 12.5 7.96882 12.5 8.3002V10.7002C12.5 11.1776 12.3104 11.6354 11.9728 11.973C11.6352 12.3106 11.1774 12.5002 10.7 12.5002H2.3C1.82261 12.5002 1.36477 12.3106 1.02721 11.973C0.689642 11.6354 0.5 11.1776 0.5 10.7002V8.3002C0.5 7.96882 0.768629 7.7002 1.1 7.7002Z" fill="white"/>
<path fill-rule="evenodd" clip-rule="evenodd" d="M3.07573 4.87593C3.31004 4.64162 3.68994 4.64162 3.92426 4.87593L6.49999 7.45167L9.07573 4.87593C9.31004 4.64162 9.68994 4.64162 9.92426 4.87593C10.1586 5.11025 10.1586 5.49014 9.92426 5.72446L6.92426 8.72446C6.68994 8.95877 6.31004 8.95877 6.07573 8.72446L3.07573 5.72446C2.84142 5.49014 2.84142 5.11025 3.07573 4.87593Z" fill="white"/>
<path fill-rule="evenodd" clip-rule="evenodd" d="M6.49999 0.5C6.83136 0.5 7.09999 0.768629 7.09999 1.1V8.3C7.09999 8.63137 6.83136 8.9 6.49999 8.9C6.16862 8.9 5.89999 8.63137 5.89999 8.3V1.1C5.89999 0.768629 6.16862 0.5 6.49999 0.5Z" fill="white"/>
</svg>
