<svg width="24" height="24" viewBox="0 0 24 24" fill="none" xmlns="http://www.w3.org/2000/svg">
<path fill-rule="evenodd" clip-rule="evenodd" d="M3.71571 5.27189H15.1065C15.4009 4.39744 16.228 3.76566 17.2005 3.76566C18.173 3.76566 19.0001 4.39744 19.2945 5.27189H20.2844C20.6727 5.27189 20.9875 5.5867 20.9875 5.97501C20.9875 6.36333 20.6727 6.67814 20.2844 6.67814H19.2944C19 7.55259 18.1729 8.18437 17.2004 8.18437C16.228 8.18437 15.4009 7.55259 15.1064 6.67814H3.71566C3.32734 6.67814 3.01253 6.36333 3.01253 5.97501C3.01253 5.5867 3.32735 5.27189 3.71571 5.27189ZM3.71571 11.3006H5.38736C5.68178 10.4262 6.50894 9.79437 7.48136 9.79437C8.45378 9.79437 9.28089 10.4262 9.57531 11.3006H20.2844C20.6727 11.3006 20.9875 11.6154 20.9875 12.0037C20.9875 12.392 20.6727 12.7069 20.2844 12.7069H9.57531C9.28089 13.5813 8.45374 14.2131 7.48131 14.2131C6.50889 14.2131 5.68174 13.5813 5.38731 12.7069H3.71566C3.32734 12.7069 3.01253 12.392 3.01253 12.0037C3.01253 11.6154 3.32735 11.3006 3.71571 11.3006ZM11.4123 17.3293H3.71571C3.32735 17.3293 3.01253 17.6441 3.01253 18.0325C3.01253 18.4208 3.32734 18.7356 3.71566 18.7356H11.4123C11.7067 19.61 12.5338 20.2418 13.5063 20.2418C14.4788 20.2418 15.3059 19.61 15.6003 18.7356H20.2844C20.6727 18.7356 20.9875 18.4208 20.9875 18.0325C20.9875 17.6441 20.6727 17.3293 20.2844 17.3293H15.6003C15.3059 16.4549 14.4788 15.8231 13.5063 15.8231C12.5338 15.8231 11.7067 16.4549 11.4123 17.3293Z" fill="#5E6368"/>
</svg>
