<svg width="41" height="42" viewBox="0 0 41 42" fill="none" xmlns="http://www.w3.org/2000/svg">
<ellipse cx="20.25" cy="21.2095" rx="20.25" ry="20.1995" fill="#E8EBF7"/>
<g opacity="0.8">
<g opacity="0.3">
<path d="M26.1728 8.34569H18.5678C18.3703 8.34569 18.2222 8.19754 18.2222 8.00001C18.2222 7.80248 18.3703 7.65433 18.5678 7.65433H26.2222C26.4197 7.65433 26.5678 7.80248 26.5678 8.00001C26.5185 8.19754 26.3703 8.34569 26.1728 8.34569Z" fill="#999999"/>
<path d="M16.1481 8.34569H14.6666C14.4691 8.34569 14.3209 8.19754 14.3209 8.00001C14.3209 7.80248 14.4691 7.65433 14.6666 7.65433H16.1481C16.3456 7.65433 16.4938 7.80248 16.4938 8.00001C16.4444 8.19754 16.2962 8.34569 16.1481 8.34569Z" fill="#999999"/>
<path fill-rule="evenodd" clip-rule="evenodd" d="M14.6172 6.0247H15.3085V5.33334H14.6172V6.0247ZM16.6419 6.0247H15.9505V5.33334H16.6419V6.0247ZM17.2839 6.0247H17.9752V5.33334H17.2839V6.0247ZM19.3085 6.0247H18.6172V5.33334H19.3085V6.0247ZM19.9505 6.0247H20.6419V5.33334H19.9505V6.0247ZM21.2839 6.0247H21.9752V5.33334H21.2839V6.0247Z" fill="#999999"/>
</g>
<g opacity="0.3">
<path d="M26.1728 37.6297H18.5678C18.3703 37.6297 18.2222 37.4815 18.2222 37.284C18.2222 37.0864 18.3703 36.9383 18.5678 36.9383H26.2222C26.4197 36.9383 26.5678 37.0864 26.5678 37.284C26.5678 37.4815 26.3703 37.6297 26.1728 37.6297Z" fill="#999999"/>
<path d="M16.1481 37.6297H14.6666C14.4691 37.6297 14.3209 37.4815 14.3209 37.284C14.3209 37.0864 14.4691 36.9383 14.6666 36.9383H16.1481C16.3456 36.9383 16.4938 37.0864 16.4938 37.284C16.4444 37.4815 16.2962 37.6297 16.1481 37.6297Z" fill="#999999"/>
<path fill-rule="evenodd" clip-rule="evenodd" d="M14.6172 35.3087H15.3085V34.6173H14.6172V35.3087ZM16.6419 35.3087H15.9505V34.6173H16.6419V35.3087ZM17.2839 35.3087H17.9752V34.6173H17.2839V35.3087ZM19.3085 35.3087H18.6172V34.6173H19.3085V35.3087ZM19.9505 35.3087H20.6419V34.6173H19.9505V35.3087ZM21.2839 35.3087H21.9752V34.6173H21.2839V35.3087Z" fill="#999999"/>
</g>
</g>
<g opacity="0.2">
<path d="M36.5432 20.5926H30.716C30.5679 20.5926 30.4691 20.4938 30.4691 20.3457C30.4691 20.1976 30.5679 20.0988 30.716 20.0988H36.5432C36.6913 20.0988 36.7901 20.1976 36.7901 20.3457C36.7901 20.4938 36.6913 20.5926 36.5432 20.5926Z" fill="#999999"/>
<path d="M33.6296 19.1605H27.8025C27.6543 19.1605 27.5555 19.0617 27.5555 18.9136C27.5555 18.7655 27.6543 18.6667 27.8025 18.6667H33.6296C33.7778 18.6667 33.8765 18.7655 33.8765 18.9136C33.9259 19.0617 33.7778 19.1605 33.6296 19.1605Z" fill="#999999"/>
<path d="M12.5432 20.5926H6.71603C6.56788 20.5926 6.46912 20.4938 6.46912 20.3457C6.46912 20.1976 6.56788 20.0988 6.71603 20.0988H12.5432C12.6913 20.0988 12.7901 20.1976 12.7901 20.3457C12.7901 20.4938 12.642 20.5926 12.5432 20.5926Z" fill="#999999"/>
<path d="M9.62962 19.1605H3.80246C3.65431 19.1605 3.55554 19.0617 3.55554 18.9136C3.55554 18.7655 3.65431 18.6667 3.80246 18.6667H9.62962C9.77776 18.6667 9.87653 18.7655 9.87653 18.9136C9.87653 19.0617 9.72838 19.1605 9.62962 19.1605Z" fill="#999999"/>
</g>
<rect x="5" y="13.5" width="30" height="16.5" rx="4" fill="#F40009"/>
<path d="M19.5 13.5H31C33.2091 13.5 35 15.2909 35 17.5V26C35 28.2091 33.2091 30 31 30H19.5V13.5Z" fill="#C00000"/>
<path d="M24.2178 21.3513C24.5498 21.546 24.5466 22.0271 24.212 22.2173L17.1147 26.2525C16.7801 26.4427 16.365 26.1994 16.3676 25.8145L16.4217 17.6504C16.4243 17.2655 16.8425 17.0277 17.1746 17.2224L24.2178 21.3513Z" fill="white"/>
<rect x="5.75" y="14.25" width="28.5" height="15" rx="2.75" stroke="#FEE5E6" stroke-width="0.5"/>
</svg>
