<svg width="18" height="17" viewBox="0 0 18 17" fill="none" xmlns="http://www.w3.org/2000/svg">
<path fill-rule="evenodd" clip-rule="evenodd" d="M5.25451 0.226327C5.39942 0.0814121 5.59597 0 5.80091 0H12.1991C12.404 0 12.6006 0.0814121 12.7455 0.226327L17.2737 4.75451C17.4186 4.89942 17.5 5.09597 17.5 5.30091V11.6991C17.5 11.904 17.4186 12.1006 17.2737 12.2455L12.7455 16.7737C12.6006 16.9186 12.404 17 12.1991 17H5.80091C5.59597 17 5.39942 16.9186 5.25451 16.7737L0.726327 12.2455C0.581412 12.1006 0.5 11.904 0.5 11.6991V5.30091C0.5 5.09597 0.581412 4.89942 0.726327 4.75451L5.25451 0.226327ZM6.12098 1.54545L2.04545 5.62098V11.379L6.12098 15.4545H11.879L15.9545 11.379V5.62098L11.879 1.54545H6.12098Z" fill="#5F6F86"/>
<path fill-rule="evenodd" clip-rule="evenodd" d="M9.00001 4.63635C9.42677 4.63635 9.77273 4.98231 9.77273 5.40908V8.49999C9.77273 8.92675 9.42677 9.27272 9.00001 9.27272C8.57324 9.27272 8.22728 8.92675 8.22728 8.49999V5.40908C8.22728 4.98231 8.57324 4.63635 9.00001 4.63635Z" fill="#5F6F86"/>
<path fill-rule="evenodd" clip-rule="evenodd" d="M8.22728 11.5909C8.22728 11.1641 8.57324 10.8182 9.00001 10.8182H9.00773C9.4345 10.8182 9.78046 11.1641 9.78046 11.5909C9.78046 12.0177 9.4345 12.3636 9.00773 12.3636H9.00001C8.57324 12.3636 8.22728 12.0177 8.22728 11.5909Z" fill="#5F6F86"/>
</svg>
