<svg width="12" height="13" viewBox="0 0 12 13" fill="none" xmlns="http://www.w3.org/2000/svg">
<path fill-rule="evenodd" clip-rule="evenodd" d="M4.9626 0.939543C5.1861 0.795594 5.43825 0.719971 5.69474 0.719971C5.95122 0.719971 6.20337 0.795594 6.42687 0.939543C6.65037 1.08349 6.83766 1.29091 6.97068 1.54178L6.97211 1.54448L11.1854 9.5912L11.1895 9.59906C11.3198 9.85722 11.3887 10.1499 11.3895 10.448C11.3902 10.7461 11.3227 11.0392 11.1936 11.2982C11.0646 11.5572 10.8785 11.773 10.654 11.9242C10.4294 12.0754 10.1741 12.1566 9.91354 12.1599L9.90808 12.16L1.47593 12.1599C1.21536 12.1567 0.960095 12.0754 0.735514 11.9242C0.510932 11.773 0.324866 11.5572 0.195827 11.2982C0.066789 11.0392 -0.000723744 10.7461 5.85124e-06 10.448C0.000735476 10.1499 0.0696822 9.85722 0.199986 9.59906L0.204027 9.5912L4.41879 1.54178C4.55181 1.2909 4.73911 1.08349 4.9626 0.939543ZM5.69474 1.85812C5.60924 1.85812 5.52519 1.88333 5.45069 1.93131C5.37653 1.97908 5.31433 2.04781 5.27002 2.13092L1.0599 10.1715C1.01753 10.2567 0.995128 10.3531 0.994888 10.4512C0.994645 10.5506 1.01715 10.6483 1.06016 10.7346C1.10317 10.8209 1.1652 10.8929 1.24006 10.9432C1.31426 10.9932 1.39852 11.0203 1.48458 11.0218H9.9049C9.99095 11.0203 10.0752 10.9932 10.1494 10.9432C10.2243 10.8929 10.2863 10.8209 10.3293 10.7346C10.3723 10.6483 10.3948 10.5506 10.3946 10.4512C10.3943 10.3531 10.3719 10.2568 10.3296 10.1715L6.12005 2.13206C6.11985 2.13168 6.11965 2.1313 6.11945 2.13092C6.07515 2.04781 6.01294 1.97908 5.93878 1.93131C5.86428 1.88333 5.78023 1.85812 5.69474 1.85812Z" fill="#F40009"/>
<path fill-rule="evenodd" clip-rule="evenodd" d="M5.69471 4.19287C5.96944 4.19287 6.19215 4.44765 6.19215 4.76195V7.03824C6.19215 7.35254 5.96944 7.60732 5.69471 7.60732C5.41998 7.60732 5.19727 7.35254 5.19727 7.03824V4.76195C5.19727 4.44765 5.41998 4.19287 5.69471 4.19287Z" fill="#F40009"/>
<path fill-rule="evenodd" clip-rule="evenodd" d="M5.19727 9.31468C5.19727 9.00039 5.41998 8.74561 5.69471 8.74561H5.69968C5.97441 8.74561 6.19713 9.00039 6.19713 9.31468C6.19713 9.62897 5.97441 9.88375 5.69968 9.88375H5.69471C5.41998 9.88375 5.19727 9.62897 5.19727 9.31468Z" fill="#F40009"/>
</svg>
