<svg width="55" height="56" viewBox="0 0 55 56" fill="none" xmlns="http://www.w3.org/2000/svg">
<path d="M27.5 53C41.3071 53 52.5 41.8071 52.5 28C52.5 14.1929 41.3071 3 27.5 3C13.6929 3 2.5 14.1929 2.5 28C2.5 41.8071 13.6929 53 27.5 53Z" stroke="url(#paint0_linear_2821_16903)" stroke-width="5" stroke-linecap="round" stroke-linejoin="round"/>
<path d="M37.5 38C37.5 38 33.75 33 27.5 33C21.25 33 17.5 38 17.5 38" stroke="url(#paint1_linear_2821_16903)" stroke-width="5" stroke-linecap="round" stroke-linejoin="round"/>
<path d="M20 20.5H20.025" stroke="url(#paint2_linear_2821_16903)" stroke-width="5" stroke-linecap="round" stroke-linejoin="round"/>
<path d="M35 20.5H35.025" stroke="url(#paint3_linear_2821_16903)" stroke-width="5" stroke-linecap="round" stroke-linejoin="round"/>
<defs>
<linearGradient id="paint0_linear_2821_16903" x1="-22.5" y1="28" x2="27.5" y2="78" gradientUnits="userSpaceOnUse">
<stop stop-color="#AF0101"/>
<stop offset="1" stop-color="#F00000"/>
</linearGradient>
<linearGradient id="paint1_linear_2821_16903" x1="7.5" y1="35.5" x2="9.85294" y2="44.9118" gradientUnits="userSpaceOnUse">
<stop stop-color="#AF0101"/>
<stop offset="1" stop-color="#F00000"/>
</linearGradient>
<linearGradient id="paint2_linear_2821_16903" x1="19.9875" y1="21" x2="20.0375" y2="21.0012" gradientUnits="userSpaceOnUse">
<stop stop-color="#AF0101"/>
<stop offset="1" stop-color="#F00000"/>
</linearGradient>
<linearGradient id="paint3_linear_2821_16903" x1="34.9875" y1="21" x2="35.0375" y2="21.0012" gradientUnits="userSpaceOnUse">
<stop stop-color="#AF0101"/>
<stop offset="1" stop-color="#F00000"/>
</linearGradient>
</defs>
</svg>
