<svg width="41" height="42" viewBox="0 0 41 42" fill="none" xmlns="http://www.w3.org/2000/svg">
<ellipse cx="20.25" cy="21.2094" rx="20.25" ry="20.1995" fill="#E8EBF7"/>
<g opacity="0.8">
<g opacity="0.3">
<path d="M26.1728 8.34565H18.5678C18.3703 8.34565 18.2222 8.19751 18.2222 7.99998C18.2222 7.80244 18.3703 7.6543 18.5678 7.6543H26.2222C26.4197 7.6543 26.5678 7.80244 26.5678 7.99998C26.5185 8.19751 26.3703 8.34565 26.1728 8.34565Z" fill="#999999"/>
<path d="M16.1481 8.34565H14.6666C14.4691 8.34565 14.3209 8.19751 14.3209 7.99998C14.3209 7.80244 14.4691 7.6543 14.6666 7.6543H16.1481C16.3456 7.6543 16.4938 7.80244 16.4938 7.99998C16.4444 8.19751 16.2962 8.34565 16.1481 8.34565Z" fill="#999999"/>
<path fill-rule="evenodd" clip-rule="evenodd" d="M14.6172 6.02467H15.3085V5.33331H14.6172V6.02467ZM16.6419 6.02467H15.9505V5.33331H16.6419V6.02467ZM17.2839 6.02467H17.9752V5.33331H17.2839V6.02467ZM19.3085 6.02467H18.6172V5.33331H19.3085V6.02467ZM19.9505 6.02467H20.6419V5.33331H19.9505V6.02467ZM21.2839 6.02467H21.9752V5.33331H21.2839V6.02467Z" fill="#999999"/>
</g>
<g opacity="0.3">
<path d="M26.1728 37.6296H18.5678C18.3703 37.6296 18.2222 37.4814 18.2222 37.2839C18.2222 37.0864 18.3703 36.9382 18.5678 36.9382H26.2222C26.4197 36.9382 26.5678 37.0864 26.5678 37.2839C26.5678 37.4814 26.3703 37.6296 26.1728 37.6296Z" fill="#999999"/>
<path d="M16.1481 37.6296H14.6666C14.4691 37.6296 14.3209 37.4814 14.3209 37.2839C14.3209 37.0864 14.4691 36.9382 14.6666 36.9382H16.1481C16.3456 36.9382 16.4938 37.0864 16.4938 37.2839C16.4444 37.4814 16.2962 37.6296 16.1481 37.6296Z" fill="#999999"/>
<path fill-rule="evenodd" clip-rule="evenodd" d="M14.6172 35.3086H15.3085V34.6172H14.6172V35.3086ZM16.6419 35.3086H15.9505V34.6172H16.6419V35.3086ZM17.2839 35.3086H17.9752V34.6172H17.2839V35.3086ZM19.3085 35.3086H18.6172V34.6172H19.3085V35.3086ZM19.9505 35.3086H20.6419V34.6172H19.9505V35.3086ZM21.2839 35.3086H21.9752V34.6172H21.2839V35.3086Z" fill="#999999"/>
</g>
</g>
<g opacity="0.2">
<path d="M36.5432 20.5926H30.716C30.5679 20.5926 30.4691 20.4938 30.4691 20.3457C30.4691 20.1975 30.5679 20.0988 30.716 20.0988H36.5432C36.6913 20.0988 36.7901 20.1975 36.7901 20.3457C36.7901 20.4938 36.6913 20.5926 36.5432 20.5926Z" fill="#999999"/>
<path d="M33.6296 19.1605H27.8025C27.6543 19.1605 27.5555 19.0617 27.5555 18.9135C27.5555 18.7654 27.6543 18.6666 27.8025 18.6666H33.6296C33.7778 18.6666 33.8765 18.7654 33.8765 18.9135C33.9259 19.0617 33.7778 19.1605 33.6296 19.1605Z" fill="#999999"/>
<path d="M12.5432 20.5926H6.71603C6.56788 20.5926 6.46912 20.4938 6.46912 20.3457C6.46912 20.1975 6.56788 20.0988 6.71603 20.0988H12.5432C12.6913 20.0988 12.7901 20.1975 12.7901 20.3457C12.7901 20.4938 12.642 20.5926 12.5432 20.5926Z" fill="#999999"/>
<path d="M9.62962 19.1605H3.80246C3.65431 19.1605 3.55554 19.0617 3.55554 18.9135C3.55554 18.7654 3.65431 18.6666 3.80246 18.6666H9.62962C9.77776 18.6666 9.87653 18.7654 9.87653 18.9135C9.87653 19.0617 9.72838 19.1605 9.62962 19.1605Z" fill="#999999"/>
</g>
<path d="M10.6169 13.5679L10.8129 24.1514L30.804 22.9755V13.1759C30.804 13.1759 30.804 12.784 30.412 12.392C30.0201 12 29.6281 12 29.6281 12H11.7929C11.7929 12 11.4009 12 11.0089 12.588C10.6169 13.1759 10.6169 13.5679 10.6169 13.5679Z" fill="#FA8084" stroke="#FA8084"/>
<rect x="17.0846" y="12.9799" width="13.3274" height="10.5835" rx="2" fill="#FEF8EC"/>
<rect x="11.2048" y="14.5479" width="17.6392" height="10.1915" rx="1" fill="#FBEDCF"/>
<path d="M31 30.0312H10.6169L9.049 18.4677C9.049 18.4677 8.85301 17.6837 9.24499 17.2918C9.63697 16.8998 10.2249 16.8998 10.2249 16.8998H19.8285L21.5924 18.4677H30.804L31 30.0312Z" fill="#F40009" stroke="#F40009"/>
<rect x="13.1648" y="21.9955" width="12.9354" height="0.391983" rx="0.195992" fill="#FBEDCF"/>
<rect x="14.7328" y="22.7795" width="10.1915" height="0.391983" rx="0.195992" fill="#FEF8EC"/>
</svg>
