<svg width="39" height="39" viewBox="0 0 39 39" fill="none" xmlns="http://www.w3.org/2000/svg">
<path d="M19.5 38.5C29.9934 38.5 38.5 29.9934 38.5 19.5C38.5 9.00659 29.9934 0.5 19.5 0.5C9.00659 0.5 0.5 9.00659 0.5 19.5C0.5 29.9934 9.00659 38.5 19.5 38.5Z" fill="#E8EBF7"/>
<g opacity="0.6">
<g opacity="0.8">
<g opacity="0.3">
<path d="M25.3402 7.02691H17.9766C17.7866 7.02691 17.644 6.88617 17.644 6.69851C17.644 6.51086 17.7866 6.37012 17.9766 6.37012H25.3402C25.5303 6.37012 25.6728 6.51086 25.6728 6.69851C25.6728 6.88617 25.5303 7.02691 25.3402 7.02691Z" fill="#999999"/>
<path d="M15.6489 7.02691H14.2237C14.0336 7.02691 13.8911 6.88617 13.8911 6.69851C13.8911 6.51086 14.0336 6.37012 14.2237 6.37012H15.6489C15.8389 6.37012 15.9814 6.51086 15.9814 6.69851C15.9814 6.88617 15.8389 7.02691 15.6489 7.02691Z" fill="#999999"/>
<path fill-rule="evenodd" clip-rule="evenodd" d="M14.2236 4.82183H14.8887V4.16504H14.2236V4.82183ZM16.1714 4.82183H15.5063V4.16504H16.1714V4.82183ZM16.789 4.82183H17.4541V4.16504H16.789V4.82183ZM18.7368 4.82183H18.0717V4.16504H18.7368V4.82183ZM19.3544 4.82183H20.0195V4.16504H19.3544V4.82183ZM20.6371 4.82183H21.3022V4.16504H20.6371V4.82183Z" fill="#999999"/>
</g>
<g opacity="0.3">
<path d="M25.3402 34.8936H17.9766C17.7866 34.8936 17.644 34.7529 17.644 34.5652C17.644 34.3776 17.7866 34.2368 17.9766 34.2368H25.3402C25.5303 34.2368 25.6728 34.3776 25.6728 34.5652C25.6728 34.7529 25.5303 34.8936 25.3402 34.8936Z" fill="#999999"/>
<path d="M15.6489 34.8936H14.2237C14.0336 34.8936 13.8911 34.7529 13.8911 34.5652C13.8911 34.3776 14.0336 34.2368 14.2237 34.2368H15.6489C15.8389 34.2368 15.9814 34.3776 15.9814 34.5652C15.9814 34.7529 15.8389 34.8936 15.6489 34.8936Z" fill="#999999"/>
<path fill-rule="evenodd" clip-rule="evenodd" d="M16.1714 32.6885H15.5063V32.0317H16.1714V32.6885ZM16.789 32.6885H17.4541V32.0317H16.789V32.6885ZM18.7368 32.6885H18.0717V32.0317H18.7368V32.6885ZM19.3544 32.6885H20.0195V32.0317H19.3544V32.6885ZM20.6371 32.6885H21.3022V32.0317H20.6371V32.6885ZM14.2236 32.6885H14.8887V32.0317H14.2236V32.6885Z" fill="#999999"/>
</g>
</g>
<g opacity="0.2">
<path d="M35.317 18.7079H29.7112C29.5686 18.7079 29.4736 18.6141 29.4736 18.4733C29.4736 18.3326 29.5686 18.2388 29.7112 18.2388H35.317C35.4596 18.2388 35.5546 18.3326 35.5546 18.4733C35.5546 18.5672 35.4596 18.7079 35.317 18.7079Z" fill="#999999"/>
<path d="M32.5143 17.3476H26.9084C26.7659 17.3476 26.6709 17.2537 26.6709 17.113C26.6709 16.9722 26.7659 16.8784 26.9084 16.8784H32.5143C32.6568 16.8784 32.7519 16.9722 32.7519 17.113C32.7519 17.2537 32.6568 17.3476 32.5143 17.3476Z" fill="#999999"/>
<path d="M12.1808 18.7079H6.57494C6.43242 18.7079 6.3374 18.6141 6.3374 18.4733C6.3374 18.3326 6.43242 18.2388 6.57494 18.2388H12.1808C12.3233 18.2388 12.4184 18.3326 12.4184 18.4733C12.4184 18.5672 12.3233 18.7079 12.1808 18.7079Z" fill="#999999"/>
<path d="M9.37808 17.3476H3.77221C3.62968 17.3476 3.53467 17.2537 3.53467 17.113C3.53467 16.9722 3.62968 16.8784 3.77221 16.8784H9.37808C9.52061 16.8784 9.61562 16.9722 9.61562 17.113C9.61562 17.2537 9.52061 17.3476 9.37808 17.3476Z" fill="#999999"/>
</g>
</g>
<path d="M27.1519 32.1663C27.1519 32.1663 27.5183 32.4151 28.2742 32.1663C28.2742 32.1663 28.5262 31.9174 28.801 32.1663C28.801 32.1663 29.1675 32.3246 29.786 32.1663C29.786 32.1663 30.5189 32.3246 31.0687 30.7865C31.0687 30.7865 31.2519 30.1305 31.0687 28.4341L30.5418 16.8079C30.5418 16.8079 30.2212 16.6496 30.4273 16.2198C30.4273 16.2198 32.2139 12.7591 29.4882 10.3389H27.1977L27.1519 32.1663Z" fill="#00CC76"/>
<path d="M27.2204 32.1663C27.2204 32.1663 26.8539 32.4151 26.0981 32.1663C26.0981 32.1663 25.8461 31.9174 25.5712 32.1663C25.5712 32.1663 25.2048 32.3246 24.5863 32.1663C24.5863 32.1663 23.8533 32.3246 23.3036 30.7865C23.3036 30.7865 23.1204 30.1305 23.3036 28.4341L23.8304 16.8079C23.8304 16.8079 24.1511 16.6496 23.945 16.2198C23.945 16.2198 22.1583 12.7591 24.8841 10.3389H27.1746L27.2204 32.1663Z" fill="#C3DC4B"/>
<path d="M27.1748 10.3389H29.4653C29.4653 10.3389 29.1676 9.86393 28.6637 9.47941V9.07227H27.1748V10.3389Z" fill="#CCCCCC"/>
<path d="M27.1748 10.3389H24.8843C24.8843 10.3389 25.182 9.86393 25.686 9.47941V9.07227H27.1748V10.3389Z" fill="#E2D7D1"/>
<path d="M28.8009 7.30811H25.5713V8.77834H28.8009V7.30811Z" fill="#0099CC"/>
<path d="M24.4492 23.7974L27.175 24.2724L29.9465 23.7974V28.7736H24.4492V23.7974Z" fill="#1C1C17"/>
<path d="M29.9463 24.1367V23.4355C29.9463 23.4355 28.6865 23.2998 27.1289 24.0688L27.839 24.5212C27.839 24.5212 29.3049 24.0688 29.9463 24.1367Z" fill="#00BB6C"/>
<path d="M24.4263 24.1367V23.4355C24.4263 23.4355 26.8542 23.4355 27.9537 24.4986C27.9537 24.4986 27.4727 24.6344 27.2207 24.8605C27.2207 24.8605 26.0525 24.0915 24.4263 24.1367Z" fill="#009966"/>
<path d="M25.5944 18.5951C25.1592 19.0248 24.9302 19.5903 24.9302 20.201C24.9302 20.8117 25.1821 21.3772 25.6173 21.807C26.0525 22.2367 26.6252 22.4629 27.2436 22.4629V17.9165C26.6023 17.9165 26.0296 18.1653 25.5944 18.5951Z" fill="#C47E4E"/>
<path d="M28.8469 21.8068C29.2821 21.3771 29.5112 20.8116 29.5112 20.2009C29.5112 19.5902 29.2592 19.0247 28.824 18.5949C28.3888 18.1652 27.8162 17.939 27.1978 17.939V22.4854C27.8391 22.4854 28.4117 22.2366 28.8469 21.8068Z" fill="#A05F4B"/>
<path d="M27.2207 22.1913C26.671 22.1913 26.1671 21.9878 25.7777 21.6032C25.3883 21.2187 25.1821 20.7211 25.1821 20.1782C25.1821 19.6354 25.3883 19.1378 25.7777 18.7532C26.1671 18.3687 26.671 18.1651 27.2207 18.1651C27.2207 18.1425 27.1978 22.1913 27.2207 22.1913Z" fill="#C3DC4B"/>
<path d="M27.1978 18.1427C27.7475 18.1427 28.2514 18.3462 28.6408 18.7308C29.0302 19.1153 29.2363 19.6129 29.2363 20.1558C29.2363 20.6986 29.0302 21.1962 28.6408 21.5808C28.2514 21.9653 27.7475 22.1689 27.1978 22.1689C27.2207 22.1915 27.2207 18.1201 27.1978 18.1427Z" fill="#00CC76"/>
<path d="M26.5337 20.201C26.5337 20.5629 26.8315 20.8796 27.2209 20.8796V19.5225C26.8315 19.5225 26.5337 19.8391 26.5337 20.201Z" fill="#00CC76"/>
<path d="M26.8086 20.2011C26.8086 20.4273 26.9918 20.6082 27.2209 20.6082V19.7939C26.9918 19.7939 26.8086 19.9749 26.8086 20.2011Z" fill="#FFF5F5"/>
<path d="M27.9079 20.201C27.9079 19.8391 27.6101 19.5225 27.2207 19.5225V20.8796C27.5872 20.8796 27.9079 20.5629 27.9079 20.201Z" fill="#009986"/>
<path d="M27.633 20.2011C27.633 19.9749 27.4498 19.7939 27.2207 19.7939V20.6082C27.4498 20.6082 27.633 20.4273 27.633 20.2011Z" fill="#FFF5F5"/>
<path d="M12.4697 32.1663C12.4697 32.1663 12.8362 32.4151 13.5921 32.1663C13.5921 32.1663 13.844 31.9174 14.1189 32.1663C14.1189 32.1663 14.4854 32.3246 15.1038 32.1663C15.1038 32.1663 15.8368 32.3246 16.3865 30.7865C16.3865 30.7865 16.5698 30.1305 16.3865 28.4341L15.8597 16.8079C15.8597 16.8079 15.539 16.6496 15.7452 16.2198C15.7452 16.2198 17.5318 12.7591 14.8061 10.3389H12.5155L12.4697 32.1663Z" fill="#AA4248"/>
<path d="M12.5153 32.1663C12.5153 32.1663 12.1489 32.4151 11.393 32.1663C11.393 32.1663 11.141 31.9174 10.8662 32.1663C10.8662 32.1663 10.4997 32.3246 9.88123 32.1663C9.88123 32.1663 9.14826 32.3246 8.59853 30.7865C8.59853 30.7865 8.41529 30.1305 8.59853 28.4341L9.12535 16.8079C9.12535 16.8079 9.44603 16.6496 9.23988 16.2198C9.23988 16.2198 7.45326 12.7591 10.179 10.3389H12.4695L12.5153 32.1663Z" fill="#CC3333"/>
<path d="M12.4927 10.3389H14.7832C14.7832 10.3389 14.4854 9.86393 13.9815 9.47941V9.07227H12.4927V10.3389Z" fill="#CCCCCC"/>
<path d="M12.4922 10.3389H10.2017C10.2017 10.3389 10.4994 9.86393 11.0033 9.47941V9.07227H12.4922V10.3389Z" fill="#E2D7D1"/>
<path d="M14.1188 7.30811H10.8892V8.77834H14.1188V7.30811Z" fill="#0099CC"/>
<path d="M9.7666 23.7974L12.4923 24.2724L15.2639 23.7974V28.7736H9.7666V23.7974Z" fill="#1C1C17"/>
<path d="M15.2636 24.1367V23.4355C15.2636 23.4355 14.0039 23.2998 12.4463 24.0688L13.1564 24.5212C13.1564 24.5212 14.6223 24.0688 15.2636 24.1367Z" fill="#00BB6C"/>
<path d="M9.74365 24.1367V23.4355C9.74365 23.4355 12.1716 23.4355 13.2711 24.4986C13.2711 24.4986 12.7901 24.6344 12.5381 24.8605C12.5381 24.8605 11.3699 24.0915 9.74365 24.1367Z" fill="#009966"/>
<path d="M12.4695 17.7353C12.4008 17.577 12.2863 17.4639 12.1488 17.3734L11.7365 17.1246C11.6907 17.0794 11.5991 17.102 11.5762 17.1698C11.3471 17.5544 11.4617 18.052 11.8511 18.3008L12.2634 18.5496C12.3092 18.5948 12.4008 18.5722 12.4237 18.5044C12.584 18.2556 12.584 17.9615 12.4695 17.7353Z" fill="#4EC95F"/>
<path d="M12.6297 17.7353C12.6984 17.577 12.813 17.4639 12.9504 17.3734L13.3627 17.1246C13.4085 17.0794 13.5001 17.102 13.523 17.1698C13.7521 17.5544 13.6376 18.052 13.2482 18.3008L12.8359 18.5496C12.7901 18.5948 12.6984 18.5722 12.6755 18.5044C12.5152 18.2556 12.5152 17.9615 12.6297 17.7353Z" fill="#14AA6B"/>
<path d="M12.5151 22.4853C12.1715 22.4853 11.6676 22.1686 11.2782 21.7163C10.7285 21.0829 10.4765 20.3365 10.4765 19.6353C10.4765 19.5222 10.4307 18.7758 11.2553 18.4591C11.6676 18.3008 12.1486 18.3008 12.5151 18.3008C12.8816 18.3008 13.3626 18.3008 13.7749 18.4591C14.5995 18.7758 14.5537 19.5448 14.5537 19.6353C14.5537 20.3591 14.3017 21.1055 13.752 21.7163C13.3626 22.1686 12.8587 22.4853 12.5151 22.4853Z" fill="#FF5C5C"/>
<path d="M13.775 21.7163C14.3247 21.0829 14.5767 20.3365 14.5767 19.6353C14.5767 19.5448 14.6225 18.7758 13.7979 18.4591C13.3856 18.3008 12.9046 18.3008 12.5381 18.3008V22.4853C12.8588 22.4853 13.3627 22.1686 13.775 21.7163Z" fill="#DC2663"/>
<path fill-rule="evenodd" clip-rule="evenodd" d="M12.0114 20.1328C12.103 20.1328 12.1717 20.2007 12.1717 20.2911C12.1717 20.3816 12.103 20.4495 12.0114 20.4495C11.9198 20.4495 11.8511 20.3816 11.8511 20.2911C11.8511 20.2007 11.9198 20.1328 12.0114 20.1328Z" fill="#AA4248"/>
<path d="M11.5075 19.6126C11.5961 19.6126 11.6678 19.5417 11.6678 19.4542C11.6678 19.3668 11.5961 19.2959 11.5075 19.2959C11.419 19.2959 11.3472 19.3668 11.3472 19.4542C11.3472 19.5417 11.419 19.6126 11.5075 19.6126Z" fill="#AA4248"/>
<path d="M12.5153 19.6126C12.6039 19.6126 12.6757 19.5417 12.6757 19.4542C12.6757 19.3668 12.6039 19.2959 12.5153 19.2959C12.4268 19.2959 12.355 19.3668 12.355 19.4542C12.355 19.5417 12.4268 19.6126 12.5153 19.6126Z" fill="#AA4248"/>
<path d="M12.5153 21.3089C12.6039 21.3089 12.6757 21.238 12.6757 21.1505C12.6757 21.0631 12.6039 20.9922 12.5153 20.9922C12.4268 20.9922 12.355 21.0631 12.355 21.1505C12.355 21.238 12.4268 21.3089 12.5153 21.3089Z" fill="#AA4248"/>
<path d="M13.5461 19.6126C13.6346 19.6126 13.7064 19.5417 13.7064 19.4542C13.7064 19.3668 13.6346 19.2959 13.5461 19.2959C13.4575 19.2959 13.3857 19.3668 13.3857 19.4542C13.3857 19.5417 13.4575 19.6126 13.5461 19.6126Z" fill="#AA4248"/>
<path fill-rule="evenodd" clip-rule="evenodd" d="M13.0422 20.1328C13.1338 20.1328 13.2025 20.2007 13.2025 20.2911C13.2025 20.3816 13.1338 20.4495 13.0422 20.4495C12.9506 20.4495 12.8818 20.3816 12.8818 20.2911C12.8818 20.2007 12.9506 20.1328 13.0422 20.1328Z" fill="#AA4248"/>
<path fill-rule="evenodd" clip-rule="evenodd" d="M12.6755 19.4542C12.6755 19.3638 12.6068 19.2959 12.5151 19.2959V19.6126C12.6068 19.6126 12.6755 19.5447 12.6755 19.4542Z" fill="#AA4248"/>
<path fill-rule="evenodd" clip-rule="evenodd" d="M12.6755 21.1505C12.6755 21.06 12.6068 20.9922 12.5151 20.9922V21.3089C12.6068 21.3089 12.6755 21.2184 12.6755 21.1505Z" fill="#AA4248"/>
<path d="M19.8682 33.2068C19.8682 33.2068 20.2576 33.4782 21.1051 33.2068C21.1051 33.2068 21.4028 32.9354 21.6777 33.2068C21.6777 33.2068 22.0671 33.3651 22.7771 33.2068C22.7771 33.2068 23.5788 33.3877 24.1973 31.6913C24.1973 31.6913 24.4034 30.9675 24.1973 29.0901L23.6017 16.2199C23.6017 16.2199 23.2582 16.0389 23.4643 15.5639C23.4643 15.5639 25.4342 11.7187 22.4336 9.07227H19.8911L19.8682 33.2068Z" fill="#FFAA02"/>
<path d="M19.9139 33.2068C19.9139 33.2068 19.5245 33.4782 18.677 33.2068C18.677 33.2068 18.3792 32.9354 18.1044 33.2068C18.1044 33.2068 17.715 33.3651 17.0049 33.2068C17.0049 33.2068 16.2032 33.3877 15.5848 31.6913C15.5848 31.6913 15.3786 30.9675 15.5848 29.0901L16.1803 16.2199C16.1803 16.2199 16.5239 16.0389 16.3178 15.5639C16.3178 15.5639 14.3479 11.7187 17.3485 9.07227H19.891L19.9139 33.2068Z" fill="#FAC801"/>
<path d="M19.8911 9.04984H22.4336C22.4336 9.04984 22.1129 8.50698 21.5403 8.09984V7.64746H19.8911V9.04984Z" fill="#CCCCCC"/>
<path d="M19.8911 9.04984H17.3486C17.3486 9.04984 17.6693 8.50698 18.2419 8.09984V7.64746H19.8911V9.04984Z" fill="#E2D7D1"/>
<path d="M21.6777 5.70215H18.1045V7.33072H21.6777V5.70215Z" fill="#1C1C17"/>
<path d="M16.8677 23.9556L19.8683 24.4532L22.9376 23.9556V29.452H16.8677V23.9556Z" fill="#1C1C17"/>
<path d="M22.9374 24.3176V23.5486C22.9374 23.5486 21.5402 23.3903 19.8223 24.2498L20.601 24.7474C20.601 24.7474 22.2273 24.2272 22.9374 24.3176Z" fill="#00BB6C"/>
<path d="M16.8447 24.3179V23.5488C16.8447 23.5488 19.5247 23.5488 20.7615 24.7024C20.7615 24.7024 20.2118 24.8607 19.937 25.1095C19.914 25.1095 18.6313 24.2726 16.8447 24.3179Z" fill="#009966"/>
<path d="M19.7534 15.5867C19.5243 15.4284 19.2495 15.3379 18.9517 15.3379H18.15C18.0355 15.3379 17.9438 15.4284 17.9438 15.5415C17.9438 16.3105 18.5852 16.9438 19.364 16.9438H20.1657C20.2802 16.9438 20.3718 16.8534 20.3718 16.7403C20.3718 16.2653 20.1199 15.8355 19.7534 15.5867Z" fill="#98D400"/>
<path d="M21.5858 16.3329C21.5858 16.446 21.4942 16.5364 21.3797 16.5364C20.6009 16.5364 19.9596 17.1698 19.9596 17.9388V18.1876C19.9596 18.3007 19.8679 18.3912 19.7534 18.3912V17.1245C20.0512 16.5365 20.6696 16.1519 21.3797 16.1519C21.4942 16.1293 21.5858 16.2198 21.5858 16.3329Z" fill="#8B432D"/>
<path d="M22.5023 19.9519C22.5023 21.3543 21.357 22.5079 19.914 22.5079C18.4939 22.5079 17.3257 21.3769 17.3257 19.9519C17.3257 18.5496 18.471 17.396 19.914 17.396C21.357 17.4186 22.5023 18.5496 22.5023 19.9519Z" fill="#FFA800"/>
<path d="M19.8682 17.4189C21.2883 17.4189 22.4565 18.5499 22.4565 19.9749C22.4565 21.3773 21.3112 22.5308 19.8682 22.5308V17.4189Z" fill="#FF6F00"/>
</svg>
