<svg width="17" height="14" viewBox="0 0 17 14" fill="none" xmlns="http://www.w3.org/2000/svg">
<path fill-rule="evenodd" clip-rule="evenodd" d="M1.51637 7.00002C1.59378 7.12743 1.69642 7.28979 1.82356 7.47728C2.15012 7.95884 2.63372 8.59923 3.26157 9.23704C4.53019 10.5258 6.30386 11.7222 8.50006 11.7222C10.6963 11.7222 12.4699 10.5258 13.7386 9.23704C14.3664 8.59923 14.85 7.95884 15.1766 7.47728C15.3037 7.28979 15.4063 7.12743 15.4838 7.00002C15.4063 6.87261 15.3037 6.71024 15.1766 6.52275C14.85 6.0412 14.3664 5.40081 13.7386 4.76299C12.4699 3.47424 10.6963 2.2778 8.50006 2.2778C6.30386 2.2778 4.53019 3.47424 3.26157 4.76299C2.63372 5.40081 2.15012 6.0412 1.82356 6.52275C1.69642 6.71024 1.59378 6.87261 1.51637 7.00002ZM16.2918 7.00002C16.9253 6.69833 16.9252 6.6981 16.9251 6.69785L16.924 6.69568L16.9215 6.69108L16.9135 6.67609C16.9067 6.66358 16.8972 6.64606 16.8848 6.62388C16.8602 6.57954 16.8244 6.51648 16.7777 6.43739C16.6844 6.2793 16.5469 6.0566 16.3666 5.79077C16.007 5.26043 15.4724 4.55161 14.7721 3.84022C13.3844 2.43055 11.2622 0.928589 8.50006 0.928589C5.73789 0.928589 3.6157 2.43055 2.22805 3.84022C1.52777 4.55161 0.993137 5.26043 0.633492 5.79077C0.45323 6.0566 0.315772 6.2793 0.222398 6.43739C0.175685 6.51648 0.139925 6.57954 0.115285 6.62388C0.102962 6.64606 0.0934123 6.66358 0.0866567 6.67609L0.0786185 6.69108L0.076174 6.69568L0.075346 6.69725C0.0752159 6.6975 0.0747813 6.69833 0.708338 7.00002L0.0747813 6.69833C-0.0249271 6.88825 -0.0249271 7.11179 0.0747813 7.30171L0.708338 7.00002C0.0747813 7.30171 0.0746511 7.30146 0.0747813 7.30171L0.076174 7.30435L0.0786185 7.30896L0.0866567 7.32395C0.0934123 7.33646 0.102962 7.35397 0.115285 7.37615C0.139925 7.4205 0.175685 7.48355 0.222398 7.56264C0.315772 7.72074 0.45323 7.94344 0.633492 8.20926C0.993137 8.73961 1.52777 9.44843 2.22805 10.1598C3.6157 11.5695 5.73789 13.0714 8.50006 13.0714C11.2622 13.0714 13.3844 11.5695 14.7721 10.1598C15.4724 9.44843 16.007 8.73961 16.3666 8.20926C16.5469 7.94344 16.6844 7.72074 16.7777 7.56264C16.8244 7.48355 16.8602 7.4205 16.8848 7.37615C16.8972 7.35397 16.9067 7.33646 16.9135 7.32395L16.9215 7.30896L16.924 7.30435L16.9248 7.30278C16.9249 7.30254 16.9253 7.30171 16.2918 7.00002ZM16.2918 7.00002L16.9253 7.30171C17.0251 7.11179 17.0248 6.88777 16.9251 6.69785L16.2918 7.00002Z" fill="#5F6F86"/>
<path fill-rule="evenodd" clip-rule="evenodd" d="M8.49998 5.78576C7.82935 5.78576 7.2857 6.32941 7.2857 7.00004C7.2857 7.67068 7.82935 8.21433 8.49998 8.21433C9.17061 8.21433 9.71427 7.67068 9.71427 7.00004C9.71427 6.32941 9.17061 5.78576 8.49998 5.78576ZM6.07141 7.00004C6.07141 5.65878 7.15872 4.57147 8.49998 4.57147C9.84125 4.57147 10.9286 5.65878 10.9286 7.00004C10.9286 8.34131 9.84125 9.42862 8.49998 9.42862C7.15872 9.42862 6.07141 8.34131 6.07141 7.00004Z" fill="#5F6F86"/>
</svg>
