<svg width="42" height="43" viewBox="0 0 42 43" fill="none" xmlns="http://www.w3.org/2000/svg">
<path d="M0 21.5518C0 33.1253 9.3975 42.5518 21 42.5518V0.551758C9.3975 0.551758 0 9.97819 0 21.5518Z" fill="#E8EBF7"/>
<path d="M20.9478 0.551758V42.5518C32.6028 42.5518 42.0003 33.1253 42.0003 21.5518C42.0003 9.97819 32.6028 0.551758 20.9478 0.551758Z" fill="#E8EBF7"/>
<g opacity="0.6">
<g opacity="0.8">
<g opacity="0.3">
<path d="M27.9821 7.25514H19.8446C19.6346 7.25514 19.4771 7.09803 19.4771 6.88856C19.4771 6.67908 19.6346 6.52197 19.8446 6.52197H27.9821C28.1921 6.52197 28.3496 6.67908 28.3496 6.88856C28.3496 7.09803 28.1921 7.25514 27.9821 7.25514Z" fill="#999999"/>
<path d="M17.2721 7.25514H15.6971C15.4871 7.25514 15.3296 7.09803 15.3296 6.88856C15.3296 6.67908 15.4871 6.52197 15.6971 6.52197H17.2721C17.4821 6.52197 17.6396 6.67908 17.6396 6.88856C17.6396 7.09803 17.4821 7.25514 17.2721 7.25514Z" fill="#999999"/>
<path fill-rule="evenodd" clip-rule="evenodd" d="M15.6973 4.79371H16.4323V4.06055H15.6973V4.79371ZM17.8498 4.79371H17.1148V4.06055H17.8498V4.79371ZM18.5322 4.79371H19.2672V4.06055H18.5322V4.79371ZM20.6848 4.79371H19.9498V4.06055H20.6848V4.79371ZM21.3673 4.79371H22.1023V4.06055H21.3673V4.79371ZM22.7847 4.79371H23.5197V4.06055H22.7847V4.79371Z" fill="#999999"/>
</g>
<g opacity="0.3">
<path d="M27.9821 38.3626H19.8446C19.6346 38.3626 19.4771 38.2055 19.4771 37.996C19.4771 37.7865 19.6346 37.6294 19.8446 37.6294H27.9821C28.1921 37.6294 28.3496 37.7865 28.3496 37.996C28.3496 38.2055 28.1921 38.3626 27.9821 38.3626Z" fill="#999999"/>
<path d="M17.2721 38.3626H15.6971C15.4871 38.3626 15.3296 38.2055 15.3296 37.996C15.3296 37.7865 15.4871 37.6294 15.6971 37.6294H17.2721C17.4821 37.6294 17.6396 37.7865 17.6396 37.996C17.6396 38.2055 17.4821 38.3626 17.2721 38.3626Z" fill="#999999"/>
<path fill-rule="evenodd" clip-rule="evenodd" d="M15.6973 35.9011H16.4323V35.168H15.6973V35.9011ZM17.8498 35.9011H17.1148V35.168H17.8498V35.9011ZM18.5322 35.9011H19.2672V35.168H18.5322V35.9011ZM20.6848 35.9011H19.9498V35.168H20.6848V35.9011ZM21.3673 35.9011H22.1023V35.168H21.3673V35.9011ZM22.7847 35.9011H23.5197V35.168H22.7847V35.9011Z" fill="#999999"/>
</g>
</g>
<g opacity="0.2">
<path d="M39.0073 20.2947H32.8123C32.6548 20.2947 32.5498 20.1899 32.5498 20.0328C32.5498 19.8757 32.6548 19.771 32.8123 19.771H39.0073C39.1648 19.771 39.2698 19.8757 39.2698 20.0328C39.2698 20.1376 39.1648 20.2947 39.0073 20.2947Z" fill="#999999"/>
<path d="M35.9096 18.7761H29.7146C29.5571 18.7761 29.4521 18.6714 29.4521 18.5143C29.4521 18.3572 29.5571 18.2524 29.7146 18.2524H35.9096C36.0671 18.2524 36.1721 18.3572 36.1721 18.5143C36.1721 18.6714 36.0671 18.7761 35.9096 18.7761Z" fill="#999999"/>
<path d="M13.4399 20.2947H7.24492C7.08742 20.2947 6.98242 20.1899 6.98242 20.0328C6.98242 19.8757 7.08742 19.771 7.24492 19.771H13.4399C13.5974 19.771 13.7024 19.8757 13.7024 20.0328C13.7024 20.1376 13.5974 20.2947 13.4399 20.2947Z" fill="#999999"/>
<path d="M10.3423 18.7761H4.14727C3.98977 18.7761 3.88477 18.6714 3.88477 18.5143C3.88477 18.3572 3.98977 18.2524 4.14727 18.2524H10.3423C10.4998 18.2524 10.6048 18.3572 10.6048 18.5143C10.6048 18.6714 10.4998 18.7761 10.3423 18.7761Z" fill="#999999"/>
</g>
</g>
<path d="M14.1753 34.9056H16.7478C18.5853 34.12 18.2178 31.9205 18.2178 31.9205L18.1653 31.6063V19.8233L18.2178 19.6138C18.3753 19.0901 18.1128 18.3569 18.1128 18.3569C17.6403 16.9953 17.6928 16.0003 17.6928 16.0003C17.4828 14.5864 16.2228 11.9155 16.2228 11.9155H14.1753V34.9056Z" fill="#ED7601"/>
<path d="M14.1751 34.9056H11.5501C9.71261 34.12 10.0801 31.9205 10.0801 31.9205L10.1326 31.6063V19.8233L10.0801 19.6138C9.92261 19.0901 10.1851 18.3569 10.1851 18.3569C10.6576 16.9953 10.6051 16.0003 10.6051 16.0003C10.8151 14.5864 12.0751 11.9155 12.0751 11.9155H14.1751V34.9056Z" fill="#F39635"/>
<path d="M12.1274 11.8633L12.9674 9.97804V9.55909L12.6524 9.34961H14.1749V11.8633H12.1274Z" fill="#DBDBDB"/>
<path d="M16.2228 11.8633L15.3303 9.97804V9.55909L15.6978 9.34961H14.1753V11.8633H16.2228Z" fill="#DBDBDB"/>
<rect x="12.8628" y="7.46436" width="2.52" height="1.62344" fill="#ED7601"/>
<rect x="10.1328" y="19.771" width="3.99" height="8.90274" fill="#FFCC66"/>
<rect x="14.1753" y="19.771" width="3.99" height="8.90274" fill="#F7AA00"/>
<path d="M14.8053 24.5367C14.8053 24.5891 14.7528 24.5891 14.7003 24.5891C14.6478 24.5891 14.6478 24.5367 14.5953 24.5367C14.3853 23.9083 13.9128 23.3846 13.3353 23.0704C12.8628 22.8085 12.2853 22.7038 11.8128 22.8609C11.7603 22.8609 11.7078 22.8609 11.6553 22.8085C11.6553 22.7561 11.6553 22.7038 11.7078 22.6514C12.1278 22.4419 12.5478 22.3372 12.9678 22.2848C13.7028 22.2325 14.7528 22.4419 15.0153 23.3322C15.1203 23.6988 15.1203 24.0654 14.9103 24.3796C14.9103 24.3796 14.8578 24.4843 14.8053 24.5367Z" fill="#213A8E"/>
<path d="M14.753 25.2698L14.438 24.2224C14.438 24.17 14.4905 24.0653 14.5955 24.0129C14.7005 23.9605 14.858 24.0129 14.858 24.0653L15.173 25.1127C15.173 25.165 15.1205 25.2698 15.0155 25.3221C14.858 25.3221 14.753 25.3221 14.753 25.2698Z" fill="#213A8E"/>
<path d="M11.7601 22.8086C12.2851 22.9657 12.3901 23.3323 12.4951 23.8036C12.5476 24.1179 12.6526 24.6416 13.1776 24.9034C13.7551 25.2176 14.4376 25.0605 14.8576 24.5368C14.8576 24.5368 14.8576 24.4844 14.9101 24.4844V24.4321C14.7001 23.7513 14.1751 23.1752 13.5451 22.8086C12.9676 22.4944 12.3376 22.3897 11.8126 22.5468C11.7601 22.5468 11.7076 22.5992 11.7601 22.6515C11.7076 22.7563 11.7076 22.7563 11.7601 22.8086Z" fill="#213A8E"/>
<path d="M14.7532 24.2749C14.7532 24.3272 14.7007 24.3272 14.6482 24.3272C14.5957 24.3272 14.5957 24.2749 14.5957 24.2749C14.4382 23.7512 14.0707 23.3322 13.5457 23.018C13.1782 22.8085 12.6532 22.7038 12.2857 22.8085C12.2332 22.8085 12.1807 22.8085 12.1807 22.7562C12.1807 22.7038 12.1807 22.6514 12.2332 22.6514C12.6007 22.4943 12.9157 22.3896 13.2832 22.3372C13.9132 22.2848 14.7532 22.4943 15.0157 23.2275C15.1207 23.4893 15.0682 23.8035 14.9632 24.0654C14.8057 24.1701 14.7532 24.2225 14.7532 24.2749Z" fill="#62B12F"/>
<path d="M14.8052 25.0607L14.5427 24.2751C14.5427 24.2228 14.5427 24.1704 14.5952 24.1704C14.6477 24.1704 14.7002 24.1704 14.7002 24.2228L14.9627 25.0083C14.9627 25.0607 14.9627 25.1131 14.9102 25.1131C14.9102 25.1131 14.8577 25.1131 14.8052 25.0607Z" fill="#9AC22B"/>
<path d="M12.1804 22.8611C12.6004 22.9659 12.7054 23.2801 12.7579 23.699C12.8104 23.9609 12.9154 24.3798 13.2829 24.6417C13.7554 24.9035 14.3329 24.7464 14.7004 24.3275C14.7004 24.3275 14.7004 24.2751 14.7529 24.2751V24.2227C14.5429 23.6467 14.1754 23.1753 13.5979 22.8611C13.1254 22.5993 12.6004 22.5469 12.1804 22.6516C12.1279 22.6516 12.1279 22.704 12.1279 22.7564C12.1279 22.8088 12.1279 22.8611 12.1804 22.8611Z" fill="#008C39"/>
<path d="M28.77 34.9056H31.3425C33.18 34.12 32.8125 31.9205 32.8125 31.9205L32.76 31.6063V19.8233L32.8125 19.6138C32.97 19.0901 32.7075 18.3569 32.7075 18.3569C32.235 16.9953 32.2875 16.0003 32.2875 16.0003C32.0775 14.5864 30.8175 11.9155 30.8175 11.9155H28.77V34.9056Z" fill="#009A42"/>
<path d="M28.7701 34.9056H26.1976C24.3601 34.12 24.7276 31.9205 24.7276 31.9205L24.7801 31.6063V19.8233L24.7276 19.6138C24.5701 19.0901 24.8326 18.3569 24.8326 18.3569C25.3051 16.9953 25.2526 16.0003 25.2526 16.0003C25.4626 14.5864 26.7226 11.9155 26.7226 11.9155H28.7701V34.9056Z" fill="#80D2A0"/>
<path d="M26.7227 11.8633L27.6152 9.97804V9.55909L27.2477 9.34961H28.7702V11.8633H26.7227Z" fill="#009B42"/>
<path d="M30.8175 11.8633L29.9775 9.97804V9.55909L30.2925 9.34961H28.77V11.8633H30.8175Z" fill="#16472A"/>
<rect x="27.5103" y="7.46436" width="2.52" height="1.62344" fill="#FEC500"/>
<rect x="24.9902" y="20.5044" width="7.56" height="1.5187" fill="#FEC500"/>
<rect x="24.9902" y="28.0454" width="7.56" height="0.523689" fill="#FEC500"/>
<path d="M19.4253 7.46436H22.2603V9.14017H19.4253V7.46436Z" fill="black"/>
<path d="M23.625 36.2673C23.625 36.2673 25.9875 34.8534 25.0425 32.6539V24.9032C25.0425 24.9032 25.3575 24.3795 25.2525 23.9082V17.6239C25.2525 17.6239 25.4625 17.205 25.1475 16.786C25.1475 16.786 24.36 12.5441 22.05 9.66383V9.14014H20.79V36.2673H23.625Z" fill="#711012"/>
<path d="M18.0076 36.2673C18.0076 36.2673 15.6451 34.8534 16.5901 32.6539V24.9032C16.5901 24.9032 16.2751 24.3795 16.3801 23.9082V17.6239C16.3801 17.6239 16.1701 17.205 16.4851 16.786C16.4851 16.786 17.2726 12.5441 19.5826 9.66383V9.14014H20.8426V36.2673H18.0076Z" fill="#B10012"/>
<rect x="16.3799" y="18.2002" width="4.4625" height="5.60349" fill="#FD0E22"/>
<rect x="20.79" y="18.2002" width="4.4625" height="5.60349" fill="#CD091C"/>
<rect x="16.3799" y="23.1753" width="8.8725" height="0.680798" fill="#7BB23E"/>
<rect x="16.3799" y="18.7759" width="8.8725" height="0.785536" fill="black"/>
</svg>
