<svg width="41" height="41" viewBox="0 0 41 41" fill="none" xmlns="http://www.w3.org/2000/svg">
<g clip-path="url(#clip0_3397_34848)">
<path d="M20.5 40.5C31.5457 40.5 40.5 31.5457 40.5 20.5C40.5 9.4543 31.5457 0.5 20.5 0.5C9.4543 0.5 0.5 9.4543 0.5 20.5C0.5 31.5457 9.4543 40.5 20.5 40.5Z" fill="#E8EBF7"/>
<rect x="25.5728" y="9.5" width="2.51395" height="1.11314" fill="#003D25"/>
<rect x="25.5728" y="10.502" width="2.51395" height="1.89234" fill="#155C31"/>
<path d="M22.5 34.0446V16.3457C22.5 16.3457 22.6117 14.1194 24.8464 14.1194C24.8464 14.1194 24.6788 13.3402 25.5726 13.3402V12.394H26.8575L26.9134 34.8238C26.8575 34.8794 23.338 35.2134 22.5 34.0446Z" fill="#FEC300"/>
<path d="M31.159 34.0446V16.3457C31.159 16.3457 31.0473 14.1194 28.8126 14.1194C28.8126 14.1194 28.9802 13.3402 28.0864 13.3402V12.394H26.8015L26.7456 34.8238C26.8015 34.8794 30.2651 35.2134 31.159 34.0446Z" fill="#FE9F00"/>
<path d="M24.3433 27.7554V20.9653L25.7399 20.353L29.2594 21.4105V26.364L24.3433 27.7554Z" fill="#155C31"/>
<path d="M24.3994 28.6462V27.9784L29.2597 26.6982V28.6462H24.3994Z" fill="#155C31"/>
<rect x="24.3433" y="28.98" width="4.91617" height="1.78102" fill="#155C31"/>
<path d="M15.4388 18.5254C15.2795 17.4301 14.9011 12.1726 14.9011 12.1726C15.1202 12.0929 15.0804 11.7544 14.9609 11.4158C14.8414 11.0972 14.8414 10.7985 14.8414 10.7985L13.6465 10.6392L12.4516 10.7985C12.4516 10.7985 12.4516 11.0972 12.3322 11.4158C12.2127 11.7345 12.1728 12.073 12.3919 12.1726C12.3919 12.1726 12.0334 17.4301 11.8542 18.5254C11.5754 20.3974 10.5 20.4173 10.5 22.1897C10.5 23.4244 10.5 33.0432 10.5 33.8995C10.5 35.0745 11.5754 35.2139 13.6465 35.2139C15.7176 35.2139 16.793 35.0745 16.793 33.8995C16.793 33.0432 16.793 23.4244 16.793 22.1897C16.813 20.4173 15.7376 20.3974 15.4388 18.5254Z" fill="#93AE1D"/>
<path opacity="0.2" d="M13.7262 10.6591L13.6465 10.6392L12.4516 10.7985C12.4516 10.7985 12.4516 11.0972 12.3322 11.4158C12.2127 11.7345 12.1728 12.073 12.3919 12.1726C12.3919 12.1726 12.0334 17.4301 11.8542 18.5254C11.5754 20.3974 10.5 20.4173 10.5 22.1897C10.5 23.4244 10.5 33.0432 10.5 33.8995C10.5 35.0745 11.5754 35.2139 13.6465 35.2139C13.6664 35.2139 13.7063 35.2139 13.7262 35.2139V10.6591Z" fill="white"/>
<path d="M16.4745 24.8189C16.3749 24.5002 16.116 24.4803 16.116 24.4803C15.1801 23.8032 13.9055 23.8032 13.6665 23.8032C13.4076 23.8032 12.153 23.8032 11.217 24.4803C11.217 24.4803 10.9581 24.5202 10.8586 24.8189H10.52V29.459C10.52 29.459 10.6594 29.9569 11.1573 30.0365C11.1573 30.0365 11.3166 30.0963 11.3963 30.2357C11.3963 30.2357 11.5357 30.4746 11.8742 30.4746C11.8742 30.4746 12.1729 30.5145 12.4717 30.8331C12.4717 30.8331 13.1288 31.2513 13.6466 31.2911C13.6665 31.2911 13.6665 31.2911 13.6865 31.2911C13.7064 31.2911 13.7064 31.2911 13.7263 31.2911C14.264 31.2513 14.9012 30.8331 14.9012 30.8331C15.2 30.4946 15.4987 30.4746 15.4987 30.4746C15.8372 30.4946 15.9766 30.2357 15.9766 30.2357C16.0762 30.0963 16.2156 30.0365 16.2156 30.0365C16.7135 29.9369 16.8529 29.459 16.8529 29.459V24.8189H16.4745Z" fill="white"/>
<path d="M11.9937 17.3109L12.2326 10.9581C12.2326 10.9581 13.7661 10.7031 15.0207 10.942L15.3194 17.3347C15.3194 17.3347 14.941 17.2312 14.6622 17.5499C14.3834 17.8685 14.2241 18.0477 13.6864 18.0477C13.1487 18.0677 12.9695 18.0278 12.5313 17.5698C12.5114 17.5897 12.4517 17.2711 11.9937 17.3109Z" fill="#FEFFE4"/>
<path d="M13.6065 15.9962L13.6862 15.1997L13.965 15.3789L13.8057 15.0802L14.2438 15.0204L13.8057 14.9408L13.965 14.642L13.7061 14.8014L13.6065 13.9849L13.5468 14.7815L13.248 14.6221L13.4074 14.9009L12.9692 14.9806L13.4273 15.0802L13.248 15.3789L13.5268 15.2196L13.6065 15.9962Z" fill="#C22537"/>
<path d="M14.6823 10.5C14.3637 10.5 13.6467 10.5 13.6467 10.5C13.6467 10.5 12.9298 10.5 12.6112 10.5C12.2925 10.5 12.2129 11.0178 12.2129 11.0178C12.2129 11.0178 12.4718 11.0775 13.6467 11.0775C14.8217 11.0775 15.0806 11.0178 15.0806 11.0178C15.0806 11.0178 15.0009 10.5 14.6823 10.5Z" fill="#D5BA4A"/>
<path d="M14.4832 11.0177C14.4832 10.9381 14.4035 10.8584 14.3239 10.8584C14.2442 10.8584 14.1646 10.9381 14.1646 11.0177C14.1646 11.0376 14.1646 11.0575 14.1646 11.0575C14.284 11.0575 14.4035 11.0575 14.4832 11.0575C14.4832 11.0575 14.4832 11.0376 14.4832 11.0177Z" fill="#D5BA4A"/>
<path d="M14.0452 11.0377C14.0452 10.9581 13.9655 10.8784 13.8859 10.8784C13.8062 10.8784 13.7266 10.9581 13.7266 11.0377C13.7266 11.0577 13.7266 11.0776 13.7266 11.0776C13.8461 11.0776 13.9456 11.0776 14.0452 11.0776C14.0452 11.0577 14.0452 11.0577 14.0452 11.0377Z" fill="#D5BA4A"/>
<path d="M14.9216 10.9977C14.9216 10.918 14.8419 10.8384 14.7423 10.8384C14.6627 10.8384 14.583 10.918 14.583 11.0176C14.583 11.0375 14.583 11.0574 14.583 11.0774C14.7224 11.0774 14.8419 11.0574 14.9016 11.0574C14.9216 11.0176 14.9216 11.0176 14.9216 10.9977Z" fill="#D5BA4A"/>
<path d="M13.4474 10.8784C13.3677 10.8784 13.2881 10.9581 13.2881 11.0377C13.2881 11.0577 13.2881 11.0776 13.2881 11.0776C13.3877 11.0776 13.5071 11.0776 13.6067 11.0776C13.6067 11.0577 13.6067 11.0577 13.6067 11.0377C13.6067 10.9382 13.5271 10.8784 13.4474 10.8784Z" fill="#D5BA4A"/>
<path d="M13.0094 10.8584C12.9298 10.8584 12.8501 10.9181 12.8501 11.0177C12.8501 11.0376 12.8501 11.0575 12.8501 11.0775C12.9497 11.0775 13.0492 11.0775 13.1687 11.0775C13.1687 11.0575 13.1687 11.0575 13.1687 11.0376C13.1687 10.9381 13.0891 10.8584 13.0094 10.8584Z" fill="#D5BA4A"/>
<path d="M12.392 11.0374C12.4716 11.0374 12.5712 11.0573 12.7106 11.0573C12.7106 11.0374 12.7106 11.0175 12.7106 10.9976C12.7106 10.9179 12.6509 10.8383 12.5513 10.8184C12.4716 10.8184 12.392 10.8781 12.3721 10.9777C12.392 11.0175 12.392 11.0175 12.392 11.0374Z" fill="#D5BA4A"/>
<path d="M16.1359 27.069C16.0961 27.0093 16.0762 26.9695 16.0562 26.9097C16.0363 26.8699 16.0363 26.8102 16.0562 26.7703C15.9567 26.7504 15.8969 26.7504 15.877 26.8101C15.877 26.8301 15.8571 26.85 15.8571 26.8699C15.7974 26.8102 15.7774 26.7703 15.7774 26.7305C15.7774 26.7106 15.7774 26.7106 15.7774 26.6907C15.7974 26.6309 15.8571 26.5911 15.9168 26.5911C15.877 26.5313 15.8173 26.5114 15.7575 26.5114C15.7177 26.5114 15.6978 26.5313 15.6779 26.5513C15.6779 26.5313 15.6779 26.5114 15.6779 26.4915C15.6779 26.4517 15.6978 26.4119 15.6978 26.3919C15.6978 26.3919 15.6579 26.372 15.638 26.372C15.638 26.3521 15.6181 26.3123 15.6181 26.2725C15.6181 26.2924 15.638 26.2924 15.638 26.3123C15.6579 26.3521 15.7177 26.372 15.7575 26.372C15.8571 26.372 15.9368 26.2725 15.9368 26.1729C15.9368 26.0335 15.8372 25.9538 15.7177 25.9538C15.5982 25.9538 15.5185 26.0335 15.4986 26.0932C15.4787 26.0733 15.4787 26.0534 15.4389 26.0534C15.3991 26.0335 15.3592 26.0335 15.3194 26.0335C15.2796 25.9737 15.1999 25.9538 15.1003 25.9737C15.0008 25.9936 14.8813 26.0733 14.7817 26.0733C14.8016 26.0733 14.8414 26.0534 14.8614 26.0534C14.8414 26.0534 14.8414 26.0534 14.7817 26.0733C14.7817 26.0733 14.7817 26.0733 14.7618 26.0733C14.7419 26.0733 14.7419 26.0534 14.722 26.0335C14.7419 26.0136 14.7419 26.0136 14.7419 26.0136C14.7618 26.0136 14.7817 26.0335 14.8215 26.0335C14.8414 26.0335 14.8614 26.0136 14.8813 26.0136C14.8614 26.0136 14.8414 26.0136 14.8215 26.0335C14.8016 26.0335 14.8016 26.0335 14.7817 26.0335H14.7618L14.7817 26.0136C14.8016 26.0136 14.8414 26.0136 14.8614 25.9936C14.8813 25.9936 14.8813 25.9737 14.8813 25.9538C14.8813 25.9339 14.9012 25.9339 14.9211 25.914C14.9211 25.914 14.941 25.914 14.941 25.8941H14.9211C14.8813 25.914 14.8813 25.914 14.8614 25.9339C14.8414 25.9538 14.8215 25.9737 14.8016 25.9737L14.8215 25.9538C14.8215 25.9538 14.7817 25.9538 14.7618 25.9936C14.7618 26.0136 14.7419 26.0136 14.7419 26.0136C14.7419 26.0136 14.7419 26.0136 14.7618 25.9936C14.7419 25.9936 14.7419 26.0136 14.722 26.0136C14.702 25.9936 14.702 25.9936 14.6821 25.9737C14.702 25.9538 14.702 25.9339 14.702 25.914C14.702 25.8941 14.702 25.8941 14.702 25.8742C14.7817 25.8144 14.9012 25.7348 15.0605 25.6949C14.941 25.7148 14.7618 25.7746 14.6025 25.914H14.5826L14.5626 25.8941C14.6622 25.8144 14.7817 25.7547 14.8414 25.7348H14.8215C14.7817 25.7547 14.6025 25.7945 14.483 25.8941C14.4631 25.914 14.4432 25.9339 14.4232 25.9538C14.3834 25.9936 14.3436 26.0335 14.2838 26.0534C14.2838 26.0534 14.2838 26.0534 14.2639 26.0534C14.2639 26.0534 14.2639 26.0534 14.244 26.0534C14.244 26.0534 14.244 26.0534 14.2241 26.0534C14.2241 26.0534 14.2241 26.0534 14.2042 26.0534C14.2042 26.0534 14.2042 26.0534 14.1843 26.0534C14.1843 26.0534 14.1843 26.0534 14.1643 26.0534C14.1643 26.0534 14.1643 26.0534 14.1444 26.0534C14.0847 26.0932 14.0249 26.1131 13.9652 26.133C13.8656 26.1729 13.7661 26.1928 13.6466 26.1928C13.3678 26.1928 13.1487 26.0932 12.9296 25.914C12.85 25.8144 12.8101 25.7348 12.7902 25.6551C12.7902 25.6949 12.8301 25.7945 12.8699 25.8742C12.85 25.8542 12.85 25.8542 12.8301 25.8343L12.9097 25.8941C12.85 25.7547 12.8301 25.5754 12.8301 25.4759C12.8301 25.456 12.8301 25.436 12.8301 25.436C12.8301 25.436 12.8301 25.4759 12.8301 25.4958C12.8301 25.6153 12.8301 25.7148 12.8699 25.8343C12.8101 25.7945 12.7703 25.7547 12.7305 25.7148C12.6907 25.6949 12.6309 25.6551 12.611 25.6551C12.6907 25.6949 12.7504 25.7547 12.8898 25.8742C12.8898 25.8742 12.8898 25.8941 12.9097 25.8941L12.8898 25.914C12.85 25.8742 12.8101 25.8542 12.7703 25.8144C12.6309 25.675 12.4915 25.5954 12.372 25.5754C12.3521 25.5754 12.3521 25.5754 12.372 25.5754C12.4716 25.5954 12.611 25.675 12.7504 25.8343C12.7504 25.8542 12.7504 25.914 12.7902 25.9538L12.8101 25.9737L12.7902 25.9936C12.7902 25.9737 12.7703 25.9737 12.7703 25.9737C12.7703 25.9737 12.7504 25.9538 12.7305 25.9538C12.7106 25.9339 12.7106 25.9339 12.6907 25.914V25.9339L12.6707 25.914C12.6508 25.8941 12.6309 25.8742 12.6309 25.8742L12.6508 25.8941C12.6309 25.8742 12.611 25.8742 12.5911 25.8542C12.5911 25.8343 12.5911 25.8343 12.5313 25.7945C12.5313 25.7945 12.5114 25.7746 12.5114 25.7945C12.5114 25.7945 12.4915 25.7945 12.5313 25.8144C12.5513 25.8144 12.5712 25.8343 12.5712 25.8542V25.8742C12.5712 25.8941 12.611 25.8941 12.611 25.8941C12.6309 25.8941 12.6508 25.914 12.6707 25.914L12.6907 25.9339H12.7106H12.6907H12.6707C12.6508 25.9339 12.6309 25.914 12.611 25.914C12.5911 25.8941 12.5712 25.8941 12.5313 25.8941C12.5513 25.8941 12.5911 25.9339 12.5911 25.9339C12.6309 25.9737 12.6707 25.9538 12.6707 25.9538H12.6907C12.7106 25.9538 12.7305 25.9538 12.7504 25.9737C12.7504 25.9737 12.7902 26.0136 12.7902 25.9936C12.7703 26.0136 12.7504 26.0136 12.6907 25.9936C12.6508 25.9737 12.6309 25.9737 12.611 25.9737C12.5911 25.9737 12.611 25.9737 12.611 25.9737C12.6309 25.9737 12.6508 25.9936 12.6707 25.9936C12.6907 26.0136 12.7106 26.0136 12.7504 26.0136C12.7703 26.0136 12.7703 26.0136 12.7902 26.0136C12.7703 26.0335 12.7703 26.0335 12.7504 26.0335C12.7305 26.0335 12.7106 26.0136 12.6907 26.0136C12.6907 26.0136 12.7106 26.0136 12.7106 26.0335C12.7106 26.0335 12.7106 26.0335 12.7305 26.0335C12.6309 26.0335 12.5114 25.9538 12.4119 25.9339C12.3123 25.914 12.2326 25.9339 12.1928 25.9936C12.153 25.9737 12.1131 25.9936 12.0733 25.9936C12.0534 26.0136 12.0335 26.0136 12.0136 26.0335C11.9737 25.9737 11.914 25.8941 11.7945 25.8941C11.675 25.8941 11.5754 25.9737 11.5754 26.1131C11.5754 26.2127 11.6551 26.3123 11.7547 26.3123C11.7945 26.3123 11.8542 26.2924 11.8742 26.2525C11.8941 26.2326 11.8941 26.2326 11.8941 26.2127C11.8941 26.2525 11.8941 26.2924 11.8742 26.3123C11.8542 26.3123 11.8343 26.3123 11.8144 26.3322C11.8343 26.372 11.8343 26.3919 11.8343 26.4318C11.8343 26.4517 11.8343 26.4716 11.8343 26.4915C11.8144 26.4716 11.7945 26.4517 11.7547 26.4517C11.6949 26.4318 11.6352 26.4716 11.5954 26.5313C11.6551 26.5513 11.7148 26.5712 11.7348 26.6309C11.7348 26.6508 11.7348 26.6508 11.7348 26.6707C11.7348 26.7106 11.7148 26.7703 11.6551 26.8101C11.6551 26.7902 11.6551 26.7703 11.6352 26.7504C11.5954 26.6907 11.5356 26.6707 11.4559 26.7106C11.4759 26.7504 11.4759 26.8102 11.4559 26.85C11.436 26.8898 11.4161 26.9496 11.3763 27.0093C11.2767 27.1686 11.1572 27.3678 11.1572 27.7461C11.1572 27.9254 11.1971 28.0847 11.2966 28.2241C11.3763 28.3436 11.4958 28.4432 11.6153 28.5029C11.8144 28.6025 12.0534 28.6025 12.2127 28.483C12.2924 28.5427 12.4119 28.5427 12.4716 28.4631H15.0804C15.1601 28.5427 15.2597 28.5427 15.3393 28.483C15.4986 28.6025 15.7177 28.6025 15.9368 28.5029C16.0562 28.4432 16.1757 28.3436 16.2554 28.2241C16.335 28.0847 16.3948 27.9254 16.3948 27.7461C16.355 27.4474 16.2156 27.2284 16.1359 27.069Z" fill="#D5BA4A"/>
<path d="M13.7459 26.5906C13.3675 26.5906 13.0688 26.4512 12.8299 26.252C12.79 26.2919 12.7502 26.3118 12.7303 26.3118C12.7104 26.3317 12.6705 26.3317 12.6506 26.3118C12.571 26.3118 12.4913 26.2719 12.4515 26.252C12.4316 26.2919 12.3917 26.3516 12.2922 26.3516C12.1926 26.3516 12.093 26.2919 12.093 26.1724C12.0731 26.1923 12.0731 26.252 12.0731 26.3118C12.0731 26.6901 11.854 26.9092 11.635 27.0884C11.5354 27.188 11.4358 27.2677 11.396 27.3672C11.396 27.3672 11.396 27.3672 11.4159 27.3672C11.4159 27.3672 11.4358 27.3672 11.4358 27.3872C11.4557 27.3274 11.4956 27.2677 11.6151 27.2079L11.6549 27.188L11.6748 27.2278C11.6947 27.2677 11.6947 27.3274 11.6947 27.3672C11.6947 27.4071 11.6748 27.4668 11.6549 27.4867C11.6748 27.4867 11.6947 27.5066 11.7146 27.5066C11.7545 27.5465 11.7744 27.5863 11.7744 27.6461C11.5951 27.6261 11.4956 27.7257 11.4557 27.8452C11.4358 27.885 11.4358 27.9249 11.4358 27.9647C11.4358 28.0443 11.4557 28.124 11.5155 28.1837C11.5155 28.1439 11.5155 28.124 11.5155 28.0842C11.5155 28.0643 11.5155 28.0244 11.5155 27.9846C11.5155 27.9647 11.5155 27.9448 11.4956 27.9249C11.4956 27.9049 11.4757 27.9049 11.4557 27.885C11.4956 27.8253 11.5354 27.8054 11.5951 27.8253C11.6151 27.8253 11.635 27.8253 11.6549 27.8452C11.6748 27.8253 11.6947 27.7855 11.7545 27.7655L11.7943 27.7456L11.8142 27.8054C11.8341 27.8452 11.8341 27.885 11.8341 27.9249C11.8341 27.9448 11.8341 27.9647 11.8341 27.9846C11.9337 28.0045 11.9536 28.0842 11.9337 28.1638C11.8739 28.1439 11.8341 28.1439 11.7943 28.1638C11.7545 28.2037 11.7545 28.2634 11.7943 28.3231C11.8341 28.3829 11.8739 28.3829 11.9536 28.3829C11.9536 28.363 11.9337 28.3431 11.9337 28.3231C11.9337 28.3032 11.9337 28.2833 11.9536 28.2435C11.9735 28.2037 12.0133 28.1638 12.0731 28.1638C12.1129 28.1439 12.1727 28.1638 12.2125 28.2037C12.2722 28.2435 12.2722 28.3231 12.2922 28.363C12.2922 28.363 12.332 28.3231 12.4116 28.3231H15.1001C15.1798 28.3231 15.2196 28.363 15.2196 28.363C15.2196 28.3032 15.2196 28.2435 15.2993 28.2037C15.3391 28.1638 15.3988 28.1638 15.4387 28.1638C15.4785 28.1837 15.5183 28.2037 15.5582 28.2435C15.5781 28.2634 15.5781 28.3032 15.5781 28.3231C15.5781 28.3431 15.5781 28.363 15.5582 28.3829C15.6378 28.4028 15.6777 28.3829 15.7175 28.3231C15.7374 28.2833 15.7374 28.2037 15.7175 28.1638C15.6777 28.124 15.6378 28.1439 15.5781 28.1638C15.5582 28.0643 15.5781 27.9846 15.6777 27.9846C15.6777 27.9647 15.6777 27.9448 15.6777 27.9249C15.6777 27.885 15.6976 27.8452 15.6976 27.8054L15.7175 27.7456L15.7573 27.7655C15.8171 27.7855 15.837 27.8253 15.8569 27.8452C15.8768 27.8253 15.8967 27.8253 15.9166 27.8253C15.9565 27.8253 15.9963 27.8452 16.056 27.885C16.0361 27.885 16.0162 27.9049 16.0162 27.9249C15.9963 27.9448 15.9963 27.9647 15.9963 27.9846C15.9963 28.0045 15.9963 28.0443 15.9963 28.0842C15.9963 28.124 15.9963 28.1439 15.9963 28.1837C16.056 28.124 16.0759 28.0443 16.0759 27.9647C16.0759 27.9249 16.0759 27.885 16.056 27.8452C16.0162 27.7257 15.9166 27.6261 15.7374 27.6461C15.7374 27.5863 15.7573 27.5465 15.7971 27.5066C15.8171 27.4867 15.837 27.4867 15.8569 27.4867C15.837 27.4469 15.8171 27.4071 15.8171 27.3672C15.8171 27.3075 15.837 27.2677 15.837 27.2278L15.8569 27.188L15.8967 27.2079C16.0162 27.2478 16.056 27.3274 16.0759 27.3872C16.0759 27.3872 16.0759 27.3872 16.0959 27.3672C16.0959 27.3672 16.0959 27.3672 16.1158 27.3672C16.0759 27.2677 15.9764 27.188 15.8768 27.0884C15.6777 26.9092 15.4586 26.7101 15.4586 26.3118C15.4586 26.252 15.4387 26.1923 15.4387 26.1724C15.4387 26.2719 15.3391 26.3516 15.2395 26.3516C15.14 26.3516 15.1001 26.2919 15.0802 26.252C15.0404 26.2719 14.9607 26.3118 14.8811 26.3118C14.8412 26.3118 14.8213 26.3118 14.8014 26.3118C14.7815 26.2919 14.7417 26.2919 14.7018 26.252C14.4031 26.4512 14.1243 26.5906 13.7459 26.5906Z" fill="white"/>
<path d="M16.1358 27.069C16.096 27.0093 16.076 26.9695 16.0561 26.9097C16.0362 26.8699 16.0362 26.8101 16.0561 26.7703C15.9566 26.7504 15.8968 26.7504 15.8769 26.8101C15.8769 26.8301 15.857 26.85 15.857 26.8699C15.7972 26.8101 15.7773 26.7703 15.7773 26.7305C15.7773 26.7106 15.7773 26.7106 15.7773 26.6907C15.7972 26.6309 15.857 26.5911 15.9167 26.5911C15.8769 26.5313 15.8172 26.5114 15.7574 26.5114C15.7176 26.5114 15.6977 26.5313 15.6778 26.5513C15.6778 26.5313 15.6778 26.5114 15.6778 26.4915C15.6778 26.4517 15.6977 26.4119 15.6977 26.3919C15.6977 26.3919 15.6578 26.372 15.6379 26.372C15.6379 26.3521 15.618 26.3123 15.618 26.2725C15.618 26.2924 15.6379 26.2924 15.6379 26.3123C15.6578 26.3521 15.7176 26.372 15.7574 26.372C15.857 26.372 15.9366 26.2725 15.9366 26.1729C15.9366 26.0335 15.8371 25.9538 15.7176 25.9538C15.5981 25.9538 15.5184 26.0335 15.4985 26.0932C15.4786 26.0733 15.4786 26.0534 15.4388 26.0534C15.3989 26.0335 15.3591 26.0335 15.3193 26.0335C15.2795 25.9737 15.1998 25.9538 15.1002 25.9737C15.0007 25.9936 14.8812 26.0733 14.7816 26.0733C14.8015 26.0733 14.8413 26.0534 14.8613 26.0534C14.8413 26.0534 14.8413 26.0534 14.7816 26.0733C14.7816 26.0733 14.7816 26.0733 14.7617 26.0733C14.7418 26.0733 14.7418 26.0534 14.7218 26.0335C14.7418 26.0136 14.7418 26.0136 14.7418 26.0136C14.7617 26.0136 14.7816 26.0335 14.8214 26.0335C14.8413 26.0335 14.8613 26.0136 14.8812 26.0136C14.8613 26.0136 14.8413 26.0136 14.8214 26.0335C14.8015 26.0335 14.8015 26.0335 14.7816 26.0335H14.7617L14.7816 26.0136C14.8015 26.0136 14.8413 26.0136 14.8613 25.9936C14.8812 25.9936 14.8812 25.9737 14.8812 25.9538C14.8812 25.9339 14.9011 25.9339 14.921 25.914C14.921 25.914 14.9409 25.914 14.9409 25.8941H14.921C14.8812 25.914 14.8812 25.914 14.8613 25.9339C14.8413 25.9538 14.8214 25.9737 14.8015 25.9737L14.8214 25.9538C14.8214 25.9538 14.7816 25.9538 14.7617 25.9936C14.7617 26.0136 14.7418 26.0136 14.7418 26.0136C14.7418 26.0136 14.7418 26.0136 14.7617 25.9936C14.7418 25.9936 14.7418 26.0136 14.7218 26.0136C14.7019 25.9936 14.7019 25.9936 14.682 25.9737C14.7019 25.9538 14.7019 25.9339 14.7019 25.914C14.7019 25.914 14.7019 25.8941 14.7019 25.8742C14.7816 25.8144 14.9011 25.7348 15.0604 25.6949C14.9409 25.7148 14.7617 25.7746 14.6024 25.914H14.5824L14.5625 25.8941C14.6621 25.8144 14.7816 25.7547 14.8413 25.7348H14.8214C14.7816 25.7547 14.6024 25.7945 14.4829 25.8941C14.463 25.914 14.443 25.9339 14.4231 25.9538C14.3833 25.9936 14.3435 26.0335 14.2837 26.0534C14.2837 26.0534 14.2837 26.0534 14.2638 26.0534C14.2638 26.0534 14.2638 26.0534 14.2439 26.0534C14.2439 26.0534 14.2439 26.0534 14.224 26.0534C14.224 26.0534 14.224 26.0534 14.2041 26.0534C14.2041 26.0534 14.2041 26.0534 14.1842 26.0534C14.1842 26.0534 14.1842 26.0534 14.1642 26.0534C14.1642 26.0534 14.1642 26.0534 14.1443 26.0534C14.0846 26.0932 14.0248 26.1131 13.9651 26.133C13.8655 26.1729 13.7659 26.1928 13.6465 26.1928C13.3677 26.1928 13.1486 26.0932 12.9295 25.914C12.8499 25.8343 12.81 25.7348 12.7901 25.6551C12.7901 25.6949 12.83 25.7945 12.8698 25.8742C12.8499 25.8542 12.8499 25.8542 12.83 25.8343L12.9096 25.8941C12.8499 25.7547 12.83 25.5754 12.83 25.4759C12.83 25.456 12.83 25.436 12.83 25.436C12.83 25.436 12.83 25.4759 12.83 25.4958C12.83 25.6153 12.83 25.7148 12.8698 25.8343C12.81 25.7945 12.7702 25.7547 12.7304 25.7148C12.6906 25.6949 12.6308 25.6551 12.6109 25.6551C12.6906 25.6949 12.7503 25.7547 12.8897 25.8742C12.8897 25.8742 12.8897 25.8941 12.9096 25.8941L12.8897 25.914C12.8499 25.8742 12.81 25.8542 12.7702 25.8144C12.6308 25.675 12.4914 25.5954 12.3719 25.5754C12.352 25.5754 12.352 25.5754 12.3719 25.5754C12.4715 25.5954 12.6109 25.675 12.7503 25.8343C12.7503 25.8542 12.7503 25.914 12.7901 25.9538L12.81 25.9737L12.7901 25.9936C12.7901 25.9737 12.7702 25.9737 12.7702 25.9737C12.7702 25.9737 12.7503 25.9737 12.7304 25.9538C12.7105 25.9339 12.7105 25.9339 12.6906 25.914V25.9339L12.6706 25.914C12.6507 25.8941 12.6308 25.8742 12.6308 25.8742L12.6507 25.8941C12.6308 25.8742 12.6109 25.8742 12.591 25.8542C12.591 25.8343 12.591 25.8343 12.5312 25.7945C12.5312 25.7945 12.5113 25.7746 12.5113 25.7945C12.5113 25.7945 12.4914 25.7945 12.5312 25.8144C12.5511 25.8144 12.5711 25.8343 12.5711 25.8542V25.8742C12.5711 25.8941 12.6109 25.8941 12.6109 25.8941C12.6308 25.8941 12.6507 25.914 12.6706 25.914L12.6906 25.9339H12.7105H12.6906H12.6706C12.6507 25.9339 12.6308 25.914 12.6109 25.914C12.591 25.8941 12.5711 25.8941 12.5312 25.8941C12.5511 25.914 12.591 25.9339 12.591 25.9339C12.6308 25.9737 12.6706 25.9538 12.6706 25.9538H12.6906C12.7105 25.9538 12.7304 25.9538 12.7304 25.9737C12.7304 25.9737 12.7702 26.0136 12.7702 25.9936C12.7503 26.0136 12.7304 26.0136 12.6706 25.9936C12.6308 25.9737 12.6109 25.9737 12.591 25.9737C12.5711 25.9737 12.591 25.9737 12.591 25.9737C12.6109 25.9737 12.6308 25.9936 12.6507 25.9936C12.6706 26.0136 12.6906 26.0136 12.7304 26.0136C12.7503 26.0136 12.7503 26.0136 12.7702 26.0136C12.7503 26.0335 12.7503 26.0335 12.7304 26.0335C12.7105 26.0335 12.6906 26.0136 12.6706 26.0136C12.6706 26.0136 12.6906 26.0136 12.6906 26.0335C12.6906 26.0335 12.6906 26.0335 12.7105 26.0534C12.6109 26.0534 12.4914 25.9737 12.3918 25.9538C12.2923 25.9339 12.2126 25.9538 12.1728 26.0136C12.1329 25.9936 12.0931 26.0136 12.0533 26.0136C12.0334 26.0335 12.0135 26.0335 11.9935 26.0534C11.9537 25.9936 11.894 25.914 11.7745 25.914C11.655 25.914 11.5554 25.9936 11.5554 26.133C11.5554 26.2326 11.6351 26.3322 11.7346 26.3322C11.7745 26.3322 11.8342 26.3123 11.8541 26.2725C11.874 26.2525 11.874 26.2525 11.874 26.2326C11.874 26.2725 11.874 26.3123 11.8541 26.3322C11.8342 26.3322 11.8143 26.3322 11.7944 26.3521C11.8143 26.3919 11.8143 26.4119 11.8143 26.4517C11.8143 26.4716 11.8143 26.4915 11.8143 26.5114C11.7944 26.4915 11.7745 26.4716 11.7346 26.4716C11.6749 26.4517 11.6152 26.4915 11.5753 26.5513C11.6351 26.5712 11.6948 26.5911 11.7147 26.6508C11.7147 26.6707 11.7147 26.6707 11.7147 26.6907C11.7147 26.7305 11.6948 26.7902 11.6351 26.8301C11.6351 26.8101 11.6351 26.7902 11.6152 26.7703C11.5753 26.7106 11.5156 26.6907 11.4359 26.7305C11.4558 26.7703 11.4558 26.8301 11.4359 26.8699C11.416 26.9097 11.3961 26.9695 11.3563 27.0292C11.2567 27.1885 11.1372 27.3877 11.1372 27.7661C11.1372 27.9453 11.177 28.1046 11.2766 28.244C11.3563 28.3635 11.4758 28.4631 11.5952 28.5228C11.7944 28.6224 12.0334 28.6224 12.1927 28.5029C12.2723 28.5626 12.3918 28.5626 12.4516 28.483H15.0604C15.1401 28.5626 15.2396 28.5626 15.3193 28.5029C15.4786 28.6224 15.6977 28.6224 15.9167 28.5228C16.0362 28.4631 16.1557 28.3635 16.2354 28.244C16.315 28.1046 16.3748 27.9453 16.3748 27.7661C16.3549 27.4474 16.2154 27.2284 16.1358 27.069ZM14.8413 26.133C14.921 26.1131 15.0007 26.0733 15.1201 26.0335C15.1799 26.0136 15.2197 26.0136 15.2595 26.0335C15.2994 26.0534 15.3193 26.0733 15.3392 26.0932C15.3591 26.133 15.3591 26.1729 15.3392 26.2127C15.3193 26.2525 15.2595 26.2924 15.1799 26.2924C15.2595 26.3123 15.3193 26.2725 15.3591 26.2326C15.3591 26.2924 15.2994 26.3322 15.2197 26.3521C15.1201 26.3521 15.0803 26.3123 15.0803 26.2525C15.0803 26.2326 15.0803 26.2127 15.1002 26.1928C15.1002 26.1928 15.0803 26.2127 15.0604 26.2326C14.9409 26.2924 14.8214 26.3123 14.8015 26.2924C14.8015 26.2725 14.8214 26.2725 14.8413 26.2525C14.9011 26.2326 14.9807 26.2127 15.0405 26.1729C15.0007 26.1928 14.921 26.2127 14.8812 26.2127C14.8413 26.1729 14.8613 26.153 14.8413 26.133ZM14.8214 26.153C14.8413 26.1729 14.8214 26.1928 14.7816 26.2127C14.7617 26.2326 14.7418 26.2326 14.7218 26.2725L14.682 26.2326C14.7218 26.1928 14.7418 26.1729 14.7617 26.1729C14.7816 26.153 14.8015 26.1331 14.8214 26.153ZM14.682 25.9339C14.682 25.9538 14.682 25.9737 14.682 25.9936L14.6422 25.9737C14.6621 25.9538 14.682 25.9339 14.682 25.9339ZM12.7901 25.9737C12.7702 25.9538 12.7702 25.914 12.7702 25.8941L12.81 25.9339C12.81 25.9538 12.81 25.9538 12.83 25.9737C12.81 25.9737 12.81 25.9737 12.7901 25.9737C12.7901 25.9936 12.7901 25.9737 12.7901 25.9737ZM12.8897 25.9538C12.9096 25.9339 12.9494 25.9538 13.0092 26.0136C13.1486 26.133 13.3876 26.3123 13.7261 26.3123C14.0846 26.3123 14.3036 26.153 14.443 26.0136C14.5028 25.9737 14.5426 25.9339 14.5625 25.9538L14.7617 26.1131C14.7418 26.133 14.7019 26.153 14.6621 26.1928C14.4231 26.4119 14.1244 26.5712 13.7261 26.5712C13.3477 26.5712 13.0291 26.4119 12.7901 26.1928C12.7503 26.153 12.7105 26.133 12.6906 26.1131L12.8897 25.9538ZM12.6507 26.153C12.6706 26.1331 12.6906 26.153 12.7105 26.153C12.7304 26.153 12.7503 26.1928 12.7901 26.2127L12.7503 26.2525C12.7304 26.2326 12.7304 26.2127 12.6906 26.1928C12.6507 26.1928 12.6507 26.1729 12.6507 26.153ZM12.1529 26.0733C12.1728 26.0534 12.1927 26.0335 12.2325 26.0136C12.2723 25.9936 12.3122 26.0136 12.3719 26.0136C12.4914 26.0534 12.5711 26.0932 12.6507 26.1131C12.6308 26.133 12.6507 26.153 12.6507 26.1729C12.6109 26.1729 12.5312 26.153 12.4914 26.133C12.5312 26.1729 12.6109 26.1928 12.6906 26.2127C12.7105 26.2326 12.7503 26.2326 12.7304 26.2525C12.7105 26.2725 12.591 26.2525 12.4715 26.1928C12.4715 26.1729 12.4516 26.153 12.4317 26.153C12.4317 26.1729 12.4516 26.1928 12.4516 26.2127C12.4516 26.2725 12.3918 26.3123 12.3122 26.3123C12.2325 26.3123 12.1728 26.2525 12.1728 26.1928C12.2126 26.2525 12.2723 26.2725 12.352 26.2525C12.2723 26.2525 12.2126 26.2127 12.1927 26.1729C12.1329 26.1729 12.1329 26.1131 12.1529 26.0733ZM12.2923 26.3521C12.3918 26.3521 12.4317 26.2924 12.4516 26.2525C12.4914 26.2725 12.5711 26.3123 12.6507 26.3123C12.6906 26.3123 12.7105 26.3123 12.7304 26.3123C12.7503 26.2924 12.7901 26.2924 12.83 26.2525C13.0689 26.4517 13.3677 26.5911 13.746 26.5911C14.1244 26.5911 14.4231 26.4517 14.6621 26.2525C14.7019 26.2924 14.7418 26.3123 14.7617 26.3123C14.7816 26.3322 14.8214 26.3322 14.8413 26.3123C14.921 26.3123 15.0007 26.2725 15.0405 26.2525C15.0604 26.2924 15.1002 26.3521 15.1998 26.3521C15.2994 26.3521 15.3989 26.2924 15.3989 26.1729C15.4189 26.1928 15.4189 26.2525 15.4189 26.3123C15.4189 26.6907 15.6379 26.9097 15.857 27.089C15.9566 27.1885 16.0561 27.2682 16.096 27.3678H16.076C16.076 27.3678 16.0561 27.3678 16.0561 27.3877C16.0362 27.3279 15.9964 27.2682 15.8769 27.2084L15.8371 27.1885L15.8172 27.2284C15.7972 27.2682 15.7972 27.3279 15.7972 27.3678C15.7972 27.4076 15.8172 27.4673 15.8371 27.4872C15.8172 27.4872 15.7972 27.5072 15.7773 27.5072C15.7375 27.547 15.7176 27.5868 15.7176 27.6466C15.8968 27.6267 15.9964 27.7262 16.0362 27.8457C16.0561 27.8855 16.0561 27.9254 16.0561 27.9652C16.0561 28.0449 16.0362 28.1245 15.9765 28.1843C15.9765 28.1444 15.9765 28.1245 15.9765 28.0847C15.9765 28.0648 15.9765 28.0249 15.9765 27.9851C15.9765 27.9652 15.9765 27.9453 15.9964 27.9254C15.9964 27.9055 16.0163 27.9055 16.0362 27.8855C15.9964 27.8258 15.9566 27.8059 15.8968 27.8258C15.8769 27.8258 15.857 27.8258 15.8371 27.8457C15.8172 27.8258 15.7972 27.786 15.7375 27.7661L15.6977 27.7461L15.6778 27.8059C15.6578 27.8457 15.6578 27.8855 15.6578 27.9254C15.6578 27.9453 15.6578 27.9652 15.6578 27.9851C15.5583 28.005 15.5384 28.0847 15.5583 28.1643C15.618 28.1444 15.6578 28.1444 15.6977 28.1643C15.7375 28.2042 15.7375 28.2639 15.6977 28.3237C15.6778 28.3834 15.618 28.3834 15.5384 28.3834C15.5384 28.3635 15.5583 28.3436 15.5583 28.3237C15.5583 28.3038 15.5583 28.2838 15.5384 28.244C15.5184 28.2042 15.4786 28.1643 15.4189 28.1643C15.379 28.1444 15.3193 28.1643 15.2795 28.2042C15.2197 28.244 15.2197 28.3237 15.1998 28.3635C15.1998 28.3635 15.16 28.3237 15.0803 28.3237H12.3918C12.3122 28.3237 12.2723 28.3635 12.2723 28.3635C12.2723 28.3038 12.2723 28.244 12.1927 28.2042C12.1529 28.1643 12.0931 28.1643 12.0533 28.1643C12.0135 28.1843 11.9736 28.2042 11.9338 28.244C11.9139 28.2639 11.9139 28.3038 11.9139 28.3237C11.9139 28.3436 11.9139 28.3635 11.9338 28.3834C11.8541 28.4033 11.8143 28.3834 11.7745 28.3237C11.7546 28.2838 11.7546 28.2042 11.7745 28.1643C11.8143 28.1245 11.8541 28.1444 11.9139 28.1643C11.9338 28.0648 11.9139 27.9851 11.8143 27.9851C11.8143 27.9652 11.8143 27.9453 11.8143 27.9254C11.8143 27.8855 11.8143 27.8457 11.7944 27.8059L11.7745 27.7461L11.7346 27.7661C11.6749 27.786 11.655 27.8258 11.6351 27.8457C11.6152 27.8258 11.5952 27.8258 11.5753 27.8258C11.5355 27.8258 11.4758 27.8457 11.4359 27.8855C11.4558 27.8855 11.4758 27.9055 11.4758 27.9254C11.4957 27.9453 11.4957 27.9652 11.4957 27.9851C11.4957 28.005 11.4957 28.0449 11.4957 28.0847C11.4957 28.1245 11.4957 28.1444 11.4957 28.1843C11.4359 28.1245 11.416 28.0449 11.416 27.9652C11.416 27.9254 11.416 27.8855 11.4359 27.8457C11.4758 27.7262 11.5753 27.6267 11.7546 27.6466C11.7546 27.5868 11.7346 27.547 11.6948 27.5072C11.6749 27.4872 11.655 27.4872 11.6351 27.4872C11.655 27.4474 11.6749 27.4076 11.6749 27.3678C11.6749 27.308 11.655 27.2682 11.655 27.2284L11.6351 27.1885L11.5952 27.2084C11.4758 27.2483 11.4359 27.3279 11.416 27.3877C11.416 27.3877 11.416 27.3877 11.3961 27.3678C11.3961 27.3678 11.3961 27.3678 11.3762 27.3678C11.416 27.2682 11.5156 27.1885 11.6152 27.089C11.8143 26.9097 12.0533 26.7106 12.0533 26.3123C12.0533 26.2525 12.0732 26.1928 12.0732 26.1729C12.0931 26.2924 12.1927 26.3521 12.2923 26.3521ZM12.1927 28.5228C12.1728 28.5029 12.1529 28.4432 12.1927 28.4033C12.1529 28.4232 12.1329 28.483 12.1529 28.5228C12.0135 28.6423 11.7944 28.6423 11.5952 28.5427C11.4758 28.483 11.3762 28.3834 11.2965 28.2639C11.2169 28.1245 11.177 27.9851 11.177 27.8059C11.177 27.4474 11.2965 27.2284 11.3961 27.089C11.4558 26.9894 11.5156 26.9097 11.4957 26.8101C11.5355 26.8101 11.5753 26.8101 11.5952 26.85C11.6152 26.8898 11.5952 26.9695 11.5554 27.0093C11.7546 26.8699 11.7745 26.7703 11.7546 26.6907C11.7346 26.6309 11.6948 26.5911 11.655 26.5712C11.6749 26.5513 11.6948 26.5513 11.7346 26.5513C11.7745 26.5513 11.8143 26.5911 11.8342 26.6508C11.8741 26.5513 11.894 26.4915 11.8541 26.4119C11.874 26.4119 11.894 26.4119 11.9139 26.4318C11.9338 26.4517 11.9537 26.4915 11.9537 26.5313C11.9537 26.5513 11.9537 26.5712 11.9338 26.5911C11.9537 26.5712 11.9736 26.5313 11.9736 26.5114C11.9736 26.4716 11.9736 26.4318 11.9537 26.4119C11.9338 26.3919 11.9139 26.3919 11.894 26.372C11.9139 26.2725 11.894 26.1729 11.8342 26.1131C11.8143 26.0932 11.7745 26.0733 11.7346 26.0733C11.6749 26.0733 11.6152 26.1131 11.6152 26.1928C11.6152 26.2326 11.655 26.2725 11.6749 26.2725C11.6948 26.2725 11.7346 26.2725 11.7546 26.2326C11.7346 26.2525 11.7147 26.2525 11.6948 26.2326C11.6749 26.2326 11.655 26.1928 11.655 26.1729C11.655 26.1331 11.6749 26.0932 11.7346 26.0932C11.7745 26.0932 11.8143 26.1131 11.8342 26.1729C11.8342 26.2326 11.7944 26.3123 11.7147 26.3123C11.6351 26.3123 11.5753 26.2525 11.5753 26.153C11.5753 26.0534 11.6351 25.9737 11.7546 25.9737C11.8541 25.9737 11.9338 26.0534 11.9537 26.1131C11.9338 26.1729 11.9338 26.2725 12.0135 26.3521C11.9537 26.2326 11.9736 26.1331 12.0135 26.0733C12.0334 26.0534 12.0931 26.0136 12.1329 26.0335C12.1329 26.0335 12.0931 26.0733 12.0931 26.0932C12.0732 26.133 12.0533 26.1729 12.0533 26.2725C12.0533 26.6309 11.8342 26.8301 11.6351 27.0093C11.5355 27.1089 11.416 27.1885 11.3762 27.308C11.3364 27.308 11.3164 27.308 11.2965 27.3279C11.3364 27.3877 11.3563 27.4872 11.3164 27.5868C11.3563 27.4872 11.3762 27.4076 11.3364 27.3279C11.3563 27.3279 11.3762 27.3279 11.3961 27.3478C11.416 27.3678 11.4359 27.4076 11.4359 27.4474C11.4359 27.4673 11.4359 27.4872 11.416 27.5072C11.4359 27.4673 11.4359 27.4275 11.4359 27.4076C11.4359 27.3478 11.4558 27.2483 11.5952 27.1885C11.6152 27.2284 11.6152 27.2881 11.6152 27.3279C11.6152 27.3877 11.5952 27.4275 11.5355 27.4872C11.5156 27.5072 11.4957 27.5271 11.4957 27.547C11.5554 27.4872 11.6152 27.5072 11.655 27.5271C11.6749 27.547 11.6948 27.5669 11.6948 27.5868C11.5156 27.5868 11.416 27.6864 11.3762 27.8059C11.3164 27.9652 11.3762 28.1643 11.5554 28.2639C11.5156 28.2241 11.5156 28.1444 11.5156 28.0648C11.5156 27.9851 11.5355 27.9055 11.4758 27.8656C11.4957 27.8457 11.5156 27.8457 11.5355 27.8457C11.5753 27.8457 11.5952 27.8855 11.5952 27.9453V27.9652C11.5952 27.9453 11.5952 27.9254 11.6152 27.8855C11.6152 27.8457 11.655 27.8059 11.7346 27.7661C11.7546 27.8059 11.7546 27.8457 11.7546 27.8855C11.7546 27.9254 11.7546 27.9453 11.7346 27.9652C11.7147 27.9851 11.7147 28.005 11.6948 28.0249C11.7346 27.9652 11.7944 27.9652 11.8342 27.9851C11.8541 28.005 11.874 28.0249 11.8541 28.0648C11.7944 28.0449 11.7546 28.0648 11.7346 28.1046C11.6948 28.1643 11.6749 28.244 11.7147 28.3038C11.7346 28.3436 11.7944 28.4033 11.9338 28.3834C11.9338 28.3834 11.9338 28.3834 11.9537 28.4033C11.9736 28.4232 11.9935 28.4232 12.0135 28.4232C12.0732 28.4232 12.113 28.3834 12.113 28.3237C12.113 28.3038 12.113 28.2838 12.0931 28.2639C12.0732 28.244 12.0334 28.2241 11.9935 28.244C12.0135 28.244 12.0533 28.244 12.0533 28.2639V28.2838C12.0533 28.3237 12.0334 28.3436 11.9935 28.3436C11.9736 28.3436 11.9537 28.3436 11.9338 28.3237C11.894 28.3038 11.894 28.244 11.9139 28.1843C11.9338 28.1444 11.9537 28.1245 11.9935 28.1245C12.0334 28.1245 12.0732 28.1245 12.0931 28.1444C12.1529 28.1843 12.1529 28.244 12.1529 28.3038C12.1529 28.3834 12.2126 28.4432 12.2923 28.4432C12.3321 28.5626 12.2524 28.5826 12.1927 28.5228ZM15.0604 28.5029H12.4117C12.352 28.5029 12.3321 28.5029 12.2923 28.4631C12.2723 28.4432 12.2723 28.4432 12.2723 28.4232C12.2723 28.4232 12.2923 28.3834 12.3918 28.3834H15.0604C15.16 28.3834 15.1799 28.4232 15.1799 28.4232C15.1799 28.4432 15.16 28.4432 15.16 28.4631C15.16 28.5029 15.1201 28.5029 15.0604 28.5029ZM16.1756 28.2639C16.096 28.3834 15.9964 28.483 15.8769 28.5427C15.6778 28.6423 15.4786 28.6423 15.3193 28.5228C15.3392 28.483 15.3193 28.4432 15.2795 28.4033C15.3193 28.4432 15.2994 28.5029 15.2795 28.5228C15.2197 28.5826 15.1401 28.5626 15.1002 28.5427C15.1998 28.5427 15.2396 28.483 15.2396 28.4033C15.2396 28.3436 15.2396 28.2838 15.2994 28.244C15.3392 28.2241 15.379 28.2042 15.3989 28.2241C15.4388 28.2241 15.4587 28.2639 15.4786 28.2838C15.4985 28.3436 15.4786 28.3834 15.4587 28.4232C15.4388 28.4432 15.4189 28.4432 15.3989 28.4432C15.3591 28.4432 15.3392 28.4232 15.3392 28.3834C15.3392 28.3635 15.3392 28.3635 15.3392 28.3635C15.3591 28.3436 15.379 28.3436 15.3989 28.3436C15.379 28.3237 15.3193 28.3237 15.2994 28.3635C15.2795 28.3834 15.2795 28.4033 15.2795 28.4232C15.2795 28.483 15.3193 28.5228 15.379 28.5228C15.3989 28.5228 15.4189 28.5228 15.4388 28.5029C15.4388 28.5029 15.4388 28.5029 15.4587 28.483C15.5981 28.5029 15.6578 28.4432 15.6778 28.4033C15.7176 28.3436 15.7176 28.244 15.6578 28.2042C15.618 28.1643 15.5782 28.1643 15.5384 28.1643C15.5384 28.1444 15.5384 28.1046 15.5583 28.0847C15.5981 28.0648 15.6578 28.0648 15.6977 28.1245C15.6778 28.1046 15.6778 28.0847 15.6578 28.0648C15.6379 28.0449 15.6379 28.005 15.6379 27.9851C15.6379 27.9453 15.6379 27.9254 15.6578 27.8656C15.7176 27.9055 15.7574 27.9453 15.7773 27.9851C15.7773 28.005 15.7773 28.0249 15.7972 28.0648C15.7972 28.0449 15.7972 28.0449 15.7972 28.0449C15.7972 27.9851 15.8172 27.9453 15.857 27.9453C15.8769 27.9453 15.8968 27.9453 15.9167 27.9652C15.857 28.005 15.8769 28.0847 15.8769 28.1643C15.8769 28.244 15.8968 28.3436 15.8371 28.3635C16.0163 28.2639 16.0561 28.0449 16.0163 27.9055C15.9765 27.786 15.8769 27.6665 15.6977 27.6864C15.6977 27.6665 15.7176 27.6466 15.7375 27.6267C15.7773 27.6067 15.8371 27.5868 15.8968 27.6466C15.8769 27.6267 15.8769 27.6067 15.857 27.5868C15.7972 27.5271 15.7773 27.5072 15.7773 27.4275C15.7773 27.3877 15.7972 27.3279 15.7972 27.2881C15.9366 27.3478 15.9566 27.4474 15.9566 27.5072C15.9566 27.5271 15.9566 27.5669 15.9765 27.6067C15.9765 27.5868 15.9566 27.5669 15.9566 27.547C15.9566 27.5072 15.9765 27.4673 15.9964 27.4474C16.0163 27.4275 16.0362 27.4275 16.0561 27.4275C16.0362 27.5072 16.0362 27.5868 16.076 27.6864C16.0561 27.5669 16.0561 27.4673 16.096 27.4275C16.076 27.4076 16.0362 27.4076 16.0163 27.4076C15.9765 27.308 15.8769 27.2084 15.7574 27.1089C15.5583 26.9296 15.3392 26.7504 15.3392 26.372C15.3392 26.2725 15.3193 26.2326 15.2994 26.1928C15.2994 26.1729 15.2595 26.153 15.2595 26.133C15.2994 26.1131 15.3591 26.1331 15.379 26.1729C15.4189 26.2127 15.4388 26.3322 15.379 26.4517C15.4587 26.372 15.4587 26.2525 15.4388 26.2127C15.4587 26.153 15.5184 26.0733 15.6379 26.0733C15.7574 26.0733 15.8172 26.153 15.8172 26.2525C15.8172 26.3322 15.7574 26.4119 15.6778 26.4119C15.5981 26.4119 15.5384 26.3521 15.5583 26.2725C15.5583 26.2127 15.5981 26.1928 15.6578 26.1928C15.6977 26.1928 15.7375 26.2326 15.7375 26.2725C15.7375 26.2924 15.7176 26.3123 15.6977 26.3322C15.6778 26.3322 15.6578 26.3322 15.6379 26.3322C15.6578 26.3521 15.6778 26.372 15.7176 26.372C15.7375 26.372 15.7773 26.3322 15.7773 26.2924C15.7773 26.2127 15.7176 26.1729 15.6578 26.1729C15.618 26.1729 15.5981 26.1928 15.5583 26.2127C15.4985 26.2725 15.4786 26.3919 15.4985 26.4716C15.4786 26.4716 15.4587 26.4915 15.4388 26.5114C15.4189 26.5313 15.3989 26.5712 15.4189 26.611C15.4189 26.6309 15.4388 26.6707 15.4587 26.6907C15.4587 26.6707 15.4388 26.6508 15.4388 26.6309C15.4388 26.5911 15.4587 26.5513 15.4786 26.5313C15.4985 26.5114 15.5184 26.5114 15.5384 26.5114C15.4985 26.5911 15.5184 26.6508 15.5583 26.7504C15.5782 26.6907 15.5981 26.6508 15.6578 26.6508C15.6778 26.6508 15.7176 26.6508 15.7375 26.6707C15.6977 26.6907 15.6578 26.7305 15.6379 26.7902C15.618 26.8699 15.6379 26.9894 15.8371 27.1089C15.7773 27.069 15.7574 26.9894 15.7972 26.9496C15.8172 26.9097 15.8371 26.9097 15.8968 26.9097C15.8769 27.0093 15.9167 27.089 15.9964 27.1885C16.096 27.3279 16.2155 27.547 16.2155 27.9055C16.315 27.9851 16.2553 28.1444 16.1756 28.2639ZM16.0561 27.6267C16.1159 27.7461 16.1557 27.8656 16.1557 27.9652C16.1557 28.0249 16.1358 28.1046 16.1159 28.1643C16.0362 28.3436 15.8371 28.4631 15.7176 28.5029C15.7773 28.4631 15.8371 28.3635 15.8371 28.244C15.8371 28.2042 15.8371 28.1643 15.8172 28.1046C15.8769 28.3834 15.7176 28.483 15.6379 28.5228C15.6578 28.5228 15.6977 28.5228 15.7375 28.5228C15.8769 28.483 16.0561 28.3834 16.1358 28.2241C16.1756 28.1444 16.2155 28.0449 16.1955 27.9254C16.1756 27.8457 16.1557 27.7461 16.0561 27.6267ZM14.9011 28.4232H12.5711C12.5711 28.4232 12.3918 28.4232 12.3918 28.4432C12.3918 28.4631 12.5511 28.4631 12.5711 28.4631H14.8812C14.8812 28.4631 15.0604 28.4631 15.0604 28.4432C15.0604 28.4232 14.9011 28.4232 14.9011 28.4232ZM15.2595 26.1928C15.2994 26.153 15.2994 26.1131 15.2795 26.0733C15.2595 26.0335 15.1998 26.0335 15.1401 26.0534C15.1799 26.0534 15.1998 26.0534 15.2197 26.0534C15.2396 26.0534 15.2396 26.0733 15.2396 26.0733V26.0932C15.1401 26.1131 15.0803 26.153 15.0604 26.153C15.1002 26.2525 15.1998 26.2326 15.2595 26.1928ZM11.3563 27.2284C11.4957 27.069 11.7944 26.9296 11.874 26.6309C11.7944 26.9097 11.5753 26.9894 11.4359 27.1487C11.5355 26.9894 11.5355 26.9296 11.5355 26.8898C11.4957 27.0093 11.416 27.089 11.3563 27.2284C11.3563 27.2483 11.3563 27.2483 11.3563 27.2284ZM11.6749 28.1245C11.655 28.1643 11.6351 28.2042 11.6351 28.2639C11.6351 28.3834 11.6948 28.483 11.7546 28.5228C11.6351 28.5029 11.4558 28.3834 11.3563 28.1843C11.3364 28.1245 11.3164 28.0449 11.3164 27.9851C11.3164 27.8656 11.3563 27.7661 11.4359 27.6466C11.3364 27.7661 11.3164 27.8656 11.2965 27.9453C11.2766 28.0648 11.3164 28.1643 11.3563 28.244C11.4558 28.4033 11.6152 28.5228 11.7546 28.5427C11.7944 28.5427 11.8342 28.5626 11.8541 28.5427C11.7745 28.5029 11.6152 28.4033 11.6749 28.1245ZM15.9566 26.8898C15.9566 26.9296 15.9366 26.9695 16.0362 27.1487C15.8769 26.9894 15.6778 26.9097 15.5981 26.6309C15.6578 26.9496 15.9765 27.069 16.1159 27.2284C16.0561 27.089 15.9765 27.0093 15.9566 26.8898ZM12.2126 26.1928C12.2723 26.2326 12.3719 26.2525 12.3918 26.1928C12.3719 26.1928 12.2923 26.133 12.2126 26.133V26.1131C12.2126 26.0932 12.2325 26.0932 12.2325 26.0932C12.2524 26.0932 12.2723 26.0932 12.3122 26.0932C12.2524 26.0733 12.2126 26.0733 12.1728 26.1131C12.1728 26.1131 12.1728 26.153 12.2126 26.1928Z" fill="#272425"/>
<path d="M13.7459 26.5906C13.3675 26.5906 13.0688 26.4512 12.8299 26.252C12.79 26.2919 12.7502 26.3118 12.7303 26.3118C12.7104 26.3317 12.6705 26.3317 12.6506 26.3118C12.571 26.3118 12.4913 26.2719 12.4515 26.252C12.4316 26.2919 12.3917 26.3516 12.2922 26.3516C12.1926 26.3516 12.093 26.2919 12.093 26.1724C12.0731 26.1923 12.0731 26.252 12.0731 26.3118C12.0731 26.6901 11.854 26.9092 11.635 27.0884C11.5354 27.188 11.4358 27.2677 11.396 27.3672C11.396 27.3672 11.396 27.3672 11.4159 27.3672C11.4159 27.3672 11.4358 27.3672 11.4358 27.3872C11.4557 27.3274 11.4956 27.2677 11.6151 27.2079L11.6549 27.188L11.6748 27.2278C11.6947 27.2677 11.6947 27.3274 11.6947 27.3672C11.6947 27.4071 11.6748 27.4668 11.6549 27.4867C11.6748 27.4867 11.6947 27.5066 11.7146 27.5066C11.7545 27.5465 11.7744 27.5863 11.7744 27.6461C11.5951 27.6261 11.4956 27.7257 11.4557 27.8452C11.4358 27.885 11.4358 27.9249 11.4358 27.9647C11.4358 28.0443 11.4557 28.124 11.5155 28.1837C11.5155 28.1439 11.5155 28.124 11.5155 28.0842C11.5155 28.0643 11.5155 28.0244 11.5155 27.9846C11.5155 27.9647 11.5155 27.9448 11.4956 27.9249C11.4956 27.9049 11.4757 27.9049 11.4557 27.885C11.4956 27.8253 11.5354 27.8054 11.5951 27.8253C11.6151 27.8253 11.635 27.8253 11.6549 27.8452C11.6748 27.8253 11.6947 27.7855 11.7545 27.7655L11.7943 27.7456L11.8142 27.8054C11.8341 27.8452 11.8341 27.885 11.8341 27.9249C11.8341 27.9448 11.8341 27.9647 11.8341 27.9846C11.9337 28.0045 11.9536 28.0842 11.9337 28.1638C11.8739 28.1439 11.8341 28.1439 11.7943 28.1638C11.7545 28.2037 11.7545 28.2634 11.7943 28.3231C11.8142 28.3829 11.8739 28.3829 11.9536 28.3829C11.9536 28.363 11.9337 28.3431 11.9337 28.3231C11.9337 28.3032 11.9337 28.2833 11.9536 28.2435C11.9735 28.2037 12.0133 28.1638 12.0731 28.1638C12.1129 28.1439 12.1727 28.1638 12.2125 28.2037C12.2722 28.2435 12.2722 28.3231 12.2922 28.363C12.2922 28.363 12.332 28.3231 12.4116 28.3231H15.1001C15.1798 28.3231 15.2196 28.363 15.2196 28.363C15.2196 28.3032 15.2196 28.2435 15.2993 28.2037C15.3391 28.1638 15.3988 28.1638 15.4387 28.1638C15.4785 28.1837 15.5183 28.2037 15.5582 28.2435C15.5781 28.2634 15.5781 28.3032 15.5781 28.3231C15.5781 28.3431 15.5781 28.363 15.5582 28.3829C15.6378 28.4028 15.6777 28.3829 15.7175 28.3231C15.7374 28.2833 15.7374 28.2037 15.7175 28.1638C15.6777 28.124 15.6378 28.1439 15.5781 28.1638C15.5582 28.0643 15.5781 27.9846 15.6777 27.9846C15.6777 27.9647 15.6777 27.9448 15.6777 27.9249C15.6777 27.885 15.6976 27.8452 15.6976 27.8054L15.7175 27.7456L15.7573 27.7655C15.8171 27.7855 15.837 27.8253 15.8569 27.8452C15.8768 27.8253 15.8967 27.8253 15.9166 27.8253C15.9565 27.8253 15.9963 27.8452 16.056 27.885C16.0361 27.885 16.0162 27.9049 16.0162 27.9249C15.9963 27.9448 15.9963 27.9647 15.9963 27.9846C15.9963 28.0045 15.9963 28.0443 15.9963 28.0842C15.9963 28.124 15.9963 28.1439 15.9963 28.1837C16.056 28.124 16.0759 28.0443 16.0759 27.9647C16.0759 27.9249 16.0759 27.885 16.056 27.8452C16.0162 27.7257 15.9166 27.6261 15.7374 27.6461C15.7374 27.5863 15.7573 27.5465 15.7971 27.5066C15.8171 27.4867 15.837 27.4867 15.8569 27.4867C15.837 27.4469 15.8171 27.4071 15.8171 27.3672C15.8171 27.3075 15.837 27.2677 15.837 27.2278L15.8569 27.188L15.8967 27.2079C16.0162 27.2478 16.056 27.3274 16.0759 27.3872C16.0759 27.3872 16.0759 27.3872 16.0959 27.3672C16.0959 27.3672 16.0959 27.3672 16.1158 27.3672C16.0759 27.2677 15.9764 27.188 15.8768 27.0884C15.6777 26.9092 15.4387 26.7101 15.4387 26.3118C15.4387 26.252 15.4188 26.1923 15.4188 26.1724C15.4188 26.2719 15.3192 26.3516 15.2196 26.3516C15.12 26.3516 15.0802 26.2919 15.0603 26.252C15.0205 26.2719 14.9408 26.3118 14.8611 26.3118C14.8213 26.3118 14.8014 26.3118 14.7815 26.3118C14.7616 26.2919 14.7217 26.2919 14.6819 26.252C14.4031 26.4512 14.1243 26.5906 13.7459 26.5906Z" fill="#C22537"/>
<path d="M15.6775 28.184C15.6576 28.1641 15.6377 28.1641 15.6377 28.1641C15.6377 28.1641 15.6576 28.184 15.6775 28.184Z" fill="#BF232F"/>
<path d="M16.0361 27.9847C16.0361 27.9448 16.0361 27.905 16.0162 27.8652C15.9764 27.7656 15.8967 27.666 15.7573 27.666C15.8967 27.666 15.9764 27.7656 16.0162 27.8652C16.0361 27.905 16.0361 27.9448 16.0361 27.9847Z" fill="#BF232F"/>
<path d="M15.5779 28.4229C15.558 28.4229 15.558 28.4229 15.5381 28.4229C15.5381 28.403 15.558 28.3831 15.558 28.3632C15.558 28.3433 15.558 28.3234 15.5381 28.2835C15.5182 28.2437 15.4783 28.2039 15.4385 28.2039C15.4186 28.2039 15.4186 28.2039 15.3987 28.2039C15.3588 28.2039 15.319 28.2238 15.2991 28.2437C15.2394 28.2835 15.2394 28.3632 15.2194 28.403C15.2194 28.403 15.1995 28.403 15.1796 28.3831C15.1597 28.3831 15.1199 28.3632 15.08 28.3632H12.3916C12.3517 28.3632 12.3119 28.3632 12.292 28.3831C12.2721 28.3831 12.2522 28.403 12.2522 28.403C12.2522 28.3433 12.2522 28.2835 12.1725 28.2437C12.1327 28.2238 12.1128 28.2039 12.0729 28.2039C12.053 28.2039 12.053 28.2039 12.0331 28.2039C11.9933 28.2238 11.9534 28.2437 11.9136 28.2835C11.8937 28.3034 11.8937 28.3234 11.8937 28.3632C11.8937 28.3831 11.8937 28.403 11.9136 28.4229C11.8937 28.4229 11.8937 28.4229 11.8738 28.4229C11.814 28.4229 11.7742 28.403 11.7543 28.3632C11.7344 28.3433 11.7344 28.3234 11.7344 28.2835C11.7344 28.2437 11.7344 28.2238 11.7543 28.2039C11.7344 28.2238 11.7344 28.2636 11.7344 28.2835C11.7344 28.3034 11.7344 28.3433 11.7543 28.3632C11.7543 28.3632 11.7543 28.3632 11.7543 28.3831C11.7742 28.403 11.814 28.4229 11.8339 28.4229H11.8539C11.8539 28.4229 11.8539 28.4229 11.8738 28.4229H11.8937C11.8937 28.403 11.8738 28.3831 11.8738 28.3632C11.8738 28.3433 11.8738 28.3234 11.8937 28.2835C11.9136 28.2437 11.9534 28.2039 12.0132 28.2039H12.0331C12.053 28.2039 12.0729 28.2039 12.0928 28.2238C12.0928 28.2238 12.1128 28.2238 12.1128 28.2437C12.1128 28.2437 12.1128 28.2437 12.1327 28.2437C12.1924 28.2835 12.1924 28.3632 12.2123 28.403C12.2123 28.403 12.2522 28.3632 12.3318 28.3632H15.0203C15.1 28.3632 15.1398 28.403 15.1398 28.403C15.1398 28.3433 15.1398 28.2835 15.2194 28.2437C15.2593 28.2238 15.2792 28.2039 15.319 28.2039C15.3389 28.2039 15.3389 28.2039 15.3588 28.2039C15.3987 28.2238 15.4385 28.2437 15.4783 28.2835C15.4983 28.3034 15.4983 28.3433 15.4983 28.3632C15.4983 28.3831 15.4983 28.403 15.4783 28.4229C15.5381 28.4229 15.558 28.4229 15.5779 28.4229C15.6377 28.4229 15.6775 28.403 15.6974 28.3632C15.7173 28.3433 15.7173 28.3234 15.7173 28.2835C15.7173 28.2437 15.7173 28.2238 15.6974 28.2039C15.6775 28.184 15.6576 28.184 15.6576 28.184C15.6377 28.184 15.6377 28.184 15.6177 28.184C15.5978 28.184 15.5978 28.184 15.5779 28.2039C15.5779 28.184 15.5779 28.164 15.5779 28.1441C15.5779 28.0844 15.6177 28.0246 15.6775 28.0246C15.6775 28.0047 15.6775 27.9848 15.6775 27.9649C15.6775 27.9251 15.6974 27.8852 15.6974 27.8454L15.7173 27.7857L15.7571 27.8056C15.8169 27.8255 15.8368 27.8653 15.8567 27.8852C15.8766 27.8653 15.8965 27.8653 15.9165 27.8653C15.9165 27.8653 15.9165 27.8653 15.9364 27.8653C15.9364 27.8653 15.9364 27.8653 15.9563 27.8653H15.9762C15.9961 27.8653 16.0359 27.8852 16.0559 27.9251C16.0359 27.9251 16.016 27.945 16.016 27.9649C15.9961 27.9848 15.9961 28.0047 15.9961 28.0246C15.9961 28.0446 15.9961 28.0844 15.9961 28.1242C15.9961 28.164 15.9961 28.184 15.9961 28.2238C16.0559 28.164 16.0758 28.0844 16.0758 28.0047C16.0758 27.9649 16.0758 27.9251 16.0559 27.8852C16.016 27.7857 15.9364 27.6861 15.797 27.6861C15.7771 27.6861 15.7771 27.6861 15.7571 27.6861C15.7571 27.6861 15.7571 27.6861 15.7372 27.6861C15.7372 27.6263 15.7571 27.5865 15.797 27.5467C15.8169 27.5268 15.8368 27.5268 15.8567 27.5268C15.8368 27.4869 15.8169 27.4471 15.8169 27.4073C15.8169 27.3475 15.8368 27.3077 15.8368 27.2679L15.8567 27.2281L15.8965 27.248C16.016 27.2878 16.0559 27.3675 16.0758 27.4272C16.0758 27.4272 16.0758 27.4272 16.0957 27.4073C16.0957 27.4073 16.0957 27.4073 16.1156 27.4073C16.0758 27.3077 15.9762 27.2281 15.8766 27.1285C15.6775 26.9492 15.4385 26.7501 15.4385 26.3518C15.4385 26.2921 15.4186 26.2323 15.4186 26.2124C15.4186 26.312 15.319 26.3916 15.2194 26.3916C15.1199 26.3916 15.08 26.3319 15.0601 26.2921C15.0203 26.312 14.9406 26.3518 14.861 26.3518H14.8411C14.8212 26.3518 14.8012 26.3518 14.7813 26.3319C14.7614 26.312 14.7216 26.312 14.6817 26.2721C14.4428 26.4713 14.1441 26.6107 13.7657 26.6107C14.1441 26.6107 14.4428 26.4713 14.6817 26.2721C14.7216 26.312 14.7614 26.3319 14.7813 26.3319C14.8012 26.3319 14.8212 26.3518 14.8411 26.3518H14.861C14.9406 26.3518 15.0203 26.312 15.0601 26.2921C15.08 26.3319 15.1199 26.3916 15.2194 26.3916C15.319 26.3916 15.4186 26.3319 15.4186 26.2124C15.4385 26.2323 15.4385 26.2921 15.4385 26.3518C15.4385 26.7302 15.6576 26.9492 15.8567 27.1285C15.9563 27.2281 16.0559 27.3077 16.0957 27.4073C16.0957 27.4073 16.0957 27.4073 16.0758 27.4073C16.0758 27.4073 16.0559 27.4073 16.0559 27.4272C16.0359 27.3675 15.9961 27.3077 15.8766 27.248L15.8368 27.2281L15.8169 27.2679C15.797 27.3077 15.797 27.3675 15.797 27.4073C15.797 27.4471 15.8169 27.5069 15.8368 27.5268C15.8169 27.5268 15.797 27.5467 15.7771 27.5467C15.7372 27.5865 15.7173 27.6263 15.7173 27.6861C15.7372 27.6861 15.7571 27.6861 15.7771 27.6861C15.9364 27.6861 16.016 27.7658 16.0359 27.8852C16.0559 27.9251 16.0559 27.9649 16.0559 28.0047C16.0559 28.0844 16.0359 28.164 15.9762 28.2238C15.9762 28.184 15.9762 28.164 15.9762 28.1242C15.9762 28.1043 15.9762 28.0645 15.9762 28.0246C15.9762 28.0047 15.9762 27.9848 15.9961 27.9649C15.9961 27.945 16.016 27.945 16.0359 27.9251C15.9961 27.8852 15.9563 27.8653 15.9364 27.8653H15.9165C15.8965 27.8653 15.8766 27.8653 15.8567 27.8852C15.8368 27.8653 15.8169 27.8255 15.7571 27.8056L15.7173 27.7857L15.6974 27.8454C15.6775 27.8852 15.6775 27.9251 15.6775 27.9649C15.6775 27.9848 15.6775 28.0047 15.6775 28.0246C15.5978 28.0246 15.5779 28.0844 15.5779 28.1441C15.5779 28.164 15.5779 28.184 15.5779 28.2039C15.5978 28.2039 15.6377 28.184 15.6576 28.184C15.6775 28.184 15.6974 28.184 15.7173 28.2039C15.7372 28.2238 15.7372 28.2636 15.7372 28.2835C15.7372 28.3034 15.7372 28.3433 15.7173 28.3632C15.6576 28.403 15.6177 28.4229 15.5779 28.4229Z" fill="black"/>
<path d="M15.9565 28.2038C15.9565 28.1639 15.9565 28.144 15.9565 28.1042C15.9565 28.0843 15.9565 28.0444 15.9565 28.0046C15.9565 27.9847 15.9565 27.9648 15.9764 27.9449C15.9764 27.925 15.9963 27.925 16.0162 27.905C15.9963 27.8652 15.9565 27.8453 15.9365 27.8453H15.9166C15.9166 27.8453 15.9166 27.8453 15.8967 27.8453C15.8967 27.8453 15.8967 27.8453 15.8768 27.8453H15.8967C15.9365 27.8453 15.9764 27.8652 16.0162 27.905C15.9963 27.905 15.9764 27.925 15.9764 27.9449C15.9565 27.9648 15.9565 27.9847 15.9565 28.0046C15.9565 28.0245 15.9565 28.0644 15.9565 28.1042C15.9565 28.144 15.9565 28.1839 15.9565 28.2038C16.0162 28.144 16.0361 28.0644 16.0361 27.9847C16.0361 27.9449 16.0361 27.905 16.0162 27.8652C15.9764 27.7656 15.8967 27.6661 15.7573 27.6661C15.7374 27.6661 15.7175 27.6661 15.6976 27.6661C15.6976 27.6063 15.7175 27.5665 15.7573 27.5267C15.7772 27.5068 15.7971 27.5068 15.8171 27.5068C15.7971 27.4669 15.7772 27.4271 15.7772 27.3873C15.7772 27.3275 15.7971 27.2877 15.7971 27.2479L15.8171 27.208L15.8569 27.2279C15.9764 27.2678 16.0162 27.3474 16.0361 27.4072C16.0361 27.4072 16.0361 27.4072 16.056 27.3873C16.056 27.3873 16.056 27.3873 16.0759 27.3873C16.0361 27.2877 15.9365 27.208 15.837 27.1085C15.6378 26.9292 15.3988 26.7301 15.3988 26.3318C15.3988 26.272 15.3789 26.2123 15.3789 26.1924C15.3789 26.292 15.2794 26.3716 15.1798 26.3716C15.0802 26.3716 15.0404 26.3119 15.0205 26.272C14.9806 26.292 14.901 26.3318 14.8213 26.3318H14.8014C14.7815 26.3318 14.7616 26.3318 14.7417 26.3119C14.7217 26.292 14.6819 26.292 14.6421 26.2521C14.4031 26.4513 14.1044 26.5907 13.726 26.5907C14.1044 26.5907 14.4031 26.4513 14.6421 26.2521C14.6819 26.292 14.7217 26.3119 14.7417 26.3119C14.7616 26.3119 14.7815 26.3318 14.8014 26.3318H14.8213C14.901 26.3318 14.9806 26.292 15.0205 26.272C15.0404 26.3119 15.0802 26.3716 15.1798 26.3716C15.2794 26.3716 15.3789 26.3119 15.3789 26.1924C15.3988 26.2123 15.3988 26.272 15.3988 26.3318C15.3988 26.7102 15.6179 26.9292 15.837 27.1085C15.9365 27.208 16.0361 27.2877 16.0759 27.3873H16.056C16.056 27.3873 16.0361 27.3873 16.0361 27.4072C16.0162 27.3474 15.9764 27.2877 15.8569 27.2279L15.8171 27.208L15.7971 27.2479C15.7772 27.2877 15.7772 27.3474 15.7772 27.3873C15.7772 27.4271 15.7971 27.4868 15.8171 27.5068C15.7971 27.5068 15.7772 27.5267 15.7573 27.5267C15.7175 27.5665 15.6976 27.6063 15.6976 27.6661C15.6976 27.6661 15.6976 27.6661 15.7175 27.6661C15.7374 27.6661 15.7374 27.6661 15.7573 27.6661C15.8967 27.6661 15.9764 27.7656 16.0162 27.8652C16.0361 27.905 16.0361 27.9449 16.0361 27.9847C16.0361 28.0644 16.0162 28.144 15.9565 28.2038ZM15.5781 28.4228C15.5582 28.4228 15.5582 28.4228 15.5382 28.4228C15.5382 28.4029 15.5582 28.383 15.5582 28.3631C15.5582 28.3432 15.5582 28.3233 15.5382 28.2834C15.5183 28.2436 15.4785 28.2038 15.4188 28.2038C15.3988 28.2038 15.3988 28.2038 15.3789 28.2038C15.3391 28.2038 15.3192 28.2237 15.2794 28.2436C15.2196 28.2834 15.2196 28.3631 15.1997 28.4029C15.1997 28.4029 15.1599 28.3631 15.0802 28.3631H12.3917C12.3121 28.3631 12.2722 28.4029 12.2722 28.4029C12.2722 28.3432 12.2722 28.2834 12.1926 28.2436C12.1926 28.2436 12.1926 28.2436 12.1727 28.2436L12.1528 28.2237C12.1328 28.2237 12.1129 28.2038 12.093 28.2038H12.0731C12.0333 28.2237 11.9934 28.2436 11.9536 28.2834C11.9337 28.3033 11.9337 28.3432 11.9337 28.3631C11.9337 28.383 11.9337 28.4029 11.9536 28.4228H11.9337C11.9337 28.4228 11.9337 28.4228 11.9138 28.4228H11.8939C11.854 28.4228 11.8341 28.4029 11.8142 28.383C11.8142 28.383 11.8142 28.383 11.8142 28.3631C11.7943 28.3432 11.7943 28.3233 11.7943 28.2834C11.7943 28.2436 11.7943 28.2237 11.8142 28.2038C11.8341 28.1839 11.8341 28.1839 11.854 28.1839C11.854 28.1839 11.854 28.1839 11.8739 28.1839H11.8939C11.8939 28.1839 11.9138 28.1839 11.9337 28.1839C11.9337 28.1639 11.9337 28.144 11.9337 28.1241C11.9337 28.0644 11.8939 28.0046 11.8341 28.0046C11.8341 27.9847 11.8341 27.9648 11.8341 27.9449C11.8341 27.905 11.8341 27.8652 11.8142 27.8254L11.7943 27.7656L11.7545 27.7856C11.6947 27.8055 11.6748 27.8453 11.6549 27.8652C11.635 27.8453 11.6151 27.8453 11.5951 27.8453H11.5752C11.5553 27.8453 11.5354 27.8453 11.5155 27.8652C11.5155 27.8652 11.4956 27.8652 11.4956 27.8851L11.4757 27.905C11.4956 27.905 11.5155 27.925 11.5155 27.9449C11.5354 27.9648 11.5354 27.9847 11.5354 28.0046C11.5354 28.0245 11.5354 28.0644 11.5354 28.1042C11.5354 28.144 11.5354 28.1639 11.5354 28.2038C11.4757 28.144 11.4557 28.0644 11.4557 27.9847C11.4557 27.9449 11.4557 27.905 11.4757 27.8652C11.5155 27.7656 11.5951 27.6661 11.7345 27.6661C11.7345 27.6661 11.7345 27.6661 11.7545 27.6661C11.7744 27.6661 11.7744 27.6661 11.7943 27.6661C11.7943 27.6063 11.7744 27.5665 11.7345 27.5267C11.7146 27.5068 11.6947 27.5068 11.6748 27.5068C11.6947 27.4669 11.7146 27.4271 11.7146 27.3873C11.7146 27.3275 11.6947 27.2877 11.6947 27.2479L11.6748 27.208L11.635 27.2279C11.5155 27.2678 11.4757 27.3474 11.4557 27.4072C11.4557 27.4072 11.4557 27.4072 11.4358 27.3873C11.4358 27.3873 11.4358 27.3873 11.4159 27.3873C11.4557 27.2877 11.5553 27.208 11.6549 27.1085C11.854 26.9292 12.093 26.7301 12.093 26.3318C12.093 26.272 12.1129 26.2123 12.1129 26.1924C12.1129 26.292 12.2125 26.3716 12.3121 26.3716C12.4116 26.3716 12.4515 26.3119 12.4714 26.272C12.5112 26.292 12.5909 26.3318 12.6705 26.3318C12.6904 26.3318 12.7104 26.3318 12.7303 26.3119C12.7502 26.292 12.79 26.292 12.8299 26.2521C13.0688 26.4513 13.3675 26.5907 13.7459 26.5907C13.3675 26.5907 13.0688 26.4513 12.8299 26.2521C12.79 26.292 12.7502 26.3119 12.7303 26.3119C12.7104 26.3119 12.6904 26.3318 12.6705 26.3318H12.6506C12.571 26.3318 12.4913 26.292 12.4515 26.272C12.4316 26.3119 12.3917 26.3716 12.2922 26.3716C12.1926 26.3716 12.093 26.3119 12.093 26.1924C12.0731 26.2123 12.0731 26.272 12.0731 26.3318C12.0731 26.7102 11.854 26.9292 11.635 27.1085C11.5354 27.208 11.4358 27.2877 11.396 27.3873C11.396 27.3873 11.396 27.3873 11.4159 27.3873C11.4159 27.3873 11.4358 27.3873 11.4358 27.4072C11.4557 27.3474 11.4956 27.2877 11.6151 27.2279L11.6549 27.208L11.6748 27.2479C11.6947 27.2877 11.6947 27.3474 11.6947 27.3873C11.6947 27.4271 11.6748 27.4868 11.6549 27.5068C11.6748 27.5068 11.6947 27.5267 11.7146 27.5267C11.7545 27.5665 11.7744 27.6063 11.7744 27.6661C11.7545 27.6661 11.7345 27.6661 11.7146 27.6661C11.5553 27.6661 11.4757 27.7457 11.4557 27.8652C11.4358 27.905 11.4358 27.9449 11.4358 27.9847C11.4358 28.0644 11.4557 28.144 11.5155 28.2038C11.5155 28.1639 11.5155 28.144 11.5155 28.1042C11.5155 28.0843 11.5155 28.0444 11.5155 28.0046C11.5155 27.9847 11.5155 27.9648 11.4956 27.9449C11.4956 27.925 11.4757 27.925 11.4557 27.905C11.4956 27.8652 11.5354 27.8453 11.5752 27.8453H11.5951C11.6151 27.8453 11.635 27.8453 11.6549 27.8652C11.6748 27.8453 11.6947 27.8055 11.7545 27.7856L11.7943 27.7656L11.8142 27.8254C11.8341 27.8652 11.8341 27.905 11.8341 27.9449C11.8341 27.9648 11.8341 27.9847 11.8341 28.0046C11.9138 28.0046 11.9337 28.0644 11.9337 28.1241C11.9337 28.144 11.9337 28.1639 11.9337 28.1839C11.9138 28.1639 11.8739 28.1639 11.854 28.1639C11.8341 28.1639 11.8142 28.1639 11.7943 28.1839C11.7744 28.2038 11.7744 28.2436 11.7744 28.2635C11.7744 28.2834 11.7744 28.3233 11.7943 28.3432C11.8142 28.383 11.854 28.4029 11.9138 28.4029C11.9337 28.4029 11.9337 28.4029 11.9536 28.4029C11.9536 28.383 11.9337 28.3631 11.9337 28.3432C11.9337 28.3233 11.9337 28.3033 11.9536 28.2635C11.9735 28.2237 12.0134 28.1839 12.0731 28.1839C12.093 28.1839 12.093 28.1839 12.1129 28.1839C12.1528 28.1839 12.1926 28.2038 12.2125 28.2237C12.2722 28.2635 12.2922 28.3432 12.2922 28.383C12.2922 28.383 12.3519 28.3432 12.4116 28.3432H15.1001C15.1798 28.3432 15.2196 28.383 15.2196 28.383C15.2196 28.3233 15.2196 28.2635 15.2993 28.2237C15.3391 28.2038 15.359 28.1839 15.3988 28.1839C15.4188 28.1839 15.4188 28.1839 15.4387 28.1839C15.4785 28.2038 15.5183 28.2237 15.5582 28.2635C15.5781 28.2834 15.5781 28.3233 15.5781 28.3432C15.5781 28.3631 15.5781 28.383 15.5582 28.4029C15.5382 28.4228 15.5582 28.4228 15.5781 28.4228C15.6378 28.4228 15.6777 28.4029 15.6976 28.3631C15.7175 28.3432 15.7175 28.3233 15.7175 28.2834C15.7175 28.2436 15.7175 28.2237 15.6976 28.2038C15.6777 28.1839 15.6577 28.1839 15.6378 28.1839C15.6179 28.1839 15.598 28.1839 15.5582 28.2038C15.5582 28.1839 15.5582 28.1639 15.5582 28.144C15.5582 28.0843 15.598 28.0245 15.6577 28.0245C15.6577 28.0046 15.6577 27.9847 15.6577 27.9648C15.6577 27.925 15.6577 27.8851 15.6777 27.8453L15.6976 27.7856L15.7374 27.8055C15.7971 27.8254 15.8171 27.8652 15.837 27.8851C15.8569 27.8652 15.8768 27.8652 15.8967 27.8652C15.8768 27.8652 15.8569 27.8652 15.837 27.8851C15.8171 27.8652 15.7971 27.8254 15.7374 27.8055L15.6976 27.7856L15.6777 27.8453C15.6577 27.8851 15.6577 27.925 15.6577 27.9648C15.6577 27.9847 15.6577 28.0046 15.6577 28.0245C15.5781 28.0245 15.5582 28.0843 15.5582 28.144C15.5582 28.1639 15.5582 28.1839 15.5582 28.2038C15.5781 28.2038 15.5781 28.2038 15.598 28.1839C15.6179 28.1839 15.6179 28.1839 15.6378 28.1839C15.6577 28.1839 15.6777 28.1839 15.6777 28.2038C15.6976 28.2237 15.6976 28.2635 15.6976 28.2834C15.6976 28.3033 15.6976 28.3432 15.6777 28.3631C15.6777 28.383 15.6378 28.4029 15.5781 28.4228Z" fill="#C3242F"/>
<path d="M23.2037 35.3821C23.8168 35.3342 23.7354 34.0123 23.7354 34.0123C23.7354 34.0123 23.6923 19.3897 23.7354 17.9528C23.7633 17.331 23.6639 16.71 23.4432 16.1279C23.2037 15.376 22.0638 14.4947 22.0638 14.4947C21.9105 14.399 21.7854 14.2643 21.7013 14.1044C21.6171 13.9446 21.577 13.7652 21.5849 13.5847V12.258V10.8354H18.6824V12.2723V13.599C18.6916 13.7804 18.6521 13.961 18.5679 14.1219C18.4836 14.2828 18.3578 14.4181 18.2034 14.5139C18.2034 14.5139 17.0635 15.3951 16.824 16.1423C16.5964 16.7181 16.4872 17.3339 16.5031 17.9528C16.5462 19.3897 16.5031 34.0314 16.5031 34.0314C16.5031 34.0314 16.4265 35.3007 17.0347 35.4013C19.0757 35.7632 21.165 35.7567 23.2037 35.3821Z" fill="black"/>
<path d="M20.0711 10.769H18.6917V12.2059V13.5374C18.6998 13.7193 18.6598 13.9001 18.5757 14.0616C18.4916 14.223 18.3664 14.3594 18.2127 14.457C18.2127 14.457 17.044 15.3048 16.8046 16.0376C16.5803 16.6221 16.4792 17.2466 16.5076 17.872C16.5507 19.3089 16.5076 34.0129 16.5076 34.0129C16.5076 34.0129 16.431 35.2917 17.044 35.3875C17.983 35.5578 18.9348 35.6475 19.8891 35.6558C20.004 14.1744 20.0711 10.769 20.0711 10.769Z" fill="#1E1E1E"/>
<path d="M21.5902 7.11426H18.6733V12.1002H21.5902V7.11426Z" fill="#53171F"/>
<path d="M18.9552 5.5001H21.2925C21.337 5.5001 21.3796 5.51777 21.4111 5.5492C21.4425 5.58064 21.4602 5.62328 21.4602 5.66774V6.19459H18.7588V5.71564C18.7554 5.68813 18.7579 5.6602 18.7663 5.63377C18.7746 5.60734 18.7886 5.58305 18.8073 5.56255C18.826 5.54206 18.8489 5.52587 18.8744 5.51508C18.8999 5.5043 18.9275 5.49919 18.9552 5.5001Z" fill="#53171F"/>
<path d="M21.5605 6.12793H18.7107C18.6472 6.12793 18.5957 6.17939 18.5957 6.24288V7.13853C18.5957 7.20202 18.6472 7.25348 18.7107 7.25348H21.5605C21.6239 7.25348 21.6754 7.20202 21.6754 7.13853V6.24288C21.6754 6.17939 21.6239 6.12793 21.5605 6.12793Z" fill="#411318"/>
<path d="M23.4724 18.4033H16.834V28.313H23.4724V18.4033Z" fill="white"/>
<path d="M23.2705 18.6426H17.0249V19.3275H23.2705V18.6426Z" fill="#9E7509"/>
<path d="M21.2635 18.9489C21.2635 19.1753 21.1964 19.3966 21.0706 19.5849C20.9448 19.7731 20.7661 19.9198 20.5569 20.0065C20.3477 20.0931 20.1176 20.1158 19.8955 20.0716C19.6735 20.0275 19.4695 19.9184 19.3094 19.7583C19.1493 19.5983 19.0403 19.3943 18.9961 19.1722C18.9519 18.9502 18.9746 18.72 19.0613 18.5108C19.1479 18.3017 19.2946 18.1229 19.4829 17.9971C19.6711 17.8713 19.8924 17.8042 20.1188 17.8042C20.4224 17.8042 20.7136 17.9248 20.9283 18.1395C21.1429 18.3542 21.2635 18.6453 21.2635 18.9489Z" fill="#9A7408"/>
<g opacity="0.6">
<g opacity="0.8">
<g opacity="0.3">
<path d="M26.3213 7.37007H18.667C18.4694 7.37007 18.3213 7.22192 18.3213 7.02439C18.3213 6.82686 18.4694 6.67871 18.667 6.67871H26.3213C26.5188 6.67871 26.667 6.82686 26.667 7.02439C26.667 7.22192 26.5188 7.37007 26.3213 7.37007Z" fill="#999999"/>
<path d="M16.2471 7.37007H14.7656C14.5681 7.37007 14.4199 7.22192 14.4199 7.02439C14.4199 6.82686 14.5681 6.67871 14.7656 6.67871H16.2471C16.4446 6.67871 16.5928 6.82686 16.5928 7.02439C16.5928 7.22192 16.4446 7.37007 16.2471 7.37007Z" fill="#999999"/>
<path fill-rule="evenodd" clip-rule="evenodd" d="M14.7656 5.04927H15.457V4.35791H14.7656V5.04927ZM16.7903 5.04927H16.099V4.35791H16.7903V5.04927ZM17.4323 5.04927H18.1237V4.35791H17.4323V5.04927ZM19.457 5.04927H18.7656V4.35791H19.457V5.04927ZM20.099 5.04927H20.7903V4.35791H20.099V5.04927ZM21.4323 5.04927H22.1237V4.35791H21.4323V5.04927Z" fill="#999999"/>
</g>
<g opacity="0.3">
<path d="M26.3213 36.7036H18.667C18.4694 36.7036 18.3213 36.5554 18.3213 36.3579C18.3213 36.1604 18.4694 36.0122 18.667 36.0122H26.3213C26.5188 36.0122 26.667 36.1604 26.667 36.3579C26.667 36.5554 26.5188 36.7036 26.3213 36.7036Z" fill="#999999"/>
<path d="M16.2471 36.7036H14.7656C14.5681 36.7036 14.4199 36.5554 14.4199 36.3579C14.4199 36.1604 14.5681 36.0122 14.7656 36.0122H16.2471C16.4446 36.0122 16.5928 36.1604 16.5928 36.3579C16.5928 36.5554 16.4446 36.7036 16.2471 36.7036Z" fill="#999999"/>
<path fill-rule="evenodd" clip-rule="evenodd" d="M16.7903 34.3828H16.099V33.6914H16.7903V34.3828ZM17.4323 34.3828H18.1237V33.6914H17.4323V34.3828ZM19.457 34.3828H18.7656V33.6914H19.457V34.3828ZM20.099 34.3828H20.7903V33.6914H20.099V34.3828ZM21.4323 34.3828H22.1236V33.6914H21.4323V34.3828ZM14.7656 34.3828H15.457V33.6914H14.7656V34.3828Z" fill="#999999"/>
</g>
</g>
<g opacity="0.2">
<path d="M36.6913 19.6667H30.8641C30.716 19.6667 30.6172 19.5679 30.6172 19.4198C30.6172 19.2716 30.716 19.1729 30.8641 19.1729H36.6913C36.8394 19.1729 36.9382 19.2716 36.9382 19.4198C36.9382 19.5185 36.8394 19.6667 36.6913 19.6667Z" fill="#999999"/>
<path d="M33.7777 18.2346H27.9505C27.8024 18.2346 27.7036 18.1358 27.7036 17.9876C27.7036 17.8395 27.8024 17.7407 27.9505 17.7407H33.7777C33.9258 17.7407 34.0246 17.8395 34.0246 17.9876C34.0246 18.1358 33.9258 18.2346 33.7777 18.2346Z" fill="#999999"/>
<path d="M12.6419 19.6667H6.81478C6.66664 19.6667 6.56787 19.5679 6.56787 19.4198C6.56787 19.2716 6.66664 19.1729 6.81478 19.1729H12.6419C12.7901 19.1729 12.8889 19.2716 12.8889 19.4198C12.8889 19.5185 12.7901 19.6667 12.6419 19.6667Z" fill="#999999"/>
<path d="M9.72837 18.2346H3.90121C3.75306 18.2346 3.6543 18.1358 3.6543 17.9876C3.6543 17.8395 3.75306 17.7407 3.90121 17.7407H9.72837C9.87652 17.7407 9.97529 17.8395 9.97529 17.9876C9.97529 18.1358 9.87652 18.2346 9.72837 18.2346Z" fill="#999999"/>
</g>
</g>
</g>
<defs>
<clipPath id="clip0_3397_34848">
<rect width="40" height="40" fill="white" transform="translate(0.5 0.5)"/>
</clipPath>
</defs>
</svg>
