<svg width="45" height="45" viewBox="0 0 45 45" fill="none" xmlns="http://www.w3.org/2000/svg">
<ellipse cx="22.5" cy="22.4549" rx="22.5" ry="22.4439" fill="#E8EBF7"/>
<g opacity="0.8">
<g opacity="0.3">
<path d="M29.081 8.16184H20.631C20.4116 8.16184 20.2469 7.99723 20.2469 7.77775C20.2469 7.55828 20.4116 7.39367 20.631 7.39367H29.1358C29.3553 7.39367 29.5199 7.55828 29.5199 7.77775C29.4651 7.99723 29.3004 8.16184 29.081 8.16184Z" fill="#999999"/>
<path d="M17.9424 8.16184H16.2963C16.0768 8.16184 15.9122 7.99723 15.9122 7.77775C15.9122 7.55828 16.0768 7.39367 16.2963 7.39367H17.9424C18.1619 7.39367 18.3265 7.55828 18.3265 7.77775C18.2716 7.99723 18.107 8.16184 17.9424 8.16184Z" fill="#999999"/>
<path fill-rule="evenodd" clip-rule="evenodd" d="M16.2415 5.58297H17.0096V4.81479H16.2415V5.58297ZM18.4911 5.58297H17.7229V4.81479H18.4911V5.58297ZM19.2044 5.58297H19.9726V4.81479H19.2044V5.58297ZM21.4541 5.58297H20.6859V4.81479H21.4541V5.58297ZM22.1674 5.58297H22.9356V4.81479H22.1674V5.58297ZM23.6489 5.58297H24.417V4.81479H23.6489V5.58297Z" fill="#999999"/>
</g>
<g opacity="0.3">
<path d="M29.081 40.6996H20.631C20.4116 40.6996 20.2469 40.535 20.2469 40.3155C20.2469 40.096 20.4116 39.9314 20.631 39.9314H29.1358C29.3553 39.9314 29.5199 40.096 29.5199 40.3155C29.5199 40.535 29.3004 40.6996 29.081 40.6996Z" fill="#999999"/>
<path d="M17.9424 40.6996H16.2963C16.0768 40.6996 15.9122 40.535 15.9122 40.3155C15.9122 40.096 16.0768 39.9314 16.2963 39.9314H17.9424C18.1619 39.9314 18.3265 40.096 18.3265 40.3155C18.2716 40.535 18.107 40.6996 17.9424 40.6996Z" fill="#999999"/>
<path fill-rule="evenodd" clip-rule="evenodd" d="M16.2415 38.1207H17.0096V37.3525H16.2415V38.1207ZM18.4911 38.1207H17.7229V37.3525H18.4911V38.1207ZM19.2044 38.1207H19.9726V37.3525H19.2044V38.1207ZM21.4541 38.1207H20.6859V37.3525H21.4541V38.1207ZM22.1674 38.1207H22.9356V37.3525H22.1674V38.1207ZM23.6489 38.1207H24.417V37.3525H23.6489V38.1207Z" fill="#999999"/>
</g>
</g>
<g opacity="0.2">
<path d="M40.6036 21.7695H34.129C33.9644 21.7695 33.8546 21.6598 33.8546 21.4952C33.8546 21.3306 33.9644 21.2208 34.129 21.2208H40.6036C40.7682 21.2208 40.8779 21.3306 40.8779 21.4952C40.8779 21.6598 40.7682 21.7695 40.6036 21.7695Z" fill="#999999"/>
<path d="M37.3663 20.1783H30.8917C30.727 20.1783 30.6173 20.0686 30.6173 19.904C30.6173 19.7393 30.727 19.6296 30.8917 19.6296H37.3663C37.5309 19.6296 37.6406 19.7393 37.6406 19.904C37.6955 20.0686 37.5309 20.1783 37.3663 20.1783Z" fill="#999999"/>
<path d="M13.9369 21.7695H7.46228C7.29767 21.7695 7.18793 21.6598 7.18793 21.4952C7.18793 21.3306 7.29767 21.2208 7.46228 21.2208H13.9369C14.1015 21.2208 14.2112 21.3306 14.2112 21.4952C14.2112 21.6598 14.0466 21.7695 13.9369 21.7695Z" fill="#999999"/>
<path d="M10.6996 20.1783H4.22497C4.06036 20.1783 3.95062 20.0686 3.95062 19.904C3.95062 19.7393 4.06036 19.6296 4.22497 19.6296H10.6996C10.8642 19.6296 10.9739 19.7393 10.9739 19.904C10.9739 20.0686 10.8093 20.1783 10.6996 20.1783Z" fill="#999999"/>
</g>
<rect x="9" y="26.6207" width="5.58621" height="8.37931" rx="2.7931" fill="#DABFDB"/>
<rect x="15.5173" y="21.0345" width="5.58621" height="13.9655" rx="2.7931" fill="#B680B7"/>
<rect x="22.0344" y="14.5172" width="5.58621" height="20.4828" rx="2.7931" fill="#914093"/>
<rect x="28.5517" y="8" width="5.58621" height="27" rx="2.7931" fill="#6C006F"/>
</svg>
