<svg width="30" height="30" viewBox="0 0 30 30" fill="none" xmlns="http://www.w3.org/2000/svg">
<circle cx="15" cy="15" r="14.5" fill="white" stroke="#F0B63F"/>
<path d="M15.3295 25.1573C15.3295 25.1573 15.6258 25.3661 16.2708 25.1573C16.2708 25.1573 16.4974 24.9485 16.7066 25.1573C16.7066 25.1573 17.0029 25.2791 17.5433 25.1573C17.5433 25.1573 18.1534 25.2965 18.6241 23.9915C18.6241 23.9915 18.781 23.4348 18.6241 21.9907L18.1709 12.0906C18.1709 12.0906 17.9094 11.9514 18.0663 11.586C18.0663 11.586 19.5654 8.62821 17.2818 6.59253H15.3469L15.3295 25.1573Z" fill="#FFAA02"/>
<path d="M15.3643 25.1573C15.3643 25.1573 15.068 25.3661 14.423 25.1573C14.423 25.1573 14.1964 24.9485 13.9872 25.1573C13.9872 25.1573 13.6909 25.2791 13.1505 25.1573C13.1505 25.1573 12.5404 25.2965 12.0697 23.9915C12.0697 23.9915 11.9128 23.4348 12.0697 21.9907L12.523 12.0906C12.523 12.0906 12.7844 11.9514 12.6275 11.586C12.6275 11.586 11.1284 8.62821 13.412 6.59253H15.3469L15.3643 25.1573Z" fill="#FAC801"/>
<path d="M15.3469 6.57508H17.2818C17.2818 6.57508 17.0377 6.1575 16.602 5.84432V5.49634H15.3469V6.57508Z" fill="#CCCCCC"/>
<path d="M15.3469 6.57508H13.412C13.412 6.57508 13.656 6.1575 14.0918 5.84432V5.49634H15.3469V6.57508Z" fill="#E2D7D1"/>
<path d="M16.7066 4H13.9872V5.25273H16.7066V4Z" fill="#1C1C17"/>
<path d="M13.0461 18.041L15.3296 18.4238L17.6655 18.041V22.269H13.0461V18.041Z" fill="#1C1C17"/>
<path d="M17.6653 18.3194V17.7278C17.6653 17.7278 16.602 17.606 15.2946 18.2672L15.8873 18.65C15.8873 18.65 17.125 18.2498 17.6653 18.3194Z" fill="#00BB6C"/>
<path d="M13.0284 18.3193V17.7278C13.0284 17.7278 15.068 17.7278 16.0093 18.6151C16.0093 18.6151 15.5909 18.7369 15.3817 18.9283C15.3643 18.9283 14.3881 18.2846 13.0284 18.3193Z" fill="#009966"/>
<path d="M15.2423 11.6033C15.068 11.4815 14.8588 11.4119 14.6322 11.4119H14.0221C13.935 11.4119 13.8652 11.4815 13.8652 11.5685C13.8652 12.16 14.3533 12.6472 14.946 12.6472H15.5561C15.6433 12.6472 15.713 12.5776 15.713 12.4906C15.713 12.1252 15.5213 11.7946 15.2423 11.6033Z" fill="#98D400"/>
<path d="M16.6369 12.1775C16.6369 12.2645 16.5671 12.3341 16.48 12.3341C15.8873 12.3341 15.3992 12.8213 15.3992 13.4129V13.6042C15.3992 13.6912 15.3295 13.7608 15.2423 13.7608V12.7865C15.4689 12.3341 15.9396 12.0383 16.48 12.0383C16.5671 12.0209 16.6369 12.0905 16.6369 12.1775Z" fill="#8B432D"/>
<path d="M17.3341 14.9614C17.3341 16.0402 16.4625 16.9275 15.3643 16.9275C14.2836 16.9275 13.3945 16.0576 13.3945 14.9614C13.3945 13.8827 14.2661 12.9954 15.3643 12.9954C16.4625 13.0128 17.3341 13.8827 17.3341 14.9614Z" fill="#FFA800"/>
<path d="M15.3295 13.0127C16.4102 13.0127 17.2993 13.8826 17.2993 14.9788C17.2993 16.0575 16.4277 16.9449 15.3295 16.9449V13.0127Z" fill="#FF6F00"/>
</svg>
