<svg width="51" height="18" viewBox="0 0 51 18" fill="none" xmlns="http://www.w3.org/2000/svg">
<rect width="51" height="18" rx="9" fill="#F40009"/>
<path d="M7.84 13V6H9.26L12.54 10.31V6H14.06V13H12.75L9.36 8.55V13H7.84ZM18.6604 13.11C16.7804 13.11 15.6304 12.06 15.6304 10V6H17.1704V9.96C17.1704 11.1 17.7404 11.69 18.6804 11.69C19.6204 11.69 20.1904 11.12 20.1904 10.01V6H21.7304V9.95C21.7304 12.07 20.5404 13.11 18.6604 13.11ZM23.299 13V6H28.579V7.37H24.829V8.79H28.129V10.16H24.829V11.63H28.629V13H23.299ZM32.2282 13.05L29.3982 6H31.0982L32.9282 10.93L34.7582 6H36.4182L33.5882 13.05H32.2282ZM40.449 13.12C38.289 13.12 36.739 11.51 36.739 9.52V9.5C36.739 7.51 38.309 5.88 40.469 5.88C42.629 5.88 44.179 7.49 44.179 9.48V9.5C44.179 11.49 42.609 13.12 40.449 13.12ZM40.469 11.7C41.709 11.7 42.569 10.72 42.569 9.52V9.5C42.569 8.3 41.689 7.3 40.449 7.3C39.209 7.3 38.349 8.28 38.349 9.48V9.5C38.349 10.7 39.229 11.7 40.469 11.7Z" fill="white"/>
</svg>
