<svg width="30" height="30" viewBox="0 0 30 30" fill="none" xmlns="http://www.w3.org/2000/svg">
<circle cx="15" cy="15" r="15" fill="#E6F6F9"/>
<path d="M14.8077 5C9.39995 5 5 9.39995 5 14.807C5 20.2154 9.39995 24.6154 14.8077 24.6154C20.2154 24.6154 24.6154 20.2154 24.6154 14.807C24.6154 9.39995 20.2154 5 14.8077 5ZM14.8077 23.2929C10.1288 23.2929 6.32251 19.4857 6.32251 14.807C6.32251 10.1283 10.1288 6.32251 14.8077 6.32251C19.4866 6.32251 23.2929 10.1283 23.2929 14.807C23.2929 19.4857 19.4866 23.2929 14.8077 23.2929Z" fill="#04A4C7" stroke="#04A4C7"/>
<path d="M15.042 14.2811C13.4968 13.9777 12.769 13.7491 12.769 12.9754C12.769 12.4161 13.0112 12.0275 13.509 11.7861C14.3742 11.3676 15.8103 11.5304 16.5818 12.1374C16.8697 12.3647 17.2849 12.3144 17.5103 12.0262C17.7363 11.7396 17.6866 11.3238 17.3991 11.0991C16.8708 10.6837 16.1836 10.4191 15.4685 10.3018V9.12708C15.4685 8.76158 15.1728 8.46582 14.8073 8.46582C14.4418 8.46582 14.146 8.76158 14.146 9.12708V10.2637C13.7132 10.3132 13.2973 10.4191 12.9314 10.5967C11.9737 11.0616 11.4463 11.9061 11.4463 12.9754C11.4463 14.9215 13.3769 15.3013 14.7859 15.5788C16.3065 15.8772 16.8464 16.0825 16.8464 16.6378C16.8464 17.1816 16.6171 17.565 16.1459 17.8078C15.3155 18.2391 13.9265 18.1111 13.1103 17.5327C12.812 17.3235 12.3994 17.3919 12.1888 17.6903C11.9776 17.9887 12.0474 18.4006 12.3458 18.6124C12.8527 18.9718 13.488 19.2028 14.146 19.3096V20.8906C14.146 21.2561 14.4418 21.5519 14.8073 21.5519C15.1728 21.5519 15.4685 21.2561 15.4685 20.8906V19.3273C15.9297 19.2754 16.3756 19.1784 16.7536 18.9832C17.6659 18.5117 18.1689 17.6787 18.1689 16.638C18.1694 14.896 16.4356 14.5551 15.042 14.2811Z" fill="#04A4C7" stroke="#04A4C7"/>
</svg>
