<svg width="30" height="31" viewBox="0 0 30 31" fill="none" xmlns="http://www.w3.org/2000/svg">
<circle cx="15" cy="15.1885" r="15" fill="#ECF6FF"/>
<path d="M19.6875 13.3908L11.4663 8.6499" stroke="#1890FF" stroke-width="2" stroke-linecap="round" stroke-linejoin="round"/>
<path d="M23.798 19.4194V12.1117C23.7977 11.7913 23.7131 11.4767 23.5528 11.1993C23.3925 10.9219 23.162 10.6916 22.8846 10.5314L16.4903 6.87757C16.2126 6.71723 15.8976 6.63281 15.5769 6.63281C15.2562 6.63281 14.9411 6.71723 14.6634 6.87757L8.26917 10.5314C7.99172 10.6916 7.76127 10.9219 7.60094 11.1993C7.44061 11.4767 7.35604 11.7913 7.35571 12.1117V19.4194C7.35604 19.7398 7.44061 20.0544 7.60094 20.3318C7.76127 20.6092 7.99172 20.8395 8.26917 20.9997L14.6634 24.6535C14.9411 24.8139 15.2562 24.8983 15.5769 24.8983C15.8976 24.8983 16.2126 24.8139 16.4903 24.6535L22.8846 20.9997C23.162 20.8395 23.3925 20.6092 23.5528 20.3318C23.7131 20.0544 23.7977 19.7398 23.798 19.4194Z" stroke="#1890FF" stroke-width="2" stroke-linecap="round" stroke-linejoin="round"/>
<path d="M7.60229 11.1621L15.5768 15.7751L23.5513 11.1621" stroke="#1890FF" stroke-width="2" stroke-linecap="round" stroke-linejoin="round"/>
<path d="M15.5767 24.9733V15.7656" stroke="#1890FF" stroke-width="2" stroke-linecap="round" stroke-linejoin="round"/>
</svg>
