<svg width="30" height="31" viewBox="0 0 30 31" fill="none" xmlns="http://www.w3.org/2000/svg">
<circle cx="15" cy="15.1016" r="15" fill="#EAF8F8"/>
<path d="M23.6539 21.1591C23.6539 21.6182 23.4715 22.0584 23.1469 22.383C22.8224 22.7076 22.3821 22.8899 21.9231 22.8899H8.07696C7.61793 22.8899 7.1777 22.7076 6.85312 22.383C6.52854 22.0584 6.34619 21.6182 6.34619 21.1591V9.04376C6.34619 8.58473 6.52854 8.1445 6.85312 7.81992C7.1777 7.49534 7.61793 7.31299 8.07696 7.31299H12.4039L14.1347 9.90914H21.9231C22.3821 9.90914 22.8224 10.0915 23.1469 10.4161C23.4715 10.7407 23.6539 11.1809 23.6539 11.6399V21.1591Z" stroke="#36CBCB" stroke-width="2" stroke-linecap="round" stroke-linejoin="round"/>
</svg>
