<svg width="44" height="44" viewBox="0 0 44 44" fill="none" xmlns="http://www.w3.org/2000/svg">
<circle cx="22" cy="22" r="22" fill="#E8EBF7"/>
<path d="M29.3689 6.97626H20.8574C20.6289 6.97626 20.4575 6.80488 20.4575 6.57638C20.4575 6.34789 20.6289 6.17651 20.8574 6.17651H29.3689C29.5974 6.17651 29.7688 6.34789 29.7688 6.57638C29.7117 6.80488 29.5403 6.97626 29.3689 6.97626Z" fill="#CCD8E5"/>
<path d="M18.1156 6.97626H16.459C16.2305 6.97626 16.0591 6.80488 16.0591 6.57638C16.0591 6.34789 16.2305 6.17651 16.459 6.17651H18.1156C18.3441 6.17651 18.5154 6.34789 18.5154 6.57638C18.5154 6.80488 18.3441 6.97626 18.1156 6.97626Z" fill="#CCD8E5"/>
<path fill-rule="evenodd" clip-rule="evenodd" d="M16.459 4.4057H17.2016V3.66309H16.459V4.4057ZM18.6868 4.4057H17.9442V3.66309H18.6868V4.4057ZM19.4295 4.4057H20.1721V3.66309H19.4295V4.4057ZM21.6573 4.4057H20.9147V3.66309H21.6573V4.4057ZM22.3999 4.4057H23.1425V3.66309H22.3999V4.4057ZM23.8851 4.4057H24.6278V3.66309H23.8851V4.4057Z" fill="#CCD8E5"/>
<path d="M29.3689 39.7085H20.8574C20.6289 39.7085 20.4575 39.5372 20.4575 39.3087C20.4575 39.0802 20.6289 38.9088 20.8574 38.9088H29.3689C29.5974 38.9088 29.7688 39.0802 29.7688 39.3087C29.7117 39.5372 29.5403 39.7085 29.3689 39.7085Z" fill="#CCD8E5"/>
<path d="M18.1156 39.7085H16.459C16.2305 39.7085 16.0591 39.5372 16.0591 39.3087C16.0591 39.0802 16.2305 38.9088 16.459 38.9088H18.1156C18.3441 38.9088 18.5154 39.0802 18.5154 39.3087C18.5154 39.5372 18.3441 39.7085 18.1156 39.7085Z" fill="#CCD8E5"/>
<path fill-rule="evenodd" clip-rule="evenodd" d="M16.459 37.0807H17.2016V36.3381H16.459V37.0807ZM18.6868 37.0807H17.9442V36.3381H18.6868V37.0807ZM19.4295 37.0807H20.1721V36.3381H19.4295V37.0807ZM21.6573 37.0807H20.9147V36.3381H21.6573V37.0807ZM22.3999 37.0807H23.1425V36.3381H22.3999V37.0807ZM23.8851 37.0807H24.6278V36.3381H23.8851V37.0807Z" fill="#CCD8E5"/>
<path d="M40.9081 20.6861H34.396C34.2246 20.6861 34.1104 20.5719 34.1104 20.4005C34.1104 20.2291 34.2246 20.1149 34.396 20.1149H40.9081C41.0795 20.1149 41.1938 20.2291 41.1938 20.4005C41.1938 20.5147 41.0795 20.6861 40.9081 20.6861Z" fill="#CCD8E5"/>
<path d="M37.652 19.0867H31.1399C30.9685 19.0867 30.8542 18.9724 30.8542 18.801C30.8542 18.6297 30.9685 18.5154 31.1399 18.5154H37.652C37.8234 18.5154 37.9377 18.6297 37.9377 18.801C37.9377 18.9724 37.8234 19.0867 37.652 19.0867Z" fill="#CCD8E5"/>
<path d="M14.1169 20.6861H7.60471C7.43334 20.6861 7.31909 20.5719 7.31909 20.4005C7.31909 20.2291 7.43334 20.1149 7.60471 20.1149H14.1169C14.2883 20.1149 14.4025 20.2291 14.4025 20.4005C14.4025 20.5147 14.2311 20.6861 14.1169 20.6861Z" fill="#CCD8E5"/>
<path d="M10.8608 19.0867H4.34861C4.17724 19.0867 4.06299 18.9724 4.06299 18.801C4.06299 18.6297 4.17724 18.5154 4.34861 18.5154H10.8608C11.0322 18.5154 11.1464 18.6297 11.1464 18.801C11.1464 18.9724 10.975 19.0867 10.8608 19.0867Z" fill="#CCD8E5"/>
<path d="M10.0137 17.6254C10.0137 16.403 10.9919 15.412 12.1985 15.412H22.0432V31.2552H12.1985C10.9919 31.2552 10.0137 30.2642 10.0137 29.0418V17.6254Z" fill="#F40009"/>
<path d="M34.0728 29.0418C34.0728 30.2642 33.0946 31.2552 31.8879 31.2552L22.0432 31.2552L22.0432 15.412L31.8879 15.412C33.0946 15.412 34.0728 16.403 34.0728 17.6254L34.0728 29.0418Z" fill="#C00000"/>
<rect x="10.0137" y="19.0427" width="12.0296" height="2.64053" fill="#F7F9FC"/>
<rect x="22.0432" y="19.0427" width="12.0296" height="2.64053" fill="#CCC1C1"/>
<path d="M28.8708 27.6633C28.8708 27.4595 29.0339 27.2944 29.235 27.2944H32.0831C32.2842 27.2944 32.4472 27.4595 32.4472 27.6633V28.9059C32.4472 29.1096 32.2842 29.2748 32.0831 29.2748H29.235C29.0339 29.2748 28.8708 29.1096 28.8708 28.9059V27.6633Z" fill="#F1F5F9"/>
<path d="M11.3142 28.6535C11.3142 28.4497 11.4772 28.2846 11.6783 28.2846H20.3786C20.5797 28.2846 20.7428 28.4497 20.7428 28.6535V28.9059C20.7428 29.1096 20.5797 29.2748 20.3786 29.2748H11.6783C11.4772 29.2748 11.3142 29.1096 11.3142 28.9059V28.6535Z" fill="#F1F5F9"/>
<path d="M11.3142 27.0032C11.3142 26.7994 11.4772 26.6343 11.6783 26.6343H20.3786C20.5797 26.6343 20.7428 26.7994 20.7428 27.0032V27.2556C20.7428 27.4593 20.5797 27.6245 20.3786 27.6245H11.6783C11.4772 27.6245 11.3142 27.4593 11.3142 27.2556V27.0032Z" fill="#F1F5F9"/>
</svg>
