<svg width="45" height="45" viewBox="0 0 45 45" fill="none" xmlns="http://www.w3.org/2000/svg">
<ellipse cx="22.5" cy="22.4546" rx="22.5" ry="22.4439" fill="#E8EBF7"/>
<g opacity="0.8">
<g opacity="0.3">
<path d="M29.0806 8.16173H20.6307C20.4112 8.16173 20.2466 7.99712 20.2466 7.77764C20.2466 7.55816 20.4112 7.39355 20.6307 7.39355H29.1355C29.3549 7.39355 29.5196 7.55816 29.5196 7.77764C29.4647 7.99712 29.3001 8.16173 29.0806 8.16173Z" fill="#999999"/>
<path d="M17.9423 8.16173H16.2962C16.0767 8.16173 15.9121 7.99712 15.9121 7.77764C15.9121 7.55816 16.0767 7.39355 16.2962 7.39355H17.9423C18.1618 7.39355 18.3264 7.55816 18.3264 7.77764C18.2715 7.99712 18.1069 8.16173 17.9423 8.16173Z" fill="#999999"/>
<path fill-rule="evenodd" clip-rule="evenodd" d="M16.2412 5.58263H17.0094V4.81445H16.2412V5.58263ZM18.4909 5.58263H17.7227V4.81445H18.4909V5.58263ZM19.2042 5.58263H19.9724V4.81445H19.2042V5.58263ZM21.4538 5.58263H20.6857V4.81445H21.4538V5.58263ZM22.1671 5.58263H22.9353V4.81445H22.1671V5.58263ZM23.6486 5.58263H24.4168V4.81445H23.6486V5.58263Z" fill="#999999"/>
</g>
<g opacity="0.3">
<path d="M29.0806 40.6998H20.6307C20.4112 40.6998 20.2466 40.5352 20.2466 40.3157C20.2466 40.0962 20.4112 39.9316 20.6307 39.9316H29.1355C29.3549 39.9316 29.5196 40.0962 29.5196 40.3157C29.5196 40.5352 29.3001 40.6998 29.0806 40.6998Z" fill="#999999"/>
<path d="M17.9423 40.6998H16.2962C16.0767 40.6998 15.9121 40.5352 15.9121 40.3157C15.9121 40.0962 16.0767 39.9316 16.2962 39.9316H17.9423C18.1618 39.9316 18.3264 40.0962 18.3264 40.3157C18.2715 40.5352 18.1069 40.6998 17.9423 40.6998Z" fill="#999999"/>
<path fill-rule="evenodd" clip-rule="evenodd" d="M16.2412 38.1207H17.0094V37.3525H16.2412V38.1207ZM18.4909 38.1207H17.7227V37.3525H18.4909V38.1207ZM19.2042 38.1207H19.9724V37.3525H19.2042V38.1207ZM21.4538 38.1207H20.6857V37.3525H21.4538V38.1207ZM22.1671 38.1207H22.9353V37.3525H22.1671V38.1207ZM23.6486 38.1207H24.4168V37.3525H23.6486V38.1207Z" fill="#999999"/>
</g>
</g>
<g opacity="0.2">
<path d="M40.6035 21.7684H34.1288C33.9642 21.7684 33.8545 21.6587 33.8545 21.4941C33.8545 21.3295 33.9642 21.2197 34.1288 21.2197H40.6035C40.7681 21.2197 40.8778 21.3295 40.8778 21.4941C40.8778 21.6587 40.7681 21.7684 40.6035 21.7684Z" fill="#999999"/>
<path d="M37.3662 20.1776H30.8915C30.7269 20.1776 30.6172 20.0679 30.6172 19.9033C30.6172 19.7386 30.7269 19.6289 30.8915 19.6289H37.3662C37.5308 19.6289 37.6405 19.7386 37.6405 19.9033C37.6954 20.0679 37.5308 20.1776 37.3662 20.1776Z" fill="#999999"/>
<path d="M13.937 21.7684H7.46234C7.29773 21.7684 7.18799 21.6587 7.18799 21.4941C7.18799 21.3295 7.29773 21.2197 7.46234 21.2197H13.937C14.1016 21.2197 14.2113 21.3295 14.2113 21.4941C14.2113 21.6587 14.0467 21.7684 13.937 21.7684Z" fill="#999999"/>
<path d="M10.6997 20.1776H4.22503C4.06042 20.1776 3.95068 20.0679 3.95068 19.9033C3.95068 19.7386 4.06042 19.6289 4.22503 19.6289H10.6997C10.8643 19.6289 10.974 19.7386 10.974 19.9033C10.974 20.0679 10.8094 20.1776 10.6997 20.1776Z" fill="#999999"/>
</g>
<g clip-path="url(#clip0_8147_11857)">
<path d="M38.7755 17.0486C38.7659 17.0319 38.7538 17.0176 38.7394 17.0056C38.4842 16.7451 38.0749 16.7069 37.7257 16.6926C37.2875 16.6758 36.8493 16.7475 36.4232 16.8336C35.5805 17.0032 34.6463 17.3234 33.7916 17.0558C32.8646 16.7667 32.501 15.8323 32.3229 14.9672C32.1278 14.0114 32.046 13.0364 31.8534 12.0782C31.4657 10.1593 30.7747 8.22125 29.3446 6.81853C28.7354 6.22112 28.0155 5.73124 27.2137 5.42536C26.8044 5.27003 26.3759 5.16728 25.9401 5.12427C25.4802 5.07886 25.0131 5.03346 24.5508 5.00717C22.7499 4.90681 21.0235 5.64282 19.6752 6.79463C18.1704 8.08265 17.217 9.85339 16.408 11.6241C15.9842 12.5489 15.6014 13.4928 15.1512 14.4057C14.7202 15.2755 14.1736 16.1382 13.278 16.5898C12.3703 17.0486 11.3109 17.0032 10.3261 16.91C9.80849 16.8622 9.29325 16.7953 8.77318 16.7547C8.33739 16.7212 7.85585 16.6663 7.4321 16.8025C6.68089 17.0486 6.5581 17.8611 6.74349 18.5302C6.96982 19.3499 7.58137 20.1002 8.22423 20.6403C8.9032 21.2066 9.70978 21.4958 10.4875 21.8972C11.3855 22.3608 11.9851 23.0538 11.8743 24.1148C11.7635 25.1878 11.0966 26.0887 10.7475 27.0852C10.4417 27.9526 10.4562 28.8702 10.9016 29.6899C11.3133 30.445 12.0043 30.9134 12.8037 31.1978C13.6464 31.4989 14.5878 31.6207 15.3342 32.1417C16.1094 32.6841 16.4056 33.5994 16.6704 34.4596C16.9232 35.2817 17.1905 36.0774 17.713 36.7728C18.7049 38.0871 20.2627 38.89 21.8542 39.2365C23.4312 39.5807 25.1576 39.5305 26.6407 38.8494C27.3365 38.5292 27.9649 38.0465 28.3887 37.4061C28.8823 36.6557 28.9786 35.7715 29.1423 34.9113C29.3205 33.9841 29.6479 33.1692 30.5147 32.6865C31.2539 32.2755 32.1062 32.1226 32.8791 31.7856C34.5644 31.0472 35.2771 29.2574 35.0075 27.5081C34.8461 26.4686 34.3622 25.5892 33.8734 24.674C33.4015 23.7898 32.9513 22.6189 33.9673 21.9211C34.3381 21.6678 34.7715 21.5244 35.1808 21.3476C35.5853 21.1732 35.9802 20.9772 36.3606 20.755C37.0805 20.3296 37.757 19.7967 38.2434 19.1133C38.5973 18.6139 39.127 17.6556 38.7779 17.0486H38.7755Z" fill="white"/>
<path d="M12.0981 23.7393C12.5676 23.1896 13.0805 22.6759 13.6078 22.1788C14.0917 21.7224 14.5925 21.2827 15.0187 20.7737C15.1174 20.6566 15.0139 20.4774 14.8622 20.5084C14.0604 20.6662 13.3237 21.3568 12.5773 21.6077C11.9344 21.8228 11.2266 21.9375 10.5283 21.9183C11.371 22.3652 11.9392 23.0176 11.8814 23.9997C11.9513 23.9113 12.0235 23.8253 12.0957 23.7393H12.0981Z" fill="#E6E7ED"/>
<path d="M30.4327 21.2404C30.9937 22.4543 32.159 23.3504 33.4615 23.7184C33.2641 23.0589 33.2906 22.385 33.9672 21.9214C33.9792 21.9142 33.9912 21.9047 34.0033 21.8975C32.8163 21.9596 31.6413 21.7183 30.6782 21.0396C30.541 20.944 30.3628 21.0874 30.4327 21.2404Z" fill="#E6E7ED"/>
<path d="M29.7323 31.009C28.9065 30.0173 28.4442 28.7532 28.0517 27.5201C28.0036 27.3648 27.7797 27.3696 27.7363 27.5273C27.5485 28.2179 27.5702 28.9873 27.6472 29.6732C27.7652 30.7318 28.1505 31.7283 28.4201 32.7534C28.827 34.3019 28.709 35.8695 28.3888 37.4085C28.8872 36.6581 28.9811 35.7692 29.1448 34.9089C29.323 33.9817 29.6505 33.1668 30.5172 32.6841C30.6785 32.5957 30.8447 32.5169 31.0132 32.4476C30.6135 31.9481 30.1368 31.4941 29.7323 31.0066V31.009Z" fill="#E6E7ED"/>
<path d="M16.9716 32.7816C17.1016 31.8162 17.3833 30.8508 17.7637 29.9547C18.1321 29.0896 18.3102 28.4922 18.7147 27.5148C18.7821 27.3524 18.5871 27.209 18.4499 27.3189C17.8985 27.7682 17.7276 28.227 17.3616 28.8507C17.1232 29.2569 16.7741 29.7038 16.4756 30.067C15.9411 30.7218 15.2886 31.2618 15.2886 32.1125C15.303 32.1221 15.3175 32.1317 15.3319 32.1412C16.1072 32.6837 16.4033 33.5989 16.6682 34.4592C16.7886 34.8535 16.9138 35.243 17.0703 35.6182C16.8006 34.7173 16.8391 33.771 16.9716 32.7793V32.7816Z" fill="#E6E7ED"/>
<path d="M20.6963 13.0821C20.8528 12.4775 20.8985 11.4499 21.6256 11.2205C21.9699 11.1106 22.2444 11.3998 22.3865 11.6794C22.5839 12.0665 22.5887 12.499 22.6441 12.9196C22.7067 13.3903 23.4073 13.4262 23.4097 12.9196C23.4146 11.9207 22.9715 10.2981 21.6569 10.4415C20.4218 10.5753 20.116 11.9924 20.0149 12.9937C19.9764 13.3832 20.6 13.4549 20.6963 13.0845V13.0821Z" fill="#1D262D"/>
<path d="M28.786 12.9907C28.6849 11.9895 28.3791 10.5748 27.144 10.4386C25.8294 10.2952 25.3863 11.9178 25.3912 12.9167C25.3936 13.4209 26.0966 13.3874 26.1568 12.9167C26.2218 12.4268 26.3181 10.9547 27.1753 11.2176C27.9 11.4398 27.9505 12.4817 28.1046 13.0792C28.1985 13.4448 28.8269 13.3826 28.786 12.9883V12.9907Z" fill="#1D262D"/>
<path d="M28.035 14.2243C28.0205 14.2052 28.0037 14.1884 27.9748 14.1765C27.9507 14.1598 27.9266 14.1526 27.905 14.1502C27.6642 14.0642 27.4379 14.0929 27.1802 14.1454C26.8383 14.2171 26.4964 14.2888 26.1497 14.3438C25.3961 14.4656 24.6305 14.5373 23.8672 14.5206C23.0751 14.5015 22.2854 14.4011 21.5077 14.2482C21.0575 14.1598 20.3953 13.8897 20.0438 14.3294C19.726 14.7309 19.9451 15.271 20.3014 15.5601C20.7661 15.9353 21.4427 16.136 22.0157 16.2746C23.3111 16.5876 24.7798 16.5924 26.0799 16.2985C26.7083 16.1575 27.5005 15.9377 27.9796 15.486C28.3432 15.1443 28.4298 14.5564 28.0326 14.2219L28.035 14.2243Z" fill="#1D262D"/>
<path d="M27.6787 8.05363C27.6306 8.18745 27.8039 8.29738 27.881 8.38101C27.9701 8.47899 28.0062 8.60086 28.0736 8.71079C28.2012 8.92108 28.4925 8.77531 28.454 8.55307C28.4227 8.37862 28.2758 8.21135 28.1434 8.09904C28.0327 8.00823 27.7606 7.83617 27.6811 8.05363H27.6787Z" fill="#E6E7ED"/>
<path d="M28.4804 8.02052C28.5093 8.17823 28.6634 8.3025 28.7405 8.44348C28.8223 8.59642 28.8512 8.76609 28.9066 8.92858C28.962 9.09108 29.2437 9.12932 29.2774 8.92858C29.3183 8.68484 29.2533 8.4626 29.1401 8.24753C29.0366 8.05158 28.8825 7.82934 28.649 7.80545C28.5286 7.7935 28.4636 7.92493 28.4828 8.02291L28.4804 8.02052Z" fill="#E6E7ED"/>
<path d="M28.6534 9.58596C28.6847 9.67916 28.7233 9.76997 28.7449 9.86555C28.7666 9.96114 28.7714 10.0615 28.7834 10.1571C28.8123 10.365 29.1494 10.3483 29.1928 10.1571C29.2505 9.89662 29.1687 9.58835 28.9881 9.3924C28.8533 9.24663 28.5932 9.39718 28.6534 9.58596Z" fill="#E6E7ED"/>
<path d="M16.5476 14.3891C16.2659 14.597 16.2659 15.0415 16.4007 15.333C16.4826 15.505 16.7908 15.4262 16.7691 15.2326C16.7571 15.1131 16.7426 14.996 16.7498 14.8766C16.7571 14.7595 16.8004 14.6472 16.7932 14.5301C16.7859 14.4201 16.6535 14.3102 16.5452 14.3891H16.5476Z" fill="#E6E7ED"/>
<path d="M34.372 20.994C34.7452 20.9367 35.1473 20.8196 35.4771 20.6356C35.6649 20.5304 35.5397 20.2198 35.3278 20.2867C34.9739 20.3966 34.6272 20.528 34.2733 20.6404C34.0421 20.7144 34.1409 21.0299 34.372 20.9964V20.994Z" fill="#E6E7ED"/>
<path d="M35.7922 20.3985C35.8717 20.4845 36.021 20.4295 36.1125 20.3937C36.1823 20.365 36.2425 20.3387 36.2882 20.2766C36.3388 20.2073 36.3436 20.1069 36.281 20.0424C36.163 19.9253 36.0162 20.0161 35.9102 20.0926C35.8235 20.1571 35.6935 20.2885 35.7922 20.3961V20.3985Z" fill="#E6E7ED"/>
<path d="M24.2042 29.6636C23.8455 30.0961 23.5445 30.5693 23.2123 31.0233C22.8607 31.506 22.4755 31.96 22.1095 32.4308C21.9843 32.5933 22.2588 32.8012 22.396 32.6506C22.7933 32.2157 23.1376 31.7258 23.4578 31.2336C23.7757 30.7461 24.0766 30.249 24.2644 29.697C24.2765 29.6612 24.2259 29.6301 24.2018 29.6612L24.2042 29.6636Z" fill="#E6E7ED"/>
<path d="M24.0981 31.8189C23.9392 31.8834 23.8886 31.991 23.7923 32.1367C23.6575 32.3423 23.525 32.5478 23.383 32.7485C23.0868 33.1643 22.7546 33.5562 22.4055 33.9314C22.2369 34.1106 22.5018 34.3782 22.6775 34.2014C23.0363 33.8406 23.3565 33.4511 23.6358 33.0257C23.826 32.7389 24.2498 32.2132 24.1583 31.8524C24.1534 31.8285 24.1221 31.8094 24.0981 31.8189Z" fill="#E6E7ED"/>
<path d="M17.1159 13.6413C16.9882 13.9137 16.851 14.4609 17.1472 14.6664C17.1857 14.6927 17.2483 14.6808 17.282 14.6497C17.3976 14.5326 17.3951 14.3964 17.4048 14.2411C17.4168 14.0714 17.4529 13.9065 17.4746 13.7369C17.4963 13.5505 17.1929 13.474 17.1159 13.6413Z" fill="#E6E7ED"/>
<path d="M33.97 27.3695C33.8014 27.5105 33.9242 27.8044 33.9363 27.9884C33.9579 28.2967 33.8953 28.593 33.8905 28.8988C33.8905 29.0661 34.1433 29.1474 34.2204 28.9873C34.3889 28.6336 34.3841 28.2082 34.3119 27.8307C34.2974 27.7542 34.177 27.195 33.97 27.3695Z" fill="#E6E7ED"/>
</g>
<defs>
<clipPath id="clip0_8147_11857">
<rect width="32.2222" height="34.4444" fill="white" transform="translate(6.6665 5)"/>
</clipPath>
</defs>
</svg>
