<svg width="50" height="50" viewBox="0 0 150 150" fill="none" xmlns="http://www.w3.org/2000/svg">
<rect width="150" height="150" rx="10" fill="#C00000"/>
<path fill-rule="evenodd" clip-rule="evenodd" d="M53.6124 38.3334H96.3904V44.4445H53.6124V38.3334ZM50.5556 62.6893V66.0413C50.5556 69.3016 47.7048 71.9446 44.4445 71.9446C41.1842 71.9446 38.3333 69.3016 38.3333 66.0443V62.6893L53.2231 47.5001H59.377L50.5556 62.6893ZM53.6124 66.0413C53.6124 69.3016 56.4632 71.9446 59.7235 71.9446C62.9838 71.9446 65.8347 69.3016 65.8347 66.0413V62.6893L68.7039 47.5001H62.7669L53.6124 62.6893V66.0413ZM68.8878 62.4785V65.8335C68.8878 69.0938 71.7387 71.9446 74.999 71.9446C78.2593 71.9446 81.1101 69.0877 81.1101 65.8274V62.4724L77.9079 47.5001H72.087L68.8878 62.4785ZM90.2821 71.9446C87.0218 71.9446 84.1679 69.0938 84.1679 65.8335V62.4785L81.2987 47.5001H87.2357L96.3902 62.784V66.1391C96.3902 69.3993 93.5424 71.9446 90.2821 71.9446ZM108.61 75.0002H41.3877V111.667H108.61V75.0002ZM47.5001 99.445H102.5V81.1116H47.5001V99.445ZM96.7769 47.5001H90.623L99.4444 62.4785V65.8335C99.4444 69.0938 102.295 71.9446 105.556 71.9446C108.816 71.9446 111.667 69.3016 111.667 66.0413V62.6893L96.7769 47.5001Z" fill="white"/>
</svg>
