<svg width="25" height="25" viewBox="0 0 25 25" fill="none" xmlns="http://www.w3.org/2000/svg">
<path fill-rule="evenodd" clip-rule="evenodd" d="M6.33372 1.43323H19.1671V3.26657H6.33372V1.43323ZM5.41668 8.74001V9.7456C5.41668 10.7237 4.56143 11.5166 3.58334 11.5166C2.60525 11.5166 1.75 10.7237 1.75 9.74652V8.74001L6.21694 4.18324H8.06311L5.41668 8.74001ZM6.33372 9.7456C6.33372 10.7237 7.18897 11.5166 8.16706 11.5166C9.14515 11.5166 10.0004 10.7237 10.0004 9.7456V8.74001L10.8612 4.18324H9.08006L6.33372 8.74001V9.7456ZM10.9163 8.67676V9.68326C10.9163 10.6614 11.7716 11.5166 12.7497 11.5166C13.7278 11.5166 14.583 10.6595 14.583 9.68143V8.67493L13.6224 4.18324H11.8761L10.9163 8.67676ZM17.3346 11.5166C16.3565 11.5166 15.5004 10.6614 15.5004 9.68326V8.67676L14.6396 4.18324H16.4207L19.167 8.76843V9.77493C19.167 10.753 18.3127 11.5166 17.3346 11.5166ZM22.8331 23.4333V12.4333H2.66631V23.4333H22.8331ZM4.50001 19.7667H21.0001V14.2667H4.50001V19.7667ZM19.2831 4.18324H17.4369L20.0833 8.67676V9.68326C20.0833 10.6614 20.9386 11.5166 21.9167 11.5166C22.8947 11.5166 23.75 10.7237 23.75 9.7456V8.74001L19.2831 4.18324Z" fill="#F40009"/>
</svg>
