<svg width="23" height="23" viewBox="0 0 23 23" fill="none" xmlns="http://www.w3.org/2000/svg">
<path fill-rule="evenodd" clip-rule="evenodd" d="M5.33372 0.433228H18.1671V2.26657H5.33372V0.433228ZM4.41668 7.74001V8.7456C4.41668 9.72369 3.56143 10.5166 2.58334 10.5166C1.60525 10.5166 0.75 9.72369 0.75 8.74652V7.74001L5.21694 3.18324H7.06311L4.41668 7.74001ZM5.33372 8.7456C5.33372 9.72369 6.18897 10.5166 7.16706 10.5166C8.14515 10.5166 9.0004 9.72369 9.0004 8.7456V7.74001L9.86116 3.18324H8.08006L5.33372 7.74001V8.7456ZM9.91634 7.67676V8.68326C9.91634 9.66135 10.7716 10.5166 11.7497 10.5166C12.7278 10.5166 13.583 9.65952 13.583 8.68143V7.67493L12.6224 3.18324H10.8761L9.91634 7.67676ZM16.3346 10.5166C15.3565 10.5166 14.5004 9.66135 14.5004 8.68326V7.67676L13.6396 3.18324H15.4207L18.167 7.76843V8.77493C18.167 9.75302 17.3127 10.5166 16.3346 10.5166ZM21.8331 22.4333V11.4333H1.66631V22.4333H21.8331ZM3.50001 18.7667H20.0001V13.2667H3.50001V18.7667ZM18.2831 3.18324H16.4369L19.0833 7.67676V8.68326C19.0833 9.66135 19.9386 10.5166 20.9167 10.5166C21.8947 10.5166 22.75 9.72369 22.75 8.7456V7.74001L18.2831 3.18324Z" fill="#5F6F86"/>
</svg>
