<svg width="30" height="30" viewBox="0 0 30 30" fill="none" xmlns="http://www.w3.org/2000/svg">
<circle cx="15" cy="15" r="14.5" fill="white" stroke="#F40009"/>
<path d="M14.2971 4H16.3886V5.23636H14.2971V4Z" fill="#030F1C"/>
<path d="M17.3958 25.2499C17.3958 25.2499 19.1388 24.2068 18.4416 22.584V16.8659C18.4416 16.8659 18.674 16.4795 18.5965 16.1318V11.4954C18.5965 11.4954 18.7514 11.1863 18.519 10.8772C18.519 10.8772 17.938 7.74769 16.2338 5.62269V5.23633H15.3042V25.2499H17.3958Z" fill="#711012"/>
<path d="M13.2513 25.2499C13.2513 25.2499 11.5083 24.2068 12.2055 22.584V16.8659C12.2055 16.8659 11.9731 16.4795 12.0506 16.1318V11.4954C12.0506 11.4954 11.8957 11.1863 12.1281 10.8772C12.1281 10.8772 12.709 7.74769 14.4133 5.62269V5.23633H15.3429V25.2499H13.2513Z" fill="#B10012"/>
<rect x="12.0506" y="11.9204" width="3.2923" height="4.13409" fill="#F40009"/>
<rect x="15.3042" y="11.9204" width="3.2923" height="4.13409" fill="#CD091C"/>
<rect x="12.0506" y="15.5908" width="6.54586" height="0.502272" fill="#7BB23E"/>
<rect x="12.0506" y="12.3455" width="6.54586" height="0.579545" fill="#030F1C"/>
</svg>
