<svg xmlns="http://www.w3.org/2000/svg" width="12" height="25" fill="none"><path fill="#5E7083" fill-rule="evenodd" d="M9.319 22.953c-.252.081-.952.27-2.745.27H5.398c-1.876 0-2.576-.216-2.744-.27-.673-1.318-.449-1.776.14-2.986.615-1.238.084-3.39-.42-5.14h7.264c-.011.04-.024.085-.04.135-.531 1.83-1.008 3.848-.42 5.032.589 1.183.813 1.668.14 2.96ZM4.729 4.39H7.38c.08 1.02.446 3.206 2.068 5.461H2.493l.02-.026c1.61-2.23 2.08-4.416 2.216-5.435Zm-.395-1.211h3.304v-1.56H4.334v1.56ZM2.4 13.644h7.226v-2.61H2.4v2.61Zm7.926 5.839c-.476-.942.252-3.39.476-4.198.056-.215.084-.376.112-.457.056-.35.028-.592-.056-.78v-3.202c.112-.189.112-.43.056-.727-.028-.457-.336-.86-.42-.941-1.462-2.036-1.786-4.04-1.857-4.907a.576.576 0 0 0 .26-.475V1.43c0-.538-.504-.996-1.092-.996h-3.64c-.617 0-1.092.458-1.092.996v2.367c0 .247.163.461.39.55-.131.93-.563 2.853-1.959 4.778-.084.135-.392.511-.448.942-.056.188-.112.51.056.78V14.102a1.45 1.45 0 0 0-.056.726c.028.054.056.188.112.35.644 2.206.812 3.632.504 4.278-.7 1.426-1.064 2.34-.028 4.197a.556.556 0 0 0 .112.161c.252.242 1.037.62 3.641.62h1.176c2.605 0 3.389-.377 3.669-.593.028-.053.084-.108.112-.161 1.036-1.857.672-2.745-.028-4.197Z" clip-rule="evenodd"/><path fill="#5E7083" d="m9.319 22.953.076.239.098-.032.048-.091-.222-.116Zm-6.665 0-.223.114.047.093.1.032.076-.239Zm.14-2.986-.224-.112-.001.002.225.11Zm-.42-5.14v-.25H2.04l.092.32.24-.07Zm7.264 0 .24.071.094-.32h-.334v.25Zm-.04.135-.239-.071v.001l.24.07Zm-.42 5.032.225-.111-.224.11ZM4.729 4.389v-.25H4.51l-.03.217.249.033Zm2.653 0 .249-.02-.018-.23H7.38v.25ZM9.449 9.85v.25h.487l-.284-.396-.203.146Zm-6.956 0L2.3 9.692l-.331.408h.525v-.25Zm.02-.026.191.161.007-.007.005-.008-.202-.146Zm1.82-6.646h-.25v.25h.25v-.25Zm3.305 0v.25h.25v-.25h-.25Zm0-1.56h.25v-.25h-.25v.25Zm-3.304 0v-.25h-.25v.25h.25ZM2.4 13.643h-.25v.25h.25v-.25Zm7.226 0v.25h.25v-.25h-.25Zm0-2.61h.25v-.25h-.25v.25Zm-7.226 0v-.25h-.25v.25h.25Zm7.926 8.449.225-.109-.002-.004-.223.113Zm.476-4.198.24.067.002-.004-.242-.063Zm.112-.457.236.08.007-.02.004-.02-.247-.04Zm-.056-.78h-.25v.053l.022.048.228-.102Zm0-3.202-.215-.127-.035.058v.069h.25Zm.056-.727-.25.015.001.016.003.016.246-.047Zm-.42-.941-.203.145.013.019.017.016.173-.18ZM8.638 4.27l-.14-.206-.12.082.011.144.25-.02Zm-5.174.074.248.035.028-.196-.185-.072-.09.233ZM1.505 9.124l-.202-.147-.005.007-.005.008.212.132Zm-.448.942.24.071.006-.02.002-.02-.248-.031Zm.056.78h.25v-.072l-.038-.06-.212.132Zm0 3.255.236.082.014-.04v-.042h-.25Zm-.056.727-.245.046.006.037.017.032.222-.115Zm.112.35.24-.07-.004-.012-.236.082Zm.504 4.278.225.11.001-.003-.226-.107Zm-.028 4.197.222-.115-.003-.007-.219.122Zm.112.161.174-.18-.174.18Zm8.486.027.152.198.045-.034.025-.05-.222-.114Zm.112-.161-.219-.122-.004.007.223.115Zm-1.113-.965c-.22.071-.893.258-2.668.258v.5c1.81 0 2.537-.19 2.821-.281l-.153-.477Zm-2.668.258H5.398v.5h1.176v-.5Zm-1.176 0c-1.856 0-2.53-.213-2.669-.258l-.151.477c.197.062.923.28 2.82.28v-.5Zm-2.522-.133c-.326-.641-.415-1.033-.376-1.394.04-.378.218-.751.518-1.37l-.45-.219c-.287.593-.515 1.053-.566 1.536-.053.5.083.997.429 1.674l.445-.227Zm.141-2.762c.343-.688.355-1.598.234-2.521-.121-.932-.385-1.923-.637-2.798l-.48.138c.25.873.505 1.833.622 2.724.117.9.087 1.685-.186 2.234l.447.223Zm-.644-5h7.265v-.5H2.373v.5Zm7.025-.32-.039.133.48.143.04-.136-.48-.14Zm-.04.134c-.266.917-.523 1.895-.637 2.797-.114.894-.094 1.756.234 2.416l.448-.223c-.26-.523-.297-1.262-.186-2.13.109-.86.356-1.807.622-2.72l-.48-.14Zm-.403 5.213c.3.603.478.977.518 1.354.038.36-.05.753-.376 1.38l.444.23c.346-.666.482-1.162.429-1.662-.051-.484-.279-.944-.567-1.524l-.448.222ZM4.729 4.64H7.38v-.5H4.729v.5Zm2.402-.23c.083 1.048.458 3.284 2.115 5.587l.406-.292C8.065 7.497 7.708 5.36 7.63 4.37l-.499.04ZM9.45 9.6H2.493v.5H9.45v-.5Zm-6.762.408a.58.58 0 0 0 .011-.014l.006-.009c.004-.004.003-.003 0 0l-.381-.323-.021.026-.003.004.388.316Zm.03-.038c1.641-2.274 2.121-4.503 2.26-5.549l-.496-.065c-.132.993-.591 3.134-2.17 5.321l.405.293Zm1.617-6.542h3.304v-.5H4.334v.5Zm3.554-.25v-1.56h-.5v1.56h.5Zm-.25-1.81H4.334v.5h3.304v-.5Zm-3.554.25v1.56h.5v-1.56h-.5ZM2.4 13.893h7.226v-.5H2.4v.5Zm7.476-.25v-2.61h-.5v2.61h.5Zm-.25-2.86H2.4v.5h7.226v-.5Zm-7.476.25v2.61h.5v-2.61h-.5Zm8.399 8.336c-.092-.181-.136-.462-.131-.824.004-.355.055-.76.13-1.168.147-.817.382-1.618.495-2.026l-.482-.133c-.11.399-.353 1.225-.506 2.07a7.779 7.779 0 0 0-.137 1.25c-.005.388.038.767.185 1.056l.446-.225Zm.495-4.022c.03-.112.051-.21.068-.287.019-.082.03-.128.038-.152l-.473-.162c-.019.056-.036.132-.052.204-.018.078-.038.168-.065.271l.484.126Zm.117-.48c.06-.38.035-.675-.075-.922l-.456.203c.058.13.088.32.037.64l.494.078Zm-.053-.82v-3.202h-.5v3.201h.5Zm-.035-3.075c.16-.27.145-.591.086-.9l-.49.093c.053.283.037.446-.026.553l.43.254Zm.09-.869a1.757 1.757 0 0 0-.218-.716 1.757 1.757 0 0 0-.278-.39l-.346.36c.019.018.102.117.184.268.08.15.148.329.16.508l.498-.03Zm-.466-1.072C9.27 7.045 8.956 5.09 8.888 4.25l-.499.04c.073.895.406 2.948 1.903 5.032l.406-.291ZM8.779 4.477c.22-.15.37-.396.37-.68h-.5a.327.327 0 0 1-.152.268l.282.412Zm.37-.68V1.428h-.5v2.367h.5Zm0-2.368c0-.698-.64-1.246-1.343-1.246v.5c.473 0 .843.368.843.746h.5ZM7.806.183h-3.64v.5h3.64v-.5Zm-3.64 0c-.736 0-1.342.552-1.342 1.246h.5c0-.383.345-.746.842-.746v-.5ZM2.824 1.43v2.367h.5V1.43h-.5Zm0 2.367c0 .361.238.661.55.782l.18-.466a.349.349 0 0 1-.23-.316h-.5Zm.393.514c-.128.905-.55 2.786-1.914 4.667l.405.294a11.165 11.165 0 0 0 2.004-4.89l-.495-.07ZM1.293 8.992c-.017.028-.044.065-.092.134a3.519 3.519 0 0 0-.147.233c-.102.179-.21.413-.245.674l.496.065c.022-.17.096-.338.183-.49a3.03 3.03 0 0 1 .126-.2c.036-.052.079-.112.103-.152l-.424-.264ZM.818 9.994c-.06.203-.145.62.083.984l.424-.264c-.108-.173-.08-.404-.028-.577l-.48-.143Zm.045.852v.027h.5v-.027h-.5Zm0 .027v3.229h.5v-3.23h-.5Zm.014 3.147c-.066.189-.132.503-.065.854l.49-.093a1.2 1.2 0 0 1 .047-.598l-.472-.163Zm-.042.923.006.017.022.072c.017.059.04.14.07.227l.472-.163c-.025-.073-.044-.14-.062-.203-.014-.05-.036-.126-.064-.18l-.444.23Zm.094.305c.32 1.097.52 1.99.601 2.683.083.705.04 1.162-.082 1.417l.451.215c.186-.39.213-.97.128-1.69-.087-.733-.294-1.656-.618-2.765l-.48.14Zm.52 4.098c-.348.708-.637 1.334-.69 2.028-.054.704.135 1.446.668 2.4l.437-.243c-.504-.902-.65-1.545-.607-2.12.045-.584.289-1.128.64-1.845l-.448-.22Zm-.025 4.422c.028.055.072.142.16.227l.346-.362a.32.32 0 0 1-.063-.095l-.443.23Zm.16.226c.172.166.481.335 1.057.465.577.13 1.445.224 2.757.224v-.5c-1.292 0-2.12-.093-2.648-.212-.53-.12-.74-.26-.82-.337l-.346.36Zm3.814.69h1.176v-.5H5.398v.5Zm1.176 0c2.613 0 3.471-.375 3.821-.645l-.304-.396c-.21.162-.92.54-3.517.54v.5Zm3.891-.728c0 .001 0-.002.007-.01a.968.968 0 0 1 .024-.032c.017-.022.054-.068.08-.12l-.444-.229a.919.919 0 0 1-.03.042c-.018.022-.055.068-.081.12l.444.229Zm.108-.154c.532-.955.722-1.69.668-2.391-.053-.69-.341-1.316-.689-2.037l-.45.217c.352.732.596 1.276.64 1.858.044.57-.102 1.207-.606 2.109l.437.244Z"/></svg>