<svg width="24" height="25" viewBox="0 0 24 25" fill="none" xmlns="http://www.w3.org/2000/svg">
<path fill-rule="evenodd" clip-rule="evenodd" d="M15.3187 22.9534C15.0667 23.0341 14.3666 23.2225 12.574 23.2225H11.398C9.52169 23.2225 8.82156 23.007 8.65353 22.9534C7.98141 21.6351 8.20545 21.1774 8.79356 19.9666C9.40939 18.7293 8.87757 16.5768 8.37348 14.8277H15.6383C15.6265 14.8678 15.6139 14.9116 15.5988 14.9622C15.0667 16.7921 14.5903 18.81 15.1787 19.9938C15.7668 21.1774 15.9906 21.6617 15.3187 22.9534ZM10.7287 4.38861H13.3805C13.4612 5.40806 13.8269 7.59494 15.4487 9.85016H8.49306C8.50006 9.84155 8.50622 9.83214 8.51351 9.82353C10.1238 7.59306 10.5937 5.40806 10.7287 4.38861ZM10.3338 3.17786H13.6384V1.61734H10.3338V3.17786ZM8.40149 13.6441H15.6268V11.0343H8.40149V13.6441ZM16.3269 19.4826C15.8506 18.5409 16.579 16.0925 16.803 15.2853C16.859 15.0698 16.887 14.9087 16.9148 14.8277C16.9708 14.4782 16.943 14.236 16.859 14.0474V10.8459C16.9708 10.6573 16.9708 10.4152 16.9148 10.1192C16.887 9.66209 16.579 9.25851 16.4947 9.17752C15.0328 7.14185 14.7091 5.13793 14.6382 4.27103C14.797 4.1626 14.8987 3.98987 14.8987 3.79642V1.429C14.8987 0.890891 14.3943 0.433228 13.8065 0.433228H10.1658C9.54941 0.433228 9.07361 0.890891 9.07361 1.429V3.79642C9.07361 4.04314 9.23744 4.25731 9.46428 4.34529C9.33265 5.27515 8.90138 7.19916 7.50532 9.12398C7.42131 9.25851 7.11325 9.63519 7.05724 10.0657C7.00123 10.2537 6.94522 10.5769 7.11325 10.8459V10.8728V14.1015C7.05724 14.2629 7.00123 14.532 7.05724 14.828C7.08525 14.8818 7.11325 15.0163 7.16898 15.1777C7.81338 17.384 7.98141 18.81 7.67335 19.4557C6.97323 20.8817 6.60888 21.7962 7.64535 23.653C7.67335 23.7068 7.70136 23.7606 7.75737 23.8141C8.00913 24.0565 8.79356 24.4332 11.398 24.4332H12.574C15.1787 24.4332 15.9629 24.0566 16.2429 23.8413C16.2706 23.7875 16.3269 23.7334 16.3546 23.6796C17.3908 21.8234 17.0271 20.9352 16.3269 19.4826Z" fill="#F40009"/>
<path d="M15.3187 22.9534L15.395 23.1915L15.493 23.1601L15.5405 23.0688L15.3187 22.9534ZM8.65353 22.9534L8.43081 23.067L8.4782 23.1599L8.57763 23.1916L8.65353 22.9534ZM8.79356 19.9666L8.56973 19.8552L8.56868 19.8574L8.79356 19.9666ZM8.37348 14.8277V14.5777H8.04126L8.13326 14.8969L8.37348 14.8277ZM15.6383 14.8277L15.8782 14.8981L15.9722 14.5777H15.6383V14.8277ZM15.5988 14.9622L15.3593 14.8906L15.3587 14.8924L15.5988 14.9622ZM15.1787 19.9938L15.4026 19.8826L15.4026 19.8825L15.1787 19.9938ZM10.7287 4.38861V4.13861H10.5096L10.4809 4.35579L10.7287 4.38861ZM13.3805 4.38861L13.6297 4.36889L13.6115 4.13861H13.3805V4.38861ZM15.4487 9.85016V10.1002H15.9364L15.6517 9.7042L15.4487 9.85016ZM8.49306 9.85016L8.2991 9.69244L7.96754 10.1002H8.49306V9.85016ZM8.51351 9.82353L8.70439 9.98496L8.71059 9.97764L8.7162 9.96986L8.51351 9.82353ZM10.3338 3.17786H10.0838V3.42786H10.3338V3.17786ZM13.6384 3.17786V3.42786H13.8884V3.17786H13.6384ZM13.6384 1.61734H13.8884V1.36734H13.6384V1.61734ZM10.3338 1.61734V1.36734H10.0838V1.61734H10.3338ZM8.40149 13.6441H8.15149V13.8941H8.40149V13.6441ZM15.6268 13.6441V13.8941H15.8768V13.6441H15.6268ZM15.6268 11.0343H15.8768V10.7843H15.6268V11.0343ZM8.40149 11.0343V10.7843H8.15149V11.0343H8.40149ZM16.3269 19.4826L16.5522 19.374L16.55 19.3698L16.3269 19.4826ZM16.803 15.2853L17.0439 15.3522L17.045 15.3482L16.803 15.2853ZM16.9148 14.8277L17.1513 14.9087L17.1582 14.8884L17.1616 14.8672L16.9148 14.8277ZM16.859 14.0474H16.609V14.1006L16.6307 14.1492L16.859 14.0474ZM16.859 10.8459L16.6439 10.7185L16.609 10.7774V10.8459H16.859ZM16.9148 10.1192L16.6652 10.1344L16.6662 10.1502L16.6691 10.1657L16.9148 10.1192ZM16.4947 9.17752L16.2916 9.32335L16.305 9.34194L16.3215 9.35781L16.4947 9.17752ZM14.6382 4.27103L14.4972 4.06457L14.3772 4.14654L14.389 4.2914L14.6382 4.27103ZM9.46428 4.34529L9.71181 4.38033L9.73961 4.18393L9.55468 4.11221L9.46428 4.34529ZM7.50532 9.12398L7.30295 8.9772L7.29786 8.98421L7.29328 8.99156L7.50532 9.12398ZM7.05724 10.0657L7.29684 10.137L7.30257 10.1178L7.30515 10.0979L7.05724 10.0657ZM7.11325 10.8459H7.36325V10.7743L7.3253 10.7135L7.11325 10.8459ZM7.11325 14.1015L7.34944 14.1835L7.36325 14.1436V14.1015H7.11325ZM7.05724 14.828L6.8116 14.8744L6.81846 14.9107L6.83548 14.9434L7.05724 14.828ZM7.16898 15.1777L7.40923 15.1076L7.4053 15.0961L7.16898 15.1777ZM7.67335 19.4557L7.89778 19.5659L7.89899 19.5633L7.67335 19.4557ZM7.64535 23.653L7.86721 23.5375L7.86364 23.5311L7.64535 23.653ZM7.75737 23.8141L7.93077 23.634L7.93012 23.6334L7.75737 23.8141ZM16.2429 23.8413L16.3953 24.0395L16.4396 24.0055L16.4651 23.9558L16.2429 23.8413ZM16.3546 23.6796L16.1362 23.5577L16.1324 23.5651L16.3546 23.6796ZM15.2425 22.7153C15.0219 22.786 14.349 22.9725 12.574 22.9725V23.4725C14.3841 23.4725 15.1115 23.2823 15.395 23.1915L15.2425 22.7153ZM12.574 22.9725H11.398V23.4725H12.574V22.9725ZM11.398 22.9725C9.54233 22.9725 8.86848 22.7595 8.72943 22.7152L8.57763 23.1916C8.77464 23.2544 9.50104 23.4725 11.398 23.4725V22.9725ZM8.87626 22.8399C8.54954 22.199 8.46145 21.8067 8.49957 21.446C8.53949 21.0683 8.71791 20.6946 9.01843 20.0759L8.56868 19.8574C8.2811 20.4495 8.05344 20.9099 8.00234 21.3934C7.94945 21.8938 8.0854 22.3895 8.43081 23.067L8.87626 22.8399ZM9.01737 20.078C9.35979 19.39 9.37188 18.4797 9.25139 17.5567C9.12978 16.6252 8.86611 15.6343 8.6137 14.7585L8.13326 14.8969C8.38494 15.7702 8.63923 16.7301 8.75559 17.6214C8.87307 18.5213 8.84315 19.3059 8.56974 19.8553L9.01737 20.078ZM8.37348 15.0777H15.6383V14.5777H8.37348V15.0777ZM15.3984 14.7573C15.3861 14.7991 15.3742 14.8407 15.3593 14.8906L15.8383 15.0338C15.8537 14.9825 15.8669 14.9364 15.8782 14.8981L15.3984 14.7573ZM15.3587 14.8924C15.0921 15.8092 14.8352 16.7869 14.7206 17.6887C14.6068 18.5832 14.6268 19.4451 14.9548 20.1051L15.4026 19.8825C15.1422 19.3587 15.1062 18.6198 15.2166 17.7518C15.326 16.8912 15.5733 15.9451 15.8388 15.032L15.3587 14.8924ZM14.9548 20.1051C15.2546 20.7083 15.4328 21.0825 15.4726 21.4593C15.5107 21.8199 15.4226 22.212 15.0969 22.8381L15.5405 23.0688C15.8868 22.4031 16.0227 21.9072 15.9698 21.4068C15.9187 20.9227 15.691 20.4629 15.4026 19.8826L14.9548 20.1051ZM10.7287 4.63861H13.3805V4.13861H10.7287V4.63861ZM13.1313 4.40833C13.2143 5.45728 13.5893 7.69266 15.2457 9.99612L15.6517 9.7042C14.0646 7.49722 13.7081 5.35884 13.6297 4.36889L13.1313 4.40833ZM15.4487 9.60016H8.49306V10.1002H15.4487V9.60016ZM8.68703 10.0079C8.69145 10.0024 8.6952 9.99755 8.69798 9.99386C8.70055 9.99044 8.7032 9.98683 8.70434 9.98528C8.70775 9.98067 8.7067 9.98223 8.70439 9.98496L8.32262 9.66209C8.31303 9.67343 8.30526 9.68401 8.30202 9.6884C8.29732 9.69478 8.29803 9.69375 8.2991 9.69244L8.68703 10.0079ZM8.7162 9.96986C10.3581 7.69568 10.8381 5.46728 10.9765 4.42143L10.4809 4.35579C10.3494 5.34884 9.88955 7.49043 8.31081 9.67719L8.7162 9.96986ZM10.3338 3.42786H13.6384V2.92786H10.3338V3.42786ZM13.8884 3.17786V1.61734H13.3884V3.17786H13.8884ZM13.6384 1.36734H10.3338V1.86734H13.6384V1.36734ZM10.0838 1.61734V3.17786H10.5838V1.61734H10.0838ZM8.40149 13.8941H15.6268V13.3941H8.40149V13.8941ZM15.8768 13.6441V11.0343H15.3768V13.6441H15.8768ZM15.6268 10.7843H8.40149V11.2843H15.6268V10.7843ZM8.15149 11.0343V13.6441H8.65149V11.0343H8.15149ZM16.55 19.3698C16.4584 19.1887 16.4142 18.9079 16.4188 18.5462C16.4234 18.1909 16.4743 17.7864 16.5483 17.3781C16.6964 16.5612 16.9307 15.76 17.0439 15.3522L16.5621 15.2185C16.4513 15.6179 16.2094 16.4444 16.0563 17.2889C15.9798 17.7113 15.9239 18.1459 15.9189 18.5398C15.9139 18.9272 15.9573 19.3057 16.1038 19.5955L16.55 19.3698ZM17.045 15.3482C17.0742 15.2359 17.096 15.1378 17.1133 15.0611C17.132 14.9785 17.1428 14.9334 17.1513 14.9087L16.6782 14.7467C16.659 14.8029 16.6419 14.879 16.6256 14.951C16.608 15.029 16.5879 15.1193 16.561 15.2225L17.045 15.3482ZM17.1616 14.8672C17.2224 14.4879 17.1975 14.1928 17.0874 13.9457L16.6307 14.1492C16.6886 14.2793 16.7191 14.4685 16.6679 14.7881L17.1616 14.8672ZM17.109 14.0474V10.8459H16.609V14.0474H17.109ZM17.0741 10.9734C17.2347 10.7023 17.2188 10.3815 17.1604 10.0727L16.6691 10.1657C16.7227 10.4489 16.7068 10.6123 16.6439 10.7185L17.0741 10.9734ZM17.1643 10.1041C17.1475 9.82669 17.047 9.57535 16.9458 9.38832C16.8459 9.20374 16.7332 9.06 16.6679 8.99724L16.3215 9.35781C16.3405 9.37604 16.4239 9.47457 16.5061 9.62632C16.5869 9.77561 16.6543 9.95462 16.6652 10.1344L17.1643 10.1041ZM16.6977 9.0317C15.2709 7.04487 14.956 5.08973 14.8874 4.25067L14.389 4.2914C14.4622 5.18613 14.7947 7.23884 16.2916 9.32335L16.6977 9.0317ZM14.7792 4.47749C14.9985 4.32773 15.1487 4.08137 15.1487 3.79642H14.6487C14.6487 3.89836 14.5955 3.99747 14.4972 4.06457L14.7792 4.47749ZM15.1487 3.79642V1.429H14.6487V3.79642H15.1487ZM15.1487 1.429C15.1487 0.73124 14.5097 0.183228 13.8065 0.183228V0.683228C14.2788 0.683228 14.6487 1.05054 14.6487 1.429H15.1487ZM13.8065 0.183228H10.1658V0.683228H13.8065V0.183228ZM10.1658 0.183228C9.42954 0.183228 8.82361 0.735296 8.82361 1.429H9.32361C9.32361 1.04649 9.66928 0.683228 10.1658 0.683228V0.183228ZM8.82361 1.429V3.79642H9.32361V1.429H8.82361ZM8.82361 3.79642C8.82361 4.15741 9.0616 4.45726 9.37388 4.57837L9.55468 4.11221C9.41328 4.05736 9.32361 3.92887 9.32361 3.79642H8.82361ZM9.21675 4.31025C9.08867 5.21503 8.66739 7.09596 7.30295 8.9772L7.7077 9.27076C9.13536 7.30236 9.57664 5.33527 9.71181 4.38033L9.21675 4.31025ZM7.29328 8.99156C7.27569 9.01971 7.24878 9.05672 7.2012 9.12649C7.15786 9.19003 7.10572 9.26914 7.05392 9.35946C6.95172 9.53765 6.84333 9.77213 6.80933 10.0334L7.30515 10.0979C7.32717 9.92873 7.40081 9.75963 7.48764 9.60822C7.53036 9.53375 7.57448 9.46656 7.61429 9.40819C7.64985 9.35605 7.69295 9.29552 7.71737 9.25641L7.29328 8.99156ZM6.81764 9.99432C6.75723 10.1972 6.6731 10.6131 6.90121 10.9784L7.3253 10.7135C7.21734 10.5406 7.24523 10.3103 7.29684 10.137L6.81764 9.99432ZM6.86325 10.8459V10.8728H7.36325V10.8459H6.86325ZM6.86325 10.8728V14.1015H7.36325V10.8728H6.86325ZM6.87706 14.0196C6.81142 14.2088 6.74518 14.5234 6.8116 14.8744L7.30288 14.7815C7.25729 14.5405 7.30306 14.3171 7.34944 14.1835L6.87706 14.0196ZM6.83548 14.9434C6.83267 14.938 6.83457 14.9405 6.84109 14.9604C6.84694 14.9783 6.85365 15.0011 6.86251 15.0318C6.87955 15.0908 6.9023 15.1713 6.93267 15.2593L7.4053 15.0961C7.37993 15.0227 7.36082 14.9552 7.34292 14.8932C7.32868 14.8438 7.30738 14.7671 7.27901 14.7125L6.83548 14.9434ZM6.92901 15.2478C7.24933 16.3445 7.4483 17.2377 7.53006 17.9312C7.61315 18.636 7.56945 19.0929 7.44772 19.3481L7.89899 19.5633C8.08532 19.1728 8.11163 18.5938 8.02662 17.8726C7.94027 17.1402 7.73304 16.2172 7.40896 15.1076L6.92901 15.2478ZM7.44894 19.3455C7.10088 20.0544 6.81208 20.6803 6.75886 21.3737C6.70483 22.0776 6.89404 22.82 7.42706 23.7748L7.86364 23.5311C7.36019 22.6292 7.21333 21.986 7.25739 21.4119C7.30226 20.8274 7.5457 20.283 7.89776 19.5659L7.44894 19.3455ZM7.42358 23.7684C7.45178 23.8226 7.49583 23.91 7.58462 23.9948L7.93012 23.6334C7.90689 23.6112 7.89493 23.591 7.86711 23.5376L7.42358 23.7684ZM7.58397 23.9942C7.75605 24.1599 8.06509 24.329 8.64055 24.4585C9.21839 24.5885 10.0858 24.6832 11.398 24.6832V24.1832C10.1058 24.1832 9.27875 24.0896 8.75032 23.9707C8.21951 23.8512 8.01045 23.7108 7.93077 23.634L7.58397 23.9942ZM11.398 24.6832H12.574V24.1832H11.398V24.6832ZM12.574 24.6832C15.1873 24.6832 16.0452 24.3086 16.3953 24.0395L16.0906 23.6431C15.8805 23.8045 15.1701 24.1832 12.574 24.1832V24.6832ZM16.4651 23.9558C16.4645 23.957 16.4658 23.9543 16.4717 23.946C16.4777 23.9376 16.4849 23.9283 16.496 23.9141C16.5133 23.8919 16.5503 23.8458 16.5769 23.7941L16.1324 23.5651C16.133 23.5639 16.1317 23.5666 16.1258 23.5749C16.1198 23.5833 16.1127 23.5926 16.1015 23.6069C16.0843 23.629 16.0473 23.6751 16.0207 23.7268L16.4651 23.9558ZM16.5729 23.8015C17.1055 22.8474 17.2951 22.1116 17.2412 21.4106C17.1881 20.7209 16.8995 20.0947 16.5521 19.3741L16.1017 19.5912C16.4545 20.3232 16.6979 20.8673 16.7426 21.449C16.7865 22.0192 16.64 22.6556 16.1364 23.5577L16.5729 23.8015Z" fill="#F40009"/>
</svg>
