<svg xmlns="http://www.w3.org/2000/svg" width="21" height="21" fill="none"><g fill="#5F6F86" clip-path="url(#a)"><path d="M17.75 20.433h-14c-.6 0-1-.4-1-1v-5c0-.6.4-1 1-1s1 .4 1 1v4h12v-4c0-.6.4-1 1-1s1 .4 1 1v5c0 .6-.4 1-1 1ZM20.75 7.433c0-.2-.1-.4-.2-.6l-4-6c-.2-.2-.5-.4-.8-.4h-10c-.3 0-.6.2-.8.4l-4 6c-.1.2-.2.4-.2.6v1.5c0 1.4 1.1 2.5 2.5 2.5 1.9 0 2.5-2 2.5-2 .2 1.1 1.3 2 2.5 2 1.9 0 2.5-2 2.5-2 .2 1.1 1.3 2 2.5 2 1.9 0 2.5-2 2.5-2 .2 1.1 1.3 2 2.5 2 1.4 0 2.5-1.1 2.5-2.5v-1.5Z"/></g><defs><clipPath id="a"><path fill="#fff" d="M.75.433h20v20h-20z"/></clipPath></defs></svg>