<svg width="14" height="14" viewBox="0 0 14 14" fill="none" xmlns="http://www.w3.org/2000/svg">
<path fill-rule="evenodd" clip-rule="evenodd" d="M9.73966 2.70046C9.68824 1.84473 8.97797 1.16663 8.10931 1.16663H6.00931L5.90981 1.16961C5.05408 1.22103 4.37598 1.9313 4.37598 2.79996V3.26663H2.33431L2.26628 3.27055C1.97617 3.30425 1.75098 3.55081 1.75098 3.84996C1.75098 4.17213 2.01214 4.43329 2.33431 4.43329H2.80098V11.2L2.80396 11.2995C2.85538 12.1552 3.56565 12.8333 4.43431 12.8333H9.68431L9.78381 12.8303C10.6395 12.7789 11.3176 12.0686 11.3176 11.2V4.43329H11.7843L11.8523 4.42937C12.1425 4.39567 12.3676 4.14911 12.3676 3.84996C12.3676 3.52779 12.1065 3.26663 11.7843 3.26663H9.74264V2.79996L9.73966 2.70046ZM9.15984 4.43329C9.15967 4.43329 9.15949 4.43329 9.15931 4.43329C9.15913 4.43329 9.15895 4.43329 9.15878 4.43329H4.95984C4.95967 4.43329 4.95949 4.43329 4.95931 4.43329C4.95913 4.43329 4.95895 4.43329 4.95878 4.43329H3.96764V11.2C3.96764 11.4379 4.14567 11.6342 4.37577 11.663L4.43431 11.6666H9.68431C9.92222 11.6666 10.1185 11.4886 10.1473 11.2585L10.151 11.2V4.43329H9.15984ZM5.54264 3.26663H8.57598V2.79996C8.57598 2.56205 8.39795 2.36573 8.16785 2.33693L8.10931 2.33329H6.00931C5.7714 2.33329 5.57508 2.51132 5.54628 2.74142L5.54264 2.79996V3.26663ZM6.00931 5.89163C6.30846 5.89163 6.55502 6.11682 6.58872 6.40693L6.59264 6.47496V9.62496C6.59264 9.94713 6.33148 10.2083 6.00931 10.2083C5.71016 10.2083 5.4636 9.9831 5.4299 9.69299L5.42598 9.62496V6.47496C5.42598 6.15279 5.68714 5.89163 6.00931 5.89163ZM8.68872 6.40693C8.65502 6.11682 8.40846 5.89163 8.10931 5.89163C7.78714 5.89163 7.52598 6.15279 7.52598 6.47496V9.62496L7.5299 9.69299C7.5636 9.9831 7.81016 10.2083 8.10931 10.2083C8.43148 10.2083 8.69264 9.94713 8.69264 9.62496V6.47496L8.68872 6.40693Z" fill="#F44040"/>
</svg>
