<svg width="25" height="25" viewBox="0 0 25 25" fill="none" xmlns="http://www.w3.org/2000/svg">
<rect width="24" height="24" transform="translate(0.5 0.433228)" fill="white"/>
<path d="M20.5 21.4332V19.4332C20.5 18.3724 20.0786 17.3549 19.3284 16.6048C18.5783 15.8547 17.5609 15.4332 16.5 15.4332H8.5C7.43913 15.4332 6.42172 15.8547 5.67157 16.6048C4.92143 17.3549 4.5 18.3724 4.5 19.4332V21.4332" stroke="#5F6F86" stroke-width="2" stroke-linecap="round" stroke-linejoin="round"/>
<path d="M12.5 11.4332C14.7091 11.4332 16.5 9.64237 16.5 7.43323C16.5 5.22409 14.7091 3.43323 12.5 3.43323C10.2909 3.43323 8.5 5.22409 8.5 7.43323C8.5 9.64237 10.2909 11.4332 12.5 11.4332Z" stroke="#5F6F86" stroke-width="2" stroke-linecap="round" stroke-linejoin="round"/>
</svg>
