<svg width="25" height="25" viewBox="0 0 25 25" fill="none" xmlns="http://www.w3.org/2000/svg">
<rect width="24" height="24" transform="translate(0.25 0.433228)" fill="white"/>
<path d="M20.25 21.4332V19.4332C20.25 18.3724 19.8286 17.3549 19.0784 16.6048C18.3283 15.8547 17.3109 15.4332 16.25 15.4332H8.25C7.18913 15.4332 6.17172 15.8547 5.42157 16.6048C4.67143 17.3549 4.25 18.3724 4.25 19.4332V21.4332" stroke="#F40009" stroke-width="2" stroke-linecap="round" stroke-linejoin="round"/>
<path d="M12.25 11.4332C14.4591 11.4332 16.25 9.64237 16.25 7.43323C16.25 5.22409 14.4591 3.43323 12.25 3.43323C10.0409 3.43323 8.25 5.22409 8.25 7.43323C8.25 9.64237 10.0409 11.4332 12.25 11.4332Z" stroke="#F40009" stroke-width="2" stroke-linecap="round" stroke-linejoin="round"/>
</svg>
