<svg width="45" height="45" viewBox="0 0 45 45" fill="none" xmlns="http://www.w3.org/2000/svg">
<ellipse cx="22.5" cy="22.4549" rx="22.5" ry="22.4439" fill="#E8EBF7"/>
<g opacity="0.8">
<g opacity="0.3">
<path d="M29.0808 8.16184H20.6309C20.4114 8.16184 20.2468 7.99723 20.2468 7.77775C20.2468 7.55828 20.4114 7.39367 20.6309 7.39367H29.1357C29.3552 7.39367 29.5198 7.55828 29.5198 7.77775C29.4649 7.99723 29.3003 8.16184 29.0808 8.16184Z" fill="#999999"/>
<path d="M17.9423 8.16184H16.2962C16.0767 8.16184 15.9121 7.99723 15.9121 7.77775C15.9121 7.55828 16.0767 7.39367 16.2962 7.39367H17.9423C18.1618 7.39367 18.3264 7.55828 18.3264 7.77775C18.2715 7.99723 18.1069 8.16184 17.9423 8.16184Z" fill="#999999"/>
<path fill-rule="evenodd" clip-rule="evenodd" d="M16.2413 5.58297H17.0095V4.81479H16.2413V5.58297ZM18.491 5.58297H17.7228V4.81479H18.491V5.58297ZM19.2043 5.58297H19.9725V4.81479H19.2043V5.58297ZM21.454 5.58297H20.6858V4.81479H21.454V5.58297ZM22.1673 5.58297H22.9354V4.81479H22.1673V5.58297ZM23.6487 5.58297H24.4169V4.81479H23.6487V5.58297Z" fill="#999999"/>
</g>
<g opacity="0.3">
<path d="M29.0808 40.6996H20.6309C20.4114 40.6996 20.2468 40.535 20.2468 40.3155C20.2468 40.096 20.4114 39.9314 20.6309 39.9314H29.1357C29.3552 39.9314 29.5198 40.096 29.5198 40.3155C29.5198 40.535 29.3003 40.6996 29.0808 40.6996Z" fill="#999999"/>
<path d="M17.9423 40.6996H16.2962C16.0767 40.6996 15.9121 40.535 15.9121 40.3155C15.9121 40.096 16.0767 39.9314 16.2962 39.9314H17.9423C18.1618 39.9314 18.3264 40.096 18.3264 40.3155C18.2715 40.535 18.1069 40.6996 17.9423 40.6996Z" fill="#999999"/>
<path fill-rule="evenodd" clip-rule="evenodd" d="M16.2413 38.1207H17.0095V37.3525H16.2413V38.1207ZM18.491 38.1207H17.7228V37.3525H18.491V38.1207ZM19.2043 38.1207H19.9725V37.3525H19.2043V38.1207ZM21.454 38.1207H20.6858V37.3525H21.454V38.1207ZM22.1673 38.1207H22.9354V37.3525H22.1673V38.1207ZM23.6487 38.1207H24.4169V37.3525H23.6487V38.1207Z" fill="#999999"/>
</g>
</g>
<g opacity="0.2">
<path d="M40.6035 21.7695H34.1288C33.9642 21.7695 33.8545 21.6598 33.8545 21.4952C33.8545 21.3306 33.9642 21.2208 34.1288 21.2208H40.6035C40.7681 21.2208 40.8778 21.3306 40.8778 21.4952C40.8778 21.6598 40.7681 21.7695 40.6035 21.7695Z" fill="#999999"/>
<path d="M37.3662 20.1783H30.8915C30.7269 20.1783 30.6172 20.0686 30.6172 19.904C30.6172 19.7393 30.7269 19.6296 30.8915 19.6296H37.3662C37.5308 19.6296 37.6405 19.7393 37.6405 19.904C37.6954 20.0686 37.5308 20.1783 37.3662 20.1783Z" fill="#999999"/>
<path d="M13.9368 21.7695H7.46221C7.29761 21.7695 7.18787 21.6598 7.18787 21.4952C7.18787 21.3306 7.29761 21.2208 7.46221 21.2208H13.9368C14.1014 21.2208 14.2112 21.3306 14.2112 21.4952C14.2112 21.6598 14.0466 21.7695 13.9368 21.7695Z" fill="#999999"/>
<path d="M10.6995 20.1783H4.22491C4.0603 20.1783 3.95056 20.0686 3.95056 19.904C3.95056 19.7393 4.0603 19.6296 4.22491 19.6296H10.6995C10.8641 19.6296 10.9739 19.7393 10.9739 19.904C10.9739 20.0686 10.8093 20.1783 10.6995 20.1783Z" fill="#999999"/>
</g>
<path d="M10 22.2598C10 15.2236 15.704 9.51959 22.7402 9.51959C29.7764 9.51959 35.4804 15.2236 35.4804 22.2598C35.4804 29.296 29.7764 35 22.7402 35C15.704 35 10 29.296 10 22.2598Z" fill="#F6D738"/>
<path d="M11.9277 22.2598C11.9277 16.2883 16.7687 11.4474 22.7402 11.4474C28.7117 11.4474 33.5526 16.2883 33.5526 22.2598C33.5526 28.2313 28.7117 33.0722 22.7402 33.0722C16.7687 33.0722 11.9277 28.2313 11.9277 22.2598Z" fill="#F3CC30"/>
<path d="M28.3972 13.0314C29.474 14.7123 30.0983 16.711 30.0983 18.8554C30.0983 24.827 25.2574 29.6679 19.2858 29.6679C17.2119 29.6679 15.2747 29.0835 13.6289 28.0711C15.5505 31.0711 18.9132 33.0595 22.7403 33.0595C28.7118 33.0595 33.5527 28.2186 33.5527 22.247C33.5527 18.3494 31.4901 14.934 28.3972 13.0314Z" fill="#EDBD31"/>
<path d="M13.8218 23.2491C13.8218 17.9778 18.095 13.7046 23.3663 13.7046C26.4475 13.7046 29.1872 15.1649 30.9322 17.4309C29.2841 14.5696 26.195 12.6434 22.6559 12.6434C17.3846 12.6434 13.1113 16.9167 13.1113 22.188C13.1113 24.3782 13.8496 26.3956 15.0901 28.0062C14.2833 26.6058 13.8218 24.9814 13.8218 23.2491Z" fill="#FBEDCF"/>
<path d="M23.6328 15.2811V16.6585C24.1855 16.7476 24.6378 16.9303 24.9892 17.2067C25.3406 17.4832 25.6755 17.9072 25.9942 18.4787L24.6237 19.2448C24.2114 18.4953 23.6725 18.1203 23.0073 18.1203C22.5949 18.1203 22.2528 18.2422 21.9812 18.4858C21.7095 18.7295 21.5736 19.034 21.5736 19.3994C21.5736 19.7322 21.6836 20.0085 21.9039 20.2287C22.1193 20.4443 22.5551 20.6996 23.2111 20.9948C23.7779 21.2525 24.2465 21.495 24.6167 21.7222C24.9867 21.9495 25.2656 22.1684 25.453 22.3793C25.9824 22.951 26.2472 23.642 26.2472 24.4525C26.2472 25.2491 26.0082 25.9519 25.5303 26.5609C25.057 27.1653 24.4245 27.5729 23.6328 27.7838V29.2385H22.4029V27.8259C21.4845 27.6759 20.7841 27.3598 20.3015 26.8772C19.8189 26.3946 19.4628 25.6497 19.2333 24.6423L20.7794 24.3189C20.9903 25.0312 21.2479 25.5395 21.5525 25.844C21.8711 26.1346 22.295 26.2798 22.8246 26.2798C23.3399 26.2798 23.7709 26.1135 24.1177 25.7808C24.4597 25.4529 24.6308 25.0288 24.6308 24.5087C24.6308 24.0449 24.4878 23.6724 24.202 23.3913C24.0567 23.2555 23.8424 23.1021 23.5589 22.931C23.2755 22.76 22.9135 22.5738 22.4731 22.3723C21.5642 21.9647 20.9667 21.5898 20.681 21.2478C20.2265 20.7372 19.9993 20.1257 19.9993 19.4135C19.9993 19.0761 20.0531 18.7623 20.161 18.4717C20.2687 18.1813 20.4245 17.9178 20.6283 17.6811C20.8321 17.4446 21.084 17.2396 21.3839 17.0661C21.6836 16.8929 22.0234 16.7569 22.4029 16.6585V15.2811H23.6328Z" fill="#D49A34"/>
</svg>
