<svg width="55" height="56" viewBox="0 0 55 56" fill="none" xmlns="http://www.w3.org/2000/svg">
<path fill-rule="evenodd" clip-rule="evenodd" d="M11.4593 0.5H43.5428V5.08335H11.4593V0.5ZM9.16671 18.767V21.2809C9.16671 23.7261 7.02857 25.7084 4.58335 25.7084C2.13813 25.7084 0 23.7261 0 21.2832V18.767L11.1673 7.37503H15.7828L9.16671 18.767ZM11.4593 21.2809C11.4593 23.7261 13.5974 25.7084 16.0426 25.7084C18.4879 25.7084 20.626 23.7261 20.626 21.2809V18.767L22.7779 7.37503H18.3252L11.4593 18.767V21.2809ZM22.9159 18.6088V21.1251C22.9159 23.5703 25.054 25.7084 27.4992 25.7084C29.9444 25.7084 32.0826 23.5657 32.0826 21.1205V18.6042L29.6809 7.37503H25.3152L22.9159 18.6088ZM38.9615 25.7084C36.5163 25.7084 34.3759 23.5703 34.3759 21.1251V18.6088L32.224 7.37503H36.6767L43.5426 18.838V21.3543C43.5426 23.7995 41.4068 25.7084 38.9615 25.7084ZM52.7077 55.5002V28.0001H2.29077V55.5002H52.7077ZM6.87503 46.3337H48.1252V32.5837H6.87503V46.3337ZM43.8326 7.37503H39.2172L45.8333 18.6088V21.1251C45.8333 23.5703 47.9714 25.7084 50.4166 25.7084C52.8619 25.7084 55 23.7261 55 21.2809V18.767L43.8326 7.37503Z" fill="#C00000"/>
</svg>
