<svg width="45" height="45" viewBox="0 0 45 45" fill="none" xmlns="http://www.w3.org/2000/svg">
<circle cx="22.4444" cy="22.4445" r="22.2222" fill="#E8EBF7" fill-opacity="0.75"/>
<g opacity="0.8">
<g opacity="0.3">
<path d="M29.8332 7.44445H21.2777C21.0555 7.44445 20.8888 7.27778 20.8888 7.05556C20.8888 6.83334 21.0555 6.66667 21.2777 6.66667H29.8888C30.111 6.66667 30.2777 6.83334 30.2777 7.05556C30.2221 7.27778 30.0555 7.44445 29.8332 7.44445Z" fill="#999999"/>
<path d="M18.5554 7.44445H16.8888C16.6665 7.44445 16.4999 7.27778 16.4999 7.05556C16.4999 6.83334 16.6665 6.66667 16.8888 6.66667H18.5554C18.7777 6.66667 18.9443 6.83334 18.9443 7.05556C18.8888 7.27778 18.7221 7.44445 18.5554 7.44445Z" fill="#999999"/>
<path fill-rule="evenodd" clip-rule="evenodd" d="M16.8333 4.83333H17.611V4.05556H16.8333V4.83333ZM19.111 4.83333H18.3333V4.05556H19.111V4.83333ZM19.8333 4.83333H20.611V4.05556H19.8333V4.83333ZM22.111 4.83333H21.3333V4.05556H22.111V4.83333ZM22.8333 4.83333H23.611V4.05556H22.8333V4.83333ZM24.3333 4.83333H25.111V4.05556H24.3333V4.83333Z" fill="#999999"/>
</g>
<g opacity="0.3">
<path d="M29.8332 40.3889H21.2777C21.0555 40.3889 20.8888 40.2222 20.8888 40C20.8888 39.7778 21.0555 39.6111 21.2777 39.6111H29.8888C30.111 39.6111 30.2777 39.7778 30.2777 40C30.2777 40.2222 30.0555 40.3889 29.8332 40.3889Z" fill="#999999"/>
<path d="M18.5554 40.3889H16.8888C16.6665 40.3889 16.4999 40.2222 16.4999 40C16.4999 39.7778 16.6665 39.6111 16.8888 39.6111H18.5554C18.7777 39.6111 18.9443 39.7778 18.9443 40C18.8888 40.2222 18.7221 40.3889 18.5554 40.3889Z" fill="#999999"/>
<path fill-rule="evenodd" clip-rule="evenodd" d="M16.8333 37.7778H17.611V37H16.8333V37.7778ZM19.111 37.7778H18.3333V37H19.111V37.7778ZM19.8333 37.7778H20.611V37H19.8333V37.7778ZM22.111 37.7778H21.3333V37H22.111V37.7778ZM22.8333 37.7778H23.611V37H22.8333V37.7778ZM24.3333 37.7778H25.111V37H24.3333V37.7778Z" fill="#999999"/>
</g>
</g>
<g opacity="0.2">
<path d="M41.5 21.2222H34.9444C34.7777 21.2222 34.6666 21.1111 34.6666 20.9444C34.6666 20.7778 34.7777 20.6667 34.9444 20.6667H41.5C41.6666 20.6667 41.7777 20.7778 41.7777 20.9444C41.7777 21.1111 41.6666 21.2222 41.5 21.2222Z" fill="#999999"/>
<path d="M38.2221 19.6111H31.6666C31.4999 19.6111 31.3888 19.5 31.3888 19.3333C31.3888 19.1667 31.4999 19.0556 31.6666 19.0556H38.2221C38.3888 19.0556 38.4999 19.1667 38.4999 19.3333C38.5555 19.5 38.3888 19.6111 38.2221 19.6111Z" fill="#999999"/>
<path d="M14.5 21.2222H7.9444C7.77774 21.2222 7.66663 21.1111 7.66663 20.9444C7.66663 20.7778 7.77774 20.6667 7.9444 20.6667H14.5C14.6666 20.6667 14.7777 20.7778 14.7777 20.9444C14.7777 21.1111 14.6111 21.2222 14.5 21.2222Z" fill="#999999"/>
<path d="M11.2221 19.6111H4.66657C4.49991 19.6111 4.38879 19.5 4.38879 19.3333C4.38879 19.1667 4.49991 19.0556 4.66657 19.0556H11.2221C11.3888 19.0556 11.4999 19.1667 11.4999 19.3333C11.4999 19.5 11.3332 19.6111 11.2221 19.6111Z" fill="#999999"/>
</g>
<path d="M33.0633 15.8096L22.7567 10.6422C22.2991 10.4126 21.7583 10.4114 21.2994 10.639L10.9694 15.7601C10.6679 15.9095 10.5167 16.1968 10.516 16.4844L10.4868 29.2375C10.4862 29.5252 10.636 29.8131 10.9368 29.9638L21.2434 35.1311C21.4723 35.2459 21.7219 35.3036 21.9717 35.3042C22.2215 35.3047 22.4713 35.2481 22.7008 35.1343L33.031 30.0132C33.3324 29.864 33.4835 29.5767 33.484 29.289L33.5132 16.5358C33.514 16.2482 33.3642 15.9603 33.0633 15.8096Z" fill="#F4AB62"/>
<path d="M33.4988 16.51V29.2632C33.4988 29.551 33.3484 29.8386 33.0472 29.9886L22.7289 35.1328C22.4996 35.2471 22.2499 35.3042 22.0001 35.3042V16.51H33.4988Z" fill="#D98753"/>
<path d="M33.047 17.2356L22.7286 22.3797C22.2702 22.6083 21.7297 22.6083 21.2712 22.3797L17.4044 20.4517L14.3988 18.9535L10.9529 17.2356C10.3508 16.9354 10.3508 16.085 10.9529 15.7849L21.2712 10.6408C21.7297 10.4122 22.2702 10.4122 22.7286 10.6408L33.047 15.7849C33.6491 16.085 33.6491 16.9354 33.047 17.2356Z" fill="#F3C57D"/>
<path d="M29.9062 14.2191L17.4045 20.4519L14.3989 18.9535L26.9009 12.7208L29.9062 14.2191Z" fill="#C00000"/>
<path d="M17.4045 20.4518V26.5295L14.3989 25.0312V18.9534L17.4045 20.4518Z" fill="#C00000"/>
<path d="M11.7723 28.7057C11.7262 28.6794 11.6889 28.7004 11.6887 28.7528C11.6886 28.8049 11.7257 28.8688 11.7717 28.8949L13.068 29.6352C13.114 29.6615 13.1514 29.6402 13.1515 29.5881C13.1517 29.5358 13.1146 29.4722 13.0685 29.4459L11.7723 28.7057Z" fill="#ED892D"/>
<path d="M11.7739 28.1921C11.7278 28.1659 11.6905 28.187 11.6903 28.2392C11.6902 28.2914 11.7273 28.355 11.7733 28.3813L13.7832 29.529C13.8291 29.5551 13.8664 29.5341 13.8666 29.4819C13.8667 29.4296 13.8296 29.3659 13.7837 29.3398L11.7739 28.1921Z" fill="#ED892D"/>
<path d="M11.7717 28.8949L13.068 29.6352C13.114 29.6615 13.1514 29.6402 13.1515 29.5881C13.1517 29.5358 13.1146 29.4722 13.0685 29.4459L11.7723 28.7057C11.7262 28.6794 11.6889 28.7004 11.6887 28.7528C11.6886 28.805 11.7257 28.8688 11.7717 28.8949ZM11.7747 27.8677L13.7845 29.0154C13.8304 29.0417 13.8678 29.0206 13.868 28.9683C13.8681 28.916 13.831 28.8525 13.7851 28.8262L11.7752 27.6786C11.7292 27.6523 11.6918 27.6734 11.6917 27.7255C11.6915 27.7779 11.7287 27.8414 11.7747 27.8677ZM11.7732 28.3813L13.7831 29.529C13.829 29.5551 13.8663 29.5341 13.8665 29.4819C13.8666 29.4296 13.8295 29.3659 13.7836 29.3398L11.7738 28.1921C11.7277 28.1659 11.6904 28.187 11.6902 28.2392C11.69 28.2914 11.7272 28.355 11.7732 28.3813ZM14.1969 30.6248L11.3545 29.0019L11.36 27.0961L14.2023 28.7193L14.1969 30.6248Z" fill="#F8DA9F"/>
<path d="M11.7753 27.6786C11.7293 27.6523 11.6919 27.6734 11.6918 27.7255C11.6916 27.7779 11.7288 27.8414 11.7748 27.8677L13.7846 29.0154C13.8305 29.0417 13.8679 29.0206 13.8681 28.9683C13.8682 28.916 13.8311 28.8525 13.7852 28.8262L11.7753 27.6786Z" fill="#ED892D"/>
</svg>
