<svg width="16" height="14" viewBox="0 0 16 14" fill="none" xmlns="http://www.w3.org/2000/svg">
<path fill-rule="evenodd" clip-rule="evenodd" d="M6.16338 1.029C6.55271 0.390147 7.24892 0 7.99962 0C8.75032 0 9.44653 0.390147 9.83805 1.03261L15.7122 10.7935C16.0938 11.4512 16.0961 12.2611 15.7182 12.921C15.3403 13.5809 14.639 13.9916 13.8676 14L2.1233 14C1.36025 13.9916 0.658952 13.5809 0.281065 12.921C-0.0968225 12.2611 -0.0945442 11.4512 0.29324 10.783L6.16338 1.029ZM8.53273 1.81578C8.41969 1.6303 8.21757 1.51704 7.99962 1.51704C7.78168 1.51704 7.57955 1.6303 7.4687 1.81217L1.60694 11.5521C1.49616 11.7431 1.4955 11.9782 1.60521 12.1698C1.71491 12.3613 1.91852 12.4806 2.13167 12.483L13.8592 12.483C14.0807 12.4806 14.2843 12.3613 14.394 12.1698C14.5037 11.9782 14.5031 11.7431 14.3985 11.5626L8.53273 1.81578ZM7.99962 4.2358C8.39044 4.2358 8.71254 4.52862 8.75657 4.90586L8.76169 4.99432V7.72499C8.76169 8.1439 8.4205 8.4835 7.99962 8.4835C7.6088 8.4835 7.2867 8.19069 7.24268 7.81344L7.23755 7.72499V4.99432C7.23755 4.5754 7.57874 4.2358 7.99962 4.2358ZM8.76855 10.4557C8.76855 10.0367 8.42736 9.69713 8.00648 9.69713L7.91075 9.70224C7.53174 9.74605 7.23755 10.0667 7.23755 10.4557C7.23755 10.8746 7.57874 11.2142 8.00648 11.2142L8.09535 11.2091C8.47436 11.1652 8.76855 10.8446 8.76855 10.4557Z" fill="#1890FF"/>
</svg>
