<svg width="45" height="45" viewBox="0 0 45 45" fill="none" xmlns="http://www.w3.org/2000/svg">
<ellipse cx="22.5" cy="22.4546" rx="22.5" ry="22.4439" fill="#E8EBF7"/>
<g opacity="0.8">
<g opacity="0.3">
<path d="M29.0811 8.15978H20.6312C20.4117 8.15978 20.2471 7.99517 20.2471 7.77569C20.2471 7.55621 20.4117 7.3916 20.6312 7.3916H29.136C29.3554 7.3916 29.52 7.55621 29.52 7.77569C29.4652 7.99517 29.3006 8.15978 29.0811 8.15978Z" fill="#999999"/>
<path d="M17.9428 8.15978H16.2967C16.0772 8.15978 15.9126 7.99517 15.9126 7.77569C15.9126 7.55621 16.0772 7.3916 16.2967 7.3916H17.9428C18.1623 7.3916 18.3269 7.55621 18.3269 7.77569C18.272 7.99517 18.1074 8.15978 17.9428 8.15978Z" fill="#999999"/>
<path fill-rule="evenodd" clip-rule="evenodd" d="M16.2417 5.58068H17.0099V4.8125H16.2417V5.58068ZM18.4913 5.58068H17.7231V4.8125H18.4913V5.58068ZM19.2048 5.58068H19.9729V4.8125H19.2048V5.58068ZM21.4543 5.58068H20.6861V4.8125H21.4543V5.58068ZM22.1675 5.58068H22.9357V4.8125H22.1675V5.58068ZM23.6492 5.58068H24.4174V4.8125H23.6492V5.58068Z" fill="#999999"/>
</g>
<g opacity="0.3">
<path d="M29.0811 40.6998H20.6312C20.4117 40.6998 20.2471 40.5352 20.2471 40.3157C20.2471 40.0962 20.4117 39.9316 20.6312 39.9316H29.136C29.3554 39.9316 29.52 40.0962 29.52 40.3157C29.52 40.5352 29.3006 40.6998 29.0811 40.6998Z" fill="#999999"/>
<path d="M17.9428 40.6998H16.2967C16.0772 40.6998 15.9126 40.5352 15.9126 40.3157C15.9126 40.0962 16.0772 39.9316 16.2967 39.9316H17.9428C18.1623 39.9316 18.3269 40.0962 18.3269 40.3157C18.272 40.5352 18.1074 40.6998 17.9428 40.6998Z" fill="#999999"/>
<path fill-rule="evenodd" clip-rule="evenodd" d="M16.2417 38.1217H17.0099V37.3535H16.2417V38.1217ZM18.4913 38.1217H17.7231V37.3535H18.4913V38.1217ZM19.2048 38.1217H19.9729V37.3535H19.2048V38.1217ZM21.4543 38.1217H20.6861V37.3535H21.4543V38.1217ZM22.1675 38.1217H22.9357V37.3535H22.1675V38.1217ZM23.6492 38.1217H24.4174V37.3535H23.6492V38.1217Z" fill="#999999"/>
</g>
</g>
<g opacity="0.2">
<path d="M40.6035 21.7694H34.1288C33.9642 21.7694 33.8545 21.6597 33.8545 21.4951C33.8545 21.3304 33.9642 21.2207 34.1288 21.2207H40.6035C40.7681 21.2207 40.8778 21.3304 40.8778 21.4951C40.8778 21.6597 40.7681 21.7694 40.6035 21.7694Z" fill="#999999"/>
<path d="M37.3662 20.1776H30.8915C30.7269 20.1776 30.6172 20.0679 30.6172 19.9033C30.6172 19.7386 30.7269 19.6289 30.8915 19.6289H37.3662C37.5308 19.6289 37.6405 19.7386 37.6405 19.9033C37.6954 20.0679 37.5308 20.1776 37.3662 20.1776Z" fill="#999999"/>
<path d="M13.937 21.7694H7.46234C7.29773 21.7694 7.18799 21.6597 7.18799 21.4951C7.18799 21.3304 7.29773 21.2207 7.46234 21.2207H13.937C14.1016 21.2207 14.2113 21.3304 14.2113 21.4951C14.2113 21.6597 14.0467 21.7694 13.937 21.7694Z" fill="#999999"/>
<path d="M10.6997 20.1776H4.22503C4.06042 20.1776 3.95068 20.0679 3.95068 19.9033C3.95068 19.7386 4.06042 19.6289 4.22503 19.6289H10.6997C10.8643 19.6289 10.974 19.7386 10.974 19.9033C10.974 20.0679 10.8094 20.1776 10.6997 20.1776Z" fill="#999999"/>
</g>
<g clip-path="url(#clip0_8147_14138)">
<rect width="20.5556" height="23.3333" transform="translate(11.4443 11.1104)" fill="white"/>
<path d="M11.4443 34.4437V11.1104H31.9999V34.4437H11.4443ZM12.1041 11.7712V33.7831H31.3401V11.7712H12.1041Z" fill="#1B4BC7"/>
<path d="M29.6079 15.8604H19.5625V16.5212H29.6079V15.8604Z" fill="#1B4BC7"/>
<path d="M28.8508 14.5264H19.2329V15.1872H28.8508V14.5264Z" fill="#1B4BC7"/>
<path d="M27.7491 17.1934H19.2329V17.8542H27.7491V17.1934Z" fill="#1B4BC7"/>
<path d="M15.9826 18.8082C14.541 18.8082 13.3682 17.6336 13.3682 16.1898C13.3682 14.7459 14.5412 13.5713 15.9826 13.5713C17.424 13.5713 18.597 14.7459 18.597 16.1898C18.597 17.6336 17.4242 18.8082 15.9826 18.8082ZM15.9826 14.2321C14.9046 14.2321 14.0277 15.1104 14.0277 16.1898C14.0277 17.2692 14.9046 18.1474 15.9826 18.1474C17.0606 18.1474 17.9373 17.2692 17.9373 16.1898C17.9373 15.1104 17.0603 14.2321 15.9826 14.2321Z" fill="#4AAD50"/>
<path d="M15.6679 17.3274L14.6689 16.3269L15.1354 15.8597L15.6675 16.3924L16.8261 15.2295L17.2932 15.6962L15.6679 17.3274Z" fill="#4AAD50"/>
<path d="M25.306 22.4463H19.5625V23.1071H25.306V22.4463Z" fill="#1B4BC7"/>
<path d="M27.1815 21.1133H19.2329V21.7741H27.1815V21.1133Z" fill="#1B4BC7"/>
<path d="M26.4178 23.7803H19.2329V24.4411H26.4178V23.7803Z" fill="#1B4BC7"/>
<path d="M13.3682 22.7767C13.3682 21.3328 14.541 20.1582 15.9826 20.1582C17.4242 20.1582 18.597 21.3328 18.597 22.7767C18.597 24.2205 17.4242 25.3951 15.9826 25.3951C14.541 25.3951 13.3682 24.2203 13.3682 22.7767ZM17.9373 22.7767C17.9373 21.6973 17.0603 20.819 15.9826 20.819C14.9049 20.819 14.0279 21.6973 14.0279 22.7767C14.0279 23.8561 14.9049 24.7346 15.9826 24.7346C17.0603 24.7346 17.9373 23.8563 17.9373 22.7767Z" fill="#BACEE2"/>
<path d="M15.4602 21.7867L14.9937 22.2539L16.505 23.7675L16.9715 23.3003L15.4602 21.7867Z" fill="#BACEE2"/>
<path d="M16.505 21.7862L14.9937 23.2998L15.4602 23.7671L16.9715 22.2534L16.505 21.7862Z" fill="#BACEE2"/>
<path d="M26.9671 29.0332H19.5625V29.694H26.9671V29.0332Z" fill="#1B4BC7"/>
<path d="M28.8508 27.6992H19.2329V28.36H28.8508V27.6992Z" fill="#1B4BC7"/>
<path d="M29.7303 30.3672H19.2329V31.028H29.7303V30.3672Z" fill="#1B4BC7"/>
<path d="M15.9826 31.9821C14.541 31.9821 13.3682 30.8074 13.3682 29.3636C13.3682 27.9197 14.541 26.7451 15.9826 26.7451C17.4242 26.7451 18.597 27.9197 18.597 29.3636C18.597 30.8074 17.4242 31.9821 15.9826 31.9821ZM15.9826 27.4059C14.9049 27.4059 14.0279 28.2842 14.0279 29.3636C14.0279 30.443 14.9049 31.3213 15.9826 31.3213C17.0603 31.3213 17.9373 30.443 17.9373 29.3636C17.9373 28.2842 17.0603 27.4059 15.9826 27.4059Z" fill="#4AAD50"/>
<path d="M15.668 30.5012L14.6694 29.5009L15.1358 29.0338L15.6677 29.5665L16.8265 28.4033L17.2934 28.8702L15.668 30.5012Z" fill="#4AAD50"/>
</g>
<defs>
<clipPath id="clip0_8147_14138">
<rect width="20.5556" height="23.3333" fill="white" transform="translate(11.4443 11.1104)"/>
</clipPath>
</defs>
</svg>
